<?xml version="1.0" encoding="utf-8"?>
<!-- Generator: Adobe Illustrator 17.0.0, SVG Export Plug-In . SVG Version: 6.00 Build 0)  -->
<!DOCTYPE svg PUBLIC "-//W3C//DTD SVG 1.1//EN" "http://www.w3.org/Graphics/SVG/1.1/DTD/svg11.dtd">
<svg version="1.1" xmlns="http://www.w3.org/2000/svg" xmlns:xlink="http://www.w3.org/1999/xlink" x="0px" y="0px" width="612px"
	 height="792px" viewBox="0 0 612 792" enable-background="new 0 0 612 792" xml:space="preserve">
<g id="Слой_2">
	<rect fill="#020100" width="612" height="792"/>
</g>
<g id="Слой_39">
	<path fill="#6597A6" d="M333,204.75c-0.045,0.744-3.183,1.097-3.005,2.756c1.474,0.637,3.977,1.48,5.46,1.729
		c-0.193-1.64-2.521-4.265-2.455-5.485"/>
</g>
<g id="Слой_40">
	<path fill="#6597A6" d="M334.25,191.25c-2.009,6.092-3.345,10.778-6.706,15.968c7.07-0.721,6.55,0.38,11.961,1.699
		c0.834-0.093,8.374-2.367,10.311-2.954c-0.801-2.045-3.741-7.867-5.117-10.181c-0.001,0.001-0.737-0.271-0.761-0.304
		c-0.445,0.714-1.448,3.563-2.238,3.972c-0.099-0.069-1.302,0.438-1.395,0.531c-1.834-3.613-4.869-5.611-7.056-8.73"/>
</g>
<g id="Слой_41">
	<path fill="#96BBCA" d="M323.5,193.75c-0.01-0.01,1.48,4.233,2.488,5.28c1.871-2.101,2.042-2.609,3.012-5.705
		c0.177,0.451,3.091,3.915,3.225,3.913c-0.779,2.686-3.581,9.216-4.613,11.507c-4.246-0.587-6.438-1.772-9.381-4.982
		c0.052-0.055,0.045-0.715-0.001-0.776c2.738-1.879,2.732-4.581,4.519-6.737"/>
</g>
<g id="Слой_42">
	<path fill="#B0D1E0" d="M313,194.25c-2.157,5.015-3.881,11.112-5.711,16.249c6.984-3.13,6.101-2.314,14.717-2.604
		c-4.324-4.113-6.071-8.855-9.256-13.395"/>
</g>
<g id="Слой_38">
	<path fill="#96BBCA" d="M194.455,213v-1.333c0-0.347,0.104-0.67,0.273-0.951c-1.27-1.99-2.075-4.209-1.94-6.716
		c0.004-0.071,0.021-0.133,0.031-0.2c-0.478-1.57-0.81-3.191-1.028-4.774c-0.821,0.371-2.011,0.13-2.413-0.745
		c-0.253-0.551-0.402-1.096-0.489-1.658c-0.031-0.041-0.067-0.069-0.096-0.114c-0.23-0.355-0.319-0.759-0.338-1.176
		c-0.004-0.097,0.008-0.191,0.02-0.284c-1.089-0.066-2.297,0.014-3.655,0.284l-5.323,4.333
		c-10.873,17.122-8.389,30.368,6.174,44.534c0.465-0.793,1.034-1.544,1.668-2.195c0.202-0.207,0.446-0.347,0.706-0.436
		c2.766-6.468,6.493-17.189,7.951-26.725C195.128,214.68,194.455,213.909,194.455,213z"/>
</g>
<g id="Слой_37">
	<path fill="#B0D1E0" d="M185.333,195.333c0.672,7.423-1.243,15.65-0.919,23.357c-4.073,0.697-11.517,1.331-15.696,0.26
		c5.801-7.306,10.185-16.751,15.948-25.284"/>
</g>
<g id="Слой_36">
	<path fill="#6597A6" d="M184,218c2.51-0.155,8.856,1.454,12.2,1.715c-3.372,8.177-7.888,17.418-11.568,26.036
		c-1.829-8.817-2.048-18.516-0.632-27.084"/>
</g>
<g id="Слой_5">
	<path fill="#833201" d="M300,556c-2.196,9.751-2.834,18.442,1.336,27.28c-1.043-0.276,6.089-3.03,7.215-3.179
		c1.302,0.268,2.883,6.603,6.763,7.296c0.901-1.312,4.962-4.776,6.588-5.381c-0.011-6.084-2.32-12.75-3.299-19.218
		c-5.78-1.859-12.49-4.846-17.936-7.464"/>
	<path fill="#833201" d="M349.333,554.667c3.013,11.78,16.84,11.902,10.272,29.235c45.991,7.035,24.987-41.274-9.593-29.235"/>
</g>
<g id="Слой_6">
	<path fill="#A44407" d="M284.667,551.333c-33.475,15.882-11.869,50.449,18.599,31.868c0.506-14.204-3.167-8.997,3.611-24.535
		c-8.518-4.636-18.046-6.829-26.877-6"/>
	<path fill="#A44407" d="M355.333,553.333c34.547,14.991,11.727,43.907-18.579,23.884c-0.21-0.965-2.291-13.223-2.587-15.768
		c8.609-4.859,17.6-7.445,27.166-8.783"/>
</g>
<g id="Слой_7">
	<path fill="#C25411" d="M294,554c-21.209,7.415-24.486,21.435-9.017,37.884c-50.328,6.013-37.054-52.152,7.683-35.884"/>
	<path fill="#C25411" d="M343.333,556.667c10.759,14.345,11.381,22.089-9.243,21.434c-0.349,0.065-0.391,6.606-2.559,7.134
		c-1.616-0.893-6.29,0.152-8.248,0.183c-7.36-17.705,2.31-20.668,17.383-28.084"/>
</g>
<g id="Слой_12">
	<path fill="#003C47" d="M291,405.667c6.716,24.683,7.615,52.801,10.683,78.45c1.559,13.028-1.49,62.546,6.717,73.458
		c1.935,2.573,12.86,6.628,15.958,6.977c7.692-29.676,8.825-71.151,1.374-100.533c-2.764-10.898-3.751-20.374-13.436-25.446
		c2.547-0.36,9.756-1.972,12.973-1.921c1.321,3.417,2.475,6.506,4.682,9.532c0.442-11.929,0.999-23.874,1.268-35.84
		c-14.415,2.519-28.151,3.381-41.552-2.011"/>
</g>
<g id="Слой_11">
	<path fill="#002831" d="M328,409c0.773,12.71-1.071,25.766,1.383,38.282c0.155-0.24,1.479,0.178,1.624,0.468
		c4.016-14.216,20.763-31.865,8.033-43.975c-3.719,5.51-7.971,3.727-12.373,7.225"/>
	<path fill="#002831" d="M329.333,478.667c0.081,29.322-6.669,57.784-6.282,86.542c20.421-5.326,27.92-77.611,28.678-99.259
		c-0.596,0.033-10.847,2.042-11.994,2.4c2.346,4.467,1.477,11.837,3.881,16.251c-8.362,2.753-12.837-0.851-15.283-4.601"/>
</g>
<g id="Слой_13">
	<path fill="#006576" d="M297,408c5.859,50.762,11.624,102.296,14.611,153.288c0.534,0.383-4.841-0.919-4.496-1.03
		c-7.121-24.527-11.152-48.623-16.107-73.878c-4.57-23.292-24.564-60.428-20.998-83.479c0.612-3.959-0.634-8.734-0.237-12.807
		c8.905,6.794,20.236,10.556,28.561,18.239"/>
</g>
<g id="Слой_9">
	<path fill="#96BBCA" d="M298,483.667c-12.382,26.843-49.335,54.497-70.225,74.95c27.806-0.481,87.127-45.531,84.984-76.11
		c-0.183-2.606,1.768-5.869,2.104-8.664c-6.017,2.436-12.557,5.537-17.53,9.824"/>
</g>
<g id="Слой_8">
	<path fill="#6597A6" d="M308.75,476c1.674,7.021,0.914,15.573-0.461,23.187c11.611-10.193,28.843-18.976,15.508-36.021
		c-4.205,4.291-9.789,8.858-14.296,12.834"/>
</g>
<g id="Слой_10">
	<path fill="#B0D1E0" d="M301.333,483.667c-9.979,30.405-81.741,105.718-122.658,75.046c31.834-20.948,67.304-36.836,98.17-58.437
		C285.242,494.4,292.522,488.819,301.333,483.667"/>
</g>
<g id="Слой_14">
	<path fill="#300E02" d="M370,435.333c-1.646,1.676-5.303,3.027-7.388,4.315c0.789,2.694,2.901,9.129,4.364,11.36
		c9.325-7.868,6.504-10.472,2.69-15.008"/>
</g>
<g id="Слой_15">
	<path fill="#521A02" d="M323,435.667c-2.869,1.252-6.262,3.858-8.407,5.336c9.475,13.154,14.709,32.807,21.399,47.965
		c2.888-0.996,5.296-2.008,7.956-3.358c-0.333-5.311-3.107-15.912-5.26-20.412c-9.243-5.314-9.274-18.084-14.688-28.864"/>
</g>
<g id="Слой_17">
	<path fill="#521A02" d="M368,377c1.901,13.131,12.912,38.804,2.665,47.584c-19.259,16.5-4.84-39.922-2.999-44.25"/>
</g>
<g id="Слой_30">
	<path fill="#FFB4B4" d="M356,419.667c3.757,12.86,12.407,27.765,5.033,40.383c-1.432,0.795-2.392-1.926-3.026-1.781
		c-2.158,1.968-2.999,4.518-5.944,4.996c-0.068-0.219-0.743-0.734-0.925-0.733c-2.271-14.568,0.689-30.54-2.422-44.479
		c2.309,1.003,5.114,2.024,7.616,3.281"/>
</g>
<g id="Слой_32">
	<path fill="#FFCCCC" d="M347.667,418c-6.701,15.248-8.863,34.22-3.266,50.599c0.042-0.017,0.894,0.342,0.94,0.433
		c15.593-8.706,14.669-47.264,0.992-49.699"/>
</g>
<g id="Слой_31">
	<path fill="#FFE2E2" d="M349.667,418.394c-3.506,14.862-1.577,44.825-14.9,50.922c-8.039-14.84,0.497-38.786,9.25-52.255
		c3.092,0.697,6.859,1.848,9.651,3.079"/>
</g>
<g id="Слой_33">
	<path fill="#FFB4B4" d="M199,294.333c15.746,12.094,11.088,28.315-10.95,23.283c-1.086-2.219-2.735-5.268-3.74-7.534
		c-0.007,0.007,0.085-1.054,0.074-1.09c5.379-4.39,9.433-10.545,14.615-14.325"/>
</g>
<g id="Слой_34">
	<path fill="#FFE2E2" d="M190.333,290c-5.442,8.127-6.704,18.151-3.368,27.342c-4.893,1.436-6.879,1.992-11.582,0.935
		c0.08-4.436-2.133-6.233-3.081-9.611c0.531-1.931,3.082-4.613,4.055-6.359c-0.717-1.109-3.696-2.458-3.999-3.631
		c0.882-11.879,9.124-16.124,17.976-8.342"/>
	<path fill="#FFE2E2" d="M196,290.333c2.275,8.052,1.397,12.483-8.982,15.289c-3.589-10.421,1.459-11.711,9.315-14.289"/>
	<path fill="#FFCCCC" d="M192.333,290.667c-3.924,5.116-6.95,8.467-6.599,15.599c0.113,0.11,0.224,0.221,0.333,0.333
		c7.968-3.208,11.016-7.727,12.548-16.575c-3.15-1.153-4.647,1.327-6.615,1.309"/>
</g>
<g id="Слой_19">
	<path fill="#521A02" d="M311.667,237.667c4.123-0.074,9.301,0.82,13.545,2.368c-2.553,3.175-8.724,9.716-11.21,11.88
		c0.57-4.571-1.582-9.679-1.335-13.581"/>
	<path fill="#521A02" d="M312.333,239c-15.143-29.143,39.877-9.334,41.08-19.415c-1.895,15.875,4.834,30.845,5.302,46.696
		c0.09,0.159,0.968,0.162,0.925-0.072C351.268,254.956,339.844,240.322,325,240"/>
</g>
<g id="Слой_16">
	<path fill="#300E02" d="M331.333,222.667c-0.496,17.676,12.39,23.622,22.95,35.338c-0.356-13.154-1.491-26.317-2.903-39.325
		c-6.454,2.435-14.696,2.517-20.713,4.986"/>
	<path fill="#300E02" d="M365,385.333c-0.321,6.786-16.11,46.777,3.364,38.756c12.487-5.143,3.731-39.806-4.698-38.09"/>
	<path fill="#833201" d="M310.333,274.333c-14.373,14.474,4.792,51.656,16.292,64.316c-3.057-12.384-13.46-62.666-15.959-64.316"/>
</g>
<g id="Слой_23">
	<path fill="#00B0C1" d="M270.819,280.074c-23.782-43.049-35.512,33.073-39.729,53.196c-7.561-5.216-15.444-11.033-20.921-18.743
		c-11.38,3.129-13.196,10.208-14.627,20.393c0.393,0.302,0.665,0.769,0.67,1.414c0.011,1.614,0.086,3.215,0.23,4.809
		c0.097,0.24,0.143,0.522,0.103,0.858c-0.002,0.015-0.002,0.029-0.004,0.044c0.148,1.378,0.339,2.752,0.604,4.124
		c0.153,0.794-0.157,1.429-0.648,1.841c1.068,11.012,8.177,21.094,13.615,30.495c1.207,0.265,1.613,1.6,1.225,2.594
		c13.011,9.789,31.674,11.214,48.486,2.37c-1.139-0.972-0.751-3.345,1.177-3.345c1.538,0,2.096,1.512,1.681,2.618
		c2.119,3.857,6.255,7.682,7.668,10.938C267.074,356.422,273.542,317.909,270.819,280.074z"/>
</g>
<g id="Слой_22">
	<path fill="#008FA1" d="M267.432,276.337c-9.654,36.351-14.062,111.789,23.077,129.662c52.095,25.07,63.074-25.308,41.89-63.901
		c-7.597-13.84-18.327-19.083-23.288-35.624c-8.124-27.085-3.868-33.539-39.959-29.123"/>
</g>
<g id="Слой_18">
	<path fill="#007684" d="M332.087,347c11.571,23.781-11.765,55.78-37.492,58.633c40.778,26.246,64.29-26.853,37.845-51.303"/>
</g>
<g id="Слой_21">
	<path fill="#00B0C1" d="M325.333,241.333c15.364,40.204,41.866,129.175,18.616,169.682c-12.274-18.481-7.249-44.312-12.8-65.176
		c-4.54-17.063-13.097-32.862-15.89-52.083c-2.472-17.01-5.365-42.227,10.074-53.424"/>
</g>
<g id="Слой_20">
	<path fill="#007684" d="M313.649,259.298c48.664-3.544,20.24,131.822,29.478,149.601c4.266,8.21,8.3,10.429,17.146,8.689
		c4.477-35.156,1.782-62.486,0.077-96.752c-1.094-21.971,5.112-47.093-11.396-67.665c-16.413-20.454-29.218-16.889-37.019,7.136"/>
</g>
<g id="Слой_24">
	<path fill="#FFB4B4" d="M314.788,248c0.081-4.345-2.13-8.277-3.191-12.451c-1.496,0.177-2.945-1.811-1.592-3.21
		c1.271-1.315,2.072-2.819,2.117-4.672c0.009-0.384,0.119-0.7,0.284-0.962c-0.412-1.072-0.872-2.055-1.388-2.918
		c-10.106-16.894-60.518-55.998-60.351-13.975l2,0.682c29.408,8.941,37.125,38.98,60.942,53.131
		c0.842-3.891,1.416-9.048,1.56-14.458C314.929,248.874,314.779,248.489,314.788,248z"/>
</g>
<g id="Слой_25">
	<path fill="#FFCCCC" d="M247,229.667c9.7,16.323,27.196,48.236,51.267,44.034c26.626-4.647,10.764-29.641-1.862-43.179
		c-15.118-16.209-51.578-40.616-49.738-0.855"/>
</g>
<g id="Слой_26">
	<path fill="#FFE2E2" d="M251.667,225.333l0.333,1.333c-4.568,0.725-10.429,5.143-15.039,6.327
		c1.293,4.153,3.753,7.085,4.452,11.591c3.594,6.241,7.522,12.28,11.208,18.468c0.125,0.209,0.193,0.415,0.234,0.617
		c18.702,18.719,53.818,31.371,58.412,2.51C284.877,282.916,257.868,247.14,251.667,225.333z"/>
</g>
<g id="Слой_27">
	<path fill="#F36B31" d="M290.948,215.711c3.003,1.676,6.458,2.022,9.893,1.885c-0.297-0.315-0.502-0.734-0.534-1.267
		c-0.35-5.714,0.438-12.22,5.074-16.249c0.603-0.524,1.291-0.626,1.907-0.473c0.88-8.236-4.604-10.034-12.242-11.236
		c-0.047,0.031-0.085,0.067-0.136,0.096c-1.893,1.079-3.925,1.927-6.076,2.372c-1.449,0.3-2.435-0.752-2.594-1.85
		c-5.565,0.67-12.422-0.641-13.335-6.293l-1.713-0.864c-2.429,2.283-5.116,4.301-7.118,6.756c1.876,1.454,3.537,2.993,5.059,4.574
		c0.398-0.394,0.985-0.572,1.701-0.307c5.691,2.108,8.443,7.304,9.645,12.979c0.126,0.594-0.009,1.101-0.289,1.492
		c2.531,3.355,5.176,6.39,8.533,8.723C289.254,215.491,290.08,215.226,290.948,215.711z"/>
</g>
<g id="Слой_28">
	<path fill="#FF833F" d="M256.189,200.167c1.349-6.7,7.493-9.067,13.632-8.438c2.936-1.381,6.384-2.287,10.624-2.396
		c-7.064-14.403-25.976-25.093-38.752-8c-5.742,7.683-1.984,21.565-3.359,29.667l-0.667,0.333c9.566,1.352,14.468-3.546,19.554-9.06
		C256.513,201.908,255.989,201.16,256.189,200.167z"/>
</g>
<g id="Слой_29">
	<path fill="#FF9D4D" d="M239.333,207.667c4.03-1.75,9.622-0.502,14.177-3.515c9.54,42.49-46.611,28.051-33.487,4.69
		c6.849,8.943,13.768,9.068,18.977-0.175"/>
</g>
<g id="Слой_3">
	<path fill="#002831" d="M259.759,241.523c-0.375-0.188-0.739-0.245-1.081-0.219c0.178-2.811-0.31-5.584-1.25-8.336
		c-0.276-0.807-0.888-1.223-1.551-1.339c-0.001,0.013,0.002,0.024,0.001,0.037c-0.394,4.693,1.273,9.16-0.923,13.615
		c-0.021,0.042-0.047,0.073-0.07,0.112c0.475,0.418,1.145,0.621,1.766,0.537c1.011,3.2,2.874,6.063,5.839,7.797
		c1.421,0.831,2.849-0.271,3.009-1.727C265.972,247.719,263.598,243.448,259.759,241.523z"/>
	<path fill="#002831" d="M277.873,231.874c0.611-0.215,1.006-0.696,1.187-1.248c-5.522-0.464-10.074-2.946-14.409-6.193
		c-0.281,0.518-0.309,1.164,0.121,1.827c2.188,3.378,5.546,5.106,9.294,5.6c-0.048,0.104-0.096,0.209-0.129,0.319
		c-0.716,0.557-1.146,1.538-0.665,2.581c1.286,2.79,2.758,5.468,4.5,8c0.793,1.152,2.726,1.435,3.454,0
		C283.236,238.798,281.024,234.525,277.873,231.874z"/>
	<path fill="#002831" d="M280.493,253.955c-1.36,0.898-2.758,1.552-4.3,1.861c-0.29-5.528-1.818-11.5-6.936-14.361
		c-0.676-0.378-1.319-0.186-1.745,0.235c4.485,4.588,6.651,10.647,6.307,16.978c0.256,0.216,0.577,0.35,0.931,0.332
		c2.657-0.141,5.043-0.992,7.257-2.455C283.613,255.484,282.112,252.885,280.493,253.955z"/>
	<path fill="#002831" d="M302.086,259.293c0.053-0.5-0.128-1.022-0.672-1.457c-5.401-4.318-12.751-1.505-15.641,4.405
		c-0.673,1.376,0.283,2.644,1.403,2.96C289.031,258.93,296.111,256.384,302.086,259.293z"/>
	<path fill="#002831" d="M300.486,275.57c-1.803-2.364-5.019-4.659-7.921-3.168c0.071,0.687,0.547,1.331,1.436,1.348
		c2.196,0.04,3.41,1.288,3.804,3.399c0.354,1.9,3.245,1.093,2.893-0.797C300.645,276.078,300.561,275.827,300.486,275.57z"/>
	<path fill="#002831" d="M284,316.75c-8.383,0-8.383,13,0,13S292.383,316.75,284,316.75z"/>
	<path fill="#002831" d="M288.5,344.25c-7.738,0-7.738,12,0,12S296.238,344.25,288.5,344.25z"/>
	<path fill="#F9F8F7" d="M383.845,557.35c-5.001-6.062-12.492-8.974-20.198-9.064c-9.38-0.11-18.047,3.589-26.488,7.783
		c3.486-13.151,6.377-26.543,9.472-39.792c3.819-16.352,7.368-32.771,10.078-49.347c0.023-0.143,0.018-0.275,0.026-0.412
		c1.14-1.82,1.815-3.743,2.23-5.729c1.944,1.815,5.042,1.348,6.564-0.807c1.433-2.03,1.967-4.572,2.048-7.182
		c3.04-2.136,6.298-4.435,7.872-7.865c1.826-3.98,0.447-8.421-1.038-12.267c-0.525-1.36-2.254-2.532-3.672-1.494
		c-2.125,1.555-4.308,3.016-6.421,4.578c-0.914-2.675-1.88-5.335-2.663-8.046c6.21,0.707,11.793-0.812,16.467-5.253
		c0.909-0.863,1.072-1.889,0.792-2.793c-0.001-0.151,0.002-0.3-0.02-0.459c-3.282-22.962-6.648-45.916-11.203-68.665
		c-0.665-15.267-1.67-30.537-2.403-45.796c-0.543-11.307-1.546-22.815-4.644-33.727c0.031-0.212,0.04-0.438,0.024-0.681
		c-1.1-17.279-4.224-34.362-5-51.667c-0.075-1.671-1.247-2.619-2.536-2.842c-0.544-0.229-1.191-0.281-1.928-0.051
		c-1.402,0.439-2.813,0.842-4.229,1.213c-0.324-3.304-0.757-6.596-1.221-9.883c1.573,0.271,3.117,0.669,4.49,1.525
		c0.389,0.243,0.769,0.278,1.102,0.185c1.235,0.259,2.5-1.391,1.382-2.54c-3.691-3.795-6.491-8.228-7.948-13.338
		c-0.12-0.419-0.363-0.697-0.657-0.865c-0.391-1.285-2.747-1.072-2.956,0.597c-0.211,1.684-0.537,3.332-0.949,4.951
		c-1.968-3.136-3.365-6.531-3.717-10.284c-0.06-0.635-0.434-1.056-0.898-1.271c-0.63-0.338-1.435-0.294-1.833,0.304
		c-0.174,0.209-0.276,0.489-0.269,0.841c-0.365,2.128-0.886,4.193-1.524,6.213c-1.108-1.372-1.772-2.876-1.81-4.753
		c-0.039-1.932-3.039-1.936-3,0c0.002,0.083,0.014,0.162,0.017,0.244c-0.004,0.031-0.014,0.057-0.017,0.089
		c-0.231,2.514-0.516,5.002-0.988,7.467c-0.617-1.782-1.097-3.616-1.398-5.532c-0.055-0.352-0.2-0.611-0.396-0.788
		c-0.554-1.383-2.964-1.22-2.884,0.52c0.181,3.9-0.894,7.479-3.258,10.476c-1.8-3.34-2.67-7.072-2.742-11.143
		c-0.013-0.715-0.432-1.164-0.953-1.351c-0.663-1.033-2.449-1.198-2.66,0.285c-1.061,7.454-3.219,14.535-6.515,21.308
		c-0.123,0.252-0.166,0.499-0.159,0.733c-0.14,0.939,0.622,2.076,1.853,1.804c2.296-0.507,4.376-1.72,5.84-3.468
		c0.188,3.273,0.775,6.458,1.873,9.559c-0.216-0.035-0.432-0.06-0.647-0.097c-0.587-0.1-1.115-0.032-1.585,0.134
		c-2.519-2.419-6.167-3.961-9.21-5.009c-1.501-5.171,4.328-11.742,5.431-16.633c1.174-5.209-2.1-10.133-7.256-11.216
		c-6.418-1.349-12.734,2.92-19.162,1.272c-4.208-1.079-5.135-6.545-6.893-9.861c-1.766-3.331-5.159-5.207-8.575-6.402
		c-6.387-2.234-13.792-1.16-19.846,1.482c-7.706,3.362-10.356,10.844-9.851,18.736c0.459,7.167,3.821,15.755-3.278,20.785
		c-5.033,3.566-10.406,1.253-9.655-5.061c0.18-1.516-0.851-2.296-2.024-2.37c-0.875-0.606-2.059-0.681-2.993,0.352
		c-11.943,13.207,2.585,28.304,16.775,30.12c0.026,0.104,0.042,0.205,0.082,0.313c3.348,8.986,8.228,18.485,14.505,26.793
		c-0.107,0.103-0.217,0.193-0.319,0.317c-15.014,18.219-17.233,43.661-20.5,66.416c-5.605-6.997-10-15.541-18.009-19.963
		c-0.479-0.264-0.95-0.405-1.403-0.448c-1.929-6.181-4.88-11.834-8.929-16.965c-0.098-0.124-0.202-0.222-0.307-0.318
		c-0.476-2.145-2.21-3.769-5.796-4.325c-0.526-0.081-0.995-0.006-1.408,0.163c-0.475-0.052-0.992,0.062-1.518,0.422
		c-0.074,0.051-0.141,0.105-0.214,0.157c-0.766-0.743-1.609-1.474-2.507-2.151c0.2-0.431,0.318-0.934,0.317-1.513
		c-0.026-12.518-0.562-25.017-1.5-37.5c-0.028-0.372-0.116-0.701-0.228-1.012c4.028-7.95,7.717-16.05,10.954-24.357
		c0.109-0.281,0.162-0.544,0.19-0.798c0.07-0.437,0.03-0.924-0.19-1.464c-4.292-10.537-6.68-21.64-9.333-32.667
		c-0.453-1.882-2.128-2.422-3.575-2.022c-1.416-0.328-3.035,0.221-3.544,2.022c-3.131,11.08-9.5,20.642-15.031,30.617
		c-0.245,0.442-0.365,0.877-0.392,1.294c-0.07,0.409-0.053,0.86,0.09,1.351c2.899,9.987,7.812,19.038,13.969,27.383
		c0.038,0.052,0.083,0.088,0.123,0.136c0.875,11.779,1.382,23.572,1.448,35.383c-1.481-0.252-3.002-0.201-4.522,0.294
		c-3.459,1.124-6.268,4.567-5.97,8.325c0.052,0.659,0.195,1.272,0.4,1.846c-1.383,1.008-2.528,2.283-3.042,3.994
		c-0.627,2.087,0.401,4.207,1.831,5.678c0.33,0.34,0.69,0.653,1.071,0.942c-1.072,1.336-1.839,2.887-1.815,4.659
		c0.021,1.513,0.768,2.84,1.843,3.832c-1.104,2.618-1.336,5.67,0.99,7.76c2.282,2.05,5.534,2.166,8.408,1.734
		c0.608-0.091,1.216-0.255,1.818-0.451c-0.43,75.533,1.538,151.052,4.508,226.521c0.025,0.642,0.201,1.182,0.464,1.642
		c-3.808,2.384-7.545,4.881-11.144,7.601c-0.512,0.387-0.84,0.858-1.039,1.36c-1.847,1.244-2.038,4.691,0.756,5.457
		c27.833,7.633,57.329,0.785,81.95-13.277c12.595-7.193,23.306-16.642,32.916-27.425c0.375-0.42,0.746-0.843,1.121-1.264
		c2.175,10.21,4.818,20.305,7.562,30.377c-7.483-2.492-15.529-3.466-23.001-3.014c-14.926,0.902-29.64,10.335-31.36,26.206
		c-1.441,13.294,14.057,18.462,24.413,19.541c12.44,1.297,27.141-2.54,36.056-11.862c0.669,1.515,1.55,2.952,2.666,4.3
		c0.64,0.773,1.628,1.07,2.603,1.005c0.07,0.004,0.132,0.02,0.205,0.02H321c0.358,0,0.678-0.057,0.979-0.139
		c0.672-0.049,1.322-0.273,1.863-0.655c3.136,0.521,6.247,0.628,9.422,0.002c1.078-0.213,1.87-1.039,2.268-2.027
		c0.385-0.523,0.628-1.192,0.635-2.014c0.01-1.156,0.075-2.308,0.161-3.459c4.93,2.716,9.588,5.385,15.216,6.848
		c5.834,1.517,11.975,2.211,17.997,2.164c9.316-0.072,21.513-2.966,22.125-14.178C392.011,568.365,387.653,561.967,383.845,557.35z
		 M370.784,437.246c0.595,1.925,0.902,3.957,0.088,5.731c-0.733,1.598-2.169,2.893-3.696,4.027
		c-0.102-0.708-0.213-1.397-0.326-2.051c-0.241-1.403-0.583-2.778-0.958-4.142C367.471,439.552,369.125,438.397,370.784,437.246z
		 M346.495,484.08c-0.001-0.003-0.002-0.006-0.003-0.009c-2.062-4.477-2.936-9.342-4.407-14.01c0.835,0.682,1.89,1.096,3.248,1.105
		c1.541,0.011,2.799-0.521,3.83-1.419C348.334,474.537,347.443,479.314,346.495,484.08z M361.69,444.717
		c0.866,3.404,1.556,8.211,0.133,11.672c-0.032-0.028-0.058-0.053-0.094-0.083c-0.333-0.565-0.58-1.165-0.74-1.8
		c-0.682-2.088-0.605-4.346-0.488-6.506c0.151-2.796-4.394-3.446-4.911-0.665c-0.698,3.755-0.513,7.878-1.284,11.672
		c-0.373-1.706-0.52-3.463-0.514-5.273c0.023-0.64,0.035-1.225,0.043-1.735c0.049-3.238-4.852-3.204-5,0
		c-0.029,0.64-0.044,1.277-0.043,1.911c-0.13,4.051-0.612,9.136-2.997,12.076c-0.67,0.826-1.624-6.436-1.636-7.125
		c-0.04-2.174,0.164-4.359,0.011-6.529c-0.191-2.696-4.236-3.548-4.911-0.665c-0.948,4.053-1.866,8.103-3.357,11.957
		c-5.397-14.156,3.682-31.535,10.826-44.171c2.705,1.499,5.745,2.488,8.752,3.306C356.648,430.323,359.802,437.297,361.69,444.717z
		 M314,467.333c0.033,0.425,0.144,0.795,0.301,1.126c-7.312,6.115-14.88,11.902-22.622,17.453
		c-9.362-29.229-12.642-59.913-19.793-89.676c1.769,1.536,3.639,2.954,5.528,4.269c9.931,6.917,21.465,12.732,33.553,14.193
		c9.135,1.104,19.64-0.199,26.939-5.994c0.747,1.993,1.681,3.886,2.885,5.596c0.565,0.802,1.198,1.521,1.875,2.182
		c-4.541,8.06-9.634,17.756-12.014,27.552c-1.29-2.854-2.634-5.691-3.574-8.699c-0.38-1.216-1.764-2.228-3.075-1.746
		c-2.674,0.983-5.361,1.924-8,3c-0.673,0.274-1.302,0.79-1.632,1.438c-0.964,0.402-1.71,1.275-1.703,2.64
		C312.713,449.576,313.32,458.453,314,467.333z M319.839,440.445c1.103-0.418,2.205-0.836,3.314-1.239
		c2.044,5.275,4.981,10.192,6.103,15.792c0.01,0.048,0.029,0.086,0.041,0.133c0.086,5.395,1.405,10.641,4.545,15.465
		c0.781,1.2,2.405,1.552,3.531,0.825c1.441,4.218,2.282,8.656,3.842,12.852c-1.083,0.641-2.168,1.279-3.25,1.921
		C330.253,471.689,325.385,455.866,319.839,440.445z M322.101,461.808c-0.189,0.109-0.375,0.243-0.556,0.404
		c-0.598,0.532-1.203,1.054-1.805,1.581c-0.258-3.518-0.494-7.037-0.679-10.558C320.062,456.096,321.068,458.958,322.101,461.808z
		 M362.125,420.93c3.569-11.232,5.209-22.918,5.837-34.684c1.738,10.927,3.33,21.878,4.898,32.832
		c-3.078,2.443-6.719,3.315-10.729,2.695c-0.136-0.021-0.263-0.017-0.393-0.022C361.893,421.498,362.03,421.229,362.125,420.93z
		 M358.557,311.001c1.343,34.351,7.386,71.106-2.184,104.749c-4.742-1.35-8.998-3.207-11.328-8.062
		c-0.83-1.728-1.455-3.589-1.935-5.526c0.048-0.596-0.085-1.158-0.37-1.648c-1.11-5.458-1.219-11.375-1.505-16.549
		c-0.927-16.745-0.633-35.173-10.701-49.429c0.042-0.459-0.063-0.958-0.375-1.465c-8.487-13.808-12.727-30.126-14.022-46.18
		c-1.233-15.289,0.449-32.586,9.508-45.475c12.408,3.639,21.949,13.784,26.545,25.966
		C357.397,281.182,357.987,296.426,358.557,311.001z M323.737,331.944c-3.127-4.824-5.885-9.884-8.133-15.247
		c-4.662-11.121-6.962-23.117-8.437-35.031c-0.013-0.107-0.044-0.202-0.068-0.302c1.411-1.099,2.668-2.365,3.76-3.778
		c-0.026,2.183,0.011,4.36,0.105,6.523C311.676,300.486,315.775,317.462,323.737,331.944z M315.834,240.013
		c0.306-0.003,0.611-0.013,0.916-0.013c0.048,0,0.093-0.013,0.141-0.015c0.038,0.003,0.07,0.013,0.109,0.015
		c1.175,0.046,2.329,0.155,3.466,0.31c-1.255,1.987-2.375,4.039-3.351,6.153C316.867,244.254,316.46,242.075,315.834,240.013z
		 M343.276,197.605c1.034,2.396,2.357,4.641,3.906,6.74c-0.819-0.167-1.65-0.293-2.483-0.413c-0.273-0.101-0.586-0.109-0.891-0.026
		c-0.486-0.226-1.069-0.177-1.535,0.367c-0.591,0.689-1.245,1.297-1.927,1.867C341.611,203.39,342.583,200.547,343.276,197.605z
		 M342.862,207.921c0.457,3.254,0.877,6.512,1.181,9.784c-1.658,0.377-3.327,0.687-4.999,0.964
		c-0.663-2.401-1.233-4.819-1.716-7.256c0.141-0.021,0.283-0.053,0.428-0.118C339.633,210.463,341.354,209.31,342.862,207.921z
		 M335.005,193.833c0.904,2.433,2.151,4.736,3.7,6.924c0.128,0.181,0.278,0.317,0.438,0.421c-0.314,0.887-0.668,1.76-1.041,2.627
		c-0.29-0.03-0.561-0.094-0.857-0.264c-0.4-0.229-0.715-0.748-0.949-1.298c-0.321-0.753-1.415-0.912-2.052-0.538
		c-0.207,0.121-0.361,0.272-0.475,0.441c-0.054,0.041-0.11,0.077-0.162,0.127c-0.926,0.885-1.975,1.531-3.095,2.034
		C332.386,200.969,333.901,197.479,335.005,193.833z M332.41,210.823c0.729,0.149,1.363-0.337,1.612-0.978
		c0.544,3.117,1.208,6.209,2.04,9.272c-1,0.129-2.003,0.232-3.007,0.322c-0.858-2.779-1.135-5.645-1.203-8.551
		C332.038,210.868,332.222,210.854,332.41,210.823z M331.906,206.934c0.52-0.241,1.031-0.501,1.521-0.8
		c0.106,0.735,0.227,1.467,0.345,2.199c-0.097-0.107-0.207-0.208-0.349-0.294C332.882,207.707,332.38,207.337,331.906,206.934z
		 M328.446,200.065c0.434-1.659,0.75-3.334,1.007-5.017c0.352,0.461,0.73,0.912,1.152,1.346c0.081,0.083,0.165,0.152,0.25,0.211
		c-0.693,1.753-1.495,3.463-2.383,5.139c-0.164-0.312-0.317-0.627-0.473-0.941C328.201,200.631,328.361,200.391,328.446,200.065z
		 M328.851,210.77c0.061,3.001,0.324,5.997,1.14,8.88c-1.173,0.059-2.348,0.1-3.523,0.105c-0.007-0.052-0.008-0.101-0.021-0.154
		c-0.811-3.418-1.158-6.859-1.244-10.352C326.34,209.999,327.557,210.513,328.851,210.77z M323.458,197.795
		c0.858,2.399,1.956,4.709,3.246,6.962c0.006,0.011,0.014,0.019,0.021,0.029c-0.197,0.32-0.383,0.643-0.587,0.96
		c-0.118,0.073-0.212,0.162-0.294,0.259c-0.151-0.131-0.303-0.259-0.45-0.4c-0.262-0.251-0.549-0.381-0.834-0.417
		c-0.651-0.44-1.631-0.459-2.189,0.387c-0.133,0.202-0.279,0.38-0.423,0.559c-0.738-0.76-1.423-1.542-2.028-2.358
		C321.493,201.975,322.69,199.965,323.458,197.795z M322.222,209.895c0.113,3.304,0.475,6.573,1.191,9.809
		c-1.761-0.065-3.523-0.187-5.284-0.382c-0.007-0.019-0.008-0.035-0.016-0.054c-1.017-2.542-1.657-5.118-1.992-7.766
		C318.414,211.654,320.49,211.085,322.222,209.895z M314.456,204.391c-0.715-0.77-2.24-0.775-2.569,0.544
		c-0.38,1.523-1.268,2.692-2.429,3.541c1.637-3.792,2.952-7.678,3.936-11.669c0.844,3.321,2.294,6.4,4.427,9.165
		C316.644,205.608,315.522,205.072,314.456,204.391z M315.538,225.008c11.56,1.53,23.128,0.532,34.356-2.596
		c0.66,10.44,2.032,20.813,3.211,31.206c-7.955-11.921-21.68-20.05-36.105-20.618c-0.065-0.003-0.122,0.006-0.185,0.007
		c-0.022,0-0.043-0.007-0.065-0.007c-1.403,0.001-2.778,0.077-4.16,0.295c-0.355-0.489-0.726-0.965-1.133-1.412
		C313.829,230.156,315.627,227.887,315.538,225.008z M220.153,213.292c2.879,5.952,11.369,7.156,17.458,2.217
		c5.135-4.165,6.332-10.177,5.58-16.479c-0.582-4.879-1.712-9.702-0.66-14.597c1.112-5.171,6.475-7.728,11.074-8.914
		c3.903-1.006,8.107-0.735,11.946,0.362c5.478,1.565,6.321,6.427,8.67,10.792c3.412,6.339,10.588,6.494,16.792,5.437
		c3.275-0.558,6.714-1.753,10.051-1.051c4.983,1.047,2.297,7.28,0.98,10.017c-1.981,4.119-4.372,8.405-3.806,12.785
		c-5.107-0.262-10.032-1.029-13.15-5.685c-3.801-5.675-4.843-13.404-10.742-17.58c-4.385-3.105-10.296-3.56-14.916-0.668
		c-4.179,2.617-5.732,7.953-6.616,12.486c-1.95,9.999,0.299,26.613-13.626,28.086C230.256,231.443,218.022,222.317,220.153,213.292z
		 M241.309,235.124c6.169-0.803,11.581-4.694,13.776-13.076c1.958-7.482,0.598-36.151,15.747-27.838
		c6.637,3.642,7.467,14.472,12.59,19.851c4.556,4.784,12.257,4.693,18.328,4.94c0.265,0.011,0.512-0.032,0.745-0.103
		c2.473,0.899,4.747,2.059,6.711,3.863c3.269,3.002-0.556,5.241-3.219,6.581c-1.778,0.895-1.46,3.347,0,4.317
		c1.519,1.01,2.705,2.379,3.63,3.982c0.003,0.013,0.003,0.027,0.006,0.04c0.14,0.51,0.377,0.94,0.677,1.297
		c3.109,6.798,2.347,16.825,1.51,22.953c-1.511,11.071-7.8,18.656-19.513,18.939C266.693,281.489,249.476,256.385,241.309,235.124z
		 M210.514,316.51c5.86,4.378,9.279,11.614,13.998,17.114c5.409,6.304,9.741,11.135,9.739,19.876c-0.001,4.514,6.999,4.514,7,0
		c0.002-6.99-2.114-12.289-5.671-17.366c0.13-0.282,0.24-0.589,0.296-0.954c1.755-11.345,3.153-22.736,5.525-33.977
		c2.469-11.702,5.992-24.107,13.677-33.539c10.858,12.064,25.116,20.206,42.308,17.754c1.848-0.264,3.529-0.749,5.087-1.386
		c1.611,12.087,4.11,23.971,8.846,35.269c4.462,10.644,10.927,20.163,18.383,28.899c4.994,13.827,3.799,29.885,5.15,44.299
		c0.255,2.724,0.548,5.612,1.043,8.481c-6.083,7.768-18.742,7.815-27.561,6.329c-10.434-1.758-21.1-8.215-29.532-14.378
		c-11.922-8.715-12.678-22.7-14.306-36.278c-1.946-16.226-2.393-32.582-1.745-48.903c0.179-4.516-6.821-4.498-7,0
		c-0.736,18.535,0.045,37.05,2.575,55.433c0.496,3.605,0.923,7.243,1.585,10.817c-0.391,0.168-0.775,0.413-1.135,0.775
		c-11.817,11.883-29.336,17.552-41.965,3.621c-13.428-14.813-16.002-37.263-16.282-56.578
		C204.356,321.035,207.817,319.312,210.514,316.51z M205.93,311.191c-2.045,2.511-5.223,3.823-8.43,4.059
		c-0.28,0.021-0.542,0.067-0.787,0.137c-0.559,0.038-1.102,0.201-1.584,0.468c-1.886-0.105-3.701-0.497-5.485-1.219
		c-0.053-1.626-0.874-3.207-1.983-4.505c0.059-0.093,0.112-0.186,0.16-0.281c4.183-1.766,9.486-7.02,12.004-12.076
		C202.578,301.889,204.566,306.408,205.93,311.191z M194.787,291.929c3.115,1.004,0.492,4.442-1.074,6.607
		c-1.406,1.943-3.518,4.319-5.876,5.779C188.226,299.312,190.3,295.064,194.787,291.929z M173.519,218.784
		c4.333-7.729,9.016-15.272,12.391-23.431c2.002,8.345,4.143,16.648,7.348,24.634c-2.721,6.936-5.794,13.707-9.109,20.372
		C179.605,233.676,175.899,226.565,173.519,218.784z M177.477,290.314c0.001-0.014,0.002-0.028,0.003-0.042
		c0.052-0.269,0.121-0.535,0.21-0.793c0,0,0,0,0,0c0.055-0.115,0.112-0.229,0.174-0.34c0.079-0.141,0.165-0.278,0.255-0.412
		c0.011-0.017,0.013-0.021,0.023-0.035c0.206-0.244,0.434-0.469,0.675-0.678c0.16-0.112,0.327-0.215,0.498-0.311
		c0.11-0.062,0.225-0.116,0.339-0.17c0.074-0.026,0.147-0.053,0.222-0.078c0.179-0.058,0.362-0.104,0.545-0.147
		c0.069-0.016,0.138-0.029,0.208-0.042c0.415-0.039,0.834-0.038,1.249-0.008c0.044,0.003,0.06,0.004,0.092,0.006
		c0.01,0.002,0.01,0.002,0.021,0.004c0.273,0.046,0.542,0.11,0.81,0.18c0.243,0.064,0.482,0.141,0.719,0.222
		c0.124,0.042,0.246,0.089,0.368,0.135c0.009,0.003,0.01,0.004,0.018,0.007c0.005,0.002,0.004,0.002,0.01,0.005
		c0.586,0.263,1.148,0.579,1.693,0.918c0.277,0.172,0.546,0.356,0.813,0.543c0.131,0.092,0.26,0.188,0.389,0.284
		c0.073,0.058,0.145,0.116,0.217,0.174c0.475,0.386,0.927,0.8,1.37,1.222c-0.132,0.142-0.267,0.283-0.394,0.428
		c-0.519-0.251-1.109-0.336-1.668-0.127c-1.382,0.516-2.795,0.943-4.251,1.193c-0.036,0.006-0.09,0.014-0.144,0.023
		c-0.067,0.007-0.135,0.016-0.202,0.023c-0.268,0.028-0.536,0.043-0.805,0.053c-0.25,0.01-0.5,0.007-0.75-0.001
		c-0.112-0.004-0.376-0.029-0.541-0.044c-0.307-0.056-0.611-0.127-0.908-0.222c-0.032-0.01-0.063-0.023-0.094-0.034
		c-0.152-0.074-0.302-0.153-0.446-0.241c-0.027-0.017-0.053-0.035-0.08-0.053c-0.077-0.069-0.156-0.137-0.229-0.21
		c-0.018-0.018-0.039-0.041-0.06-0.065c-0.06-0.091-0.123-0.18-0.176-0.274c-0.01-0.018-0.022-0.041-0.033-0.063
		c-0.025-0.074-0.053-0.147-0.074-0.222c-0.026-0.092-0.043-0.186-0.062-0.28c-0.001-0.025-0.004-0.05-0.005-0.074
		C177.466,290.613,177.47,290.463,177.477,290.314z M174.964,298.73c-0.345-0.459-0.281-0.369-0.287-0.659
		c-0.01-0.457,0.752-1.024,1.532-1.492c0.323,0.171,0.661,0.327,1.016,0.46c2.249,0.846,4.821,0.627,7.231,0.035
		c-0.477,1.152-0.847,2.353-1.122,3.596c-2.539,0.667-5.274,0.174-7.5-1.205C175.536,299.28,175.168,299.001,174.964,298.73z
		 M175.932,308.104c-0.082-0.775,0.82-1.762,1.636-2.522c1.72,0.387,3.518,0.492,5.205,0.286c-0.004,0.652,0.014,1.312,0.055,1.981
		c-1.629,1.178-3.714,1.528-5.71,0.95c-0.26-0.075-0.898-0.445-0.917-0.461C175.991,308.157,175.921,307.996,175.932,308.104z
		 M182.436,316.233c-0.444,0.146-0.901,0.247-1.36,0.335c-0.069,0.013-0.104,0.021-0.143,0.029
		c-0.037,0.003-0.066,0.006-0.126,0.012c-0.233,0.025-0.467,0.036-0.701,0.047c-0.458,0.021-0.917-0.001-1.373-0.042
		c0.512,0.046-0.609-0.141-0.819-0.201c-0.045-0.013-0.192-0.071-0.293-0.11c-0.127-0.065-0.253-0.131-0.375-0.204
		c0.136,0.081-0.232-0.286-0.215-0.207c-0.02-0.038-0.04-0.077-0.059-0.115c-0.038-0.132-0.076-0.264-0.103-0.399
		c0.083,0.427,0.115-0.487,0.107-0.454c0.09-0.4,0.19-0.662,0.329-0.956c2.12,0.326,4.358,0.014,6.341-0.841
		c0.208,0.208,0.41,0.421,0.603,0.647c-0.122-0.143,0.331,0.748,0.351,0.685c0.014,0.061,0.027,0.125,0.039,0.178
		c-0.003,0.142-0.007,0.254,0.021,0.088c0.003,0.009,0.005,0.002,0.004-0.021c0.008-0.052,0.018-0.119,0.032-0.219
		c-0.035,0.253-0.036,0.339-0.033,0.366c-0.008-0.021-0.043-0.031-0.169,0.176c-0.001,0.002-0.001,0.002-0.002,0.003
		c-0.02,0.02-0.035,0.034-0.066,0.068c-0.101,0.111-0.216,0.208-0.33,0.306c0.094-0.11-0.636,0.398-0.806,0.488
		C182.781,316.165,183.163,315.995,182.436,316.233z M190.995,320.256c0.831,0.201,1.669,0.366,2.52,0.47
		c0.253,22.502,3.769,47.944,20.272,64.656c13.932,14.109,33.827,8.488,47.118-3.043c10.632,35.297,13.096,72.539,24.72,107.59
		c0.023,0.068,0.058,0.121,0.083,0.186c-11.343,7.878-23.005,15.314-34.745,22.577c-11.943,7.388-23.89,14.842-36.149,21.695
		c-6.468,3.616-13.005,7.119-19.401,10.849C192.483,470.281,190.552,395.276,190.995,320.256z M299.375,515.403
		c-0.022-0.111-0.063-0.201-0.093-0.305c5.508-6.227,10.999-12.469,16.494-18.707c-0.449,21.693,1.899,43.344,2.19,65.036
		c-2.612-2.309-5.534-4.291-8.662-5.951C305.654,542.2,302.058,528.913,299.375,515.403z M314.095,581.167
		c-1.167-1.935-1.558-4.258-1.595-6.5c-0.056-3.495-4.263-4.273-6.123-2.349c-0.27,0.247-0.523,0.537-0.732,0.916
		c-6.054,10.94-19.929,14.971-31.648,14.656c-7.688-0.207-20.757-2.738-20.273-12.727c0.272-5.621,4.903-11.299,9.292-14.362
		c5.387-3.76,12.149-4.893,18.58-4.971c12.102-0.147,25.912,4.249,34.263,13.312c0.548,0.594,1.155,0.914,1.766,1.036
		c0.21,3.661,0.395,7.323,0.484,10.989H314.095z M292.041,514.247c-9.63,10.868-19.368,20.674-31.696,28.511
		c-22.109,14.056-49.642,21.519-75.6,16.338c10.025-7.033,20.872-12.77,31.586-18.687c12.799-7.068,25.218-14.859,37.66-22.534
		c24.508-15.118,48.649-31.088,70.318-50.127c0.908,2.379,1.85,4.743,2.829,7.09c-0.321,0.157-0.635,0.381-0.926,0.708
		C314.767,488.397,303.454,501.366,292.041,514.247z M322,489.667c0.005-0.107-0.011-0.199-0.015-0.3
		c2.564-2.902,5.12-5.81,7.694-8.703c1.591,3.482,3.293,6.913,5.162,10.265c0.664,1.191,2.261,1.571,3.42,0.897
		c2.454-1.428,4.879-2.905,7.333-4.333c0.091-0.053,0.164-0.117,0.243-0.176c-1.847,9.062-3.863,18.09-5.958,27.101
		c-3.559,15.313-6.877,30.81-11.143,45.908c-1.588,0.791-3.174,1.555-4.76,2.279C323.738,538.278,320.786,514.004,322,489.667z
		 M366.813,581.864c-4.81-0.115-9.577-0.895-14.227-2.104c-5.974-1.554-10.727-4.944-16.153-7.782
		c-0.541-0.283-1.071-0.406-1.578-0.421c-0.488-0.241-1.012-0.39-1.522-0.39c-2.067,0-3.29,1.604-3.5,3.5
		c-0.229,2.061-0.454,4.122-0.576,6.191c-1.391,0.046-2.788-0.099-4.164-0.342c-0.098-3.534-0.281-7.065-0.484-10.595
		c10.608-4.595,20.513-10.811,31.812-13.676c6.372-1.616,12.793-1.298,18.409,2.303c4.696,3.011,9.384,9.74,9.825,15.453
		C385.275,582.032,371.928,581.987,366.813,581.864z"/>
</g>
<g id="Слой_44">
	<path fill="#521A02" d="M188.455,247.993c-1.759,3.098-5.102,2.293-7.144-0.054c-1.272-1.462-3.385,0.669-2.121,2.121
		c3.335,3.833,9.175,4.166,11.856-0.554C192.002,247.822,189.41,246.311,188.455,247.993z"/>
</g>
<g id="Слой_43">
	<path fill="#833201" d="M187.955,245.493c-1.773,2.573-4.132,2.27-6.394,0.446c-1.491-1.202-3.628,0.907-2.121,2.121
		c1.755,1.414,3.697,2.535,6.024,2.389c2.234-0.14,3.878-1.695,5.082-3.443C191.646,245.409,189.044,243.911,187.955,245.493z"/>
</g>
</svg>
