<?xml version="1.0" encoding="utf-8"?>
<!-- Generator: Adobe Illustrator 17.0.0, SVG Export Plug-In . SVG Version: 6.00 Build 0)  -->
<!DOCTYPE svg PUBLIC "-//W3C//DTD SVG 1.1//EN" "http://www.w3.org/Graphics/SVG/1.1/DTD/svg11.dtd">
<svg version="1.1" xmlns="http://www.w3.org/2000/svg" xmlns:xlink="http://www.w3.org/1999/xlink" x="0px" y="0px" width="612px"
	 height="792px" viewBox="0 0 612 792" enable-background="new 0 0 612 792" xml:space="preserve">
<g id="Слой_2">
	<rect width="612" height="792"/>
</g>
<g id="Слой_34">
	<path fill="#858889" d="M245.473,312.458c-6.159-6.525-16.739-10.589-12.723-21.708h-0.5c-5.964-3.171-15.727-6.696-20.694-2.126
		c-0.054,0.05-0.103,0.109-0.155,0.161c0.533,1.337-0.575,2.517-1.745,2.621c-1.439,3.21-1.849,7.866-1.441,12.508
		c0.837,0.13,1.587,0.741,1.587,1.836c0,0.93,0.032,1.844,0.089,2.753c0.174,0.089,0.315,0.214,0.425,0.362
		c0.003,0.004,0.005,0.007,0.008,0.011c0.105,0.145,0.18,0.31,0.224,0.485c0.002,0.008,0.004,0.015,0.006,0.023
		c0.039,0.166,0.047,0.338,0.032,0.509c0.216,0.308,0.3,0.703,0.247,1.08c0.522,0.684,0.746,1.163,1.072,2.208
		c1.068,3.43,4.628,3.775,7.596,4.141c3.977,0.491,7.652,0.664,11.334-0.482c0.209-0.292,0.502-0.54,0.904-0.699
		c2.78-1.096,6.039-1.285,8.025-3.755c1.272-1.581,3.309-0.041,3.175,1.62C243.885,313.461,244.743,312.935,245.473,312.458z"/>
	<path fill="#858889" d="M211.542,289.324c0.156,1.798-2.524,3.048-3.581,1.148c-1.422-2.558-5.308-3.454-8.778-3.084
		c-0.11,0.416-0.409,0.79-0.961,1.025c-5.993,2.548-5.206,8.956-2.967,13.795c3.593,2.097,7.312,3.429,11.483,1.934
		c0.092-0.033,0.178-0.047,0.266-0.067c1.141-0.51,2.797,0.044,2.797,1.674c0,0.93,0.033,1.844,0.09,2.754c0,0,0,0,0,0
		c0.097,0.05,0.182,0.111,0.259,0.181c0.008,0.007,0.015,0.014,0.023,0.021c0.071,0.068,0.133,0.142,0.186,0.223
		c0.004,0.006,0.008,0.011,0.012,0.016c0.113,0.179,0.184,0.383,0.212,0.596v0C218.103,304.065,216.663,295.057,211.542,289.324z
		 M206.358,295.637c-0.097,0.677-0.388,1.247-0.769,1.761c-0.054,0.582-0.423,1.124-1.109,1.225c-0.081,0.08-0.162,0.16-0.242,0.239
		c-0.377,0.371-0.877,0.557-1.375,0.555c-0.864,0.466-1.844,0.657-2.833,0.324c-2.02-0.679-2.658-3.064-2.199-4.969
		c0.426-1.768,1.823-2.546,3.409-3.131c0.695-0.256,1.451,0.051,1.932,0.583c0.574-0.071,1.173,0.087,1.567,0.537
		c0.156,0.178,0.29,0.364,0.405,0.555C206.144,293.666,206.501,294.643,206.358,295.637z"/>
	<path fill="#858889" d="M271.833,298.583c0.285,0.485,0.382,1.307,0.556,1.835c-0.539,0.253-1.474,0.398-2.062,0.31
		c-0.058-0.364-0.116-0.744-0.152-1.135c0.533-0.219,1.251-0.461,1.658-0.509"/>
</g>
<g id="Слой_35">
	<path fill="#858889" d="M239,269c-1.791,1.233-3.397,2.417-5.586,2.842c-0.015-0.657-0.012-1.851-0.125-2.554
		c1.972-0.459,3.834-0.526,5.961-0.538"/>
</g>
<g id="Слой_29">
	<path fill="#858889" d="M229.213,277.082c0.387,0.209,0.675,0.597,0.684,1.168c0.017,1.148,0.226,2.256,0.45,3.379
		c0.047,0.236,0.036,0.453-0.014,0.649c0.034,0.247,0.014,0.502-0.067,0.736c0.323,0.674,0.7,1.354,1.18,2.041
		c3.484,4.996,9.284,6.286,8.919-2.116c-0.038-0.871-0.233-1.557-0.513-2.122c-0.174,0.394-0.538,0.698-1.101,0.698
		c-0.619,0-1.001-0.364-1.15-0.816c-0.852-1.085-1.669-2.44-1.902-3.773c-0.333-1.91,0.658-3.321,2.677-3.314
		c0.131,0,0.248,0.022,0.358,0.053c0.163-0.135,0.324-0.269,0.504-0.414c0.313-0.252,3.476-0.148,3.983-0.019
		c0.078-0.785,0.174-1.788,0.531-2.481l1-0.5C237.468,267.11,230.128,270.929,229.213,277.082z"/>
	<path fill="#858889" d="M242.75,279c-1.017-0.208-1.976-0.864-2.701-1.673c0.055,0.726-0.131,1.473-0.212,2.22
		c0.061,0.134,0.088,0.27,0.101,0.405c0.055,0.26,0.039,0.536-0.052,0.784c3.164,1.814,2.169,0.112,3.364-1.236L242.75,279z"/>
</g>
<g id="Слой_30">
	<path fill="#707375" d="M278.75,211.75c-3.592,21.097-1.597,44.692-1.75,66.493c-0.023,3.303-0.039,6.579,0.471,9.738
		c-1.055,0.056-5.099-0.631-6.209-1.037c1.999-26.773-1.842-54.519,0.464-81.349c4.516-0.367,9.516,2.549,6.774,7.405"/>
</g>
<g id="Слой_31">
	<path fill="#8A8E93" d="M253.75,257.75c-1.281-0.14-2.685-0.005-3.961,0.032c-0.004,2.476,0.207,5.905,1.018,8.198
		c2.095-2.437,3.555-5.807,3.444-8.23"/>
	<path fill="#8A8E93" d="M274.75,288.5c1.244,1.84-0.38,3.123,2.219,4.306c-0.347,0.704-0.581,2.555-0.785,3.405
		c-1.45-0.303-2.12-0.97-3.47-1.468c0.758-1.484,1.732-2.736,2.786-3.993"/>
	<path fill="#8A8E93" d="M276.25,202.25c6.002,0.991,10.762,3.597,7.076,10.17c-3.073-1.491-6.542-2.548-9.776-3.47
		c0.476-1.758,1.55-4.096,2.949-5.449"/>
</g>
<g id="Слой_32">
	<path fill="#8A8E93" d="M267.234,224.036c-1.94-0.545-4.416-1.112-6.57-0.899c0.096,0.493,0.163,0.991,0.194,1.493
		c0.139,0.088,0.274,0.197,0.392,0.37H261c0.348,4.381,1.313,8.701,1.244,13.23C269.523,237.774,267.892,229.55,267.234,224.036z"/>
</g>
<g id="Слой_33">
	<path fill="#8A8E93" d="M265.25,208.75L260,210c-0.743,2.664-0.761,5.952-1.212,8.511c5.973,2.701,4.832,13.206,1.84,22.878
		c0.014,0.151,0.01,0.31-0.031,0.482c-0.901,3.761-1.336,7.47-3.391,10.833c-0.209,0.342-0.494,0.522-0.796,0.602
		c-0.18,0.167-0.416,0.282-0.709,0.319c-0.866,1.688-1.696,3.097-2.414,4.082c3.9,1.706,8.545,2.451,12.933,2.004
		C263.146,243.452,265.201,224.838,265.25,208.75z"/>
</g>
<g id="Слой_28">
	<path fill="#8A8E93" d="M265.5,198.75c3.392-0.55,11.545-0.367,10.937,4.188c-0.576,4.316-8.91,2.322-12.413,3.275
		c-1.381-3.975-0.592-6.835,3.476-7.213"/>
</g>
<g id="Слой_22">
	<path fill="#8A8E93" d="M265.75,205.5c-1.944,17.462-1.374,34.438-1.877,51.666c-18.15-11.595-13.127,21.373-8.923,28.577
		c0.61-7.924,0.614-15.938,1.143-23.9c5.137-1.42,10.987-0.771,16.45-0.917c6.642-15.909-1.319-38.167,2.286-55.339
		c-2.391-0.085-5.654-0.559-8.079-0.087"/>
	<path fill="#9BA1A8" d="M273.486,283c-0.714-6.036,0.339-12.089-0.375-18.125c-0.101-0.858,0.563-1.25,1.237-1.196
		c-1.825-4.332-6.078-6.442-15.505-4.631l1.906,0.271c-7.403,0.408-6.37,14.267-5.447,20.218c1.799,11.588,7.342,7.977,19.851,7.881
		c-0.009-1.085,0.006-2.168,0.034-3.244C274.49,284.318,273.596,283.927,273.486,283z"/>
	<path fill="#8A8E93" d="M253.75,286c3.247,17.137,24.049,17.9,22.771-0.95c-7.707-2.513-16.336-0.998-23.771,1.2"/>
	<path fill="#8A8E93" d="M271.5,300c-4.778,2.188-0.815,11.278,4.048,8.762c4.885-2.528-1.002-8.613-3.548-10.262"/>
	<path fill="#8A8E93" d="M256.5,258.375c-0.566,1.412-0.709,2.99-0.631,4.502c5.156-3.504,11.48-1.957,17.03-0.779
		c0.874-1.482,2.037-0.99,3.804-0.935c0.264,8.525,0.024,17.143-0.097,25.69c-0.925,0.216-2.658,0.06-3.596-0.385
		c0.366-3.265,0.623-6.639,0.99-9.971c0.75-6.814-2.049-13.311-1.855-19.865c-3.388-0.409-15.15-2.828-16.27,2.243"/>
	<path fill="#8A8E93" d="M274.625,209.25c-0.366,9.757-1.75,19.757-1.75,29.936c0,7.717,2.207,15.855,0.631,23.282
		c1.061,0.485,2.805,0.733,3.985,0.388c-2.088-7.669,0.542-17.243,1.229-24.973c0.439-4.94-0.976-9.88-1.101-14.999
		c-0.056-2.286-0.548-5.132-0.128-7.394c0.231-1.244,2.078-3.085,1.85-4.4c-0.087-0.499,0.441-1.006,0.563-1.352
		c-2.117,0.08-4.489-0.238-6.528-0.988"/>
</g>
<g id="Слой_23">
	<path fill="#73350E" d="M285.333,567c-2.356,4.377-4.608,8.243-6.967,12.441c5.54,0.886,6.191,2.129,7.651,7.175
		c8.798-2.119,8.705-15.437,5.596-22.87c-2.116,1.667-4.885,1.731-6.613,2.921"/>
	<path fill="#73350E" d="M371.407,557.333c-0.074-3.329-1.436-6.703-0.873-10.035c0.528-3.127,2.858-4.503,5.64-5.046
		c1.925-6.256,1.23-10.52-11.618-12.416c-1.403,2.41-4.068,4.749-5.387,7.186c-1.891,17.254,2.57,35.031-1.443,51.935
		c11.766-5.775,12.704-19.889,13.812-30.691c0.007-0.068,0.018-0.133,0.026-0.201C371.472,557.85,371.413,557.61,371.407,557.333z"
		/>
</g>
<g id="Слой_24">
	<path fill="#914518" d="M261.667,563c-10.431,6.553-26.082,32.588-7.193,31.741c8.271-0.371,34.256-17.581,35.6-26.298
		c0.236-1.53,1.601-3.484,1.996-4.817c-11.534,0.821-20.486,0.733-32.403,0.374"/>
	<path fill="#914518" d="M362.333,538.667c0.079,9.664,3.14,42.237-3.983,49.017c-14.282,13.595-4.119-29.457-3.335-34.351
		c1.081-6.747-1.812-13.414,7.318-14.333"/>
</g>
<g id="Слой_25">
	<path fill="#AB551E" d="M275.667,562.667c-13.671,0.057-32.681,20.028-21.085,32.891c-16.662,12.216-35.698-5.707-22.497-21.058
		c9.098-10.58,25.179-11.374,38.582-11.5"/>
	<path fill="#AB551E" d="M346.333,571.667c13.909-2.967,18.302,25.624-5.615,21.283c-9.968-8.685-5.396-18.327,7.282-21.616"/>
</g>
<g id="Слой_19">
	<path fill="#002C34" d="M322,420c-15.314,39.818-22.579,85.051-34.257,126.631c-1.612,5.739-8.159,20.762-0.194,20.432
		c6.954-0.289,6.627-9.181,8.706-14.5c4.569-11.685,11.24-22.11,17.231-32.36c5.756,6.327,20.752,10.894,29.111,14.533
		c10.563,4.599,17.957,10.412,22.945-3.737c-7.144-5.97-12.999-12.66-19.431-19.744c-6.585-7.253-15.64-12.831-21.643-20.267
		c6.931-9.914,10.838-25.769,15.218-37.605c4.776-12.906,9.996-26.109,11.818-39.822c0.778-5.856,1.797-11.371,1.238-17.281
		c-12.116,4.567-21.555,17.562-31.745,25.22"/>
</g>
<g id="Слой_20">
	<path fill="#003E48" d="M326,421c-0.838,15.452-8.126,33.116-12.571,48.065c-5.612,18.875-11.773,37.848-17.459,56.778
		c-3.871,12.89-8.737,27.734-10.462,40.655c-1.29-0.058-3.553-0.675-4.713-1.274c-0.287-19.181,1.716-40.701,4.199-59.908
		c2.183-16.887,1.005-32.407,1.005-49.476c0.001-12.185,3.51-22.143,3.492-34.576c9.88-1.102,29.653-8.005,36.758-0.264"/>
</g>
<g id="Слой_21">
	<path fill="#006675" d="M282.721,565.716c-1.711-0.076-4.545-1.182-5.97-2.287c4.504-14.114,4.531-31.554,3.999-46.247
		c-0.368-10.169-0.744-10.97-7.302-17.147c-11.462-10.797-9.944-20.485-5.882-36.54c1.652-6.531,3.301-19.649,6.19-25.55
		c3.683-7.521,11.578-7.396,11.954-17.772C305.596,432.685,284.154,565.78,282.721,565.716z"/>
	<path fill="#006675" d="M294,428.333c8.256,5.696,12.407,34.905-4.275,31.216c-3.03-9.291-4.548-24.965,3.942-30.883"/>
</g>
<g id="Слой_10">
	<path fill="#1F5C66" d="M354.988,389.762c3.946-12.965,3.852-26.27,4.525-39.644c0.756-15.032-1.376-30.482-5.499-44.528
		c-2.414-8.222-9.781-21.013-20.109-18.065c-11.144,3.181-11.845,22.925-13.953,31.812c-3.484,14.689-6.975,29.379-10.862,43.968
		c-1.05,3.941-13.092,37.534-11.554,38.872c5.534,4.817,10.433,20.664,17.647,22.34c4.048,0.94,12.84-5.354,16.177-7.51
		C340.475,411.12,351.642,400.749,354.988,389.762z"/>
</g>
<g id="Слой_11">
	<path fill="#008FA0" d="M331.75,291c13.793,20.304-19.844,140.518-54.951,101.013c-6.89-7.754-14.91-19.724-12.81-30.771
		c1.121-5.896,3.682-8.098,3.56-14.268c-0.211-10.634-2.312-20.983-2.175-31.839c6.829-3.535,9.034,5.901,14.611,8.42
		c12.277,5.544,22.287-2.171,28.5-10.808c4.665-6.485,14.662-26.441,25.014-20.496"/>
</g>
<g id="Слой_14">
	<path fill="#008FA0" d="M292,400.75c-1.456,14.701-1.667,32.018,18.038,25.019c8.718-3.097,16.305-10.281,20.406-18.587
		c3.724-7.544,9.627-28.774,5.306-37.053c-0.242-0.463-0.397-2.918-0.495-3.413c-11.508,15.604-24.508,28.838-43.005,34.535"/>
</g>
<g id="Слой_12">
	<path fill="#00B0C0" d="M293.5,399.75c-1.528,10.47,0.168,20.16,7.157,28.048c-17.011,5.51-21.048-18.889-19.509-30.619
		c3.515,2.158,7.578,3.787,11.852,3.572"/>
</g>
<g id="Слой_26">
	<path fill="#EFB5B4" d="M259.333,297.333c-1.023,6.365-2.745,12.767-3.635,19.133c4.555-0.495,9.235-1.597,13.918-3.193
		c-1.102-7.313,1.011-16.697-9.95-14.607"/>
</g>
<g id="Слой_16">
	<g id="Слой_17">
		<path fill="#EFB5B4" d="M327.75,238.5c5.741,22.309-0.501,39.886-4.823,60.48c5.009-10.463,18.446-7.313,21.524-21.657
			c1.94-9.044,4.525-22.834,1.818-31.522c-6.711-1.379-11.834-4.421-17.768-7.301"/>
	</g>
	<path fill="#00B0C0" d="M269.5,312.75c-0.804,14.857,0.5,30.481,0.5,45.548c0,6.864,1.348,20.582-3.495,26.381
		c-10.111,12.11-24.797-1.561-26.456-13.172c-1.435-10.046,3.42-20.88,5.75-30.514c1.299-5.372,2.688-14.353,5.22-18.997
		c3.566-6.541,8.685-5.591,16.98-7.996"/>
	<path fill="#00B0C0" d="M315,308.75c-7.975,14.042-15.116,28.451-21.355,43.2c-3.453-7.933-17.987-22.598-18.4-30.707
		c-0.288-5.655,12.161-21.726,16.901-26.969c7.66,3.808,16.778,7.741,22.855,13.726"/>
</g>
<g id="Слой_4">
	<path fill="#FFE2E2" d="M300.25,251.5c-1.535,17.987-0.78,44.811,18.481,52.237c-2.709,13.634-20.242,0.016-24.15-4.861
		c-3.462-4.32-4.679-7.126-6.024-12.669c-0.542-2.232,0.102-5.07-1.25-7.075c-0.718-1.065-5.467-3.967-5.062-3.133
		c0.128,0.264-2.33-0.526-2.193-0.55c-0.865-14.941,12.563-14.641,19.699-23.949"/>
</g>
<g id="Слой_18">
	<path fill="#FFCCCC" d="M295,258.5c0.577,14.842,3.018,45.288,23.237,46.712c2.523-10.002,14.263-14.926,17.327-26.374
		c4.049-15.126,0.951-29.944-6.136-43.351c-5.31-7.114-5.44-12.375-14.359-12.988c-6.298-0.432-13.36,3.204-16.52,8.554
		c-3.188,5.397-6.078,23.312-3.799,29.196"/>
	<path fill="#FFE2E2" d="M247.333,297c2.769,6.703,6.463,13.438,10.632,18.935c-8.006,3.21-18.151-4.17-22.274-10.186
		c-8.583-12.522-1.284-13.413,8.232-16.766c1.141,3.818,3.091,5.567,4.41,9.017"/>
</g>
<g id="Слой_27">
	<path fill="#FFCCCC" d="M263.667,300.333l-3.016-4.847c-0.086,0.017-0.178,0.027-0.276,0.027c-0.355,0-0.627-0.124-0.828-0.311
		c-0.194-0.049-0.388-0.137-0.566-0.309c-2.219-2.142-3.748-4.68-4.825-7.558c-0.248-0.663,0.071-1.161,0.558-1.39L245,270.333
		c-0.297,9.781-4.269,54.443,16.273,44.266C261.017,309.757,261.912,304.77,263.667,300.333z"/>
</g>
<g id="Слой_8">
	<path fill="#FF9E53" d="M296,221.5c-0.134,4.573,3.268,6.767,3.873,10.445c0.549,3.334-0.341,9.202-0.873,12.854
		c-0.986,6.76-1.847,15.007-10.962,14.913c-2.489-6.735-13.487-12.512-11.038-20.962c2.267-7.819,14.849-7.223,19-13.75"/>
	<path fill="#FF9E53" d="M347,207.75c7.1,6.214,0.7,12.088-3.726,17.212c5.432,0.101,17.882-3.315,16.981-9.831
		c-0.488-3.529-11.036-8.469-13.706-9.363c-1.119,1.793,0.146,1.96,0.7,3.231"/>
</g>
<g id="Слой_6">
	<path fill="#D76B38" d="M333,219.5c1.311,7.07-5.305,7.887-10.657,9.037c4.834,8.883,8.779,19.462,21.13,21.469
		c12.542,2.038,21.824-7.015,21.276-18.918c-0.263-5.73-1.852-12.108-4.718-16.808c-3.757,9.069-19.493,10.952-27.032,6.22"/>
</g>
<g id="Слой_7">
	<path fill="#FF8345" d="M334.75,220.75c4.325,18.05-14.493,7.576-21.749,7c-10.661-0.846-21.292,13.108-17.243-6.202
		c5.437-25.928,30.641-22.499,38.992,0.702"/>
</g>
<g id="Слой_5">
	<path fill="#FCFCFC" d="M285.401,205.04c-0.109-0.194-0.27-0.365-0.524-0.462c-2.255-0.865-4.552-1.614-6.822-2.437
		c0.088-0.278,0.184-0.554,0.27-0.833c0.21-0.68-0.281-1.13-0.828-1.205c-4.258-2.836-9.44-4.339-13.891-1.049
		c-0.37,0.273-0.474,0.674-0.411,1.038c-0.039,0.1-0.078,0.201-0.085,0.325c-0.107,1.879,0,3.75,0.125,5.625
		c0.058,0.869,0.989,1.137,1.56,0.826c0.083-0.013,0.167-0.031,0.252-0.063c-0.038,0.337-0.061,0.674-0.097,1.011
		c-0.032-0.005-0.056-0.022-0.09-0.024c-1.772-0.116-3.532,0.032-5.266,0.411c-0.02,0.004-0.031,0.017-0.05,0.022
		c-0.464,0.036-0.873,0.341-0.809,0.942c0.341,3.2,0.381,6.42-0.089,9.609c-0.014,0.092,0.005,0.171,0.013,0.255
		c-0.003,0.059,0.003,0.116,0.009,0.176c0.001,0.002,0.001,0.005,0.001,0.007c0.049,0.46,0.355,0.907,0.942,0.952
		c0.09,0.007,0.179,0.014,0.269,0.021c0.507,11.086,3.102,25.517-5.351,34.272c-0.06,0.062-0.085,0.13-0.125,0.196
		c-0.092-0.029-0.185-0.048-0.277-0.078c-0.361-0.117-0.651-0.02-0.864,0.167c-0.497,0.187-0.7,0.682-0.616,1.189
		c0.06,0.363,0.01,0.747-0.057,1.117c-0.911,0.006-1.821,0.024-2.729,0.118c-0.067,0.007-0.126,0.032-0.19,0.048
		c-0.512-0.016-1.002,0.297-0.935,0.952c0.414,4.068,1.043,8.504,1.268,12.942c-5.663-0.809-12.607-6.655-17.627-1.865
		c-5.219,4.98-4,13.953,1.02,18.443c1.394,1.247,3.786,2.319,5.621,1.377c1.497-0.768,3.828-3.76,2.786-5.539
		c-0.272-0.465-0.614-0.858-0.978-1.227c1.347,0.856,3.129,1.19,4.926,1.076c-0.078-0.643-0.16-1.285-0.232-1.93
		c-2.292,0.15-4.615-0.573-4.974-2.769c0.81,0.456,1.643,0.878,2.436,1.355c0.403,0.243,0.875,0.14,1.212-0.156
		c0.355-0.312,0.709-0.627,1.063-0.941c-0.048-0.478-0.101-0.954-0.148-1.433c-0.256-2.643,3.685-2.713,4.223-0.294
		c0.217,0.051,0.432,0.11,0.653,0.15c-0.065,0.952-0.177,1.891-0.317,2.823c0.201,1.858,0.43,3.702,0.692,5.534
		c2.846-8.333,1.387-18.044,0.475-26.607c0.799-0.044,1.599-0.064,2.4-0.064c0.487,0,0.789-0.286,0.908-0.641
		c0.146-0.123,0.268-0.272,0.306-0.468c0.075-0.381,0.132-0.754,0.164-1.128c4.238,1.217,8.581,1.557,12.997,1.362
		c1.284-0.057,1.29-2.057,0-2c-0.753,0.033-1.502,0.044-2.249,0.045c0.223-16.698-0.167-33.424,1.749-50.045
		c0.002-0.019-0.006-0.031-0.004-0.05c0.122-0.026,0.239-0.065,0.362-0.087c-0.028,1.673-0.121,3.342-0.232,5.012
		c-0.086,1.288,1.915,1.28,2,0c0.115-1.725,0.213-3.451,0.237-5.18c1.598-0.011,3.23,0.237,4.75,0.569
		c-1.902,17.567-1.5,35.224-1.362,52.861c0,0.007,0.004,0.012,0.004,0.019c-0.398,0.768-0.903,1.113-1.863,0.892
		c-0.314-0.072-0.583-0.006-0.79,0.139c-4.931-1.525-10.492-1.027-14.856,1.837c-0.096,0.063-0.171,0.137-0.235,0.214
		c-0.228,0.158-0.391,0.408-0.385,0.774c0.123,7.221,0.19,14.427-0.5,21.625c-0.026,0.27,0.056,0.469,0.18,0.625
		c-0.086,0.395,0.088,0.821,0.39,1.068c0.064,0.446,0.366,0.875,0.93,0.933c5.841,0.601,11.651,0.926,17.5,0.25
		c0.726-0.084,1.026-0.773,0.92-1.322c0.113-0.146,0.199-0.32,0.205-0.553c0.172-7.508,0.763-14.991,0.125-22.493
		c0.19-0.419,0.14-0.944-0.371-1.246c-0.227-0.134-0.461-0.254-0.694-0.378c0.54-0.37,0.987-0.909,1.303-1.629
		c0.082-0.188,0.108-0.383,0.101-0.572c0.01-0.062,0.036-0.113,0.036-0.182c-0.137-17.538-0.531-35.096,1.334-52.565
		c0.321-0.126,0.538-0.427,0.609-0.759c0.005-0.014,0.016-0.021,0.021-0.036c0.21-0.63,0.407-1.263,0.614-1.893
		c2.082,0.757,4.185,1.458,6.26,2.233c-0.123,1.553-0.565,3.055-0.889,4.58c-1.586-1.385-3.54-1.951-4.53,0.923
		c-1.824,5.294-1.165,11.901-1.356,17.361c-0.769,22.016-0.161,44.15-1.378,66.146c-5.021-1.746-15.839-5.291-20.397-1.699
		c0.09,0.195,0.182,0.399,0.273,0.599c0.753-0.784,1.959-1.034,2.84,0.054c0.08,0.098,0.16,0.201,0.241,0.303
		c4.479-1.154,9.974,0.425,14.651,2.023c-0.607,0.429-1.193,0.883-1.751,1.397c-0.478,0.44-0.337,1.254,0.202,1.571
		c1.755,1.029,5.546,5.106,4.443,7.412c-0.341,0.713-1.87,0.46-2.422,0.386c-1.334-0.18-2.108-1.38-2.738-2.44
		c-1.057-1.778-1.656-3.794-2.664-5.6c-0.442-0.791-1.411-0.521-1.74,0.096c-0.113,0.044-0.226,0.104-0.331,0.201
		c-0.202,0.187-0.414,0.362-0.633,0.528c1.454,0.07,2.127,1.308,2.028,2.436c0.901,2.145,1.763,4.425,3.591,5.795
		c1.689,1.266,4.715,1.656,6.323,0.034c2.551-2.574-1.1-7.527-3.725-9.75c0.563-0.432,1.143-0.839,1.752-1.222
		c0.01-0.006,0.013-0.015,0.023-0.021c0.238,0.083,0.476,0.167,0.707,0.247c0.684,0.238,1.133-0.265,1.197-0.826
		c0.028-0.085,0.063-0.163,0.069-0.263c0.99-16.905,0.565-33.887,1.227-50.813c0.309-7.89,0.194-15.788,0.473-23.682
		c0.064-1.804,0.064-3.602,0.191-5.403c0.154-2.177,0.504-6.815,3.12-3.222c0.147,0.202,0.332,0.324,0.528,0.385
		c0.038,0.014,0.078,0.018,0.118,0.028c0.026,0.005,0.052,0.01,0.078,0.013c0.548,0.092,1.206-0.21,1.265-0.93
		c0.196-2.418,1.171-4.685,1.25-7.125C285.748,205.445,285.607,205.2,285.401,205.04z M243.361,277.945
		c-1.093-0.61-2.23-1.163-3.245-1.892c-0.499-0.358-1.36-0.006-1.469,0.598c-0.351,1.949,0.059,3.436,0.916,4.52
		c-1.301-1.042-2.667-2.03-3.294-3.834c-1.807-5.204,5.385-2.977,7.316-2.192c0.673,0.274,1.341,0.552,2.009,0.824
		C244.849,276.627,244.106,277.287,243.361,277.945z M235.222,273.626c-2.92,4.466,1.383,7.986,4.586,10.679
		c0.913,0.767-1.363,3-2.333,3.097c-1.867,0.187-3.605-1.907-4.549-3.215c-2.773-3.844-2.211-8.413-0.018-12.34
		c2.107-3.773,5.819-2.392,8.989-1.124c2.692,1.077,5.297,2.064,8.179,2.394c0.015,0.74,0.018,1.479,0.002,2.214
		C245.886,274.252,238.349,268.844,235.222,273.626z M263.363,256.167c-2.307-0.102-4.588-0.39-6.844-0.925
		c6.744-7.595,6.387-18.571,5.75-28.576c0.475,0.339,1.227,0.255,1.491-0.271C263.435,236.31,263.495,246.243,263.363,256.167z
		 M264.71,210.417h-2.598c-1.29,0-1.29,2,0,2h2.431c-0.027,0.333-0.044,0.667-0.07,1h-1.361c-1.29,0-1.29,2,0,2h1.22
		c-0.073,1.035-0.158,2.07-0.218,3.105c-1.139-0.094-2.278-0.182-3.417-0.27c0.322-2.745,0.347-5.488,0.105-8.243
		c1.31-0.228,2.627-0.301,3.961-0.221C264.743,209.998,264.729,210.207,264.71,210.417z M267.125,204.108
		c-0.672,0.118-1.335,0.276-1.976,0.511c-0.076-1.389-0.115-2.777-0.038-4.17c0.762-0.489,1.535-0.813,2.314-1.012
		c-0.181,1.529-0.304,3.06-0.313,4.604C267.112,204.067,267.124,204.084,267.125,204.108z M257.543,285.591
		c4.453-2.213,9.258-2.199,13.583,0.276C266.591,286.212,262.074,286.007,257.543,285.591z M272.405,284.29
		c-1.222-0.741-2.494-1.293-3.791-1.678c0.023-4.525,0.23-9.046,0.248-13.571c0.005-1.29-1.995-1.289-2,0
		c-0.017,4.375-0.208,8.747-0.242,13.122c-1.738-0.274-3.503-0.261-5.25,0.052c0.145-4.393,0.465-8.778,0.492-13.175
		c0.008-1.29-1.992-1.289-2,0c-0.027,4.464-0.358,8.915-0.5,13.375c-0.003,0.106,0.026,0.189,0.048,0.278
		c-1.052,0.323-2.091,0.747-3.104,1.279c0.595-6.756,0.552-13.519,0.44-20.295c4.747-2.908,10.881-2.83,15.752-0.231
		C273.073,270.399,272.609,277.336,272.405,284.29z M271.469,203.991c-0.785-0.072-1.571-0.116-2.352-0.09
		c0.014-1.572,0.112-3.14,0.32-4.698c0.898,0.014,1.794,0.18,2.68,0.453C271.753,201.086,271.374,202.504,271.469,203.991z
		 M275.16,204.593c-0.549-0.127-1.109-0.238-1.675-0.337c-0.137-1.338,0.178-2.587,0.505-3.858c0.728,0.348,1.445,0.75,2.142,1.198
		C275.815,202.597,275.488,203.595,275.16,204.593z"/>
	<path fill="#FCFCFC" d="M213.858,313.688c-0.004-0.009-0.003-0.018-0.008-0.027c-3.752-7.133-6.356-21.582,1.499-26.988
		c8.154,0.306,16.661,6.55,24.636,6.372c0.311-1.846,2.955-2.949,3.863-0.876c0.028,0.064,0.06,0.126,0.089,0.19
		c0.991-0.341,1.969-0.838,2.936-1.479c-0.131-0.727-0.266-1.452-0.383-2.182c-9.071,6.96-20.813-3.36-30.75-4
		c-0.274-0.193-0.632-0.254-1.008-0.02c-2.498,1.553-4.142,3.821-5.153,6.456c-3.61-6.683-14.001-5.381-16.543,2.224
		c-2.987,8.938,8.857,15.901,15.647,10.557c0.628,4.013,1.913,7.853,3.44,10.757c0.021,0.039,0.051,0.057,0.075,0.091
		c0.066,0.196,0.184,0.381,0.409,0.518c10.881,6.617,22.449,1.733,32-5.475c-0.605-0.363-1.195-0.746-1.773-1.146
		C234.093,315.124,223.632,319.458,213.858,313.688z M208.552,295.02c-0.184,0.031-0.378,0.069-0.574,0.112
		c-0.501-2.333-2.134-4.1-4.448-4.909c-2.958-1.034-5.68,0.891-6.817,3.551c-1.078,2.522-0.083,5.08,2.112,6.569
		c2.397,1.626,5.589,1.028,7.618-0.844c0.08-0.074,0.121-0.155,0.169-0.235c0.493,0.367,1.047,0.663,1.494,0.891
		c0.066,0.034,0.128,0.035,0.193,0.054c0.019,0.43,0.061,0.861,0.098,1.292c-0.039,0.032-0.081,0.044-0.118,0.084
		c-5.477,5.852-15.103-0.256-13.315-7.695c1.689-7.024,11.858-6.707,13.558,0.043c0.036,0.143,0.098,0.257,0.17,0.354
		C208.646,294.531,208.59,294.772,208.552,295.02z M208.325,297.116c-0.018,0.284-0.033,0.568-0.042,0.854
		c-0.184-0.11-0.367-0.221-0.533-0.353c-0.07-0.055-0.169-0.143-0.243-0.214c0.071-0.038,0.139-0.084,0.213-0.112
		C207.915,297.214,208.121,297.167,208.325,297.116z M205.481,297.849c-0.155,0.037-0.308,0.103-0.451,0.235
		c-2.793,2.577-8.145,0.339-6.407-3.729c1.7-3.976,7.095-2.347,7.487,1.554c-0.335,0.266-0.593,0.602-0.689,1.047
		C205.352,297.279,205.392,297.572,205.481,297.849z"/>
	<path fill="#FCFCFC" d="M266.5,246.702v10.125c0,1.29,2,1.29,2,0v-10.125C268.5,245.412,266.5,245.412,266.5,246.702z"/>
	<path fill="#FCFCFC" d="M247.287,293.049c-0.948-0.072-1.932,0.036-2.906,0.265c0.289,0.612,0.592,1.217,0.907,1.814
		c0.835-0.152,1.664-0.171,2.446,0.014C247.576,294.446,247.429,293.748,247.287,293.049z"/>
	<path fill="#FCFCFC" d="M240.381,307.235c-0.426,0.239-0.858,0.472-1.3,0.693c-0.596-0.581-1.174-1.178-1.753-1.775
		c0.501-0.26,1.01-0.505,1.515-0.756c-0.502-0.481-0.993-0.977-1.469-1.493c-0.492,0.248-0.983,0.499-1.471,0.754
		c-0.493-0.527-0.988-1.052-1.474-1.587c0.452-0.339,0.908-0.672,1.363-1.008c-0.411-0.513-0.81-1.043-1.199-1.586
		c-0.499,0.369-0.999,0.735-1.495,1.108c-1.034-1.159-2.064-2.322-3.095-3.485c-0.857-0.967-2.267,0.453-1.414,1.414
		c0.969,1.093,1.937,2.186,2.91,3.275c-1.29,0.985-2.576,1.974-3.86,2.967c-1.422-1.983-2.824-3.98-4.263-5.949
		c2.095-1.344,4.177-2.71,6.3-4.011c0.325-0.199,0.45-0.492,0.458-0.787c1.135,0.284,2.284,0.514,3.437,0.717
		c0.921-0.77,2.458-0.88,3.277,0.442c0.002,0.003,0.005,0.007,0.007,0.01c0.548,0.056,1.098,0.098,1.648,0.138
		c0.592-0.247,1.271-0.252,1.845,0.088c0.266,0.007,0.531,0.026,0.798,0.027c-0.337-0.67-0.66-1.347-0.964-2.036
		c-7.28-0.198-14.295-2.227-20.757-5.577c-0.177-0.092-0.348-0.123-0.509-0.116c-1.22-0.542-2.413-0.293-3.234,0.85
		c-0.147,0.204-0.164,0.455-0.11,0.692c-4.235,6.829-3.541,16.251,0.36,23.067c0.07,0.123,0.158,0.21,0.25,0.284
		c0.011,0.014,0.022,0.026,0.034,0.039l0,0c0.161,0.176,0.393,0.296,0.704,0.296c7.564,0.786,17.906-0.927,25.475-5.586
		c-1.203-0.862-2.346-1.805-3.428-2.829C239.44,306.09,239.912,306.661,240.381,307.235z M217.491,311.983
		c-3.573-6.499-4.014-15.362,0.356-21.574c0.095,0.028,0.197,0.073,0.319,0.138c0.169,0.09,0.331,0.117,0.488,0.116
		c3.031,1.554,6.185,2.818,9.422,3.778c-1.979,1.228-3.931,2.5-5.892,3.756c-0.948-1.261-1.918-2.507-2.931-3.72
		c-0.827-0.991-2.234,0.431-1.414,1.414c0.919,1.101,1.801,2.23,2.667,3.371c-0.775,0.485-1.552,0.967-2.339,1.433
		c-1.108,0.657-0.103,2.386,1.009,1.727c0.851-0.505,1.693-1.024,2.53-1.55c1.479,2.012,2.917,4.055,4.372,6.086
		c-0.517,0.399-1.037,0.793-1.555,1.191c-1.157-1.427-2.237-2.914-3.238-4.47c-0.695-1.081-2.427-0.079-1.727,1.009
		c1.044,1.623,2.171,3.181,3.379,4.675c-0.09,0.068-0.18,0.139-0.27,0.207c-1.016,0.766-0.021,2.504,1.009,1.727
		c0.179-0.135,0.356-0.274,0.535-0.41c0.289,0.328,0.594,0.642,0.893,0.962C222.409,312.138,219.807,312.18,217.491,311.983z
		 M227.456,311.538c-0.047-0.107-0.106-0.213-0.203-0.311c-0.5-0.507-0.979-1.03-1.449-1.559c0.477-0.367,0.957-0.73,1.433-1.097
		c0.649,0.892,1.305,1.779,1.973,2.656C228.625,311.343,228.04,311.444,227.456,311.538z M229.361,308.114
		c-0.185-0.251-0.376-0.497-0.56-0.748c1.339-1.036,2.682-2.066,4.029-3.091c0.411,0.453,0.83,0.898,1.246,1.346
		c-1.548,0.824-3.094,1.655-4.66,2.449C229.393,308.082,229.383,308.101,229.361,308.114z M231.282,310.757
		c-0.037-0.096-0.084-0.19-0.154-0.281c-0.192-0.247-0.373-0.503-0.562-0.752c1.655-0.842,3.287-1.73,4.925-2.605
		c0.547,0.57,1.093,1.14,1.654,1.696C235.263,309.61,233.286,310.258,231.282,310.757z"/>
	<path fill="#FCFCFC" d="M321.667,423.333c-0.562,15.651-10.248,31.714-26.884,32.624c-0.953-9.183-0.439-18.411-0.116-27.624
		c0.09-2.581-3.91-2.572-4,0C290.32,438.23,289.729,448.144,291,458c0.141,1.09,0.804,1.988,2,2
		c19.962,0.208,32.007-18.286,32.667-36.667C325.759,420.753,321.759,420.762,321.667,423.333z"/>
	<path fill="#002C34" d="M294.333,322.833c-3.224,0-3.224,5,0,5C297.558,327.833,297.558,322.833,294.333,322.833z"/>
	<path fill="#002C34" d="M292,335.667c-2.579,0-2.579,4,0,4S294.579,335.667,292,335.667z"/>
</g>
<g id="Слой_36">
	<path fill="#FCFCFC" d="M312.432,289.869c-3.288-0.655-6.465-2.676-6.432-6.369c0.011-1.29-1.989-1.289-2,0
		c-0.04,4.567,3.722,7.466,7.901,8.298C313.16,292.048,313.697,290.121,312.432,289.869z"/>
</g>
<g id="Слой_3">
	<path fill="#FCFCFC" d="M377.941,536.681c-1.997-4.241-7.038-6.1-11.389-7.465c-0.35-0.393-0.859-0.61-1.39-0.639
		c-0.138-0.295-0.344-0.573-0.652-0.803c-14.09-10.547-21.375-28.093-36.931-36.88C342.019,457.799,354.534,424.038,356.5,388
		c0.007-0.133-0.003-0.255-0.017-0.375c3.922-14.323,5.288-29.31,5.079-44.125c-0.224-15.901-2.538-32.265-8.634-47.032
		c-0.078-0.188-0.179-0.347-0.29-0.493c-1.39-3.049-3.364-5.778-5.879-7.702c-1.432-1.095-2.879-1.745-4.324-2.057
		c6.255-10.608,5.255-22.464,6.842-34.245c10.058-0.957,18.137-8.958,18.648-20.395c0.675-15.102-12.215-30.682-27.759-30.076
		c-1.856,0.072-2.902,2.81-1.009,3.727c3.309,1.604,6.658,3.399,8.692,6.584c4.026,6.3-5.964,9.311-10.211,8.475
		c-4.206-0.827-4.524-6.766-6.078-9.962c-1.258-2.586-3.605-4.59-5.843-6.29c-10.039-7.626-24.714-3.784-29.03,7.989
		c-2.264,6.174-1.672,13.405-8.18,17.063c-3.797,2.134-7.768,2.442-10.867,5.099v15.79c2.96,2.393,9.32,6.389,8.132,8.849
		c-0.201,0.417-0.251,0.823-0.196,1.197c-5.384,5.352-11.621,18.059-0.871,17.27c1.392,5.32,3.01,10.854,5.266,15.823
		c-0.397,0.132-0.763,0.406-1.032,0.877c-4.377,7.681-9.464,14.93-13.745,22.664c-1.062-1.496-2.13-2.976-3.201-4.446
		c0-0.07,0.012-0.134,0.007-0.208c-0.266-3.984-0.692-7.956-0.959-11.94c0.546-0.269,1.12-0.442,1.725-0.596
		c1.249-0.317,0.719-2.246-0.532-1.929c-0.597,0.152-1.183,0.339-1.745,0.582c-0.643-0.842-1.775-1.168-2.75-0.954
		c-0.226-0.082-0.467-0.146-0.74-0.164c-15.496-1.06-10.33-20.967-19.482-29.268c-0.611-0.555-1.601-0.976-2.432-0.643
		c-0.417,0.167-0.833,0.333-1.25,0.5c-1.079,0.432-1.793,1.196-1.835,2.411c-0.181,5.222-0.196,10.427,0.164,15.628
		c-1.946,0.91-3.766,2.176-4.652,4.048c-0.312-0.323-0.636-0.64-0.995-0.943c-1.042-0.882-2.509-1.02-3.536,0
		c-10.793,10.718,5.803,23.769,15.339,29.253c-0.507,20.383-13.339,39.167-8.25,59.879c1.538,6.261,6.759,11.232,12.772,13.147
		c6.327,2.015,12.069-1.269,15.791-6.125c2.761,4.555,6.053,8.682,10.036,11.969c0.001,0.049-0.007,0.093-0.004,0.144
		c0.528,7.082,0.883,14.659,3.342,21.436c-0.001,0.022-0.008,0.041-0.008,0.064c-0.055,1.776-0.106,3.553-0.16,5.329
		c-15.948,23.98-32.353,63.549-2.747,83.13c-0.767,18.258-1.719,36.508-3.006,54.742c-12.336-1.493-26.085-0.92-37.253,4.729
		c-8.997,4.551-16.389,17.056-10.839,26.702c6.556,11.395,24.558,6.352,33.423,1.576c4.209-2.268,7.661-5.456,11.444-8.322
		c3.381-2.561,10.527-8.144,11.139-0.719c0.093,1.125,0.841,1.948,2,2c12.003,0.534,9.559-14.478,9.346-22.47
		c0.027-0.056,0.06-0.104,0.083-0.165c5.455-14.44,11.782-28.776,18.258-43.143c11.952,9.684,27.122,13.675,40.583,20.726
		c-1.188,8.394-2.01,16.823-2.758,25.267c-6.744,0.892-12.898,5.03-16.692,10.691c-4.345,6.482-1.748,13.303,5.673,15.31
		c10.531,2.848,21.161-2.055,26.414-11.284c6.624-11.637,4.131-25.309,5.974-37.973c1.799,0.344,3.722,0.204,4.943-1.336
		C379.333,541.383,378.91,538.74,377.941,536.681z M352.965,316.845c0.296-1.587,0.613-3.169,0.924-4.753
		c6.51,25.25,5.111,53.966-2.318,78.126c-0.064,0.209-0.086,0.404-0.087,0.591c-0.049,0.018-0.093,0.049-0.141,0.071
		c-0.089,0.248-0.198,0.489-0.301,0.732c-0.353,1.513-0.911,2.966-1.7,4.298c-6.038,17.296-27.495,25.572-43.976,29.599
		c-6.998,1.71-14.412,1.401-18.305-5.396c-3.347-5.844-3.777-13.493-4.206-20.299c14.451,8.232,29.82-5.779,39.488-15.58
		c7.65-7.755,14.737-16.712,19.523-26.539C348.061,344.977,350.393,330.622,352.965,316.845z M281.207,236.276
		c4.701-3.318,10.68-2.718,14.249-8c3.849-5.696,3.254-12.938,6.809-18.719c5.317-8.645,17.96-5.845,23.916,0.142
		c4.907,4.933,3.151,14.055,12.133,14.753c5.944,0.462,13.531-2.332,14.062-9.277c0.24-3.139-0.979-5.668-2.883-7.745
		c10.787,5.093,17.11,19.261,13.177,30.774c-2.554,7.474-10.899,10.771-18.214,9.724c-7.399-1.058-11.862-6.576-16.068-12.16
		c-3.413-4.531-6.968-8.8-12.412-10.848c-5.03-1.893-11.595-0.193-15.316,3.54c-7.592,7.615,2.678,27.608-10.736,29.424
		c-0.056-2.401-1.721-4.357-3.919-6.104C281.428,248.142,273.215,241.916,281.207,236.276z M287.28,275.268
		c-0.22-0.852-1.05-1.179-1.845-1.048c-5.22,0.863-4.101-2.713-2.362-6.005c1.19-2.252,2.818-4.629,4.8-6.337
		c0.231,0.086,0.492,0.136,0.794,0.121c6.563-0.312,11.055-3.874,12.339-10.349c1.242-6.262-1.313-13.519,1.765-19.357
		c2.14-4.059,8.256-4.616,12.141-3.518c3.782,1.069,6.612,4.684,8.951,7.614c4.418,5.535,8.225,11.58,15.195,14.169
		c2.434,0.904,4.857,1.377,7.209,1.481c-1.393,11.375-0.474,23.039-6.73,33.202c-0.171,0.278-0.233,0.55-0.224,0.805
		c-5.757,0.575-11.243,5.706-15.228,9.538c-3.636,3.496-6.874,7.235-9.819,11.152C295.93,307.838,291.092,290.057,287.28,275.268z
		 M293.186,299.029c4.145,6.271,10.004,10.658,18.864,10.773c-8.084,11.62-13.732,24.712-18.638,38.184
		c-2.217-5.325-4.893-10.48-7.84-15.487c0.047-0.155,0.082-0.319,0.094-0.498C286.415,320.706,288.904,309.516,293.186,299.029z
		 M286.679,305.416c-2.215,6.986-3.739,14.165-4.55,21.467c-1.421-2.224-2.892-4.411-4.382-6.576
		C280.472,315.191,283.593,310.315,286.679,305.416z M235.017,294.406c1.122,1.402,2.08,2.932,3.216,4.362
		c0.056,0.07,0.117,0.119,0.174,0.18c0.064,0.24,0.128,0.479,0.183,0.717c0.717,3.143,5.538,1.81,4.821-1.329
		c-0.417-1.829-1.21-3.669-1.445-5.53c-0.088-0.695,0.141-1.195,0.524-1.591c1.001,1.991,1.928,4.019,2.851,6.047
		c1.335,2.931,5.643,0.388,4.317-2.524c-0.707-1.553-1.419-3.104-2.161-4.64c0.022-0.186,0.026-0.383,0.003-0.598
		c-0.519-4.78-0.665-9.561-0.617-14.353c2.447,4.745,2.836,10.869,4.627,15.698c2.52,6.793,7.685,10.364,14.667,11.076
		c0.256,3.279,0.58,6.553,0.805,9.835c-4.568,2.334-9.404,3.001-14.585,2.774C247.004,311.656,231.652,302.043,235.017,294.406z
		 M266.273,381.324c-4.134,6.465-11.062,8.087-17.222,3.277c-6.377-4.98-6.638-14.057-6.077-21.422
		c0.888-11.661,5.546-22.59,7.941-33.959c1.488,10.597,4.18,21.128,7.37,31.185c2.115,6.669,4.688,13.956,8.196,20.655
		C266.409,381.143,266.337,381.224,266.273,381.324z M261.499,357.293c-3.858-12.427-6.9-25.657-7.646-38.724
		c5.411,0.063,10.55-0.896,15.341-3.451c10.091,13.884,19.976,28.948,24.377,45.663c0.656,2.492,4.515,1.434,3.857-1.063
		c-0.554-2.105-1.198-4.182-1.91-6.237c0.168-0.19,0.311-0.419,0.41-0.699c5.786-16.369,12.249-32.281,23.209-45.964
		c4.695-5.86,11.322-13.978,18.627-16.432c8.55-2.872,12.915,9.083,13.231,16.078c-0.073,0.151-0.136,0.314-0.175,0.504
		c-2.638,12.982-4.562,26.115-8.565,38.777c-3.482,11.013-9.443,20.376-16.833,29.169c-8.982,10.686-26.173,30.23-41.706,20.748
		C271.33,388.099,265.535,370.295,261.499,357.293z M281.605,431.657c-0.699,23.521-1.377,47.044-2.324,70.555
		C256.646,485.213,268.471,453.403,281.605,431.657z M287.66,583.522c-1.356-5.821-6.046-6.88-11.836-3.874
		c-3.326,1.727-6.289,4.239-9.189,6.587c-4.802,3.889-10.005,6.897-15.963,8.689c-6.047,1.819-15.121,1.885-19.224-3.811
		c-3.947-5.48,0.535-13.599,4.438-17.651c9.483-9.848,29.069-9.378,41.487-7.594c4.323,2.943,9.233,3.404,14.096,1.114
		C291.946,572.702,293.199,582.24,287.66,583.522z M291.84,563.27c-0.525-0.281-1.174-0.343-1.85,0.003
		c-3.35,1.719-6.797,1.578-9.838-0.322c-0.037-0.079-0.084-0.151-0.135-0.223c3.262-45.752,4.397-91.606,5.778-137.443
		c4.04,4.457,10.273,5.578,16.413,4.839c11.052-1.329,22.832-6.543,32.435-12.036c6.932-3.965,12.877-9.385,16.508-16.247
		c-3.553,26.167-12.682,51.426-22.691,75.753C316.644,506.315,302.865,534.222,291.84,563.27z M315.914,518.586
		c-0.187-0.156-0.384-0.261-0.582-0.341c3.561-7.879,7.148-15.771,10.643-23.697c15.155,8.798,22.596,26.26,36.515,36.679
		c0.147,0.11,0.293,0.189,0.438,0.25c-0.331,3.712-2.18,6.381-5.961,7.594c-0.168,0.054-0.317,0.125-0.453,0.206
		c-0.002-0.001-0.004-0.003-0.006-0.004C343.136,532.225,327.691,528.406,315.914,518.586z M372.282,540.321
		c-0.434-0.148-0.82-0.144-1.154-0.04c-0.819-0.048-1.611,0.373-1.806,1.437c-2.853,15.591,2.735,43.828-18.636,48.452
		c-6.335,1.371-17.402-0.297-12.834-8.88c3.318-6.233,11.004-10.067,17.898-9.541c2.574,0.197,2.555-3.805,0-4
		c-0.076-0.006-0.151-0.004-0.227-0.008c0.724-8.172,1.494-16.336,2.655-24.46c0.02-0.143,0.023-0.279,0.018-0.412
		c4.726-1.572,7.58-4.906,8.486-9.403c2.294,0.776,4.633,1.742,6.445,3.179c0.968,0.768,1.443,2.122,1.689,3.288
		C375.155,541.535,373.191,540.633,372.282,540.321z"/>
	<path fill="#002C34" d="M308.689,250.899c-0.058-0.013-0.105-0.035-0.159-0.052c0.034,0.26,0.172,0.509,0.466,0.683
		c2.43,1.44,3.299,4.265,5.336,5.951c-0.067,0.035-0.123,0.076-0.193,0.11c-0.056,0.027-0.115,0.032-0.172,0.052
		c0.007,0.046,0.02,0.09,0.024,0.136c-0.406,0.128-0.767,0.432-0.937,0.989c-0.687,2.248-1.309,4.506-1.667,6.833
		c-0.034,0.22-0.021,0.423,0.022,0.612c-0.493,1.565,1.847,2.806,2.719,1.211c1.391-2.543,2.181-5.346,1.871-8.257
		c-0.002-0.016-0.01-0.028-0.012-0.044c0.013-0.227,0.01-0.452,0.005-0.677c0.185,0.068,0.373,0.134,0.575,0.185
		c0.369,0.094,0.664-0.019,0.88-0.217C314.235,256.263,312.615,251.75,308.689,250.899z"/>
	<path fill="#002C34" d="M336.667,255.463c-3.826-0.323-4.696,8.164-5.336,12.249c0.004,0.096-0.003,0.192,0.002,0.288
		c0.066,1.203,1.646,2.12,2.561,1.061c2.315-2.684,2.81-5.989,1.552-9.293c-0.125-0.329-0.326-0.568-0.564-0.733
		c0.395-1.023,1.081-1.903,1.992-2.661c0.339-0.282,0.383-0.629,0.272-0.934C336.998,255.465,336.841,255.478,336.667,255.463z"/>
	<path fill="#002C34" d="M324.414,277.381c-2.06-4.273-2.341-9.546-2.376-14.131c-0.38,0.106-0.699,0.406-0.705,0.917
		c-0.061,5.333-0.618,10.481,1.827,15.298c-1.63,0.881-3.274,1.201-5.228,0.904c-1.261-0.191-1.803,1.735-0.532,1.929
		c2.82,0.428,5.207-0.027,7.604-1.601c0.453-0.298,0.647-0.881,0.359-1.368C324.984,278.688,324.675,278.038,324.414,277.381z"/>
	<path fill="#002C34" d="M1127.049-333.373c-1.29,0-1.29,2,0,2S1128.339-333.373,1127.049-333.373z"/>
	<path fill="#002C34" d="M216.595-397.87c-0.645,0-0.967,0.5-0.967,1c0,0.5,0.322,1,0.967,1s0.967-0.5,0.967-1
		C217.562-397.37,217.24-397.87,216.595-397.87z"/>
	<path fill="#002C34" d="M304.238,277.779c-0.407,0.038-0.815,0.289-0.953,0.705c-1.433,4.353-1.313,9.116,2.335,12.32
		c3.531,3.102,8.754,2.71,12.904,1.195c0.076-0.002,0.148,0.004,0.225,0.001c0.283-0.011,0.495-0.121,0.65-0.281
		c0.567-0.082,0.824-0.576,0.79-1.047C312.967,292.369,304.822,284.828,304.238,277.779z M307.814,289.921
		c-2.68-1.478-3.486-4.183-3.358-6.935c1.631,3.887,4.508,6.772,8.323,8.14C311.086,291.144,309.406,290.799,307.814,289.921z"/>
	<path fill="#914518" d="M552.578,632.578c-1.29,0-1.29,2,0,2S553.868,632.578,552.578,632.578z"/>
	<path fill="#914518" d="M731.069,433.089c-1.29,0-1.29,2,0,2S732.359,433.089,731.069,433.089z"/>
</g>
</svg>
