<?xml version="1.0" encoding="utf-8"?>
<!-- Generator: Adobe Illustrator 17.0.0, SVG Export Plug-In . SVG Version: 6.00 Build 0)  -->
<!DOCTYPE svg PUBLIC "-//W3C//DTD SVG 1.1//EN" "http://www.w3.org/Graphics/SVG/1.1/DTD/svg11.dtd">
<svg version="1.1" xmlns="http://www.w3.org/2000/svg" xmlns:xlink="http://www.w3.org/1999/xlink" x="0px" y="0px" width="612px"
	 height="792px" viewBox="0 0 612 792" enable-background="new 0 0 612 792" xml:space="preserve">
<g id="Слой_2">
	<rect fill="#000102" width="612" height="792"/>
</g>
<g id="Слой_16">
</g>
<g id="Слой_17">
</g>
<g id="Слой_18">
</g>
<g id="Слой_19">
</g>
<g id="Слой_20">
</g>
<g id="Слой_21">
</g>
<g id="Слой_22">
</g>
<g id="Слой_23">
	<path fill="#73350E" d="M279.25,551.5c-12.523,20.165,11.663,23.438,11.363,0.27c-3.551,0.242-8.852-0.361-12.363,0.73"/>
	<path fill="#73350E" d="M374.25,571.75c-2.542,11.452-17.972,37.9,7.388,36.069c16.4-1.184,12.403-13.255,5.856-23.451
		c-3.416-5.319-8.737-9.852-13.994-13.117"/>
</g>
<g id="Слой_24">
	<path fill="#904616" d="M258.75,553c-4.19,10.77-10.034,21.046-13.675,31.712c15.868-2.299,35.132-16.178,38.851-32.53
		c-8.475-2.914-17.884-0.925-25.925,2.318"/>
	<path fill="#904616" d="M375,571.5c10.02,11.755,4.477,36.719-12.05,27c-13.09-7.698-10.864-36.301,6.319-31.135
		c0.849,0.255,7.503,4.919,8.481,5.885"/>
</g>
<g id="Слой_25">
	<path fill="#AB551E" d="M263.25,553.25c-4.407-0.115-8.886,0.511-13.017,2c-5.948,2.143-15.225,9.198-17.296,16.73
		c0.017,0.339,0.04,0.675,0.069,1.008c2.51,2.669,4.465,5.81,5.267,9.42c0.011,0.048-0.002,0.086,0.002,0.131
		c1.524,1.464,3.237,2.581,5.012,3.113c10.463-1.228,18.204-26.29,21.963-33.152L263.25,553.25z"/>
	<path fill="#AB551E" d="M365.75,566.75c-1.74,9.593-9.186,15.785-9.588,25.707c-3.236,0.278-4.67-0.113-7.375-0.988
		c-0.558-7.97,0.654-15.892,1.697-23.673c3.967-0.401,10.071-1.693,14.016-0.796"/>
</g>
<g id="Слой_26">
	<path fill="#002C34" d="M356.5,408c4.378,42.658-3.056,95.694,9.061,136.002c2.903-32.03,8.018-65.134,11.877-97.479
		c1.586-13.297,8.607-57.172-5.706-58.308c-2.221,8.392-9.465,14.439-15.483,20.035"/>
</g>
<g id="Слой_27">
	<path fill="#003E48" d="M364.75,401c-3.328,55.656,2.695,112.47-2.256,167.694c-17.91,5.728-15.82-53.383-18.994-67.931
		c-4.55-20.856-32.605-60.548-22.005-77.684c5.951-9.62,30.991-14.76,43.005-22.329"/>
</g>
<g id="Слой_28">
	<path fill="#002C34" d="M327.75,457.5c-1.244,16.067-6.819,30.023-13.914,44.824c-6.701,13.979-24.411,32.069-24.565,47.139
		c12.257,1.969,45.499-64.319,44.23-78.255c-0.371-4.071-2.719-9.115-5.5-12.208"/>
</g>
<g id="Слой_29">
	<path fill="#003E48" d="M323.75,444.75c0.79,19.609-8.773,43.084-16.5,60.941c-2.262,5.228-25.783,42.029-23.829,46.245
		c-0.116,0.163-0.162,0.341-0.138,0.532c2.75,0.015,5.49-0.22,8.128-0.754c13.824-33.875,48.967-70.845,32.339-106.464"/>
	<path fill="#006575" d="M323.5,420.75c5.637,8.804,5.419,21.071,2.731,30.911c0.056-0.129,0.166-0.166,0.331-0.112
		c-13.477-8.948-7.951-19.628-5.11-32.561c-0.035-0.325,1.517,1.832,2.798,2.763"/>
</g>
<g id="Слой_30">
	<path fill="#006575" d="M322.128,419.982c-6.768-1.476-7.117-5.241-11.128-9.982l1,1.5c-0.792,0.74-1.482,1.631-2.09,2.638
		c-0.229,2.898-1.118,5.7-1.195,8.612c-0.011,0.428-0.129,0.784-0.307,1.084c-0.136,7.144-0.091,14.289-0.693,21.416
		c-0.049,0.577-0.279,1.029-0.602,1.37c-0.124,0.85-0.68,1.62-1.667,1.8c-0.043,3.908-0.13,7.545-0.445,10.569
		c-3.367,32.282-15.807,62.731-25.708,93.219c0.265-0.021,0.544,1.022,0.524,1.198c0.011-0.006,2.007,0.074,2.025,0.105
		c19.362-22.318,36.293-60.745,42.379-89.686C327.405,448.684,319.159,435.629,322.128,419.982z"/>
</g>
<g id="Слой_31">
	<path fill="#007583" d="M351.5,283.5c16.882,11.023,20.251,42.443,22.3,60.994c2.779,25.162,7.441,47.39-17.169,61.675
		c7.459-25.097,12.41-60.093,4.475-85.958c-2.72-8.866-6.958-12.159-13.109-18.286c-2.723-2.713-5.404-2.994-6.227-6.938
		c7.41-0.486,9.043-5.537,9.99-11.795c1.115,0.13,1.423,0.899,2.492,1.308"/>
</g>
<g id="Слой_32">
	<path fill="#00AFC0" d="M297.25,324.25c11.335,7.376,29.658,9.559,38.518,20.22c7.584,9.126,4.733,28.301,4.482,39.691
		c-0.217,9.872-0.559,27.171-9.814,34.026c-10.45,7.741-19.599-5.559-22.388-15.444c-3.177-11.26-0.632-24.892-1.061-36.244
		c-0.503-13.342-1.619-22.516-6.363-34.72c-0.981-2.524-2.318-4.588-2.875-7.28"/>
</g>
<g id="Слой_33">
	<path fill="#008FA0" d="M316,334c8.481,8.861,16.232,7.744,17,21.719c1.172,21.321,0.876,46.403-9.225,65.492
		c9.964,0.299,26.84-7.17,34.268-13.954c10.589-9.671,13.211-31.957,13.457-45.951c0.294-16.667-2.492-45.039-14.439-57.306
		c-2.846-2.922-11.951-9.937-16.506-8.768c-5.182,1.33-14.586,15.262-19.927,18.816c-4.642,3.089-12.416,5.863-12.629,12.193
		c-0.325,9.693,16.301,11.161,21.75,18.008"/>
</g>
<g id="Слой_34">
	<path fill="#008FA0" d="M297.25,289.75c12.669,0.584,26.452,0.461,38.688,3.487c16.574,4.099,12.874,19.378,2.257,30.782
		c-12.135,13.033-19.666,11.057-33.798,5.365c-12.224-4.924-23.18-10.904-35.286-16.189c-4.732-2.066-12.055-2.734-13.903-7.464
		c12.025-8.345,30.999-9.599,44.541-15.73"/>
</g>
<g id="Слой_35">
	<path fill="#00AFC0" d="M224.25,283.5c25.692,0.412,52.543,0.236,76.725-3.906c1.479,3.74,4.146,6.661,4.648,10.911
		c-15.242,4.038-28.443,10.83-42.423,16.487c-7.722,3.125-19.58,0.286-28.407-4.786c-1.213-4.489-3.203-9.75,0.255-13.712
		c-3.645-1.336-7.307-2.472-10.299-4.994"/>
</g>
<g id="Слой_9">
	<path fill="#FFE2E2" d="M307.75,257.75c1.373,14.489,7.539,22.186,16.229,32.456c-11.777,2.277-17.292,0.013-22.173-9.964
		c-3.161-6.46-7.431-23.57,2.907-25.298c0.832,1.47,2.697,3.044,3.287,4.555"/>
</g>
<g id="Слой_10">
	<path fill="#FFCCCC" d="M306,258.5c0.368,7.266,2.29,18.027,5.687,24.464c5.193,9.84,14.268,9.794,25.524,9.704
		c-0.35-11.033-0.683-22.239-0.961-33.465c-0.153-6.191,1.455-17.224-1.999-22.466c-11.794-17.901-34.74,9.107-30.95,24.198
		c1.018,0.074,2.137,0.086,3.199,0.065"/>
</g>
<g id="Слой_11">
	<path fill="#F0B4B4" d="M329,234.5c4.46,20.458,3.59,37.8,2.457,57.968c7.876,3.057,13.821,5.273,18.037-2.968
		c2.346-4.587,1.848-12.164,1.239-17.169c5.136-0.493,3.353-3.276,1.521-6.766c-0.796-1.517-4.887,0.704-6.072-1.009
		c-1.492-2.158-0.694-4.606-1.437-7.202c-1.926-6.729-2.932-30.303-16.244-21.854"/>
</g>
<g id="Слой_12">
	<path fill="#F0B4B4" d="M213,285.75c-2.303,7.277,1.16,15.549,4.537,21.712c5.08-2.628,10.434-5.817,16.437-6.239
		c-1.207-4.089-1.101-8.488-0.512-12.679c-6.275-3.197-13.981-2.931-20.712-2.294"/>
</g>
<g id="Слой_13">
	<path fill="#FFCCCC" d="M193.75,283.25c-5.576,16.851,8.677,44.328,26.036,22.768c-3.325-6.126-3.187-13.481-1.685-20.135
		c-7.72-0.786-16.511-2.926-24.101-1.633"/>
</g>
<g id="Слой_14">
	<path fill="#FFE2E2" d="M197.5,283.5c-4.879,11.831-1.562,20.787,6.191,29.418c-11.513,5.969-8.717-4.709-14.658-8.224
		c0.638-1.032,1.123-2.612,1.711-3.493c-3.353-2.368-3.65-3.659-3.782-7.4c-4.886-0.549-10.057-4.226-6.198-8.349
		c2.481-2.65,12.946-1.312,16.236-0.951"/>
</g>
<g id="Слой_4">
	<path fill="#D76B38" d="M340,231.25c-2.049,1.405-3.893,3.918-4.979,6.199c11.44,3.473,1.232,25.937,13.449,27.427
		c2.055-5.726,15.089-13.382,11.557-20.858c-3.822-8.09-17.397-1.624-20.027-12.018"/>
</g>
<g id="Слой_6">
	<path fill="#FF8345" d="M346.25,239c-7.186-1.766-18.911-7.14-26.123-5.819c-8.321,1.523-12.17,15.385-20.351,11.783
		c1.54-11.378-1.12-18.501,9.462-25.033c8.792-5.427,24.77-8.989,30.004,2.864c2.836,6.422-2.7,12.16,5.508,16.205"/>
</g>
<g id="Слой_8">
	<path fill="#FF9D53" d="M300.25,245.75c2.978-2.657,6.591-4.608,9.969-6.625c-2.483,10.924,1.983,24.583-12.548,28.124
		c-10.737,2.616-24.367-8.806-19.19-19.931c0.639-1.374,3.136-3.725,4.331-4.662c3.774,9.335,14.077,13.251,17.437,1.594"/>
</g>
<g id="Слой_5">
	<path fill="#878787" stroke="#FFFFFF" stroke-miterlimit="10" d="M213.691,281.499c-0.75-0.598-1.567-1.334-1.818-2.309
		c-0.689-2.678-0.332-5.461-0.758-8.174c-0.756-1.303-0.172-3.397,1.801-3.397c0.037,0,0.068,0.009,0.104,0.01
		c0.021-0.002,0.041-0.008,0.062-0.01c1.699-0.151,2.824-1.23,3.934-2.435c0.206-0.223,0.426-0.376,0.651-0.489
		c-0.285-0.757-0.615-1.504-0.997-2.244c-0.132-0.255-0.199-0.505-0.235-0.75c-0.766-0.068-1.557-0.005-2.181,0.101
		c-0.036,0.006-0.069,0.003-0.105,0.007c-0.357,0.393-0.877,0.655-1.567,0.655c-0.087,0-0.162-0.016-0.243-0.024
		c-0.014,0.044-0.023,0.09-0.04,0.133c-0.004,0.011-0.01,0.022-0.015,0.033c-0.044,0.108-0.094,0.212-0.155,0.311
		c-0.014,0.023-0.032,0.044-0.047,0.067c-0.056,0.085-0.115,0.167-0.183,0.243c-0.03,0.033-0.066,0.061-0.098,0.093
		c-0.062,0.06-0.123,0.12-0.194,0.172c-0.052,0.038-0.112,0.067-0.169,0.1c-0.063,0.036-0.121,0.077-0.19,0.107
		c-0.081,0.036-0.172,0.058-0.26,0.084c-0.056,0.016-0.106,0.039-0.165,0.051c-0.153,0.031-0.316,0.049-0.491,0.049
		c-0.2,0-0.382-0.026-0.554-0.066c-0.055-0.013-0.104-0.034-0.156-0.051c-0.112-0.036-0.219-0.076-0.318-0.127
		c-0.051-0.027-0.099-0.057-0.147-0.087c-0.091-0.058-0.174-0.121-0.252-0.192c-0.037-0.034-0.074-0.066-0.108-0.102
		c-0.086-0.09-0.161-0.188-0.228-0.291c-0.015-0.023-0.032-0.043-0.046-0.066c-0.249-0.417-0.353-0.916-0.319-1.407
		c0-0.006,0.001-0.012,0.001-0.018c0.012-0.164,0.039-0.325,0.083-0.482c0-0.005-0.001-0.01,0-0.015
		c-13.351-0.182-26.714-0.57-40.04-0.681c-0.355,0-0.661-0.073-0.927-0.195c-0.022-0.01-0.041-0.024-0.062-0.034
		c-0.103-0.052-0.202-0.109-0.292-0.176c-0.036-0.026-0.066-0.057-0.099-0.086c-0.051-0.044-0.107-0.083-0.153-0.132
		c-3.232,0.058-6.468,0.175-9.722,0.406c-4.433,0.315-12.371,1.781-16.339-1.152c-0.146-0.084-0.274-0.186-0.389-0.3
		c-0.027-0.023-0.058-0.041-0.084-0.065c-0.015-0.014-0.024-0.029-0.038-0.042c0,0,0,0,0,0c-0.848-0.806-0.798-1.805-0.3-2.562
		c0.004-0.008,0.005-0.017,0.008-0.025c-0.562-0.047-1.126-0.089-1.687-0.138c-1.5-0.13-2.946-0.304-4.111-0.792
		c-0.778,1.15-1.065,2.657-1.727,3.862c-0.188,0.341-0.423,0.588-0.682,0.764c-0.323,0.247-0.741,0.4-1.253,0.412
		c-1.594,1.108-1.897,2.867-2.385,4.731c-0.305,1.166-0.562,2.318-0.731,3.483c0.006,0.024,0.019,0.046,0.024,0.07
		c0.06,0.277,0.123,0.554,0.217,0.822c0.027,0.081,0.058,0.161,0.089,0.242c0.014,0.028,0.034,0.07,0.066,0.141
		c0.157,0.31,0.341,0.604,0.518,0.903c1.448-0.037,2.896-0.044,4.344,0.088c0.334-0.25,0.766-0.404,1.298-0.404
		c0.047,0,0.087,0.011,0.132,0.013c0.595-0.686,2.014-0.464,2.004,0.702c-0.003,0.36-0.016,0.72-0.029,1.08
		c0.056,0.336,0.036,0.682-0.043,1.012c-0.01,0.198-0.019,0.395-0.029,0.593c3.292-0.041,6.575-0.139,9.833,0.344
		c0.027-0.013,0.051-0.03,0.08-0.041c9.517-3.783,27.691-0.907,32.247,9.652c1.002-0.613,2.396-0.149,2.967,0.826
		c0.637,1.088,0.208,2.362-0.794,3.03c-0.295,0.197-0.599,0.379-0.899,0.568c0.108,0.169,0.192,0.345,0.249,0.527
		c4.587-1.802,8.534-5.704,13.8-6.091c7.211-0.53,15.142,1.967,23.043,2.306C215.641,283.469,214.789,282.373,213.691,281.499z"/>
	<path fill="#878787" stroke="#8B8B8C" stroke-miterlimit="10" d="M225.378,304.5c-0.001-0.055,0.011-0.101,0.012-0.154
		c-0.421-0.237-0.864-0.461-1.348-0.66c0.097,0.43-0.017,0.913-0.469,1.233c-4.005,2.837-8.85,4.782-13.777,6.188
		c-1.791,0.862-3.549,1.77-5.432,2.426c-0.127,0.044-0.244,0.061-0.357,0.063c-0.067,0.011-0.121,0.04-0.195,0.04
		c-0.269,0-0.472-0.093-0.642-0.219c-0.745,0.505-1.476,1.018-2.166,1.552c1.131-0.06,2.27-0.047,3.371-0.044
		c0.012,0,0.019,0.006,0.031,0.006c0.012,0,0.02-0.006,0.031-0.006c1.031,0,1.321,1.114,0.902,1.782
		c-0.04,0.409-0.281,0.796-0.787,0.951c-0.256,0.078-0.531,0.138-0.812,0.193c-0.071,0.369-0.306,0.709-0.75,0.87
		c-2.683,0.968-3.326,3.429-3.139,6.155c0.147,0.093,0.279,0.228,0.381,0.425c2.657,5.173,7.346,5.219,11.945,2.53
		c0.218-0.128,0.431-0.17,0.63-0.158c0.506-0.938,0.956-1.906,1.347-2.913c0.009-0.023,0.022-0.042,0.033-0.064
		c-0.01-0.223,0.044-0.454,0.205-0.669c0.061-0.141,0.139-0.273,0.254-0.379c0.195-0.871,0.319-1.796,0.009-2.533
		c-0.533-1.267-1.698-1.765-2.79-2.321c-1.307-0.665-0.156-2.626,1.147-1.963c0.009,0.005,0.019,0.01,0.028,0.015
		c0.138-0.063,0.288-0.108,0.461-0.107c1.77,0.009,3.538,0.106,5.308,0.121c0.284-0.318,0.652-0.569,1.117-0.699
		c0.063-0.026,0.121-0.059,0.186-0.081c0.884-0.296,1.805-0.436,2.7-0.694c0.514-0.148,0.714-0.209,0.938-0.35
		c0.058-0.037,0.101-0.064,0.137-0.087c0.198-0.201,0.229-0.235,0.084-0.093c0.16-0.244,0.357-0.451,0.57-0.632
		c0.473-0.882,0.821-1.804,0.945-2.785c0.018-0.146,0.049-0.288,0.082-0.428C225.529,308.761,225.422,306.546,225.378,304.5z
		 M209.451,326.579c-0.415,0.253-0.888,0.331-1.345,0.275c-0.091,0.01-0.176,0.027-0.273,0.027c-0.028,0-0.052-0.008-0.079-0.009
		c-0.03,0.001-0.056,0.009-0.087,0.009c-0.059,0-0.11-0.012-0.167-0.017c-0.057,0.004-0.107,0.017-0.167,0.017
		c-0.097,0-0.183-0.017-0.274-0.027c-0.074,0.011-0.144,0.027-0.226,0.027c-0.344,0-0.625-0.087-0.88-0.204
		c-0.207-0.032-0.4-0.082-0.571-0.161c-0.638-0.075-1.116-0.377-1.424-0.805c-0.513-0.407-0.856-1.022-0.84-1.711
		c0.042-1.799,1.009-3.254,2.597-4.079c0.26-0.135,0.534-0.219,0.81-0.257c0.277-0.133,0.599-0.212,0.974-0.212
		c0.482,0,0.872,0.135,1.191,0.345c1.081,0.591,2.226,1.659,2.487,2.907C211.517,324.325,210.865,325.719,209.451,326.579z"/>
	<path fill="#505254" stroke="#FFFFFF" stroke-miterlimit="10" d="M181.167,264.167c4.453,0,15.794-1.776,18.208,1.634
		c0.781,1.104,0.665,9.388,0.088,10.375c-2.691,4.601-17.527,3.261-20.092-1.972c-1.599-3.262-1.22-8.649,2.296-10.037"/>
	<path fill="#505254" stroke="#FFFFFF" stroke-miterlimit="10" d="M133.5,260.333c-6.467-0.396-7.007,4.786-5.512,10.438
		c1.801,0.283,4.039-0.077,5.564-0.875c-1.452-3.637-0.195-6.938,0.781-9.563"/>
	<path fill="#505254" stroke="#FFFFFF" stroke-miterlimit="10" d="M135.667,270.833c-0.022,0.619,0.478,1.889,0.359,2.808
		c2.925,0.332,5.953,0.402,8.775,0.663c0.499-1.031,0.763-2.807,0.507-4.112c-3.173-0.043-7.37-0.62-9.641,0.808"/>
	<path fill="#505254" stroke="#FFFFFF" stroke-miterlimit="10" d="M163.167,267.833c-0.222,0-0.444,0-0.667,0"/>
	<path fill="#505254" stroke="#FFFFFF" stroke-miterlimit="10" d="M165.5,267.833c2.352-0.734,4.283-0.533,4.808,1.808
		c-3.074,0.069-7.03,1.058-7.975-1.641"/>
	<path fill="#505254" stroke="#FFFFFF" stroke-miterlimit="10" d="M221.667,307c2.526,5.195-4.811,7.633-8.304,4.841
		c-0.013,0.012-0.045-0.504-0.054-0.516c2.694-1.112,5.356-2.38,8.025-3.659"/>
	<path fill="#505254" stroke="#FFFFFF" stroke-miterlimit="10" d="M212.208,319.964c-1.725-1.844-4.882-2.298-7.208-2.63v-0.167
		c-7.046,0.685-6.624,11.605-0.68,13.505C210.646,332.693,216.589,324.647,212.208,319.964z M209.451,326.579
		c-0.415,0.253-0.888,0.331-1.345,0.275c-0.091,0.01-0.176,0.027-0.273,0.027c-0.028,0-0.052-0.008-0.079-0.009
		c-0.03,0.001-0.056,0.009-0.087,0.009c-0.059,0-0.11-0.012-0.167-0.017c-0.057,0.004-0.107,0.017-0.167,0.017
		c-0.097,0-0.183-0.017-0.274-0.027c-0.074,0.011-0.144,0.027-0.226,0.027c-0.344,0-0.625-0.087-0.88-0.204
		c-0.207-0.032-0.4-0.082-0.571-0.161c-0.638-0.075-1.116-0.377-1.424-0.805c-0.513-0.407-0.856-1.022-0.84-1.711
		c0.042-1.799,1.009-3.254,2.597-4.079c0.26-0.135,0.534-0.219,0.81-0.257c0.277-0.133,0.599-0.212,0.974-0.212
		c0.482,0,0.872,0.135,1.191,0.345c1.081,0.591,2.226,1.659,2.487,2.907C211.517,324.325,210.865,325.719,209.451,326.579z"/>
	<path fill="#505254" stroke="#FFFFFF" stroke-miterlimit="10" d="M208,262.333c-5.074,3.601-6.196,19.638,3.623,17.641
		c0.539-4.203-0.901-7.602-0.943-11.616c2.48-0.279,6.729-1.652,6.153-4.855c-0.697-3.875-5.299,0.071-7.633,0.472
		c-0.241-0.921-0.918-1.12-1.367-1.808"/>
</g>
<g id="Слой_7">
	<path fill="#FFFFFF" d="M186.375,292.875c-3.224,0-3.224,5,0,5S189.599,292.875,186.375,292.875z"/>
	<path fill="#FFFFFF" d="M218.375,281.5c-1.038,0.12-2.081,0.125-3.125,0.125c-0.045,0-0.076,0.019-0.118,0.024
		c-0.851-0.991-1.731-1.96-2.55-2.981c-0.046-0.057-0.115-0.086-0.175-0.126c0.034-0.128,0.069-0.254,0.096-0.393
		c0.608-3.11-0.492-6.224-0.723-9.314c1.533-1.15,3.875-0.574,5.376-1.886c1.354-1.183,1.546-3.737,0.372-5.126
		c-1.878-2.222-5.46-0.631-7.548,1.272c-0.067-0.386-0.096-0.784-0.106-1.22c-0.003-0.144-0.038-0.267-0.085-0.379
		c0.067-0.337-0.104-0.641-0.383-0.833c-0.157-0.237-0.409-0.412-0.782-0.412c-0.072,0-0.124,0.027-0.188,0.038
		c-0.063-0.012-0.116-0.038-0.187-0.038c-12.841-0.017-25.675-0.35-38.507-0.826c-5.341-0.198-10.774-0.773-16.115-0.506
		c-2.027,0.101-4.048,0.284-6.077,0.372c-0.823,0.031-1.645,0.034-2.468,0.01c-0.382-0.022-0.764-0.044-1.146-0.066
		c-1.865,0.212-2.718-0.745-2.558-2.871c0.795-0.388,0.558-1.307-0.035-1.673c-0.003-0.004-0.005-0.009-0.008-0.013
		c-0.056-0.064-0.131-0.11-0.207-0.156c-0.031-0.019-0.054-0.047-0.089-0.062c-0.119-0.052-0.256-0.084-0.414-0.084
		c-0.059,0-0.101,0.023-0.155,0.031c-0.034-0.007-0.059-0.027-0.095-0.031c-1.996-0.249-3.992-0.49-6-0.625
		c-0.029-0.002-0.048,0.01-0.075,0.01c-0.018-0.001-0.031-0.01-0.05-0.01c-0.198,0-0.355,0.058-0.492,0.137
		c-0.162,0.041-0.322,0.117-0.465,0.281c-1.189,1.352-2.071,2.886-2.534,4.622c-0.017,0.001-0.035-0.003-0.052,0
		c-0.346-0.192-0.789-0.211-1.164,0.128c-3.357,3.03-4.181,8.084-2.156,12.087c0.092,0.182,0.217,0.293,0.353,0.375
		c0.158,0.143,0.361,0.245,0.635,0.245c0.124,0,0.236-0.019,0.336-0.053c0.023,0.008,0.055,0.003,0.08,0.01
		c0.07,0.014,0.13,0.042,0.209,0.042c0.018,0,0.03-0.009,0.048-0.01c0.028,0,0.048,0.012,0.077,0.01
		c1.708-0.131,3.416-0.253,5.125-0.375c0.25-0.018,0.444-0.115,0.596-0.248c0.125,0.001,0.25,0,0.375,0.001
		c-0.116,0.871-0.214,1.742-0.221,2.622c-0.001,0.073,0.023,0.129,0.037,0.193c-0.001,0.062,0.015,0.121,0.023,0.182
		c0.021,0.182,0.073,0.359,0.181,0.506c0.01,0.013,0.014,0.03,0.024,0.043c0.062,0.074,0.145,0.129,0.231,0.181
		c0.027,0.017,0.045,0.042,0.075,0.056c0.122,0.056,0.264,0.09,0.428,0.09c2.835,0.111,5.677,0.135,8.484,0.589
		c0.142,0.023,0.272,0.011,0.395-0.014c0.08,0.02,0.152,0.05,0.246,0.05c0.557,0,0.858-0.376,0.934-0.799
		c0.041-0.098,0.06-0.211,0.063-0.336c8.775-0.774,20.935-1.554,27.498,5.424c0.004,0.009,0.011,0.017,0.015,0.026
		c-0.01,0.131-0.003,0.255,0.032,0.365c0.006,0.12,0.029,0.237,0.072,0.348c0.003,0.008,0.01,0.015,0.013,0.023
		c0.042,0.1,0.093,0.194,0.166,0.274c0.033,0.037,0.082,0.06,0.122,0.091c0.055,0.043,0.103,0.093,0.171,0.123
		c0.119,0.053,0.256,0.084,0.414,0.084H176v1.75c0,0.07,0.023,0.124,0.037,0.185c0,0.036,0.011,0.07,0.014,0.105
		c0.016,0.486,0.321,0.96,0.948,0.96c1.999,0.116,4.001,0.134,6,0.25c0.056,0.003,0.095-0.017,0.146-0.021
		c0.037,0.004,0.065,0.021,0.104,0.021H185c0.048,0,0.081-0.02,0.125-0.025c0.044,0.005,0.077,0.025,0.125,0.025c1.29,0,1.29-2,0-2
		c-0.048,0-0.081,0.02-0.125,0.025c-0.044-0.005-0.077-0.025-0.125-0.025h-1.75c-0.054,0-0.092,0.022-0.141,0.029
		c-0.039-0.006-0.068-0.026-0.109-0.029c-1.666-0.096-3.334-0.134-5-0.208v-2.042c0-0.561-0.382-0.863-0.81-0.936
		c-0.098-0.031-0.195-0.064-0.315-0.064c-0.024,0-0.04,0.011-0.062,0.013c-0.023-0.001-0.039-0.013-0.062-0.013h-0.859
		c0.96-3.357,1.361-6.776,0.823-10.266c-0.166-1.079-1.567-0.845-1.873,0.018c-1.079,0.001-2.158,0.01-3.237,0.014
		c-0.021-0.554-0.062-1.098-0.141-1.657c-0.065-0.461-0.562-0.696-0.964-0.734c-2.771-0.263-5.945-0.776-8.641,0.161
		c-0.54,0.188-0.721,0.674-0.663,1.12c-0.037,0.104-0.071,0.213-0.071,0.344c-0.001,0.269-0.013,0.475-0.089,0.734
		c-0.009,0.03-0.001,0.054-0.007,0.082c-8.863,0.058-17.725,0.124-26.589,0.06c-0.276-0.312-0.481-0.648-0.635-0.998
		c2.274,0.013,4.546,0.113,6.82,0.122c0.024,0,0.04-0.011,0.063-0.013c0.023,0.001,0.038,0.013,0.062,0.013c1.29,0,1.29-2,0-2
		c-0.024,0-0.04,0.011-0.063,0.013c-0.023-0.001-0.038-0.013-0.062-0.013c-2.334-0.009-4.666-0.116-7-0.125
		c-0.06,0-0.104,0.023-0.159,0.032c0.087-1.785,1.05-3.668,2.022-5.027c0.25-0.349,0.222-0.691,0.05-0.955
		c-0.111-0.37-0.412-0.674-0.914-0.674c-0.036,0-0.06,0.016-0.094,0.019c-0.054-0.004-0.096-0.024-0.156-0.019
		c-0.575,0.046-1.132,0.011-1.678-0.092c0.36-1.309,0.991-2.473,1.866-3.516c1.323,0.093,2.64,0.235,3.956,0.389
		c-0.879,1.422-0.016,3.083,2.116,4.333c3.689,2.164,10.002,0.579,14.001,0.379c8.143-0.406,16.575,0.629,24.729,0.889
		c9.192,0.293,18.388,0.46,27.585,0.486c-3.064,4.884-4.289,11.657-2.288,17.023c0.034,0.092,0.09,0.158,0.142,0.229
		c0.014,0.13,0.05,0.251,0.108,0.366c0.061,0.201,0.199,0.382,0.46,0.503c1.001,0.463,2.06,0.796,3.054,0.887
		c0.228,0.198,0.487,0.364,0.81,0.464c0.233,0.072,0.43,0.042,0.605-0.025c0.208-0.007,0.421-0.076,0.618-0.233
		c0.403-0.321,0.844-0.493,1.265-0.718c1.197,1.409,2.489,2.739,3.54,4.266c0.065,0.095,0.14,0.167,0.219,0.23
		c0.159,0.226,0.408,0.39,0.769,0.39c1.004,0,1.216-1.203,0.656-1.74c-0.067-0.095-0.142-0.183-0.21-0.277
		c0.561-0.015,1.121-0.044,1.679-0.109c0.541-0.062,1-0.408,1-1C219.375,282.002,218.918,281.437,218.375,281.5z M163.102,268.394
		c2.057-0.496,4.378-0.217,6.494,0.012c0.012,0.164,0.017,0.329,0.021,0.494c-2.187,0.009-4.374,0.015-6.56,0.029
		C163.085,268.752,163.091,268.573,163.102,268.394z M146.464,271.016c0-0.001,0-0.002,0-0.004
		c9.492-0.025,18.984-0.123,28.477-0.135c0.147,2.267-0.152,4.516-0.705,6.718c-7.082-6.575-19.124-6.02-28.067-5.234
		C146.231,271.911,146.323,271.463,146.464,271.016z M142.75,273.25v-2.24c0.549,0,1.098,0.002,1.647,0.001
		c-0.201,0.786-0.31,1.592-0.308,2.402c-0.447-0.06-0.896-0.097-1.344-0.142C142.746,273.263,142.75,273.258,142.75,273.25z
		 M139.375,273c0-0.619-0.005-1.246,0.089-1.859c0.007-0.045-0.001-0.088,0.002-0.132c0.428,0.001,0.856,0,1.284,0.001v2.093
		c-0.459-0.03-0.918-0.065-1.378-0.087C139.372,273.009,139.375,273.006,139.375,273z M137.214,271.016c0-0.003,0-0.006,0-0.009
		c0.093,0,0.186,0,0.279,0c-0.077,0.638-0.114,1.275-0.117,1.92c-0.114-0.004-0.228-0.009-0.342-0.014
		C137.069,272.279,137.125,271.646,137.214,271.016z M128.313,266.507c-0.008-0.756,0.093-1.509,0.287-2.237
		c0.108,0.097,0.233,0.172,0.383,0.195c0.747,0.115,1.504,0.135,2.25,0.25c0.068,0.01,0.133-0.003,0.2-0.003
		c0.064,0.012,0.118,0.039,0.191,0.039c0.017,0,0.027-0.008,0.043-0.009c-0.142,0.759-0.196,1.522-0.122,2.267
		C130.506,266.654,129.409,266.527,128.313,266.507z M129.125,269.625c-0.02,0.002-0.035,0.009-0.052,0.015
		c-0.026-0.002-0.045-0.015-0.073-0.015c-0.013,0-0.021,0.006-0.033,0.007c-0.161-0.364-0.29-0.738-0.393-1.115
		c0.866,0.035,1.705,0.154,2.535,0.448c0.377,0.134,0.676,0.027,0.889-0.178c0.087,0.204,0.165,0.411,0.279,0.608
		C131.226,269.47,130.175,269.545,129.125,269.625z M132.926,261.325c-0.285,0.515-0.531,1.058-0.742,1.613l0,0
		c-0.066-0.048-0.136-0.09-0.219-0.119c-0.1-0.041-0.21-0.069-0.34-0.069c-0.024,0-0.04,0.012-0.064,0.013
		c-0.681-0.09-1.367-0.123-2.045-0.227c-0.078-0.012-0.154-0.004-0.232-0.003c0.351-0.661,0.79-1.28,1.324-1.828
		C131.367,261.012,132.135,261.224,132.926,261.325z M209.691,268.704c0.007,0.042,0.009,0.084,0.02,0.124
		c0.013,0.044,0.035,0.081,0.054,0.123c0.009,0.022,0.024,0.04,0.034,0.061c0.177,2.165,0.696,4.295,0.832,6.468
		c0.067,1.067,0.091,2.275-0.396,3.255c-0.165,0.332-0.422,0.511-0.72,0.605c-0.054-0.118-0.117-0.221-0.2-0.299
		c-0.55-1.457-0.621-2.917-0.101-4.4c0.428-1.22-1.505-1.74-1.929-0.532c-0.556,1.585-0.569,3.289-0.095,4.885
		c-0.218-0.089-0.426-0.179-0.602-0.26c-1.722-4.621-0.826-10.253,1.59-14.63c0.134,0.477,0.31,0.945,0.582,1.401
		c0.393,0.66,1.328,0.633,1.727,0c0.672-1.065,4.957-4.247,5.697-2c0.613,1.86-0.92,2.288-2.339,2.544
		c-1.418,0.256-2.756,0.566-3.804,1.619c-0.023,0.023-0.028,0.05-0.048,0.073l0,0c-0.073,0.065-0.132,0.138-0.181,0.222
		c-0.002,0.003-0.004,0.006-0.005,0.01C209.685,268.194,209.645,268.452,209.691,268.704z"/>
	<path fill="#FFFFFF" d="M200.625,264.75c-0.019-0.338-0.176-0.582-0.391-0.742c-0.216-0.308-0.567-0.502-0.962-0.378
		c-0.159-0.148-0.367-0.254-0.648-0.254c-0.053,0-0.091,0.022-0.139,0.028c-0.039-0.006-0.069-0.026-0.111-0.028
		c-2.332-0.119-4.666-0.125-7-0.125c-0.095,0-0.169,0.031-0.25,0.051c-0.081-0.02-0.155-0.051-0.25-0.051h-9.5
		c-0.077,0-0.134,0.028-0.202,0.041c-0.289-0.07-0.605-0.023-0.88,0.252c-3.98,3.971-2.69,9.922-0.156,14.337
		c0.07,0.122,0.157,0.209,0.249,0.283c0.015,0.019,0.04,0.028,0.057,0.045c0.079,0.42,0.38,0.791,0.933,0.792
		c5.547,0.01,11.088,0.142,16.625,0.5c0.057,0.004,0.097-0.017,0.148-0.021c0.036,0.003,0.063,0.021,0.102,0.021
		c0.173,0,0.318-0.04,0.445-0.102c0.057,0.001,0.112-0.015,0.167-0.026c0.005,0,0.008,0.003,0.013,0.003
		c0.105,0,0.198-0.017,0.284-0.044c0.072,0.015,0.134,0.044,0.216,0.044c0.539,0,0.839-0.352,0.928-0.759
		c0.01-0.036,0.03-0.06,0.037-0.1C201.135,273.932,200.889,269.371,200.625,264.75z M196.047,267.629
		c-3.518,0.228-7.03,0.227-10.547-0.004c-1.288-0.085-1.28,1.916,0,2c3.337,0.219,6.669,0.224,10.005,0.031
		c-0.164,1.025-0.181,2.086-0.07,3.134c-0.027,0.002-0.048-0.008-0.076-0.004c-3.14,0.456-6.321,0.347-9.484,0.339
		c-1.29-0.003-1.29,1.997,0,2c3.32,0.008,6.622,0.068,9.917-0.4c0.257,0.957,0.624,1.876,1.097,2.714
		c-4.97-0.294-9.944-0.417-14.922-0.434c-0.04-0.078-0.088-0.152-0.148-0.216c-1.979-3.486-3.31-8.258-0.372-11.539h9.428
		c0.095,0,0.169-0.031,0.25-0.051c0.081,0.02,0.155,0.051,0.25,0.051c1.983,0,3.965,0.018,5.947,0.093
		C196.779,266.03,196.361,266.805,196.047,267.629z M198.631,276.464c-1.623-2.838-1.853-7.126,0.105-9.74
		C198.914,269.98,199.024,273.225,198.631,276.464z"/>
	<path fill="#FFFFFF" d="M202.75,280.5c-1.29,0-1.29,2,0,2S204.04,280.5,202.75,280.5z"/>
	<path fill="#FFFFFF" d="M225.214,303.484c-0.365-1.234-2.295-0.708-1.929,0.532c0.894,3.021,0.946,6.14,0.527,9.244
		c-4.585,4.618-16.024,2.122-21.547,0.776c-1.253-0.305-1.784,1.623-0.532,1.929c0.751,0.183,1.586,0.379,2.472,0.573
		c-6.833,1.401-7.026,11.395-0.322,14.298c7.888,3.416,16.234-8.207,8.634-13.016c4.912,0.354,9.845-0.2,12.739-3.17
		c0.227-0.099,0.409-0.291,0.458-0.633C226.218,310.477,226.236,306.936,225.214,303.484z M209.291,317.474
		c-0.001,0.004-0.004,0.006-0.006,0.01c-0.121,0.403-0.269,0.797-0.553,1.115c-0.096,0.107-0.189,0.167-0.316,0.237
		c0.009-0.005-0.178,0.003-0.094,0.018c-0.149-0.026-0.267-0.126-0.408-0.355c-0.233-0.378-0.274-0.849-0.285-1.285
		C208.174,317.307,208.729,317.394,209.291,317.474z M207.897,320.801c0.495,0.087,0.937,0.023,1.329-0.147
		c0.921,1.065,1.458,2.548,0.867,3.912c-0.716,1.651-2.698,1.626-4.155,1.154c-1.2-0.389-1.891-1.492-1.854-2.711
		c0.044-1.46,1.45-2.369,2.696-2.756C207.079,320.524,207.447,320.721,207.897,320.801z M204.013,328.69
		c-2.159-1.123-3.213-3.62-3.178-5.949c0.044-2.899,2.355-4.308,4.947-4.368c0.008,0.035,0.02,0.069,0.029,0.104
		c-1.885,0.704-3.478,2.155-3.7,4.266c-0.244,2.322,1.231,4.077,3.295,4.905c2.263,0.908,4.937,0.239,6.273-1.812
		c1.366-2.096,0.484-4.826-1.015-6.565c0.03-0.051,0.064-0.1,0.092-0.152C217.778,322.685,210.098,331.855,204.013,328.69z"/>
	<path fill="#FFFFFF" d="M222.464,306.359c-0.181-1.273-2.108-0.729-1.929,0.532c0.195,1.369,0.211,2.754,0.213,4.135
		c-2.971,0.943-6.086,0.987-9.108,0.134c-1.244-0.351-1.771,1.579-0.532,1.929c3.588,1.012,7.404,0.925,10.907-0.375
		c0.02-0.007,0.031-0.022,0.05-0.031c0.035-0.012,0.081-0.009,0.113-0.024c0.031-0.014,0.049-0.04,0.077-0.058
		c0.085-0.052,0.168-0.106,0.229-0.18c0.011-0.013,0.015-0.03,0.025-0.044c0.142-0.193,0.21-0.434,0.2-0.677
		c0.013-0.068,0.041-0.124,0.041-0.201C222.749,309.775,222.708,308.069,222.464,306.359z"/>
</g>
<g id="Слой_3">
	<path fill="#002C34" d="M333.358,268.996c-0.055,0-0.094,0.022-0.145,0.029c-0.116-0.016-0.237-0.023-0.371,0.006
		c-2.398,0.525-4.716,1.041-6.842,2.063c1.424-2.535,3.596-4.7,5.565-6.767c0.889-0.933-0.523-2.35-1.414-1.414
		c-2.897,3.042-6.101,6.284-7.257,10.441c-0.284,1.023,0.939,1.594,1.671,0.973c2.485-2.109,5.624-2.673,8.716-3.348
		c0.028,0.002,0.048,0.016,0.077,0.016C334.648,270.996,334.648,268.996,333.358,268.996z"/>
	<path fill="#002C34" d="M323.745,285.512c-1.467,0.73-2.881,0.743-4.367,0.364c0.014-3.716-0.028-7.548-2.389-10.63
		c-0.773-1.009-2.512-0.015-1.727,1.009c2.311,3.016,2.124,6.759,2.113,10.37c-0.001,0.462,0.31,0.824,0.734,0.964
		c2.293,0.759,4.47,0.731,6.646-0.351C325.91,286.664,324.896,284.939,323.745,285.512z"/>
	<path fill="#002C34" d="M304.516,268.661c-1.216-0.439-1.735,1.494-0.532,1.929c0.596,0.215,1.286,0.658,1.974,1.231
		c-0.032,0.116-0.047,0.236-0.041,0.357c-0.018,0.062-0.037,0.125-0.041,0.197c-0.224,3.413,0.299,6.777,3.043,9.082
		c0.395,0.332,1.033,0.435,1.414,0C314.027,277.243,308.77,270.197,304.516,268.661z"/>
	<path fill="#002C34" d="M313.667,347.833c-4.514,0-4.514,7,0,7C318.181,354.833,318.181,347.833,313.667,347.833z"/>
	<path fill="#002C34" d="M314.333,361.667c-3.869,0-3.869,6,0,6S318.203,361.667,314.333,361.667z"/>
	<path fill="#002C34" d="M337.625,279.75c-0.428-0.007-0.868,0.309-0.964,0.734c-0.786,3.462-2.535,6.137-5.222,8.062
		c-0.332,0.155-0.658,0.323-0.975,0.508c-0.06,0.02-0.11,0.05-0.154,0.088c-0.001,0.001-0.002,0.002-0.003,0.003
		c-0.043,0.039-0.077,0.084-0.102,0.136c-0.013,0.015-0.035,0.023-0.047,0.039c-0.009,0.013-0.015,0.027-0.023,0.041
		c-0.034,0.059-0.055,0.123-0.064,0.192l0,0c-0.001,0.008-0.003,0.015-0.004,0.024v0c-0.015,0.169,0.047,0.338,0.182,0.444
		c0.057,0.067,0.132,0.124,0.244,0.149c1.867,0.425,3.218-0.28,4.161-1.716c0.776-0.8,1.456-1.682,2.031-2.643
		c0.098,0.031,0.195,0.064,0.316,0.064c0.004,0,0.007-0.002,0.011-0.002c1.983,0.524,4.276,0.005,4.75-2.279
		C342.286,281.065,339.733,279.787,337.625,279.75z M337.62,283.962c0.289-0.676,0.533-1.384,0.737-2.119
		C340.37,282.315,339.955,284.5,337.62,283.962z"/>
	<path fill="#FFFFFF" d="M395.378,591.862c-0.418-0.982-0.752-2.012-1.119-3.019c-1.224-2.284-2.674-4.404-3.767-5.998
		c-0.506-0.739-1.064-1.531-1.661-2.346c-1.376-1.4-2.753-2.803-3.931-4.378c-5.01-4.898-10.842-9.102-16.469-12.67
		c-0.138-0.193-0.299-0.369-0.497-0.512c0.129-1.553,0.072-3.179-0.028-4.883c-0.493-8.374,1.281-16.844,2.145-25.161
		c1.819-17.514,3.032-35.085,4.943-52.59c3.474-31.835,11.986-65.19,3.916-96.969c-0.062-0.243-0.155-0.45-0.261-0.641
		c-0.003-0.117-0.006-0.233-0.009-0.349c0.069-0.278,0.057-0.561-0.022-0.832c-0.569-21.419-0.601-43.959-6.326-64.523
		c-1.45-3.742-2.979-7.483-3.871-11.388c-3.527-8.577-8.345-16.673-15.008-24.016c-0.116-0.128-0.238-0.232-0.362-0.319
		c0.076-2.457-0.139-4.933-0.583-7.328c5.028-2.4,4.396-8.507-0.669-10.072c0.949-3.604,5.769-7.856,7.864-10.452
		c1.84-2.28,2.975-4.637,2.739-7.596c-0.456-5.724-7.116-7.818-11.721-8.746c-3.996-0.805-8.93-1.323-9.181-6.481
		c-0.147-3.02,0.713-5.923-0.624-8.81c-2.44-5.268-7.75-7.588-13.217-8.461c-10.853-1.731-26.156,4.433-29.016,15.891
		c-1.536,6.156,2.879,18.059-4.952,21.215c-4.076,1.643-10.404-5.237-5.733-7.969c0.152-0.067,0.284-0.157,0.405-0.257
		c0.09-0.062,0.172-0.128,0.245-0.198c0.048,0.001,0.095-0.005,0.142-0.002c2.579,0.133,2.566-3.867,0-4
		c-5.171-0.267-10.508,3.791-12.074,8.716c-2.108,6.63,0.57,12.744,5.123,17.637c4.246,4.564,10.297,6.016,15.732,4.765
		c0.633,3.099,1.464,6.148,2.499,9.122c-27.164,3.235-54.54,3.578-81.864,3.261c-1.33-0.015-1.968,1.039-1.927,2.069
		c-5.215-0.091-10.242-0.61-15.429-1.315c-6.258-0.852-16.347-2.136-21.713,2.518c-3.764,3.265-1.312,8.475,2.947,9.976
		c1.058,0.373,2.117,0.589,3.177,0.707c-0.902,2.648,0.284,4.79,2.715,5.93c-0.883,1.36-1.496,2.952-0.656,4.499
		c0.516,0.95,1.337,1.514,2.271,1.872c-2.042,6.743,4.364,8.844,10.17,8.645c10.27-0.353,19.367-6.479,27.851-11.757
		c0.343-0.036,0.636-0.142,0.875-0.307c1.961-0.481,3.92-0.63,5.938-0.662c0.691,0.218,1.382,0.438,2.073,0.657
		c10.537,4.664,21.576,8.017,32.397,11.952c11.004,4.003,24.789,8.895,30.974,19.574c4.929,8.51,4.919,19.44,4.949,28.971
		c0.023,7.368-0.294,14.763,0.222,22.11c-0.129,0.232-0.194,0.492-0.229,0.758c-0.061,0.193-0.104,0.4-0.104,0.636
		c0.001,2.272,0.088,4.514,0.464,6.741c0.17,2.082,0.203,4.168,0.203,6.259c0,0.368,0.088,0.678,0.228,0.941
		c0.001,0.127,0.008,0.256,0.028,0.39c3.576,24.698-1.649,50-6.21,74.217c-4.679,24.847-12.566,48.274-21.988,71.645
		c-18.485,0.489-53.76,7.913-42.621,33.662c4.06,9.385,16.214,4.999,22.791,1.658c6.419-3.261,12.655-7.625,18.268-12.493
		c0.399,0.389,0.95,0.647,1.671,0.647c0.292,0,0.557-0.042,0.796-0.116c0.225,0.068,0.459,0.116,0.704,0.116h1
		c0.217,0,0.425-0.038,0.627-0.092c9.636,0.799,11.282-10.051,14.367-17.987c0.555-0.129,1.085-0.435,1.498-0.992
		c16.557-22.338,27.262-48.317,37.643-73.972c8.53,28.082,12.919,57.508,13.699,86.71c0.006,0.219,0.038,0.42,0.086,0.609
		c-0.005,0.235,0.029,0.468,0.082,0.696c0,0.01-0.002,0.018-0.001,0.028c0.381,7.879-0.498,15.59-1.911,23.335
		c-0.228,1.248,0.323,2.81,1.746,3.075c2.95,0.551,5.903,0.928,8.898,1.051c0.046,0.124,0.101,0.252,0.149,0.377
		c0.498,0.304,0.936,0.781,1.244,1.5c0.037,0.086,0.089,0.17,0.129,0.255c0.328,0.272,0.627,0.621,0.871,1.078
		c0.013,0.024,0.028,0.046,0.041,0.07c3.115,2.592,5.988,5.592,9.475,7.627c2.367,1.382,4.757,2.49,7.264,3.333
		c0.236,0.062,0.478,0.132,0.705,0.185c3.784,0.882,8.145,1.209,12.111,0.316c1.784-0.847,3.514-1.822,4.718-3.344
		c1.806-2.285,2.263-5.043,2.908-7.774C396.208,596.015,395.797,593.941,395.378,591.862z M350.351,271.554
		c-0.813,0.239-1.227,1.037-1.048,1.845c0.757,3.403,1.006,7.021,0.506,10.498c-0.014,0.032-0.034,0.057-0.042,0.096
		c-0.765,3.536-2.77,7.122-6.236,8.503c-0.073,0.016-0.144,0.035-0.218,0.049c-0.025-0.005-0.045-0.016-0.07-0.019l0,0
		c-0.638-0.182-1.275-0.365-1.915-0.531c-2.56-0.663-5.156-1.193-7.772-1.644c-0.728-0.114-1.501-0.096-2.212-0.299
		c-0.115-0.033-0.228-0.069-0.341-0.105c-0.535-0.07-1.069-0.147-1.599-0.249c-7.098-0.962-14.332-1.322-21.526-1.508
		c-0.027-0.185-0.091-0.377-0.208-0.571c-3.621-6.009-5.895-12.606-7.279-19.454c3.779-1.631,6.995-4.67,8.662-9.007
		c2.89-7.516-0.469-17.795,7.16-22.867c6.603-4.39,17.294-0.071,21.08,6.178c4.744,7.829-1.691,24.466,12.332,24.658
		c0.472,0.006,0.915-0.178,1.267-0.471C354.19,267.425,353.321,270.682,350.351,271.554z M284.628,261.524
		c-2.801-2.627-4.546-6.253-4.794-10.067c-0.151-2.315,0.847-4.687,2.461-6.48c0.183,4.119,4.07,8.493,8.414,9.501
		c4.467,1.036,7.964-2.146,9.971-5.759c4.395-7.912-1.686-17.714,5.408-24.535c5.679-5.461,14.001-8.044,21.708-6.815
		c3.649,0.582,7.177,2.208,9.161,5.425c2.106,3.413-0.145,8.314,1.423,12.111c2.305,5.583,10.189,5.568,15.059,6.926
		c3.606,1.006,6.021,4.28,4.007,7.9c-1.342,2.412-3.721,4.64-5.492,6.766c-1.835,2.204-3.475,3.939-4.076,6.382
		c-4.273-1.174-4.495-6.507-4.663-10.644c-0.184-4.536-0.623-8.743-3.027-12.709c-4.635-7.648-16.392-10.76-24.375-7.495
		c-12.847,5.255-5.569,20.811-12.932,29.531C297.808,267.572,289.85,266.423,284.628,261.524z M231.825,299.792
		c-1.176,0.088-2.343,0.239-3.502,0.476c-0.197-0.064-0.414-0.102-0.657-0.102c-0.618,0-1.084,0.233-1.406,0.583
		c-6.652,4.117-13.707,9.079-21.392,10.937c-3.311,0.8-13.178,2.47-11.351-3.242c3.71,0.2,7.498-0.596,11.148-1.127
		c0.057,0.004,0.108,0.017,0.167,0.017c2.579,0,2.579-4,0-4c-0.175,0-0.336,0.021-0.487,0.056c-0.123-0.003-0.247-0.003-0.378,0.016
		c-2.654,0.373-5.281,0.813-7.961,0.979c-1.428,0.089-2.915,0.135-4.325-0.139c-0.229-0.044-0.495-0.104-0.718-0.207
		c0.104-0.325,0.418-0.704,0.616-0.957c0.191-0.245,0.316-0.502,0.387-0.761c3.948,0.353,7.946-0.24,11.865-0.653
		c0.038-0.004,0.071-0.017,0.108-0.022c0.075,0.007,0.145,0.022,0.225,0.022c2.496,0,2.569-3.735,0.234-3.977
		c-0.174-0.03-0.359-0.045-0.567-0.023c-3.052,0.322-6.084,0.696-9.158,0.742c-1.696,0.025-3.397-0.056-5.032-0.533
		c-1.412-0.412-0.728-1.208-0.083-2.2c0.058-0.088,0.095-0.176,0.137-0.263c4.041-0.45,8.09-1.747,12.136-1.913
		c0.049-0.002,0.091-0.015,0.138-0.019c0.066,0.006,0.126,0.019,0.195,0.019c2.579,0,2.579-4,0-4c-0.044,0-0.081,0.01-0.123,0.012
		c-0.07-0.004-0.135-0.015-0.21-0.012c-4.229,0.173-8.327,1.468-12.521,1.959c-2.252,0.263-4.574,0.234-6.625-0.835
		c-5.365-2.795,6.236-4.926,6.774-4.983c6.54-0.704,13.224,0.997,19.705,1.693c5.513,0.592,11.185-0.342,16.536,1.287
		c0.296,0.22,0.671,0.364,1.131,0.38c0.035,0.001,0.069,0.005,0.104,0.006c0.212,0.045,0.412,0.059,0.597,0.036
		c1.636,0.11,3.223,0.4,4.801,0.777C230.663,292.81,230.794,296.42,231.825,299.792z M231.607,285.59
		c23.067,0.035,46.139-0.656,69.06-3.424c0.037-0.004,0.068-0.017,0.104-0.023c0.077,0.008,0.148,0.023,0.23,0.023
		c0.184,0,0.351-0.025,0.508-0.063c0.873,2.055,1.867,4.06,2.983,6.009c-3.76-0.074-7.503-0.121-11.201-0.199
		c-19.468-0.411-38.944-0.299-58.384-1.557C233.809,286.073,232.711,285.806,231.607,285.59z M299.838,328.972
		c11.086,5.053,22.022,10.446,31.248,18.442c0.2,0.173,0.411,0.288,0.624,0.372c0.059,0.156,0.139,0.302,0.234,0.438
		c0.014,0.02,0.026,0.039,0.041,0.058c0.102,0.135,0.219,0.258,0.359,0.361c0.006,0.004,0.013,0.007,0.019,0.011
		c0.128,0.091,0.275,0.162,0.433,0.219c0.042,0.015,0.084,0.029,0.128,0.041c0.177,0.049,0.365,0.085,0.577,0.085
		c0.152,0,0.293-0.016,0.427-0.042c0.044-0.008,0.082-0.023,0.124-0.034c0.087-0.023,0.172-0.048,0.251-0.081
		c0.044-0.018,0.084-0.041,0.125-0.062c0.069-0.036,0.135-0.074,0.197-0.117c0.038-0.027,0.074-0.055,0.11-0.084
		c0.057-0.047,0.109-0.096,0.159-0.149c0.031-0.033,0.062-0.066,0.091-0.101c0.046-0.057,0.086-0.117,0.125-0.179
		c0.023-0.037,0.049-0.073,0.07-0.111c0.037-0.069,0.067-0.141,0.096-0.215c0.014-0.036,0.032-0.069,0.044-0.106
		c0.035-0.105,0.062-0.213,0.081-0.322c0.011-0.062,0.014-0.124,0.019-0.187c0.005-0.051,0.011-0.102,0.012-0.154
		c0.002-0.07-0.003-0.139-0.008-0.209c-0.003-0.044-0.005-0.087-0.01-0.13c-0.009-0.074-0.023-0.146-0.039-0.218
		c-0.008-0.037-0.017-0.073-0.027-0.109c-0.021-0.075-0.045-0.148-0.074-0.221c-0.012-0.029-0.025-0.057-0.038-0.086
		c-0.034-0.076-0.071-0.15-0.115-0.22c-0.01-0.017-0.023-0.032-0.034-0.048c-0.168-0.255-0.395-0.469-0.687-0.613
		c-0.106-0.214-0.26-0.423-0.482-0.616c-14.5-12.567-32.88-18.894-49.847-27.285c-0.24-0.156-0.541-0.246-0.883-0.276
		c-2.485-1.377-5.081-2.484-7.846-3.173c-0.314-0.307-0.747-0.51-1.311-0.517c-11.889-4.939-24.118-8.935-36.382-12.822
		c-0.433-0.195-0.872-0.374-1.303-0.574c-0.104-0.048-0.206-0.077-0.308-0.107c-1.288-3.154-1.675-6.792,0.816-9.362
		c16.834,1.014,33.698,1.085,50.557,1.339c15.879,0.24,32.232,0.063,47.901,2.949c0.302,0.056,0.601,0.127,0.902,0.188
		c0.213,0.134,0.472,0.22,0.789,0.22c0.065,0,0.122-0.012,0.182-0.018c0.361,0.078,0.724,0.144,1.084,0.226
		c2.73,1.04,5.378,2.242,7.938,3.638c1.6,1.75,3.031,3.632,4.231,5.722c0.15,0.85,0.781,1.599,1.897,1.599
		c1.237,0,1.875-0.921,1.925-1.879c0.124-0.444,0.092-0.946-0.198-1.464c-1.6-2.859-3.618-5.407-5.898-7.728
		c0.434-0.529,0.853-1.071,1.247-1.628c0.006-0.005,0.011-0.01,0.017-0.015c0.015-0.023,0.027-0.047,0.042-0.07
		c1.008-1.438,1.83-2.983,2.243-4.7c0.234-0.683,0.447-1.372,0.616-2.075c0.042-0.065,0.091-0.126,0.134-0.191
		c1.043,1.243,2.012,2.517,2.95,3.804c0.018,0.086,0.056,0.171,0.141,0.247c0.97,0.865,1.493,2.031,2.157,3.123
		c0.031,0.083,0.088,0.152,0.161,0.206c0.795,1.227,1.567,2.463,2.286,3.721c0.122,0.135,0.215,0.293,0.275,0.465
		c0.099,0.087,0.193,0.186,0.275,0.313c0.431,0.668,0.791,1.373,1.13,2.089c1.443,2.316,2.529,4.985,3.283,7.613
		c0.05,0.041,0.1,0.081,0.15,0.124c9.019,22.741,8.713,49.037,9.359,73.5c-0.149,0.402-0.278,0.808-0.395,1.215
		c-0.115,0.24-0.185,0.505-0.209,0.793c-0.004,0.02-0.011,0.039-0.015,0.059c-0.289,0.364-0.481,0.829-0.501,1.412
		c-0.435,0.419-0.716,0.968-0.834,1.561c-4.717,8.319-10.956,15.415-18.916,20.965c-8.041,5.606-18.972,11.16-28.984,11.25
		c-7.966,0.072-10.862-7.65-12.63-14.119c-2.431-8.895-3.435-17.896-3.462-27.093C308.632,361.738,310.978,342.177,299.838,328.972z
		 M287.608,560.395c-1.305,3.901-2.999,6.847-6.927,6.471c0.709-0.694,1.412-1.39,2.087-2.098c0.65-0.681,0.799-1.462,0.643-2.173
		c0.042-1.281-0.757-2.595-2.411-2.595c-1.301,0-2.068,0.817-2.319,1.788c-5.478,5.628-11.846,10.522-18.444,14.738
		c-4.523,2.89-16.525,10.624-20.808,3.792c-2.412-3.848-1.805-9.906,0.298-13.691c2.363-4.255,7.275-6.806,11.618-8.538
		c7.905-3.153,16.716-4.326,25.239-4.542c0.506,0.531,1.311,0.817,2.119,0.777c0.392,0.433,0.93,0.755,1.632,0.842
		c3.144,0.391,6.177,0.208,9.125-0.511C288.822,556.559,288.247,558.487,287.608,560.395z M324.492,439.738
		c-1.358-2.922-5.667-0.381-4.317,2.524c4.433,9.54,8.298,19.346,11.624,29.342c-0.076,0.125-0.15,0.253-0.209,0.399
		c-10.521,25.977-21.047,52.522-37.358,75.508c-0.007,0-0.013,0.003-0.021,0.003c-0.081-0.015-0.163-0.023-0.245-0.029
		c-0.101,0.118-0.223,0.22-0.341,0.323c-0.032,0.028-0.059,0.061-0.093,0.088l0,0c-0.099,0.08-0.212,0.145-0.323,0.213
		c-0.056,0.035-0.111,0.07-0.171,0.101c0,0,0,0,0,0c-0.132,0.07-0.273,0.129-0.42,0.182l0,0c-0.04,0.014-0.082,0.027-0.123,0.04h0
		c-0.172,0.055-0.351,0.1-0.542,0.129c-3.192,1.49-6.495,1.974-9.928,1.76c9.925-24.609,17.866-49.166,22.782-75.32
		c3.71-19.738,7.474-40.025,6.78-60.201c0.396,0.71,0.814,1.405,1.271,2.073c3.858,5.63,10.121,6.687,16.481,5.776
		c10.126-1.449,20.61-7.113,28.758-13.057c6.126-4.469,11.224-10.049,15.358-16.314c-0.001,0.219,0,0.438,0,0.658
		c0.036-0.04,0.08-0.073,0.118-0.111c0.537-1.118,1.148-2.167,1.825-3.201c5.171,27.557-1.364,56.488-4.73,83.878
		c-1.986,16.161-3.173,32.411-4.664,48.622c-0.781,8.488-1.671,16.965-2.745,25.421c-0.407,3.202-0.519,6.29-0.349,9.512
		c0.148,2.813,0.59,5.652-1.082,7.962c-0.446,0.027-0.825,0.152-1.138,0.349c-2.704-0.19-5.318-0.68-7.887-1.566
		C351.551,521.905,342.617,478.74,324.492,439.738z M385.738,604.341c-0.104,0.063-0.194,0.133-0.28,0.204
		c-0.074-0.012-0.155-0.015-0.232-0.023c-0.201,0.081-0.413,0.148-0.644,0.192c-0.234,0.047-0.482,0.074-0.749,0.074
		c-0.01,0-0.018-0.003-0.029-0.003c-0.098,0.053-0.192,0.111-0.279,0.176c-7.554,0.087-17.301-5.666-21.367-11.724
		c-0.215-0.321-0.469-0.563-0.742-0.742c-1.55-4.242-2.595-7.998-3.005-10.161c-0.6-3.166-5.419-1.821-4.821,1.329
		c0.305,1.607,0.785,3.548,1.428,5.691c-1.216-0.095-2.427-0.219-3.635-0.397c1.047-6.243,1.753-12.499,1.704-18.827
		c3.108,0.896,6.306,1.329,9.58,1.368c0.167,0.002,0.307-0.034,0.456-0.058c0.019-0.018,0.044-0.032,0.064-0.05
		c0.008-0.006,0.015-0.012,0.023-0.018c0.261-0.229,0.555-0.426,0.903-0.565c-0.004-0.019-0.007-0.037-0.01-0.056
		c0.229-0.119,0.454-0.269,0.667-0.486c0.684-0.698,1.226-1.422,1.661-2.167c7.442,4.816,18.467,13.674,23.65,23.145
		C392.786,596.731,390.996,601.166,385.738,604.341z"/>
</g>
<g id="Слой_37">
	<path fill="#7697A5" d="M398.5,441c2.479,14.833,12.762,29.494,28.235,32.737c-10.121-10.62-19.33-22.205-28.985-32.237"/>
</g>
<g id="Слой_38">
	<path fill="#A1BBC9" d="M382,411.75c0.951,27.269,9.734,60.827,42.2,61.7c-0.115-0.095,0.962-0.732,1.041-0.744
		C399.246,461.475,398.71,430.271,382.25,412"/>
</g>
<g id="Слой_39">
	<path fill="#BAD1E0" d="M377.25,391.25c2.881,22.673,14.737,44.247,17.567,67.505c-11.399-8.656-27.975-57.461-19.067-68.005"/>
</g>
<g id="Слой_41">
	<path fill="#492009" d="M386.625,374.875c3.67,7.934-9.106,12.952-13.841,15.994c-2.339,1.503-18.137,15.773-15.641,3.659
		c0.682-3.308,7.024-4.219,8.335-6.709c2.329-4.424-0.046-3.071,0-7.684c0.065-6.455-2.965-13.775,4.997-7.857
		c1.394,1.036,2.62,6.56,4.092,8.217c3.229-3.403,7.796-4.748,12.433-5.62"/>
</g>
<g id="Слой_36">
	<path fill="#FFFFFF" d="M428.414,472.252c-21.456-21.566-40.933-46.867-48.307-76.808c1.477-1.944,2.444-4.142,2.559-6.278
		c0.033-0.611-0.121-1.104-0.391-1.482c4.147-3.402,9.383-8.686,6.118-14.027c-0.449-0.735-1.403-1.206-2.259-0.919
		c-4.265,1.431-8.226,3.417-12.126,5.623c-1.396-3.237-2.849-6.445-4.411-9.608c-0.017-0.038-0.034-0.076-0.054-0.113
		c-0.052-0.105-0.098-0.212-0.151-0.317c-0.531-1.067-1.55-1.202-2.383-0.818c-0.259,0.077-0.515,0.211-0.758,0.413
		c-5.692,4.749-3.179,11.746-0.014,17.234c-6.732,4.249-14.766,10.581-7.319,18.261c0.717,0.739,2.124,0.818,2.828,0
		c1.044-1.214,2.208-2.332,3.439-3.394c0.342,0.717,1.015,1.259,2.025,1.301c1.595,0.386,3.285,0.289,4.945-0.202
		c6.924,29.906,13.702,69.69,48.966,75.037c0.249,0.115,0.54,0.182,0.878,0.177c1.974-0.029,3.645-0.207,5.532-0.738
		C428.981,475.187,429.48,473.323,428.414,472.252z M369.706,396.525c0.385-0.272,0.773-0.541,1.163-0.808
		c0.043,0.172,0.085,0.347,0.127,0.521C370.558,396.383,370.126,396.479,369.706,396.525z M362.062,397.48
		c-0.045-0.005-0.087-0.01-0.12-0.014c-0.062-0.019-0.129-0.04-0.172-0.052c-0.046-0.025-0.092-0.051-0.137-0.078
		c0.012-0.007-0.133-0.128-0.239-0.222c-0.048-0.064-0.14-0.179-0.168-0.22l0,0c-0.021-0.009-0.036-0.024-0.056-0.035
		c-0.075-0.04-0.14-0.089-0.196-0.147c-0.032-0.032-0.062-0.063-0.088-0.099c-0.023-0.033-0.041-0.069-0.06-0.105
		c-0.059-0.107-0.098-0.22-0.116-0.342l0,0c-0.016-0.017-0.037-0.028-0.051-0.048c-0.108-0.153-0.166-0.313-0.204-0.479
		c-0.16-0.284-0.179-0.638-0.05-0.938c0.001-0.008,0.007-0.016,0.008-0.024c-0.023-0.132-0.02-0.276,0.023-0.434
		c1.199-4.382,6.097-5.475,8.789-8.614c-0.581-1.102-1.174-2.201-1.501-3.397c-1.13-2.606-1.854-5.388-1.925-8.223
		c-0.004-0.046-0.024-0.082-0.022-0.132c0.001-0.036,0.01-0.068,0.012-0.103c-0.001-0.091-0.012-0.181-0.012-0.272
		c0-0.106,0.031-0.189,0.057-0.277l0,0c0-0.004,0.002-0.007,0.003-0.01c0.004-0.023,0.014-0.044,0.019-0.067
		c0.016-0.075,0.031-0.15,0.064-0.22c0.006-0.014,0.016-0.026,0.023-0.04c0.007-0.014,0.019-0.025,0.026-0.038
		c0.091-0.269,0.222-0.525,0.372-0.775c0.148-0.316,0.34-0.613,0.597-0.886c0.016-0.017,0.034-0.02,0.05-0.036
		c0.053-0.052,0.116-0.093,0.184-0.13c0.188-0.11,0.382-0.143,0.57-0.107c0.329-0.049,0.662,0.063,0.851,0.469
		c0.37,0.795,0.748,1.589,1.115,2.387c0.635,1.074,1.082,2.288,1.527,3.426c0.651,1.662,1.601,3.165,2.426,4.73
		c0.041,0.061,0.077,0.125,0.116,0.187c1.532-1.405,3.588-2.456,5.489-3.23c1.048-0.427,2.575-0.993,3.706-0.577
		c0.053-0.009,0.096-0.03,0.154-0.03c0.324,0,0.561,0.132,0.718,0.324c0.07,0.021,0.139,0.047,0.203,0.083
		c0.038-0.025,0.076-0.048,0.114-0.073c0.018,0.063,0.051,0.12,0.076,0.181l0,0c0.124,0.074,0.219,0.173,0.292,0.291
		c0.003,0.005,0.005,0.009,0.008,0.013c0,0,0,0,0,0c0.069,0.117,0.113,0.243,0.132,0.38c0.015,0.019,0.028,0.04,0.046,0.057
		c-0.009,0.016-0.019,0.032-0.029,0.048v0c0.001,0.013-0.004,0.025-0.004,0.038c0.044,0.117,0.057,0.24,0.05,0.365
		c0.047,0.167,0.036,0.342-0.039,0.51c-0.039,0.155-0.108,0.308-0.253,0.448c-0.096,0.093-0.203,0.168-0.302,0.257
		c-0.075,0.1-0.166,0.191-0.271,0.27c-0.089,0.068-0.182,0.128-0.273,0.193c-0.469,0.375-0.951,0.729-1.451,1.057
		c-2.802,2.745-6.647,5.194-8.158,6.283C370.137,391.773,365.743,394.312,362.062,397.48z M374.591,394.116
		c-0.064-0.257-0.127-0.515-0.191-0.769c0.329-0.219,0.656-0.438,0.984-0.656c0.039,0.188,0.085,0.374,0.125,0.562
		C375.222,393.554,374.912,393.84,374.591,394.116z M422.427,472.336c-34.011-5.008-39.998-44.204-46.583-72.946
		c0.332-0.214,0.652-0.448,0.97-0.687c7.567,28.388,25.77,52.75,46.079,73.636C422.738,472.343,422.583,472.339,422.427,472.336z"/>
</g>
</svg>
