<?xml version="1.0" encoding="utf-8"?>
<!-- Generator: Adobe Illustrator 17.0.0, SVG Export Plug-In . SVG Version: 6.00 Build 0)  -->
<!DOCTYPE svg PUBLIC "-//W3C//DTD SVG 1.1//EN" "http://www.w3.org/Graphics/SVG/1.1/DTD/svg11.dtd">
<svg version="1.1" xmlns="http://www.w3.org/2000/svg" xmlns:xlink="http://www.w3.org/1999/xlink" x="0px" y="0px" width="612px"
	 height="792px" viewBox="0 0 612 792" enable-background="new 0 0 612 792" xml:space="preserve">
<g id="Слой_2">
	<rect width="612" height="792"/>
</g>
<g id="Слой_8">
</g>
<g id="Слой_9">
</g>
<g id="Слой_10">
	<path fill="#007684" d="M344.333,369.333c-3.648,4.988-6.553,10.969-10.619,15.599c47.442,20.949,32.691,62.959,18.89,104.709
		c5.923,1.501,11.257,0.889,17.061,0.807c35.942-0.509,39.288-46.458,37.001-72.765c-2.951-33.946-22.01-45.927-56.667-53.35"/>
</g>
<g id="Слой_11">
	<path fill="#0090A3" d="M331.725,378.872c-10.724,8.48-27.671,10.35-40.392,6.128l-1,0.667
		c-6.205,4.732-8.311,10.971-12.255,18.821c-6.539,13.017-9.74,27.344-11.096,41.548c-1.153,12.083-2.416,35.126,3.731,46.507
		c10.763-0.421,21.521-1.226,32.247-0.301l0,0c0.128-0.04,0.254-0.081,0.394-0.106h0c0.307-0.252,0.665-0.47,1.112-0.614
		c4.174-1.342,8.481-2.064,12.867-2.117c2.516-0.03,3.514,2.285,3.022,4.166H322c1.82,0,3.508,0.645,4.859,1.708
		c6.473,0.605,12.968,0.832,19.641,0.292c1.975-0.16,3.561,0.311,4.767,1.173c8.677-3.224,16.258-7.545,21.401-13.144
		C406.74,446.513,363.611,395.919,331.725,378.872z"/>
</g>
<g id="Слой_12">
	<path fill="#00B1C1" d="M291,387.333l-1,0.333c-10.776,0.596-21.913,13.051-28.871,21.517
		c-4.503-12.203-12.308-21.435-19.885-23.523c-0.161,0.094-0.337,0.169-0.531,0.223l0,0c-0.172,0.105-0.354,0.198-0.552,0.265
		c-0.674,0.231-1.326,0.519-2,0.75c-0.287,0.098-0.581,0.119-0.869,0.092c-1.733,0.463-3.923,0.829-6.038,0.749
		c-3.364,2.756-6.249,7.861-8.188,15.883c-4.911,20.314-4.111,47.871,3.333,69.866c3.335-0.172,6.82,1.429,8.246,5.402
		c3.07,8.555,12.378,12.682,20.487,15.082c0.976,0.289,1.956,0.557,2.937,0.817c0.976-0.456,2.117-0.72,3.43-0.72
		c0.091,0,0.175,0.01,0.264,0.013c0.08-0.002,0.155-0.013,0.236-0.013c0.825,0,1.575,0.113,2.267,0.302
		c0.681-0.188,1.423-0.298,2.233-0.302c4.476-0.026,8.866-0.104,13.27,0.128C267.285,461.897,281.639,419.904,291,387.333z"/>
</g>
<g id="Слой_13">
	<path fill="#F0B4B4" d="M233.667,346.667c-0.379,1.986-4.236,1.498-2.61,5.609c0.277,0.045,0.512,0.085,0.685,0.316
		c0.962,0.02,2.267-0.123,3.19-0.001c1.609-2.811-1.448-3.601-0.932-5.924"/>
</g>
<g id="Слой_15">
	<path fill="#FFE2E2" d="M377.667,342.667c0,16.87,1.705,35.082-2.221,51.282c-18.549-2.167-24.384-27.849-12.112-41.948"/>
</g>
<g id="Слой_18">
	<path fill="#FFE2E2" d="M365,403l-3.333,1c-14.332-6.825-39.066-7.771-48.766,8.277c-0.587,0.972-0.997,6.099-1.223,12.724
		c0.53,0.153,0.981,0.582,1.078,1.12c0.037,0.024,0.06,0.06,0.094,0.087c0.336,0.225,0.576,0.596,0.576,1.126
		c-0.001,2.253-0.039,4.482-0.384,6.712c-0.139,0.894-0.877,1.157-1.557,0.981c-0.023,3.475-0.006,7.004,0.054,10.321
		c0.592,0.128,1.137,0.566,1.221,1.319c0.09,0.813,0.174,1.624,0.239,2.433c0.224,0.222,0.387,0.519,0.428,0.9
		c0.156,1.457-0.063,2.887-0.474,4.272c-0.062,0.48-0.137,0.961-0.243,1.441c-0.094,0.425-0.325,0.695-0.61,0.853
		c-0.034,0.078-0.065,0.157-0.1,0.234c0.191,2.536,0.435,4.369,0.735,5.107c8.793,21.694,25.904,15.599,48.077,16.117
		C346.765,458.879,348.914,420.39,365,403z"/>
</g>
<g id="Слой_17">
	<path fill="#FFCCCC" d="M375.667,347.667c-2.202,13.256,1.562,29.869-4.424,42.647c-5.04,10.76-10.02,8.473-14.573,14.68
		c-13.361,18.211-26.642,63.504,3.495,72.574c39.37,11.849,35.589-39.323,31.084-62.409c-3.945-20.217-4.196-42.42-8.509-61.592
		c-0.373-1.657,0.547-5.037,0.676-6.861c-2.959-1.488-6.663-2.72-9.872-3.521c-4.004,1.73,2.954,2.337,1.789,4.481"/>
	<path fill="#FFCCCC" d="M363.333,402c-20.126,7.811-35.285,58.925-12.565,72.852c39.622,24.287,24.53-54.931,13.565-73.852"/>
</g>
<g id="Слой_16">
	<path fill="#F0B4B4" d="M380,345.667c-1.319,9.806,0.98,19.642,6.001,27.672c13.234-10.562,15.519-37.992-6.335-27.672"/>
	<path fill="#F0B4B4" d="M385.345,473.945c0.607-0.432,1.376-0.702,2.321-0.702c0.893,0,1.623,0.248,2.214,0.638
		c21.29-20.872,25.654-60.437-5.106-76.503C386.807,422.579,386.575,448.669,385.345,473.945z"/>
	<path fill="#FFCCCC" d="M392.667,346c-4.862,9.15-7.983,20.201-10.239,30.252c-4.819-9.868-4.309-21.566-4.16-32.691
		c6.135-1.274,11.204,0.064,16.399,3.106"/>
</g>
<g id="Слой_19">
	<path fill="#FFE2E2" d="M204.667,337.333c0.1,5.773,2.588,12.607,4.741,17.373c10.651-8.073,8.813-24.154-5.074-16.373"/>
</g>
<g id="Слой_14">
	<path fill="#F0B4B4" d="M382,390.667c3.608,26.817,5.25,59.223-3.997,83.957c26.385,0.162,23.376-71.347,4.997-83.291"/>
</g>
<g id="Слой_21">
	<path fill="#F0B4B4" d="M254.188,378.466c0.709-2.879,1.292-5.787,2-8.667c0.004-0.018,0.013-0.031,0.017-0.049
		c0.092-1.393,0.955-2.723,2.605-2.96c0.567-7.797-1.682-15.806-5.329-21.844c-6.943-11.495-9.709-17.259-27.205-13.222
		c-0.143,0.385-0.736,0.851-1.121,0.977c-0.928,3.936-1.307,15.056-0.381,19.151c6.419-1.029,3.763,1.589,9.641-2.085
		c2.828,1.356,6.651,5.957,9.68,6.956c-6.577,3.376-5.848,9.004-9.659,12.646h-0.374c-13.86,23.596,8.625,28.216,20.206,10.988
		C254.07,379.807,254.014,379.175,254.188,378.466z"/>
</g>
<g id="Слой_20">
	<path fill="#FFCCCC" d="M240,362.667c-8.314,5.02-16.433,8.719-25.291,11.732c2.414,9.39,9.409,15.709,19.557,16.491
		c0.327-9.829,2.515-19.524,6.401-28.556"/>
	<path fill="#FFCCCC" d="M227,333.667c-17.475-8.225-9.517,21.52-6.618,20.606c0.148-0.047,1.513,0.014,1.661,0.092
		c6.694-5.472,7.664-12.205,4.958-20.365"/>
</g>
<g id="Слой_25">
	<path fill="#D76B38" d="M352.983,284c45.118,11.953,19.59,31.742,4.162,52.284c-17.01-7.986-31.108-62.514-3.091-52.617"/>
</g>
<g id="Слой_26">
	<path fill="#FF8345" d="M288.667,276.333c11.162,10.108,18.703,4.032,28.824,5.595c10.588,1.635,25.699,7.068,37.167,5.078
		c-14.074-11.949-0.168-31.059-21.842-36.608c-18.845-4.825-30.846,15.569-42.177,24.851c-0.491,0.403-1.281,0.479-1.639,0.751"/>
</g>
<g id="Слой_4">
	<path fill="#FF9D50" d="M291.333,274.667c7.641,3.155,16.085,5.94,24.405,6.327c-16.145,15.108-31.046,23.373-35.204,46.64
		c0.026,0.034-1.913,0.026-1.893-0.016c-0.686-4.647,2.127-19.872,1.374-21.674c-1.951-4.674-12.382-7.209-13.405-11.944
		c-2.881-13.337-1.417-31.039,10.974-38.565c1.743-1.059,8.183-2.077,7.686-2.04c-8.24,8.977-8.285,21.92,6.062,22.273"/>
</g>
<g id="Слой_22">
	<path fill="#F0B4B4" d="M359.585,336.228c-0.082-0.198-0.163-0.395-0.242-0.592c-0.597-0.111-1.128-0.31-1.552-0.62
		c-0.116-0.048-0.233-0.091-0.35-0.151c-10.576-5.399-12.181-16.618-12.456-27.274c-0.308-11.921-2.819-22.425-14.297-28.393
		c-0.909-0.472-1.484-1.115-1.794-1.826C318.241,276.885,309.281,284.551,304,294l1.693-1.667
		c26.233,22.904,14.578,66.079,30.826,93.381c2.286-3.055,6.905-9.28,11.361-15.69c-0.459-0.897-0.587-1.961-0.383-2.955
		c-0.152-0.554-0.2-1.161-0.093-1.823c0.989-6.148,5.512-8.452,10.469-11.194c0.48-1.01,0.824-1.877,0.978-2.542
		C359.662,348.014,359.905,342.575,359.585,336.228z"/>
</g>
<g id="Слой_23">
	<path fill="#FFCCCC" d="M295.333,299.333c-3.468,25.76-21.246,86.294,18.324,96.09c19.948,4.938,24.207-10.965,26.676-27.385
		c2.983-19.847-22.687-110.54-45-68.038"/>
</g>
<g id="Слой_24">
	<path fill="#FFE2E2" d="M301.884,295.221c-8.525,25.592-12.323,92.594,24.175,100.468c-37.08,15.351-48.872-31.613-47.611-59.992
		c0.883-19.863,4.63-36.777,24.115-42.517"/>
</g>
<g id="Слой_7">
	<path fill="#FCFCFC" d="M232.793,390.932C232.793,390.932,232.793,390.932,232.793,390.932c-0.056-0.627-0.207-1.242-0.449-1.816
		c-0.006-0.014-0.011-0.028-0.017-0.042c-0.116-0.269-0.255-0.526-0.412-0.772c-0.017-0.026-0.032-0.053-0.049-0.078
		c-0.156-0.235-0.332-0.455-0.526-0.662c-0.005-0.005-0.01-0.011-0.015-0.016c-1.924-0.051-3.852-0.461-5.313-1.358
		c-0.092,0.023-0.185,0.045-0.274,0.072c-0.077,0.024-0.15,0.054-0.224,0.081c-0.096,0.035-0.192,0.07-0.284,0.11
		c-0.075,0.033-0.146,0.07-0.218,0.106c-0.085,0.042-0.17,0.084-0.251,0.131c-0.071,0.041-0.138,0.085-0.206,0.128
		c-0.076,0.049-0.151,0.097-0.223,0.15c-0.067,0.048-0.13,0.099-0.194,0.151c-0.066,0.054-0.132,0.108-0.195,0.165
		c-0.062,0.056-0.122,0.114-0.181,0.173c-0.058,0.058-0.114,0.116-0.169,0.177c-0.057,0.064-0.113,0.128-0.167,0.195
		c-0.049,0.06-0.097,0.122-0.143,0.184c-0.053,0.071-0.104,0.143-0.152,0.217c-0.041,0.062-0.08,0.125-0.118,0.188
		c-0.047,0.078-0.093,0.157-0.137,0.237c-0.033,0.062-0.064,0.126-0.095,0.19c-0.041,0.085-0.082,0.17-0.119,0.258
		c-0.026,0.061-0.049,0.123-0.073,0.186c-0.036,0.093-0.071,0.186-0.102,0.281c-0.019,0.057-0.034,0.116-0.051,0.174
		c-0.003,0.012-0.006,0.023-0.01,0.035c0.002,0.01,0.003,0.021,0.005,0.031c0.558-0.058,1.131,0.037,1.575,0.297
		c1.276,0.748,1.428,2.158,0.893,3.404c-0.801,1.865-1.773,3.654-2.561,5.518c1.839-0.876,3.989-1.159,5.77-0.669
		c0.951,0.262,1.764,0.656,2.458,1.148c0.081-1.335,0.284-2.656,0.785-3.914c0.079-0.198,0.179-0.382,0.288-0.557
		c0.239-0.477,0.624-0.877,1.169-1.091C233.104,392.823,233.066,391.813,232.793,390.932z"/>
	<path fill="#FCFCFC" d="M235.317,484.048c-3.163-9.025-4.719-18.384-5.835-27.834c-0.018,1.095-0.049,2.19-0.054,3.287
		c-0.004,1.001-0.168,1.897-0.445,2.701c0.718,3.565-0.73,7.634-4.347,9.13c0.253,0.356,0.494,0.735,0.709,1.166
		c2.924,5.861,6.649,10.371,10.957,14.26C235.957,485.839,235.627,484.931,235.317,484.048z"/>
	<path fill="#FCFCFC" d="M381,492.071c0.332,0,0.658,0.028,0.979,0.071c0.587-0.345,1.224-0.619,1.913-0.788
		c2.515-0.614,4.648-1.62,6.986-2.825c3.243-2.24,6.266-4.842,8.987-7.909c12.969-14.619,15.318-36.458,14.134-55.12
		c-0.447-7.043-11.45-7.087-11,0c0.917,14.443-0.361,28.619-7.116,41.666c-5.354,10.341-15.837,15.926-26.518,19.318
		c-14.318,4.547-29.17,5.41-44.008,6.923c-0.872,0.089-1.73,0.209-2.594,0.317c7.867-0.411,15.745-0.848,23.519,0.755
		c3.68,0.759,7.303,1.423,10.923,1.977c1.01-0.462,2.125-0.764,3.294-0.885c4.434-0.456,8.878-0.497,13.331-0.499
		c1.463-1.818,3.697-3.001,6.169-3.001H381z"/>
	<path fill="#FCFCFC" d="M381.25,340c-1.94,0-2.906,1.508-2.901,3.012c-0.667-1.485-2.348-2.487-4.113-1.353
		c-7.893,5.069-12.191,11.984-15.629,20.543c-4.013,9.992-0.042,16.863,4.302,25.812c1.69,3.48,6.863,0.437,5.181-3.028
		c-3.291-6.778-6.719-11.749-4.333-19.464c2.369-7.66,6.732-14.331,13.507-18.682c0.984-0.632,1.387-1.551,1.387-2.466
		c0.419,0.921,1.278,1.626,2.599,1.626C385.119,346,385.119,340,381.25,340z"/>
</g>
<g id="Слой_27">
	<path fill="#7A7F7F" d="M241.828,352.624c-2.359-1.433-4.704-2.732-6.541-4.702c-0.001,0.009-0.001,0.019-0.002,0.028
		c0.022,2.062-1.293,4.14-3.952,4.14c-1.363,0-2.367-0.551-3.026-1.362c-0.482,0.554-1.107,0.996-1.887,1.216
		c-0.964,0.272-1.962,0.407-2.962,0.455c-0.057,0.045-0.123,0.081-0.184,0.121c-0.083,0.055-0.168,0.108-0.259,0.154
		c-0.067,0.033-0.137,0.062-0.208,0.091c-0.107,0.043-0.22,0.078-0.337,0.109c-0.065,0.017-0.127,0.035-0.195,0.048
		c-0.192,0.036-0.392,0.06-0.608,0.06c-0.218,0-0.419-0.024-0.612-0.061c-0.061-0.011-0.117-0.028-0.176-0.043
		c-0.129-0.033-0.253-0.072-0.37-0.12c-0.059-0.024-0.117-0.047-0.173-0.074c-0.115-0.057-0.222-0.122-0.325-0.193
		c-0.04-0.028-0.085-0.051-0.124-0.081c-0.124-0.097-0.236-0.204-0.339-0.319c-0.053-0.059-0.097-0.122-0.145-0.185
		c-0.049-0.065-0.097-0.131-0.14-0.201c-0.047-0.076-0.091-0.152-0.131-0.232c-0.031-0.061-0.057-0.123-0.083-0.186
		c-0.037-0.089-0.076-0.176-0.105-0.268c-0.627-0.802-0.921-1.848-0.876-2.881c-0.479,0.505-1.163,0.843-2.068,0.843
		c-0.297,0-0.564-0.046-0.815-0.112c-0.064,0.594-0.151,1.187-0.302,1.776c-0.242,0.943-0.74,1.597-1.357,2.022
		c-0.196,0.201-0.428,0.369-0.678,0.519l0,0c-0.038,0.073-0.083,0.141-0.127,0.21l0,0c-0.008,0.013-0.017,0.025-0.026,0.037
		c-0.075,0.114-0.153,0.226-0.245,0.328l0,0c-0.092,0.103-0.194,0.197-0.303,0.285l0,0l0,0c-0.046,0.037-0.095,0.07-0.144,0.104l0,0
		c-0.105,0.073-0.216,0.139-0.334,0.198l0,0c-0.033,0.016-0.063,0.036-0.097,0.051l0,0c-0.154,0.069-0.322,0.12-0.499,0.161l0,0l0,0
		c-0.045,0.01-0.091,0.019-0.138,0.028l0,0c-0.19,0.035-0.387,0.059-0.6,0.059c-0.264,0-0.505-0.033-0.733-0.085
		c-0.075-0.017-0.139-0.046-0.21-0.068l0,0l0,0c-0.17-0.053-0.33-0.117-0.478-0.197c0,0,0,0,0,0
		c-0.047-0.027-0.093-0.054-0.139-0.082l0,0c-0.117-0.073-0.227-0.151-0.328-0.24l0,0c-0.053-0.047-0.104-0.094-0.153-0.144
		c-0.138-0.142-0.261-0.295-0.365-0.462c0,0-0.001-0.001-0.001-0.001c-0.104-0.168-0.193-0.343-0.262-0.528l0,0
		c0-0.001-0.001-0.002-0.001-0.003l0,0c-0.049-0.13-0.083-0.264-0.115-0.399c0,0,0,0,0-0.001c-0.007-0.031-0.017-0.061-0.023-0.092
		v0c-0.027-0.135-0.043-0.272-0.054-0.41v0c-0.001-0.013-0.002-0.026-0.003-0.039c-0.022-0.332,0.003-0.665,0.077-0.988
		c-0.198-0.912-0.09-1.902,0.327-2.729c0.403-2.404-0.665-4.714-2.05-6.654c-1.168-1.636-0.292-4.092,1.321-5.036
		c0.781-0.458,1.59-0.568,2.355-0.439c0.417-0.345,0.902-0.632,1.477-0.808c0.202-0.062,0.403-0.123,0.605-0.185
		c0.374-0.115,0.771-0.143,1.169-0.133c-0.074-0.097-0.135-0.203-0.197-0.309c-0.509-0.284-0.879-0.714-1.116-1.213
		c-0.258-0.113-0.477-0.268-0.674-0.443c-0.617,0.486-1.417,0.798-2.428,0.798c-0.784,0-1.437-0.196-1.987-0.504
		c-0.039,0.061-0.077,0.124-0.117,0.185c-0.06,0.09-0.117,0.18-0.184,0.264c-0.073,0.091-0.154,0.175-0.236,0.259
		c-0.087,0.09-0.176,0.176-0.273,0.257c-0.084,0.07-0.17,0.136-0.262,0.198c-0.116,0.08-0.24,0.151-0.368,0.218
		c-0.091,0.048-0.181,0.096-0.279,0.137c-0.155,0.065-0.323,0.114-0.494,0.16c-0.089,0.024-0.171,0.054-0.264,0.072
		c-0.273,0.053-0.56,0.086-0.868,0.086c-0.302,0-0.583-0.033-0.85-0.084c-0.037-0.007-0.076-0.011-0.113-0.019
		c-0.23-0.051-0.444-0.124-0.647-0.209c-0.069-0.029-0.138-0.056-0.204-0.088c-0.106-0.053-0.202-0.117-0.3-0.178
		c-0.355,0.029-0.719,0.025-1.087-0.033c-0.474-0.074-0.914-0.095-1.347-0.093c-0.025,0.016-0.051,0.029-0.076,0.045
		c-0.556,0.356-1.098,0.733-1.645,1.101c-0.129,0.087-0.265,0.151-0.401,0.217c-0.602,0.924-1.209,1.846-1.794,2.781
		c-0.021,0.112-0.056,0.221-0.086,0.33c0.224,1.773-0.809,3.735-3.117,3.735c-1.19,0-2.031-0.53-2.548-1.279
		c-0.172-0.088-0.341-0.18-0.491-0.292c-0.064-0.047-0.118-0.103-0.178-0.154c-0.109-0.093-0.214-0.188-0.311-0.292
		c-0.074-0.079-0.142-0.161-0.208-0.246c-0.067-0.086-0.127-0.176-0.186-0.267c-0.158-0.243-0.294-0.499-0.397-0.772
		c-0.003-0.009-0.008-0.017-0.012-0.026c-0.35-0.085-0.705-0.204-1.066-0.403c-0.732-0.404-1.453-0.826-2.177-1.243
		c-0.405,0.192-0.878,0.307-1.425,0.307c-0.24,0-0.465-0.024-0.677-0.065c-0.208,0.038-0.423,0.065-0.657,0.065
		c-0.238,0-0.458-0.026-0.667-0.066c-0.21,0.039-0.429,0.066-0.666,0.066c-0.702,0-1.276-0.193-1.744-0.496
		c-7.909,2.03-8.514,13.248-4.661,20.26c0.025,0,0.046-0.007,0.071-0.007c0.212,0,0.408,0.024,0.596,0.059
		c0.066,0.012,0.129,0.028,0.193,0.044c0.115,0.029,0.225,0.065,0.33,0.107c0.069,0.027,0.14,0.051,0.205,0.083
		c0.133,0.065,0.258,0.139,0.375,0.222c0.412,0.147,0.763,0.372,1.037,0.661c1.036-0.338,2.228-0.115,3.039,0.697l0.333,0.333
		c0.15,0.15,0.278,0.314,0.389,0.487c1.493-0.135,3.071-0.371,4.17-1.001c0.63-1.046,1.735-1.801,3.333-1.801
		c0.558,0,1.054,0.095,1.494,0.259c0.043-0.385,0.075-0.773,0.08-1.169c0.024-1.838,2.876-1.84,2.852,0
		c-0.018,1.389-0.257,2.738-0.57,4.082c0.011,0.055,0.03,0.109,0.039,0.164c0.232,0.814,0.247,1.7,0.001,2.484
		c1.28,0.463,2.372,1.604,2.715,2.85c0.279,1.016,0.155,1.937-0.24,2.726c0.442,0.397,0.808,0.876,1.048,1.425
		c0.124,0.082,0.247,0.163,0.368,0.241c0.311,0.117,0.627,0.277,0.944,0.497c2.085,1.442,4.349,2.503,6.7,3.352
		c1.743,0.166,3.487,0.317,5.235,0.423c0.203,0.012,0.397,0.037,0.583,0.074c0.168-0.166,0.352-0.315,0.556-0.448l0,0c0,0,0,0,0,0
		c0.01-0.006,0.021-0.012,0.031-0.018l0,0c0.249-0.158,0.524-0.285,0.825-0.383c0.084-0.029,0.167-0.059,0.256-0.083c0,0,0,0,0,0
		c0.335-0.084,0.689-0.142,1.082-0.142c0.433,0,0.817,0.072,1.179,0.173h0l0,0c0.129,0.036,0.257,0.074,0.377,0.122l0,0l0,0
		c0.244,0.096,0.467,0.215,0.673,0.352c0.043,0.024,0.087,0.046,0.126,0.075c5.3-1.244,10.838-2.397,15.413-5.397
		c0.643-0.968,1.71-1.658,3.231-1.658c0.063,0,0.117,0.015,0.178,0.018c4.031-3.958,8.043-7.936,12.039-11.93
		C243.572,354.71,242.652,353.701,241.828,352.624z M183.313,352.889L183.313,352.889c-0.115,0.11-0.239,0.211-0.376,0.3
		c-0.018,0.012-0.037,0.021-0.055,0.032c-0.123,0.076-0.25,0.147-0.389,0.203c-0.065,0.027-0.137,0.044-0.206,0.066
		c-0.107,0.034-0.209,0.072-0.325,0.095c-0.197,0.039-0.405,0.062-0.63,0.062c-0.241,0-0.467-0.024-0.678-0.068
		c-0.03-0.006-0.054-0.02-0.083-0.027c-0.178-0.043-0.35-0.094-0.505-0.164c-0.013-0.006-0.023-0.015-0.035-0.021
		c-0.345-0.164-0.636-0.389-0.868-0.661c-0.161,0.023-0.32,0.049-0.497,0.049c-4.624,0-5.193-6.285-1.709-7.835
		c0.467-0.721,1.252-1.236,2.376-1.236c0.282,0,0.537,0.04,0.777,0.1c0.42-0.265,0.931-0.433,1.556-0.433
		c1.669,0,2.611,1.124,2.831,2.395C186.768,347.589,186.373,351.921,183.313,352.889z"/>
	<path fill="#7A7F7F" d="M282.276,231.652c-0.438-0.076-0.885-0.207-1.34-0.454c-5.675-3.08-10.984-7.451-17.611-8.072
		c-2.226,0.937-4.389,1.895-6.449,3.002c0.123,0.384,0.21,0.784,0.214,1.205c0.005,0.432,0.018,0.865,0.054,1.297
		c0.026,0.187,0.069,0.514,0.084,0.582c0.177,0.811,0.416,1.593,0.716,2.367c0.353,0.913,0.229,1.888-0.189,2.741l0,0
		c-0.048,0.162-0.109,0.318-0.176,0.472c-0.021,0.05-0.043,0.1-0.067,0.149c-0.066,0.138-0.137,0.273-0.218,0.402
		c-0.04,0.065-0.087,0.125-0.13,0.187c-0.083,0.117-0.163,0.234-0.26,0.341c-0.134,0.15-0.282,0.289-0.443,0.416
		c-0.071,0.056-0.152,0.102-0.228,0.153c-0.124,0.084-0.253,0.163-0.391,0.232c-0.083,0.041-0.169,0.078-0.256,0.113
		c-0.157,0.064-0.322,0.116-0.495,0.16c-0.083,0.021-0.163,0.045-0.249,0.062c-0.265,0.05-0.543,0.083-0.842,0.083
		c-0.306,0-0.591-0.033-0.861-0.085c-0.093-0.018-0.177-0.048-0.266-0.071c-0.071-0.019-0.137-0.045-0.206-0.067
		c-0.136,4.489-0.422,8.965-0.807,13.434c0.333,0.56,0.551,1.227,0.564,2.032c0.129,8.085,1.862,16.056,1.617,24.181
		c-0.14,4.643-0.668,10.529-3.345,14.605c0.308,0.581,0.361,1.305-0.033,1.853c-1.575,2.194-3.241,4.314-4.968,6.39
		c-0.969,1.165-2.349,0.599-2.927-0.447c-0.892,0.318-1.781,0.531-2.668,0.663c0.155,4.335,1.575,8.509,0.51,12.843
		c-0.955,3.886-5.72,3.566-7.416,0.95c-0.174,0.02-0.34,0.052-0.528,0.052c-0.059,0-0.109-0.015-0.167-0.017
		c-0.058,0.002-0.107,0.017-0.167,0.017c-0.839,0-1.529-0.223-2.101-0.571c-2.784-0.76-5.433-1.202-8.042-1.36
		c-0.194,0.28-0.429,0.532-0.697,0.752c-0.285,0.352-0.645,0.675-1.096,0.954c-2.97,1.835-3.69,6.28-4.857,10.142l0,0l0,0
		c0.688,0.988,0.786,2.361,0.295,3.463c-0.001,0.003-0.002,0.005-0.003,0.008l0,0c-0.07,0.156-0.151,0.304-0.244,0.447
		c0.311,0.756,0.41,1.607,0.291,2.424c0.242,0.209,0.449,0.451,0.603,0.726c0.072,0.041,0.15,0.077,0.216,0.124
		c0.017,0.006,0.036,0.011,0.053,0.017l0,0c0.116,0.043,0.226,0.092,0.331,0.148l0,0l0,0c0.084,0.045,0.168,0.092,0.245,0.145
		c0.11,0.076,0.208,0.161,0.303,0.251l0,0c0.015,0.014,0.03,0.028,0.044,0.042c0.1,0.099,0.192,0.204,0.275,0.317
		c0.042,0.057,0.084,0.113,0.121,0.173c0.085,0.136,0.156,0.278,0.218,0.426c0.001,0.002,0.002,0.003,0.002,0.005v0
		c0.06,0.143,0.108,0.29,0.146,0.442l0,0l0,0v0c0.006,0.025,0.013,0.05,0.019,0.074l0,0l0,0c0.041,0.181,0.067,0.364,0.079,0.55
		c0,0,0,0.001,0,0.001s0,0,0,0.001v0c0.032,0.541-0.063,1.086-0.286,1.574c1.62-0.745,3.225-1.147,5.051-1.388
		c5.07-0.67,10.226-0.183,15.28-0.924c0.167-0.024,0.321-0.016,0.482-0.023c0.303-0.074,0.615-0.123,0.939-0.123h0.333
		c0.064,0,0.124,0.016,0.187,0.019c1.46-1.215,3.631-1.55,5.371,0.179c6.329,6.288,9.892,14.187,11.038,22.484
		c0.523-0.099,1.059-0.108,1.578-0.036c1.226-1.969,4.1-2.345,5.937-1.139c1.872,0.194,3.62,1.49,3.646,3.916
		c0.011,1.008,0.07,2.087,0.208,2.725c0.184,0.85,0.373,1.65,0.607,2.077c0.034,0.066,0.076,0.127,0.112,0.191l0,0l0,0l0,0
		c0.21,0.105,0.395,0.237,0.561,0.387l0,0c0.004,0.003,0.007,0.007,0.011,0.01c0.175,0.159,0.327,0.336,0.454,0.532l0,0
		c0.162,0.031,0.309,0.088,0.063,0.089l0,0c0,0,0,0,0,0c0.531,0.004,1.033-0.032,1.56-0.103c0.294-0.039,0.581-0.029,0.859,0.019
		c0.275,0.011,0.53,0.053,0.775,0.107c0.32-0.076,0.66-0.126,1.032-0.126c0.077,0,0.145,0.013,0.219,0.017
		c1.129-0.968,1.784-2.219,2.111-3.659c-0.16-0.278-0.256-0.595-0.256-0.935c0-0.092-0.002-0.185-0.003-0.278
		c-0.305-0.484-0.396-1.065-0.246-1.597c-0.125-0.076-0.252-0.151-0.362-0.242c-0.019-0.015-0.034-0.033-0.052-0.049
		c-0.163-0.143-0.317-0.293-0.451-0.46l0,0c-0.06-0.052-0.127-0.093-0.185-0.149c-0.354-0.346-0.769-0.641-1.093-1.017
		c-0.799-0.924-1.209-1.642-1.625-2.788c-0.319-0.879-0.207-1.801,0.16-2.624c0.421-1.572,1.673-2.886,3.784-2.886
		c0.306,0,0.59,0.033,0.86,0.085c0.027-4.819,0.347-9.666,0.384-14.329c0.001-0.146,0.031-0.273,0.044-0.412
		c-0.713-5.518-0.117-11.199-1.186-16.638c-0.934-4.753-1.64-8.936-0.378-13.705c0.207-0.782,0.58-1.373,1.037-1.829
		c-1.666-0.577-3.228-1.349-4.594-2.402c-5.431-4.187-7.229-9.944-6.923-16.682c0.047-1.04,0.413-1.867,0.956-2.496
		c0.272-6.673,2.972-12.739,5.935-18.902c0.795-1.653,2.166-2.211,3.521-2.061c0.112-4.671,0.513-9.422,0.92-14.208
		c0.029-0.34,0.094-0.655,0.184-0.951c0.24-1.819,1.536-3.473,3.906-3.473c0.627,0,1.174,0.122,1.651,0.326
		C282.666,236.709,282.566,234.182,282.276,231.652z M235.5,323.924c-1.34-0.032-8.601-1.849-8.826,0.076
		c-0.248,2.117-3.598,2.142-3.348,0c0.122-1.046,0.445-1.822,0.896-2.418c-0.307-1.112,0.282-2.508,1.778-2.508
		c0.775,0,1.308,0.375,1.599,0.891c2.556-0.24,5.706,0.56,7.901,0.612c1.09,0,1.628,0.854,1.617,1.699
		C237.123,323.116,236.586,323.949,235.5,323.924z"/>
</g>
<g id="Слой_6">
	<path fill="#FDFDFD" d="M282.622,231.876c-0.03-0.029-0.051-0.066-0.085-0.091c-0.026-0.029-0.045-0.06-0.075-0.089
		c-1.794-1.745-3.949-3.034-6.389-3.629c-0.13-0.035-0.267-0.06-0.422-0.06c-0.089,0-0.169,0.013-0.25,0.025v-2.275
		c0-0.442-0.161-0.777-0.402-1.017c-0.012-0.015-0.026-0.028-0.039-0.042c-0.014-0.013-0.027-0.027-0.042-0.039
		c-0.24-0.241-0.576-0.402-1.017-0.402c-0.067,0-0.125,0.012-0.187,0.019c-5.259-2.213-11.82-3.976-16.82-0.314
		c-0.279,0.204-0.446,0.458-0.542,0.727c-0.231,0.248-0.36,0.576-0.389,0.917c-0.067,0.184-0.093,0.4-0.061,0.651
		c0.259,2.079,0.484,4.153,0.5,6.25c0.003,0.425,0.156,0.751,0.384,0.99c0.011,0.017,0.022,0.034,0.036,0.049
		c0.037,0.043,0.082,0.08,0.125,0.118c0.026,0.023,0.049,0.049,0.077,0.07c0.05,0.037,0.108,0.067,0.164,0.097
		c0.029,0.016,0.054,0.035,0.084,0.048c0.065,0.029,0.137,0.048,0.209,0.068c0.029,0.008,0.054,0.02,0.083,0.026
		c0.105,0.022,0.217,0.033,0.337,0.033c0.085,0,0.162-0.012,0.239-0.024c-0.004,0.591-0.009,1.182-0.015,1.774h-5.224
		c-0.161,0-0.303,0.027-0.437,0.065c-0.798-0.066-1.619,0.407-1.563,1.435c0.231,4.252,0.231,8.498,0,12.75
		c-0.01,0.176,0.014,0.33,0.051,0.473c-0.003,0.188,0.025,0.376,0.083,0.554c0.001,0.002,0.001,0.004,0.001,0.006
		c0.026,0.079,0.06,0.154,0.098,0.227c0.005,0.01,0.009,0.022,0.014,0.032c0.035,0.063,0.078,0.121,0.122,0.179
		c0.013,0.017,0.023,0.037,0.037,0.053c0.04,0.048,0.089,0.088,0.136,0.13c0.024,0.021,0.044,0.046,0.069,0.065
		c0.044,0.034,0.096,0.06,0.146,0.088c0.035,0.02,0.067,0.045,0.105,0.062c0.042,0.019,0.09,0.031,0.136,0.045
		c-0.002,7.562-0.12,15.114-0.277,22.674c-0.143,6.875,0.95,14.306-4.033,19.851c-0.023,0.025-0.036,0.052-0.057,0.078
		c-0.175,0.129-0.309,0.297-0.405,0.486c-0.326-0.004-0.651-0.009-0.978-0.003c-0.081,0.002-0.153,0.016-0.227,0.027
		c-0.087-0.014-0.176-0.027-0.273-0.027c-0.52,0-0.896,0.22-1.136,0.537c-0.215,0.236-0.358,0.553-0.364,0.963
		c-0.01,0.741-0.124,1.447-0.282,2.156c-0.87,0.079-1.746,0.088-2.62,0.09c-0.862-0.479-2.281-0.059-2.349,1.254
		c-0.253,4.869-0.203,9.741-0.125,14.613c-4.74,0.578-8.233-4.23-12.943-4.284c-4.013-0.046-6.645,2.127-8.35,5.607
		c-3.069,6.266-4.178,17.26,1.963,21.951c0.023,0.018,0.048,0.034,0.071,0.051c0.015-0.094,0.023-0.189,0.039-0.283
		c0.163-0.972,0.789-1.734,1.595-2.251c-1.212-0.96-2.148-2.212-2.484-3.495c-1.074-4.097-0.325-8.998,0.853-12.967
		c1.735-5.848,6.112-6.379,11.043-3.783c2.735,1.44,5.26,2.631,8.262,2.417c0.01,0.633,0.016,1.265,0.025,1.897
		c-4.77-0.48-13.207-5.712-16.663-0.609c-1.513,2.235-0.576,6.393,0.019,8.785c0.587,2.362,9.194,7.97,4.903,9.294
		c0.383,0.848,0.5,1.838,0.341,2.837c0.371-0.074,0.725-0.178,1.061-0.307c0.077-0.907,0.135-1.816,0.151-2.729
		c0.031-1.806,1.019-2.979,2.292-3.548c-0.161-0.456-0.368-0.88-0.644-1.255c2.683,0.692,5.898,0.606,8.372,0.569
		c0,0.006-0.001,0.013-0.001,0.019c0.976-0.266,1.995-0.354,3.022-0.242c0.531-10.177-0.246-20.376,0.142-30.563
		c1.101-0.025,2.197-0.078,3.293-0.225c0.006,0,0.01,0.002,0.016,0.002c0.225,0,0.422-0.041,0.594-0.112
		c0.56-0.201,0.894-0.835,0.894-1.423c0.157-0.647,0.292-1.297,0.384-1.954c5.415,0.041,10.71,1.377,16.128,1.489
		c1.383,0.029,1.771-1.492,1.177-2.379c0.133-0.282,0.164-0.624,0.02-1.02c-1.392-3.826,2.817-21.716-4.196-21.351
		c-0.008,0-0.015,0.002-0.023,0.002c0.084-13.967,0.976-27.941,1.023-41.914c0.246-0.085,0.497-0.146,0.746-0.217
		c-0.012,2.003-0.074,4.004-0.442,5.98c-0.002,0.009-0.001,0.017-0.002,0.025c-0.565,0.879-0.168,2.373,1.199,2.373
		c0.687,0,1.125-0.38,1.324-0.868c0.177-0.174,0.313-0.412,0.372-0.733c0.453-2.433,0.534-4.879,0.547-7.342
		c1.14-0.09,2.283-0.048,3.405,0.156h0c0.012,0.003,0.025,0.004,0.037,0.006c0.807,0.149,1.601,0.381,2.376,0.692
		c0.007,0.07,0.02,0.139,0.035,0.207c-2.762,9.92-2.424,20.292-2.202,30.555c0.926-0.32,1.987-0.257,2.952,0.125
		c0.006-1.67,0.004-3.339-0.026-5.005c-0.146-8.219-0.063-16.551,2.085-24.529c0.326,0.034,0.63-0.051,0.878-0.238
		c0.135-0.086,0.256-0.188,0.35-0.311c0.415-0.319,0.601-0.858,0.554-1.375c0.003-0.06,0.009-0.12,0.006-0.18
		c0.033-0.126,0.056-0.26,0.056-0.41v-0.756c1.816,0.468,3.385,1.379,4.75,2.654v4.285c-2.682-1.281-4.824,0.497-5.657,4.2
		c-1.248,5.551-1.06,11.721-0.688,17.683c0.582-1.417,1.288-2.804,2.162-4.137c0.281-0.429,0.603-0.774,0.951-1.049
		c-0.034-2.556-0.051-5.116,0.046-7.67c0.079-2.084,0.066-8.408,3.125-5.399c0.103,0.102,0.212,0.178,0.321,0.242
		c0.031,0.053,0.062,0.105,0.099,0.154c0.012,0.016,0.021,0.033,0.033,0.048c0.044,0.054,0.095,0.101,0.148,0.148
		c0.02,0.018,0.038,0.039,0.059,0.056c0.052,0.04,0.11,0.073,0.169,0.106c0.029,0.016,0.054,0.036,0.084,0.05
		c0.063,0.029,0.134,0.049,0.204,0.069c0.033,0.009,0.061,0.023,0.096,0.031c0.108,0.023,0.223,0.036,0.346,0.036
		s0.239-0.013,0.346-0.036c0.034-0.007,0.063-0.021,0.096-0.031c0.07-0.02,0.141-0.04,0.204-0.069
		c0.03-0.014,0.056-0.034,0.084-0.05c0.059-0.033,0.118-0.065,0.169-0.106c0.022-0.017,0.039-0.038,0.059-0.056
		c0.053-0.047,0.104-0.094,0.148-0.148c0.012-0.015,0.022-0.032,0.033-0.048c0.047-0.062,0.09-0.126,0.126-0.195
		c0.005-0.01,0.009-0.02,0.013-0.03c0.038-0.078,0.071-0.158,0.096-0.242c0.001-0.003,0.002-0.007,0.003-0.011
		c0.054-0.184,0.075-0.377,0.065-0.569c0.033-0.126,0.056-0.26,0.056-0.41v-7.5C283.152,232.491,282.935,232.117,282.622,231.876z
		 M225.188,326.413c-0.717-1.605-0.861-3.427-0.535-5.563c0.315-2.06,6.917-0.225,11.212,0.914c-0.145,0.055-0.29,0.11-0.435,0.178
		c-1.665,0.785-2.635,1.946-4.43,1.029c-2.83-1.445-5.881-0.786-5.85,3.036C225.153,326.152,225.18,326.274,225.188,326.413z
		 M238.797,329.523c-3.18,0.125-10.199,0.82-10.641-2.99c-0.204-1.763,0.142-1.57,1.331-0.972c0.784,0.394,1.697,0.955,2.607,0.948
		c2.62-0.02,4.216-2.442,6.784-1.969C238.875,326.202,238.847,327.863,238.797,329.523z M250.803,295.213
		c3.226-4.399,3.811-9.569,3.854-15.07c0.073-9.371,0.24-18.742,0.244-28.115c0.705,0.023,1.408,0.069,2.102,0.176
		c0.177,0.027,0.351,0.024,0.521,0.008c0.056,0.013,0.12,0.014,0.18,0.022c-0.501,14.622-1.085,29.241,0.146,43.848
		C255.499,295.795,253.157,295.437,250.803,295.213z M257.803,249.267c-0.072,0.005-0.146,0.008-0.213,0.021
		c-1.214-0.173-2.428-0.243-3.648-0.266c0.023-0.505,0.029-1.01,0.044-1.514h2.915c0.044,0,0.083-0.009,0.125-0.012
		c0.042,0.003,0.081,0.012,0.125,0.012c0.28,0,0.514-0.068,0.713-0.175C257.844,247.977,257.825,248.622,257.803,249.267z
		 M257.944,244.729c-0.214-0.135-0.474-0.222-0.792-0.222c-0.044,0-0.083,0.009-0.125,0.012c-0.042-0.003-0.081-0.012-0.125-0.012
		h-2.864c0.002-0.583,0.009-1.165,0.004-1.748c0.942,0.19,1.898,0.248,2.86,0.248c0.089,0,0.17-0.013,0.251-0.025
		c0.081,0.012,0.161,0.025,0.249,0.025c0.223,0,0.417-0.044,0.589-0.114C257.975,243.505,257.961,244.117,257.944,244.729z
		 M258.056,240.148c-0.186-0.088-0.403-0.14-0.654-0.14c-0.089,0-0.17,0.013-0.251,0.025c-0.081-0.012-0.161-0.025-0.249-0.025
		c-0.802,0-1.58-0.016-2.351-0.196c-0.19-0.044-0.382-0.052-0.567-0.03c-0.011-0.341-0.006-0.682-0.02-1.024h4.118
		C258.073,239.221,258.066,239.684,258.056,240.148z M260.152,277.757c1.389-0.072,0.617,15.166,1.19,18.658
		c-0.156-0.01-0.313-0.012-0.469-0.024c-0.534-6.21-0.732-12.422-0.75-18.635C260.133,277.755,260.142,277.758,260.152,277.757z
		 M259.312,230.351c-0.091-1.367-0.24-2.73-0.41-4.094c-0.001-0.008-0.004-0.015-0.005-0.023c0.568-0.36,1.161-0.633,1.768-0.844
		c0.038,1.474,0.181,2.941,0.222,4.415C260.356,229.965,259.83,230.146,259.312,230.351z M263.865,229.176
		c-0.065-1.39-0.199-2.777-0.214-4.169c-0.001-0.05-0.011-0.093-0.015-0.14c1.091-0.031,2.202,0.09,3.305,0.31
		c0.133,1.293,0.187,2.586,0.203,3.884C266.055,228.993,264.957,229.034,263.865,229.176z M272.402,230.352
		c-0.735-0.334-1.489-0.596-2.255-0.8c-0.008-1.176-0.036-2.348-0.125-3.519c0.818,0.283,1.617,0.594,2.38,0.918V230.352z"/>
	<path fill="#FDFDFD" d="M219.119,341.528c0.043-0.561,0.076-1.122,0.139-1.683c-1.672-0.412-3.287-0.863-4.76-1.304
		c0.15,1.063,0.307,2.125,0.508,3.179c1.015,0.271,2.039,0.51,3.062,0.748C218.352,342.097,218.706,341.783,219.119,341.528z"/>
	<path fill="#FDFDFD" d="M255.537,349.507h0.365c0.089,0,0.169-0.013,0.25-0.025c0.081,0.012,0.161,0.025,0.25,0.025
		c1.935,0,1.935-3,0-3c-0.089,0-0.169,0.013-0.25,0.025c-0.081-0.012-0.161-0.025-0.25-0.025h-3.85
		c0.097,0.176,0.188,0.363,0.285,0.541C253.689,347.174,254.942,347.948,255.537,349.507z"/>
	<path fill="#FDFDFD" d="M275.177,300.442c0.147,14.858,0.033,29.706-0.022,44.618c-8.012-3.128-19.134-6.551-27.231-2.36
		c1.168,0.047,2.308,0.619,3.074,1.939c6.327-2.252,14.48,0.004,20.935,2.386c-0.912,0.643-1.777,1.343-2.593,2.171
		c-0.592,0.601-0.555,1.515,0,2.121c1.076,1.175,2.165,2.331,3.193,3.55c0.633,0.769,1.185,1.591,1.657,2.465
		c2.722,4.638-2.606,4.514-3.846,2.21c-1.445-2.685-1.62-5.327-4.125-7.41c-1.678-1.395-3.955-0.96-5.78-0.16
		c-1.254,0.55-2.384,1.062-3.561,1.387c0.259,0.759,0.484,1.528,0.609,2.329c0.035,0.222,0.049,0.435,0.07,0.65
		c1.212-0.355,2.39-0.876,3.526-1.393c4.574-2.084,5.301,3.074,6.67,6.112c1.648,3.659,7.267,5.242,9.344,0.722
		c2.013-4.38-1.604-8.291-4.573-11.444c0.925-0.779,1.883-1.394,2.957-2.03c0.353,0.018,0.651-0.108,0.872-0.328
		c0.093,0.019,0.191,0.03,0.297,0.03c1.008,0,1.485-0.813,1.443-1.593c0.033-0.125,0.056-0.258,0.057-0.407
		c0.05-14.658,0.361-29.276,0.281-43.914C277.255,301.606,276.173,301.053,275.177,300.442z"/>
	<path fill="#FDFDFD" d="M243.567,354.383c-0.057-0.124-0.11-0.249-0.154-0.376c-0.18-0.073-0.362-0.145-0.521-0.242
		c-4.276,5.308-8.94,10.261-14.797,13.891c-5.73,3.551-13.135,5.195-19.801,5.416c-8.048,0.266-13.478-3.312-14.565-11.489
		c-0.499-3.751-0.284-7.616-0.046-11.377c0.234-3.711,0.233-8.053,1.975-11.402c1.798-3.456,7.04-1.468,10.869,0.115
		c0.095-1.012,0.471-1.933,1.163-2.621c-4.134-1.511-8.903-3.748-12.926-0.92c-2.013,1.415-3.022,3.99-3.549,6.85
		c-1.945-3.459-6.589-5.096-10.564-5.471c-6.796-0.641-11.359,5.62-12.025,11.697c-0.591,5.396,3.445,9.823,8.086,11.766
		c5.137,2.15,10.56-0.003,13.712-4.216c-0.094,5.689,0.535,11.822,4.582,15.989c4.161,4.284,11.363,4.379,16.838,3.849
		c14.167-1.373,24.191-9.375,32.821-19.646C244.134,355.695,243.681,355.046,243.567,354.383z M171.896,351.333
		c-1.462-4.564,1.702-9.838,6.041-11.302c3.952-1.334,11.288,1.217,11.215,5.976c0,0.01,0.002,0.018,0.002,0.028
		c-0.314-0.04-0.632-0.042-0.949-0.013c-0.003-0.008-0.004-0.015-0.008-0.022c-3.327-7.177-14.459-4.435-15.19,3.017
		c-0.697,7.099,9.576,8.136,14.041,4.857c0.291,0.155,0.593,0.293,0.915,0.395C183.522,360.197,174.196,358.513,171.896,351.333z
		 M185.245,347.871c-0.248,0.426-0.423,0.894-0.5,1.367c-0.15,0.912-0.042,1.724,0.244,2.429c-2.698,1.778-8.626,1.702-8.985-2.178
		c-0.455-4.924,6.912-6.09,9.287-2.504C185.2,347.269,185.181,347.579,185.245,347.871z M190.574,351.516
		c-0.498,0.062-1.109,0.095-1.456,0.034c-0.104-0.018-0.562-0.168-0.56-0.153c-0.112-0.062-0.389-0.249-0.401-0.242
		c-0.431-0.375-0.52-0.676-0.491-1.286c0.001-0.014,0-0.019,0-0.029c0.009-0.024,0.02-0.064,0.04-0.144
		c0.021-0.086,0.028-0.126,0.029-0.148c0.013-0.018,0.034-0.051,0.074-0.126c0.04-0.075,0.055-0.111,0.062-0.132
		c0.017-0.012,0.047-0.039,0.107-0.101c0.05-0.053,0.074-0.081,0.089-0.1c0.011,0.002,0.048-0.011,0.137-0.059
		c0.109-0.038,0.222-0.062,0.335-0.084c-0.447,0.089,0.506,0.059,0.152,0.007c0.582,0.085,0.96,0.296,1.453,0.6
		c0.157,0.097,0.312,0.152,0.464,0.188C190.596,350.359,190.586,350.954,190.574,351.516z"/>
	<path fill="#FDFDFD" d="M272.848,298.789c-1.137-0.938-2.125-1.971-2.983-3.081c0.403,3.596,0.033,7.163-4.213,6.8
		c-0.188-0.016-0.351,0.005-0.502,0.044c-5.353-1.72-12.445-0.655-16.798,1.974c-0.462,0.028-0.881,0.275-1.068,0.793
		c-0.311,0.407-0.364,0.907-0.24,1.354c-1.409,8.958-2.077,18.043-1.141,27.086c0.077,0.747,0.587,1.195,1.165,1.357
		c0.152,0.392,0.463,0.711,0.925,0.834c0.004,0.002,0.007,0.004,0.011,0.006c3.405,1.415,7.446,1.566,11.081,1.621
		c3.226,0.049,7.346-0.059,10.075-2.022c0.115-0.083,0.212-0.175,0.293-0.272l0,0c0.149-0.096,0.271-0.217,0.369-0.357
		c0.979-0.273,1.267-1.439,0.828-2.219c-0.042-8.651-0.444-17.295-0.247-25.947c0.009-0.408-0.122-0.725-0.327-0.961
		c-0.066-0.207-0.172-0.411-0.363-0.6c-0.077-0.076-0.167-0.139-0.247-0.213C271.712,303.958,272.614,301.611,272.848,298.789z
		 M251.97,334.06c4.13-1.686,9.852-1.652,14.099-0.244C262.27,335.421,256.366,335.117,251.97,334.06z M264.872,330.398
		c0.009-0.047,0.024-0.091,0.03-0.141c0.639-5.686,0.082-11.437,0.946-17.101c0.04-0.265,0.014-0.506-0.055-0.724
		c0.221-0.861-0.239-1.925-1.392-1.925c-1.088,0-1.564,0.95-1.428,1.78c-0.005,0.025-0.014,0.045-0.018,0.071
		c-0.89,5.829-0.409,11.717-1.024,17.564c-1.494-0.155-3.021-0.196-4.526-0.099c0.027-5.867,0.128-11.721-0.504-17.567
		c-0.017-0.153-0.057-0.29-0.107-0.419c-0.148-0.586-0.609-1.081-1.393-1.081c-0.255,0-0.474,0.055-0.662,0.145
		c-0.525,0.17-0.917,0.618-0.838,1.355c0.645,5.971,0.526,11.952,0.503,17.946c-2.076,0.404-4.013,1.091-5.622,2.096
		c-0.717-8.439-0.112-16.919,1.222-25.273c4.68-2.654,13.362-3.574,17.392,0.13c-0.165,8.014,0.159,16.023,0.234,24.037
		C266.76,330.873,265.831,330.612,264.872,330.398z"/>
	<path fill="#FDFDFD" d="M215.031,348.469c0.423-0.04,0.745-0.226,0.959-0.495c0.704,0.223,1.427,0.424,2.156,0.615
		c-0.335-0.815-0.652-1.633-0.84-2.501c-0.058-0.27-0.092-0.54-0.103-0.809c-1.052-0.318-2.099-0.686-3.141-1.119
		c0.053,1.543,0.238,3.075,0.417,4.615C214.663,348.673,214.844,348.567,215.031,348.469z"/>
	<path fill="#FDFDFD" d="M235.91,348.57c0.394-0.113,0.793-0.222,1.19-0.321c-0.433-0.636-0.69-1.403-0.69-2.249
		c0-0.184,0.031-0.364,0.057-0.544c-0.379,0.092-0.758,0.172-1.137,0.251C235.839,346.55,236.031,347.58,235.91,348.57z"/>
	<path fill="#FDFDFD" d="M243.567,354.383c-0.119-0.257-0.22-0.52-0.261-0.796c-0.009-0.058-0.015-0.114-0.023-0.172
		c-0.02-0.035-0.046-0.065-0.065-0.101c-0.314-0.616-0.643-1.23-1.033-1.802c-0.015-0.022-0.053-0.07-0.1-0.129
		c-2.135,3.69-5.554,6.501-9.402,8.694c-0.049-0.114-0.11-0.221-0.186-0.319c-0.057-0.2-0.155-0.397-0.316-0.584
		c-0.046-0.053-0.086-0.11-0.132-0.164c0.595-0.557,1.117-1.185,1.577-1.863c1.405-0.477,1.24-2.913-0.506-2.913
		c-0.397,0-0.708,0.13-0.942,0.331c-0.325,0.087-0.63,0.292-0.853,0.662c-0.307,0.508-0.68,0.96-1.091,1.374
		c-0.515-0.741-1.019-1.488-1.546-2.22c0.867-0.808,1.749-1.593,2.686-2.312c-0.67-0.011-1.34-0.169-1.94-0.54
		c-0.407-0.251-0.797-0.535-1.161-0.848c-0.511,0.433-1.016,0.876-1.511,1.332c-0.028-0.03-0.054-0.062-0.082-0.091
		c-0.36-0.373-0.774-0.488-1.163-0.437c-0.333,0.407-0.751,0.749-1.263,0.986c-0.211,0.489-0.174,1.076,0.305,1.573
		c0.008,0.008,0.014,0.017,0.022,0.024c-0.287,0.272-0.574,0.544-0.864,0.813c-0.171,0.158-0.351,0.306-0.525,0.46
		c-0.61-0.916-1.236-1.821-1.906-2.688c-1.39-0.403-2.248-1.475-2.576-2.723c0-0.001-0.001-0.001-0.001-0.002
		c-0.087-0.072-0.161-0.156-0.25-0.226c-0.124-0.144-0.281-0.263-0.468-0.345c-0.554-0.331-1.087-0.214-1.467,0.13
		c-0.835,0.589-0.798,2.036,0.106,2.554c1.856,1.363,3.195,3.168,4.459,5.04c-1.404,1.081-2.865,2.094-4.323,3.11
		c-1.814-1.996-3.689-3.938-5.503-5.93c-0.244,0.041-0.493,0.076-0.764,0.076c-2.478,0-3.777-1.807-3.926-3.722
		c-0.075-0.281-0.132-0.571-0.164-0.868c-0.06-0.559-0.126-1.116-0.191-1.673c-0.365-0.522-0.718-1.053-1.053-1.599
		c-1.01-1.645-3.605-0.139-2.59,1.514c0.721,1.174,1.521,2.281,2.35,3.363c-0.768,0.532-1.536,1.063-2.312,1.585
		c-0.039,0.026-0.068,0.057-0.104,0.086c-1.564,0.349-1.445,2.96,0.361,2.96c0.357,0,0.647-0.103,0.872-0.27
		c0.127-0.042,0.255-0.098,0.385-0.185c0.9-0.606,1.792-1.223,2.683-1.841c2.415,2.824,5.045,5.465,7.539,8.227
		c-0.6,0.439-1.192,0.889-1.773,1.352c-1.355-1.871-2.633-3.805-4.396-5.343c-1.451-1.266-3.582,0.847-2.121,2.121
		c2.442,2.131,3.962,5.025,6.045,7.461c-2.967,0.53-5.942,0.599-8.388-0.477c-4.442-1.953-4.475-9.71-4.485-13.695
		c-0.008-3.159-0.355-11.673,4.239-10.641c0.818,0.184,1.619,0.448,2.408,0.757c-0.002-0.482-0.005-0.964,0.03-1.45
		c0.044-0.605,0.201-1.178,0.442-1.7c-2.385-1.004-4.816-1.536-6.488-0.359c-3.788,2.666-3.538,9.226-3.632,13.395
		c-0.116,5.161,0.611,10.869,4.114,14.881c3.565,4.084,10.837,2.382,15.325,1.411c9.579-2.073,21.804-6.521,27.931-15.109
		C243.592,354.473,243.575,354.428,243.567,354.383z M215.482,366.733c-0.018-0.019-0.03-0.039-0.05-0.058
		c-0.356-0.339-0.692-0.694-1.015-1.06c0.619-0.502,1.252-0.984,1.89-1.46c0.52,0.619,1.033,1.246,1.527,1.888
		C217.075,366.279,216.286,366.513,215.482,366.733z M221.888,362.337c-0.535-0.193-1.17-0.095-1.577,0.338
		c-0.252,0.267-0.477,0.602-0.583,0.962c-0.336-0.414-0.677-0.825-1.022-1.231c1.347-0.956,2.691-1.916,4.016-2.902
		c0.233,0.341,0.469,0.678,0.711,1.011c-0.273,0.143-0.545,0.286-0.819,0.425C222.099,361.202,221.853,361.782,221.888,362.337z
		 M222.672,364.451c0.14-0.262,0.193-0.554,0.174-0.841c0.406,0.146,0.866,0.132,1.282-0.079c0.445-0.226,0.86-0.458,1.28-0.663
		c0.141,0.143,0.276,0.292,0.423,0.429C224.765,363.715,223.712,364.092,222.672,364.451z M226.864,358.94
		c-0.286,0.146-0.475,0.342-0.596,0.559c-0.02-0.002-0.039-0.008-0.06-0.009c-0.46-0.534-0.902-1.086-1.318-1.662
		c0.013-0.011,0.028-0.021,0.041-0.032c0.541-0.445,1.06-0.909,1.573-1.378c0.469,0.646,0.919,1.306,1.373,1.963
		C227.544,358.578,227.205,358.766,226.864,358.94z M228.937,361.99c-0.021-0.016-0.037-0.034-0.059-0.049
		c-0.185-0.126-0.36-0.261-0.534-0.396c0.011-0.006,0.023-0.008,0.034-0.013c0.437-0.224,0.866-0.469,1.288-0.728
		c0.11,0.136,0.213,0.277,0.326,0.41c0.024,0.081,0.055,0.159,0.091,0.235C229.703,361.633,229.321,361.815,228.937,361.99z"/>
	<path fill="#FCFCFC" d="M326.038,361.243c-1.875,2.429-4.36,4.301-6.795,6.129c-0.128,0.096-0.228,0.206-0.316,0.319
		c-1.146,0.654-0.903,2.809,0.739,2.809c0.56,0,0.953-0.255,1.189-0.612c2.845-2.137,5.585-4.295,7.773-7.13
		C329.811,361.226,327.202,359.735,326.038,361.243z"/>
</g>
<g id="Слой_3">
	<path fill="#003E48" d="M331.654,311.594c-0.103,0.136-0.194,0.275-0.321,0.406c-2.12,2.199-3.819,5.449-6.676,6.813
		c-3.351,1.601-6.3,0.909-9.067-0.948c-0.323,0.673-0.31,1.508,0.329,2.216c1.497,1.658,3.025,2.418,4.529,2.548
		c-0.109,0.14-0.219,0.283-0.328,0.439c-0.429,0.343-0.661,0.865-0.706,1.409c-0.043,0.163-0.08,0.331-0.081,0.523
		c-0.023,3.693-0.198,7.335,1.071,10.865c0.407,1.131,1.801,1.978,2.938,1.195c4.604-3.168,5.244-10.877,2.384-15.403
		c-0.122-0.194-0.297-0.373-0.489-0.534c2.584-1.754,4.869-4.701,6.489-7.113c0.425-0.632,0.417-1.249,0.168-1.754
		C331.852,312.022,331.77,311.798,331.654,311.594z"/>
	<path fill="#003E48" d="M297.394,324.991c-0.189-0.415-0.616-0.728-1.089-0.887c0.616-2.009,0.856-4.207,1.029-6.437
		c0.041-0.53-0.108-0.937-0.355-1.247c-1.123,3.819-2.938,8.258-6.409,9.836c-0.015,0.007-0.03,0.01-0.045,0.017
		c-0.264,0.237-0.547,0.463-0.868,0.667c-0.752,0.477-0.995,1.202-0.911,1.891c-0.078,1.053,0.558,2.17,1.921,2.17
		c0.398,0,0.728-0.103,1.003-0.265c0.051,2.731,0.33,5.382,1.604,7.941c0.692,1.391,2.714,1.207,3.454,0
		C299.216,334.616,299.343,329.277,297.394,324.991z"/>
	<path fill="#003E48" d="M309.667,352c-0.04,0-0.073,0.009-0.112,0.011c-0.074-0.004-0.143-0.015-0.221-0.011
		c-2.738,0.134-5.287-0.22-7.33-1.855c4.167-5.731,5.55-12.737,5.663-19.812c0.017-1.057-0.646-1.673-1.435-1.863
		c-1.565,7.978-3.123,15.775-8.863,21.742c-0.028,0.523,0.157,1.049,0.55,1.536c2.816,3.484,7.098,4.464,11.414,4.252
		c0.047-0.002,0.088-0.015,0.133-0.02c0.067,0.006,0.129,0.02,0.2,0.02C312.246,356,312.246,352,309.667,352z"/>
	<path fill="#FCFCFC" d="M413.742,422.494c-1.407-16.868-7.025-39.051-23.748-46.914c2.429-4.924,6.386-9.392,9.221-13.846
		c4.894-7.69,3.93-16.995-5.03-20.94c-7.987-3.517-17.615-1.152-25.218,2.2c-1.934,0.853-3.628,1.878-5.124,3.05
		c1.064-3.199-0.783-6.542-2.789-9.291c0.274-0.818,0.223-1.761-0.154-2.535c3.292-12.011,22.807-14.01,19.824-29.48
		c-1.72-8.92-7.332-14.864-15.626-18.019c-3.871-1.472-7.894-2.326-11.403-4.624c-4.311-2.823-4.464-8.563-3.96-13.122
		c0.876-7.923,0.443-12.974-6.754-17.712c-10.046-6.614-22.027-5.897-32.097,0.089c-8.309,4.939-11.758,13.252-18.43,19.72
		c-3.759,3.644-9.671,2.779-10.203-3.226c-0.444-5.013,4.175-11.826,9.415-12.179c2.06-0.139,3.011-1.929,2.863-3.52
		c0.007-0.048,0.003-0.098,0.007-0.146c0.342-1.398-0.204-2.893-2.008-3.209c-0.264-0.074-0.546-0.124-0.863-0.124
		c-0.011,0-0.02,0.004-0.031,0.004c-30.609-3.77-40.746,49.373-14.584,56.748c-3.037,7.927-6.618,17.97-0.507,25.036
		c0.398,0.461,0.84,0.727,1.289,0.865c-1.503,10.441-1.557,21.001,0.875,31.761c1.307,5.784,3.356,11.7,6.162,17.215
		c-0.13,0.074-0.259,0.157-0.39,0.25c-2.137,1.522-4.038,3.242-5.75,5.107c-5.67,4.526-10.781,9.704-14.925,15.553
		c-1.889-6.322-4.83-12.254-9.479-17.535c-0.285-0.323-0.588-0.558-0.897-0.755c6.458-13.027,11.246-30.152-0.108-40.19
		c0.002-0.021,0.009-0.038,0.01-0.059c0.616-8.151-9.07-18.949-15.717-10.905c-1.377-1.306-3.118-2.252-5.084-2.69
		c-0.287-0.064-0.552-0.064-0.798-0.025c-0.196-0.011-0.396-0.007-0.598,0.025c-2.134,0.338-3.875,1.528-4.784,3.279
		c-1.703-1.588-3.962-1.91-6.659-0.015c-0.009,0-0.017-0.003-0.026-0.003c-0.032,0-0.058,0.008-0.089,0.009
		c-0.62-0.016-1.24,0.267-1.638,0.982c-0.379,0.681-0.699,1.406-0.987,2.151c-0.265-0.238-0.611-0.405-1.042-0.451
		c-3.12-2.813-8.466-3.473-11.271-0.322c-0.399,0.065-0.719,0.235-0.966,0.472c-0.403,0.322-0.678,0.816-0.673,1.492
		c0.018,2.628,0.623,12.64,3.366,17.677c0.164,0.177,0.309,0.369,0.436,0.574c0,0,0,0,0,0c0,0,0,0,0,0
		c0.463,0.2,0.915,0.501,1.339,0.94c0.955,0.99,1.307,1.145,2.63,1.387c0.098,0.018,0.216,0.037,0.341,0.056
		c-0.014-0.057-0.029-0.113-0.043-0.17c0.477-0.131,0.977-0.346,1.511-0.692c1.581-1.023,2.818-2.651,3.746-4.557
		c1.573,3.962,5.556,5.117,9.497,2.147c0.469-0.353,0.886-0.778,1.267-1.247c0.574,0.82,1.302,1.509,2.273,1.944
		c1.899,0.85,3.813,0.52,5.644-0.333c0.424-0.198,0.7-0.474,0.861-0.786c0.391-0.308,0.612-0.765,0.688-1.251
		c0.035-0.069,0.07-0.137,0.106-0.206c2.173,1.753,4.695,3.295,6.712,4.768c-4.982,2.895-7.999,7.256-9.638,13.216
		c-0.685,2.491,3.174,3.547,3.857,1.063c1.549-5.633,4.394-9.694,9.936-11.936c1.348-0.546,2.04-2.184,0.883-3.343
		c-3.725-3.727-10.218-5.647-12.266-10.829c-2.056-5.205,5.141-4.164,7.615-3.366c2.678,0.864,5.425,2.443,7.488,4.357
		c10.491,9.728,3.035,27.132-2.925,38.019c-5.839,3.101-15.246,4.37-21.397,1.859c-0.634-0.259-1.203-0.302-1.713-0.215
		c-0.002-0.001-0.004-0.001-0.006-0.002c-3.739-3.485-6.527-7.829-8.713-12.524c-1.365,0.492-2.699,0.693-4.091,0.684
		c2.437,5.486,5.603,10.583,9.91,14.606c-0.147,0.265-0.278,0.551-0.358,0.896c-0.623,2.676-1.073,5.373-1.414,8.082
		c0.695-0.854,1.546-1.478,2.473-1.895c0.804,0.85,1.961,1.411,3.482,1.411c2.285,0,3.756-1.257,4.422-2.878
		c5.699,0.657,12.17-0.37,17.431-2.39c0.117,0.399,0.215,0.802,0.328,1.202c0.74,0.5,1.152,1.326,1.244,2.193
		c0.007,0.022,0.018,0.038,0.024,0.06c1.059,3.604,2.246,7.153,3.464,10.683c1.377,7.496,3.644,14.854,4.824,22.355
		c0.679,2.243,1.36,4.485,2.075,6.718c0.005,0.009,0.009,0.019,0.014,0.028c1.082,0.404,2.177,0.405,3.162-0.129
		c0.667-2.92,1.337-5.838,2.113-8.734c5.961-13.81,12.708-27.697,24.173-37.759c2.815,3.852,6.108,7.292,9.942,10.028
		c5.793,4.133,12.298,5.017,18.485,3.686c-5.701,3.378-9.988,9.071-10.369,15.871c-0.132,2.362,0.871,4.669,1.878,6.734
		c1.045,2.144,3.039,3.11,2.582,5.735c-0.405,2.325-2.128,4.222-2.88,6.432c-0.906,2.662-0.953,5.293-0.045,7.962
		c0.401,1.18,1.162,2.208,1.841,3.236c0.519,0.787,0.73,3.345,1.182,2.565c-1.245,2.15-1.828,4.818-2.739,7.126
		c-2.082,5.27-1.238,10.75,1.611,15.557c3.049,5.145,8.462,7.607,14.208,8.794c0.011,0,0.02-0.002,0.031-0.002
		c0.247,0,0.487,0.012,0.72,0.033c1.054,0.038,2.069,0.133,3.158,0.288c0.192,0.027,0.379,0.076,0.567,0.123
		c0.496-0.045,0.997-0.006,1.495,0.083c0.185-0.013,0.368-0.027,0.561-0.027c0.162,0,0.315,0.014,0.471,0.023
		c0.173-0.013,0.347-0.023,0.529-0.023h11.5c0.366,0,0.712,0.031,1.048,0.076h0c0.036,0.005,0.071,0.011,0.106,0.016
		c0.36,0.053,0.707,0.126,1.032,0.226h0l0.001,0c0.092-0.016,0.184-0.025,0.276-0.042c0.617-0.177,1.295-0.277,2.038-0.277
		c0.581,0,1.123,0.061,1.629,0.171c7.657-0.563,15.293-1.66,22.754-3.195c10.484-2.157,22.106-5.227,28.711-14.299
		c0.147-0.202,0.283-0.412,0.426-0.617c6.25-3.326,8.663-11.207,9.991-17.679C414.145,438.99,414.417,430.582,413.742,422.494z
		 M214.17,344.683c-0.169,0.979-2.611,9.154-3.801,8.473c-1.823-1.043-2.233-6.016-2.547-7.797c-0.419-2.382-0.686-4.82-0.779-7.247
		c0.126-0.123,0.246-0.262,0.35-0.436c1.274-2.136,4.019-0.98,5.542,0.277C215.007,339.663,214.577,342.32,214.17,344.683z
		 M222.184,351.634c-2.782,1.554-2.764-4.823-2.774-6.184c-0.02-2.823,0.284-6.113,1.404-8.837c0.647-0.145,1.073-0.58,1.288-1.111
		c2.751-1.783,3.816,3.703,4.036,5.652C226.576,345.038,225.852,349.586,222.184,351.634z M232.132,342.411
		c-0.769,2.654,0.033,4.895,1.59,6.863c-0.295,0.438-0.542,0.905-0.782,1.384c-0.058,0.116-0.104,0.235-0.142,0.355
		c-1.238,0.49-2.337,0.098-2.869-1.211c-0.162-0.398-0.403-0.745-0.703-1.004c-0.023-0.035-0.037-0.075-0.063-0.108
		c1.11-3.792,0.928-8.484-0.296-12.079c0.082-0.064,0.156-0.135,0.225-0.211c0.039-0.044,0.071-0.092,0.106-0.139
		c0.007-0.009,0.013-0.019,0.02-0.028c0.263-0.309,0.437-0.717,0.449-1.232c0-0.003,0.036-0.337,0.036-0.413
		c0.027-0.124,0.063-0.246,0.104-0.367c-0.001,0.036,0.078-0.126,0.131-0.234c0.011,0.01,0.165-0.185,0.267-0.305
		c0.055-0.036,0.26-0.206,0.285-0.221c0.005-0.003,0.302-0.153,0.34-0.184c0.304-0.118,0.621-0.197,0.941-0.263
		c2.153,0.566,4.382,2.082,4.833,4.39C234.574,338.098,232.936,339.635,232.132,342.411z M240.549,336.979
		c-0.105-0.521-0.253-1.023-0.434-1.507l0,0c0.076-0.197,0.112-0.406,0.129-0.618c0.05-0.059,0.104-0.111,0.15-0.178
		c3.235-4.719,7.149,0.586,8.48,4.957C246.451,338.315,243.41,337.19,240.549,336.979z M354.187,369.665
		c-0.044,5.464,1.207,10.793,4.792,15.178c2.494,3.051,5.917,5.781,7.06,9.686c1.733,5.924-8.56,4.83-11.216,4.294
		c-4.297-0.866-8.433-2.281-12.823-2.656c-4.643-0.397-9.314,0.733-13.882,1.747c3.042-1.931,5.811-4.358,8.13-7.119
		c4.833-5.754,8.136-12.699,11.027-19.578c0.411-0.977,0.781-1.96,1.136-2.945c0.181,0.067,0.369,0.124,0.573,0.16
		c0.214,0.042,0.44,0.068,0.683,0.068c0.129,0,0.242-0.024,0.363-0.036c0.102,0.011,0.2,0.034,0.303,0.036
		C351.624,368.528,352.962,368.964,354.187,369.665z M350.678,361.519c0.087-0.264,0.173-0.528,0.263-0.793
		c0.809-2.37,3.419-4.296,5.648-5.582c0.176-0.034,0.345-0.097,0.508-0.177c-0.927,2.15-1.617,4.486-2.098,6.993
		c-0.024,0.127-0.044,0.255-0.068,0.382C353.568,361.867,352.146,361.586,350.678,361.519z M272.605,295.648
		c-10.342-9.813-4.138-30.929,7.047-38.49c-2.114,3.163-3.353,6.965-3.401,10.688c-0.111,8.702,9.271,13.836,16.661,10.281
		c7.84-3.771,11.318-13.785,17.762-19.294c5.398-4.614,12.686-7.174,19.763-6.179c4.813,0.676,12.702,3.756,13.929,9.116
		c0.697,3.043-0.704,6.911-0.857,9.995c-0.213,4.306,0.923,9.016,3.724,12.367c5.776,6.909,15.537,6.156,22.187,11.589
		c3.427,2.8,5.608,8.107,5.576,12.477c-0.025,3.511-2.885,6.189-5.344,8.292c-5.103,4.367-11.688,7.772-14.086,14.486
		c-0.101,0.283-0.171,0.563-0.254,0.844c-6.281-2.875-7.697-9.568-8.16-16.568c-0.531-8.011,0.115-16.158-1.924-24.005
		c-1.912-7.362-7.306-12.268-14.6-14.114c-7.009-1.775-13.74,1.283-19.247,5.414C300.757,290.517,286.697,309.019,272.605,295.648z
		 M283.117,306.253c0.219,0.003,0.444-0.002,0.666-0.003c-1.752,5.628-3.298,11.273-4.498,16.947
		C278.035,318.063,281.257,310.875,283.117,306.253z M304.157,395.251c-11.32-6.017-17.326-20.717-20.366-32.428
		c-5.018-19.332-0.504-38.657,5.428-57.194c13.353-3.214,20.322-18.253,33.251-22.415c7.584-2.442,14.837,2.402,16.974,9.629
		c2.294,7.76,1.217,16.362,1.85,24.344c0.783,9.869,4.589,18.662,14.814,21.253c1.591,1.962,3.778,4.728,2.542,7.167
		c-0.935,1.846-2.798,3.385-4.156,4.985c-3.653,2.029-6.798,4.932-8.373,8.806c-2.674,6.575-4.599,13.16-7.974,19.501
		C331.657,391.091,318.542,402.897,304.157,395.251z M400.956,452.516c-0.791,2.36-1.852,4.64-3.185,6.728
		c-0.778,0.489-1.192,1.154-1.311,1.876c-1.942,2.53-4.345,4.677-7.226,6.191c-7.23,3.798-16.108,5.324-24.069,6.683
		c-8.391,1.433-16.939,2.047-25.444,2.166c-6.33,0.089-13.148,0.001-18.832-3.118c-7.482-4.105-5.413-12.581-2.455-18.911
		c1.082-2.316,0.83-3.898,0.275-6.395c-0.905-4.071-4.229-5.809-1.913-10.215c3.042-5.786,3.41-10.102-0.439-15.413
		c-5.314-7.333,4.799-15.661,11.643-16.274c1.232,0,2.116-0.53,2.675-1.288c4.871-1.011,9.669-1.9,14.704-0.811
		c5.306,1.148,10.486,2.95,15.987,2.692c9.724-0.457,14.173-10.342,9.429-18.22c-2.202-3.656-5.648-6.37-8.032-9.881
		c-2.746-4.044-1.615-11.365-0.763-15.805c0.966-5.037,2.939-8.996,7.302-11.785c4.773-3.05,10.686-4.527,16.303-4.605
		c5.797-0.081,11.728,3.18,8.873,9.687c-2.379,5.423-6.942,9.746-9.874,14.872c-3.765,6.581-4.331,13.58-2.565,20.439
		c0,0.131,0.007,0.264,0.032,0.404c0.52,2.893,1.707,5.466,3.202,7.978c0.092,0.154,0.196,0.283,0.306,0.398
		c4.102,7.636,10.013,14.281,14.046,21.972C404.675,431.511,404.348,442.399,400.956,452.516z M400.026,409.084
		c-4.631-6.852-10.145-13.547-11.876-21.827c-0.354-1.692-0.41-3.317-0.243-4.888c12.691,7.082,16.893,24.117,18.578,37.798
		C404.683,416.314,402.426,412.636,400.026,409.084z"/>
	<path fill="#003E48" d="M331.262,351.468c-0.005-0.016-0.013-0.028-0.018-0.044c-0.01-0.097-0.023-0.193-0.046-0.287l0,0
		c-0.001-0.004-0.002-0.008-0.003-0.011c-0.026-0.106-0.059-0.208-0.1-0.309l0,0c-0.003-0.008-0.007-0.016-0.011-0.024
		c-0.086-0.201-0.2-0.386-0.349-0.547c-0.004-0.004-0.008-0.007-0.012-0.011c-0.078-0.083-0.17-0.153-0.265-0.22
		c0.402,7.26-5.847,13.093-12.028,15.935c-5.135,2.362-13.074,4.012-19.101,2.856c0.082,0.494,0.384,0.954,0.994,1.254
		c1.271,0.624,2.613,1.055,3.993,1.334c0.278,0.166,0.612,0.273,1.016,0.273c0.012,0,0.022-0.003,0.034-0.003
		c6.939,2.122,14.878,2.496,21.175-1.614C332.892,365.905,333.189,358.072,331.262,351.468z M322.913,367.568
		c-1.21,0.675-2.517,1.123-3.875,1.397c3.469-1.783,6.565-4.321,8.802-7.35C327.146,363.987,325.622,366.057,322.913,367.568z"/>
	<path fill="#003E48" d="M309.009,381.94c-0.994-0.448-2.143-0.296-2.736,0.718c-0.031,0.054-0.052,0.115-0.077,0.173
		c1.848,0.689,3.412,1.891,4.561,3.673c0.875,1.357,1.434,2.994,1.472,4.63c0.025-0.015,0.049-0.03,0.075-0.044
		c0.078-0.044,0.157-0.086,0.226-0.14c0.028-0.022,0.05-0.048,0.076-0.072c0.071-0.062,0.14-0.125,0.199-0.197
		c0.016-0.019,0.027-0.041,0.042-0.06c0.063-0.083,0.121-0.168,0.17-0.26c0.006-0.012,0.01-0.024,0.016-0.036
		c0.052-0.104,0.097-0.21,0.131-0.322c0.001-0.003,0.002-0.007,0.003-0.01c0.074-0.243,0.105-0.498,0.094-0.754c0,0,0,0,0,0
		c0.045-0.176,0.077-0.362,0.073-0.572C313.281,385.656,311.784,383.189,309.009,381.94z"/>
	<path fill="#003E48" d="M303,425.5c-7.094,0-7.094,11,0,11S310.094,425.5,303,425.5z"/>
	<path fill="#003E48" d="M302,448c-6.449,0-6.449,10,0,10S308.449,448,302,448z"/>
</g>
<g id="Слой_28">
	<path fill="#FCFCFC" d="M404.698,468.262L404.698,468.262c-0.056-0.252-0.129-0.498-0.219-0.738
		c-0.001-0.004-0.003-0.008-0.004-0.011c-0.178-0.469-0.421-0.908-0.731-1.3c-0.013-0.016-0.024-0.032-0.037-0.048
		c-0.149-0.184-0.314-0.357-0.493-0.517c-0.022-0.02-0.046-0.038-0.068-0.058c-0.364-0.311-0.787-0.567-1.269-0.753
		c-0.041-0.016-0.081-0.033-0.123-0.048c-0.233-0.082-0.48-0.148-0.74-0.195c-0.049-0.009-0.1-0.015-0.15-0.023
		c-0.275-0.042-0.559-0.071-0.863-0.071c-0.285,0-0.553,0.026-0.813,0.063c-0.056,0.008-0.113,0.016-0.168,0.026
		c-0.249,0.044-0.488,0.102-0.714,0.178c-0.03,0.01-0.057,0.023-0.087,0.034c-0.209,0.075-0.407,0.164-0.595,0.265
		c-0.031,0.017-0.063,0.031-0.093,0.048c-0.202,0.114-0.39,0.243-0.566,0.383c-0.023,0.018-0.044,0.038-0.067,0.056
		c-0.361,0.301-0.665,0.652-0.913,1.041c-0.008,0.013-0.017,0.026-0.025,0.04c-0.253,0.406-0.446,0.849-0.578,1.313l0,0
		c-12.933,20.88-39.802,24.003-61.923,19.213c-6.863-1.486-13.638-3.378-20.629-4.195c-7.184-0.84-14.251-0.476-21.409,0.431
		c-14.057,1.781-27.683,4.996-41.57,0.463c-15.933-5.201-20.134-25.095-21.359-39.622c-1.387-16.453,0.34-33.142,2.83-49.408
		c0.09-0.589,0.087-1.146,0.009-1.667c0.071-2.553-1.536-5.162-4.83-5.162c-1.932,0-3.281,0.901-4.055,2.159
		c-0.371,0.529-0.641,1.195-0.766,2.012c-2.633,17.202-4.495,34.657-3.187,52.067c1.285,17.105,6.067,35.874,21.284,45.794
		c10.414,6.789,24.041,6.987,35.93,5.62c15.303-1.759,29.236-4.558,44.588-1.269c13.233,2.835,25.861,5.914,39.495,4.468
		c11.432-1.212,22.646-5.062,31.84-12.06c5.148-3.918,9.357-8.727,12.688-14.267C405.238,470.993,405.241,469.502,404.698,468.262z"
		/>
</g>
</svg>
