<?xml version="1.0" encoding="utf-8"?>
<!-- Generator: Adobe Illustrator 17.0.0, SVG Export Plug-In . SVG Version: 6.00 Build 0)  -->
<!DOCTYPE svg PUBLIC "-//W3C//DTD SVG 1.1//EN" "http://www.w3.org/Graphics/SVG/1.1/DTD/svg11.dtd">
<svg version="1.1" xmlns="http://www.w3.org/2000/svg" xmlns:xlink="http://www.w3.org/1999/xlink" x="0px" y="0px" width="612px"
	 height="792px" viewBox="0 0 612 792" enable-background="new 0 0 612 792" xml:space="preserve">
<g id="Слой_2">
	<rect fill="#020100" width="612" height="792"/>
</g>
<g id="Слой_5">
</g>
<g id="Слой_6">
</g>
<g id="Слой_7">
</g>
<g id="Слой_8">
</g>
<g id="Слой_9">
</g>
<g id="Слой_10">
	<path fill="#4397A7" d="M342.5,245c6.404,5.289,9.319,12.655,3.217,18.864c-5.033-5.041-6.862-10.947-3.717-17.364"/>
	<path fill="#4397A7" d="M360,243c5.527,5.062,7.44,11.099,3.525,17.468c-7.867-3.389-9.211-9.848-4.025-16.718"/>
	<path fill="#4397A7" d="M368,244c3.038,5.213,5.607,10.026,9.417,14.745c-4.705-1.289-9.388,0.728-14.167,1.505"/>
</g>
<g id="Слой_11">
	<path fill="#84BBCB" d="M347,265.5c-1.803-4.004-5.466-7.577-7.707-11.061c-2.938,3.817-5.902,9.926-7.005,14.336
		c5.009-1.796,10.969-2.01,14.962-3.025"/>
</g>
<g id="Слой_12">
	<path fill="#84BBCB" d="M352.75,248.25c4.104,4.747,6.981,8.956,10.481,14.194c-7.093-0.382-9.663-0.269-16.393,1.024
		c1.428-5.182,3.154-10.819,5.912-15.468"/>
</g>
<g id="Слой_14">
	<path fill="#A1D1E0" d="M168,404.25c-2.18,9.089-10.646,13.327-17.876,18.255c9.419,1.494,19.054,4.338,27.845,7.462
		c-3.019-8.439-4.167-20.988-10.719-25.967"/>
</g>
<g id="Слой_13">
	<path fill="#84BBCB" d="M169.25,407.25c-1.879,2.895-2.656,7.925-3.92,11.319c3.192,3.667,7.705,8.108,12.132,10.674
		c-1.76-7.384-4.485-14.575-7.462-21.493"/>
</g>
<g id="Слой_15">
	<path fill="#972E00" d="M342.667,305.667c-6.81,14.62,1.432,30.026,5.733,43.948c0.06-0.021,0.873,0.315,0.925,0.431
		c2.62-1.284,8.611-6.426,10.625-8.88c-4.714-11.369-6.82-23.894-5.949-36.05c-4.768-0.902-8.219,0.353-12.333,2.216"/>
</g>
<g id="Слой_16">
	<path fill="#340601" d="M354,278c-0.199,7.779,2.288,16.436,4.306,23.692c8.895,0.04,18.146,0.023,27.204-0.05
		c-2.699-9.679-4.056-21.028-4.527-31.274c-9.336,2.378-18.476,6.43-27.65,8.966"/>
	<path fill="#340601" d="M399.667,406c4.697,24.019,14.18,48.939-19.852,54.632c-7.305-16.778,12.189-41.214,18.595-56.93
		c0.849,1.117,1.407,4.353,2.257,5.965"/>
</g>
<g id="Слой_17">
	<path fill="#5E1300" d="M358.333,277c1.256,8.34,2.232,16.851,4.908,24.258c-9.592,0.991-19.783,2.253-28.615,4.467
		c-0.065-3.94-1.959-8.238-1.827-12.014c10.396-3.451,7.725-8.032-1.648-14.31c8.651,0.588,18.354-0.17,26.182-2.068"/>
	<path fill="#5E1300" d="M380,446c2.1,3.545,2.852,9.535,4.291,13.275c-3.987,1.055-10.114,2.172-14.247,1.667
		c5.705-3.598,5.974-9.73,9.289-13.942"/>
	<path fill="#5E1300" d="M368.667,374.333c3.443-1.122,7.381-1.513,10.948-1.973c3.577,8.311,9.973,15.736,18.092,20.27
		c-0.674,3.567-1.751,6.84-3.399,9.986c-12.806-3.923-22.067-15.045-26.308-26.949"/>
</g>
<g id="Слой_18">
	<path fill="#5E1300" d="M188.333,345.667c-13.381,18.064-16.476,45.764-8.275,66.639c2.589-0.295,10.375-2.757,12.406-3.932
		c-8.088-14.791-7.573-44.502-3.464-61.707"/>
	<path fill="#5E1300" d="M207,450.333c9.872,12.791,28.537,21.271,36.129,32.906c-16.809-3.581-34.627-16.713-45.43-29.84
		c3.811-0.968,5.292-3.561,8.3-5.066"/>
</g>
<g id="Слой_19">
	<path fill="#972E00" d="M188,348c-6.322,20.294-10.603,42.977-4.709,64.283c-2.802,0.92-6.843,1.606-9.867,1.657
		c-0.055-0.261-0.908-0.727-1.124-0.757c-1.568-24.087-1.517-45.257,13.033-63.516"/>
	<path fill="#972E00" d="M201,453c10.034,13.637,25.581,20.185,38.468,30.983c-15.428-7.929-36.131-10.707-43.517-27.648
		c2.205-1.274,4.72-2.116,6.715-3.335"/>
</g>
<g id="Слой_20">
	<path fill="#FFB4B4" d="M193.667,411.333c-8.329,15.771,6.924,19.112,12.69,31.064c19.379-13.096,4.289-33.278-12.69-31.73"/>
</g>
<g id="Слой_21">
	<path fill="#FFCCCC" d="M190.501,410.333c-2.352-0.051-11.46,3.121-15.757,3.111c-0.508,5.817,1.412,15.424,4.129,20.513
		c3.357-0.066,7.005,0.4,10.421,0.458c0.124,0.114,0.25,0.227,0.377,0.338c0.863,7.746,6.71,13.656,9.113,20.968
		c8.051-4.212,9.03-6.927,10.425-14.577c-0.784-0.749-3.485,0.75-4.242-0.348c-5.921-9.95-17.273-14.851-14.089-29.449"/>
</g>
<g id="Слой_22">
	<path fill="#FFE2E2" d="M181.667,434.333c3.996-0.632,7.366,1.368,11.273,0.041c1.856,4.734,4.146,15.483,4.676,20.892
		c-4.866,0.276-8.388-0.447-12.843-2.406c-2.41-6.724-3.882-14.285-2.773-18.859"/>
</g>
<g id="Слой_26">
	<path fill="#00B1C2" d="M366.667,340.667c20.418-1.465,49.954-5.748,59.051,17.091c-19.602,13.546-51.139,19.597-75.317,18.209
		c-18.488-12.649-1.412-29.376,14.6-34.3"/>
</g>
<g id="Слой_27">
	<path fill="#008FA2" d="M359.667,344.667c18.571-3.761,57.284-5.766,65.578,13.972c13.552-9.426,23.4-26.054,6.122-37.58
		c-18.042-12.036-60.673,9.926-72.699,22.275"/>
</g>
<g id="Слой_28">
	<path fill="#007785" d="M358.333,303.333c-4.552,12.917-4.464,28.999,3.757,38.714c14.942-12.227,75.879-34.999,76.885,0.866
		c19.967-41.985-57.509-41.593-79.975-38.58"/>
	<path fill="#007785" d="M380,373.333c4.078,7.568,11.078,14.164,18.935,18.049c2.234-5.59,3.701-15.109,3.62-21.114
		c-7.734,1.975-15.448,1.628-23.221,3.065"/>
	<path fill="#007785" d="M377.667,394c8.203,10.679,8.653,24.581,8.669,37.738c4.001-8.763,8.619-18.404,11.332-27.329
		c-5.911-1.91-12.543-6.732-18.335-7.742"/>
</g>
<g id="Слой_29">
	<path fill="#008FA2" d="M291.667,341.667c-14.411,36.55-7.303,157.213,59.432,132.701c12.55-4.61,31.193-32.299,34.586-45.701
		c5.698-22.506-6.842-37.836-20.63-53.296c-4.938,1.887-10.592,0.111-15.483,2.537c-1.672-2.143-6.582-11.009-7.576-14.105
		c12.3-10.783,2.01-45.075-5.985-56.884c-3.418,22.77-25.534,29.834-45.343,35.081"/>
</g>
<g id="Слой_30">
	<path fill="#00B1C2" d="M299.42,345.701c-0.015-0.028-0.026-0.058-0.042-0.086c-0.104-0.189-0.162-0.375-0.201-0.557
		c-8.027-5.247-16.138-10.664-22.378-17.946c-21.483,7.924-37.315,33.301-52.274,49.963c-9.484,10.564-29.939,27.902-16.169,38.901
		c10.714,8.558,47.161-10.354,55.627-19.413c-0.364,11.03,3.884,21.078,7.017,31.562c6.463,21.624,12.48,42.845,35.832,52.385
		c16.574,6.772,47.29,3.673,54.553-15.518C295.474,494.452,289.8,387.18,299.42,345.701z"/>
</g>
<g id="Слой_23">
	<path fill="#FFB4B4" d="M341,364c-5.785,11.673-15.641,22.082-15.641,35.95c17.679-2.229,29.963-22.814,15.308-35.616"/>
</g>
<g id="Слой_24">
	<path fill="#FFCCCC" d="M337,363c-16.396,2.981-28.767,26.045-11.717,36.141c1.907-12.365,12.929-20.775,24.982-22.384
		c-3.987-6.291-9.341-11.116-14.599-13.757"/>
</g>
<g id="Слой_25">
	<path fill="#FFE2E2" d="M339.813,363.263c-28.156-3.085-41.488,8.593-38.998,19.861c0.062,0,0.119-0.008,0.185-0.002
		c2.265,0.195,4.697,0.971,5.67,3.251c0.735,1.723,0.824,3.66,1.618,5.346c0.296,0.628,0.23,1.23-0.027,1.721
		c4.05,2.961,9.696,5.394,16.984,6.824C315.598,386.994,324.152,368.025,339.813,363.263z"/>
</g>
<g id="Слой_32">
	<path fill="#FFCCCC" d="M263.333,294.333c5.571,20.782,42.659,59.661,64.25,33.482c14.056-17.043-10.985-54.031-25.642-64.231
		C276.018,245.542,254.559,268.917,263,296"/>
</g>
<g id="Слой_31">
	<path fill="#FFB4B4" d="M275.667,266.667c32.813-0.884,43.865,35.512,54.398,59.982c2.862-9.327,4.697-20.466,3.552-30.672
		c26.073-18.626-72.471-79.796-62.283-33.976"/>
</g>
<g id="Слой_33">
	<path fill="#FFE2E2" d="M267.667,289.333c7.362,22.745,34.072,46.776,59.761,39.627c-26.579,41.279-57.355-10.795-74.555-29.17
		c10.631,0.155,10.784-5.814,15.128-9.79"/>
</g>
<g id="Слой_34">
	<path fill="#FF6B28" d="M308,235.667c-5.338,2.879-10.265,8.926-13.999,13.352c12.682,10.945,20.321,33.16,40.409,32.706
		c-12.264-22.685,30.29-55.695-26.077-45.058"/>
</g>
<g id="Слой_35">
	<path fill="#FF8337" d="M259.68,223.829c-17.071,13.645-1.785,42.024-21.307,52.432c23.915,21.691,27.241,0.859,38.013-11.741
		c-0.217-0.37-0.314-0.825-0.197-1.353c1.163-5.238,4.694-9.775,9.368-11.996c0.122-0.064,0.244-0.123,0.368-0.181
		c0.09-0.04,0.181-0.076,0.271-0.114c0.237-0.101,0.476-0.195,0.72-0.272c1.996-0.721,4.158-1.04,6.417-0.817
		c0.57,0.056,1.001,0.317,1.3,0.672c5.897-3.802,11.771-7.784,16.391-13.268C294.791,227.813,279.941,207.634,259.68,223.829z"/>
</g>
<g id="Слой_36">
	<path fill="#FF9D45" d="M241.667,271.333c9.429,4.224,20.8,4.487,31.039,1.282c-10.713,62.109-67.177,4.957-45.739-11.879
		c0.888,10.572,7.209,14.46,17.7,12.597"/>
</g>
<g id="Слой_37">
	<path fill="#00232E" d="M304.5,401.5c-9.028,0-9.028,14,0,14S313.528,401.5,304.5,401.5z"/>
</g>
<g id="Слой_3">
	<path fill="#00232E" d="M277.96,307.26c-0.485-1.43-1.464-2.545-2.301-3.772c-0.301-0.442-0.676-0.725-1.077-0.902
		c0.467-0.641,0.844-1.4,1.097-2.305c0.204-0.729,0.011-1.33-0.373-1.76c-1.972,3.644-5.675,5.466-9.713,5.845
		c0.251,0.419,0.632,0.745,1.126,0.813c1.24,0.17,2.458,0.17,3.585-0.036c-0.016,0.253-0.01,0.512,0.036,0.772
		c0.505,2.858,1.024,5.415,3.393,7.353c1.399,1.144,3.664,0.859,4.178-1.103C278.335,310.546,278.507,308.872,277.96,307.26z"/>
	<path fill="#00232E" d="M295.659,293.488c-0.329-0.709-1.048-1.099-1.806-1.192c-0.083-0.065-0.171-0.119-0.261-0.171
		c0.209-0.294,0.408-0.605,0.586-0.952c1.322-2.593,1.384-5.589,2.483-8.258c0.176-0.428,0.159-0.877,0.023-1.301
		c-2.875,0.703-3.514,5.574-4.589,7.854c-1.461,3.097-4.003,4.866-7.435,3.885c0.226,0.638,0.758,1.154,1.676,1.308
		c1.221,0.205,2.387,0.207,3.454-0.023c0.015,0.092,0.025,0.182,0.05,0.277c0.71,2.689,1.076,5.502,3.393,7.353
		c1.408,1.125,3.659,0.873,4.178-1.103c0.365-1.389,0.427-2.775-0.035-4.149C296.958,295.776,296.207,294.67,295.659,293.488z"/>
	<path fill="#00232E" d="M297.689,315.939c-1.517,1.806-3.329,2.609-5.486,2.638c-0.283-4.551-2.453-8.567-5.893-11.638
		c-0.514-0.459-1.113-0.479-1.609-0.263c1.517,2.472,3.62,4.594,4.319,7.497c0.515,2.14,0.695,4.328,0.37,6.484
		c0.201,0.435,0.6,0.7,1.051,0.771c0.097,0.032,0.199,0.057,0.308,0.072c3.512,0.463,6.771-0.714,9.061-3.439
		C301.046,316.59,298.935,314.456,297.689,315.939z"/>
	<path fill="#00232E" d="M313.477,300.741c-0.573-0.887-1.495-1.064-2.286-0.821c4.843,9.04,3.178,24.534-8.059,27.128
		c0.44,0.482,1.095,0.777,1.9,0.631C318.314,325.273,319.877,310.642,313.477,300.741z"/>
	<path fill="#00232E" d="M310.333,424.5c-8.383,0-8.383,13,0,13C318.717,437.5,318.717,424.5,310.333,424.5z"/>
	<path fill="#FFFFFF" d="M444.442,326.575c-5.533-18.122-27.531-24.357-44.004-26.689c-2.982-0.422-5.98-0.737-8.988-0.971
		c-1.054-9.657-2.61-19.251-3.617-28.914c-0.122-1.168-0.605-2.086-1.276-2.78c-0.36-0.717-1.011-1.188-1.776-1.407
		c-0.706-0.461-1.627-0.604-2.712-0.188c-2.77,1.063-5.574,2.061-8.405,2.986c-1.233-3.225-2.099-6.534-2.457-9.972
		c2.326,0.719,4.702,1.207,7.126,1.528c1.001,0.132,1.466-0.626,1.417-1.416c0.173-0.471,0.113-1.018-0.357-1.478
		c-5.604-5.491-8.871-12.331-10.281-20.005c-0.297-1.615-2.42-1.271-2.842,0.026c-0.087,0.197-0.131,0.429-0.104,0.706
		c0.369,3.733,0.24,7.331-0.388,10.822c-2.115-2.579-3.885-5.372-4.999-8.554c-0.507-1.448-2.453-1.239-2.892-0.166
		c-0.206,0.228-0.352,0.526-0.388,0.898c-0.305,3.128-0.858,6.201-1.672,9.23c-1.12-2.376-1.924-4.923-2.381-7.629
		c-0.097-0.573-0.428-0.896-0.832-1.022c-0.895-0.713-2.547-0.357-2.448,1.088c0.218,3.184,0.019,6.229-0.534,9.191
		c-2.354-2.401-3.891-5.208-4.519-8.59c-0.143-0.768-0.701-1.088-1.292-1.079c-1.476-5.869-7.604-9.526-14.041-9.786
		c-8.782-0.355-16.689,4.007-25.046-0.469c-6.551-3.509-11.486-9.481-17.668-13.564c-6.563-4.335-14.125-5.014-21.419-2.179
		c-9.517,3.699-15.29,11.207-17.54,20.993c-2.252,9.795-0.53,21.083-5.932,29.954c-4.729,7.766-14.553,1.484-8.555-6.016
		c0.52-0.65,0.713-1.359,0.695-2.042c0.652-1.868-0.933-4.642-3.614-4.223c-13.562,2.121-13.861,16.562-9.722,26.881
		c4.654,11.602,15.057,23.638,28.391,24.207c1.518,0.065,2.945-0.034,4.293-0.267c0.025,0.029,0.041,0.06,0.068,0.089
		c5.949,6.432,10.538,13.928,15.885,20.809c-0.143,0.089-0.287,0.169-0.425,0.282c-2.689,2.189-5.323,4.433-7.928,6.705
		c-18.936-17.124-38.324-33.717-59.417-48.154c-0.118-0.081-0.234-0.131-0.35-0.192c-5.22-6.013-13.202-7.334-21.011-3.141
		c-3.41,1.831-0.38,7.01,3.028,5.181c10.743-5.767,16.526,4.416,18.415,13.789c2.393,11.877-3.707,22.571-10.032,32.221
		c-0.285,0.273-0.52,0.622-0.693,1.049c-0.181,0.274-0.363,0.551-0.544,0.824c-8.178,12.312-16.681,23.599-20.052,38.279
		c-1.694,7.378-2.294,15.04-1.98,22.67c-0.852,0.305-1.511,1.048-1.461,2.246c0.467,11.166-11.909,17.674-20.831,21.256
		c-2.523,1.013-1.945,4.68,0.143,4.98c0.256,0.125,0.535,0.223,0.855,0.264c9.726,1.233,21.087,3.192,29.405,8.659
		c0.323,0.212,0.642,0.332,0.951,0.385c0.079,0.041,0.168,0.057,0.251,0.088c-0.005,0.013-0.013,0.024-0.018,0.037
		c-2.087,5.898,0.81,9.702,5.225,11.634c-4.256,6.395,2.908,11.557,9.92,11.988c0.089,0.185,0.2,0.371,0.341,0.557
		c9.913,13.076,25.606,18.495,39.642,25.874c8.698,4.573,14.588,9.771,16.776,19.689c0.868,3.934,1.191,7.591-0.154,11.396
		c-0.937,2.652-3.966,8.06-6.751,4.346c-2.291-3.056-7.505-0.07-5.181,3.028c5.215,6.954,11.904,4.548,16.024-2.135
		c1.387-2.251,2.198-4.707,2.583-7.25c0.081-0.093,0.166-0.174,0.241-0.281c9.955-14.244,18.978-28.883,27.348-44.017
		c5.594,6.601,12.91,11.721,20.839,15.101c26.364,11.237,48.383,0.134,64.804-18.727c0.304,0.138,0.635,0.254,1.022,0.319
		c15.469,2.614,30.596-9.982,39.558-21.362c0.597-0.758,0.879-1.578,0.923-2.38c0.159-0.559,0.211-1.174,0.106-1.845
		c-2.355-14.944-5.337-29.777-8-44.667c-0.16-0.895-0.539-1.554-1.038-2.023c1.235-6.924,2.105-13.916,2.681-20.914
		c0.033-0.402-0.01-0.755-0.085-1.085c3.528-1.01,7.008-2.206,10.415-3.684C430.894,360.735,450.426,346.176,444.442,326.575z
		 M379.307,274.067c0.043,0.365,0.083,0.73,0.128,1.095c-0.192,7.831,0.864,15.691,2.752,23.297
		c-15.281-0.305-30.68,1.508-45.534,4.643c-0.13-2.312-0.397-4.612-0.816-6.864c3.683-0.35,7.097-2.054,6.719-6.544
		c-0.228-2.707-1.731-5.216-3.713-7.291C352.623,281.717,366.294,278.646,379.307,274.067z M357.324,341.159
		c-2.053,1.331-4.057,2.752-5.954,4.286c-2.522-5.701-4.303-11.762-5.78-17.8c-1.234-5.043-3.642-13.18-1.234-18.213
		c0.126-0.263,0.215-0.523,0.277-0.78c2.578-0.464,5.167-0.861,7.76-1.227C349.889,319.046,351.639,330.63,357.324,341.159z
		 M336.667,275.5c-0.781,0.025-1.419,0.265-1.929,0.63c-0.557-1.958-0.68-3.801-0.51-5.571c1.965-0.994,3.902-2.073,5.674-3.378
		c0.232,2.71,0.264,5.425,0.265,8.146C339.001,275.4,337.835,275.463,336.667,275.5z M346.554,269.399
		c0.25,1.75,0.516,3.494,0.895,5.217c-1.425,0.182-2.852,0.347-4.283,0.478c-0.002-2.635-0.038-5.266-0.262-7.891
		c1.237,0.529,2.538,0.881,3.864,1.144C346.59,268.637,346.495,268.991,346.554,269.399z M357.189,263.487
		c1.578,0.722,3.296,0.937,4.869,0.302c0.348,2.611,0.831,5.197,1.389,7.773c-1.384,0.349-2.772,0.685-4.165,0.994
		C358.584,269.532,357.887,266.51,357.189,263.487z M369.03,247.34c1.422,3.281,3.284,6.342,5.591,9.132
		c-1.118-0.268-2.224-0.584-3.315-0.949c-0.236-0.216-0.558-0.356-0.972-0.356c-0.036,0-0.067,0.009-0.102,0.011
		c-0.863-0.218-1.459,0.373-1.611,1.098c-0.839,0.893-1.755,1.671-2.748,2.334C367.488,254.972,368.532,251.214,369.03,247.34z
		 M368.443,260.462c0.455,3.099,1.235,6.108,2.367,9.053c-1.48,0.454-2.969,0.878-4.463,1.286c-0.594-2.731-1.118-5.473-1.443-8.25
		C366.155,261.969,367.346,261.285,368.443,260.462z M358.446,252.065c0.627-2.157,1.092-4.343,1.454-6.549
		c1.304,2.338,2.906,4.492,4.706,6.544c0.113,0.129,0.234,0.221,0.357,0.296c-0.437,1.539-0.986,3.057-1.63,4.559
		c-0.09-0.104-0.175-0.21-0.272-0.31c-0.568-0.588-1.551-0.571-2.121,0c-0.173,0.173-0.277,0.382-0.346,0.6
		c-1.213-1.286-2.286-2.661-3.207-4.123C357.854,252.982,358.273,252.662,358.446,252.065z M352.837,251.011
		c1.719,3.855,4.235,7.304,7.512,10.152c-1.695,0.268-3.508-1.234-4.622-2.557c-0.673-0.799-1.593-0.543-2.107,0.089
		c-0.219,0.114-0.421,0.287-0.582,0.547c-0.788,1.277-1.997,1.983-3.352,2.326C351.223,258.143,352.293,254.639,352.837,251.011z
		 M353.928,262.689c0.806,3.493,1.612,6.987,2.419,10.48c-1.964,0.391-3.936,0.732-5.913,1.032c-0.413-1.793-0.7-3.608-0.962-5.433
		c0.056,0.007,0.112,0.016,0.169,0.023c0.112,0.026,0.23,0.043,0.36,0.043c0.919,0.098,1.389-0.537,1.427-1.248
		c0.108-0.738-0.26-1.558-1.113-1.721c-0.425-0.375-0.836-0.761-1.237-1.153C350.882,264.471,352.568,263.826,353.928,262.689z
		 M343.651,248.524c1.092,2.33,2.663,4.407,4.622,6.203c0.194,0.178,0.401,0.287,0.61,0.349c-0.635,2.229-1.492,4.416-2.553,6.582
		c-1.915-2.425-3.462-5.108-4.662-8.006C342.471,252.004,343.171,250.306,343.651,248.524z M345.066,264.831
		c-1.008-0.346-1.979-0.8-2.893-1.408c-0.057-0.082-0.122-0.157-0.196-0.226c-0.007-0.006-0.013-0.013-0.02-0.019
		c-0.067-0.059-0.141-0.111-0.221-0.156c-0.017-0.01-0.033-0.021-0.051-0.03c-0.075-0.038-0.158-0.068-0.244-0.092
		c-0.026-0.008-0.049-0.018-0.076-0.024c-0.113-0.026-0.234-0.042-0.365-0.042c-0.041,0-0.072,0.015-0.111,0.019
		c-0.117,0.005-0.235,0.022-0.352,0.059c-0.009,0.003-0.02,0.002-0.028,0.005c-0.027,0.009-0.055,0.016-0.081,0.026
		c-0.039,0.016-0.067,0.043-0.104,0.061c-0.059,0.03-0.117,0.063-0.175,0.104c-0.025,0.018-0.057,0.028-0.081,0.048
		c-0.021,0.017-0.038,0.036-0.058,0.054c-0.006,0.005-0.009,0.013-0.014,0.019c-0.019,0.017-0.038,0.027-0.057,0.045
		c-1.447,1.396-3.134,2.49-4.888,3.465c1.097-3.339,3.026-6.491,4.849-9.746C341.286,259.826,343.001,262.456,345.066,264.831z
		 M249.372,299.946c-12.876,0.012-22.724-15.946-24.738-27.05c-0.585-3.227-0.227-6.136,1.157-8.332
		c-0.649,3.773,0.347,7.578,4.074,10.231c6.304,4.489,13.47,1.047,17.492-4.629c5.911-8.342,4.603-20.575,6.29-30.163
		c1.905-10.82,10.296-20.031,21.934-19.618c7.702,0.274,13.955,7.516,19.475,12.046c6.031,4.948,12.659,8.435,20.661,7.669
		c4.719-0.452,9.298-1.655,14.063-1.696c7.444-0.064,9.628,5.922,6.832,12.062c-2.044,4.49-5.296,8.354-7.086,12.972
		c-1.642,4.237-1.923,9.378-0.703,13.886c-7.743-0.503-12.141-8.173-16.15-14.512c-4.623-7.309-9.276-12.897-17.603-15.924
		c-15.37-5.588-21.849,9.541-24.86,21.636C267.318,280.138,265.484,299.931,249.372,299.946z M258.803,303.959
		c8.708-4.485,12.979-15.683,15.16-25.045c1.624-6.971,2.81-14.338,6.067-20.782c3.394-6.712,9.043-7.516,15.626-4.586
		c8.345,3.714,11.871,13.137,17.031,20.071c4.891,6.574,11.125,10.336,19.118,9.551c2.028,1.254,3.706,2.848,4.992,4.906
		c2.21,3.538-1.289,3.411-4.047,3.177c-1.669-0.142-2.779,1.697-2.411,3.165c5.03,20.058-2.813,44.709-26.395,45.954
		C281.095,341.575,271.551,318.738,258.803,303.959z M274.065,331.872c1.313,1.432,2.684,2.818,4.151,4.126
		c7.997,7.128,18.845,10.405,29.44,9.033c18.578-2.406,27.719-18.17,28.947-34.918c0.119,0.006,0.241,0.002,0.363-0.001
		c-1.04,5.489,0.214,11.556,1.295,16.83c1.648,8.038,4.219,16.063,7.716,23.491c0.001,0.003,0.003,0.005,0.005,0.008
		c-2.659,2.862-4.909,6.037-6.546,9.567c-7.646,0.069-15.253,0.671-22.808,1.861c-6.438,1.014-12.096,2.813-15.989,7.731
		c-11.449-10.341-22.749-20.895-34.17-31.313C268.965,336.115,271.49,333.969,274.065,331.872z M306.107,380.536
		c-0.784,2.129-1.611,1.044-2.392-0.154c-1.22-1.872,0.104-4.662,0.998-6.309c2.121-3.901,6.438-5.016,10.415-5.853
		c8.07-1.7,16.454-2.165,24.686-2.217c1.698,4.263,4.238,8.014,7.434,11.293c-3.102,5.389-7.493,10.192-12.041,14.334
		c-2.62,2.386-5.656,4.665-9.141,5.541c-3.723,0.936-4.886-3.605-5.507-6.301c-0.589-2.56-4.227-2.908-5.483-0.717
		c-1.375,2.399-3.999,4.218-4.469,0.024c-0.299-2.672,0.447-5.532,1.285-8.046C313.129,378.423,307.426,376.957,306.107,380.536z
		 M261.977,342.273c11.963,10.919,23.785,21.998,35.789,32.81c-0.395,1.525-0.527,3.154-0.346,4.723
		c-9.035,2.268-18.049,4.617-27.054,7.001c0.544-1.399,1.191-2.756,1.989-4.041c2.389-3.846-3.669-7.358-6.044-3.533
		c-1.877,3.022-3.18,6.295-4.041,9.725c-17.605,4.694-35.192,9.459-52.848,13.949C224.66,380.727,242.061,360.3,261.977,342.273z
		 M199.665,428.613c0.14-0.109,0.288-0.219,0.423-0.327c3.365-2.692,5.21-6.619,5.464-10.738c0.73,0.787,1.486,1.552,2.347,2.22
		c1.835,1.424,5.191,1.191,5.994,3.398c1.58,4.347-3.172,11.981-6.821,14.009c-0.612,0.34-0.959,0.812-1.12,1.323
		c-0.122-0.032-0.243-0.067-0.368-0.094c0.086-0.401,0.153-0.811,0.174-1.24C205.971,432.809,203.487,429.42,199.665,428.613z
		 M195.173,425.705c-0.081,0.05-0.408,0.153-0.628,0.246c-0.025-0.055-0.05-0.117-0.075-0.198c-0.435-1.423-0.297-3.046-0.227-4.509
		c0.104-2.165,0.407-4.309,0.722-6.451c0.077-0.264,0.12-0.539,0.118-0.815c0.067-0.457,0.129-0.915,0.193-1.372
		c1.373-0.333,2.747-0.663,4.119-1c0.645,0.984,0.951,2.274,1.09,3.358C201.082,419.614,199.121,423.278,195.173,425.705z
		 M209.252,414.32c-1.428-1.419-2.622-2.858-4.051-4.158c17.034-4.265,33.994-8.821,50.958-13.36
		c-12.703,7.579-26.125,13.909-40.089,18.823c-0.756,0.266-1.31,0.705-1.7,1.23C212.513,416.191,210.875,415.932,209.252,414.32z
		 M190.667,373.333c0.469-12.633,2.296-25.052,6.193-37.091c3.331-4.919,6.42-9.975,8.649-15.502
		c3.234-8.02,3.69-16.356,1.429-24.41c17.47,12.664,33.83,26.739,49.843,41.222c-22.057,20.009-41.049,42.977-57.503,67.9
		c-0.106,0.026-0.212,0.053-0.319,0.079c-1.55-0.362-3.134,0.056-4.576,0.806C193.088,395.32,190.252,384.497,190.667,373.333z
		 M155.175,420.963c5.246-2.773,10.3-6.389,13.519-11.041c-0.127,2.299-0.377,4.631-0.527,7.078c-0.05,0.819,0.5,1.792,1.238,2.159
		c3.042,1.511,4.71,4.505,5.785,7.72C169.073,423.835,162.045,422.109,155.175,420.963z M176.488,410.847
		c-3.174-15.418-2.555-31.796,3.162-46.529c1.942-5.005,4.609-9.624,7.548-14.102c-1.174,6.402-1.908,12.881-2.331,19.446
		c-0.845,13.13,2.411,25.452,3.703,38.39C184.549,409.007,180.521,409.938,176.488,410.847z M179.084,423.196
		c-0.096-0.227-0.202-0.448-0.305-0.671c0.032-0.165,0.053-0.338,0.054-0.525c0.008-2.249,1.909-4.892,4.289-6.51
		c1.841-0.425,3.679-0.86,5.518-1.295c0.459,0.141,0.902,0.342,1.306,0.658c-0.179,1.17-0.355,2.346-0.494,3.525
		c-0.303,0.105-0.603,0.271-0.886,0.521C185.833,421.311,182.832,423.435,179.084,423.196z M181.273,430.419
		c-0.162-0.731-0.326-1.466-0.52-2.212c3.142-0.208,5.978-1.636,8.534-3.496c0.039,0.425,0.073,0.85,0.141,1.273
		c0.324,2.031,1.28,4.127,3.353,4.85c-3.088,2.174-7.34,2.231-10.519,0.007C181.926,430.607,181.594,430.473,181.273,430.419z
		 M182.439,436.575c5.022,1.934,11.155,0.739,14.972-3.119c4.283-0.053,4.055,4.574,0.841,6.717
		c-2.057,1.372-4.775,2.029-7.216,2.092C186.953,442.37,181.76,441.024,182.439,436.575z M191.424,452.421
		c-2.965-0.62-6.153-2.068-3.323-4.987c0.133-0.137,0.242-0.279,0.336-0.423c2.533,0.294,5.13,0.144,7.357-0.432
		c2.418-0.626,5.049-1.819,7.004-3.593c0.26,0.1,0.543,0.171,0.869,0.18c0.505,0.015,1.14-0.013,1.64,0.169
		c-0.211,0.912-0.841,1.744-1.363,2.486c-1.582,2.249-3.89,4.217-6.143,5.762C195.776,452.971,193.801,452.919,191.424,452.421z
		 M227.222,474.452c-9.839-4.747-20.534-9.51-27.656-18.093c0.101-0.055,0.205-0.105,0.303-0.164
		c2.015-1.214,4.095-2.838,5.89-4.701c3.918,8.433,11.53,13.95,19.319,18.984c4.548,2.94,9.474,5.949,13.555,9.635
		C234.84,477.991,230.849,476.201,227.222,474.452z M255.946,503.211c-0.605-2.949-1.564-5.831-2.711-8.475
		c-1.67-11.201-8.856-18.524-17.939-24.761c-9.322-6.401-21.394-11.826-25.07-23.438c-0.11-0.346-0.271-0.631-0.453-0.887
		c0.685-1.711,0.643-3.163,0.082-4.318c5.534-3.251,8.911-10.749,9.188-16.928c0.033-0.748-0.062-1.548-0.256-2.341
		c14.674-5.227,28.822-11.886,42.149-19.944c0.301,12.655,4.381,25.974,7.974,36.534c2.886,8.48,6.259,17.277,11.131,24.865
		C272.613,477.143,264.626,490.341,255.946,503.211z M284.862,454.488c-0.307,0.591-0.625,1.174-0.934,1.764
		c-2.175-3.939-3.967-8.121-5.642-12.336c-4.095-10.308-7.225-21.062-9.01-32.013c-0.948-5.813-1.543-12.317-0.639-18.43
		c10.411-2.766,20.832-5.492,31.282-8.109c0.441,0.447,0.938,0.852,1.502,1.197c1.111,0.679,2.184,1.043,3.201,1.155
		c-0.211,3.54,0.512,7.03,3.096,9.681c0.037,0.038,0.075,0.068,0.112,0.104c-0.143,0.603-0.303,1.2-0.453,1.801
		c-0.001,0.026,0.004,0.048,0.001,0.074c-0.471,5.836-2.263,11.702-5.192,16.84C297.428,429.388,291.301,442.1,284.862,454.488z
		 M322.709,481.253c-10.615-0.618-20.967-5.404-28.907-12.339c-2.364-2.065-4.398-4.363-6.192-6.825
		c1.084-2.025,2.163-4.054,3.226-6.097c7.231-13.91,14.043-28.338,18.946-43.322c0.852-1.204,1.289-2.69,1.317-4.185
		c0.959-3.191,1.818-6.409,2.579-9.65c1.006-0.325,1.986-0.865,2.887-1.537c3.372,6.108,9.774,7.401,16.956,3.112
		c7.5-4.479,14.573-12.334,18.941-20.095c0.226-0.042,0.449-0.098,0.664-0.18c0.258-0.002,0.526-0.031,0.805-0.092
		c2.961-0.647,5.954-1.178,8.958-1.664c0.106,0.239,0.241,0.48,0.422,0.722c8.13,10.891,15.944,21.898,28.775,27.17
		c-3.355,12.629-8.133,24.854-14.676,36.235C365.95,462.437,347.508,482.697,322.709,481.253z M394.823,394.311
		c-0.332,1.715-0.681,3.426-1.062,5.13c-10.149-4.406-16.71-13.487-23.175-22.217c2.382-0.327,4.769-0.64,7.154-0.958
		C381.878,383.586,387.382,390.201,394.823,394.311z M385.272,375.217c4.197-0.621,8.375-1.322,12.5-2.223
		c-0.397,4.646-0.948,9.285-1.658,13.901C391.635,383.877,388.148,379.785,385.272,375.217z M403.164,440.163
		c-6.516,7.849-17.285,17.904-27.856,17.858c10.519-14.355,18.23-31.636,22.694-46.866
		C399.801,420.811,401.601,430.466,403.164,440.163z M406.553,363.38c-17.245,5.881-35.874,5.985-53.605,9.732
		c-3.12-3.041-5.558-6.509-6.997-10.686c4.809-10.699,17.803-17.456,27.752-22.276c10.891-5.277,23.436-9.757,35.632-10.316
		c4.495-0.206,4.515-7.207,0-7c-14.003,0.641-27.874,5.802-40.366,11.854c-1.855,0.899-3.74,1.867-5.621,2.896
		c-5.147-9.602-6.444-20.065-3.638-30.653c0.037-0.139,0.044-0.267,0.065-0.4c11.05-1.14,22.189-1.366,33.271-0.479
		c15.877,1.271,36.416,5.248,44.142,21.055C445.897,344.926,419.61,358.927,406.553,363.38z"/>
</g>
</svg>
