<?xml version="1.0" encoding="utf-8"?>
<!-- Generator: Adobe Illustrator 17.0.0, SVG Export Plug-In . SVG Version: 6.00 Build 0)  -->
<!DOCTYPE svg PUBLIC "-//W3C//DTD SVG 1.1//EN" "http://www.w3.org/Graphics/SVG/1.1/DTD/svg11.dtd">
<svg version="1.1" xmlns="http://www.w3.org/2000/svg" xmlns:xlink="http://www.w3.org/1999/xlink" x="0px" y="0px" width="612px"
	 height="792px" viewBox="0 0 612 792" enable-background="new 0 0 612 792" xml:space="preserve">
<g id="Слой_2">
	<rect fill="#020100" width="612" height="792"/>
</g>
<g id="Слой_7">
	<path fill="#76220A" d="M360,406c-1.333,1.454,5.656,7.887-7.399,7.4c-0.049-0.121-0.908-1.095-0.978-1.109
		c0.017-0.467-0.747-2.057-1.183-2.301c2.175-1.035,8.889-1.889,10.56-3.49"/>
</g>
<g id="Слой_8">
	<path fill="#561708" d="M390,431c0.006-0.166,6.678,6.718,7.103,8.55c-4.425,1.275-9.583,3.404-13.992,3.862
		c-0.667-0.881-1.512-1.065-2.51-1.125c0.008-0.031-0.613-1.292-0.65-1.299c2.484-3.258,8.187-5.403,10.548-8.488"/>
</g>
<g id="Слой_9">
	<path fill="#6F1A00" d="M357.5,446c1.148,2.11,6.229,4.658,8.061,5.961c-0.467,0.399-1.129,2.167-1.222,2.791
		c-6.007,3.084-11.675,7.488-17.755,9.171c-1.619-2.645-3.027-7.753-5.022-9.836C347.819,451.985,352.284,448.861,357.5,446"/>
</g>
<g id="Слой_11">
	<path fill="#84BBCB" d="M378,460c-0.224,31.621,27.971,84.914,65.895,77.397c-0.032-0.04,0.193-2.328,0.139-2.302
		C423.231,515.732,393.66,470.593,378.5,462"/>
</g>
<g id="Слой_10">
	<path fill="#4397A7" d="M377.42,456.451c12.633,25.236,24.59,55.85,53.52,64.984c-14.017-16.708-47.66-64.623-52.99-63.891"/>
</g>
<g id="Слой_13">
	<path fill="#A1D1E0" d="M378,449.5c3.466,34.235,21.416,60.757,43.939,85.133c-30.69-5.435-65.438-70.378-43.439-82.633"/>
</g>
<g id="Слой_12">
	<path fill="#4397A7" d="M373.5,448c0.674,2.195-5.097,6.208,1.391,11.965c2.103-1.378,3.564-3.285,6.034-4.329
		c-0.007-0.272-0.048-2.875-0.01-2.913c-1.202-2.137-7.113-4.216-7.415-5.222"/>
</g>
<g id="Слой_14">
	<path fill="#838889" d="M221.333,403c-1.067,6.469,2.555,10.349-1.993,17.2c1.792,2.069,7.125,6.463,9.682,7.848
		c11.865-9.939,6.067-35.249-9.689-24.715"/>
</g>
<g id="Слой_15">
	<path fill="#A6B7BC" d="M223.667,400.667c13.982,14.856-1.363,28.694-15.291,13.717c6.681-3.684,8.697-8.475,14.957-12.717"/>
</g>
<g id="Слой_16">
	<path fill="#561708" d="M244,382c16.367-21.757,42.007-44.638,56.529-15.335c10.742,21.676,12.753,66.471,1.942,88.052
		c-4.414,8.811-14.701,18.319-22.137,24.463c-10.806-19.726-22.282-34.918-39.66-49.284C247.666,415.251,250.991,395.417,244,382"/>
</g>
<g id="Слой_17">
	<path fill="#76220A" d="M243.667,382.667c13.61-12.29,30.883-25.106,49.497-28.361c-9.4-10.772-16.915-24.394-34.06-25.513
		c5.672,16.383-5.632,39.227-14.77,52.208"/>
	<path fill="#76220A" d="M239,426.333c21.57,8.475,41.544,24.364,47.966,47.673c-4.44,4.456-13.208,10.014-18.989,11.978
		c-6.044-22.858-11.265-43.842-28.31-60.984"/>
	<path fill="#76220A" d="M274,372.333c29.446,11.071,26.768,78.983-18.4,55.674c11.028-14.28,10.993-38.427-8.449-44.185
		c9.537-4.435,18.497-8.605,28.515-11.489"/>
	<path fill="#561708" d="M244,381.333c13.788-9.495,34.481-25.424,32.417-44.429c-0.256-0.297-0.139-0.208-0.173-0.454
		c0.116,0.156,0.142,0.332,0.081,0.528c9.201,9.622,19.233,19.188,24.388,32.253c-19.011-2.553-43.494,4.696-60.713,12.435"/>
</g>
<g id="Слой_18">
	<path fill="#76220A" d="M230.333,325.333c-10.425,23.404-18.71,46.903-8.098,71.715c-10.51-7.243-26.029-11.324-39.387-9.672
		C186.274,358.868,196.019,329.666,230,326"/>
	<path fill="#76220A" d="M219.333,428c-9.112,5.884-19.42,9.175-30.289,10.05c6.986,20.735,18.042,41.268,40.551,48.262
		c-13.139-15.901-11.557-38.397-11.928-57.313"/>
	<path fill="#76220A" d="M255.333,327.667c-19.362,15.538-37.551,46.068-28.008,71.626c0.264-0.111,1.126,0.062,1.3,0.322
		c12.891-9.375,44.982-61.934,24.375-72.282"/>
	<path fill="#76220A" d="M234.667,422.667c18.284,13.559,40.14,42.156,27.152,65.966c-14.751-8.69-47.262-50.809-27.152-65.632"/>
</g>
<g id="Слой_19">
	<path fill="#8E2C11" d="M230,426.333c0.368,22.58,14.942,49.387,34.083,60.159c-39.603,17.729-62.163-31.145-41.123-61.785
		c3.392,0.196,5.702,1.868,8.706,3.292"/>
</g>
<g id="Слой_20">
	<path fill="#8E2C11" d="M247.633,383l-1.416,0.333c-16.338,7.737-15.673,13.73-14.395,21.148c1.771,0.724,2.804,2.5,3.051,4.519
		c-0.103-0.845,0.14,0.936,0.129,0.86c0.055,0.362,0.106,0.724,0.153,1.087c0.151,1.117,0.366,2.286,0.32,3.422
		c-0.082,2.057-0.486,3.998-1.6,5.757c-0.705,1.113-1.775,1.89-2.962,2.223C287.396,457.446,289.757,376.622,247.633,383z"/>
</g>
<g id="Слой_21">
	<path fill="#8E2C11" d="M259,329.333c-18.844,13.563-28.202,47.515-30.741,69.957c-0.228-0.108-3.86-0.227-4.133-0.007
		c-14.906-28.685-8.856-94.712,35.208-67.951"/>
</g>
<g id="Слой_22">
	<path fill="#8E2C11" d="M222.667,400.333c-5.386,3.512-8.952,8.74-14.591,12.708c0.026,0.012-0.29,1.834-0.376,1.925
		c6.196,1.607,10.248,6.528,16.251,8.416c0.013-0.013,0.109,0.962,0.081,0.951c-10.476,8.275-23.946,14.214-37.989,13.283
		c-6.167-16.741-7.988-33.813-4.499-51.256c14.638,3.044,29.692,6.029,42.123,13.973"/>
</g>
<g id="Слой_23">
	<path fill="#FFB5B7" d="M372.333,413.333c6.061,6.968,8.45,16.581,8.97,26.423c21.876-8.123,9.865-34.324-10.303-26.423"/>
</g>
<g id="Слой_24">
	<path fill="#FFCDCE" d="M358.333,413.667c5.997-1.442,14.125-0.245,20.269-0.3c10.734,13.939,5.412,24.674-6.753,34.684
		C359.767,441.019,351.645,426.836,358.333,413.667"/>
</g>
<g id="Слой_25">
	<path fill="#FFE3E3" d="M361.667,414.667c-4.423,10.712,0.468,25.696,13.24,29.724c-7.389,4.085-15.378,4.196-23.507,2.224
		c-7.985-13.662-15.223-31.056,8.934-31.615"/>
</g>
<g id="Слой_26">
	<path fill="#007684" d="M385.667,444.333c-2.107,1.384-7.076,1.515-9.658,2.382c1.049,1.687,4.416,5.973,5.715,7.227
		c0.38-0.121,1.035,0.558,1.276,0.756c1.605-2.83,1.782-6.955,3.333-9.698"/>
	<path fill="#007684" d="M371,449c0.428,4.044-0.993,9.179-1.13,13.328c-3.393-0.57-9.626-2.17-12.852-4.068
		c3.396-3.501,7.641-6.482,12.316-8.259"/>
</g>
<g id="Слой_28">
	<path fill="#0090A1" d="M354.333,324.333L353.667,324c-21.241-7.831-50.276,1.296-55.672,22.484
		c-1.531,6.011-1.779,12.904-1.472,20.179c0.542,0.154,1.033,0.524,1.288,1.171c0.366,0.926,0.757,1.829,1.16,2.72
		c0.907,0.348,1.708,1.086,2.236,2.321c12.241,28.623,7.027,59.215-3.365,87.491c10.026,13.665,32.624,9.491,49.727,7.325
		c-3.177-3.68-3.872-9.948-6.86-13.715c3.683-0.828,7.288-3.116,10.906-3.686c-3.515-11.3-16.907-27.743,0.692-33.273
		c0.813-9.378,0.612-5.548,7.868-10.307c14.936,20.43,27.849-18.106,45.647-21.418C404.53,348.127,391.636,333.536,354.333,324.333z
		"/>
</g>
<g id="Слой_27">
	<path fill="#007684" d="M348.667,332.667c38.575,5.556,63.558,66.383,42.748,98.291c56.585-9.388,36.765-86.673-2.664-105.032
		c-12.581-5.858-34.789-10.804-40.418,4.075"/>
	<path fill="#007684" d="M377.667,380c1.784,12.599-1.454,26.22-12.618,32.673c19.637,3.181,17.081-14.066,26.995-24.014
		c-3.899-2.09-9.214-5.625-13.71-6.326"/>
	<path fill="#007684" d="M347.333,439c-15.534,11.852-46.02,3.343-51.623,25.291c16.056,6.137,36.193,8.448,52.838,1.568
		c-3.039-2.697-4.572-8.032-6.814-10.464c4.92-1.072,8.276-5.23,12.89-6.469c-1.975-2.686-4.88-7.625-7.624-9.926"/>
</g>
<g id="Слой_29">
	<path fill="#00B1C1" d="M304.333,339c6.053,17.588,13.152,43.254,7.298,61.533c0.036,0.105-0.289-2.078-0.568-1.672
		c-8.694-26.322-14.034-42.231-32.964-62.894c3.422-2.339,13.456-6.51,17.492-7.353c2.996,3.464,8.116,7.866,10.075,12.053"/>
	<path fill="#00B1C1" d="M405.333,384.667c1.535,15.313-1.809,35.212-13.325,45.559c0.049-10.231-2.196-12.123-9.709-19.202
		c0.907-13.146,10.341-22.239,23.7-24.024"/>
</g>
<g id="Слой_30">
	<path fill="#FFB5B7" d="M366.895,302.347c-0.463-0.185-0.857-0.562-1.04-1.181c-0.652-2.213-1.552-4.28-2.811-6.218
		c-0.476-0.733-0.357-1.441,0.046-1.957c-0.189-0.31-0.303-0.66-0.303-0.992c0-0.635,0.281-1.105,0.705-1.422
		c0.268-0.38,0.667-0.65,1.143-0.745c-6.76-25.691-27.585-64.847-53.072-33.417c-1.977,2.438-3.068,6.421-3.565,9.584l1.333,0.333
		c16.054,10.233,17.816,56.581,27.351,78.69c2.604-1.784,8.365-8.318,14.161-15.555c-0.679-0.554-1.02-1.664-0.467-2.417
		c0.883-1.201,1.585-2.503,2.144-3.885c0.334-0.825,1.024-1.43,1.905-1.379c1.794-3.023,1.704-6.435,1.695-10.122
		c-0.002-0.886,0.5-1.444,1.136-1.682c0.278-0.694,0.959-1.197,1.743-1.197c1.147,0.001,2.229,0.11,3.281,0.59
		c0.223,0.102,0.403,0.257,0.544,0.443c0.398-0.384,0.794-0.766,1.179-1.15c0.631-0.627,1.387-0.664,2.008-0.378
		c0.453-0.856,0.734-1.523,0.799-1.944C366.974,305.297,366.997,303.937,366.895,302.347z"/>
</g>
<g id="Слой_31">
	<path fill="#FFCDCE" d="M305,267.333c-3.371,16.722-3.345,87.766,29.708,76.343c23.897-8.258,9.61-73.496-11.335-80.284
		c-7.987-2.588-12.553-2.542-18.706,3.941"/>
</g>
<g id="Слой_32">
	<path fill="#FFE3E3" d="M311.333,264.667c-3.307,22.264-2.745,71.875,24.966,78.698c-50.715,26.369-61.426-83.532-24.632-76.031"/>
</g>
<g id="Слой_33">
	<path fill="#F16B3A" d="M374.396,258.799c-2.083-3.282-5.736-4.159-9.229-5.32c-0.569-0.189-0.936-0.557-1.13-0.989
		c-2.337-0.542-4.972-1.04-7.943-1.489l-0.406,1c-1.398,1.258-5.629,1.974-7.586,2.316c17.103,12.798-8.332,32.954,16.596,42.435
		c0.157-8.646,8.997-17.697,13.22-25.612C376.689,267.039,376.755,262.516,374.396,258.799z"/>
</g>
<g id="Слой_34">
	<path fill="#FF8448" d="M294.333,242.333c13.912,27.45,39.33,0.169,56.352,15.04c3.106-0.783,6.573-3.186,9.489-4.575
		c-14.343-5.04-9.027-23.863-21.325-28.873c-12.758-5.198-33.363,14.044-43.45,18.8c-0.507,0.239-0.393,1.011-1.066,1.275"/>
</g>
<g id="Слой_35">
	<path fill="#FF9E56" d="M297.333,242.333l1.333,0.333c-4.537-5.477-11.593-3.485-5.418-14.009
		c-18.93,4.548-14.423,20.912-9.836,35.974c0.31-0.312,0.728-0.51,1.254-0.51c0.936,0,1.995,0.859,1.878,1.878
		c-0.056,0.485-0.119,0.755-0.309,1.198c-0.002,0.005-0.005,0.009-0.007,0.014c0.13,0.041,0.259,0.092,0.385,0.166
		c0.844,0.494,1.243,1.717,0.674,2.57c-0.53,0.796-1.061,1.591-1.591,2.387c1.344,4.895,2.215,9.365,1.654,12.871
		c5.991-18.835,25.436-24.994,42.88-32.214C318.023,253.642,305.679,251.053,297.333,242.333z"/>
</g>
<g id="Слой_6">
	<path fill="#00232E" d="M319,399.75c-7.094,0-7.094,11,0,11S326.094,399.75,319,399.75z"/>
</g>
<g id="Слой_3">
	<path fill="#00232E" d="M340,272c0.083-0.859-0.315-1.422-0.884-1.703c-0.917,7.39-8.621,14.448-15.958,11.437
		c-0.056,0.858,0.327,1.781,1.31,2.195c1.177,0.496,2.31,0.768,3.394,0.861c-0.006,0.013-0.014,0.025-0.019,0.038
		c-0.096,0.161-0.182,0.329-0.253,0.507c-1.316,3.326-2.422,5.99-1.25,9.579c0.598,1.83,2.754,2.398,4.178,1.103
		c1.677-1.524,3.089-3.406,3.24-5.744c0.117-1.818-0.523-3.499-1.097-5.188c-0.128-0.378-0.32-0.681-0.547-0.929
		C336.537,282.36,339.497,277.227,340,272z"/>
	<path fill="#00232E" d="M307.411,287.085c-0.279-0.871-0.873-1.377-1.553-1.599c-0.319-0.275-0.701-0.475-1.101-0.588
		c1.137-1.093,2.03-2.52,2.672-4.116c0.227-0.565,0.058-1.178-0.296-1.66c-0.876,1.452-1.851,2.8-3.252,3.791
		c-1.326,0.938-2.964,1.348-4.535,1.655c-0.935,0.183-1.871,0.015-2.612-0.457c-0.144,0.285-0.234,0.592-0.234,0.89
		c0,1.186,0.918,1.873,2,2c1.216,0.143,2.319,0.018,3.317-0.307c-0.772,3.677-1.352,7.371,0.524,10.819
		c0.735,1.35,2.881,1.71,3.926,0.506c1.41-1.624,2.316-3.231,2.502-5.395C308.931,290.744,307.968,288.824,307.411,287.085z"/>
	<path fill="#00232E" d="M317.75,308.5c-2.91,0.096-5.243-0.514-7.321-2.254c4.342-4.369,6.591-9.951,6.071-16.246
		c-0.078-0.94-0.841-1.419-1.579-1.438c0.261,6.25-2.243,13.328-7.847,16.756c-0.491,0.573-0.375,1.458,0.115,1.992
		c2.874,3.129,6.361,4.328,10.561,4.189C319.679,311.436,319.686,308.436,317.75,308.5z"/>
	<path fill="#00232E" d="M340.414,303.836c-0.659-0.582-1.422-0.627-2.067-0.376c2.185,1.615,3.603,4.014,3.004,7.053
		c-0.827,4.199-4.604,6.981-8.28,8.695c-7.141,3.331-17.527,4.401-25.159,1.079c-0.076,0.69,0.145,1.424,0.828,1.94
		c7.682,5.796,19.568,3.581,27.589-0.26C344.255,318.173,347.657,310.235,340.414,303.836z"/>
	<path fill="#00232E" d="M325.789,334.397c-0.795-1.457-2.447-2.261-4.008-2.575c-0.549-0.11-1.102-0.027-1.552,0.227
		c0.108,0.043,0.215,0.085,0.324,0.149c1.383,0.809,2.977,1.728,3.738,3.202c0.997,1.931-0.047,3.686-1.658,4.732
		c0.308,0.504,0.842,0.868,1.616,0.868c1.142,0,1.776-0.785,1.907-1.659c0.006-0.021,0.016-0.038,0.022-0.059
		C326.602,337.619,326.629,335.935,325.789,334.397z"/>
	<path fill="#00232E" d="M320,374c-7.738,0-7.738,12,0,12S327.738,374,320,374z"/>
	<path fill="#FCFCFC" d="M447.156,536.297c-0.021-0.021-0.034-0.044-0.055-0.064c-23.204-22.098-43.743-48.488-59.852-76.565
		c3.581-3.678,5.854-8.702,5.918-15c0.006-0.598-0.104-1.119-0.27-1.594c1.533-0.464,3.072-0.899,4.62-1.289
		c0.218-0.041,0.414-0.111,0.594-0.2c1.014-0.448,1.409-1.399,1.323-2.339c0.103-0.668-0.059-1.383-0.666-2.013
		c-0.93-0.964-1.689-2.053-2.365-3.198c12.499-4.066,24.033-11.291,30.496-23.125c8.04-14.721,3.488-30.802-2.558-45.26
		c-11.375-27.201-33.359-58.176-66.454-48.246c0.739-2.085,1.471-4.168,2.24-6.209c3.416,0.221,6.487-0.646,7.901-4.352
		c1.171-3.071-0.415-6.663-2.436-9.52c0.544-0.665,0.79-1.579,0.55-2.62c-1.313-5.7,5.201-9.888,8.664-13.398
		c4.384-4.443,6.882-9.91,4.594-16.061c-3.048-8.196-10.56-12.819-18.486-15.31c-3.458-1.087-6.879-1.924-8.72-5.324
		c-2.227-4.113-1.15-9.789-3.167-14.216c-7.263-15.937-26.639-8.924-37.268-0.918c-2.686,2.023-13.369,13.995-16.763,8.371
		c-2.384-3.951,1.059-8.331,4.82-9.82c0.309-0.013,0.618-0.025,0.932-0.026c0.747-0.001,1.346-0.229,1.804-0.591
		c3.272-0.766,3.112-6.146-0.554-5.909c-1.207,0.078-2.359,0.278-3.448,0.589c-13.407,0.983-22.842,10.713-23.097,24.582
		c-0.164,8.925,4.045,17.766,11.259,22.286c-2.902,6.214-5.284,12.848-0.086,18.665c0.321,0.359,0.668,0.607,1.023,0.762
		c-1.624,13.028,0.681,27.174,6.454,38.675c-3.755,1.349-7.566,2.542-11.271,4.031c-0.054,0.022-0.091,0.057-0.143,0.081
		c-0.334,0.036-0.661,0.142-0.954,0.337c-0.411,0.274-0.824,0.541-1.259,0.777c-0.06,0.029-0.103,0.049-0.134,0.065
		c-0.053,0.019-0.106,0.038-0.16,0.054c-0.843-0.649-1.693-1.288-2.568-1.9c-11.024-7.711-24.098-11.513-37.385-12.338
		c-1.721,0.09-3.369,0.193-4.819,0.232c-6.394,0.174-12.322,1.406-18.136,3.459c-9.674,5.827-18.765,11.564-25.523,21.043
		c-6.496,9.111-10.414,20.06-12.73,30.926c-4.82,22.619-2.551,47.181,5.262,68.865c7.718,21.423,22.464,40.668,43.852,49.585
		c22.021,9.181,46.013,0.841,63.051-14.316c3.237-2.879,6.116-6.05,8.674-9.448c19.072,5.473,40.101,6.072,57.992-3.374
		c4.033,1.446,8.299,2.028,12.424,1.781c2.174,16.571,7.707,32.71,17.674,46.245c13.831,18.784,35.293,28.254,58.381,28.002
		C449.249,541.135,449.52,537.049,447.156,536.297z M384.488,440.64c1.581-1.594,3.138-3.191,4.713-4.665
		c0.193-0.01,0.391-0.034,0.597-0.082c0.567-0.134,1.131-0.285,1.696-0.431c0.446,0.813,0.92,1.608,1.433,2.376
		C390.081,438.653,387.269,439.599,384.488,440.64z M281.98,251.821c-1.988-8.491,1.026-16.058,7.036-20.282
		c-1.514,4.802,0.046,11.431,5.302,13.164c7.567,2.495,14.231-4.712,19.316-9.096c6.103-5.261,15.595-10.682,23.926-8.451
		c9.566,2.562,6.056,15.637,10.44,22.107c4.837,7.138,15.667,6.199,21.727,12.105c2.819,2.748,5.466,6.789,4.277,10.833
		c-0.906,3.083-4.104,5.56-6.334,7.678c-3.632,3.45-6.912,7.163-7.543,11.826c-2.304-0.755-4.322-2.028-5.116-4.565
		c-0.923-2.947,0.013-6.496,0.605-9.415c1.262-6.225,2.91-12.582,0.097-18.62c-3.666-7.868-13.143-10.967-21.077-9.805
		c-9.49,1.389-17.736,8.45-25.82,13.067c-5.589,3.192-12.318,5.198-18.352,2.027C285.741,261.913,283.149,256.812,281.98,251.821z
		 M292.185,271.343c0.093,0.025,0.189,0.044,0.283,0.068c-1.226,2.566-2.239,5.281-3.036,8.106
		C289.419,276.771,290.97,273.794,292.185,271.343z M297.75,272.033c8.462-0.1,15.991-5.563,22.869-9.844
		c9.104-5.665,22.736-12.535,29.912-0.055c3.31,5.756-1.516,15.677-1.814,21.856c-0.358,7.42,4.376,11.77,10.688,13.68
		c0.029,0.032,0.047,0.066,0.078,0.097c2.676,2.733,6.808,9.576-0.318,8.322c-1.462-0.257-2.533,0.385-3.075,1.746
		c-5.018,12.602-7.339,27.671-21.465,33.222c-11.117,4.368-22.391,1.671-30.23-7.197
		C290.997,318.705,288.251,289.863,297.75,272.033z M283.372,347.187c5.284,5.494,9.557,11.8,12.963,18.578
		c-16.901,0.035-34.585,5.469-49.116,14.95c9.06-14.604,15.978-30.932,16.333-47.566
		C270.778,336.42,277.468,341.048,283.372,347.187z M233.44,400.913c15.418-18.72,41.435-29.867,65.671-29.102
		c4.706,11.428,7.15,23.887,7.747,36.025c0.232,4.731,0.167,9.541-0.233,14.338c-22.906,7.324-46.969,9.659-68.777-2.43
		c-0.033-0.018-0.065-0.026-0.099-0.043C240.266,413.259,238.568,405.56,233.44,400.913z M228.147,423.574
		c-5.025-3.462-10.379-6.384-15.874-9.027c4.472-3.897,8.654-8.097,12.469-12.645C235.555,403.685,237.022,418.036,228.147,423.574z
		 M257.553,330.79c0.289,24.489-14.926,48.525-29.792,66.822c-0.773-0.254-1.577-0.466-2.423-0.613
		c-0.03-0.152-0.055-0.303-0.111-0.463c-8.36-24.032-4.538-47.357,6.901-69.495C240.949,326.862,249.519,328.07,257.553,330.79z
		 M192.43,360.42c2.631-6.641,6.549-13.133,11.452-18.334c5.846-6.203,14.041-10.116,21.263-14.459
		c-9.959,20.786-13.578,42.778-7.373,65.141c-9.43-5.841-20.071-9.107-31.396-8.18C187.378,376.326,189.35,368.196,192.43,360.42z
		 M185.706,403.307c-0.196-4.227-0.159-8.463,0.114-12.678c12.162-1.134,23.561,2.889,33.209,10.186
		c-3.641,4.088-7.552,7.915-11.738,11.454c-1.749,0.479-2.149,2.695-1.202,3.978c0.192,0.55,0.546,1.037,1.096,1.318
		c0.156,0.128,0.339,0.244,0.553,0.344c3.681,1.718,7.302,3.557,10.823,5.57c-7.761,7.212-17.46,11.28-28.019,9.611
		C187.689,423.21,186.155,412.985,185.706,403.307z M192.548,439.322c8.6,0.614,16.694-1.838,23.804-6.511
		c-5.046,15.046-1.746,32.929,6.514,46.78C208.067,470.601,198.347,455.729,192.548,439.322z M264.203,484.072
		c-9.741,3.285-20.204,3.667-30.24,0.556c-13.165-14.585-19.141-39.577-8.659-56.958c0.48,0.327,0.961,0.651,1.435,0.988
		c1.024,0.73,2.023,0.513,2.713-0.127c0.103-0.039,0.206-0.069,0.31-0.123c1.595-0.824,2.954-1.827,4.117-2.948
		c9.409,6.932,17.705,15.154,23.429,25.433C262.968,461.058,264.729,472.603,264.203,484.072z M286.719,469.794
		c-4.891,4.97-10.472,8.958-16.445,11.816c0.169-11.312-2.014-22.317-7.172-32.584c-3.366-6.701-8.003-12.602-13.308-17.865
		c18.252,5.299,37.488,3.162,56.076-2.471C303.583,443.973,297.646,458.69,286.719,469.794z M302.883,464.16
		c10.097-15.813,13.919-35.721,13.149-55.146c-0.358-2.27-0.548-4.591-0.465-6.871c-0.959-10.056-3.102-19.835-6.227-28.672
		c-5.098-14.419-13.518-27.592-24.966-37.639c4.011-1.599,8.144-2.862,12.192-4.362c1.638,2.629,3.472,5.078,5.515,7.272
		c8.918,9.577,21.874,11.27,33.874,7.137c10.797-3.719,15.763-12.392,19.522-21.937c0.519,0.182,1.133,0.192,1.821-0.049
		c30.387-10.624,49.783,17.445,60.569,41.766c5.776,13.024,10.76,27.457,4.359,41.217c-5.165,11.104-16.101,17.665-27.449,21.378
		c2.597-7.743-2.051-16.219-10.157-18.976c2.212-10.558,10.617-18.31,21.177-20.635c3.778-0.832,2.176-6.616-1.595-5.786
		c-3.601,0.793-6.935,2.121-9.939,3.887c-10.237-5.415-18.511-12.974-25.892-21.865c-2.474-2.98-6.694,1.289-4.243,4.243
		c7.127,8.585,15.169,16.022,24.803,21.55c-5.39,4.868-9.089,11.473-10.411,19.036c-3.921,0.59-8.301,0.67-12.701,0.893
		c-1.121-1.979-2.872-3.488-4.161-5.362c-0.66-0.96-1.663-1.422-2.823-1.149c-3.647,0.86-7.219,2.776-10.103,5.143
		c-1.023,0.84-0.933,2.68,0,3.536c0.296,0.272,0.563,0.563,0.817,0.862c-2.833,1.299-5.348,3.176-7.348,5.926
		c-2.488,3.419-3.044,7.838,0.503,10.749c0.203,0.167,0.414,0.312,0.626,0.454c-1.456,1.86-1.894,4.206-0.344,7.08
		c1.094,2.029,2.564,3.269,4.226,3.922c-0.452,1.495-0.184,3.132,1.22,4.877c0.45,0.56,0.937,1.027,1.454,1.41
		c-2.834,1.991-6.028,3.326-9.55,3.874c-1.877,0.292-2.165,2.086-1.444,3.41c0.06,0.21,0.144,0.413,0.283,0.596
		c2.168,2.847,3.924,5.955,5.551,9.133C331.199,468.935,316.542,467.841,302.883,464.16z M360.018,411.036
		c-1.868,0.206-3.702,0.497-5.471,0.918c-0.128-0.178-0.255-0.356-0.384-0.532c1.38-0.857,2.9-1.556,4.429-2.058
		C359.066,409.921,359.552,410.473,360.018,411.036z M348.289,461.081c-0.943-1.775-1.951-3.512-3.054-5.189
		c4.076-1.278,7.766-3.57,10.898-6.519c0.512-0.077,1.025-0.184,1.537-0.324c0.984,1.52,2.673,2.227,4.49,2.533
		C357.348,454.505,352.723,457.705,348.289,461.081z M362.564,457.16c2.179-1.371,4.394-2.691,6.649-3.943
		c0.038,1.566,0.111,3.133,0.205,4.7C367.132,457.98,364.793,457.715,362.564,457.16z M366.94,446.568
		c-1.295,0.307-2.742,0.313-4.064,0.104c1.519-0.969,2.866-2.08,3.892-3.154c1.977-2.069-0.527-5.303-3.03-3.926
		c-1.573,0.865-4.166,2.294-5.667,4.156c-1.526,0.616-3.174,0.824-4.894,0.336c-1.404-0.398-1.113-1.178-0.074-2.052
		c3.307-0.732,6.61-2.666,8.915-4.763c1.843-1.677-0.073-4.932-2.432-4.178c-2.189,0.699-6.01,2.218-8.869,4.347
		c-1.011-0.067-1.985-0.433-2.852-1.25c-1.775-1.671-0.574-3.039,1.373-4.039c2.629-0.19,5.304-1.163,7.524-2.239
		c2.17-1.051,1.203-4.933-1.262-4.659c-1.961,0.219-4.558,0.824-6.949,1.849c-2.11,0.141-3.842-0.435-3.326-2.847
		c0.984-4.604,8.204-6.776,12.079-7.632c7.667-1.693,15.67-0.839,23.401-2.228c0.183,0.048,0.367,0.085,0.545,0.107
		c7.342,0.935,11.019,9.622,5.879,15.129c-0.57,0.611-0.804,1.287-0.817,1.945c-0.056,0.121-0.102,0.247-0.139,0.375
		c-3.667,3.278-6.96,6.964-10.672,10.2C372.971,444.354,370.195,445.797,366.94,446.568z M384.078,446.163
		c-0.193,1.933-0.721,3.602-1.511,5.026c-0.645-1.204-1.298-2.405-1.926-3.614C381.779,447.083,382.927,446.62,384.078,446.163z
		 M374.179,450.609c0.638-0.32,1.271-0.648,1.914-0.957c0.945,1.825,1.913,3.644,2.896,5.459c-1.361,0.941-2.924,1.629-4.601,2.091
		C374.266,454.999,374.189,452.798,374.179,450.609z M391.551,509.665c-9.298-12.627-14.359-27.901-16.355-43.451
		c2.928-0.677,5.688-1.803,8.129-3.363c15.323,26.579,34.608,51.692,56.291,73.071C420.4,534.436,403.293,525.612,391.551,509.665z"
		/>
</g>
</svg>
