<?xml version="1.0" encoding="utf-8"?>
<!-- Generator: Adobe Illustrator 17.0.0, SVG Export Plug-In . SVG Version: 6.00 Build 0)  -->
<!DOCTYPE svg PUBLIC "-//W3C//DTD SVG 1.1//EN" "http://www.w3.org/Graphics/SVG/1.1/DTD/svg11.dtd">
<svg version="1.1" xmlns="http://www.w3.org/2000/svg" xmlns:xlink="http://www.w3.org/1999/xlink" x="0px" y="0px" width="612px"
	 height="792px" viewBox="0 0 612 792" enable-background="new 0 0 612 792" xml:space="preserve">
<g id="Слой_1">
	<g id="Слой_2">
		<rect width="612" height="792"/>
	</g>
	<g id="Слой_6">
	</g>
	<g id="Слой_7">
	</g>
	<g id="Слой_11">
	</g>
	<g id="Слой_12">
	</g>
	<g id="Слой_13">
	</g>
	<g id="Слой_14">
	</g>
	<g id="Слой_15">
	</g>
	<g id="Слой_16">
	</g>
	<g id="Слой_17">
	</g>
	<g id="Слой_18">
	</g>
	<g id="Слой_19">
	</g>
	<g id="Слой_22">
		<path fill="#96BBCA" d="M169,280.5c0.079,0.106,0.152,0.192,0.23,0.292c1.211-1.686,2.464-3.293,3.77-4.792L169,280.5z"/>
		<path fill="#96BBCA" d="M190.744,400.013c-2.267-2.379-3.08-5.945-2.44-9.183c-5.873-14.271-7.509-29.541-7.985-45.074
			c-0.485-15.836-6.231-30.783-3.812-46.62c-0.27-0.37-0.51-0.759-0.723-1.165c-0.008-0.015-0.015-0.03-0.023-0.045
			c-0.416-0.803-0.721-1.664-0.915-2.556c-0.007-0.031-0.013-0.062-0.019-0.093c-0.183-0.879-0.259-1.782-0.226-2.683
			c0.001-0.042,0.003-0.084,0.005-0.126c0.042-0.896,0.191-1.782,0.446-2.635c0.012-0.039,0.023-0.078,0.035-0.117
			c0.134-0.43,0.292-0.85,0.48-1.256c-1.449-4.255-3.029-3.405-6.336-7.669c-32.007,44.552-30.622,151.836,22.706,178.687
			C192.292,441.947,191.913,421.344,190.744,400.013L190.744,400.013z"/>
	</g>
	<g id="Слой_21">
		<path fill="#6597A6" d="M204.882,436.615c-3.475-6.302-4.577-13.721-9-19.5c-1.25-1.634-0.968-3.248,0.038-4.389
			c-3.466-7.211-6.882-13.498-8.572-17.152c-0.727-1.571-1.747-2.776-2.601-4.174c-4.456,18.055-13.57,70.589,12.02,66.089
			c9.552-1.68,10.766-10.099,8.445-20.363C205.095,436.967,204.984,436.8,204.882,436.615z"/>
	</g>
	<g id="Слой_23">
		<path fill="#B0D1E0" d="M175,268.5c-9.888,61.4-20.569,109.058-4.95,169.86c-0.309-0.419-0.393-0.889-0.513-1.375
			c-29.244-36.344-31.025-85.177-21.149-124.485c6.064-24.135,11.553-49.278,30.354-66.247c-0.463,8.841-1.618,18.453-4.243,26.247"
			/>
	</g>
	<g id="Слой_24">
		<path fill="#823208" d="M219.5,440c-16.754,11.703-67.021,34.448-49.779,53.911c0.434,0.137,0.878,0.182,1.331,0.136
			c10.45-5.253,20.543-7.332,29.248-16.507c19.276,14.258,29.177-2.092,15.25-19.829c4.181-3.264,7.948-6.975,12.399-9.711
			c-3.112-10.331-5.395-5.202-9.949-5.5"/>
		<path fill="#602004" d="M213.5,444.5c-13.119,10.138-28.614,17.483-39.547,29.014c1.494,4.278,6.854,12.515,10.085,15.822
			c4.467-5.874,11.328-7.746,15.716-13.332c28.809,25.796,13.765-16.708,26.295-28.49c-0.77-1.52-6.448-6.141-6.523-7.452
			c-2.585,1.824-5.414,3.094-9.026,3.938"/>
		<path fill="#602004" d="M244,513c0.815,2.272,6.113,4.705,6.869,6.375c-1.473,0.778-2.51,2.354-3.816,3.177
			c-1.22-0.261-1.599,0.211-2.55,0.51c-4.595-4.278-0.713-7.737-1.504-9.561"/>
	</g>
	<g id="Слой_25">
		<path fill="#FFB5B7" d="M229.5,486.5c13.472,9.317,19.578,39.902-0.576,25.576c-8.561-2.415-9.087-1.194-13.5-8.5
			c-4.206-2.089-6.264-3.328-10.283-6.375c7.957-2.438,14.381-7.699,22.359-10.201"/>
	</g>
	<g id="Слой_26">
		<path fill="#FFCDCE" d="M221.5,478.5c-5.469,0.102-10.795,7.266-21.036,2.576c-0.089,23.074,21.432,10.162,35.021,6.36
			c-2.643-13.768-2.772-14.365-12.396-19.823c0.004,0.109-0.198,1.098-0.478,0.975c0.713,5.151-1.735,9.217-2.611,12.412"/>
	</g>
	<g id="Слой_27">
		<path fill="#0090A1" d="M362.5,364.5c13.003,1.21,24.847,5.822,35.012,13.911c-14.03,2.561-29.202,2.697-41.936-1.524
			c0.027-0.063-0.078-1.898-0.1-1.911c2.978-2.949,3.916-5.582,6.024-8.976"/>
		<path fill="#007684" d="M438,412.5c52.832,21.18,19.68,84.991-33.107,70.426c11.898-22.249,25.268-43.796,33.607-67.426"/>
	</g>
	<g id="Слой_28">
		<path fill="#00B1C1" d="M296,371c0.354,1.984,5.525,6.758,6.823,9.059c-2.494-0.235-7.806-1.334-10.623-2.061
			c-1.959-3.836,5.076-3.272,4.8-5.498"/>
		<path fill="#00B1C1" d="M241.5,452c-8.563,13.087-9.323,27.857-5.424,43.934c28.535-3.638,26.177-25.727,6.424-42.934"/>
	</g>
	<g id="Слой_29">
		<path fill="#FFB5B7" d="M368,327.333c-1.383,5.1-1.038,11.825-0.932,16.95c2.284-0.431,5.061-0.457,7.506-0.668
			c1.944-7.073-1.221-9.932-5.24-14.948"/>
		<path fill="#FFB5B7" d="M353.25,369c0.377,2.427,2.952,3.703,2.71,6.95c-2.131,0.715-3.522,1.501-5.927,1.761
			c-0.055-3.907,3.241-4.263,3.966-6.711"/>
	</g>
	<g id="Слой_30">
		<path fill="#FFB5B7" d="M320,283.667c10.811,33.202,4.899,61.166,7.368,94.624c31.374,0.569,33.556-6.089,41.551-31.957
			c4.952-16.021,12.792-50.215-3.955-67.368c-12.476-12.778-60.221-9.726-43.631,5.034"/>
	</g>
	<g id="Слой_31">
		<path fill="#FFCDCE" d="M308,285.667c-7.546,26.544-18.735,49.521-3.942,75.658c5.303,9.37,11.177,25.491,26.54,17.257
			c16.053-8.604,12.937-72.088,5.033-84.534c-7.33-11.541-15.979-18.693-28.63-7.381"/>
	</g>
	<g id="Слой_32">
		<path fill="#FFE3E3" d="M315.667,288.667l1-1.333c-2.301-0.186-7.726,1.126-10.216,1.667
			c-10.951,2.378-16.593,14.474-18.198,29.386c0.846,0.674,1.428,1.707,1.437,3.114c0.036,5.229,0.256,10.424,0.222,15.612
			c1.047,3.601,1.594,7.298,0.628,11.002c-0.117,0.447-0.328,0.856-0.597,1.227c2.908,14.484,8.563,27.519,15.974,33.627
			c3.637,0.385,12.084-0.426,15.665-1.62C301.787,358.426,302.667,314.25,315.667,288.667z"/>
	</g>
	<g id="Слой_33">
		<path fill="#84220B" d="M231.5,389.5c65.034-8.704,154.621-20.899,214.531,7.192c-6.755,9.227-11.954,29.017-21.142,34.905
			c-27.31,17.5-99.573-0.395-131.116-3.343c-21.429-2.002-77.116-4.105-63.773-36.754"/>
	</g>
	<g id="Слой_34">
		<path fill="#9B3821" d="M226,394c15.711,8.554,35.069,15.349,51.469,20.292c17.355,35.153,46.726,66.459,74.033,94.319
			c-8.533,22.395-0.38,39.822-24.003,37.404c-7.674-0.786-32.604-28.845-39.682-35.726c-28.16-27.375-48.758-55.492-56.817-94.213
			c-1.228-5.899-2.065-11.975-3-17.577"/>
	</g>
	<g id="Слой_35">
		<path fill="#76220A" d="M397,415.5c12.165-8.586,30.501-15.996,45.407-21.359c-6.009,41.862-45.985,129.804-88.616,146.331
			c-6.727,2.608-11.155,7.194-18.239,9.438c1.951-17.159,1.463-37.068,5.637-52.756c10.06-37.812,35.5-54.725,54.811-80.654"/>
	</g>
	<g id="Слой_36">
		<path fill="#8E2C11" d="M264,411c45.355-1.67,90.936-8.914,134.851,4.285c-10.062,37.4-34.484,67.568-60.013,96.248
			C309.622,481.547,281.647,451.014,264,411.5"/>
	</g>
	<g id="Слой_8">
		<path fill="#F16B3A" d="M362.75,274c44.117,13.146,16.714,24.188,12.218,53.961c-22.928-7.673-11.972-35.031-17.279-53.228
			c1.827-0.687,3.702-0.867,5.561-1.483"/>
	</g>
	<g id="Слой_10">
		<path fill="#FF9E56" d="M290.25,289.75c2.966,0.585,5.989,3.104,9.243,3.739c-3.551,6.423-6.304,13.819-8.235,20.935
			c-6.346-6.451-5.145-15.288-0.508-22.674"/>
		<path fill="#FF9E56" d="M302.5,243.75c-9.015,2.536-11.289,12.68-8.449,21.212c16.566-3.474,30.667,3.919,47.203,6.081
			c-15.081,4.984-33.359,25.722-50.392,19.394c-13.717-5.096-17.569-24.123-12.181-36.701c4.091-9.549,15.893-21.392,24.569-10.237"
			/>
	</g>
	<g id="Слой_9">
		<path fill="#FF8448" d="M302.333,265c17.235,13.227,43.073-0.163,56.209,13.441c1.244-1.056,4.806-2.979,6.533-3.103
			c-5.977-12.325-0.027-29.08-16.017-35.097c-15.9-5.983-37.493,17.42-48.391,26.091"/>
	</g>
	<g id="Слой_3">
		<path fill="#002831" d="M310.113,306.85c-0.245,4.596-3.156,9.129-7.444,10.787c-0.713,0.276-1.466,0.234-2.158-0.019
			c-1.91,1.667,0.008,4.227,2.105,4.091c-0.517,3.414-0.471,6.754,1.558,9.887c0.959,1.48,3.427,1.761,4.317,0
			c2.109-4.17,4.212-10.874,0.276-14.696c-0.164-0.159-0.336-0.28-0.509-0.383c1.415-2.075,2.488-4.378,3.152-6.852
			C311.771,308.322,311.081,307.316,310.113,306.85z"/>
		<path fill="#002831" d="M338.159,316.405c-0.31-0.727-0.805-1.112-1.355-1.249c1.281-0.304,2.498-0.951,3.632-1.807
			c-3.082,1.047-6.279,0.738-8.359-2.445c-0.452-0.691-0.637-1.371-0.625-2.007c-1.462,0.296-2.064,1.755-1.804,3.016
			c0.047,0.706,0.369,1.405,1.09,1.913c1.553,1.094,3.073,1.542,4.532,1.523c-0.354,0.171-0.684,0.419-0.954,0.726
			c-0.923,0.293-1.713,1.045-1.816,2.259c-0.145,1.699-0.15,3.382-0.042,5.083c0.058,0.917,0.174,1.84,0.316,2.748
			c0.072,0.462,0.117,2.794,0.457,1.28c-0.249,1.107,0.15,2.231,1.149,2.823c0.78,0.463,1.701,0.531,2.59,0.561
			c0.011,0,0.019,0.004,0.03,0.003c0.008,0,0.016,0,0.025-0.001c1.051-0.028,1.753-0.56,2.118-1.265l0.016,0.027
			c1.023-2.179,1.705-4.327,1.371-6.751C340.214,320.563,339.052,318.499,338.159,316.405z"/>
		<path fill="#002831" d="M322.333,343.833c-2.6,0.135-4.642-0.153-6.631-1.395c4.297-6.612,7.316-13.223,6.042-21.436
			c-0.493-3.179-5.31-1.824-4.821,1.329c1.154,7.443-2.745,13.523-6.748,19.407c-0.603,0.887-0.396,2.319,0.391,3.03
			c3.493,3.156,7.075,4.309,11.768,4.066C325.541,348.667,325.557,343.666,322.333,343.833z"/>
		<path fill="#002831" d="M349.159,342.738c-1.126-1.791-3.377-1.312-4.299,0.002c8.848,14.864-18.664,17.887-28.171,19.342
			c0.211,0.983,0.821,1.601,1.84,1.843c2.586,0.489,5.507,0.356,8.108,0.063c4.451-0.5,8.801-1.569,13.15-2.622
			C348.614,357.967,355.019,352.062,349.159,342.738z"/>
		<path fill="#FCFCFC" d="M445.767,411.978c-0.024-0.014-0.047-0.02-0.07-0.033c1.491-4.385,2.906-8.79,4.246-13.209
			c0.805-1.139,1.146-2.596,1.013-4.004c0.143-2.317-0.962-4.727-3.348-5.576c-7.176-4.357-16.197-6.556-24.276-8.537
			c-6.08-1.491-12.272-2.531-18.49-3.329c-11.396-7.84-25.11-13.646-38.859-15.268c1.704-4.675,2.915-9.553,3.79-14.549
			c4.752-0.332,8.591-2.599,9.222-7.932c0.387-3.268-1.118-6.471-3.286-9.121c0.769-0.513,1.298-1.356,1.292-2.42
			c-0.053-9.221,8.007-16.703,12.288-24.269c4.496-7.944,4.065-15.828-1.869-22.836c-3.014-3.56-7.394-5.022-11.774-6.102
			c-5.947-1.466-12.471-2.435-12.581-9.89c-0.073-4.952,1.585-10.186-0.605-14.926c-2.242-4.854-5.675-9.132-10.292-11.886
			c-16.34-9.748-34.512,10.725-45.317,20.302c-3.298,2.923-11.473,8.165-12.423,0.522c-0.593-4.77,2.003-11,7.322-11.618
			c0.747-0.087,1.505-0.023,2.25,0.036c0.655,0.051,1.194-0.083,1.623-0.338c0.015,0,0.028,0.004,0.044,0.004
			c2.674,0,3.497-2.864,2.476-4.634c-0.128-0.396-0.347-0.787-0.688-1.154c-9.224-9.941-21.002-4.122-27.567,5.495
			c-7.249,10.618-9.371,26.556-1.57,37.416c2.268,3.158,5.418,5.769,8.955,7.663c-2.548,8.787-5.056,18.562,0.471,26.728
			c0.397,0.586,0.897,0.96,1.436,1.164c-0.837,5.547-1.216,11.142-1.314,16.526c-0.195,10.76,1,22.646,5.556,32.75
			c-0.006,0.002-0.012,0.002-0.018,0.004c-4.437,1.55-7.934,4.127-10.774,7.765c-19.134,1.661-38.082,4.781-56.425,10.639
			c-0.904,0.289-1.63,0.734-2.201,1.277l0,0c-0.281,0.127-0.538,0.282-0.779,0.452c-0.021,0.013-0.041,0.027-0.061,0.041l0,0l0,0
			c-0.215,0.157-0.413,0.331-0.596,0.517c-0.034,0.034-0.066,0.068-0.099,0.103l0,0c-0.177,0.191-0.339,0.393-0.483,0.607
			c-0.021,0.031-0.04,0.064-0.06,0.096c0,0,0,0,0,0.001c-0.031,0.048-0.055,0.1-0.084,0.149c-0.79,0.866-1.219,2.103-1.007,3.725
			c2.595,19.821,8.978,38.709,17.844,56.441c-2.614,4.75-4.834,9.677-6.741,14.75c-2.831-1.376-6.238-1.434-9.708-0.281
			c-0.693,0.139-1.229,0.478-1.642,0.916c-0.997-1.664-1.956-3.353-2.888-5.058c3.585-3.725,7.562-7.004,11.734-10.079
			c1.433-1.056,1.728-2.655,1.347-4.03c-0.079-0.358-0.203-0.722-0.425-1.092c-1.762-2.95-3.442-5.938-4.647-9.164
			c-0.211-0.564-0.531-1.058-0.92-1.469c-0.546-0.84-1.473-1.434-2.788-1.434c-1.202,0-2.074,0.503-2.636,1.232
			c-0.057,0.046-0.117,0.076-0.173,0.127c-3.312,2.973-6.729,5.81-10.218,8.552c-15.686-32.928-23.972-69.889-28.185-105.944
			c-4.129-35.33-5.028-74.237,8.253-107.87c0.473-1.198,0.248-2.192-0.335-2.918c-1.235-1.947-4.48-2.702-6.062-0.113
			c-22.283,36.468-42.609,76.1-45.194,119.531c-2.594,43.573,16.815,84.695,47.821,114.519c-7.452,5.2-14.9,10.408-22.061,15.996
			c-0.252,0.058-0.496,0.145-0.732,0.258c-0.647,0.234-1.288,0.482-1.91,0.774c-1.033,0.484-1.561,1.235-1.732,2.051l0,0
			c-0.056,0.159-0.092,0.324-0.127,0.49c-0.004,0.02-0.011,0.039-0.015,0.059l0,0c-0.029,0.15-0.041,0.302-0.051,0.454
			c-0.01,0.074-0.016,0.147-0.021,0.221c-0.001,0.008-0.002,0.017-0.002,0.025l0,0c0,0.02,0.001,0.039,0.002,0.059
			c-0.027,0.622,0.109,1.263,0.474,1.876c0.002,0.004,0.004,0.008,0.006,0.012l0,0c0.091,0.16,0.199,0.309,0.316,0.452l0,0
			c0.012,0.015,0.029,0.025,0.042,0.039c0.025,0.03,0.04,0.062,0.066,0.091c2.892,3.271,4.948,7.098,6.719,11.061
			c0.12,0.439,0.321,0.859,0.593,1.242c0.465,0.83,1.12,1.288,1.842,1.431c0.822,0.294,1.772,0.293,2.754-0.187
			c3.545-1.733,7.251-2.941,11.077-3.871c0.054,0.002,0.101,0.016,0.156,0.016c0.065,0,0.12-0.015,0.184-0.018
			c1.307,0.576,2.986,0.402,3.958-0.674c3.15-3.486,6.555-6.679,10.104-9.716c-1.647,6.066,0.061,11.973,6.698,14.779
			c1.802,5.276,4.98,8.234,8.706,9.432c0.076,0.263,0.18,0.528,0.329,0.797c2.666,4.821,6.697,7.063,10.959,7.474
			c-0.083,1.149,0.369,2.332,1.63,3.115c3.558,2.211,7.454,2.969,11.158,2.24c0.276,0.563,0.762,1.064,1.509,1.427
			c1.675,0.813,2.858,2.3,4.292,3.453c1.127,0.906,2.911,1.553,4.241,0.547c2.922-2.209,6.19-4.511,8.256-7.589
			c0.797-1.187,0.615-3.321-0.547-4.241c-1.604-1.269-3.419-2.487-4.453-4.292c-0.55-0.961-1.331-1.469-2.161-1.638
			c0.159-2.963-0.531-6.029-1.839-8.696c-0.333-0.678-0.782-1.132-1.285-1.414c-0.016-0.012-0.034-0.021-0.05-0.032l0,0l0,0
			c-0.207-0.151-0.442-0.271-0.696-0.37c-0.008-0.003-0.016-0.005-0.023-0.007c-0.253-0.097-0.532-0.16-0.831-0.196
			c-0.077-0.378-0.181-0.756-0.299-1.135c1.916-0.621,3.779-1.417,5.523-2.424c0.456-0.08,0.929-0.276,1.406-0.632
			c3.646-2.728,6.882-5.793,9.846-9.146c9.695,13.447,20.634,25.983,32.481,37.568c11.475,11.221,24.478,20.173,36.684,30.445
			c0.961,0.809,2,1.221,3.027,1.337c1.185,1.141,2.902,1.707,4.991,1.077c15.343-4.624,29.097-16.947,40.508-27.824
			c12.179-11.609,22.684-24.972,31.999-38.95c0.044-0.066,0.085-0.133,0.129-0.198c20.121-3.894,44.476-0.435,55.797-21.7
			C474.844,447.61,462.629,422.051,445.767,411.978z M245.032,515.708c0.492,0.575,1.023,1.112,1.583,1.622
			c-0.574,0.504-1.185,1.008-1.776,1.479c-0.493-0.45-0.995-0.888-1.52-1.294C243.971,516.958,244.541,516.353,245.032,515.708z
			 M443.323,418.727c4.851,3.169,9.138,7.772,12.303,13.094c-4.336-2.888-9.484-4.754-15.007-5.801
			C441.547,423.598,442.444,421.166,443.323,418.727z M387.979,375.648c-9.454-0.635-18.942-0.812-28.428-0.842
			c1.359-2.029,2.576-4.119,3.646-6.272c0.343,0.146,0.713,0.26,1.136,0.3C372.378,369.584,380.442,372.095,387.979,375.648z
			 M281.425,277.696c-5.504-10.757-0.141-27.813,9.827-34.259c2.385-1.543,4.739-1.873,6.935-1.261
			c-8.252,3.174-12.649,14.292-8.033,22.463c8.316,14.72,28.2-9.093,34.692-14.263c7.052-5.616,18.033-12.382,26.465-5.639
			c5.285,4.226,6.579,9.659,6.023,16.054c-0.465,5.346-0.411,10.065,3.406,14.179c7.274,7.838,20.927,3.108,25.283,14.8
			c3.07,8.24-6.467,17.64-10.417,23.985c-1.946,3.126-3.49,6.493-4.191,10.063c-5.403-3.118-6.014-10.153-6.261-16.475
			c-0.319-8.176,0.382-16.573-1.947-24.526c-2.141-7.309-8.432-12.718-16.045-13.601c-8.33-0.966-15.808,3.673-22.431,8.134
			c-7.241,4.878-14.88,11.364-23.985,11.856C292.913,289.63,284.92,284.526,281.425,277.696z M292.852,294.074
			c1.452,0.427,2.924,0.736,4.392,0.918c-2.857,4.937-4.896,10.365-6.327,15.994C289.516,305.526,291.24,299.554,292.852,294.074z
			 M292.889,334.879c0.244-13.467,2.677-28.488,10.25-39.919c6.609-0.867,12.66-4.364,18.226-8.057
			c6.918-4.59,14.352-11.343,23.032-11.843c9.509-0.548,13.469,7.945,14.278,15.941c1.16,11.455-2.161,29.851,8.254,37.227
			c0.037,0.72,0.371,1.431,1.142,1.931c5.523,3.581,9.493,12.747-0.405,12.341c-1.014-0.042-2.244,0.785-2.411,1.835
			c-1.693,10.648-4.652,21.246-11.357,29.897c-0.143,0.184-0.248,0.375-0.335,0.567c-4.547,0.007-9.093,0.031-13.631,0.037
			c-12.214,0.016-24.523,0.109-36.818,0.611c-0.091-0.187-0.201-0.371-0.347-0.549C293.94,364.148,292.648,348.209,292.889,334.879z
			 M297.235,375.72c-0.778,0.041-1.555,0.085-2.333,0.13c0.121-0.046,0.239-0.099,0.361-0.141c0.57-0.199,1.022-0.499,1.381-0.857
			C296.835,375.145,297.039,375.43,297.235,375.72z M231.504,475.8c0.693,2.299,0.857,4.802,0.729,7.277
			c-3.151-2.85-4.926-6.806-5.401-11.41c-0.008-0.075-0.031-0.138-0.043-0.21C229.126,471.401,230.586,472.753,231.504,475.8z
			 M144.45,346.431c1.564-32.671,14.521-63.52,30.299-92.14c-5.417,27.82-4.002,57.476-0.787,84.992
			c4.34,37.137,13.066,74.962,29.339,108.795c-4.01,2.995-8.084,5.906-12.183,8.784C160.585,427.908,142.417,388.899,144.45,346.431
			z M171.522,489.696c-1.176-2.425-2.496-4.749-4.022-6.951c1.758-0.553,3.539-1.012,5.265-1.656c1.668,2.2,3.62,4.188,5.372,6.313
			C175.888,488.046,173.684,488.808,171.522,489.696z M198.858,472.525c-4.892,3.827-9.636,7.792-14.002,12.187
			c-2.521-3.227-5.616-6.019-7.694-9.584c14.635-10.624,29.933-20.347,43.695-32.118c0.669,1.404,1.4,2.778,2.157,4.141
			c-4.353,3.344-8.507,6.905-12.157,11.04c-1.21,1.37-1.101,2.998-0.358,4.228c0.049,0.116,0.081,0.23,0.144,0.347
			c2.741,5.121,5.629,10.146,9.16,14.768c0.003,0.009,0.004,0.018,0.007,0.027c-4.283,3.405-11.106,6.435-13.437-0.492
			c-0.111-0.329-0.262-0.61-0.431-0.868c-0.221-0.417-0.53-0.782-0.919-1.07C204.946,472.709,201.488,470.468,198.858,472.525z
			 M208.896,492.079c-5.001-0.3-6.131-3.279-5.355-6.679c1.529,1.438,3.432,2.452,5.778,2.815
			c5.272,0.816,10.126-1.702,14.237-4.776c0.264,0.442,0.552,0.868,0.845,1.289c-0.148,0.154-0.293,0.314-0.424,0.504
			C220.605,490.16,214.728,492.429,208.896,492.079z M212.275,499.205c6.476-0.544,12.801-4.159,16.775-9.132
			c0.125-0.071,0.248-0.145,0.359-0.23c0.39,0.279,0.81,0.53,1.223,0.787C227.806,497.556,217.504,504.666,212.275,499.205z
			 M221.106,507.291c5.318-1.448,10.535-5.211,13.855-10.103C239.347,504.077,227.628,511.822,221.106,507.291z M238.233,512.692
			c-1.689,1.608-3.876,1.867-5.965,1.407c3.37-1.45,6.366-3.817,8.337-6.682C240.59,509.339,239.839,511.163,238.233,512.692z
			 M246.324,487.304c-0.262,0.08-0.518,0.185-0.757,0.34c-1.83,1.189-3.741,2.031-5.831,2.647c-0.396,0.117-0.724,0.292-1.02,0.491
			c-0.159-0.15-0.321-0.29-0.488-0.403c0.054-0.145,0.115-0.284,0.146-0.449c1.128-6.028,1.542-13.021-1.125-18.74
			c0.039-0.09,0.092-0.163,0.125-0.26c1.481-4.344,3.232-8.539,5.253-12.616c3.839,6.992,8.054,13.79,12.553,20.383
			C252.54,481.868,249.591,484.799,246.324,487.304z M401.173,480.04c-8.611,13.421-18.541,25.937-29.818,37.215
			c-5.326,5.327-11.018,10.328-17.02,14.88c-5.939,4.505-12.169,9.212-19.239,11.714c-11.033-9.173-22.705-17.339-33.199-27.25
			c-11.783-11.129-22.588-23.346-32.222-36.376c-18.051-24.415-32.866-52.887-37.459-83.197
			c34.254-10.32,70.405-11.087,105.93-11.186c17.512-0.049,35.06-0.226,52.539,1.01c8.856,0.626,17.643,1.79,26.333,3.607
			c7.099,1.484,15.195,3.282,21.943,6.574C429.999,426.201,417.676,454.32,401.173,480.04z M460.647,457.053
			c-0.669,3.172-1.904,6.231-3.822,9.052c-9.094,13.372-27.462,12.702-42.838,14.242c9.357-15.129,17.305-31.17,24.016-47.703
			c9.986,1.721,18.963,5.863,22.167,16.261c0.615,2.114,0.855,4.258,0.455,6.497C460.525,455.966,460.54,456.525,460.647,457.053z"
			/>
	</g>
</g>
<g id="Слой_3_1_">
	<path fill="#EDB035" d="M310.5,426c22.766-28.908,66.683,15.301,44.241,41.613c-8.248,9.67-36.556,17.495-40.431,0.247
		c15.061,3.209,26.181,1.219,29.443-16.392c3.451-18.632-15.294-26.256-31.254-26.468"/>
</g>
<g id="Слой_2_1_">
	<path fill="#FCFCFC" d="M363.521,447.241c-1.288-12.819-10.294-24.686-21.793-30.212c-12.494-6.004-25.229-1.703-32.956,9.417
		c-0.118,0.17-0.206,0.339-0.282,0.506c-1.716,1.701-0.144,5.509,2.91,4.877c8.218-1.7,15.095-2.107,22.3,2.839
		c5.586,3.835,7.856,10.517,7.39,17.038c-0.409,5.73-3.562,11.623-8.332,14.857c-5.68,3.85-12.323,1.918-17.342-2.07
		c-0.201-0.16-0.408-0.282-0.618-0.383c-0.092-0.063-0.187-0.121-0.29-0.172l0,0c-0.043-0.021-0.086-0.043-0.131-0.063
		c-0.016-0.007-0.035-0.01-0.051-0.016c-0.168-0.068-0.346-0.122-0.539-0.157h0c-0.184-0.034-0.374-0.058-0.581-0.058
		c-0.239,0-0.462,0.025-0.671,0.07c0,0,0,0,0,0c-0.061,0.013-0.113,0.037-0.169,0.055c-0.143,0.04-0.285,0.081-0.412,0.14h0
		c-0.03,0.014-0.057,0.033-0.085,0.05c-0.321,0.166-0.592,0.386-0.807,0.651c-0.025,0.031-0.045,0.066-0.068,0.098c0,0,0,0,0,0
		c-0.091,0.124-0.175,0.251-0.244,0.388c-0.008,0.018-0.015,0.036-0.024,0.053c0,0,0,0,0,0c-0.073,0.15-0.134,0.304-0.181,0.464
		c0,0,0,0,0,0c-0.002,0.008-0.004,0.016-0.006,0.024c-0.021,0.073-0.027,0.148-0.043,0.222c-0.171,0.438-0.223,0.904-0.108,1.366
		c0,0.133,0.004,0.268,0.025,0.409c2.151,15.035,22.231,13.89,32.973,10.548C356.539,474.091,364.889,460.856,363.521,447.241z
		 M344.52,471.602c-4.57,2.124-13.067,4.012-19.625,2.737c2.931,0.17,5.943-0.355,8.985-1.751
		c7.08-3.25,11.498-11.198,12.723-18.596c1.41-8.512-1.448-17.067-7.967-22.769c-6.365-5.568-13.557-6.791-21.14-6.145
		c14.487-13.221,36.063,2.9,39.918,20.354C359.715,455.85,354.186,467.11,344.52,471.602z"/>
</g>
</svg>
