<?xml version="1.0" encoding="utf-8"?>
<!DOCTYPE svg PUBLIC "-//W3C//DTD SVG 1.1//EN" "http://www.w3.org/Graphics/SVG/1.1/DTD/svg11.dtd">
<svg version="1.1" xmlns="http://www.w3.org/2000/svg" xmlns:xlink="http://www.w3.org/1999/xlink" x="0px" y="0px"
	 width="595.28px" height="841.89px" viewBox="0 0 595.28 841.89" enable-background="new 0 0 595.28 841.89" xml:space="preserve">
<g>
	<rect y="-4.998" fill="#050101" stroke="#FCFCFC" stroke-miterlimit="10" width="595.28" height="846.888"/>
</g>
<g>
	<path fill="#EE834A" d="M222.5,367.64c2.376,5.349-0.056,11.711,1.798,16.73c1.53,4.141,0.044,8.158,1.627,12.308
		c1.729,4.532,2.847,9.523,5.053,13.673c-3.582,0.896-6.47,0.262-9.552,2.786c-1.898,1.554-3.112,4.386-5.376,5.226
		c-0.193-3.041,0.179-6.156-0.052-9.204c-0.272-3.586-2.127-6.101-3.193-9.473c-2.704-8.555-6.857-17.26-8.356-26.163
		c-0.69-4.097-1.322-7.01,0.041-10.584c0.944-2.475,0.88-3.515-0.492-5.793c-2.214-3.674-2.579-4.46,1.812-6.263
		c2.769-1.137,5.329-1.64,8.176-0.317c4.604,2.139,7.827,4.462,8.263,9.58c0.239,2.81,1.037,4.534,1.747,6.944
		c0.543,1.842,0.928,4.007-0.247,5.55"/>
	<g>
		<path fill="#FD9E58" d="M206.25,362.64c-0.142,1.99,1.563,3.658,2.389,5.39c1.242,2.605,1.668,5.126,2.424,7.799
			c1.575,5.567,3.416,10.412,4.405,16.108c0.921,5.301,1.984,9.57,2.032,15.135c0.024,2.743,0.263,5.661,0.013,8.393
			c-0.551,6.01-6.25,3.433-9.419,0.526c-2.552-2.342-3.199-5.868-7.257-5.057c-1.866,0.372-5.766,4.35-7.853,2.976
			c-0.063-0.021-0.127-0.042-0.19-0.062c-1.515-3.565-0.281-7.399-0.294-11.068c-0.02-5.974-8.402-3.469-9.763-9.575
			c-0.891-3.995,1.861-7.165,3.8-9.87c1.023-1.428,1.949-0.878,1.718-3.197c-0.074-0.743-1.012-1.713-1.38-2.448
			c-1.337-2.675-1.937-5.077-2.351-8.094c2.422-2.188,6.151-3.831,9.249-4.673c1.58-0.43,3.544,0.141,5.172-0.019
			c2.307-0.227,4.164-1.238,6.556-1.013"/>
	</g>
</g>
<g>
	<path fill="#C06B3E" d="M223.25,368.89c-1.932,3.059-2.718,6.613-2.999,10.292c-0.235,3.071,1.105,10.287,4.717,11.178
		c1.351-6.505,2.159-5.449,8.823-7.622c4.022-1.312,8.078-2.594,7.709-7.421c-0.731-9.553-11.671-9.167-18.5-5.927"/>
</g>
<g>
	<path fill="#953A1E" d="M401,257.89c0.077,3.84,2.926,7.765,4.474,11.358c3.131,7.264,3.98,14.807,5.747,22.545
		c3.046,13.344,6.18,27.544,5.289,41.35c-0.572,8.871-3.979,16.436-3.871,25.287c0.026,2.095,1.343,7.802-0.179,9.496
		c-1.691,1.883-9.093,0.942-11.736,0.964c-28.958,0.245-56.731-2-85.724-2c-7.377,0-22.35,2.446-28.512-2
		c-2.035-1.468-3.058-7.705-6.572-3.089c-4.457-0.518-9.79-3.924-14.541-1.921c-2.28,0.961-3.171,3.577-4.879,4.506
		c-3.765,2.049-9.228,1.826-13.875,2.004c-9.452,0.361-9.129-1.271-9.121-9.512c0.004-4.301,0.39-8.937,0.526-12.939
		c0.194-5.714-1.514-10.499-1.526-16.3c-0.011-5.702,1.72-11.407,1.5-17.247c-0.217-5.765-2.453-11.211-2.498-17.028
		c-0.055-7.013,3.087-12.078,3.524-18.473c0.371-5.429-1.672-10.739-1.45-16.365c23.153,0.274,48.748,2.667,71.952-0.248
		c34-4.271,69.779,0.611,104.238,0.611c-3.606,0.013-8.763-1.05-11.265,2"/>
</g>
<g>
	<path fill="#7B301A" d="M337.5,256.39c22.824,13.951,34.057,32.25,34,60.625c-0.03,14.671-5.227,22.642-13.715,34.277
		c-4.15,5.687-11.942,11.202-14.207,17.52c28.433,0.822,57.943-3.589,85.944-2.323c4.228,0.191,8.656,3.286,11.853,0.247
		c3.335-3.17,0.496-11.59,0.125-15.447c-2.761-28.716-3.255-58.501-1.013-85.911c0.162-1.981,2.141-5.254,2.895-7.465
		c-34.165,4.328-69.73-1.024-104.382-1.024"/>
</g>
<g>
	<path fill="#3B5C65" d="M223.333,411.557c0.398,15.209,4.354,31.477-0.661,46.02c22.546,2.193,23.59-53.745,1.161-46.02"/>
</g>
<g>
	<path fill="#348F9F" d="M182.167,392.723c-3.112,13.234-0.187,31.4,2.559,44.511c1.571,7.499,3.683,15.164,6.078,22.291
		c7.565,1.691,14.915,2.12,22.205,0.738c4.454-0.845,8.806-2.327,13.354-2.9c3.305-15.164-2.679-30.465-1.861-45.572
		c-6.929-2.892-5.5,9.102-11.73,7.595c-4.631-1.121-7.311-8.302-12.445-8.305c-4.791-0.003-4.873,6.115-7.33-0.886
		c-2.502-7.127,1.805-12.025-8.663-14.638"/>
	<path fill="#348F9F" d="M183.333,394.89c-0.257-0.169-0.535-0.28-0.833-0.333"/>
</g>
<g>
	<path fill="#4AAFBF" d="M214.167,343.723c-1.997-0.611-5.876-4.498-7.67-4.73c-3.287-0.424-8.289,4.68-11.037,7.134
		c-9.623,8.595-19.937,20.017-23.987,31.847c-4.769,13.93-4.001,30.306-2.265,44.752c1.042,8.676,3.199,16.025,6.129,24.246
		c1.015,2.847-0.485,2.866,1.749,5.241c2.929,3.113,14.638,6.93,19.099,7.376c-6.364-4.901-6.226-16.928-7.347-24.19
		c-1.588-10.288-2.852-19.915-3.708-30.52c-0.537-6.649-3.673-11.941-0.633-18.116c2.062-4.188,4.809-3.436,2.508-10.041
		c-0.852-2.445-3.244-3.804-2.464-6.44c0.289-0.975,5.392-4.237,6.404-4.674c4.855-2.097,10.774,0.528,15.371-2.397
		c2.021-6.55-6.494-5.314-2.566-10.884c2.446-3.469,8.391-3.486,10.917-8.439"/>
</g>
<g>
	<path fill="#1E6674" d="M193.667,459.89c0,13.907-0.18,28.224,1.772,41.959c1.384,9.738,2.534,19.748,4.561,29.358
		c0.679,3.218,2.238,6.806,1.679,10.133c0.033,0.018-0.861,0.072-0.811,0.026c-4.611-9.905-7.553-22.205-9.955-32.928
		c-1.915-8.553-3.239-15.932-5.627-24.416c-2.142-7.609-6.323-21.261-5.526-29.409c4.871,0.643,9.823,3.552,13.907,5.945"/>
	<path fill="#124049" d="M191.333,459.057c0.018,15.66,2.12,30.698,3.815,46.206c1.821,16.664-4.023,50.892,21.422,46.79
		c21.516-3.469,10.636-48.052,8.441-65.315c-1.041-8.187-2.664-16.233-4.011-24.348"/>
	<path fill="#124049" d="M220.167,461.223c-0.056,0-0.111,0-0.167,0"/>
	<path fill="#124049" d="M219.167,460.39c-1.15-0.744-2.576-0.963-4-0.667"/>
</g>
<g>
	<path fill="#0C3037" d="M216.667,461.223c13.878,25.013,8.104,62.204,6.046,89.838c1.75,0.389,4.675,0.304,6.45-0.026
		c3.286-33.15,2.757-66.85,5.104-100.037c-3.612,6.484-13.475,4.976-17.767,10.891"/>
</g>
<g>
	<path fill="#663818" d="M225,391.89c8.287,1.329,17.808-4.708,22.907-10.742c5.242,6.661,11.21,18.275,13.833,26.49
		c3.915,12.261-10.669,25.778-22.137,15.013c-7.478-7.019-10.269-20.854-14.602-30.136"/>
</g>
<g>
	<path fill="#3C2A23" d="M241,386.64c-4.197,2.658-9.022,4.86-14.128,4.475c-2.295-8.808,13.628-11.143,19.49-11.98
		c0.008-0.059,0.59,1.58,0.655,1.639c-2.706,2.751-5.487,5.298-8.642,7.492"/>
	<path fill="#593D2F" d="M240.875,387.39c5.717,10.365,10.47,26.596,19.731,33.986c7.206-10.391-4.931-31.503-12.995-39.643
		c-2.763,1.654-5.135,3.765-6.861,6.408"/>
	<path fill="#985627" d="M190.75,545.39c-6.431,0.035-19.251,8.822-14.756,17.583c4.657,9.077,16.824-4.132,24.2-2.26
		c2.725,0.692,2.666,5.563,6.768,6.51c3.198,0.738,5.402-2.853,8.891-2.784c3.822,0.076,6.799,4.113,11.605,2.516
		c1.781-0.592,0.551-4.608,2.256-5.122c8.39-2.525,16.476,3.543,25.66,0.878c-3.848-15.803-17.051-17.854-29.588-13.327
		c-14.477,5.227-22.248,1.513-35.035-4.62"/>
	<path fill="#663818" d="M232.25,548.015c11.013-1.039,18.346,5.95,23.323,14.926c13.906-14.455-13.603-23.864-23.948-14.676"/>
	<path fill="#FDCCCC" d="M217,298.89c-3.284,11.905-2.984,28.111-9.968,38.055c2.413,3.489,3.564,4.908,7.957,6.356
		c7.966-11.58,13.22-26.264,0.011-35.661"/>
	<path fill="#FDCCCC" d="M280.25,361.39c-1.856,2.762-3.784,5.305-6.026,7.994c-0.754-0.137-2.913-0.935-4.177-1.199
		c-0.672,0.748-0.722,2.821-1.79,3.235c-1.623,1.908-4.787,2.21-6.294,6.693c-2.681-0.532-0.449-1.555-3.066,0.138
		c-11.997-10.787,8.502-22.891,19.854-15.611"/>
</g>
<g>
	<path fill="#E1B5B4" d="M281.5,360.89c-2.72,2.818-5.925,2.357-6.531,7.615c-10.865-0.934-18.798,10.151-7.414,15.86
		c6.154-5.908,26.78-13.773,14.445-23.475"/>
	<path fill="#E1B5B4" d="M228.25,291.89c-4.387,0.788-5.884,6.563-5.694,10.293c0.123,2.42,2.811,6.653,1.812,8.955
		c-0.582,1.34-3.623,0.692-4.33,2.308c-0.963,2.202,1.17,7.417,1.212,9.999c0.056,3.402-0.865,7.047-0.267,10.282
		c3.956-5.151,8.47-6.081,9.017-13.342c0.33-4.379-2.145-8.093-1.25-11.598c0.981-3.842,6.066-6.317,6.756-10.148
		c0.76-4.225-3.156-9.47-7.256-6.998"/>
	<path fill="#F8E2E2" d="M216,306.39c-0.473,7.85-2.294,15.335-5.439,22.413c-1.65-8.486-7.29-12.315-3.798-21.178
		c1.497-3.8,4.243-6.727,5.238-10.565c1.258-4.853-0.264-10.423,0.976-15.201c2.296-8.853,11.861-9.087,10.024,1.029
		c-0.845,4.657-4.735,9.017-5.688,14.255c-0.594,3.265,0.38,7.103-2.062,9.746"/>
</g>
<g>
	<path fill="#3B5C65" d="M253.5,373.14c-1.543,13.949,2.781,27.31,12.694,37.92c3.835-5.346,2.286-20.845,1.257-27.395
		c-6.595-0.905-8.631-8.065-13.951-10.025"/>
</g>
<g>
	<path fill="#AF6838" d="M190.333,545.557c-5.875,4.437-19.656,10.917-11.459,20.951c-1.549,0.426-4.32,0.356-5.823-0.001
		c-1.828-6.219-7.83-5.349-4.959-13.565c2.768-7.919,14.52-12.426,21.574-6.052"/>
	<path fill="#663818" d="M303.667,528.223c-7.501,0.186-8.617,12.219-9,18.132c-1.352,20.847,15.104,8.411,27.749,17.517
		c1.12-4.305-0.398-9.532-0.082-14.316c0.368-5.575,3.464-9.831,3.273-15.281c-4.384-0.42-19.434-8.509-22.273-5.719"/>
	<path fill="#593D2F" d="M333,533.89c7.258-0.063,14.837-7.185,22.094-3.8c6.818,3.181,6.97,11.856,7.339,18.403
		c0.485,8.626-1.003,11.977-9.986,12.989c-5.524,0.623-13.326,3.896-18.413,3.283c-1.716-8.358-4.246-23.039,0.633-30.542"/>
	<path fill="#593D2F" d="M355.333,527.223c6.456,0.971,29.628-8.791,29.6,0.266c-0.036,11.716-20.351,9.048-26.934,4.401"/>
	<path fill="#593D2F" d="M357.667,531.89c-0.344-0.742-0.816-1.445-1.333-2"/>
	<path fill="#593D2F" d="M356.333,529.89c-0.222-0.222-0.444-0.444-0.667-0.667"/>
	<path fill="#3C2A23" d="M329,524.223c3.063,3.389,8.94,2.765,13.007,5.073c-12.104,11.551-26.062-0.813-38.965-3.789
		c-0.014,0.028-0.016-1.208,0.01-1.162c6.031-1.434,22.486-3.63,26.948,0.211"/>
	<path fill="#3C2A23" d="M329.333,523.557c11.451-10.345,30.724-4.565,44.623-0.081c-7.871,2.84-22.105,6.695-29.739,5.339
		c-4.419-0.785-8.055-3.761-12.55-4.258"/>
	<path fill="#3C2A23" d="M326,535.223c0.828,6.965-4.99,13.298-3.665,21.273c1.468,8.838,4.269,6.252,10.724,8.929
		c1.571-8.549,0.226-21.343-0.116-30.144c-2.462-0.654-5.34-0.595-7.942-0.058"/>
	<path fill="#3C2A23" d="M301,527.557c-1.797,6.329-4.831,9.03-5.333,16.459c-0.294,4.348-1.658,24.481-7.757,11.519
		c-4.041-8.589,3.817-27.76,12.055-29.869c0.044,0.837,0.018,1.706,0.035,2.558"/>
</g>
<g>
	<path fill="#FCFCFC" d="M247.667,353.723c-4.514,0-4.514,7,0,7C252.181,360.723,252.181,353.723,247.667,353.723z"/>
	<path fill="#FCFCFC" d="M432,356.057c-4.514,0-4.514,7,0,7S436.514,356.057,432,356.057z"/>
	<path fill="#FCFCFC" d="M430.333,264.057c-4.514,0-4.514,7,0,7C434.847,271.057,434.847,264.057,430.333,264.057z"/>
	<path fill="#FCFCFC" d="M441.943,253.723c-68.204-0.003-136.414-0.315-204.609,1c-0.13,0.003-0.244,0.03-0.366,0.043
		c-0.424-0.043-0.846-0.024-1.231,0.082c-2.004,0.551-2.724,2.42-2.445,4.305c0.528,3.559,0.825,7.223,0.333,10.806
		c-0.148,1.079,0.025,2.141,0.566,2.963c-0.368,0.284-0.732,0.589-1.085,0.931c-1.097,1.062-1.789,2.31-2.412,3.694
		c-0.577,1.283-1.315,4.657-3.028,4.842c-0.44,0.047-0.775,0.248-1.013,0.52c-0.554-0.182-1.175-0.277-1.832-0.317
		c0.185-0.422,0.323-0.858,0.345-1.37c0.003-0.08-0.006-0.157-0.017-0.234c0.005-0.034,0.015-0.064,0.017-0.099
		c0.459-6.229-4.804-11.419-10.205-6.098c-2.704,2.665-2.403,8.145-3.142,11.531c-0.628,2.877-0.486,5.927-0.934,8.835
		c-0.528,3.428-2.837,6.672-4.515,9.642c-1.879,3.324-3.684,7.924-2.849,11.797c0.983,4.564,7.194,9.645,4.664,14.116
		c-0.692,1.223-1.545,2.358-2.167,3.536c-0.268,0.102-0.53,0.277-0.767,0.56c-0.041,0.049-0.085,0.097-0.126,0.147
		c-0.07,0.06-0.14,0.113-0.207,0.186c-6.851,7.518-14.932,13.685-22.174,20.794c-7.335,7.2-12.498,15.766-15.007,25.755
		c-3.085,12.284-2.055,25.232-0.29,37.623c1.379,9.676,3.282,19.3,5.41,28.839c1.283,3.441,2.236,7.025,3.328,10.559
		c0.041,0.131,0.063,0.257,0.077,0.38c0.009,0.003,0.016,0.008,0.025,0.011c0.027,0.072,0.048,0.145,0.076,0.217
		c6.089,28.843,13.953,57.263,21.061,85.866c-7.596-5.805-20.152-5.898-27.396,0.547c-7.465,6.642-5.716,19.471,3.639,23.234
		c5.243,2.109,12.581,0.601,17.562-1.487c2.295-0.962,4.056-2.481,5.919-4.092c3.974-3.436,3.604,0.603,4.995,3.435
		c2.151,4.377,9.566,3.891,12.622,0.834c0.576-0.576,1.021-1.302,1.364-2.129c0.065,0.176,0.123,0.359,0.191,0.532
		c1.71,4.301,8.207,4.588,11.964,3.338c1.884-0.627,2.825-2.179,3.453-3.936c0.554-1.551,0.108-3.438,2.499-2.843
		c1.688,0.421,3.272,1.252,4.849,1.961c5.375,2.417,11.977,4.292,17.656,1.629c9.574-4.489,6.444-16.871-0.652-22.19
		c-5.872-4.402-17.001-6.163-23.361-1.466c0.597-29.498,6.941-58.65,5.698-88.209c0.065-0.398,0.13-0.797,0.196-1.195
		c0.094-0.444,0.191-0.888,0.284-1.333c-0.02-0.005-0.039-0.012-0.059-0.018c1.299-7.818,2.725-15.61,4.646-23.304
		c0.731,0.172,1.464,0.329,2.2,0.475c0.01-0.058,0.021-0.115,0.028-0.174c8.033,0.031,18.358-3.35,19.538-11.71
		c0.015-0.109,0.013-0.212,0.013-0.316c0.292-0.23,0.526-0.563,0.653-1.018c0.152-0.542,0.232-1.089,0.267-1.637
		c6.607-7.816,1.538-19.707,3.251-28.829c0.015-0.082,0.017-0.16,0.021-0.238c0.479-0.314,0.91-0.706,1.258-1.163
		c0.727-0.955,1.231-2.036,1.542-3.17c0.617,0.54,1.33,0.942,2.19,1.045c1.601,0.193,2.814-0.892,3.603-2.167
		c0.43-0.696,0.739-1.465,0.944-2.267c0.193,0.114,0.398,0.215,0.627,0.284c1.288,0.39,2.385-0.577,3.007-1.585
		c0.582-0.942,0.966-2.08,1.194-3.267c0.35,0.142,0.725,0.238,1.169,0.295c0.539,0.07,1.012-0.346,1.295-0.743
		c0.177-0.248,0.335-0.522,0.484-0.808c0.365,0.129,0.763,0.217,1.221,0.217c50.895,0.017,101.782,1.307,152.678,1.001
		c2.048,0.716,4.802-0.34,4.822-3.167c0.259-37.557-3.899-75.227,0.667-112.667C446.498,254.171,444.043,253.134,441.943,253.723z
		 M239.404,374.888c0.166,0.802,0.267,1.617,0.271,2.407c-1.855,0.75-3.65,1.699-5.234,2.494c-2.723,1.367-5.623,2.124-8.022,4.062
		c-1.686,1.362-2.429,3.721-2.959,5.877c-0.251,0.41-0.378,0.908-0.334,1.401c-0.018,0.075-0.036,0.156-0.054,0.23
		c-0.051,0.215-0.065,0.418-0.055,0.611c-0.409,0.42-0.582,1.036-0.278,1.786c2.016,4.976,4.218,9.856,6.592,14.646
		c-0.025,0.027-0.053,0.045-0.077,0.075c-1.428,1.681-5.918-0.633-7.992,0.506c-3.186,1.75-3.262,8.47-6.886,8.876
		c-5.993,0.671-7.558-12.185-14.623-8.861c-1.634,0.769-5.195,5.433-5.292,0.81c-0.049-2.335,0.613-4.635,0.612-6.972
		c-0.002-5.61-4.616-6.83-8.966-8.054c-5.701-1.605,1.258-7.754,2.977-9.476c1.457-1.46,1.857-3.437,1.535-5.38
		c-0.455-2.743-3.354-3.993-3.615-7.035c-0.454-5.286,7.581-5.745,11.11-5.75c4.526-0.007,11.578-0.464,11.578-6.57
		c0-3.441-2.382-5.439-5.189-5.961c2.89-3.336,7.071-5.453,11.295-1.853c3.706,3.158,2.929,10.493,4.75,14.71
		c1.083,2.507,4.239,4.843,6.961,3.748c1.865-0.75,3.185-1.62,4.914-1.83c1.246-0.64,2.731-0.657,4.064,0.308
		c0.333,0.241,0.626,0.514,0.89,0.805c0.178,0.127,0.311,0.3,0.408,0.501c0.151,0.207,0.293,0.42,0.416,0.642
		C239.087,372.558,239.512,373.71,239.404,374.888z M250.988,378.814c-0.07-0.115-0.143-0.229-0.24-0.338
		c-2.032-2.275-4.531-2.736-7.11-2.339c-0.127-1.891-0.594-3.637-1.406-5.166c3.54-0.15,7.083-0.115,10.636,0.065
		c0.005,0.257,0.04,0.489,0.068,0.728C251.681,373.732,251.155,376.249,250.988,378.814z M242.614,380.325
		c1.179-0.323,2.316-0.446,3.324-0.198c-2.599,2.336-4.941,4.958-7.972,6.761c-2.12,1.261-7.088,3.247-10.235,2.865
		c1.079-2.763,2.677-3.93,6.224-5.409c2.018-0.842,5.079-2.85,7.976-3.814C242.188,380.5,242.416,380.431,242.614,380.325z
		 M229.853,312.866c-0.962-3.219,1.397-6.123,3.904-8.985c0.392,20.45,0.977,40.903-0.146,61.33
		c-1.868-0.126-3.909,0.232-5.383,1.014c-5.298,2.808-5.391-5.981-6.154-9.399c-1.009-4.516-3.387-7.662-7.333-8.996
		c0.433-0.613,0.762-1.277,1.031-1.993c0.202-0.119,0.383-0.29,0.524-0.523c1.745-2.889,3.236-5.916,4.969-8.812
		c1.951-3.26,5.042-5.547,7.271-8.581C232.371,322.699,231.617,318.771,229.853,312.866z M233.895,277.77
		c0.835-1.686,2.46-2.671,4.096-3.557c0.068-0.019,0.129-0.057,0.196-0.08c-1.159,1.647-2.398,3.254-3.482,5
		c-1.889,3.04-1.408,6.265-3.918,8.212c-0.266-0.917-0.699-1.778-1.305-2.509C231.914,283.522,232.662,280.261,233.895,277.77z
		 M233.546,290.061c-0.397-0.072-0.793-0.109-1.189-0.112c0.434-0.294,0.824-0.616,1.177-0.968
		C233.537,289.341,233.543,289.701,233.546,290.061z M222.981,296.442c-0.634,1.139-1.082,2.32-1.282,3.448
		c-0.334,1.888,0.26,4.053,0.605,5.899l0.337,2.264c0.424,1.851-0.625,2.867-3.147,3.047c-2.4-1.929-2.127-5.265-1.479-7.895
		c0.659-2.673,1.534-5.268,2.203-7.938C220.977,295.839,221.896,296.254,222.981,296.442z M211.531,330.802
		c2.129-5.445-3.014-8.642-4.752-13.311c-2.677-7.194,5.243-14.866,7-21.536c0.999-3.791,0.911-8.089,1.545-11.958
		c0.223-1.359,0.345-2.723,0.58-4.084c0.284-2.573,2.201-3.627,5.752-3.163c0.576,1.35,0.746,2.73,0.51,4.139
		c-0.007,0.099-0.001,0.19,0.007,0.28c-0.001,0.018-0.006,0.035-0.007,0.054c-0.002,0.041-0.003,0.069-0.004,0.094
		c0,0-0.001,0.001-0.001,0.002c0-0.015,0.001-0.025,0.001-0.046c-0.006,0.027-0.008,0.039-0.011,0.057
		c-0.013,0.019-0.03,0.049-0.055,0.096c-0.125,0.239-0.268,0.468-0.393,0.708c-0.134,0.258-0.167,0.535-0.155,0.807
		c-0.062,0.06-0.123,0.12-0.178,0.193c-0.015,0.02-0.028,0.041-0.043,0.061c-3.209,1.487-4.364,5.341-3.462,8.533
		c-0.473,2.092-0.843,4.211-1.336,6.211c-1.287,5.22-3.363,9.246-0.132,14.142c1.457,2.207,5.335,4.188,7.481,1.57
		c3.605-4.398,0.021-9.065,0.9-14.029c0.193-1.091,0.863-2.309,1.797-3.401c1.499-0.474,2.622-1.419,3.372-2.605
		c1.203-0.553,2.467-0.769,3.632-0.424c0.029,2.288,0.066,4.576,0.106,6.864c-2.258,2.94-5.62,5.952-6.41,7.298
		c-0.824,1.403-0.946,3.419-0.61,4.963c1.023,4.701,3.048,8.164,0.186,12.853c-1.901,3.115-5.007,5.461-7.215,8.367
		c-2.045,2.691-3.463,5.859-5.108,8.828c-1.107-0.742-2.271-1.387-3.44-2.061C205.831,337.272,210.28,334.002,211.531,330.802z
		 M211.291,563.545c-1.05,1.524-2.572,1.993-4.565,1.408c-0.092-0.718-0.133-1.419-0.256-2.138
		c-0.282-1.637-1.606-3.168-2.598-4.435c-4.539-5.798-12.391,3.82-16.467,5.231c-4.07,1.409-9.823,2.035-13.731-0.124
		c-3.852-2.128-3.931-8.049-2.331-11.517c1.975-4.282,8.242-5.593,12.465-5.958c4.972-0.429,9.382,1.358,12.584,5.04
		c3.012,5.093,9.171,5.883,14.874,3.801c0.057-0.021,0.093-0.06,0.142-0.087c0.028-0.009,0.056-0.018,0.084-0.027
		c0.14,0.086,0.302,0.149,0.508,0.149c0.06,0,0.102-0.024,0.156-0.032C212.129,557.778,211.997,560.702,211.291,563.545z
		 M214.175,486.985c2.249-0.69,4.377-1.91,5.906-3.348c1.883-1.77-0.951-4.594-2.828-2.828c-2.431,2.286-8.222,4.669-10.192,0.738
		c-1.156-2.306-4.606-0.28-3.454,2.019c1.236,2.466,3.297,3.644,5.611,3.941c1.811,19.99,2.014,40.092,4.028,60.064
		c-0.018,0.033-0.029,0.071-0.045,0.105c-0.204,0.276-0.347,0.584-0.419,0.905c-2.625,1.746-5.328,2.295-8.025,1.289
		c-7.547-30.961-16.223-61.652-22.775-92.848c11.89,6.509,25.934,8.007,39.1,3.86c3.47-1.093,6.756-2.714,10.201-3.897
		c0.427-0.147,0.835-0.313,1.232-0.491c0.891,29.937-5.705,59.473-5.847,89.396c-0.002,0.333,0.055,0.627,0.135,0.903
		c-2.475,3.203-5.426,3.283-8.517,1.213C216.211,527.717,216.044,507.292,214.175,486.985z M233.492,549.485
		c3.292-7.296,15.401-5.142,20.352-0.862c2.626,2.27,4.541,6.081,3.883,9.592c-0.96,5.123-8.385,4.497-12.021,3.605
		c-4.838-1.187-14.784-8.839-18.064-1.432c-0.546,1.233-0.111,3.999-1.584,4.489c-1.722,0.573-4.83,0.277-5.437-1.617
		c-0.871-2.717-1.375-5.712-1.618-8.632c3.356,1.188,6.474,0.553,9.201-1.097c1.373-0.669,2.652-1.685,3.616-2.766
		C232.487,550.704,233.113,550.326,233.492,549.485z M235.882,445.55c-0.19,0.118-0.361,0.274-0.503,0.472
		c-0.201,0.997-0.527,1.944-1,2.813c-0.184,0.461-0.384,0.91-0.623,1.339c-0.073-0.026-0.146-0.052-0.219-0.077
		c-0.519,0.641-1.142,1.221-1.893,1.715c-0.103,0.165-0.191,0.34-0.253,0.526c-0.608,0.452-1.366,0.857-2.367,1.201
		c-3.059,1.051-5.959,2.409-9.007,3.487c-11.631,4.113-24.366,2.508-35.122-3.048c-0.005-0.021-0.017-0.039-0.022-0.059
		c-1.531-0.73-2.993-1.596-4.51-2.369c-0.346-0.177-0.58-0.41-0.737-0.669c-0.777-0.503-1.521-1.065-2.212-1.737
		c-0.116-0.112-0.235-0.207-0.357-0.284c-4.98-20.877-9.953-43.396-5.839-64.423c3.113-15.913,14.294-25.61,25.418-35.685
		c0.216-0.53,0.652-0.957,1.316-1.077c0.088-0.177,0.196-0.343,0.356-0.475c1.899-1.566,3.345-3.554,5.389-4.967
		c0.162-0.112,0.34-0.177,0.522-0.22c0.602-0.662,1.213-1.316,1.803-1.989c1.293,2.009,3.884,3.094,6.049,4.338
		c-0.044,0.13-0.093,0.259-0.14,0.388c-0.019,0.033-0.132,0.298-0.167,0.365c-0.077,0.147-0.167,0.286-0.26,0.423
		c-0.081,0.094-0.165,0.184-0.252,0.273c-0.359,0.369-0.547,0.848-0.569,1.333c-5.55-0.072-9.149,3.695-11.694,8.355
		c-1.97,1.126-0.644,3.935,1.233,3.717c0.491,0.075,0.992-0.042,1.396-0.408c3.815-0.849,4.532,0.423,2.136,3.825
		c-1.025,0.294-2.072,0.448-3.142,0.463c-1.562,0.113-3.144,0.038-4.709,0.067c-2.503,0.047-5.427,0.641-7.659,1.781
		c-5.078,2.594-6.643,8.127-3.648,13.03c0.604,0.989,1.438,1.829,2.066,2.806c0.821,1.277-2.59,3.436-3.471,4.192
		c-1.55,1.33-3.718,6.076-3.145,8.15c0.626,2.268,1.646,3.866,3.742,5.018c2.76,1.518,6.799,0.506,7.283,4.697
		c0.479,4.15-1.996,8.238,0.973,11.919c1.028,1.274,3.736,1.612,5.155,1.065c0.932-0.36,1.475-0.668,2.231-1.321
		c0.368-0.443,0.74-0.883,1.116-1.32c1.723-2.02,3.953,1.836,4.585,2.558c3.034,3.468,9.112,9.215,13.71,4.327
		c2.249-2.391,3.117-8.05,7.003-7.203c2.057,0.448,3.844,0.446,5.374-0.742c2.34,4.489,4.854,8.888,7.538,13.201
		c0.083,0.069,0.164,0.139,0.241,0.214c0.183,0.154,0.357,0.32,0.51,0.517c0.128,0.164,0.247,0.313,0.363,0.453
		C238.262,432.797,237.005,439.16,235.882,445.55z M262.071,414.692c-0.018,0.066-0.021,0.127-0.034,0.191
		c-0.318,0.234-0.557,0.602-0.633,1.142c-1.031,7.304-12.023,9.568-18.227,8.648c-0.06-0.042-0.125-0.075-0.189-0.11
		c-6.211-9.808-11.536-20.092-15.956-30.826c3.191,0.387,6.886-1.037,9.617-2.008c4.928-1.752,7.907-5.289,11.632-8.462
		c0.121,0.248,0.234,0.498,0.352,0.747c0.021,0.131,0.053,0.266,0.104,0.407c3.353,9.206,7.509,18.041,13.001,26.171
		C262.23,412.02,262.429,413.413,262.071,414.692z M265.646,409.404c-0.057-0.172-0.133-0.346-0.253-0.523
		c-0.239-0.351-0.463-0.711-0.697-1.065c-0.339-0.722-0.711-1.433-1.099-2.125c0.066,0.226,0.105,0.443,0.138,0.658
		c-3.949-6.201-7.172-12.771-9.862-19.61c0.392,0.493,0.706,1.1,0.907,1.833c0.321,1.171,0.773,2.291,1.292,3.385
		c0.258-0.104,0.53-0.192,0.822-0.251c0.339-0.16,0.653-0.378,0.912-0.674c0.205-0.234,0.415-0.453,0.639-0.668
		c0.047-0.045,0.421-0.346,0.459-0.384c0.504-0.369,1.023-0.719,1.524-1.091c1.325-0.983,2.479-2.082,3.332-3.488
		c0.163-0.172,0.308-0.358,0.429-0.561c0.098,0.077,0.195,0.155,0.294,0.229c0.58,0.438,1.224,0.663,1.88,0.744
		C265.607,392.941,268.569,402.735,265.646,409.404z M254.56,375.492c0.746,0.932,1.677,1.81,2.713,2.792
		c0.612,0.579,1.307,0.774,1.959,0.976c-1.866,1.058-3.477,2.502-5.273,3.678C253.833,380.481,253.869,377.792,254.56,375.492z
		 M269.631,378.609c-0.065,1.444-0.872,4.1-2.622,4.256c-2.216,0.197-2.772-3.136-3.638-4.601c0.033-0.094,0.059-0.195,0.075-0.308
		c0.238-1.717,0.412-3.459,1.235-5.015c1.678-3.175,4.247,1.537,4.539,2.349C269.616,376.388,269.683,377.456,269.631,378.609z
		 M267.798,369.404c-0.723-0.269-1.503-0.353-2.322-0.163c-3.613,0.839-4.354,4.005-4.828,7.249
		c-0.112-0.027-0.224-0.054-0.338-0.078c-0.858-0.18-1.664-0.699-2.355-1.382c-0.274-0.067-0.486-0.206-0.627-0.407
		c-0.059-0.078-0.108-0.162-0.144-0.254c-0.007-0.017-0.018-0.031-0.023-0.049v0c-0.476-0.243-0.86-0.642-1.05-1.235
		c-0.09-0.14-0.169-0.287-0.226-0.445c-0.286-0.443-0.416-0.986-0.366-1.513c-0.008-0.079-0.026-0.156-0.025-0.237
		c0.011-0.912,0.187-2.132,0.965-2.745c0.137-0.108,0.275-0.178,0.412-0.263c0.006-0.006,0.014-0.01,0.019-0.017
		c0.077-0.113,0.163-0.222,0.264-0.32c0.487-0.477,1.045-0.731,1.611-0.789c1.653-0.508,3.669-0.231,5.145,0.763
		c1.609,1.085,3.109-1.516,1.514-2.59c-0.784-0.528-1.643-0.903-2.529-1.143c2.022-4.605,8.907-3.091,13.176-1.063
		c-0.347,0.28-0.639,0.627-0.841,1.013c-0.549,1.046-0.544,2.265-0.345,3.431c-1.151-0.711-2.449-1.144-3.765-1.03
		C269.031,366.317,268.09,367.723,267.798,369.404z M276.101,376.259c-0.145,0.782-0.432,1.939-1.114,2.447
		c-0.601,0.448-1.503-1.019-1.885-1.668c-0.047-0.443-0.267-0.859-0.656-1.1c-0.083-0.489-0.184-0.975-0.333-1.447
		c-0.269-0.849-0.727-1.773-1.328-2.613c-0.003-0.018-0.002-0.035-0.005-0.053c-0.128-0.646-0.554-2.611,0.556-2.707
		c1.32-0.114,2.594,0.938,3.442,1.82C276.2,372.418,276.465,374.296,276.101,376.259z M280.442,373.629
		c-0.076,0.233-0.185,0.444-0.293,0.658c-0.148-0.257-0.268-0.552-0.369-0.795c-0.175-0.421-0.463-0.766-0.831-0.953
		c-0.108-0.404-0.246-0.797-0.404-1.179c-0.048-0.038-0.097-0.073-0.143-0.121c-0.357-0.37-0.646-0.782-0.902-1.213
		c-0.2-0.182-0.327-0.425-0.365-0.692c-0.106-0.234-0.209-0.469-0.291-0.714c-0.168-0.237-0.248-0.535-0.23-0.829
		c0-0.002,0-0.003,0-0.005c-0.006-0.026-0.016-0.05-0.021-0.076c-0.051-0.239-0.03-0.454,0.033-0.644
		c-0.057-0.441,0.09-0.907,0.457-1.166c0.075-0.105,0.173-0.188,0.285-0.261c0.002-0.001,0.004-0.003,0.006-0.004
		c0.114-0.073,0.249-0.118,0.401-0.146l0,0c0.013-0.08,0.017-0.171,0.045-0.237c0.006-0.014,0.049-0.073,0.091-0.131
		c0.026-0.013,0.059-0.04,0.061-0.055c0.082-0.009,0.165,0.001,0.309,0.037c1.397,0.358,2.433,2.278,2.726,3.659
		C281.315,370.213,280.917,372.162,280.442,373.629z M284.865,366.849c-0.193,0.516-0.265,1.074-0.23,1.629
		c-0.086,0.379-0.194,0.735-0.317,1.072c-0.087-0.042-0.175-0.075-0.263-0.098c-0.027-0.514-0.073-1.017-0.155-1.489
		c-0.199-1.143-0.727-2.272-1.463-3.242c0.037-0.392-0.06-0.797-0.288-1.111c-0.013-0.04-0.019-0.078-0.036-0.119
		c-0.264-0.628-0.75-1.456-0.057-1.489c1.024-0.048,1.865,0.831,2.316,1.644C284.813,364.445,284.944,365.635,284.865,366.849z
		 M438.501,365.73c-50.17,0.258-100.332-0.99-150.501-1.006c-0.096,0-0.178,0.02-0.269,0.027c-0.095-0.574-0.24-1.129-0.428-1.656
		c0.411,0.003,0.847-0.102,1.292-0.378c1.761-1.094,3.24-2.573,5-3.667c2.732-1.698,0.223-6.024-2.524-4.317
		c-1.761,1.094-3.24,2.573-5,3.667c-0.65,0.404-0.996,0.958-1.12,1.543c-1.329-0.869-3.194-1.357-4.626-0.53
		c-0.655,0.379-1.071,0.893-1.307,1.477c-5.722-3.372-16.991-5.57-19.247,2.64c-1.514,0.136-2.97,0.636-4.15,1.522
		c-0.554-0.552-1.308-0.939-2.289-0.992c-4.23-0.229-8.444-0.271-12.658-0.025c1.39-26.849-0.116-53.742-0.173-80.614
		c0.094-0.144,0.164-0.311,0.164-0.528c-0.001-2.317-0.049-4.622-0.295-6.926c1.605-2.296,3.215-4.604,4.075-7.342
		c0.049-0.157,0.066-0.303,0.068-0.444c0.037-0.067,0.077-0.13,0.114-0.198c0.923-1.701-1.668-3.215-2.59-1.514
		c-0.403,0.743-0.861,1.363-1.357,1.9c0.115-2.245,0.067-4.463-0.125-6.696c66.059-1.224,132.13-0.96,198.197-0.948
		C435.039,295.628,438.479,330.722,438.501,365.73z"/>
	<path fill="#FCFCFC" d="M271.07,273.515c-6.808,0.998-16.761-4.492-19.517,5.173c-1.01,3.544-0.04,8.086-0.078,11.727
		c-0.061,5.937-0.286,11.871-0.309,17.809c-0.017,4.515,6.983,4.513,7,0c0.017-4.594,0.246-9.217,0.346-13.833h5.821
		c4.514,0,4.514-7,0-7h-5.814c-0.027-0.995-0.069-1.99-0.128-2.983c-0.074-1.236-0.127-2.446-0.099-3.684
		c0.047-2.139,5.193-0.893,6.036-0.76c2.939,0.464,5.647,0.735,8.603,0.302C277.383,279.612,275.483,272.868,271.07,273.515z"/>
	<path fill="#FCFCFC" d="M301.833,306.223c-0.128-6.391-2.539-11.93-7.124-15.619c2.059-1.596,3.321-3.872,2.846-7.116
		c-0.92-6.282-8.61-9.628-13.958-10.974c-0.688-0.173-1.304-0.136-1.853,0.026c-1.779-0.039-3.701,1.078-3.911,3.349
		c-1.001,10.806-1.152,21.509,0.458,32.264c0.667,4.452,7.411,2.553,6.75-1.861c-0.609-4.067-0.903-8.152-0.987-12.242
		c0.766-0.076,1.579-0.18,2.41-0.319c0.275,0.207,0.576,0.395,0.938,0.533c5.112,1.945,7.326,6.748,7.43,11.958
		c0.007,0.329,0.059,0.627,0.134,0.908c0.099,1.666,1.213,3.259,3.366,3.259c2.081,0,3.191-1.49,3.353-3.094
		C301.778,306.969,301.841,306.62,301.833,306.223z M290.132,285.425c-1.39,1.26-4.257,1.453-6.032,1.622
		c0.078-2.327,0.213-4.654,0.386-6.978c2.488,0.847,5.217,2.168,6.045,4.133c0.113,0.269,0.121,0.728,0.158,0.684
		C290.637,284.999,290.517,285.076,290.132,285.425z"/>
	<path fill="#FCFCFC" d="M316.714,281.057H322c0.119,0,0.221-0.024,0.333-0.033c0.112,0.009,0.215,0.033,0.333,0.033
		c4.514,0,4.514-7,0-7c-0.119,0-0.221,0.024-0.333,0.033c-0.112-0.009-0.215-0.033-0.333-0.033h-16c-4.514,0-4.514,7,0,7h3.71
		c-1.018,7.326-1.048,14.622,0.242,21.909c-1.071,0.151-2.143,0.331-3.216,0.549c-4.422,0.901-2.545,7.648,1.861,6.75
		c3.962-0.807,7.873-1.098,11.806,0c0.435,0.121,0.837,0.145,1.218,0.12c0.016,0,0.029,0.005,0.046,0.005
		c0.039,0,0.07-0.01,0.108-0.011c0.061-0.007,0.124-0.008,0.184-0.018c4.155-0.303,4.112-6.793-0.137-6.956
		c-1.61-0.415-3.222-0.656-4.837-0.759c-1.433-7.085-1.417-14.363-0.276-21.493C316.714,281.12,316.71,281.09,316.714,281.057z"/>
	<path fill="#FCFCFC" d="M347.667,303.39c-3.922-0.258-7.849-0.314-11.777-0.328c-0.241-3.004-0.411-6.005-0.49-9.006h5.399
		c0.436,0.208,0.945,0.333,1.536,0.333c4.044,0,4.453-5.604,1.251-6.774c-0.509-0.343-1.142-0.56-1.918-0.56h-6.271
		c0.062-2.458,0.189-4.917,0.409-7.376c3.732-0.084,7.461-0.271,11.195-0.29c4.513-0.023,4.515-7.024,0-7
		c-4.558,0.024-9.109,0.308-13.667,0.333c-0.115,0.001-0.215,0.024-0.324,0.034c-0.115-0.01-0.221-0.034-0.343-0.034
		c-1.865,0-2.947,1.199-3.271,2.602c-0.105,0.278-0.189,0.573-0.229,0.898c-1.231,10.004-0.958,19.985,0,30
		c0.026,0.27,0.078,0.522,0.149,0.76c0.169,1.596,1.278,3.074,3.351,3.074c0.072,0,0.137-0.009,0.207-0.013
		c0.044,0.001,0.082,0.013,0.127,0.013c4.892,0.001,9.783,0.012,14.667,0.333C352.176,310.686,352.147,303.684,347.667,303.39z"/>
	<path fill="#FCFCFC" d="M379.833,276.557c-0.141-4.503-7.141-4.517-7,0c0.193,6.155,0.287,12.312,0.398,18.469
		c-4.128-6.465-7.987-13.092-11.543-19.902c-2.032-3.892-7.778-0.651-6.176,3.205c-0.003,0.077-0.015,0.147-0.012,0.228
		c0.318,9.223,0.307,18.443,0,27.667c-0.151,4.516,6.85,4.502,7,0c0.166-4.971,0.237-9.942,0.226-14.912
		c3.032,5.102,6.218,10.112,9.586,15.012c0.248,0.361,0.537,0.635,0.841,0.865c0.139,0.23,0.306,0.443,0.5,0.633
		c1.007,3.541,6.975,3.247,6.848-0.931C380.193,296.781,380.15,286.666,379.833,276.557z"/>
	<path fill="#FCFCFC" d="M405.773,290.043c-1.505-7.93-7.686-13.988-14.673-17.509c-0.85-0.428-1.673-0.481-2.413-0.302
		c-1.935-0.275-4.015,0.825-3.853,3.325c0.623,9.658,0.666,19.326,0.667,29c0,2.717,2.529,3.784,4.547,3.226
		c0.085,0.031,0.177,0.05,0.265,0.075c0.002,0.001,0.003,0.002,0.005,0.002c0.843,0.36,1.083,0.423,2.016,0.53
		c0.307,0.035,0.632-0.012,0.951-0.109c0.576,0.037,1.189-0.066,1.816-0.369C402.039,304.559,407.312,298.148,405.773,290.043z
		 M392.631,301.304c-0.047-0.016-0.094-0.03-0.139-0.043c-0.012-6.575-0.08-13.147-0.356-19.714
		C399.041,287.181,402.138,296.002,392.631,301.304z"/>
	<path fill="#FCFCFC" d="M310.161,332.474c-2.669-7.459-10.025-11.209-17.455-10.108c-1.184-0.699-2.679-0.689-3.847,0.715
		c-4.903,5.892-6.564,14.109-4.763,21.53c1.909,7.865,9.332,10.804,16.499,7.809C308.658,349.051,313.207,340.983,310.161,332.474z
		 M296.851,346.39c-8.701,3-6.735-11.399-3.925-16.954c4.69-1.064,9.062,0.922,10.769,5.693
		C305.622,340.511,301.696,344.72,296.851,346.39z"/>
	<path fill="#FCFCFC" d="M338.167,324.223c-0.177-4.498-7.177-4.516-7,0c0.22,5.591,0.537,11.178,0.835,16.766
		c-3.869-5.033-7.289-10.367-9.98-16.199c-1.48-3.207-6.646-1.576-6.522,1.767c0.306,8.22,0.361,16.447,0.667,24.667
		c0.167,4.5,7.168,4.516,7,0c-0.135-3.639-0.22-7.279-0.3-10.919c3.217,4.702,6.832,9.137,10.659,13.394
		c2.025,2.253,6.096,0.51,5.975-2.475C339.133,342.219,338.521,333.228,338.167,324.223z"/>
	<path fill="#FCFCFC" d="M362.403,344.515c-3.989,0.902-8.148,0.31-12.182-0.316c-0.606-6.694-1.05-13.446,0.487-20.045
		c1.023-4.392-5.726-6.257-6.75-1.861c-1.923,8.257-1.227,16.574-0.458,24.93c0.13,1.417,0.958,3.137,2.57,3.375
		c6.049,0.893,12.131,2.037,18.194,0.667C368.666,350.27,366.799,343.521,362.403,344.515z"/>
	<path fill="#FCFCFC" d="M378.958,318.626c-1.794,4.282-4.827,7.917-7.471,11.746c-3.679-3.331-6.618-7.443-8.446-12.08
		c-1.636-4.149-8.407-2.344-6.75,1.861c2.88,7.306,7.476,13.223,13.682,17.957c0.168,4.035,0.193,8.072,0.193,12.112
		c0.001,4.514,7.001,4.514,7,0c-0.001-5.004-0.025-10.004-0.333-15c-0.006-0.095-0.031-0.177-0.043-0.268
		c3.057-4.794,6.692-9.154,8.918-14.468C387.452,316.325,380.676,314.528,378.958,318.626z"/>
	<path fill="#FCFCFC" d="M421.405,289.697c-3.848-0.561-5.624-3.343-5.792-7.13c-0.275-6.22,6.116-2.703,7.012,1.254
		c0.997,4.402,7.745,2.535,6.75-1.861c-1.263-5.58-5.678-9.574-11.346-10.122c-5.922-0.573-9.099,5.876-9.415,10.729
		c-0.336,5.153,2.991,10.839,7.62,13.012c1.409,0.661,2.935,0.813,4.457,1.035c2.545,0.371,2.505,4.336,0.74,5.309
		c-0.614,0.338-6.148,1.37-6.263,0.301c-0.069-0.637-0.282-1.172-0.578-1.628c-0.342-1.375-1.418-2.539-3.255-2.539
		c-3.043,0-4.026,3.176-2.966,5.25c2.17,8.676,18.204,8.563,20.647-0.067C430.78,297.004,428.162,290.682,421.405,289.697z"/>
	<path fill="#FCFCFC" d="M387.233,520.643c-0.309-0.256-0.717-0.42-1.233-0.42c-0.128,0-0.246,0.017-0.361,0.036
		c-0.099-0.015-0.197-0.034-0.305-0.036c-10.668-0.193-20.923-3.478-31.502-4.535c-9.532-0.952-18.861,0.812-27.507,4.808
		c-0.402,0.186-0.667,0.444-0.831,0.735c-0.917-0.172-1.854-0.293-2.826-0.341c-4.606-0.228-9.48,0.478-14.085,0.751
		c-3.797,0.225-7.414-0.088-11.114,0.987c-0.51,0.148-0.865,0.432-1.092,0.778c-8.241,1.859-8.182,12.635-9.45,19.322
		c-0.736,3.881-3.274,16.242,2.924,17.12c0.299,0.223,0.68,0.366,1.15,0.375c9.324,0.178,18.489,2.606,27.644,4.19
		c7.154,1.238,13.495,4.538,20.535,1.417c0.115,0.002,0.229,0.006,0.352-0.011c7.617-1.072,15.332-1.907,22.667-4.333
		c0.888-0.294,1.309-0.994,1.373-1.725c0.443-0.319,0.756-0.827,0.762-1.537c0.057-6.303,1.253-15.329-0.943-22.284
		c4.478,1.862,8.988,2.982,14.616,1.523c7.077-1.835,9.812-8.568,9.995-15.239C388.02,521.479,387.697,520.957,387.233,520.643z
		 M355.643,519.869c5.804,0.58,11.467,1.89,17.175,2.924c-1.738,0.154-3.478,0.317-5.216,0.571
		c-3.643,0.533-7.282,1.061-10.906,1.688c-0.118-0.002-0.233-0.01-0.362,0.004c-1.44,0.159-2.86,0.39-4.273,0.65
		c-0.896-0.064-1.788,0.051-2.68,0.342c-0.38,0.124-0.757,0.294-1.136,0.465c-0.608,0.146-1.213,0.3-1.817,0.46
		c-4.258-1.279-8.597-2.256-12.872-3.479c-0.815-0.233-1.61-0.481-2.399-0.728C339.011,519.736,347.157,519.022,355.643,519.869z
		 M310,525.557c4.211-0.249,8.449-0.577,12.667-0.667c3.929-0.084,7.845,1.895,11.552,2.956c1.637,0.468,3.286,0.888,4.935,1.306
		c-1.944,0.643-3.881,1.316-5.819,1.995c-0.201,0.07-0.375,0.163-0.537,0.264c-0.764,0.054-1.33,0.395-1.697,0.883
		c-1.666,0.246-3.384,0.252-5.209-0.185c-6.827-1.634-13.576-3.999-20.211-6.445C307.116,525.641,308.558,525.642,310,525.557z
		 M297.817,527.165c0.302,0.237,0.69,0.392,1.183,0.392c0.06,0,0.115-0.009,0.17-0.017c-2.773,1.655-4.38,4.71-5.253,8.325
		c0.164-0.578-0.137-1.308-0.917-1.308c-0.453,0-0.738,0.252-0.872,0.572C292.772,531.403,294.043,527.874,297.817,527.165z
		 M292.297,556.283c-0.315-0.269-0.742-0.432-1.297-0.393c-2.016,0.141-0.916-7.887-0.222-11.934c0.129,0.335,0.421,0.6,0.888,0.6
		c1.29,0,1.29-2,0-2c-0.304,0-0.53,0.117-0.69,0.286c0.083-0.451,0.151-0.795,0.191-0.986c0.362-1.734,0.522-3.999,0.877-6.234
		c0.028,0.476,0.341,0.933,0.956,0.933c0.478,0,0.776-0.276,0.9-0.621c-1.588,6.658-0.701,15.194,0.021,20.421
		C293.382,556.319,292.838,556.306,292.297,556.283z M321.248,561.334c-2.345-0.642-4.605-1.281-6.633-1.634
		c-5.585-0.974-11.079-2.225-16.667-2.933c0.005-0.132,0.002-0.267-0.019-0.409c-0.852-5.883-3.463-25.613,5.738-26.135
		c0.549-0.031,0.974-0.245,1.289-0.551c6.049,2.273,12.25,4.514,18.494,5.998C320.048,543.672,320.043,552.81,321.248,561.334z
		 M330.913,545.885c0.35,5.882-1.073,11.76,0.753,17.402c-2.099-0.047-4.294-0.426-6.485-0.938c0.097-0.297,0.137-0.626,0.081-0.99
		c-1.248-8.104-1.375-17.271,2.179-24.842c0.052,0.009,0.103,0.022,0.155,0.031c1.434,0.254,2.837,0.211,4.221-0.007
		C330.752,539.356,330.715,542.554,330.913,545.885z M360.342,557.868c-7.066,2.222-14.464,3.053-21.776,4.08
		c-0.292,0.002-0.597,0.064-0.909,0.215c-0.381,0.185-0.774,0.338-1.173,0.474c-0.158-0.043-0.319-0.08-0.484-0.08
		c-0.134,0-0.263,0.015-0.387,0.039c-1.792-4.329-0.846-9.538-0.638-14.077c0.232-5.048-1.254-9.916,2.801-13.641
		c3.157-1.101,6.34-2.167,9.567-3.042c0.175-0.028,0.339-0.069,0.485-0.135c1.538-0.407,3.09-0.754,4.652-1.048
		c0.216,0.348,0.531,0.648,0.989,0.832c1.411,0.566,2.76,1.177,4.077,1.791C362.469,539.187,360.469,550.978,360.342,557.868z
		 M373.667,534.223c-4.747,0.532-8.994-1.537-13.167-3.701c-0.519-0.61-1.101-1.173-1.75-1.685
		c8.316-1.156,16.812-1.504,24.906-3.474C382.667,530.368,379.509,533.569,373.667,534.223z"/>
	<path fill="#FCFCFC" d="M328.333,540.89c-1.29,0-1.29,2,0,2S329.623,540.89,328.333,540.89z"/>
	<path fill="#FCFCFC" d="M328,548.223c-1.29,0-1.29,2,0,2S329.29,548.223,328,548.223z"/>
	<path fill="#FCFCFC" d="M328,556.223c-1.29,0-1.29,2,0,2S329.29,556.223,328,556.223z"/>
	<path fill="#FCFCFC" d="M291,549.223c-1.29,0-1.29,2,0,2S292.29,549.223,291,549.223z"/>
	<path fill="#FCFCFC" d="M314.333,542.057c-0.806,0-1.411,0.312-1.814,0.781c-1.819,0.853-6.084,0.948-6.776-1.279
		c-0.953-3.069-5.78-1.759-4.821,1.329c1.746,5.623,9.711,6.789,14.339,4.161c0.337-0.191,0.593-0.424,0.785-0.679
		C317.377,545.003,316.811,542.057,314.333,542.057z"/>
	<g>
	</g>
</g>
<g>
</g>
</svg>
