<?xml version="1.0" encoding="utf-8"?>
<!DOCTYPE svg PUBLIC "-//W3C//DTD SVG 1.1//EN" "http://www.w3.org/Graphics/SVG/1.1/DTD/svg11.dtd">
<svg version="1.1" xmlns="http://www.w3.org/2000/svg" xmlns:xlink="http://www.w3.org/1999/xlink" x="0px" y="0px"
	 width="595.28px" height="841.89px" viewBox="0 0 595.28 841.89" enable-background="new 0 0 595.28 841.89" xml:space="preserve">
<g>
	<rect y="0" width="595.28" height="841.89"/>
</g>
<g>
	<path fill="#C06B3E" d="M309.75,349.14c3.449,8.067,15.924,4.114,16.444,15.926c0.189,4.303-3.52,12.221-5.456,16.109
		c-1.416,2.843-0.448,4.862-5.449,3.715c-2.854-0.655-4.129-2.767-4.538-5.738c-0.719-5.221,3.738-10.2,2.006-15.781
		c-1.421-4.58-5.577-5.8-10.132-6.485c1.152-2.344,4.881-10.363,7.876-5.745"/>
</g>
<g>
	<path fill="#FD9E58" d="M261.75,353.89c4.892,0.201,12.292-2.788,15.763,1.456c-12.71,1.231-10.969,24.377-27.797,18.374
		c-11.635-4.151-11.531-20.776,1.882-21.706c-0.603,2.063-3.455,6.612-2.421,8.682c1.481,2.964,9.258,2.214,11.354,2.157
		c0.984-3.156,1.488-6.323,0.97-9.712"/>
	<g>
		<path fill="#EE834A" d="M260.75,354.39c4.999,1.773,11.021,0.879,16.302,1.707c5.737,0.9,8.928,6.063,14.098,6.803
			c5.909,0.846,20.831-6.39,19.059-14.543c-3.52,1.919-5.429-7.289-9.481-8.709c-7.275-2.551-11.249,5.08-16.893,7.435
			c-5.774,2.408-11.261-2.906-16.796-1.603c-3.866,0.91-8.123,5.024-5.54,8.911"/>
	</g>
</g>
<g>
	<path fill="#FDCCCC" d="M268,363.64c-0.597,7.099-1.619,14.678-1.5,22.191c0.148,9.286,4.628,17.022,6.211,25.577
		c-0.614-0.035-1.66,0.321-2.423,0.266c-0.88,4.133,3.599,3.542,5.735,5.243c3.025,2.41,3.545,6.702,6.353,9.279
		c7.534,6.916,16.489,3.865,22.045-3.341c5.343-6.93,3.567-14.324,1.524-22.411c-2.249-8.901-4.634-18.98-8.491-27.233
		c-3.565-7.629-8.625-13.845-16.773-15.516c-1.905-0.391-1.698-1.331-4.083-1.158c-5.823,0.424-5.467,5.69-9.599,8.352"/>
</g>
<g>
	<path fill="#F8E2E2" d="M268.75,364.14c-1.528,9.899-2.233,18.48-0.061,28.295c1.407,6.356,4.652,13.008,5.543,19.283
		c-1.281-0.716-3.387-0.552-4.717-1.066c-0.171,0.818-0.022,2.551,0.266,3.395c2.89,0.382,5.3,1.935,8.193,2.357
		c0.094,4.997,5.441,10.203,10.095,12.23c-12.77,5.656-26.725-14.528-29.333-24.641c-1.671-6.479-2.862-14.459-3.194-21.114
		c-0.404-8.114,5.13-10.961,12.066-14.307c-0.166,0.507-0.246,1.045-0.36,1.569"/>
</g>
<g>
	<path fill="#E1B5B4" d="M288,361.89c7.839,6.27,8.298,21.052,11.249,30.161c2.225,6.868,5.139,14.125,8.37,20.812
		c2.692-7.022,28.982-23.327,13.645-26.917c-4.777-1.118-6.432,0.177-8.837-2.838c-3.941-4.94-0.508-7.675,0.628-12.516
		c0.918-3.912-0.319-11.165-4.867-12.394c-2.478-0.67-3.25,0.889-5.143,1.644c-5.141,2.051-7.859,2.436-13.544,2.298"/>
	<path fill="#E1B5B4" d="M374.25,387.39c-8.936,0.472-18.919,13.891-15.249,22.06c2.628-2.392,3.986-5.63,6.853-8.059
		c2.838-2.404,5.879-4.404,9.14-6.44c2.292-1.431,7.028-3.682,4.553-6.859c-1.229-1.578-3.316-1.56-5.048-0.452"/>
</g>
<g>
	<path fill="#E1B5B4" d="M349.5,405.89c3.3,13.6-0.92,24.343-9.842,34.879c-4.247,5.016-14.89,7.604-8.408,13.115
		c2.492,2.119,4.705,3.061,7.005,5.624c2.779,3.097,2.26,4.374,7.255,3.38c5.763-1.146,15.121-10.092,15.22-16.205
		c-10.842-0.227-2.162-18.202-1.454-22.709c1.426-9.077-2.856-12.904-9.276-17.085"/>
</g>
<g>
	<path fill="#FDCCCC" d="M340.75,399.89c7.566,9.72,4.15,21.038-2.007,28.505c-5.373,6.516-5.406,14.581-12.97,19.732
		c12.207,6.892,24.081-11.522,28.221-20.169c1.862-3.889,6.896-11.34,4.48-15.843c-1.622-3.022-7.754-4.533-10.287-6.993
		c-2.273-2.208-2.638-5.075-6.187-5.233"/>
	<path fill="#FDCCCC" d="M364.25,374.39c-3.505,0.192-10.036,14.676-10.306,18.597c-0.257,3.74,1.634,8.341,3.819,11.097
		c2.813-6.456,4.604-13.636,7.656-19.957c1.38-2.859,6.584-6.875,6.031-10.524c-0.837-5.528-4.719,0.06-7.949,0.537"/>
</g>
<g>
	<path fill="#F8E2E2" d="M346.25,371.64c-4.632,4.315-3.676,14.583-2.758,20.499c0.327,2.106,0.131,6.276,0.875,8.029
		c2.064,4.862,8.71,4.914,10.882,9.464c0.937-5.578-0.647-11.326-1.486-16.748c-1.231-7.948-1.64-14.877-4.056-22.773
		c-1.16,0.153-2.556,0.776-3.457,1.779"/>
	<path fill="#F8E2E2" d="M341,399.39c-6.823-1.851-19.125-2.84-24.054,1.45c-3.32,2.89-12.269,12.492-6.507,15.069
		c6.693,2.993,14.98-7.395,23.335-3.969c4.505,1.847,4.632,9.233,9.791,10.684c-2.853,2.66-5.741,5.624-8.078,8.755
		c-2.199,2.946,0.331,4.002-4.062,3.826c-2.807-0.113-4.672-2.469-6.358-4.327c-2.188-2.41-3.316-5.922-5.573-8.229
		c-4.245-4.339-7.624-3.331-13.513-2.208c-0.024,2.254-0.978,4.626,0.062,6.699c0.839,1.673,3.544,2.149,4.713,4.117
		c0.66,1.11,0.895,2.439,1.25,3.603c1.053,3.454,0.968,4.296,2.927,7.032c1.507,2.105,4.023,5.403,7.184,6.049
		c8.105,1.655,16.827-10.755,20.327-16.813c5.002-8.658,11.575-26.67-1.194-32.236"/>
</g>
<g>
	<path fill="#0090A1" d="M272.25,425.89c-3.466,1.846-6.659,8.583-7.756,12.463c-2.946,10.422,2.497,21.929,3.955,32.285
		c1.715,12.178-0.197,28.59,12.026,35.787c3.45-3.376,7.633-8.174,13.517-7.277c1.649,11.991,18.42,6.307,25.568,2.242
		c5.346-3.04,8.162-7.694,14.223-9.989c4.629-1.752,19.092-1.863,20.536-7.442c0.733-2.832-1.978-4.384-3.758-6.619
		c-4.294-5.391-7.454-10.162-10.36-16.157c-1.558-3.213-4.853-7.484-7.973-9.261c-4.353-2.477-8.579-2.749-12.573-5.947
		c-4.249-3.402-6.651-6.396-8.971-11.757c-0.882-2.038-0.214-5.028-2.163-6.852c-4.951-4.634-16.601,3.768-23.46,3.23
		c-3.244-0.254-9.751-1.879-12.81-4.206"/>
	<path fill="#0090A1" d="M272,426.39c-0.167-0.083-0.333-0.167-0.5-0.25"/>
	<path fill="#0090A1" d="M361.75,449.64c9.253,8.962,7.986,27.323,8.003,39.508c-7.476-0.394-17.639-8.479-22.155-13.923
		c-2.62-3.158-4.585-6.631-6.036-10.315c10.014-2.45,12.876-9.781,19.437-15.769"/>
</g>
<g>
	<path fill="#4AAFBF" d="M272.25,427.89c-7.511,3.314-4.508,25.438-3.994,31.818c1.021,12.658,3.156,26.831,6.206,39.154
		c-1.419-0.33-4.317-1.36-5.744-0.921c-3.433,1.056-1.969,2.796-3.638,4.043c-2.443,1.826-3.443,2.977-7.031,2.361
		c-3.011-6.744-11.344-7.565-17.875-9.01c2.266-13.261-1.235-26.999,3.064-39.714c1.621-4.795,1.84-8.429,2.768-13.421
		c1.239-6.663,7.057-11.286,12.166-15.874c5.897-5.295,10.106-3.063,13.328,1.813"/>
</g>
<g>
	<path fill="#267482" d="M319.25,413.39c7.018-5.174,20.209-1.356,22.05,7.419c1.201,5.723-2.25,2.957-5.638,7.782
		c-1.8,2.564-1.641,6.579-2.987,9.325c-8.634-5.755-10.949-17.205-20.463-21.738c2.504-0.168,5.21-0.983,7.538-2.039"/>
	<path fill="#267482" d="M360.5,424.64c5.279,4.837,10.34,9.344,14.848,14.979c4.56,5.7,6.512,12.851,10.054,18.892
		c-2.991-6.174-18.383-6.317-24.01-9.14c-4.116-2.065-4.935-3.818-5.843-7.883c-0.92-4.121-0.529-15.874,4.952-16.097"/>
	<path fill="#267482" d="M360.5,448.64c7.29,13.162,7.276,25.595,7.798,40.517c5.842,0.482,23.673,5.279,27.988-0.262
		c3.719-4.776,0.093-11.132-2.479-15.451c-7.893-13.256-17.455-20.305-33.056-23.554"/>
</g>
<g>
	<path fill="#BB6A3E" d="M304.125,399.015c0.046,4.182-2.532,8.49-5.589,11.235c-5.111,4.588-12.123,6.702-19.106,6.363
		c-1.33-0.064-11.172-1.959-9.495-4.482c0.911-1.37,9.82-0.669,11.469-1.015c5.781-1.213,15.192-3.872,18.346-9.189
		c1.084-0.134,2.299-0.968,3.125-1.911"/>
	<path fill="#BB6A3E" d="M302.875,400.015c0.375-0.25,0.75-0.5,1.125-0.75"/>
</g>
<g>
	<path fill="#202020" d="M269.972,392.264c-0.422-1.301-0.753-2.346-2.169-2.754c-0.04-0.011-0.073-0.028-0.112-0.041
		c-0.105,0.031-0.212,0.057-0.315,0.095c-0.214,0.077-0.428,0.159-0.643,0.236c-0.535,0.809-0.793,1.888-0.888,3.046
		c0.209,1.47,0.29,2.895,1.262,4.22c0.691,0.943,2.091,1.302,2.982,0.565C270.694,395.868,270.575,394.122,269.972,392.264z"/>
	<path fill="#202020" d="M294.5,383.89c-0.124-1.083-0.816-2-2-2c-0.887,0-1.873,0.726-1.992,1.651
		c-0.128,0.26-0.2,0.546-0.175,0.849c0.067,0.816-0.013,1.623-0.025,2.439c-0.015,0.982,0.242,1.85,0.632,2.737
		c0.721,1.64,3.25,1.07,3.656-0.478C295.067,387.29,294.706,385.689,294.5,383.89z"/>
	<path fill="#202020" d="M265.773,376.829c-1.965,2.016-3.443,4.392-4.052,7.162c-0.415,1.885,2.477,2.687,2.893,0.797
		c0.503-2.288,1.655-4.17,3.281-5.838C269.245,377.565,267.125,375.442,265.773,376.829z"/>
	<path fill="#202020" d="M294.727,371.996c-2.019-1.786-4.314-2.984-6.995-3.386c-1.892-0.283-2.706,2.607-0.798,2.893
		c2.173,0.326,4.022,1.156,5.671,2.614C294.049,375.394,296.179,373.28,294.727,371.996z"/>
	<path fill="#202020" d="M282.833,400.89c-2.152,0.24-3.924,0.325-5.658-0.88c2.82-4.41,3.27-9.398,1.455-14.386
		c-0.437-1.202-2.371-0.683-1.929,0.532c1.745,4.796,1.235,9.377-1.733,13.563c-0.246,0.348-0.156,0.934,0.156,1.212
		c2.361,2.102,4.645,2.301,7.707,1.96C284.1,402.749,284.114,400.747,282.833,400.89z"/>
	<path fill="#202020" d="M308.167,396.223c-2.032-0.173-3.62-1.275-4.202-3.266c-0.361-1.235-2.291-0.709-1.929,0.532
		c0.408,1.396,1.174,2.482,2.18,3.267c-0.003,0.013-0.011,0.02-0.014,0.034c-0.012,0.064-0.026,0.126-0.038,0.19
		c-8.932,9.468-20.433,15.212-33.664,13.909c-0.035-0.003-0.058,0.01-0.091,0.01c-0.107-0.335-0.231-0.673-0.378-1.014
		c-0.511-1.181-2.234-0.161-1.727,1.009c0.771,1.781,0.771,3.543,0,5.324c-0.507,1.171,1.216,2.19,1.727,1.009
		c0.261-0.603,0.44-1.194,0.573-1.78c0.046,0.022,0.078,0.056,0.131,0.073c7.087,2.289,15.346,3.341,22.35,0.123
		c7.449-3.423,11.443-10.056,12.959-17.891c0.661,0.242,1.369,0.407,2.123,0.471C309.452,398.333,309.442,396.332,308.167,396.223z
		 M293.075,413.457c-6.676,3.515-14.953,2.35-21.809,0.135c-0.164-0.053-0.314-0.06-0.45-0.039c-0.001-0.214,0.007-0.429-0.01-0.644
		c12.467,1.13,23.593-3.842,32.446-12.199C301.563,406.129,298.416,410.645,293.075,413.457z"/>
	<path fill="#202020" d="M296.568,420.426c-1.424,0.383-2.7,0.114-3.896-0.732c-1.055-0.747-2.053,0.988-1.009,1.727
		c1.615,1.143,3.534,1.446,5.437,0.934C298.343,422.02,297.815,420.09,296.568,420.426z"/>
	<path fill="#FCFCFC" d="M291.333,441.223c-5.159,0-5.159,8,0,8S296.492,441.223,291.333,441.223z"/>
	<path fill="#FCFCFC" d="M295.5,454.223c-4.514,0-4.514,7,0,7S300.014,454.223,295.5,454.223z"/>
	<path fill="#FCFCFC" d="M396.924,470.376c-0.939-2.105-2.052-3.999-3.302-5.727c0.106-0.507,0.102-1.069-0.08-1.69
		c-4.855-16.509-17.544-29.655-29.4-41.544c-0.748-0.75-1.592-1.039-2.406-1.021c0.344-1.786,0.461-3.545,0.047-5.051
		c-0.215-0.782-0.597-1.513-1.074-2.209c0.213-0.296,0.338-0.65,0.374-1.018c0,0,0,0,0,0c0.003-0.01,0.009-0.018,0.012-0.028
		c2.124-7.243,7.171-13.597,14.595-16.105c3.06-1.034,8.058-1.384,7.809-5.927c-0.217-3.961-2.502-5.25-6.284-5.069
		c-3.784,0.181-7.092,0.978-10.033,2.577c0.672-1.208,1.354-2.413,2.056-3.609c2.347-4.004,7.491-9.253,3.842-13.813
		c-2.838-3.546-8.579,0.638-10.758,2.635c-4.168,3.82-5.239,9.479-7.699,14.27c-0.061-0.673-0.129-1.344-0.18-2.018
		c-0.336-4.415-1.641-8.543-1.657-12.977c-0.006-1.711-1.08-3.782-2.829-4.263c-3.732-1.027-7.599,4.526-8.431,7.494
		c-1.135,4.047-0.898,8.101-0.557,12.257c0.27,3.294,1.436,6.38,2.024,9.599c-2.603-0.605-5.66-0.33-8.089-0.639
		c-2.887-0.368-5.916-0.764-8.899-0.778c1.779-1.429,3.118-3.395,2.825-5.792c-0.429-3.513-3.706-5.378-6.797-6.3
		c-0.014-0.004-0.027-0.004-0.04-0.008c0.483-5.035,4.198-9.066,6.042-13.78c1.974-5.046-0.486-10.915-4.626-14.077
		c-2.827-2.16-5.99-3.787-9.096-5.502c-1.476-0.815-2.91-1.68-4.304-2.628c-1.497-1.018-1.811-3.788-2.444-5.372
		c-1.877-4.695-8.854-5.69-13.018-3.893c-5.004,2.16-8.189,7.726-13.978,7.533c-5.653-0.189-12.48-4.245-17.911-1.239
		c-3.492,1.932-3.328,6.749-3.116,10.115c0.115,1.829,0.768,5.094-1.403,5.952c-1.453,0.574-6.261,0.581-6.521-1.583
		c-0.257-2.137,2.41-4.417,3.893-5.53c0.681-0.511,0.905-1.239,0.833-1.925c1.059-1.213,0.629-3.529-1.342-3.301
		c-10.902,1.26-19.757,10.122-14.358,21.311c2.671,5.534,7.852,7.468,13.154,6.988c-0.708,14.39-0.562,30.458,7.942,42.705
		c-13.848,5.465-19.897,20.762-22.669,34.419c-1.076,5.301-1.822,10.947-2.097,16.668c-1.596-2.233-3.902-3.974-6.97-4.963
		c-6.236-2.008-13.671,0.731-18.912,4.059c-13.326,8.462-15.764,28.807-9.794,42.408c6.842,15.587,37.823,15.896,38.638-3.787
		c0.33-7.98-4.602-14.607-12.42-16.429c-8.068-1.88-14.965,3.845-14.346,12.12c0.526,7.029,11.53,7.08,11,0
		c-0.005-0.068-0.154-0.99-0.115-1.475c0.082-0.022,0.172-0.047,0.28-0.074c0.852-0.217,2.228,0.682,2.952,1.116
		c3.195,1.918,1.56,6.174-0.951,7.737c-3.623,2.254-8.786,1.557-12.258-0.541c-3.532-2.134-4.449-7.233-4.688-10.964
		c-0.503-7.843,1.05-16.673,8.044-21.114c2.674-1.698,5.712-2.714,8.883-2.616c2.817,0.088,2.509,3.227,2.354,5.431
		c-0.367,5.202,5.467,6.552,8.79,4.118c0.622,5.135,1.743,10.141,3.502,14.812c0.099,0.264,0.22,0.504,0.358,0.721
		c-0.058,0.206-0.122,0.413-0.173,0.618c-0.192,0.769-0.153,1.46,0.023,2.078c-0.432,5.464,1.146,12.158,6.301,15.034
		c6.001,3.348,10.959-2.086,12.422-7.532c0.33-1.23,0.528-2.481,0.6-3.728c0.187,0.014,0.375,0.015,0.562,0.026
		c0.147,2.364,0.661,4.696,1.552,6.731c2.427,5.546,8.306,5.532,12.267,1.654c1.801-1.764,3.001-3.902,3.638-6.191
		c0.485,3.749,2.776,7.107,7.157,8.734c3.427,1.273,6.137-0.074,8.251-2.479c1.333,3.826,7.908,3.426,7.751-1.264
		c-0.067-1.997-0.141-4.003-0.204-6.013c8.704-0.947,16.397-4.514,23.913-8.569c-0.019,0.561-0.049,1.122-0.065,1.683
		c-0.083,2.905-0.03,5.794-0.284,8.694c-0.092,1.045-0.27,2.852-0.947,3.721c-1.824,2.342-5.165-0.536-5.414-2.515
		c-0.634-5.048-8.642-5.11-8,0c1.427,11.365,16.657,15.829,21.367,4.131c1.808-4.491,1.165-10.066,1.299-14.798
		c0.051-1.81,0.13-3.619,0.21-5.428c7.281-4.012,14.678-7.758,22.953-9.284c0.244,0.157,0.494,0.306,0.74,0.46
		c-0.029,0.121-0.072,0.226-0.093,0.356c-1.432,9.148-5.543,34.917,11.553,31.488c5.539-1.111,9.237-6.513,8.639-12.078
		c-0.751-6.98-7.114-10.099-13.551-9.684c0.217-2.042,0.52-4.076,0.839-6.105c4.725,2.163,9.699,3.771,14.709,4.779
		c0.001,0.054,0,0.109,0.001,0.163c0.122,9.021,14.122,9.032,14,0c-0.003-0.183-0.002-0.367-0.004-0.55
		C404.031,492.211,400.303,477.948,396.924,470.376z M382.55,454.709c-6.407-3.95-13.796-6.682-20.869-9.743
		c-0.873-0.378-1.966-0.421-2.855-0.067c-4.229-3.702-0.338-12.88,0.933-17.423c0.038-0.136,0.08-0.279,0.122-0.42
		C368.127,435.33,376.899,444.269,382.55,454.709z M377.216,388.987c1.549-0.401,1.745,0.397,0.588,2.394
		c-0.703,0.179-1.41,0.341-2.12,0.485c-1.87,0.404-3.547,1.204-5.223,2.111c-5.342,2.891-9.077,7.203-11.479,12.395
		c1.057-3.591,2.395-7.05,3.933-10.42c0.404-0.039,0.811-0.23,1.166-0.649C367.693,391.043,371.637,389.356,377.216,388.987z
		 M361.123,381.629c1.053-2.221,2.321-4.254,4.028-6.023c0.731-0.735,1.542-1.373,2.432-1.913c4.74-3.136,1.872,2.305,1.421,3.03
		c-4.741,7.617-9.181,15.393-12.275,23.786c-0.563-2.424-1.019-4.872-1.381-7.339C358.088,389.784,359.277,385.523,361.123,381.629z
		 M346.278,374.599c2.39-3.938,2.162-0.032,2.627,2.156c2.196,10.333,2.58,20.643,5.622,30.694
		c-0.326-0.255-0.641-0.506-0.934-0.752c-2.353-1.975-4.128-4.844-6.295-7.014c-0.249-5.276-2.289-10.203-2.548-15.506
		C344.588,380.863,344.485,377.554,346.278,374.599z M339.833,400.911c4.245,0.103,5.92,3.691,8.736,6.493
		c2.516,2.503,8.967,6.034,9.461,9.822c0.258,1.979-1.178,5.429-1.647,7.362c-0.583,2.401-1.246,4.777-1.812,7.184
		c-1.443,6.135-3.496,12.431,2.302,16.675c-1.982,6.984-7.871,11.872-15.046,13.091c-1.069-2.995-2.59-5.556-5.009-7.78
		c-1.629-1.498-3.718-2.426-5.71-3.317c-2.875-1.287-4.974-2.911-7.465-4.84c-1.602-1.241-3.294-2.353-5.058-3.347
		c-3.219-1.815-3.752-3.753-4.324-7.228c-0.348-2.114-1.12-3.986-2.202-5.811c-0.995-1.679-3.357-2.415-3.965-4.356
		c-0.137-0.436-0.374-0.756-0.662-0.983c-1.09-3.859,4.425-3.54,7.447-2.707c3.938,1.085,5.328,4.571,6.379,8.066
		c1.788,5.95,7.388,5.967,11.66,9.737c1.332,1.175,3.314,0.371,3.414-1.414c0.362-6.459,3.893-9.358,8.676-12.94
		c1.246-0.933,1.308-2.531,0-3.454c-3.57-2.517-5.25-5.255-5.343-9.606c-0.024-1.116-0.893-1.965-2-2
		c-2.682-0.084-5.311,0.296-7.907-0.546c-1.751-0.568-3.552-1.574-5.458-1.049c-1.552,0.427-3.011,1.988-4.311,2.868
		c-2.694,1.824-6.478,3.192-9.901,2.79c1.815-1.76,3.482-3.615,4.971-5.72c3.088-4.369,4.878-8.265,10.773-8.176
		C330.516,399.794,335.157,400.798,339.833,400.911z M340.729,422.914c-3.83,3.087-6.686,6.233-7.851,10.962
		c-0.889-0.619-1.814-1.187-2.808-1.689c-1.402-0.708-3.364-0.92-4.309-2.361c-0.692-1.055-0.969-2.733-1.335-3.944
		c-1.301-4.302-4.406-6.982-8.482-8.571c-0.221-0.086-0.442-0.165-0.663-0.239c1.794-0.436,3.566-1.124,5.303-1.967
		c0.988-0.48,1.761-1.004,2.466-1.464c4.42,0.003,8.688,0.143,12.913,1.479C336.519,418.54,337.921,420.625,340.729,422.914z
		 M250.258,372.626c-4.577-0.939-7.23-5.441-7.274-9.846c-0.045-4.535,3.027-7.455,6.793-9.04c-1.957,2.425-3.307,5.42-1.523,7.911
		c2.559,3.574,9.638,4.86,13.122,1.789c3.163-2.788,2.154-7.358,2.049-11.084c-0.126-4.474,2.502-5.041,6.467-4.381
		c3.58,0.596,7.052,1.578,10.676,1.928c5.75,0.555,9.022-3.692,13.321-6.675c4.234-2.939,9.352-2,10.872,3.318
		c0.832,2.913,2.745,4.294,5.225,5.843c6.002,3.746,17.022,7.253,14.189,16.39c-1.719,5.544-5.934,9.315-6.221,15.113
		c-2.601-0.073-5.41-0.603-5.604-3.589c-0.159-2.449,0.882-5.064,1.557-7.377c1.485-5.082,2.269-9.364-0.761-14.008
		c-3.319-5.088-8.782-2.927-13.127-0.736c-4.051,2.043-7.563,3.044-11.714,0.645c-2.495-1.442-4.503-3.342-7.218-4.422
		c-6.338-2.523-11.658,2.98-14.211,7.998c-2.027,3.984-3.877,6.622-7.915,8.782C256.32,372.596,253.206,373.23,250.258,372.626z
		 M258.833,375.89c0.006-0.125-0.008-0.236-0.017-0.351c4.063-1.503,7.726-4.284,9.807-7.76c2.608-4.357,3.817-9.731,9.998-9.823
		c3.589-0.053,6.779,4.303,10.022,5.519c3.386,1.269,6.505,1.053,9.855-0.202c3.908-1.465,8.747-6.089,11.913-1.236
		c3.115,4.775-1.629,12.414-2.05,17.557c-0.56,6.842,6.215,8.364,11.638,8.296c0.381-0.005,0.777-0.138,1.116-0.359
		c1.294,0.391,3.562,1.169,3.754,2.738c0.204,1.67-1.833,2.769-3.047,3.394c-1.104,0.568-1.202,1.66-0.758,2.511
		c-2.744,0.709-4.97,3.196-6.554,5.347c-3.022,4.106-5.576,7.886-9.427,11.288c-0.72,0.636-0.778,1.424-0.471,2.077
		c-0.039,0.622,0.253,1.229,1.042,1.564c0.499,0.212,0.998,0.383,1.496,0.532c-2.523,0.997-4.159,3.093-3.941,6.07
		c-0.102,0.056-0.205,0.105-0.308,0.179c-12.334,8.925-30.386,4.041-38.186-8.303C257.615,403.685,258.178,388.638,258.833,375.89z
		 M252.021,509.684c-0.199,0.742-0.393,1.148-0.768,1.787c-0.045,0.067-0.073,0.109-0.105,0.157
		c-0.05-0.035-0.091-0.063-0.124-0.085c-0.691-0.643-1.045-1.341-1.371-2.283c-0.623-1.803-0.637-3.654-0.487-5.537
		c0.027-0.34,0.013-0.654-0.029-0.949c0.14-0.447,0.305-0.88,0.538-1.306c0.179-0.328,0.224-0.413,0.283-0.456
		c0.01,0.003,0.022,0.005,0.032,0.008c-0.185,0.097,0.177,0.117,0.166,0.066c0.144,0.068,0.293,0.17,0.5,0.354
		C252.746,503.301,252.846,506.613,252.021,509.684z M269.515,509.895c-0.096-0.339-0.198-0.695-0.231-0.846
		c-0.493-2.234-0.31-4.979,0.522-7.275c0.082,0.078,0.18,0.165,0.245,0.233c-0.107-0.112,0.552,1.022,0.582,1.104
		C271.531,505.537,271.144,507.908,269.515,509.895z M289.573,508.192c-0.24,0.487-1.273,2.555-1.773,2.587
		c-1.596,0.101-1.618-2.582-1.419-3.487c0.375-1.705,1.579-3.443,2.983-4.469c0.271-0.198,0.882-0.361,1.142-0.482
		c0.141,0.363,0.443,1.256,0.648,1.996C290.7,505.658,290.184,506.951,289.573,508.192z M315.667,466.223
		c-5.16-0.024-5.158,7.976,0,8c3.603,0.017,7.204,0.115,10.804,0.222c-0.163,6.764-0.574,13.515-0.886,20.271
		c-7.66,4.239-15.45,8.044-24.24,9.003c-0.03-2.007-0.032-4.014,0.01-6.018c1.523-5.735,2.782-12.176,1.503-17.207
		c-0.943-3.709-6.92-3.945-7.714,0c-0.971,4.825-1.449,9.701-1.65,14.596c-0.004,0.021-0.008,0.043-0.013,0.064
		c-3.421-1.457-7.72-0.404-11.186,3.399c-1.523,1.672-2.609,3.612-3.242,5.621c-0.029-0.002-0.059-0.002-0.088-0.004
		c-0.163-1.565-0.557-3.122-1.192-4.608c-2.448-5.725-8.801-7.737-13.957-4.125c-1.533,1.074-1.967,2.682-1.7,4.146
		c-0.352,0.946-0.605,1.951-0.79,2.982c-0.433-0.02-0.866-0.029-1.297-0.066c-0.798-3.179-2.582-6.052-5.458-8.083
		c-2.347-1.657-5.492-1.78-8.04-0.602c-0.097,0.045-0.179,0.108-0.273,0.156c-3.081-11.17-2.743-23.647-1.044-34.867
		c1.831-12.088,6.441-28.797,19.384-33.338c0.74-0.26,1.284-0.687,1.673-1.197c10.298,9.148,27.318,11.244,38.803,3.224
		c0.032,0.021,0.066,0.034,0.099,0.053c1.542,2.326,4.043,3.805,4.944,6.871c1.11,3.779,0.547,7.311,4.267,9.678
		c4.082,2.597,7.831,5.752,11.953,8.223c2.207,1.323,4.704,2.092,6.921,3.432c2.543,1.536,3.931,4.24,4.85,6.955
		c-0.644,0.856-0.795,2.035-0.197,3.233c0.082,0.164,0.175,0.32,0.259,0.482C330.667,466.642,323.17,466.258,315.667,466.223z
		 M333.803,490.107c0.263-5.146,0.531-10.292,0.661-15.445c2.9,0.063,5.801,0.099,8.703,0.062c0.077-0.001,0.142-0.02,0.217-0.024
		c2.293,2.836,4.899,5.433,7.754,7.763C345.043,484.171,339.375,487.027,333.803,490.107z M369.417,507.932
		c0.026,1.917-2.433,4.012-4.2,2.547c-1.369-1.136-1.757-3.385-1.824-5.596c0.094-0.001,0.177,0.015,0.274,0.008
		C366.189,504.711,369.373,504.75,369.417,507.932z M379.333,468.557c0.21,6.97,0.026,13.939-0.015,20.909
		c-12.648-2.784-24.909-9.864-32.517-20.226c-0.226-0.672-0.625-1.272-1.184-1.721c-0.153-0.231-0.322-0.45-0.47-0.683
		c7.792-2.136,14.371-7.494,17.031-15.213c7.34,2.993,14.908,5.775,21.075,10.716C380.974,463.252,379.236,465.319,379.333,468.557z
		 M393.326,488.304c0.028-3.573,0.083-7.145,0.099-10.717C394.955,481.883,395.496,486.127,393.326,488.304z"/>
	<path fill="#FCFCFC" d="M353.899,501.66c-0.543-2.279-2.124-4.525-4.26-5.542c-3.03-1.443-6.147-0.679-8.991,0.818
		c-0.27,0.142-0.505,0.302-0.717,0.473c-1.662,0.101-3,1.29-3.621,2.917c-1.823,4.773-1.73,10.434,0.316,15.1
		c1.048,2.39,3.322,3.902,5.85,4.199c2.729,0.321,5.2-1.439,7.068-3.21C353.466,512.696,355.148,506.901,353.899,501.66z
		 M343.887,510.759c-0.136,0.141-0.269,0.262-0.403,0.376c-0.082-0.28-0.156-0.563-0.224-0.845c-0.441-1.831-0.31-4.001,0.201-6.034
		c0.401-0.075,0.809-0.193,1.225-0.412c0.462-0.243,0.861-0.396,1.336-0.522c0.02,0.039,0.036,0.07,0.053,0.101
		c0.031,0.132,0.2,0.844,0.215,0.748C346.578,506.753,345.681,508.896,343.887,510.759z"/>
	<path fill="#FCFCFC" d="M386.5,508.723c-6.449,0-6.449,10,0,10S392.949,508.723,386.5,508.723z"/>
</g>
</svg>
