<?xml version="1.0" encoding="utf-8"?>
<!-- Generator: Adobe Illustrator 17.0.0, SVG Export Plug-In . SVG Version: 6.00 Build 0)  -->
<!DOCTYPE svg PUBLIC "-//W3C//DTD SVG 1.1//EN" "http://www.w3.org/Graphics/SVG/1.1/DTD/svg11.dtd">
<svg version="1.1" xmlns="http://www.w3.org/2000/svg" xmlns:xlink="http://www.w3.org/1999/xlink" x="0px" y="0px" width="612px"
	 height="792px" viewBox="0 0 612 792" enable-background="new 0 0 612 792" xml:space="preserve">
<g id="Слой_2">
	<rect fill="#000405" width="612" height="792"/>
</g>
<g id="Слой_18">
	<path fill="#73350E" d="M251,529.25c0.81,7.645,3.196,14.005,8.839,17.492c0.355,1.868-1.216,3.557-0.208,5.563
		c3.325,0.918,6.254,0.43,9.538,0.408c2.372-4.477,2.872-10.698,1.093-15.735c-6.248-3.252-11.474-5.992-18.513-7.728"/>
	<path fill="#73350E" d="M303.563,529.387c6.637,7.262,6.201,18.469,1.235,26.801c30.772,14.347,33.314-25.595-0.485-26.551"/>
</g>
<g id="Слой_19">
	<path fill="#914616" d="M228,531c9.198,2.207,13.442,11.676,14.448,20.743c3.998-0.15,11.45-2.708,14.683-4.954
		c4.054-20.232-13.673-23.562-30.131-16.539"/>
	<path fill="#914616" d="M300.75,529.5c20.975,2.409,16.429,36.898-5.547,25.232c-12.734-6.759-14.404-25.355,3.797-24.982"/>
</g>
<g id="Слой_13">
	<path fill="#AC551E" d="M224.25,531.5c31.198-9.715,24.163,35.685-0.994,24.004c-11.925-5.537-9.979-18.236,0.744-23.504"/>
	<path fill="#AC551E" d="M286.25,536.25c3.379,4.317,5.496,8.929,5.198,14.981c-6.697-1.746-13.759-0.568-20.662,1.235
		c-1.383-4.133-1.19-10.846,0.147-14.686c4.838,0.75,10.681-1.892,14.567-1.531"/>
</g>
<g id="Слой_10">
	<path fill="#006575" d="M250.75,410.5c3.872,20.206,6.571,40.884,8.319,61.539c1.901,22.467,9.844,43.987,11.186,66.562
		c-0.018-0.172-0.003-0.344,0.043-0.514c-12.26-7.053-11.493-12.052-14.611-25.112c-2.715-11.373-5.765-21.665-8.994-32.981
		c-3.22-11.284-5.875-22.985-8.756-34.231c-1.468-5.728-11.499-32.062-9.186-36.516c0.05-0.097,0.033-0.583,0.037-0.709
		c6.914-1.041,15.098,0.889,21.961,2.212"/>
</g>
<g id="Слой_15">
	<path fill="#003E48" d="M247.056,410.25c5.422,34.579,11.282,69.228,16.499,103.438c1.104,7.237,1.404,14.714,2.076,21.998
		c3.865,1.584,9.159,1.712,12.694,0.526c8.513-15.605,11.124-37.181,15.188-54.638c4.064-17.458,18.304-52.258,13.293-69.999
		c-0.639-2.262,0.319-6.259,0.518-8.323c-5.249-1.344-11.632-2.139-17.026-3.057c-7.688,9.838-34.722,5.669-47.431,4.831
		c2.088,1.165,2.97,3.701,3.939,4.725"/>
</g>
<g id="Слой_17">
	<path fill="#914616" d="M230.687,374.297c18.996-0.184,39.031-0.644,57.852,1.74c-5.523,48.463-26.074,25.855-61.273,30.028
		c-1.588-11.105,2.224-22.836,5.399-33.031"/>
	<path fill="#73350E" d="M265.667,373.5c-0.254,1.43,0.281,3.645,0.658,5.095c4.783-0.014,9.592,0.377,14.329,0.546
		c0.11-0.876,0.11-3.709,0-4.612c-4.291-0.663-11.86-3.282-14.82-0.529"/>
	<path fill="#73350E" d="M246.167,387c2.419,5.768-0.525,8.72-2,13.642c10.29,2.089,11.198-17.856,0.216-15.284
		c0.188,1.581,1.237,1.516,2.618,1.975"/>
	<path fill="#73350E" d="M261,385.833c-1.493,4.331-1.801,5.593,2.697,6.509c5.303,1.08,5.653-2.163,8.981-4.843
		c-0.001-0.001-0.032-0.472-0.036-0.467c-3.197-1.771-7.733-1.033-11.475-1.033"/>
	<path fill="#73350E" d="M228.875,407.75c0.041-1.141-0.513-2.228-1.581-2.689c3.858-1.312,9.624,0.638,13.628,0.689
		c9.325,0.117,18.894,3.891,28.27,3.259c-0.099,0.778,0.769,2.311,0.544,2.849c-0.994,2.372-10.811-0.456-13.493-0.79
		c-8.961-1.116-18.75-1.283-27.493-3.381"/>
</g>
<g id="Слой_14">
	<path fill="#002C34" d="M302.5,402.75c0.58,41.403-10.63,94.279-24.718,133.482c17.13,0.657,33.764-85.528,38.149-100.927
		c3.703-13.001,7.766-25.915,9.216-39.292c-7.891,0.915-15.731,2.134-23.595,3.348c-1.029,1.318,0.343,2.343,0.447,4.639"/>
</g>
<g id="Слой_11">
	<path fill="#007584" d="M329,279.25c2.626,10.547,6.602,21.36,10.493,31.585c4.188,11.007,13.116,20.511,13.758,32.081
		c0.86,15.484-14.406,28.486-10.941,43.577c13.318-1.747,37.631-18.43,40.702-32.192c5.389-24.147-23.707-48.096-39.078-61.706
		c-4.406-3.901-8.269-7.698-13.934-9.595"/>
</g>
<g id="Слой_6">
	<path fill="#0090A1" d="M356.5,348l-1.25,0.5c-9.101,2.872-40.416,26.138-27.024,37.962c2.704,2.387,5.243,3.504,7.607,3.646
		c-0.101-0.55,0.134-1.131,0.846-1.273c1.667-0.333,3.333-0.667,5-1c0.255-0.051,0.483-0.023,0.683,0.052
		C352.072,380.423,357.301,356.397,356.5,348z"/>
	<path fill="#0090A1" d="M342.196,300.939c-3.521-7.338-7.358-16.981-14.355-22.002c-10.614-7.618-15.905-0.416-26.341,1.313
		l16.246-6.748c-0.546-0.228-0.881-0.7-1.013-1.234c-1.802,0.72-4.472,2.144-5.811,2.505c-4.411,1.19-15.407,1.682-18.688,4.403
		c-2.888,2.395-4.477,4.279-3.617,8.599c13.236,2.015,17.975,7.637,26.028,17.999c7.454,9.591,17.142,17.341,25.113,26.648
		c4.676,5.46,9.145,12.902,16.57,14.589c0.003-0.118,0.041-0.224,0.116-0.316C362.387,341.674,344.581,305.909,342.196,300.939z"/>
</g>
<g id="Слой_8">
	<path fill="#00B0C1" d="M233.5,370c0.292,1.807,0.465,3.671,0.662,5.487c-3.278,0.646-3.631,14.294-5.593,17.679
		c-3.462-5.288-3.756-14.573-3.678-20.897c2.673-1.133,5.649-1.85,8.484-2.768"/>
</g>
<g id="Слой_9">
	<path fill="#00B0C1" d="M256.625,278.125c-18.482-0.895-26.441,14.951-33.887,29.026c-6.367,12.036-11.799,23.585-14.867,36.934
		c-2.118,9.217-4.837,19.448,4.79,24.399c8.964,4.611,27.125,1.49,29.554-8.974c0.754-3.25-0.613-7.864,0.084-11.47
		c1.121-5.799,4.145-11.086,6.452-16.458c2.572-5.991,6.646-13.225,8.134-19.539c-13.108-10.192,8.164-24.629-1.135-33.916"/>
</g>
<g id="Слой_7">
	<path fill="#0090A1" d="M254.5,310.75c-5.184,11.831-12.136,18.767-15.005,32.619c-1.486,7.176-2.885,15.479-0.489,22.138
		c-1.99,0.385-3.496,2.346-5.219,2.779c-0.265,1.615-0.051,5.355,0.444,6.932c10.855,1.891,20.847,1.29,31.425,3.504
		c0.481-1.968,1.361-3.777,1.131-5.949c-0.034,0.128,1.712-0.381,1.979-0.762c-5.606-7.566,11.012-5.552,15.089-4.019
		c6.403,2.407,9.852,7.622,16.164,10.181c6.844-16.355,26.227-32.234,22.463-53.385c0.787,12.018,24.26,21.776,34.04,21.185
		c-1.613-11.135-15.782-28.933-23.529-37.127c-7.451-7.881-28.178-24.847-40.562-22.195c-9.112,9.235-33.606,10.347-37.933,25.098"
		/>
</g>
<g id="Слой_12">
	<path fill="#007584" d="M321.75,324.5c-2.765,15.714-11.62,31.159-19.232,44.974c-5.278,9.58-6.054,10.847,8.555,12.67
		c9.259,1.155,13.685-0.818,17.383-9.516c2.823-6.639,3.828-14.622,4.556-21.829c1.426-14.116-2.528-14.976-11.513-25.549"/>
	<path fill="#007584" d="M280.833,373.667c6.69,0.373,9.658,2.996,9.141,9.771c-6.258,1.219-11.126-3.259-8.975-9.604"/>
</g>
<g id="Слой_29">
	<path fill="#007584" d="M265.667,278.5c2.383,0.685,4.54,1.651,6.795,2.469c-0.08,0.086-0.375,0.754-0.326,0.852
		c-2.978,1.418-8.252,1.076-6.469-3.155"/>
</g>
<g id="Слой_25">
	<path fill="#FFCDCD" d="M289,209c-5.774,16.373-7.731,34.148-14.438,50.064c-2.479,5.882-7.675,12.65-8.389,19.074
		c9.26,4.51,12.162,1.292,19.947-3.92c6.8-4.553,15.712-3.854,19.924-10.585c2.979-4.761,4.677-10.927,7.386-15.911
		c2.852-5.246,1.775-6.753,1.722-11.909c-0.049-4.736,1.473-7.488,3.529-11.976c1.559-3.402,4.109-6.435,3.153-10.548
		c-2.643-11.375-16.012-10.165-25.025-7.76c-3.362,0.897-6.57,2.221-9.975,2.973"/>
</g>
<g id="Слой_24">
	<path fill="#FFE3E3" d="M275,208.833c-12.763,5.77-17.687,29.276-17.334,41.485c0.192,6.639,1.577,9.71,3.547,15.593
		c0.864,2.579,0.414,6.719,1.614,9.095c6.576,13.028,15.433-6.042,17.85-12.039c6.828-16.945,3.581-36.763,8.909-53.787
		c-4.864-0.449-10.37-0.52-15.253,0.153"/>
</g>
<g id="Слой_26">
	<path fill="#F1B5B5" d="M315,236.167c0.875,10.645-9.693,22.767-14.171,31.15c3.942-0.512,8.294-0.803,12.21-1.685
		c-0.241-2.72,1.139-5.207,3.301-6.839c4.952,5.047,6.884-2.267,6.168-6.49c-0.85-5.018-4.635-9.745-7.341-13.969"/>
</g>
<g id="Слой_27">
	<path fill="#F1B5B5" d="M308.5,382.167c3.543,0.1,11.101-1.22,14.193-0.136c3.237,1.134,4.416,5.397,7.622,7.397
		C325.576,398.283,312.311,388.061,308.5,382.167"/>
</g>
<g id="Слой_28">
	<path fill="#F1B5B5" d="M302,266.667c5.886-1.176,18.222-0.408,13.107,7.612c-3.934,6.167-17.476,6.408-23.943,8.888
		c4.124,0.239,5.839,4.572,3.328,8.11c4.76,0.18,3.645,5.657,1.438,7.692c5.763,0.77,2.486,5.819,0.07,8.153
		c-4.755,4.595-11.574,5.033-17.86,5.624c-1.98-7.236-1.154-16.788,0.23-24.184c2.101-11.226,13.178-20.047,24.63-21.895"/>
</g>
<g id="Слой_21">
	<path fill="#FFCDCD" d="M303,267c-9.26,8.563-26.823,30.076-16.827,44.136c-5.331,1.454-9.589,3.252-15.265,2.555
		c-2.779-0.341-2.77,1.107-5.262-1.433c-3.238-3.301-4.023-10.408-3.626-14.782c1.133-12.467,7.14-13.01,16.858-18.054
		c7.837-4.068,15.904-8.029,23.455-12.255"/>
</g>
<g id="Слой_22">
	<path fill="#FFCDCD" d="M310.333,381.833c5.175,4.533,12.143,7.007,18.477,9.49c-10.444,18.835-37.768,1.832-35.98-16.481
		c3.105,3.711,12.81,6.901,17.836,6.991"/>
</g>
<g id="Слой_23">
	<path fill="#FFE3E3" d="M289.649,383.682c3.293-0.404-3.715-7.573-4.526-7.991c-3.398-1.753-7.803-0.666-11.346-1.885
		c-13.685-4.71,2.439-9.825,10.395-6.633c10.845,4.357,10.88,15.493,19.123,21.783c3.887,2.967,18.557,10.957,23.563,9.565
		c-4.731,1.315-10.973,3.452-16.026,4.311c-6.306,1.072-13.525-3.425-18.662-0.678c-5.992,3.204-10.564,19.042-14.289,5.176
		c-3.544,6.862-10.403,3.587-9.57-3.48c-9.31,1.232-2.357-9.135,0.191-11.863C275.206,384.811,280.462,384.81,289.649,383.682z"/>
</g>
<g id="Слой_16">
	<path fill="#FFE3E3" d="M277.333,280.667c-5.244,7.507-14.731,24.538-7.05,34.182c-18.392-3.362-19.609-9.428-14.412-26.595
		c2.079-6.868,2.884-9.58-3.328-14.716c-3.628-3-8.562-4.528-9.458-9.651c-0.831-4.754,3.297-7.645,9.181-6.284
		c10.12,2.339,8.359,12.674,11.684,20.087c3.49,7.78,8.031,4.431,14.549,3.811"/>
</g>
<g id="Слой_33">
	<path fill="#D86B38" d="M323.333,184.833c-0.02,7.561-2.274,14.548-2.63,21.904c-0.286,5.913,1.282,9.903-1.117,16.093
		c-4.05,10.449-4.883,14.268,3.076,22.284c3.824-7.343,29.88-8.299,20.201-22.133c-4.614-6.595-14.811-7.254-14.539-17.186
		c0.181-6.578,6.945-16.404-5.326-18.629"/>
</g>
<g id="Слой_34">
	<path fill="#FF8445" d="M274.833,188c-1.335,5.642,0.213,9.278,4.143,13.372c6.99,7.28,10.699,4.842,19.324,3.614
		c9.516-1.355,21.125-0.954,25.732,8.597c2.821-5.351,4.372-14.504,3.633-20.588c-1.417-11.674-12.623-13.361-22.431-9.183
		c-6.086,2.592-12.791,6.47-19.21,7.892c-7.572,1.678-9.494-2.679-16.692-3.537"/>
</g>
<g id="Слой_35">
	<path fill="#FF9E53" d="M276.833,189.667c0.765,10.776,13.046,14.544,21.571,16.872c-7.287-0.827-21.608,1.339-26.822,5.424
		c-2.156,1.689-3.184,3.596-4.873,5.74c-3.285,4.171-6.513,6.12-4.25-1.54c0.763-2.582,3.684-4.297,4.636-6.779
		c1.72-4.484,0.445-3.17-1.585-8.023c-4.152-9.922-0.786-20.635,11.509-20.196c-1.255,3.467-1.782,7.335,0.149,10.835"/>
</g>
<g id="Слой_3">
	<path fill="#002C34" d="M269.75,323c-6.449,0-6.449,10,0,10S276.199,323,269.75,323z"/>
	<path fill="#002C34" d="M268.875,342.25c-5.804,0-5.804,9,0,9S274.679,342.25,268.875,342.25z"/>
	<path fill="#002C34" d="M270.12,267.268c-0.307,0.434-0.327,1.099,0.251,1.47c1.621,1.042,1.688,2.895,0.891,4.507
		c-0.096,0.194-0.109,0.378-0.091,0.554c-0.03,0.455,0.218,0.909,0.724,1.026C274.6,272.758,273.43,268.448,270.12,267.268z"/>
	<path fill="#FDFFFF" d="M243.667,382.333c-0.08-0.008-0.153-0.005-0.223,0.004c-1.072-0.116-2.124-0.043-3.157,0.206
		c-10.365,0.815-11.026,15.918-1.986,18.558c2.242,1.142,4.663,1.584,7.199,1.274c0.161-0.02,0.301-0.07,0.421-0.142
		c3.539-0.258,6.473-2.881,7.502-7.113C255.08,388.304,250.247,383.004,243.667,382.333z M246.08,400.208
		c4.603-2.8,5.483-9.526,2.647-13.837C253.51,390.512,251.467,399.389,246.08,400.208z"/>
	<path fill="#FDFFFF" d="M384.249,337.258c-6.085-15.086-18.315-27.875-30.025-38.752c-11.031-10.247-21.107-21.176-35.859-25.768
		c-0.05-0.015-0.095-0.018-0.143-0.029c0.725-2.983-1.062-5.892-4.401-7.471c0.981-1.458,1.796-2.998,2.604-4.555
		c2.917,1.734,6.014,1.862,7.581-2.089c1.209-3.048,0.833-7.364-0.416-10.752c0.215-0.228,0.38-0.502,0.464-0.81
		c1.152-4.214,7.378-5.493,10.939-6.771c3.622-1.3,7.819-2.776,10.214-5.979c2.636-3.526,2.043-7.94-0.012-11.606
		c-3.748-6.689-13.932-6.834-14.043-15.942c-0.042-3.487,1.343-6.924,1.462-10.442c0.089-2.646-0.63-5.181-1.7-7.567
		c-2.622-5.851-10.098-8.721-16.015-9.305c-7.002-0.691-12.563,1.956-18.473,5.408c-2.811,1.642-5.544,3.165-8.62,4.266
		c-1.611,0.577-3.277,0.931-4.981,1.072c-5.069,0.42-7.808-6.997-0.95-7.541c0.635-0.05,1.113-0.336,1.433-0.733
		c0.533-0.603,0.634-1.538,0.314-2.276c-0.003-0.006-0.006-0.013-0.008-0.019c-0.167-0.375-0.443-0.695-0.833-0.89
		c-0.178-0.112-0.376-0.207-0.623-0.26c-11.166-2.41-20.477,3.184-20.618,15.154c-0.065,5.568,2.482,9.974,6.309,12.968
		c-4.92,4.993-10.487,12.725-7.776,19.838c0.093,0.245,0.224,0.445,0.371,0.62c-3.628,9.693-4.653,20.652-4.041,30.651
		c-4.557-2.661-11.43-3.521-14.697,1.065c-4.735,6.648,6.738,13.469,11.012,16.956c-13.9,0.713-23.242,13.551-29.55,24.714
		c-7.475,13.227-12.263,27.83-16.929,42.222c-0.131,0.405-0.127,0.767-0.04,1.086c-3.643,9.219-4.006,19.6,4.945,26.024
		c3.6,2.584,7.637,3.666,11.72,3.661c0.212,7.095,1.733,14.029,2.304,21.095c0.023,0.28,0.092,0.527,0.195,0.746
		c0.113,2.591,0.085,5.171-0.195,7.754c-0.041,0.375,0.043,0.674,0.202,0.901c-0.059,0.406,0.111,0.726,0.362,0.946
		c0.025,0.18,0.084,0.359,0.229,0.527c0.026,0.031,0.054,0.06,0.081,0.09c0.169,2.034,0.623,3.979,1.396,5.835
		c9.84,38.69,19.198,77.509,29.875,115.981c-7.102-3.053-16.108-2.453-23.362-1.345c-8.424,1.286-19.037,5.077-21.675,14.133
		c-3.36,11.538,8.472,18.246,18.182,18.169c5.02-0.04,10.548-1.28,14.976-3.673c2.217-1.198,4.276-2.709,6.43-4.015
		c1.19-0.721,2.423-1.39,3.719-1.901c1.408-0.555,1.946-0.313,2.146,0.447c-0.004,0.44,0.029,0.878,0.111,1.314
		c0,0.189-0.001,0.382-0.004,0.591c-0.021,1.485,1.028,2.268,2.169,2.382c0.783,0.365,1.682,0.539,2.498,0.618
		c0.143,0.014,0.271,0.005,0.392-0.015c3.757,0.556,7.513,0.679,11.253,0.262c0.945,0.268,1.857,0.242,2.727-0.026
		c0.088,0.015,0.175,0.025,0.263,0.041c0.286,0.052,0.545,0.031,0.79-0.019c0.026,0.001,0.048,0.007,0.075,0.007
		c0.143,0,0.271-0.021,0.393-0.051c0.085,0,0.169,0.01,0.256-0.003c2.131-0.306,3.067-1.787,3.36-3.531
		c13.002,5.584,36.659,22.735,46.475,6.616c5.622-9.231,1.729-21.551-7.132-26.841c-8.6-5.134-20.524-4.928-30.072-2.517
		c12.746-41.717,27.524-82.972,35.576-125.939c0.6-2.038,1.041-4.106,1.294-6.225c1.339-1.44,2.601-3.025,3.769-4.785
		c0.065-0.007,0.135-0.007,0.197-0.019c0.134,0.003,0.27,0,0.415-0.027c6.861-1.253,13.49-2.913,19.797-5.945
		c6.834-3.286,12.892-8.462,18.959-12.96C382.903,363.412,390.077,351.707,384.249,337.258z M265.604,194.902
		c-0.815-7.508,3.449-12.005,9.478-12.862c-1.747,2.049-2.391,4.807-0.683,7.719c3.156,5.379,9.215,4.85,14.471,3.192
		c6.669-2.104,12.007-6.97,18.663-9.076c9.047-2.862,20.775,2.264,21.081,12.417c0.202,6.688-3.72,12.908,1.362,18.846
		c3.785,4.423,16.087,8.399,12.549,15.978c-2.008,4.3-9.565,5.548-13.533,7.103c-2.907,1.139-5.847,2.625-7.58,5.145
		c-2.698-2.613-3.91-6.265-3.913-10.099c-0.003-3.694,3.147-6.961,4.897-9.979c2.667-4.601,3.44-10.358,0.487-14.949
		c-3.398-5.283-11.455-6.736-17.202-6.661c-7.199,0.094-14.098,3.409-21.026,5.14c-0.021,0.003-0.04,0.002-0.061,0.006
		C276.303,208.405,266.588,203.975,265.604,194.902z M271.333,208.742c0.328,0.161,0.667,0.304,1.004,0.449
		c-3.489,3.047-6.312,6.672-8.568,10.665C264.902,215.602,268.498,211.513,271.333,208.742z M263.637,227.125
		c0.256-0.269,0.413-0.618,0.423-1.028c2.589-6.098,6.348-11.568,11.584-15.772c2.637,0.678,5.419,0.903,8.138,0.624
		c0.266,0.052,0.559,0.051,0.875-0.02c7.046-1.582,13.769-4.711,21.024-5.253c4.595-0.343,9.843,1.052,13.287,4.178
		c3.274,2.97,1.63,8.097-0.027,11.413c-2.387,4.778-5.446,7.831-5.441,13.483c0.004,5.011,2.788,9.849,6.705,12.828
		c1.07,2.138,1.368,4.653,1.388,7.008c0.011,1.284-0.156,2.623-0.746,3.777c-0.849,1.661-3.09-0.259-3.912-0.923
		c-0.716-0.579-1.864-0.621-2.356,0.304c-1.197,2.247-2.272,4.516-3.764,6.585c-6.223-0.981-13.579,3.01-18.623,5.685
		c-3.626,1.922-7.115,4.098-10.667,6.15c-1.792,1.035-4.32,2.75-6.925,3.952c-3.451-0.558-7.59-1.063-9.486-4.368
		c-0.126-0.22-0.299-0.337-0.483-0.408c-1.469-5.158-1.422-10.945-5.036-15.074C258.626,249.58,259.493,237.516,263.637,227.125z
		 M270.626,281.384c-1.132,0.161-2.214,0.104-3.18-0.304c-0.004-0.005-0.006-0.01-0.01-0.015c-0.313-0.383-0.596-0.778-0.856-1.184
		C267.81,280.584,269.196,281.044,270.626,281.384z M244.751,264.665c-4.525-6.339,4.912-6.287,8.167-5.211
		c3.658,1.209,5.716,3.759,6.912,7.367c1.796,5.42,1.581,11.091,5.054,15.794c0.066,0.364,0.292,0.704,0.734,0.931
		c4.646,2.381,9.224-0.409,13.389-2.625c5.392-2.869,10.563-6.125,15.961-8.986c3.107-1.647,6.332-3.011,9.723-3.95
		c2.909-0.805,13.359-1.435,10.379,4.945c-1.676,3.588-8.845,4.529-12.251,5.26c-4.146,0.89-8.303,1.535-12.343,2.865
		c-0.021,0.007-0.037,0.018-0.057,0.025c-4.028-0.074-9.163,2.201-11.926,4.001c-1.614,1.051-0.112,3.65,1.514,2.59
		c2.296-1.495,4.981-2.334,7.625-2.972c1.476-0.356,3.096-0.608,4.594-0.252c2.813,0.668,3.272,3.566,1.338,5.368
		c-0.102,0.095-0.181,0.195-0.248,0.296c-2.908,0.199-5.98,1.478-8.074,2.719c-1.662,0.985-0.154,3.579,1.514,2.59
		c2.558-1.516,5.835-2.682,8.844-2.054c3.471,0.724-0.722,4.202-1.911,5.198c-0.025,0.021-0.041,0.044-0.064,0.066
		c-1.829,0.321-3.481,0.795-4.274,1.049c-1.835,0.587-1.051,3.483,0.797,2.893c2.271-0.726,4.555-1.336,6.954-1.362
		c2.299-0.025-0.529,3.363-0.836,3.671c-1.174,1.178-2.851,1.945-4.316,2.681c-5.028,2.526-10.831,3.935-16.315,5.099
		c-5.593,1.186-12.074,1.061-17.219-1.62c-8.354-4.353-3.559-14.158-0.427-20.205c2.393-4.622,2.98-9.335,0.072-13.804
		C254.703,271.871,248.311,269.652,244.751,264.665z M267.556,371.517c-0.438,0.044-0.875,0.107-1.322,0.185
		c-0.307,0.054-0.648,0.388-0.698,0.698c-0.285,1.761-0.337,3.522-0.172,5.284c-9.958-1.04-19.989-1.304-29.901-2.743
		c-0.002-0.014,0.004-0.026,0.002-0.041c-0.24-1.5-0.367-3.006-0.351-4.519c3.26-1.588,6.261-3.693,8.745-6.069
		c13.172-12.597,15.98-30.765,20.903-47.448c0.09-0.304,0.109-0.585,0.075-0.842c7.051,0.533,15.085-1.189,19.896-2.6
		c5.896-1.729,14.934-4.332,16.455-11.272c0.56-2.554-0.944-3.552-3.073-3.791c1.886-2.319,3.058-5.256-0.031-7.23
		c-0.383-0.245-0.793-0.431-1.216-0.585c1.755-2.689,0.864-5.68-1.525-7.629c3.689-0.743,7.787-1.214,11.576-2.166
		c-2.17,16.157-6.863,31.779-10.464,47.643c-2.876,12.672-5.565,26.367-13.549,36.959c-4.423-1.517-9.409-1.359-13.909,0.097
		C264.487,366.909,265.356,369.462,267.556,371.517z M268.714,373.503c0.104,1.473,0.118,2.949,0.118,4.426
		c-0.494-0.019-0.989-0.03-1.483-0.057C267.047,376.011,266.787,373.702,268.714,373.503z M250.776,304.153
		c-0.101,0.023-0.201,0.044-0.307,0.085c-0.889,0.344-1.771,0.706-2.65,1.077c1.455-7.763,4.277-15.09,8.996-21.423
		c-0.152,2.602-1.323,5.311-2.848,8.14C251.91,295.844,250.52,299.805,250.776,304.153z M224.936,305.565
		c5.737-11.182,14.973-26.037,29.231-25.899c0.671,0.006,1.164-0.262,1.485-0.66c0.389,0.669,0.678,1.345,0.868,2.029
		c-5.953,7.314-9.388,15.963-10.908,25.25c-11.794,5.329-22.535,13.074-30.708,23.106
		C217.788,321.265,220.987,313.262,224.936,305.565z M214.762,367.246c-13.033-6.423-5.236-23.299,0.605-31.94
		c8.479-12.543,22.212-21.805,36.164-27.211c0.006-0.002,0.011-0.006,0.017-0.008c1.536,4.199,5.113,6.409,9.49,7.387
		c-0.049,0.104-0.098,0.208-0.133,0.328c-3.933,13.328-6.248,27.285-14.186,38.997C239.776,365.041,227.158,373.355,214.762,367.246
		z M226.849,373.066c2.135-0.355,4.249-0.967,6.284-1.799c0.034,1.126,0.134,2.248,0.291,3.367
		c-0.168-0.027-0.337-0.051-0.505-0.076c-0.589-0.399-1.603-0.149-1.586,0.774c0.092,5.205-1.17,10.163-2.594,15.1
		C228.034,384.648,226.989,378.909,226.849,373.066z M228.167,403c0.146-1.346,0.222-2.69,0.249-4.036
		c1.843-7.426,4.724-14.628,4.903-22.336c10.883,1.736,21.916,1.944,32.861,3.139c0.107,0.036,0.216,0.06,0.322,0.066
		c4.608,0.302,9.22,0.178,13.833,0.167c0.163,0,0.315-0.053,0.456-0.126c0.434,0.07,0.832,0.223,1.056,0.631
		c0.267,0.487,0.054,1.232-0.102,1.756c-1.251,0.198-2.494,0.498-3.725,0.938c-1.732,0.619-3.302,1.553-4.756,2.662
		c-0.159-0.216-0.407-0.368-0.762-0.361c-3.979,0.087-7.873-0.779-11.833-1c-0.733-0.041-1.031,0.582-0.926,1.144
		c-0.34,1.308-0.535,2.636-0.68,3.979c-0.124,0.592-0.255,1.182-0.358,1.778c-0.1,0.579,0.256,0.993,0.687,1.163
		c0.155,0.143,0.349,0.252,0.61,0.27c1.929,0.128,3.861,0.25,5.783,0.459c-2.433,2.337-5.962,5.337-5.063,8.607
		c0.857,3.115,3.658,3.743,6.287,3.169c-0.271,0.892-0.444,1.783-0.471,2.629c-12.861-1.565-25.728-3.077-38.658-3.943
		C228.027,403.547,228.134,403.3,228.167,403z M272.334,378.006c-0.5-0.005-1.001-0.001-1.502-0.011
		c-0.001-1.426-0.012-2.851-0.103-4.274c0.288,0.15,0.573,0.289,0.846,0.408c0.29,0.126,0.59,0.237,0.899,0.334
		c-0.038,1.179-0.132,2.356-0.142,3.537C272.333,378.002,272.334,378.004,272.334,378.006z M274.329,378.021
		c0-0.008,0.004-0.013,0.004-0.021c0.009-1.03,0.078-2.058,0.124-3.087c0.526,0.082,1.066,0.139,1.612,0.186
		c0.076,0.97,0.094,1.942,0.096,2.916C275.553,378.017,274.941,378.021,274.329,378.021z M279.55,378.005
		c-0.462,0.002-0.924,0.002-1.385,0.004c-0.003-0.927-0.017-1.853-0.084-2.776c0.544,0.027,1.088,0.053,1.625,0.082
		c0.003,0.041-0.011,0.076-0.003,0.118C279.856,376.335,279.745,377.16,279.55,378.005z M281.688,375.46
		c3.763,0.387,6.799,1.552,6.819,6.575c-1.561-0.104-3.117-0.12-4.664-0.01c0.143-0.854,0.106-1.703-0.27-2.53
		c-0.373-0.822-1.165-1.252-2.005-1.474C281.716,377.172,281.776,376.337,281.688,375.46z M271.338,387.493
		c-1.372,1.263-2.635,2.641-3.844,4.01c-2.211-0.291-4.43-0.461-6.654-0.612c0.284-1.445,0.612-2.879,0.967-4.308
		C264.991,386.848,268.142,387.425,271.338,387.493z M229.987,406.847c-0.305-0.338-0.606-0.678-0.915-1.012
		c12.635,0.886,25.211,2.368,37.782,3.899c0.296,0.742,0.803,1.394,1.618,1.889c0.063,0.038,0.127,0.067,0.19,0.103
		c-12.832-1.626-25.662-3.268-38.495-4.893C230.098,406.825,230.048,406.844,229.987,406.847z M262.795,549.666
		c-0.645-9.687-10.212-5.542-16.074-1.804c-7.555,4.817-22.786,9.811-28.674-0.027c-5.686-9.5,7.407-14.91,14.321-16.521
		c7.582-1.767,18.49-2.593,25.371,1.845c0.163,0.105,0.326,0.186,0.486,0.25c2.27,2.895,6.061,5.027,10.32,6.166
		c-0.371,3.358-0.318,6.717,0.158,10.074C266.739,549.629,264.771,549.656,262.795,549.666z M291.331,533.077
		c8.199-2.29,17.837-2.628,25.778,0.805c8.271,3.576,12.502,15.753,5.576,22.791c-5.268,5.352-16.965-0.25-22.353-2.628
		c-6.485-2.862-12.614-6.829-19.335-9.122c-1.11-0.379-2.211,0.261-2.823,1.149c-0.768,1.114-0.985,1.948-1.252,3.264
		c-0.064,0.315-0.06,0.606-0.025,0.882c-1.381-0.2-2.762-0.352-4.145-0.435c-0.524-3.138-0.625-6.307-0.296-9.457
		c7.053,0.839,14.419-0.992,17.701-6.397c0.157-0.259,0.247-0.514,0.306-0.765C290.736,533.18,291.022,533.164,291.331,533.077z
		 M285.089,531.085c-0.15,0.499-0.139,0.945-0.031,1.34c-2.266,2.426-6.509,3.325-10.798,3.062
		c0.884-33.03-1.962-65.986-2.761-98.987c-0.006-0.246-0.049-0.467-0.108-0.675c4.137-1.103,7.851-4.178,9.036-8.627
		c0.665-2.496-3.193-3.554-3.857-1.063c-1.727,6.479-11.42,8.798-14.678,2.356c-1.164-2.302-4.615-0.277-3.454,2.019
		c1.759,3.477,4.801,5.263,8.084,5.672c-0.009,0.105-0.027,0.205-0.024,0.319c0.792,32.721,3.592,65.397,2.778,98.145
		c-2.299-0.643-4.362-1.615-5.824-2.853c0.079-0.363,0.08-0.764-0.044-1.207c-11.255-40.113-20.979-80.629-31.25-121
		c-0.049-0.191-0.113-0.364-0.19-0.523c12.51,1.586,25.019,3.186,37.529,4.771c0.249,0.032,0.443-0.024,0.593-0.126
		c0.193-0.081,0.353-0.223,0.457-0.417c0.095-0.021,0.19-0.038,0.289-0.093c0.333-0.187,0.607-0.448,0.849-0.739
		c1.961-0.064,3.859-1.097,5.437-2.534c0.474,3.814,2.293,7.052,6.847,4.349c2.991-1.775,4.926-4.769,6.822-7.599
		c1.017-1.519,1.971-3.099,3.269-4.398c1.224-1.225,7.295,2.129,9.155,2.347c7.248,0.852,13.492-0.492,18.775-3.743
		C313.641,445.307,298.107,487.907,285.089,531.085z M304.922,401.823c-5.966-0.382-10.066-5.646-14.611,0.252
		c-1.499,1.945-7.836,11.388-9.926,9.31c-0.355-1.855-0.41-3.699-0.23-5.521c0.008-0.054,0.015-0.108,0.016-0.16
		c0.095-0.89,0.237-1.775,0.435-2.653c0.525-1.76,1.238-3.471,2.053-4.985c2.054-3.815,9.642-2.154,13.175-2.066
		c1.936,0.048,1.931-2.952,0-3c-4.79-0.119-9.775-1.039-14.09,1.538c-2.57,1.535-3.61,6.348-4.291,8.938
		c-0.132,0.503-0.244,1.116-0.325,1.795c-1.011,1.586-2.29,2.784-3.925,3.766c-6.055,3.636-2.337-5.535-2.011-6.234
		c1.392-2.985,2.978-6.111,5.029-8.691c4.661-5.863,12.614-3.905,18.882-2.5c1.884,0.422,2.685-2.47,0.797-2.893
		c-5.368-1.204-11.208-2.569-16.554-0.591c-4.922,1.82-7.344,6.741-9.658,11.056c-0.295,0.55-0.668,1.232-1.054,1.991
		c-0.019,0.011-0.037,0.017-0.056,0.029c-2.344,1.52-5.408-0.598-3.202-3.125c0.882-1.011,1.922-1.887,2.853-2.852
		c2.048-2.122,3.834-4.395,6.067-6.348c5.169-4.521,11.901-4.313,18.307-3.433c1.891,0.26,2.707-2.631,0.797-2.893
		c-0.631-0.087-1.263-0.169-1.894-0.244c0.127-5.524-2.467-8.875-8.07-9.698c-3.034-0.445-6.122-0.208-9.144-0.764
		c-0.219-0.04-6.149-2.508-5.396-3.065c1.281-0.946,3.448-1.124,4.95-1.301c4.266-0.503,8.116,0.166,11.747,2.55
		c3.857,2.532,6.678,6.314,10.651,8.763c7.901,4.871,17.802,6.513,26.833,4.742c1.446,2.633,3.521,4.547,5.906,6.44
		C323.211,398.365,315.515,402.502,304.922,401.823z M380.538,356.314c-2.754,5.94-8.366,10.157-13.511,13.902
		c-5.069,3.689-9.991,7.648-15.492,10.681c-6.089,3.357-12.971,4.869-19.749,6.115c-0.041-0.002-0.077-0.012-0.119-0.012
		c-0.488,0-0.883,0.144-1.186,0.376c-2.028-1.6-3.864-3.257-5.009-5.636c0.093-0.115,0.18-0.246,0.255-0.397
		c7.888-15.81,21.352-28.531,37.971-34.748c2.393-0.895,1.357-4.763-1.063-3.857c-2.199,0.823-4.349,1.75-6.443,2.775
		c-13.197-4.448-25.428-8.931-31.965-22.189c-1.141-2.314-4.59-0.286-3.454,2.019c2.829,5.737,6.674,9.977,11.184,13.313
		c-0.057,0.158-0.103,0.326-0.123,0.51c-1.254,11.21-1.326,22.892-6.56,33.157c-0.112,0.22-0.168,0.436-0.2,0.647
		c-1.579,2.405-3.036,4.869-3.514,7.774c-6.28,1.073-12.232,0.192-18.268-1.957c-6.069-2.16-10.039-6.284-14.82-10.309
		c-1.135-0.956-2.373-1.728-3.674-2.346c7.952-10.691,10.702-24.477,13.587-37.208c3.679-16.238,8.459-32.207,10.617-48.758
		c2.56-0.813,4.901-1.934,6.773-3.629c0.208-0.189,0.39-0.381,0.573-0.574c0.225,0.274,0.536,0.5,0.956,0.631
		c13.105,4.079,21.726,13.463,31.593,22.444c11.22,10.213,20.972,20.988,28.775,34.065
		C382.022,340.398,384.274,348.257,380.538,356.314z M332.545,363.872c1.832-7.399,2.296-15.128,3.083-22.77
		c4.809,2.885,10.186,5.026,15.795,6.993C344.293,352.268,337.918,357.619,332.545,363.872z"/>
	<path fill="#002C34" d="M267.345,227.456c-0.108,0.474,0.062,1.038,0.64,1.258c1.52,0.578,3.049,0.77,4.54,0.622
		c-0.781,0.886-1.565,2.291-2.139,3.964c-1.068,3.113-1.005,5.956,0.141,6.349c1.146,0.393,2.942-1.811,4.01-4.924
		c0.882-2.57,0.991-4.952,0.357-5.927c0.809-0.292,1.6-0.683,2.36-1.185c0.07-0.046,0.13-0.098,0.183-0.152
		c0.729-0.133,0.93-0.969,0.621-1.505C275.003,228.055,270.904,228.312,267.345,227.456z"/>
	
		<ellipse transform="matrix(-0.9608 -0.2772 0.2772 -0.9608 502.371 543.3433)" fill="#002C34" cx="289.586" cy="236.167" rx="2.195" ry="5.959"/>
	<path fill="#002C34" d="M279.131,239.766c0.145-0.648-0.298-1.097-0.799-1.214c-0.86,1.001-1.341,2.247-2.034,3.359
		c-0.839,1.81-2.109,3.33-3.969,4.392c-0.386,0.22-0.581,0.702-0.46,1.129c0.691,2.425,2.359,3.301,4.698,3.865
		c1.253,0.302,1.785-1.626,0.532-1.929c-1.359-0.328-2.444-0.641-3.04-1.808C276.763,245.739,278.412,242.975,279.131,239.766z"/>
	<path fill="#002C34" d="M286.426,258.16c0.105-0.81-0.37-1.752-1.426-1.827c-4.118-0.293-8.15,0.256-12.065,1.554
		c-0.982,0.325-1.205,1.31-0.92,2.059C276.797,259.164,281.577,258.331,286.426,258.16z"/>
	<path fill="#002C34" d="M290.172,219.823c-0.291,0.144-0.514,0.416-0.505,0.844c0.081,4.028,2.079,7.278,5.829,8.863
		c0.256,0.108,0.5,0.097,0.72,0.03c0.128,0.064,0.275,0.107,0.451,0.107c0.406,0,0.669-0.207,0.82-0.479
		C293.572,227.181,291.584,223.942,290.172,219.823z"/>
</g>
</svg>
