<?xml version="1.0" encoding="utf-8"?>
<!-- Generator: Adobe Illustrator 17.0.0, SVG Export Plug-In . SVG Version: 6.00 Build 0)  -->
<!DOCTYPE svg PUBLIC "-//W3C//DTD SVG 1.1//EN" "http://www.w3.org/Graphics/SVG/1.1/DTD/svg11.dtd">
<svg version="1.1" xmlns="http://www.w3.org/2000/svg" xmlns:xlink="http://www.w3.org/1999/xlink" x="0px" y="0px" width="612px"
	 height="792px" viewBox="0 0 612 792" enable-background="new 0 0 612 792" xml:space="preserve">
<g id="Слой_2">
	<rect fill="#020000" width="612" height="792"/>
</g>
<g id="Слой_24">
	<path fill="#914518" d="M242.552,292.359c-1.875,4.605-1.322,8.987,1.555,12.473c-0.497,0.968-2.465,1.657-3.282,2.409
		c4.011,3.628,4.674,2.445,0.228,6.267c0.044,0.028,2.986,0.307,2.834,0.526c-0.408,1.198-1.525,4.244-1.775,5.306
		c0.176,1.162,1.573,2.589,1.314,4.811c16.834-1.733,34.312,1.907,51.086-0.635c0.111,0.08-0.522-3.271-0.522-3.307
		c-5.689-1.364-5.109-0.804-5.083-4.502c0.049-6.905-4.737-15.513-0.402-22.226C288.528,293.445,245.94,292.385,242.552,292.359z"/>
</g>
<g id="Слой_23">
	<path fill="#3F1C08" d="M261.167,302.167c-0.593,3.812-0.005,8.109,0.017,11.992c7.833-0.884,8.623-12.041-0.85-12.159"/>
	<path fill="#3F1C08" d="M272.333,303.5c0.019,1.548,0.113,2.981,0.351,4.475c5.189,0.035,10.728,0.246,15.62-0.501
		c0.297-2.022-0.251-6.116-1.036-7.945c-5.744,0.812-13.003-1.065-15.101,4.804"/>
	<path fill="#3F1C08" d="M244.5,285.5c-0.476,1.904,0.105,5.015,0.018,7.141c4.804,0.117,9.694,0.103,14.413-0.338
		c0.113-1.61-0.315-6.385-0.805-7.945c-4.155,2.29-9.193,1.944-13.792,0.642"/>
</g>
<g id="Слой_25">
	<path fill="#73350E" d="M264.5,520.5c-6.926,9.141-14.21,21.592-19.313,31.424c13.321-0.521,26.195-6.053,36.214-13.376
		c23.178,8.336,10.843-25.989-17.4-16.548"/>
	<path fill="#73350E" d="M371.745,536c-31.351,49.598,55.543,23.812-0.559,1.061"/>
</g>
<g id="Слой_26">
	<path fill="#914518" d="M237.5,526.5c-2.3,52.658,90.863-22.399-1.5,1.5"/>
	<path fill="#914518" d="M359,528.5c18.055,6.675,23.269,21.739,5.014,32.061c-3.37-2.332-11.335-11.011-13.564-14.649
		c2.281-5.034,4.319-12.976,7.55-17.413"/>
</g>
<g id="Слой_27">
	<path fill="#AB551E" d="M251.212,522.5c-14.564,9.644-9.504,19.008,7.786,23.548c-23.724,13.792-47.513-15.957-12.459-21.548"/>
	<path fill="#AB551E" d="M358.5,529.5c-1.175,5.556-7.418,15.466-8.064,24.424c-7.5-7.927-6.364-12.041-5.062-24.876
		c4.163-0.058,8.471,0.26,12.626-0.048"/>
</g>
<g id="Слой_28">
	<path fill="#006675" d="M300,387c10.674,9.059,12.058,24.167,5.488,36.513c0.04,0.081-3.082,0.572-2.94,0.436
		c-1.403-11.585-3.083-25.18-3.048-36.448"/>
</g>
<g id="Слой_14">
	<path fill="#002C34" d="M341.167,397.333c-1.367,31.117-1.427,63.617,0.167,94.77c0.512,10,0.706,44.505,15.141,39.219
		c5.325-42.901,15.71-85.089,18.235-127.837c-10.534-4.66-21.971-6.168-33.376-6.152"/>
	<path fill="#002C34" d="M372.833,356.5c-5.472,20.09-16.369,29.62-32.499,41.7c4.205,7.012,22.554,14.854,30.862,10.8
		c6.865-3.35,4.665-7.661,5.137-15.715c0.47-8.025,5.412-35.984-4.333-37.785"/>
</g>
<g id="Слой_15">
	<path fill="#003E48" d="M314.333,397.167c1.309,37.046-1.45,78.56-11.803,113.812c12.684-17.839,16.152-41.134,28.95-59.117
		c6.772,11.538,9.685,26.777,12.213,39.866c-7.303-30.141-3.37-61.411-9.532-91.756c-6.693-0.265-13.556-1.913-20.161-2.473"/>
	<path fill="#003E48" d="M346.333,395.5c-0.623,34.407,2.546,68.959-3.746,102.842c-5.718-13.325-6.461-28.718-9.179-42.768
		c-3.544-18.324-9.85-38.52-6.474-57.22c6.324-0.143,12.578-1.999,18.731-2.853"/>
</g>
<g id="Слой_16">
	<path fill="#006675" d="M318,398.5c-0.029,16.416,0.291,31.37-1.676,47.718c-1.27,10.559-8.622,75.966-24.458,80.539
		c-15.637,4.515-2.858-21.949-1.167-27.72c2.413-8.236,5.177-16.291,6.921-24.786c3.666-17.859,4.864-35.654,5.401-53.904
		c9.225-1.151,4.587-20.738,3.47-27.988c3.831,1.743,8.085,5.063,12.675,6.308"/>
</g>
<g id="Слой_17">
	<path fill="#1F5C66" d="M370.833,332.333c8.787,18.881-2.455,52.91-23.421,61.217c-2.784,1.103-6.161,2.006-9.069,2.727
		c4.495-15.053,8.4-20.565,17.577-33.346c6.513-9.072,12.394-18.888,15.746-29.598"/>
</g>
<g id="Слой_18">
	<path fill="#1F5C66" d="M337.667,275.833c26.321,9.779,33.836,24.428,31,53.619c-0.642,6.61-2.237,12.807-3.12,19.287
		c-3.349-3.137-55.159-71.024-26.88-72.906"/>
</g>
<g id="Слой_19">
	<path fill="#00B0C0" d="M298.667,315.833c-14.045,9.571,20.608,52.933,29.472,60.168c8.792,7.176,17.999,9.577,26.399-0.332
		c3.095-3.651,8.52-13.334,6.633-18.544c-2.156-5.952-13.328-7.73-19.093-11.377c-11.747-7.432-20.183-23.009-32.417-28.775
		c-5.587-2.633-11.364-6.057-15.16,1.693"/>
</g>
<g id="Слой_20">
	<path fill="#008FA0" d="M303.5,318c6.791,13.227,39.536,62.963,56.418,46.346c10.022-9.864,6.575-33.579,1.367-44.416
		c-3.379-7.031-10.321-16.54-19.069-17.769c-6.991-0.982-3.806,0.802-9.454,3.015c-8.959,3.509-12.62,6.247-23.035,6.365
		c-2.446,0.028-8.21-3.935-10.219-2.341c-4.738,3.759,0.697,8.488,4.495,9.299c0.158,0.034,0.337-0.024,0.497,0.001"/>
</g>
<g id="Слой_21">
	<path fill="#008FA0" d="M316.868,397.699c17.336,5.655,29.224,0.964,32.439-16.349c-19.003,4.521-31.302-17.967-40.486-30.898
		c-5.957-8.405-7.638-22.3-18.424-25.683C280.969,347.326,291.786,389.517,316.868,397.699z"/>
</g>
<g id="Слой_22">
	<path fill="#00B0C0" d="M297.818,330.457c-7.256,10.6-0.086,49.795,7.174,61.32c-8.91-7.522-12.882-16.592-19.319-26.235
		c-0.009,0.014-0.684,0.033-0.684,0.033c-10.665,26.367-27.933,13.27-39.716-2.536c-10.555-14.159-24.115-56.785,5.086-32.583
		c4.153,3.442,6.524,8.042,11.838,10.337c2.06-5.172,1.371-11.27,2.17-16.289c10.418,0.403,20.903,1.741,31.175,0.386
		c0.504,1.672,1.825,3.319,2.275,4.888"/>
</g>
<g id="Слой_4">
	<path fill="#FFCCCC" d="M230.75,300.5c-1.216,4.206-6.192,32.264,7.372,25.476c3.779-1.891,5.6-21.434,2.531-24.873
		c-2.505-2.807-7.536-2.132-10.403-0.354"/>
	<path fill="#FFCCCC" d="M291.5,293.25c-2.72,4.586-5.034,25.035,2.218,27.253c6.748,2.064,8.755-29.902-2.419-27.347
		c-0.017,0.031-0.033,0.063-0.05,0.094"/>
</g>
<g id="Слой_5">
	<path fill="#FFE2E2" d="M234.625,299.875c-3.831,7.032-5.437,18.656-1.76,25.981c-10.754,1.475-7.674-24.714-1.135-26.071
		c1.508-0.313,1.857-0.185,3.021,0.09"/>
	<path fill="#FFE2E2" d="M292.875,294.125c-3.041,7.966-3.94,19.218,1.053,26.634c-2.747,0.299-4.707-0.56-6.91-1.906
		c-1.96-5.814-2.552-11.491,1.459-16.594c-4.75-4.613-1.575-9.029,4.897-8.134"/>
</g>
<g id="Слой_10">
	<path fill="#FFE2E2" d="M282.25,271.625c2.296,7.58,13.116,13.476,18.024,19.703c3.721,4.72,6.57,9.267,11.712,12.672
		c0.986,0.653,14.457,6.134,14.446,5.999c0.117-0.003,0.235-0.006,0.352-0.009c-9.951,2.693-19.232,1.847-27.941-2.391
		c1.155-1.198,1.683-3.394,2.932-4.592c-5.631-6.492,4.911-9.472-10.715-10.133c-5.389-0.228-16.226,0.623-16.806-6.993
		c-0.05-0.654-0.509-1.132-0.567-1.733c6.642-1.826,6.993-12.145,8.689-12.399"/>
	<path fill="#FFE2E2" d="M252.667,279.833c-8.55,2.03-10.905,12.69-11.851,20.649c-1.289-0.027-5.4-0.988-6.624-1.549
		c1.245-9.27,5.488-20.387,16.975-18.766"/>
	<path fill="#EFB5B4" d="M249.167,280.333c-1.811,1.235-3.148,2.115-4.067,4.141c5.16,2.424,11.003,1.712,11.708-3.983
		c-2.852-1.041-5.842-1.003-8.641-0.325"/>
</g>
<g id="Слой_9">
	<path fill="#FFCCCC" d="M281.625,276.375c8.768,10.585,24.144,31.776,39.024,34.26c8.679,1.449,15.072-6.212,13.353-14.504
		c-3.058-14.751-13.188-37.411-26.098-45.227c-6.174-3.737-18.874-13.984-26.03-12.286c-12.353,2.93-9.449,32.543,0.126,38.758"/>
</g>
<g id="Слой_6">
	<path fill="#EFB5B4" d="M237.125,299.125c4.216,8.251,2.574,18.562,1.016,27.235c7.471-0.992,6.951-15.774,3.993-19.988
		c4.427-3.75,0.778-7.026-4.384-6.872"/>
	<path fill="#EFB5B4" d="M292.875,293.125c4.794,6.835,4.306,19.42,3.025,27.35c0.025,0.004,0.185,0.155,0.182,0.184
		c5.065,0.281,7.206-4.02,3.518-7.403c0.044-0.088,0.078-0.71,0.044-0.744c1.457-4.2,1.765-0.889-0.256-4.543
		c0.042-0.035-0.111-0.346-0.119-0.358c2.932-2.41,3.568-4.289,0.579-6.981c5.094-5.564-0.942-9.339-6.723-7.379"/>
</g>
<g id="Слой_8">
	<path fill="#EFB5B4" d="M284.25,239.625c12.314,6.696,25.732,29.913,32.803,41.987c5.021,8.573,9.619,17.837,15.09,25.401
		c5.029-5.865,7.487-15.442,6.613-23.387c-1.042-9.471-7.732-13.331-10.253-21.741c12.627-10.1-12.053-7.935-15.621-8.51
		c-5.574-0.898-24.626-22.182-28.757-14.5"/>
</g>
<g id="Слой_11">
	<path fill="#D76B38" d="M292,229.875c-1.555,2.002-3.177,5.554-4.076,8.209c11.601,4.63,17.277,22.141,33.883,14.479
		c-7.946-4.527-1.415-17.897-8.513-22.594c-6.396-4.232-18.209,6.693-21.044,0.031"/>
</g>
<g id="Слой_12">
	<path fill="#FF8345" d="M293.625,232.125c-1.157,2.572-3.329,4.349-4.184,7.211c-6.569-3.304-8.5,1.447-10.729,6.329
		c-3.75,8.209-3.594,17.524-14.333,20.894c-7.174-21.161-3.691-41.288,20.935-45.096c3.388,3.017,6.579,6.23,8.186,10.414"/>
</g>
<g id="Слой_13">
	<path fill="#FF9E53" d="M279.324,245.1c-3.714,7.354-9.19,15.649-15.659,20.765c-1.992,8.491-12.945,10.282-14.485-0.127
		c-2.407,5.982-0.583,10.828,3.318,14.523c0.597,0.033,1.195,0.082,1.794,0.179c0.251,0.041,0.417,0.156,0.546,0.294H255
		c1.122,0,1.341,1.365,0.685,1.938c7.418,4.257,20.141,3.823,24.347-2.981C286.149,269.796,275.498,255.224,279.324,245.1z"/>
</g>
<g id="Слой_3">
	<path fill="#002C34" d="M303.436,269.439c-0.247-0.244-0.527-0.369-0.807-0.413c-0.199-0.094-0.413-0.152-0.628-0.152
		c-0.864,0-1.439,0.685-1.5,1.5c-0.003,0.038,0.001,0.075-0.001,0.113c-0.078,0.24-0.077,0.506,0.023,0.783
		c0.094,0.888,0.426,1.702,0.947,2.404c0.739,1.737,2.11,3.242,3.773,3.995c1.081,0.49,2.154-0.2,2.22-1.202
		c0.023-0.107,0.036-0.221,0.037-0.343C307.518,273.211,305.349,271.327,303.436,269.439z"/>
	<path fill="#002C34" d="M295.39,260.294c-1.337-0.921-2.266-2.2-3.433-3.282c-0.285,0.209-0.449,0.558-0.296,1.005
		c1.035,3.019,4.144,4.658,7.214,4.734c0.52,0.013,0.82-0.307,0.92-0.693C298.249,261.636,296.637,261.152,295.39,260.294z"/>
	<path fill="#002C34" d="M308.168,288.293c-1.146,1.405-2.497,2.102-4.197,2.202c-0.865-5.271-2.419-9.944-7.83-12.084
		c-0.533-0.211-0.918,0.062-1.092,0.462c4.39,2.502,6.61,6.811,7.346,11.695c0.028,0.064,0.044,0.138,0.042,0.224
		c-0.01,0.432-0.068,0.86-0.042,1.292c0.002,0.031-0.009,0.053-0.012,0.081c0.196,0.199,0.481,0.322,0.741,0.335
		c2.564,0.129,4.823-0.789,6.457-2.793C310.39,288.717,308.983,287.293,308.168,288.293z"/>
	<path fill="#002C34" d="M294.11,283.919c-3.162,1.569-7.013,1.476-10.45,0.943c-0.061,0.438,0.129,0.88,0.699,0.977
		c1.646,0.281,3.327,0.443,4.988,0.365c-0.844,0.781-1.581,1.665-2.086,2.791c-0.523,1.166,1.2,2.185,1.727,1.009
		c1.003-2.236,2.991-3.372,4.891-4.766c0.443-0.325,0.513-0.933,0.321-1.376C294.17,283.88,294.144,283.902,294.11,283.919z"/>
	<path fill="#FFFFFF" d="M383.463,540.753c-6.864-6.281-15.231-11.134-23.604-15.188c6.356-29.042,10.757-58.656,15.23-88.032
		c3.503-23.004,5.905-46.303,4.438-69.498c0.095-3.261,0.01-6.516-0.305-9.772c0.027-0.158,0.042-0.326,0.028-0.512
		c-1.343-17.799-4.504-35.362-8.321-52.782c-0.047-0.217-0.127-0.398-0.218-0.562c-0.991-5.683-2.954-10.994-7.097-16.02
		c-6.459-7.835-16.81-11.577-26.415-13.648c-0.105-0.023-0.204-0.027-0.304-0.035c-0.07-0.007-0.127-0.033-0.201-0.034
		c-1.725-4.266-4.03-8.25-6.643-11.578c2.678-1.474,4.157-3.966,3.357-7.385c-0.959-4.095-5.602-4.499-9.248-4.485
		c-0.043-0.044-0.07-0.094-0.12-0.135c-3.294-2.733-4.745-6.295-5.052-10.504c-0.202-2.773,0.039-5.849-1.178-8.438
		c-2.537-5.396-8.365-6.596-13.638-4.729c-1.141,0.404-9.156,4.57-9.736,3.125c-0.806-2.008-0.6-3.99-2.025-5.817
		c-3.062-3.926-8.247-4.609-12.911-3.846c-11.299,1.847-20.541,8.958-20.167,21.146c0.196,6.37,2.505,12.487,2.841,18.853
		c0.194,3.667-0.615,8.9-4.535,10.378c-4.317,1.629-6.252-3.331-5.335-6.597c0.02-0.07,0.023-0.135,0.036-0.203
		c1.209-0.914,1.318-3.13-0.558-3.507c-5.842-1.173-7.129,5.852-6.983,10.312c0.088,2.681,1.058,5.065,2.538,7.124
		c-2.623,0.365-5.118,1.179-6.693,2.469c-5.116,4.188-5.628,11.443-8.087,17.179c-0.453,0.07-0.9,0.154-1.331,0.273
		c-0.172,0.048-0.314,0.121-0.442,0.205c-3.575,1.147-7.371,5.58-4.466,8.576c-1.78,1.177-2.145,3.392-0.827,5.338
		c-1.93,1.302-2.35,3.767-1.037,6.085c0.273,0.481,0.664,0.866,1.133,1.177c-1.07,1.379-1.039,3.442-0.008,5.323
		c1.156,2.109,3.952,2.549,6.477,2.622c-0.24,0.306-0.391,0.705-0.39,1.204c0.031,15.954,10.881,31.674,20.362,43.706
		c4.681,5.941,10.803,12.234,19.012,10.096c5.622-1.464,11.061-8.188,14.349-13.902c2.392,5.602,5.677,10.95,9.658,15.65
		c-0.208,0.456-0.277,0.999-0.124,1.615c10.836,43.736,2.889,91.163-13.043,132.706c-9.531-2.472-20.978-0.617-30.201,1.17
		c-8.672,1.68-23.213,5.018-26.635,14.608c-3.956,11.087,10.403,18.67,19.27,18.996c8.104,0.298,16.459-2.142,23.935-5.025
		c4.455-1.718,9.172-3.809,13.174-6.691c0.059,0.346,0.117,0.691,0.185,1.036c0.28,1.414,1.625,2.042,2.893,2.202
		c10.28,1.303,13.892-7.682,13-16.5c-0.022-0.22-0.067-0.425-0.125-0.62c0.017-0.181,0.019-0.362,0.007-0.544
		c-0.003-0.06-0.009-0.119-0.015-0.179c-0.011-0.095-0.025-0.188-0.044-0.282c-0.026-0.14-0.06-0.276-0.103-0.411
		c-0.002-0.006-0.004-0.011-0.006-0.016c-0.069-0.211-0.165-0.41-0.275-0.601c15.196-20.773,26.324-44.592,34.859-68.866
		c5.795,22.988,9.001,46.669,10.778,70.262c-0.63,0.479-1.066,1.228-1.076,2.259c-0.103,10.584-2.678,28.688,13.401,25.954
		c10.176,10.44,26.646,19.689,35.67,7.872C396.549,555.496,389.198,546.002,383.463,540.753z M339.459,294.845
		c0.88-5.082,0.297-10.538-1.235-15.77c8.048,1.945,15.629,5.083,21.59,11.068c8.214,8.248,7.662,19.618,8.078,30.372
		c0.702,18.109-3.827,34.522-12.406,50.333c-3.353,6.18-7.368,11.732-15.081,9.395c-6.936-2.101-12.628-8.58-17.299-13.787
		c-4.781-5.33-9.512-11.072-13.421-17.069c-5.395-8.276-8.827-17.72-12.882-26.685c2.57-0.172,4.743-1.461,6.356-3.626
		c0.053-0.071,0.095-0.142,0.143-0.213c7.398,3.481,14.863,6.804,21.733,11.278c4.015,2.615,7.595,5.81,10.287,9.785
		c2.276,3.361,3.967,7.074,6.284,10.416c1.459,2.104,4.928,0.107,3.454-2.019c-1.64-2.366-3.074-4.732-4.518-7.035
		c0.064-0.134,0.119-0.273,0.154-0.418c0.103-0.247,0.156-0.536,0.137-0.871c-0.334-5.798-0.57-11.586,1.429-17.135
		c0.876-2.433-2.99-3.471-3.857-1.063c-1.6,4.442-1.879,9.068-1.768,13.716c-1.935-2.55-4.148-4.928-7.013-7.013
		c-0.834-0.607-1.684-1.183-2.54-1.749C336.381,318.399,339.039,306.871,339.459,294.845z M245.444,321.501
		c-0.16-0.766-0.557-1.472-1.174-2.046c2.286-1.732,2.645-4.628,0.795-6.379c0.348-0.336,0.656-0.716,0.899-1.162
		c1.209-2.217-0.472-3.928-2.437-5.092c2.211-1.546,2.975-4.093,0.214-6.142c0.054-0.154,0.092-0.322,0.093-0.514
		c0.009-1.725,0.068-3.448,0.042-5.171c0.045-0.001,0.085-0.01,0.129-0.013c0.053,0.007,0.105,0.017,0.162,0.017
		c12.814,0.066,25.622,1.265,38.413,0.144c0.049,0.01,0.101,0.01,0.148,0.025c0.757,0.047,1.51,0.051,2.263,0.034
		c-0.878,0.982-1.329,2.154-1.086,3.311c-3.47,0.027-6.938,0.066-10.404-0.18c-0.783-0.056-1.544,0.725-1.5,1.5
		c0.124,2.18-0.001,4.293-0.446,6.435c-0.158,0.76,0.211,1.67,1.048,1.845c3.617,0.756,7.263,0.601,10.931,0.561
		c-0.06,0.047-0.102,0.107-0.172,0.147c0.312,0.002,0.624,0.005,0.936,0.007c-2.071,1.638-2.835,4.567-0.259,6.678
		c0.363,0.297,0.766,0.533,1.195,0.725c-0.828,1.361-0.632,2.9,1.127,4.162c1.004,0.72,2.239,1.194,3.544,1.528
		c-0.009,0.061-0.013,0.123-0.015,0.185C275.07,322.712,260.265,321.563,245.444,321.501z M276.067,326.719
		c-2.641,4.533-5.568,9.062-9.829,12.123c0.203-4.098,0.645-8.153,1.388-12.192C270.44,326.684,273.254,326.712,276.067,326.719z
		 M250.711,326.479c4.294,0.013,8.589,0.069,12.883,0.124c-0.655,3.767-1.085,7.554-1.305,11.37
		C257.76,334.677,254.566,330.413,250.711,326.479z M260.182,341.483c-7.684,0.822-14.321-7.695-14.968-15.003h0.01
		c0.098,0.266,0.264,0.527,0.529,0.767c4.506,4.085,7.729,9.217,12.605,12.934C258.951,340.634,259.562,341.065,260.182,341.483z
		 M246.031,290.333c0.088-1.166,0.125-2.333,0.132-3.502c0.438,0.081,0.885,0.156,1.337,0.224v3.278H246.031z M249.5,290.333v-3.044
		c1.001,0.087,2.009,0.118,3,0.072v2.972H249.5z M254.495,287.143c1.063-0.189,2.085-0.495,3.028-0.969
		c0.053-0.027,0.095-0.058,0.143-0.087c-0.002,1.417-0.03,2.833-0.137,4.247H254.5v-3.167
		C254.5,287.157,254.495,287.152,254.495,287.143z M271.038,287.654c0.016,0.003,0.029,0.01,0.044,0.014
		c0.128-0.037,0.264-0.064,0.418-0.064c0.045,0,0.084,0.009,0.128,0.013c0.236-0.013,0.486,0.033,0.744,0.178
		c0.485,0.272,0.894,0.665,1.2,1.129c0.016-0.033,0.032-0.065,0.046-0.099c0.396,0.554,0.833,1.046,1.295,1.502
		c-3.974-0.038-7.941-0.264-11.912,0.007h-3.47c0.097-1.28,0.129-2.562,0.134-3.846c3.566,1.044,7.557,1.531,11.242,1.094
		c-0.009,0.023-0.022,0.044-0.033,0.067C270.929,287.654,270.982,287.643,271.038,287.654z M296.148,300.148
		c-2.666,0.32-7.644,0.304-9.372-2.26c-0.656-0.974,4.01-2.548,4.669-2.747c2.098-0.633,4.71-1.261,6.906-0.82
		c0.024,0.005,0.045,0.003,0.068,0.007c0.175,0.229,0.438,0.409,0.807,0.493c1.724,0.394,2.173,1.475,1.381,3.03
		C299.773,299.491,297.815,299.948,296.148,300.148z M300.321,303.883c-0.285,0.498-0.888,0.872-1.344,1.181
		c-1.44,0.975-3.088,1.667-4.735,2.2c-1.851,0.599-3.881,0.505-5.66-0.325c-2.877-1.341-0.61-3.176,1.232-4.108
		c2.861,0.752,6.119,0.742,8.838-0.107c0.161,0.307,0.426,0.571,0.825,0.723C299.776,303.56,300.066,303.691,300.321,303.883z
		 M287.125,310.625c0.465-0.057,0.816-0.282,1.055-0.584c1.983,0.728,4.287,0.785,6.219,0.301c0.934-0.234,1.895-0.553,2.838-0.941
		c0.139,0.077,0.297,0.14,0.489,0.17c0.839,0.133,1.691,0.254,2.466,0.615c-0.278-0.085-0.331,0.149-0.93,0.574
		c-1.343,0.951-2.924,1.599-4.468,2.136c-1.205,0.419-2.453,0.619-3.715,0.771c-0.848,0.103-1.698,0.129-2.552,0.126
		c-0.497-0.004-0.989-0.058-1.477-0.161c-0.189-0.053-0.378-0.105-0.566-0.158C285.057,312.974,285.271,312.024,287.125,310.625z
		 M284.119,305.667c-3.133,0.022-6.285,0.228-9.389-0.214c0.202-1.342,0.304-2.687,0.306-4.044
		c3.652,0.177,7.307,0.102,10.964,0.092c0.15,0,0.284-0.024,0.411-0.058c0.008,0.004,0.014,0.01,0.022,0.014
		C285.058,302.578,284.02,304.072,284.119,305.667z M289.682,318.625c-0.658-0.205-1.394-0.467-1.93-0.917
		c-0.018-0.015-0.019-0.017-0.034-0.03c0.169-0.21,0.525-0.413,0.664-0.508c0.123-0.084,0.221-0.18,0.309-0.281
		c1.944,0.024,3.971-0.362,5.568-0.713c1.232-0.27,2.643-0.719,3.994-1.325c0.105,0.042,0.219,0.075,0.349,0.095
		c0.805,0.122,2.469,0.237,2.517,1.333c0.039,0.879-0.892,1.718-1.47,2.245c-1.334,1.215-2.751,1.27-4.422,1.156
		C293.349,319.553,291.476,319.184,289.682,318.625z M290.356,326.505c1.241-0.046,2.483-0.101,3.724-0.167
		c2.391,5.361,4.65,10.792,7.233,16.049C294.928,341.255,288.143,332.944,290.356,326.505z M336.832,302.427
		c-1.221,8.8-4.344,16.934-11.497,23.217c-6.563-4.092-13.657-7.231-20.659-10.537c-0.047-0.022-0.093-0.029-0.14-0.048
		c-0.24-0.189-0.543-0.314-0.901-0.362c-0.446-0.781-1.157-1.446-2.043-1.918c0.381-0.337,0.737-0.688,1.027-1.07
		c0.154-0.203,0.276-0.398,0.377-0.588C315.495,314.815,330.214,314.551,336.832,302.427z M323.157,254.429
		c0.145-0.051,0.281-0.125,0.412-0.209c0.357-0.008,0.715-0.013,1.072-0.025c0.416,0.001,0.832,0.001,1.248,0.002
		c3.622-0.251,4.068,2.035,1.338,6.856c-1.12,0.353-1.412,1.649-0.662,2.507c7.275,8.316,11.487,20.648,9.668,31.653
		c-2.801,16.949-21.31,16.726-34.208,12.465c-0.209-0.069-0.403-0.088-0.582-0.075c-0.168-0.087-0.341-0.168-0.519-0.243
		c0.442-0.325,0.868-0.665,1.253-1.034c1.982-1.896,1.212-3.868-0.547-5.072c3.259-2.533,3.111-7.602-0.818-9.087
		c-0.036-0.008-0.071-0.02-0.105-0.032c-0.218-0.078-0.441-0.152-0.682-0.207c-0.017-0.004-0.031-0.003-0.048-0.006
		c-0.176-0.234-0.444-0.417-0.827-0.494c-1.774-0.357-3.685-0.273-5.571,0.065c-0.115-0.364-0.416-0.66-0.911-0.66
		c-3.845-0.001-7.68-0.048-11.506-0.413c-2.433-0.579-4.271-1.849-5.563-4.006c2.985-1.221,5.428-3.345,6.75-6.658
		c4.395-11.02-2.023-22.964-1.417-34.219c0.405-7.518,10.504-5.495,13.472-1.181c1.742,2.532,3.005,5.202,5.348,7.263
		C305.718,256.867,316.122,256.924,323.157,254.429z M263.764,271.18c8.933-11.955-7.153-28.57,3.117-40.156
		c4.021-4.535,12.089-7.083,17.984-6.288c3.546,0.478,5.038,2.906,5.562,6.185c0.225,1.408,1.165,3.121,2.704,3.435
		c6.518,1.33,18.399-9.236,21.369,0.461c0.971,3.17,0.386,6.817,1.071,10.089c0.504,2.407,1.68,4.654,3.237,6.565
		c-6.969,1.425-15.171,0.068-19.119-6.178c-2.711-4.289-5.393-8.129-10.909-8.669c-12.662-1.238-12.539,10.372-10.964,19.588
		c1.32,7.723,5.826,23.11-4.324,26.726c-4.455,1.587-10.031,0.704-14.586-0.988c-0.634-1.362-1.931-2.586-3.217-3.043
		c-0.902-0.321-1.99-0.534-3.165-0.649c-0.918-0.852-1.736-1.813-2.42-2.891c-0.332-0.524-0.832-2.514-1.081-4.63
		C251.719,275.833,259.218,277.263,263.764,271.18z M245.88,281.774c0.573-0.138,1.183-0.212,1.804-0.258
		c0.06-0.028,0.121-0.056,0.19-0.075c0.801-0.229,1.582-0.201,2.366-0.137c1.175-0.047,2.362,0.097,3.593,0.021
		c0.39-0.024,0.648,0.15,0.803,0.395c0.187,0.057,0.327,0.168,0.434,0.302c0.561,0.552,0.368,1.717-0.564,1.872
		c-0.133,0.127-0.305,0.22-0.524,0.251c0.017,0.01,0.034,0.019,0.051,0.029c-0.878,0.167-1.818,0.219-2.776,0.205
		c-0.084,0.019-0.159,0.052-0.257,0.052c-0.112,0-0.201-0.034-0.295-0.06c-1.942-0.083-3.933-0.442-5.64-0.818
		c-1.176-0.259-1.93,0.768-1.872,1.68c-0.014,0.086-0.026,0.172-0.026,0.267c0,1.557-0.01,3.114-0.119,4.667h-1.881
		c-0.091,0-0.16,0.03-0.238,0.048c-0.53-0.044-1.095,0.265-1.095,0.952v7.553c-1.307-0.432-2.689-0.71-4.064-0.808
		C237.897,291.815,238.902,283.454,245.88,281.774z M232.399,301.196c0.202-0.035,0.366-0.104,0.509-0.19
		c2.286-0.378,4.686,0.148,6.84,0.913c1.019,0.362,2.032,0.899,2.782,1.686c0.448,0.47-1.025,1.018-1.739,1.292
		c-2.714,1.041-5.776,1.172-8.647,1.082c-1.16-0.036-3.643-0.007-3.831-1.619C228.101,302.537,231.082,301.427,232.399,301.196z
		 M228.649,309.321c0.402-0.098,0.675-0.311,0.847-0.575c1.65,0.351,3.499,0.278,5.029,0.229c1.752-0.056,3.489-0.263,5.186-0.662
		c0.005,0.002,0.01,0.005,0.015,0.007c0.637,0.234,4.621,1.568,3.144,2.691c-1.643,1.25-4.137,1.286-6.09,1.386
		c-1.667,0.086-3.325,0.118-4.991-0.005c-0.962-0.071-1.948-0.287-2.822-0.703C227.828,311.149,227.066,309.707,228.649,309.321z
		 M228.024,314.571c0.013-0.003,0.022-0.009,0.034-0.012c2.609,1.211,6.005,0.975,8.722,0.84c1.577-0.079,3.533-0.192,5.287-0.705
		c0.057,0.035,0.11,0.071,0.176,0.101c1.337,1.214,1.107,2.156-0.692,2.826c-0.947,0.397-2.065,0.375-3.071,0.414
		c-1.245,0.049-2.496-0.038-3.742-0.035c-1.231,0.003-2.458-0.026-3.687-0.1c-0.688-0.043-1.37-0.129-2.047-0.258
		c-0.248-0.058-0.495-0.116-0.743-0.173C226.744,317.261,226.664,316.295,228.024,314.571z M231.364,324.565
		c-0.629-0.044-1.246-0.154-1.85-0.331c-1.263-0.312-3.216-2.717-0.366-3.163c0.226-0.035,0.411-0.109,0.564-0.208
		c1.381,0.129,2.74,0.113,3.721,0.133c2.333,0.047,5.045,0.34,7.477-0.123c0.15,0.136,0.337,0.247,0.566,0.323
		c0.973,1.552,0.767,2.519-0.619,2.902c-0.828,0.319-1.756,0.378-2.631,0.456c-1.112,0.099-2.236,0.074-3.351,0.071
		C233.702,324.622,232.537,324.635,231.364,324.565z M286.429,359.468c-0.648-2.495-4.506-1.436-3.857,1.063
		c0.276,1.063,0.597,2.123,0.939,3.179c-2.75,5.803-8.998,14.815-15.693,15.482c-6.84,0.681-12.948-9.285-16.382-14.025
		c-7.415-10.233-15.744-23.27-15.769-36.335c-0.001-0.501-0.156-0.902-0.4-1.209c2.466-0.004,5.273,0.062,7.433-1.127
		c0.175-0.003,0.35-0.001,0.525-0.004c0.591,8.439,6.684,15.752,15.278,16.819c1.447,0.18,2.821,0.078,4.125-0.244
		c3.666,2.325,7.313,4.608,9.479,8.607c0.165,0.305,0.372,0.527,0.601,0.686c0.322,0.381,0.808,0.637,1.46,0.637
		c2.039,0,2.459-2.494,1.274-3.541c-2.023-3.619-5.117-6.13-8.465-8.38c4.988-3.362,8.714-9.695,11.407-14.363
		c3.293-0.007,6.586-0.051,9.878-0.148c-2.032,7.921,6.127,17.353,13.906,17.932c0.075,0.006,0.132-0.016,0.197-0.025
		c1.97,3.83,4.147,7.548,6.718,11.056c4.445,6.064,9.354,11.967,14.563,17.382c4.987,5.184,11.183,10.625,18.509,11.853
		c7.348,1.232,11.938-3.974,15.476-9.635c7.412-11.861,11.542-24.672,13.257-38.038c0.354,2.108,0.691,4.219,1.044,6.328
		c-0.189,3.78-0.318,7.557-0.216,11.34c-4.359,17.868-16.043,35.774-33.929,41.603C313.82,404.174,291.958,380.766,286.429,359.468z
		 M363.959,410.238c-3.628,4.36-11.45,7.052-13.076-0.106c-1.075-4.733-0.731-9.811-0.883-14.632
		c-0.004-0.128-0.025-0.246-0.047-0.361c6.962-4.583,12.74-11.212,17.175-18.666c0.14,4.606,0.347,9.211,0.375,13.821
		C367.541,396.342,368.042,405.332,363.959,410.238z M304.627,418.34c-0.477-9.368-1.639-18.675-3.564-27.843
		c1.282,1.118,2.606,2.179,3.979,3.157c-0.02,0.111-0.039,0.223-0.042,0.346C304.909,397.997,310.644,417.687,304.627,418.34z
		 M287.015,538.993c-0.195-1.265-0.373-2.532-0.623-3.791c-0.437-2.206-3.544-2.903-5.014-1.324
		c-7.856,8.439-22.707,12.626-33.809,13.516c-5.626,0.451-10.171-0.507-14.263-4.476c-2.414-2.342-3.763-5.035-1.738-7.988
		c4.59-6.693,17.302-8.534,24.54-9.793c7.862-1.368,17.662-2.652,25.598-0.242c0.134,0.182,0.287,0.351,0.466,0.496
		c0.065,0.077,0.127,0.155,0.205,0.23c2.623,2.509,5.786,4.016,9.251,4.598C291.835,534.443,291.055,538.369,287.015,538.993z
		 M327.077,425.002c-1.127-2.987-5.961-1.694-4.821,1.329c2.742,7.271,5.134,14.66,7.248,22.128
		c-0.097,0.163-0.182,0.343-0.248,0.543c-8.795,26.507-20.592,52.67-37.27,75.202c-1.997-0.43-3.813-1.34-5.365-2.825
		c-0.007-0.007-0.015-0.011-0.023-0.018c-0.062-0.158-0.143-0.309-0.231-0.457c11.933-30.841,19.425-64.933,18.424-98.445
		c10.512,0.353,5.367-17.923,4.364-26.165c8.115,4.615,17.456,6.649,27.301,4.568c3.379-0.714,6.575-1.893,9.583-3.441
		c0.069,5.505-0.151,11.352,1.786,16.509c1.965,5.23,8.238,5.665,12.695,3.584c6.833-3.19,9.361-8.263,10.287-15.53
		c1.341-10.523,0.259-21.091,0.193-31.65c-0.002-0.339-0.076-0.631-0.198-0.881c1.247-2.719,2.316-5.492,3.222-8.269
		c2.597,25.613-0.173,51.485-4.039,76.876c-4.462,29.303-8.879,58.847-15.293,87.794c-0.172,0.217-0.328,0.445-0.444,0.692
		c0,0.001-0.001,0.001-0.001,0.002c-0.025,0.032-0.046,0.066-0.07,0.1c-0.135,0.191-0.249,0.395-0.336,0.612
		c-0.13,0.077-0.261,0.153-0.396,0.222c0.067-0.055-0.3,0.068-0.542,0.145c-0.008,0-0.022,0.001-0.031,0.001
		c-0.027-0.007-0.042-0.011-0.076-0.02c-0.437-0.121-0.879-0.125-1.303-0.049c-0.162-0.03-0.326-0.055-0.495-0.058
		c-0.049-0.001-0.47-0.037-0.543-0.032c-0.307-0.061-0.61-0.143-0.909-0.236c-0.086-0.027-0.137-0.041-0.184-0.054
		c-0.048-0.026-0.119-0.062-0.224-0.112c-0.392-0.188-0.761-0.421-1.125-0.656c-0.165-0.107-0.341-0.185-0.519-0.25
		C344.855,491.836,339.256,457.296,327.077,425.002z M347.359,545.382c0.02,0.044,0.029,0.088,0.051,0.132
		c0.54,1.071,1.236,2.219,2.054,3.406C348.415,548.152,347.757,546.901,347.359,545.382z M386.537,557.844
		c-1.728,8.951-13.25,3.513-17.743,0.776c-6.215-3.787-12.876-9.529-16.204-16.134c-1.481-2.94-5.432-1.177-5.516,1.535
		c-0.544-3.479-0.088-7.882,0.213-11.26c1.178,0.451,2.421,0.713,3.712,0.74c0.179,0.004,0.353-0.017,0.524-0.046
		c2.4,0.527,4.874-0.43,6.706-1.996c5.304,2.665,10.443,5.663,15.314,9.055C378.497,543.962,387.917,550.697,386.537,557.844z"/>
	<path fill="#FFFFFF" d="M268.322,306.27c-0.034-0.119-0.07-0.237-0.099-0.357c-0.132-0.404-0.266-0.807-0.43-1.201
		c-0.029-0.07-0.043-0.142-0.055-0.213c-0.148-0.215-0.255-0.455-0.273-0.72c-0.121-0.219-0.243-0.437-0.339-0.668
		c0-0.001-0.001-0.001-0.001-0.001c-0.151-0.163-0.266-0.356-0.328-0.575c-0.157-0.233-0.322-0.46-0.509-0.665
		c-2.674-2.941-6.562-3.858-10.412-3.869c-0.329-0.001-0.571,0.13-0.733,0.323c-8.497,0.953-10.178,11.711-5.056,16.562
		c1.397,1.799,3.934,2.628,6.428,2.831c4.014,0.993,9.155-2.242,11.001-6.03c0.712-1.46,0.966-3.255,0.779-4.998
		c0.022-0.007,0.045-0.021,0.067-0.028C268.35,306.533,268.336,306.401,268.322,306.27z M266.036,309.859
		c-0.245,1.257-1.03,2.478-2.084,3.495c1.911-2.926,2.117-6.95,0.615-10.113C265.942,304.828,266.59,307.012,266.036,309.859z"/>
	<path fill="#002C34" d="M322.129,279.576c-0.458-1.033-1.529-0.935-2.186-0.328c3.644,8.577-0.728,17.92-9.705,19.782
		c0.192,0.734,0.871,1.4,1.829,1.249C322.335,298.658,326.095,288.534,322.129,279.576z"/>
</g>
</svg>
