<?xml version="1.0" encoding="utf-8"?>
<!-- Generator: Adobe Illustrator 17.0.0, SVG Export Plug-In . SVG Version: 6.00 Build 0)  -->
<!DOCTYPE svg PUBLIC "-//W3C//DTD SVG 1.1//EN" "http://www.w3.org/Graphics/SVG/1.1/DTD/svg11.dtd">
<svg version="1.1" xmlns="http://www.w3.org/2000/svg" xmlns:xlink="http://www.w3.org/1999/xlink" x="0px" y="0px" width="612px"
	 height="792px" viewBox="0 0 612 792" enable-background="new 0 0 612 792" xml:space="preserve">
<g id="Слой_2">
	<rect fill="#020000" width="612" height="792"/>
</g>
<g id="Слой_24">
	<path fill="#663818" d="M381,481.75c2.543,30.125,7.825,24.557,30.706,13.532c0.534,2.376,1.7,4.397,2.089,6.678
		c6.818-0.151,7.652-3.845,6.956-10.472c-0.973-9.26-1.634-5.616-9.438-9.239c-7.538-3.5-33.603-4.168-30.562,0.751"/>
	<path fill="#663818" d="M438.378,481.25c1.616,6.216,3.508,12.962,4.172,19.517c43.549,17.352,30.681-31.733-5.8-18.767"/>
</g>
<g id="Слой_25">
	<path fill="#804820" d="M396.36,480c-13.044,4.624-11.055,18.762,2.378,20.793c-24.496,25.776-51.279-24.707-3.706-20.543"/>
	<path fill="#804820" d="M441.5,481.5c8.31,0.687,16.611,17.532,6.249,21.217c-5.812,2.067-11.909-8.559-17.962-9.68
		c-1.385,6.472-3.044,7.51-9.499,6.992c0.535-16.071,1.776-18.858,20.962-18.03"/>
</g>
<g id="Слой_26">
	<path fill="#0D3037" d="M427.5,432.75c0.986,16.858-2.653,34.048-1.755,50.449c0.125,0.057,0.229,0.14,0.311,0.249
		c16.49-7.552,13.901-43.715,16.206-59.706c2.104-14.598,9.044-34.723,3.05-48.998c-4.245,18.593-3.642,41.565-16.375,56.902
		c-0.557,0.671-1.622,1.199-2.188,1.854"/>
</g>
<g id="Слой_22">
	<path fill="#104049" d="M394.5,377.75c2.599,18.823,3.895,38.072,7.707,56.488c2.452,11.846,0.068,29.808,5.541,40.538
		c3.845,7.538,9.028,11.684,18.712,7.918c0.616-16.786,2.705-33.809,2.782-50.668c-7.5,3.291-13.794,0.059-17.016-6.276
		c1.936-2.798,8.254-4.861,9.281-6.681c1.962-3.475,2.177-4.347,4.287-9.527c2.297-5.641,7.477-22.067,5.883-25.804
		c-0.924-2.166-1.5-4.855-2.99-6.717c-8.202,5.247-25.723,6.051-34.436,1.229"/>
	<path fill="#104049" d="M425.75,406.5c1.376,3.411,1.301,8.168,1.23,11.962c-2.57,0.475-6.583,0.902-9.136,0.315
		c2.584-2.809,4.859-7.505,7.406-10.278"/>
</g>
<g id="Слой_23">
	<path fill="#206574" d="M398.5,380.25c9.403,30.207,11.047,69.45,13.985,101.406c-16.293-8.386-18.747-63.335-21.168-80.926
		c-1.344-9.764-3.711-19.217-5.518-28.709c4.372,2.224,9.274,5.054,12.95,7.979"/>
</g>
<g id="Слой_19">
	<path fill="#247482" d="M443.25,308.75c2.083,15.49-5.903,38.962,3.36,52.956c-0.066,0.065,0.867,0.042,0.827,0.012
		c4.722-8.687,6.764-47.606-3.937-52.467"/>
</g>
<g id="Слой_15">
	<path fill="#4AAEBF" d="M372.047,323.103c0.5-4.145,0.434-8.365,1.093-12.485c0.605-3.787,3.071-7.037,3.381-10.868
		c0.277-3.433,3.457-4.925,6.057-4.458c-8.402-13.155-15.16-2.079-20.888,6.245c-8.218,11.942-16.184,22.326-24.427,33.964
		c-5.828,8.227-25.122,25.919-11.993,32.291c3.046-7.081,15.161-14.776,21.467-19.373c6.496-4.736,16.973-14.973,24.232-16.408
		c0.051,0.258,0.104,0.519,0.155,0.778C371.276,329.61,371.649,326.403,372.047,323.103z"/>
	<path fill="#4AAEBF" d="M432.456,293.01c-2.757-5.941-11.425-22.372-20.08-21.827c-8.79,0.554-2.995,4.795-6.016,12.238
		c-3.837,9.449-6.462,4.932-15.324,10.077c-3.223,1.872-3.953,1.433-5.201,4.308c5.142,8.715,14.849,15.314,20.47,24.387
		c7.213,11.642,12.432,24.844,18.082,37.265c3.224,7.088,3.884,14.967,7.169,21.481c9.334,18.514,13.209-6.089,13.193-17.157
		C444.713,339.525,443.266,316.304,432.456,293.01z"/>
</g>
<g id="Слой_18">
	<path fill="#348F9F" d="M380.25,295c-6.148,28.2-13.18,78.825,24.537,87.207c23.94,5.32,23.303-5.533,20.957-22.194
		c-2.619-18.599-2.661-37.266-17.006-51.056c-8.821-8.48-16.365-12.03-28.488-13.708"/>
	<path fill="#348F9F" d="M410.75,270.75c11.255,11.972,19.812,26.345,24.251,42.798c4.013,14.874,4.005,33.409,10.256,46.993
		c3.429-22.533,4.947-87.441-26.113-91.485c-4.044-0.526-8.194,1.003-8.894,2.194"/>
	<path fill="#348F9F" d="M375.25,308.5c0.08,0.558,0.73,3.512,1.519,7.549c0.472-0.174,0.961-0.355,1.481-0.549L375.25,308.5z"/>
	<path fill="#348F9F" d="M376.769,316.049c-7.292,2.695-8.958,3.292-8.818,8.201c3.512,1.06,4.037,5.885,1.593,8.097
		c0.867,0.762,1.442,1.895,1.435,3.403c-0.009,1.769-0.118,3.573-0.032,5.354c0.119,0.227,0.24,0.428,0.366,0.59
		C384.112,358.253,379.564,330.346,376.769,316.049z"/>
</g>
<g id="Слой_20">
	<path fill="#4AAEBF" d="M371.5,327.75c3.778-18.913,27.387-20.425,41.671-12.681c18.636-8.631-17.18-42.636-34.134-25.94
		c-6.125,6.032-23.631,37.313-7.787,38.372"/>
</g>
<g id="Слой_21">
	<path fill="#247482" d="M383.25,367c12.875,9.918,31.637,9.054,44.517-0.667c5.601,24.413-39.084,16.852-45.017,0.917"/>
</g>
<g id="Слой_16">
	<path fill="#F9E2E4" d="M292,375.25c-1.791,1.872-2.928,4.026-3.456,6.194c0.176,0.021,0.489,0.338,0.513,0.513
		c4.447-0.923,8.051-4.57,2.694-6.706"/>
</g>
<g id="Слой_11">
	<path fill="#E1B4B4" d="M300.5,384.5c4-2.339,13.274,0.169,15.367,4.95c2.8,6.397-3.874,6.434-7.122,2.269
		c-3.177,3.504-6.761,2.818-8.989-1.493c-0.714-0.089-1.546,0.875-2.73,0.486c-2.36-4.851-0.024-7.619,5.974-6.962"/>
</g>
<g id="Слой_12">
	<path fill="#F9E2E4" d="M435.5,387.75c-4.719,8.32,3.152,27.694-1.681,33.256c-7.735,8.9-7.277-18.979-6.013-22.993
		c1.497-4.753,3.025-8.228,6.944-10.763"/>
	<path fill="#F9E2E4" d="M426,418c-5.406,1.124-12.874,1.364-13.706,7.956c0.588,0.703,2.156,0.278,2.919,0.581
		c0.673,4.473,0.765,3.078,3.795,5.168c1.794-4.861,6.84-6.893,10.773-10.206c-1.169-1.075-2.183-2.849-3.28-3.75"/>
	<path fill="#E1B4B4" d="M427.75,421.5c-3.086,3.113-13.439,13.237-1.663,12.249c4.939-0.414,13.294-12.819,2.163-11.749"/>
	<path fill="#E1B4B4" d="M433.5,387c-3.75,9.533-2.823,23.468,0.556,33.238c0.18-0.074,1.103,0.17,1.207,0.287
		c7.764-7.634,6.463-21.858,5.436-32.199c-3.107,1.249-4.284-0.953-6.699-1.076"/>
	<path fill="#E1B4B4" d="M318,364.25c-4.262-0.166-8.038,1.17-11.206,3.806c-0.031-0.029-0.003,1.133-0.006,1.137
		c5.486,1.688,11.089,2.181,16.186,5.038c6.283-5.584-1.448-7.046-5.973-9.981"/>
</g>
<g id="Слой_5">
	<path fill="#104049" d="M227.422,481.75c-6.504,0.852-14.4,4.739-20.52,6.902c-1.905-20.006-10.634-39.256-17.916-57.946
		c-4.198-10.775-7.365-26.161-15.319-34.04h-1.333c-2.462,0.812-4.102,1.939-5.122,3.278c0.256,2.169,0.557,4.322,1.015,6.465
		c0.303,1.415,0.022,2.84-0.725,3.953c3.108,6.691,9.692,13.745,11.516,16.879c0.535,0.92,1.015,1.873,1.469,2.842
		c1.877,0,3.729,1.002,4.407,3.326c2.399,8.23,3.373,16.714,5.325,25.038c1.704,7.267,4.943,14.038,6.675,21.296
		c0.6,2.513-0.695,4.409-2.491,5.312c0.159,0.442,0.31,0.887,0.474,1.327c-0.685-0.255-1.454-0.516-2.292-0.778
		c-1.226,0.143-2.472-0.146-3.415-0.954c-13.373-3.367-36.382-4.995-35.093,13.584c1.367,19.704,32.689,6.142,42.182,2.808
		c3.987,8.074,12.094,2.46,19.325,2.133c8.103-0.365,18.226,3.725,27.304,2.508C271.016,501.911,249.23,478.892,227.422,481.75z"/>
	<path fill="#104049" d="M190.667,283.333c-28.621-23.736-39.401,56.352-37.935,70.001c1.541,14.345,3.527,34.63,16.243,43.305
		c0.315,9.233,10.098,17.949,13.756,26.879c5.412,13.213,7.582,28.087,11.944,41.684c2.764,8.615,6.547,34.475,15.975,30.38
		c7.464-3.242,4.6-12.628,5.684-18.899c3.058-17.687,8.212-31.888,4.25-50.41c-7.437-34.771-9.123-70.812-15.392-106.058
		c-2.663-14.971-3.698-25.847-14.198-35.559c-0.526-0.486-0.58-1.656-0.993-1.991"/>
	<path fill="#104049" d="M244.668,298.1c-0.474-15.046-1.009-11.776-8.658-20.026c-0.715-0.772-7.239-0.249-8.31-0.128
		c0.799-12.763,7.375-31.396,0.018-43.349c-4.596-7.466-18.04-12.523-19.866-2.988c-0.845,0.085-1.703,0.177-2.567,0.276
		c-0.159,0.446-0.39,0.865-0.719,1.229c-0.952,1.055-2.307,1.198-3.634,1.005c-0.696-0.101-1.111-0.859-1.095-1.524
		c-4.277,0.631-8.278,1.417-11.028,2.326c-4.823,6.204-3.174,10.848-4.477,17.728c-0.213,1.125,1.375,7.14,1.529,9.027
		c0.124,1.52-5.585,2.718-5.192,5.64c0.161,1.198,0.983,2.408,2.064,3.63c0.065-0.023,0.127-0.05,0.199-0.066
		c2.086-0.469,4.553-0.255,6.049,1.471c1.5,1.729,1.825,3.838,1.471,6.049c-0.09,0.564-0.428,0.874-0.844,0.997
		c7.699,20.71,2.736,52.736,4.707,74.523c1.202,13.29,2.862,93.278,27.641,89.012c6.589-23.78,13.411-47.121,15.709-72.584
		c1.289-14.28,4.618-27.31,6.307-41.24C245.205,318.956,244.989,308.272,244.668,298.1z"/>
	<path fill="#104049" d="M229.333,258.333c7.831,5.498,3.083,13.672-5.973,10.34c-0.705-5.772,1.458-8.41,5.64-10.007"/>
	<path fill="#104049" d="M250,286.333c10.199,10.618,18.155,24.022,25.767,36.333c7.635,12.349,15.103,34.048,25.565,43.351
		c0.897,0.798,1.393,2.574,2.068,3.581c16.588,0.176,38.183,16.4,14.185,24.034c-4.421-6.929-13.048-14.531-20.527-6.241
		c-1.785,4.26-0.562,2.704-4.333,4.884c-1.135-4.535,3.158-13.107,1.958-15.942c-1.047-2.472-11.396-8.103-14.49-10.927
		c-10.896-9.945-19.652-23.442-29.199-34.896c-15.075-18.086-9.609-32.202-16.69-53.781c5.357,4.227,12.043,5.657,17.03,10.605"/>
	<path fill="#104049" d="M287,342c3.45,7.608,8.965,13.063,10.298,21.274c-5.995-4.318-11.681-12.639-10.298-20.941"/>
	<path fill="#104049" d="M315.333,371c6.745,0.472,12.957,4.42,12.941,11.934c-6.613,0.278-11.634-5.213-12.941-11.6"/>
	<path fill="#A8C4CC" d="M295.667,385.667c0.314,2.956,2.508,3.518,0.877,6.951c-0.246-0.085-1.879-0.086-2.152-0.009
		c-0.052-0.155-0.059-0.65-0.316-0.667c-0.589-3.61,1.866-3.493,2.591-5.942"/>
	<path fill="#104049" d="M223.333,228c5.825,3.248,8.268,11.248-1.706,9.692C220.608,233.892,221.442,230.619,223.333,228"/>
	<path fill="#104049" d="M298.25,383.25c-0.6,2.969-1.676,5.38-1.772,8.356c-5.549,1.239-4.134-8.139,1.772-7.981"/>
	<path fill="#104049" d="M188.333,260.667c-5.238-0.044-8.253,3.083-8.265,8.932c9.5,5.883,21.899-2.449,7.931-8.599"/>
</g>
<g id="Слой_4">
	<path fill="#C7DBE2" d="M312.561,386.439c-1.49-1.826-3.15-4.033-5.483-4.818c-2.345-0.789-4.554-0.042-6.604,1.132
		c-0.014,0.034-0.029,0.07-0.041,0.094c-0.109,0.214-0.265,0.328-0.433,0.396c-0.323,0.447-0.578,0.935-0.723,1.381
		c-0.048,0.146-0.12,0.264-0.207,0.359c-0.055,0.131-0.115,0.259-0.168,0.391c-0.057,0.141-0.136,0.255-0.23,0.347
		c0.191,0.504,0.624,0.904,1.328,0.904c0.726,0,1.18-0.423,1.361-0.951c0.09-0.034,0.18-0.074,0.271-0.128
		c1.65-0.99,3.306-1.773,5.12-0.767c1.494,0.829,2.63,2.488,3.687,3.783C311.663,390.06,313.773,387.924,312.561,386.439z"/>
	<path fill="#C7DBE2" d="M313.132,368.862c-2.417-0.443-4.815-0.702-7.159-0.53c-0.018-0.352-0.113-0.72-0.315-1.094
		c-11.456-21.254-24.875-41.334-38-61.586c-7.408-11.431-21.43-34.911-38.041-29.947c0.173-0.946,0.334-1.893,0.478-2.84
		c0.246-1.619-0.477-1.044,0.571-1.253c0.935-0.187,2.043-0.709,2.772-1.317c4.657-3.885,2.445-11.548-2.825-12.712
		c1.532-9.67,4.935-21.791-2.672-29.465c-3.961-3.995-10.622-3.806-15.658-2.587c-4.588,1.11-7.049,4.042-9.298,7.589
		c-3.792-2.944-10.848-1.418-14.703,0.629c-3.633,1.929-6.288,7.063-6.626,11.016c-0.483,5.639,1.894,10.722,2.656,16.177
		c-3.261,0.606-5.53,2.152-5.98,6.06c-0.562,4.883,4.673,5.618,8.269,5.664c0.002,0.004,0.002,0.008,0.004,0.013
		c1.048,2.278,1.858,4.67,2.626,7.082c-15.517-11.314-29.241,16.161-33.967,28.965c-10.503,28.456-3.864,63.087,9.753,89.42
		c-0.005,0.064-0.019,0.124-0.019,0.19c0,0.499,0.18,1.007,0.475,1.436c-0.078,6.167,0.964,12.322,3.339,17.83
		c2.106,6.196,5.814,11.519,12.591,14.56c0.592,0.266,1.166,0.292,1.685,0.166c2.079,9.219,4.261,18.414,6.476,27.601
		c1.346,5.581,2.71,11.157,4.074,16.734c0.465,1.901,0.689,4.841,1.387,7.359c-0.698-0.322-1.358-0.703-1.976-1.146
		c0.043,0.126,0.084,0.254,0.128,0.38c-9.908-4.739-23.37-5.553-32.963-0.734c-11.051,5.552-11.867,24.685,0.309,29.293
		c10.941,4.141,23.025-5.032,33.154-7.75c0.491-0.132-0.129-0.362,0.511,0.818c0.389,0.717,0.7,1.472,1.045,2.211
		c0.695,0.262,1.275,0.664,1.714,1.181h7.162c0.369-0.385,0.71-0.785,0.989-1.217c2.046,1.547,4.638,1.463,8.387,0.106
		c2.433-0.881,3.465-1.006,4.006-3.786c0.051-0.096,0.092-0.181,0.128-0.261c0.377,0.255,0.747,0.52,1.142,0.745
		c1.253,0.764,3.077,0.727,4.462,1.206c3.492,1.208,6.564,3.34,10.23,4.078c3.201,0.644,6.549,0.828,9.803,0.689
		c6.89-0.294,12.671-3.431,15.138-10.035c3.977-10.65-4.389-18.033-14.115-19.496c-8.425-1.268-18.849-0.307-26.938,3.457
		c3.173-21.242,8.545-42.308,13.545-63.167c4.956-20.677,9.9-41.709,9.866-63.091c0-0.062-0.013-0.115-0.017-0.173
		c1.438-3.716,2.492-7.592,3.328-11.461c1.225-5.668,2.612-11.435,2.889-17.204c5.545,8.18,12.043,15.677,17.947,23.66
		c7.486,10.121,15.727,19.853,27.508,25.003c0.331,0.145,0.656,0.21,0.971,0.224c-0.581,1.195-1.074,2.415-1.487,3.593
		c-1.175,3.353-1.926,8.59,0.529,11.609c1.963,2.414,4.041,1.38,5.378-0.994c0.568-1.008-0.13-1.948-0.986-2.187
		c-0.133,0.238-0.319,0.447-0.588,0.612c-0.135,0.083-0.267,0.117-0.394,0.129c-0.127,0.072-0.272,0.124-0.454,0.124
		c-0.402,0-0.658-0.215-0.792-0.492c-0.574-0.388-0.814-0.991-0.708-1.818c-0.005-1.541,0.157-3.067,0.486-4.578
		c0.577-3.171,2.21-6.068,4.239-8.522c4.193-5.07,10.899-3.955,16.556-2.698c4.332,0.962,9.158,2.977,11.446,6.987
		c0.53,0.967,0.86,1.998,0.99,3.092c0.373,3.004-4.886-3.432-4.295-2.626c-0.84-1.147-1.617-2.319-2.611-3.34
		c-1.084-1.113-2.658,0.032-2.544,1.245c0.084,0.24,0.18,0.474,0.284,0.703c0.044,0.058,0.084,0.117,0.138,0.173
		c0.013,0.013,0.025,0.028,0.038,0.041c-0.013,0.036-0.016,0.075-0.025,0.113c0.648,1.296,1.573,2.457,2.45,3.65
		c0.57,0.639,1.142,1.276,1.691,1.935c0.744,0.894,1.487,2.027,1.608,3.21c0.169,1.66-1.127,2.45-2.39,1.305
		c-0.027-0.025-0.056-0.04-0.083-0.062c-1.317-3.05-3.88-5.204-5.557-8.01c-0.992-1.658-3.586-0.15-2.59,1.514
		c1.132,1.893,2.761,3.502,4.027,5.309c0.7,0.998,1.36,2.058,1.687,3.239c0.341,1.235-1.355,1.163-2.169,1.195
		c-1.928,0.076-1.935,3.076,0,3c2.412-0.095,4.355-1.04,4.958-2.763c2.296,0.536,4.525-0.833,5.043-3.769
		c0.134-0.758,0.097-1.479-0.059-2.171c1.66-0.09,3.191-1.109,3.336-3.032C331.214,374.146,320.26,370.169,313.132,368.862z
		 M189.192,270.678c-0.004,0.003-0.009,0.005-0.013,0.008c-0.288,0.184-0.607,0.332-0.955,0.447
		c-0.022,0.007-0.044,0.014-0.066,0.021c-0.164,0.051-0.321,0.109-0.498,0.143c0,0,0,0,0,0c-0.311,0.061-0.639,0.098-0.993,0.098
		c-0.075,0-0.145-0.008-0.217-0.011c-0.041,0.001-0.075,0.011-0.116,0.011c-2.809,0-4.307-2.008-4.529-4.172
		c-0.011-0.056-0.01-0.115-0.014-0.174c-0.175-2.485,1.328-5.112,4.543-5.112c0.04,0,0.074,0.01,0.113,0.011
		c0.074-0.003,0.144-0.011,0.22-0.011c0.57,0,1.069,0.105,1.533,0.255l0,0l0,0c0.041-0.038,0.082-0.078,0.125-0.112
		c0.033-0.048,0.065-0.095,0.104-0.138c-0.624-6.1-3.79-12.027-2.528-18.186c0.704-3.436,3.377-6.484,6.659-7.558
		c1.877-0.614,7.757-1.75,8.678,0.998c0.543,1.618,2.733,2.02,3.656,0.478c2.613-4.368,4.402-7.309,9.701-8.591
		c5.77-1.397,11.383,0.712,13.286,6.501c2.465,7.501-0.559,16.376-1.548,23.914c-0.029,0.222,0.001,0.422,0.054,0.611
		c0.395-0.102,0.813-0.173,1.28-0.173c6.099,0,6.099,9.457,0,9.457c-0.314,0-0.602-0.04-0.884-0.088
		c-0.656,1.33-0.667,3.297-0.826,4.343c-1.191,7.83-4.388,16.699-10.892,21.658c-7.355,5.607-15.112,0.22-18.521-6.708
		c-2.81-5.711-3.82-12.154-6.483-17.943c-0.08-0.174-0.177-0.315-0.281-0.441C189.6,270.386,189.405,270.54,189.192,270.678z
		 M171.046,401.332c1.847-0.292,3.615-0.969,5.178-2.009c1.604,8.484,3.331,16.947,5.172,25.388c0.149,0.684,0.305,1.366,0.456,2.05
		C173.091,421.518,171.669,411.076,171.046,401.332z M200.067,503.385c-1.622-3.311-3.445-5.873-7.582-5.198
		c-3.474,0.567-6.939,2.558-10.167,3.874c-4.743,1.935-9.732,3.879-14.864,4.412c-11.922,1.239-12.606-14.556-3.453-19.155
		c3.942-1.981,9.011-2.503,14.065-2.014c6.409-0.556,14.093,0.962,18.755,4.259c0.02-0.022,0.043-0.041,0.062-0.064
		c1.113,0.381,2.242,0.722,3.38,1.01c-0.003,0.082-0.019,0.156-0.016,0.242c0.097,2.852,0.529,5.683,0.655,8.536
		C200.979,500.946,200.861,502.028,200.067,503.385z M227.068,486.947c3.366-0.69,6.829-0.986,10.068-1.083
		c5.491-0.165,15.462,0.481,16.116,7.691c1.135,12.497-15.416,11.573-23.061,8.105c-2.119-0.961-4.197-1.974-6.399-2.736
		c-1.96-0.678-4.286-2.124-6.326-2.312c-4.198-0.387-4.365,2.25-5.39,4.912c-2.025,0.705-3.516,1.523-4.683-1.321
		c-0.144-0.352-0.342-0.641-0.561-0.895c-0.036-2.706-0.42-5.481-0.552-7.902c2.532,0.072,5.035-0.302,7.426-1.317
		c0.063,0.069,0.134,0.13,0.203,0.193C217.73,487.627,222.391,487.032,227.068,486.947z M226.611,421.262
		c-5.079,21.19-10.517,42.612-13.54,64.206c-0.024,0.171-0.025,0.333-0.013,0.49c-1.75,0.906-3.569,1.339-5.417,1.438
		c0.063-0.196,0.108-0.406,0.108-0.647c0.034-28.002,1.434-56.029-0.5-84c-0.177-2.559-4.178-2.576-4,0
		c1.934,27.971,0.534,55.998,0.5,84c0,0.152,0.016,0.293,0.042,0.427c-0.949-0.148-1.898-0.358-2.841-0.608
		c0.133-0.58,0.082-1.201-0.197-1.762c-0.502-3.796-1.847-7.651-2.749-11.34c-1.363-5.573-2.72-11.148-4.065-16.725
		c-2.676-11.096-5.271-22.212-7.722-33.36c-4.449-20.237-8.28-40.615-11.039-61.151c4.885,9.35,12.735,16.582,25.481,19.453
		c14.08,3.171,26.91-3.26,35-14.686c0.306-0.432,0.579-0.883,0.866-1.326C235.483,384.484,230.992,402.987,226.611,421.262z
		 M299.988,369.973c-1.657,0.869-3.041,2.151-4.203,3.642c-0.207-0.238-0.489-0.446-0.857-0.607
		c-11.549-5.049-19.339-14.589-26.661-24.489c-7.963-10.766-17.002-20.583-23.109-32.614c-1.46-2.876-5.773-0.344-4.317,2.524
		c0.002,0.004,0.004,0.007,0.006,0.011c0.019,0.129,0.035,0.256,0.076,0.392c2.389,8.022,0.422,16.257-1.35,24.202
		c-1.525,6.841-3.32,13.275-6.896,19.369c-7.135,12.16-19.868,17.359-33.431,13.79c-17.911-4.712-23.905-20.774-26.047-37.674
		c0.017-0.506,0.046-1.013,0.069-1.519c-0.219-1.58-0.099-3.092,0.194-4.589c-0.038-0.175-0.099-0.333-0.18-0.475
		c0.736-4.597,2.099-9.041,4.195-12.926c1.225-2.27-2.229-4.289-3.454-2.019c-5.039,9.339-6.24,21.308-4.792,31.851
		c0.049,1.353,0.133,2.706,0.21,4.058c-0.033,0.053-0.058,0.112-0.086,0.17c0.426,2.18,0.519,4.471,0.519,6.793
		c0.054,0.412,0.104,0.824,0.158,1.235c0.24,2.727,0.514,5.452,0.794,8.177c0.221,1.039,0.402,2.086,0.502,3.153
		c0.095-0.026,0.189-0.053,0.284-0.08c0.869,5.775,1.825,11.535,2.839,17.286c-0.234,0.268-0.422,0.606-0.529,1.036
		c-0.71,2.854-2.225,4.151-4.983,4.165c-11.984-23.604-18.196-54.241-10.465-79.98c2.877-9.578,13.62-37.177,26.18-31.76
		c2.947,0.379,6.04,2.118,7.121,4.785c0.055-0.011,0.111-0.02,0.166-0.035c1.333,3.414,3.025,6.642,5.689,9.378
		c6.925,7.112,17.382,4.611,23.407-2.06c3.271-3.621,5.35-8.255,6.918-12.822c0.087-0.253,0.154-0.512,0.234-0.767
		c0.242-0.047,0.488-0.118,0.739-0.247c8.669-4.489,16.986,3.958,22.31,9.974c6.528,7.376,11.694,16.139,16.936,24.442
		c11.248,17.816,22.963,35.149,32.99,53.703C300.771,369.607,300.377,369.769,299.988,369.973z"/>
</g>
<g id="Слой_13">
	<path fill="#F9E2E4" d="M364.527,253.44c4.691,15.354,9.854,33.576,24.164,43.59c-13.57-2.051-39.132-25.772-26.182-38.539
		c0.564-0.556,1.355-2.236,1.766-2.519"/>
</g>
<g id="Слой_14">
	<path fill="#FECCCC" d="M374,236.75c15.195,10.672,30.803,39.463,29.206,58.456c-23.555,14.722-42.765-31.216-38.456-48.518
		c1.336-5.366,0.267-14.602,9.5-9.938"/>
</g>
<g id="Слой_7">
	<path fill="#FD9E58" d="M351.75,246.75c4.555-0.274,9.174-1.328,13.025-3.718c0.177,9.239,1.164,17.979-10.076,19.218
		c-7.317,0.806-12.746-3.469-12.231-11.169c4.863,2.602,9.685,0.623,10.032-5.081"/>
</g>
<g id="Слой_8">
	<path fill="#EE834A" d="M385.5,242.25c-0.534-31.483-46.339-14.943-33.22,3.773c0.164,0.234,0.946,0.236,0.765-0.023
		c9.48,10.944,9.94-3.824,14.525-7.186c6.407-4.699,12.692-1.488,18.431,3.436"/>
</g>
<g id="Слой_10">
	<path fill="#E1B4B4" d="M367.5,238.5c12.565,18.209,24.861,36.262,35.004,58.548c14.489-13.121,4.736-28.7,4.921-43.473
		c-13.087-0.904-34.882-26.95-40.924-14.576"/>
</g>
<g id="Слой_9">
	<path fill="#C06B3E" d="M368.75,223.25c7.092,5.445,12.334,11.435,16.756,18.494c3.822,6.102,3.836,11.946,13.506,10.468
		c1.115-12.288,8.595-13.712-5.776-18.968c-4.337-1.586-7.222-1.946-10.82-3.59c-4.574-2.089-7.266-5.07-12.415-5.904"/>
</g>
<g id="Слой_3">
	<path fill="#0D3037" d="M374.446,272.101c-0.409-1.681-1.297-3.149-2.318-4.525c-0.261-0.352-0.615-0.605-1.004-0.699
		c-0.458-0.333-1.039-0.476-1.656-0.306c-0.999,0.275-1.754,1.43-1.397,2.46c0.526,1.52,1.246,2.934,2.202,4.228
		c0.266,0.36,0.606,0.639,0.982,0.81c0.311,0.262,0.722,0.431,1.245,0.431c1.002,0,1.61-0.606,1.833-1.344
		C374.487,272.862,374.544,272.504,374.446,272.101z"/>
	<path fill="#0D3037" d="M386.166,264.058c-0.049-0.108-0.11-0.215-0.189-0.318c-1.04-1.358-2.237-2.577-3.313-3.905
		c-0.687-0.848-2.118-0.71-2.828,0c-0.046,0.046-0.078,0.096-0.118,0.144c-0.044,0.036-0.093,0.067-0.132,0.106
		c-0.04,0.04-0.067,0.084-0.102,0.125c-0.751,0.618-0.916,1.676-0.46,2.549c1.009,1.93,2.732,3.572,4.717,4.467
		c0.994,0.448,2.143,0.296,2.736-0.717C386.904,265.781,386.801,264.662,386.166,264.058z"/>
	<path fill="#0D3037" d="M386.076,276.871c-1.051,0.6-2.103,1.047-3.244,1.021c-0.123-2.918-1.101-5.519-3.105-7.786
		c-0.627-0.71-1.45-0.561-1.982-0.058c2.427,2.72,2.641,6.315,2.259,9.779c0.193,0.37,0.528,0.667,0.93,0.786
		c2.349,0.697,4.587,0.029,6.656-1.151C389.27,278.504,387.759,275.912,386.076,276.871z"/>
	<path fill="#0D3037" d="M390.556,284.326c2.234-2.663,5.983-3.232,9.389-3.343c0.094-0.667-0.204-1.375-1.046-1.596
		c-3.315-0.871-7.534-0.191-8.845,3.381C389.793,283.477,390.077,284.024,390.556,284.326z"/>
	<path fill="#0D3037" d="M399.762,292.364c0.444-0.247,0.741-0.789,0.434-1.368c-1.097-2.07-3.109-3.302-5.463-2.96
		c-0.497,0.072-0.71,0.411-0.719,0.785C396.374,288.963,398.344,290.539,399.762,292.364z"/>
	<path fill="#0D3037" d="M384.5,255.732c-3.627-0.074-6.874-1.182-10.231-2.408c0.029,0.285,0.128,0.577,0.276,0.869
		c2.509,1.909,5.398,3.215,8.622,3.14c0.999-0.023,1.477-0.836,1.444-1.61C384.573,255.724,384.539,255.733,384.5,255.732z"/>
	<path fill="#0D3037" d="M365.933,261.246c-0.196-0.091-0.437-0.099-0.692-0.068c-0.04,2.227-0.739,4.557-2.594,5.921
		c0.685,0.75,2.224,0.752,2.633-0.534C365.834,264.825,366.086,263.034,365.933,261.246z"/>
	<path fill="#FCFCFC" d="M467.211,482.82c-4.838-3.724-11.323-5.27-17.284-5.76c-2.909-0.239-5.818,0.182-8.637,0.862
		c-2.506,0.605-4.96,1.846-7.48,2.501c6.251-16.75,8.001-34.651,10.785-52.225c0.034-0.217,0.028-0.42,0.004-0.614
		c0.048-0.331,0.105-0.658,0.15-0.99c2.782-20.564,5.067-41.05,6.256-61.77c0.972-16.946,1.54-34.014-0.597-50.897
		c-1.552-12.255-4.779-25.001-12.028-35.135c-0.182-0.163-0.345-0.348-0.464-0.574c-0.22-0.419-0.519-0.794-0.72-1.223
		c-0.042-0.089-0.074-0.173-0.112-0.259c-0.067-0.031-0.125-0.076-0.195-0.101c-0.048-0.031-0.097-0.058-0.147-0.085
		c-0.195-0.265-0.379-0.533-0.584-0.795c-5.589-7.153-15.65-13.487-24.822-9.667c-0.064,0.027-0.115,0.064-0.175,0.094
		c-0.66-1.857-1.582-3.578-2.867-5.038c2.363-0.826,4.15-2.415,3.239-5.406c-1.098-3.6-5.561-3.954-9.087-3.939
		c-0.02-0.047-0.028-0.097-0.051-0.142c-2.002-3.895,3.422-9.101,2.655-13.556c-0.569-3.302-2.308-5.314-5.457-6.403
		c-3.64-1.259-7.863,0.124-11.598-0.013c-2.413-0.088-4.292-3.075-5.687-4.685c-1.608-1.855-3.699-3.276-5.859-4.394
		c-7.66-3.963-18.138-0.476-23.36,5.884c-2.372,2.889-3.361,6.451-3.657,10.11c-0.182,2.246,0.311,4.577,0.69,6.782
		c0.243,1.412,1.245,6.992-3.48,4.837c-1.086-0.495-2.358-2.391-0.903-3.162c0.082,0.049,0.166,0.103,0.254,0.169
		c2.06,1.556,4.05-1.92,2.019-3.454c-7.386-5.579-10.456,8.59-7.716,13.382c3.605,6.304,10.328,8.538,16.717,6.797
		c1.745,8.056,5.699,16.413,11.319,23.023c-0.466,0.279-0.858,0.717-1.074,1.36c-4.503,13.388-15.211,23.263-23.562,34.255
		c-9.581,12.613-18.463,25.883-26.823,39.334c-0.335,0.418-0.554,0.932-0.603,1.472c-1.597,0.04-3.112,0.292-4.584,0.681
		c-0.062,0.025-0.11,0.061-0.185,0.074c-0.312,0.056-0.606,0.151-0.903,0.239c-0.237,0.074-0.472,0.152-0.707,0.232
		c-2.275,0.879-4.159,2.565-6.166,3.995c0.09-0.014,0.178-0.032,0.277-0.034c1.481-0.035,3.058-0.451,4.541-0.274
		c2.615-1.1,5.235-1.943,8.209-1.936c0.382,0.001,0.685-0.118,0.916-0.305c1.959,2.065,4.224,3.84,6.745,5.163
		c-0.195,0.194-0.4,0.381-0.619,0.56c-0.22,0.179-0.301,0.458-0.281,0.734c0.5,0.24,0.961,0.513,1.397,0.839
		c0.103-0.044,0.207-0.084,0.298-0.159c0.647-0.526,1.222-1.14,1.647-1.858c0.556-0.137,1.082-0.472,1.471-1.087
		c5.637-8.901,16.022-14.087,24.162-20.403c6.024-4.674,11.765-9.682,17.048-15.136c0.896,12.152,4.647,24.272,11.907,34.076
		c5.393,19.536,7.962,39.682,11.324,59.63c1.696,10.061,3.656,20.076,6.246,29.947c1.261,4.806,2.757,9.545,4.421,14.225
		c0.46,1.294,0.915,2.784,1.443,4.279c-5.819-0.505-11.502-1.167-17.386-0.089c-5.043,0.925-9.935,3.478-13.96,6.571
		c-6.935,5.33-11.634,16.247-3.484,22.765c6.223,4.977,17.256,4.567,24.182,1.356c3.135-1.453,5.702-3.897,8.347-6.076
		c1.745-1.438,3.537-2.792,5.516-3.895c2.681-1.493,2.624,0.827,2.742,3.154c0.066,1.311,1.087,2.566,2.5,2.5
		c5.075-0.236,10.242,0.937,15.167-0.831c1.528-0.549,2.098-2.247,2.727-3.614c0.651-1.415-0.591-5.913,2.582-3.371
		c3.861,3.093,4.895,7.281,9.951,9.159c5.77,2.143,12.248,2.659,18.257,1.291c4.519-1.029,10.123-4.422,11.532-9.133
		C475.321,490.743,471.695,486.272,467.211,482.82z M446.88,317.962c1.409,13.055,1.164,26.242,0.524,39.363
		c-0.031-2.264-0.087-4.524-0.14-6.773c-0.313-13.183-0.336-26.281-1.274-39.415C446.341,313.423,446.637,315.706,446.88,317.962z
		 M349.265,260.091c-2.82-0.771-4.791-3.223-5.871-5.805c-0.07-0.167-0.132-0.788-0.146-1.602c1.374,1.417,3.352,2.259,5.604,1.789
		c4.409-0.92,5.831-4.246,5.382-8.442c-0.671-6.263-1.565-11.433,3.195-16.421c4.89-5.123,13.531-5.883,19.333-2.211
		c3.773,2.388,5.571,7.529,10.409,8.175c4.544,0.607,15.009-3.058,13.907,5.071c-0.534,3.943-3.171,6.425-3.036,9.832
		c-3.85-0.363-6.915-1.254-9.191-5.223c-1.684-2.936-2.715-5.803-5.433-7.976c-4.168-3.332-11.664-4.603-16.091-1.078
		c-7.316,5.825-0.421,14.826-6.253,21.094C358.118,260.474,353.264,261.184,349.265,260.091z M359.846,262.899
		c0.64-0.302,1.274-0.631,1.892-1.018c0.066-0.041,0.129-0.096,0.195-0.139c0.041-0.067,0.098-0.129,0.19-0.174
		c0.096-0.047,0.186-0.105,0.277-0.16c0.172-0.125,0.348-0.234,0.517-0.369c0,0.003,0,0.006,0.001,0.009
		c0.862-0.703,1.525-1.71,2.229-2.526c0.096-0.111,0.206-0.154,0.315-0.158c1.331-1.802,2.258-3.915,2.336-5.992
		c0.125-3.328-0.929-6.619-0.296-9.928c0.922-4.815,6.872-4.642,10.31-3.635c5.894,1.726,6.626,8.252,10.328,12.294
		c2.715,2.964,7.313,3.279,11.189,3.49c0.221,0.151,0.498,0.245,0.838,0.241c1.173-0.012,2.343-0.019,3.516,0
		c2.458-0.457,3.536,0.765,3.234,3.669c-0.706,0.184-1.422,0.312-2.149,0.385c-1.414,0.197-1.292,2.102-0.358,2.742
		c6.075,4.163,5.621,14.25,4.637,20.649c-1.265,8.23-5.961,14.018-14.7,14.341C375.658,297.31,363.294,279.261,359.846,262.899z
		 M387.289,368.196c-0.447-0.497-0.871-1.013-1.293-1.533c-0.174-0.376-0.411-0.673-0.696-0.886
		c-6.126-7.996-9.377-18.318-10.509-28.392c-1.003-4.47-1.588-9.021-2.09-13.672c-7.397,9.139-16.319,17.025-25.682,24.088
		c-7.485,5.646-16.134,10.464-21.766,18.125c-1.198-0.775-2.311-1.65-3.339-2.64c8.288-13.293,17.03-26.53,26.653-38.883
		c8.428-10.818,18.454-20.692,23.174-33.828c7.36,6.909,16.903,10.832,27.766,8.384c8.172-1.842,11.729-9.888,12.662-17.436
		c0.399-3.226,0.582-6.937,0.12-10.5c0.123-0.032,0.245-0.06,0.375-0.114c9.007-3.752,18.015,4.65,22.326,11.879
		c5.75,9.641,5.711,22.772,6.49,33.651c0.853,11.91,0.541,23.89,0.824,35.82c0.28,11.786,0.487,23.755-3.882,34.907
		c-0.03,0.076-0.039,0.145-0.061,0.219c-1.091-0.128-2.111-0.733-2.733-1.644c-0.148-0.217-0.33-0.359-0.521-0.469
		c-0.103-0.299-0.264-0.595-0.506-0.875c-3.915-4.521-3.376-12.21-4.317-17.843c-1.321-7.909-2.789-15.792-4.202-23.685
		c-2.049-11.445-5.077-23.289-13.481-31.805c-2.267-2.298-5.801,1.239-3.536,3.536c9.402,9.528,11.085,23.601,13.382,36.177
		c1.381,7.562,3.028,15.181,3.85,22.827c0.067,0.62,0.135,1.235,0.209,1.847c-0.034,0.021-0.068,0.032-0.102,0.056
		C413.981,384.044,396.605,378.555,387.289,368.196z M432.554,402.435c-2.108,5.233,0.278,9.3,0.952,14.579
		c0.17,1.366-0.157,2.601-0.981,3.705c-1.731,2.136-3.775-3.039-3.985-3.666c-0.559-1.664-0.609-3.485-0.669-5.221
		c-0.232-6.771,1.062-18.144,6.811-22.856c1.224,0.922,2.694,1.382,4.284,1.375c0.701,9.323,0.569,17.921-2.538,26.498
		c-0.443-4.661-2.897-8.86-0.981-13.616C436.17,401.436,433.267,400.664,432.554,402.435z M433.195,423.802
		c-2.015,3.381-4.574,6.151-8.095,8.132c-1.769,1.327-2.77,0.532-3.002-2.383c0.643-1.232,1.901-2.287,2.898-3.234
		c1.221-1.158,2.558-2.188,3.793-3.331C430.036,424.04,431.547,424.515,433.195,423.802z M402.997,453.802
		c-2.379-9.359-4.09-18.882-5.694-28.398c-2.762-16.386-5-32.891-8.789-49.073c10.628,8.461,27.097,11.432,38.935,4.433
		c0.672,2.575,1.736,4.999,3.617,7.172c0.079,0.091,0.164,0.158,0.246,0.233c-6.276,7.016-7.535,20.371-5.891,28.773
		c-0.311-0.076-0.656-0.061-1.011,0.097c-1.353,0.602-2.776,1.02-4.185,1.438c-0.258-5.995-0.628-11.956-1.564-17.89
		c-0.501-3.178-5.319-1.824-4.821,1.329c0.893,5.66,1.17,11.367,1.411,17.085c0.02,0.464,0.149,0.854,0.342,1.184
		c-1.173,0.611-2.255,1.401-3.174,2.524c-0.871,1.064-1.408,2.218-1.169,3.605c0.222,1.286,1.499,1.815,2.712,2.04
		c-0.185,1.496,0.238,3.18,1.512,3.983c0.354,0.223,0.71,0.369,1.066,0.46c-0.022,0.145-0.041,0.292-0.038,0.453
		c0.231,16.094,0.248,32.19,0.249,48.285c-1.781-0.469-3.535-1.218-5.237-2.194c-0.024-0.014-0.047-0.019-0.071-0.032
		c-2.142-2.793-3.194-8.011-4.268-11.138C405.552,463.452,404.225,458.635,402.997,453.802z M418.057,422.229
		c-1.139,0.943-2.154,2.002-2.945,3.261c-0.173-0.034-0.701-0.159-0.9-0.097c0.102-0.173,0.286-0.483,0.351-0.583
		c0.495-0.76,1.302-1.405,2.047-1.905C417.038,422.618,417.539,422.411,418.057,422.229z M417.193,498.277
		c-0.555-0.039-1.111-0.076-1.667-0.1c-1.005-4.992-4.312-7.728-9.958-4.981c-6.466,3.146-10.262,9.406-17.569,11.01
		c-4.269,0.937-9.3,0.814-13.31-1.028c-5.832-2.678-4.259-9.311-0.855-13.328c8.663-10.224,21.652-8.549,33.499-7.767
		c0.354,0.52,0.727,1.013,1.149,1.435c0.493,0.493,1.043,0.702,1.581,0.723c2.476,1.287,5.041,2.16,7.637,2.554
		c-0.277,3.731-0.512,7.461-0.533,11.205C417.166,498.099,417.184,498.185,417.193,498.277z M417.183,427.858
		c0.406-1.339,1.639-2.37,2.66-3.24c2.051-1.745,4.516-2.982,6.786-4.412c0.086,0.159,0.166,0.321,0.26,0.477
		c-0.039,0.031-0.079,0.054-0.117,0.089c-2.678,2.507-6.364,4.914-7.669,8.296C417.584,430.297,416.54,429.979,417.183,427.858z
		 M421.749,482.058c-0.001-15.457-0.02-30.915-0.222-46.371c2.311,0.232,5.402-1.293,6.893-2.246
		c5.543-3.539,9.129-10.206,11.343-16.202c3.245-8.788,2.912-18.132,2.171-27.328c0.555-0.26,1.035-0.715,1.309-1.413
		c1.312-3.35,2.219-6.781,2.852-10.259c-1.356,17.207-3.463,34.285-5.763,51.428c-0.152,1.136-0.339,2.27-0.547,3.404
		c0.015,0.004,0.029,0.008,0.044,0.012c-2.323,15.627-4.326,31.38-9.859,46.23c-0.043-0.014-0.086-0.027-0.128-0.041
		c0,0.12,0.003,0.241,0.003,0.361c-0.066,0.175-0.138,0.349-0.205,0.524c-0.573-0.186-1.225-0.176-1.903,0.185
		C425.76,481.393,423.753,481.933,421.749,482.058z M465.059,499.125c-5,3.351-11.917,2.773-17.454,1.409
		c-4.84-1.192-6.569-4.51-9.554-8.01c-2.358-2.764-6.14-3.695-9.366-1.805c-2.831,1.658-1.922,4.42-2.632,6.937
		c-1.378,0.35-2.519,0.643-3.93,0.748c0.02-0.131,0.042-0.26,0.042-0.404c0.021-3.694,0.251-7.376,0.522-11.057
		c1.849-0.177,3.694-0.614,5.514-1.345c4.557,0.829,8.681-0.937,13.011-2.425c5.906-2.031,12.111-1.128,17.87,0.93
		C465.806,486.504,473.313,493.592,465.059,499.125z"/>
	<path fill="#FCFCFC" d="M317.607,390.711c-0.658-2.371-3.195-3.347-5.43-3.067c-0.151,0.174-0.376,0.291-0.677,0.291
		c-0.009,0-0.014-0.004-0.023-0.005c-0.081,0.094-0.141,0.202-0.172,0.322c-0.62,0.354-1.091,0.804-1.404,1.324
		c-0.45-2.1-2.46-3.083-4.608-2.767c-0.814,0.12-1.544,0.448-2.189,0.896c-0.207-0.945-0.799-1.805-1.695-2.34
		c-1.796-1.073-3.933-0.186-4.773,1.63c-0.075,0.162-0.098,0.319-0.094,0.47c-0.071,0.09-0.12,0.186-0.18,0.279
		c-0.301,1.701,0.302,3.169,1.586,4.24c0.87,0.315,1.764,0.303,2.573,0.007c0.008,0.034,0.009,0.075,0.018,0.108
		c-0.01,0.092-0.034,0.183-0.039,0.276c-0.003,0.053,0.009,0.096,0.013,0.145c0.133,0.085,0.23,0.214,0.304,0.364
		c0.148,0.155,0.271,0.342,0.372,0.552c1.93,2.674,6.75,2.153,8.312-0.854c0.474,2.001,2.273,3.746,4.729,3.349
		C316.615,395.546,318.238,392.986,317.607,390.711z M301.077,388.968c-0.443,1.002-1.376,1.456-2.42,1.163
		c-0.767-0.215-1.132-0.797-0.575-1.424c0.185-0.208,0.247-0.436,0.249-0.658c0.009-0.018,0.024-0.025,0.033-0.044
		c0.361-0.78,1.008-1.391,1.905-0.982C301.024,387.368,301.425,388.181,301.077,388.968z M302.564,391.896
		c0.25-1.367,1.204-2.465,2.532-2.967c1.201-0.454,2.52-0.25,2.869,1.117C308.768,393.185,303.611,394.418,302.564,391.896z
		 M313.525,394.02c-1.002,0.08-1.794-0.796-2.1-1.664c-0.433-1.226,0.217-2.136,1.33-2.618c0.115-0.05,0.193-0.119,0.268-0.188
		c1.132-0.003,2.251,0.573,2.656,1.693C316.163,392.58,314.807,393.918,313.525,394.02z"/>
	<path fill="#FCFCFC" d="M290.32,380.185c-0.026-1.021,0.634-1.98,1.387-2.603c0.237-0.196,0.329-0.425,0.33-0.65
		c-0.59-0.073-1.158-0.256-1.676-0.625c-0.042-0.03-0.07-0.07-0.107-0.104c-1.362,1.15-2.193,3.036-1.837,4.813
		c0.333,1.662,1.785,1.955,3.162,1.716c0.058-0.48,0.226-0.935,0.46-1.361c0.049-0.27,0.099-0.54,0.173-0.807
		c-0.112,0.009-0.225,0.022-0.342,0.072C291.115,380.96,290.344,381.139,290.32,380.185z"/>
	<path fill="#0D3037" d="M396.25,315.5c-5.159,0-5.159,8,0,8S401.409,315.5,396.25,315.5z"/>
	<path fill="#0D3037" d="M401.75,331.5c-4.514,0-4.514,7,0,7S406.264,331.5,401.75,331.5z"/>
</g>
</svg>
