<?xml version="1.0" encoding="utf-8"?>
<!-- Generator: Adobe Illustrator 17.0.0, SVG Export Plug-In . SVG Version: 6.00 Build 0)  -->
<!DOCTYPE svg PUBLIC "-//W3C//DTD SVG 1.1//EN" "http://www.w3.org/Graphics/SVG/1.1/DTD/svg11.dtd">
<svg version="1.1" xmlns="http://www.w3.org/2000/svg" xmlns:xlink="http://www.w3.org/1999/xlink" x="0px" y="0px" width="612px"
	 height="792px" viewBox="0 0 612 792" enable-background="new 0 0 612 792" xml:space="preserve">
<g id="Слой_2">
	<rect width="612" height="792"/>
</g>
<g id="Слой_28">
</g>
<g id="Слой_29">
</g>
<g id="Слой_30">
</g>
<g id="Слой_31">
	<path fill="#848B97" d="M117.25,404.75c-1.166,1.257-2.094,3.219-2.603,5.27c2.11,0.271,2.061,0.029,3.835-0.164
		c0.748-2.871-1.029-2.697-1.732-4.356"/>
	<path fill="#848B97" d="M183.25,350.75c-3.925,0.177-7.651,1.644-10.529,4.232c1.613,2.783,3.219,5.668,4.772,8.192
		c1.9-3.838,3.716-7.863,5.257-11.424"/>
	<path fill="#848B97" d="M117,426c-1.492,1.576-3.198,1.089-2.706,4.206c2.929-0.132,2.917-0.237,5.179-2.408
		c-1.02-0.518-2.39-0.864-3.223-1.548"/>
</g>
<g id="Слой_32">
	<path fill="#848B97" d="M126.167,420.239c-2.047-5.498-9.036-8.095-11.487-13.2c-1.897,2.611-4.582,5.123-7.68,3.841
		c-6.886,1.451-1.441,10.238,1.001,13.858c5.189,7.691,9.37,5.459,13.971-0.876c1.995-2.747,4.275-3.619,3.362-6.623"/>
</g>
<g id="Слой_33">
	<path fill="#848B97" d="M138.243,373.825c4.795,3.813,19.077,4.891,18.833,11.662c-0.192,5.32-5.573,3.867-8.829,5.792
		c-5.739,3.392-10.691,12.751-13.642,18.675c-2.998,6.019-4.059,11.937-7.979,17.565c-7.735-5.638-14.971-10.686-9.02-21.694
		c3.409-6.306,8.303-10.825,12-16.666c3.213-5.076,4.944-10.835,8.638-14.834"/>
</g>
<g id="Слой_34">
	<path fill="#848B97" d="M160.667,337.536c-2.416,10.151-15.864,16.572-17.141,28.641c3.033,0.044,32.639-12.025,31.652-16.137
		c-0.645-2.686-9.267-2.671-11.141-5.383c-2.008-2.906,2.779-6.065-2.379-7.975c-0.378,0.516-0.684,0.999-1.158,1.354"/>
</g>
<g id="Слой_35">
	<path fill="#848B97" d="M177.439,371.764c-1.594-5.968,0.163-12.636,1.388-18.3c-2.145-0.686-3.519-0.714-4.844-2.916
		c-13.145,6.57-27.534,6.896-34.536,18.678c-5.127,8.628-1.86,10.148,6.443,15.483c7.796,5.009,13.214,5.542,16.675-1.797
		c0.042-0.41,0.092-0.819,0.125-1.232c0.048-0.599-0.05-1.25,0.104-1.835c0.318-1.21,1.217-1.844,1.936-2.79
		c0.092-0.121,0.194-0.23,0.3-0.332c0.121-0.185,0.262-0.37,0.445-0.553c0.336-0.336,0.795-0.535,1.318-0.647
		c0.054-0.148,0.129-0.285,0.217-0.415c0.016-0.024,0.032-0.048,0.05-0.072c0.096-0.127,0.204-0.245,0.335-0.343
		c0.004-0.003,0.008-0.004,0.012-0.007c0.123-0.09,0.267-0.159,0.421-0.215c0.04-0.015,0.08-0.028,0.123-0.04
		c0.169-0.048,0.349-0.082,0.552-0.082c0.171,0,0.327,0.022,0.474,0.057c0.04,0.01,0.075,0.025,0.114,0.037
		c0.106,0.032,0.206,0.07,0.299,0.119c0.024,0.013,0.047,0.027,0.07,0.041c0.015,0,0.029-0.004,0.044-0.004
		c1.361,0.04,2.397,0.612,3.343,1.556c0.014,0.014,0.024,0.031,0.037,0.046c0.696,0.146,1.405,0.21,2.12,0.148
		c1.381-0.12,1.972,1.043,1.789,2.114c0.128,0.088,0.257,0.173,0.382,0.269c0.071,0.045,0.137,0.095,0.198,0.149
		c0.016,0.013,0.034,0.024,0.05,0.037c0.038,0.032,0.061,0.066,0.095,0.099c0.009,0.01,0.02,0.019,0.029,0.03
		c0.397,0.393,0.543,0.84,0.498,1.27c1.465,1.641,2.822,3.427,4.546,4.71c0.114,0.085,0.191,0.187,0.279,0.283
		C184.756,381.154,178.649,376.295,177.439,371.764z"/>
</g>
<g id="Слой_21">
	<path fill="#FCFCFC" d="M166.5,368c-1.935,0-1.935,3,0,3S168.435,368,166.5,368z"/>
	<path fill="#FCFCFC" d="M207.5,368.75c-0.013-0.211-0.089-0.374-0.188-0.516c-0.036-0.063-0.086-0.115-0.137-0.169
		c-0.015-0.014-0.027-0.032-0.043-0.044c-0.116-0.107-0.252-0.195-0.432-0.231c-0.062-0.053-0.111-0.112-0.195-0.154
		c-10.979-5.518-24.87-10.203-36.259-3.25c-0.3,0.183-0.432,0.445-0.46,0.715c-0.665,0.966-0.448,2.182,0.314,3.124
		c0.07,0.311,0.261,0.599,0.634,0.739c4.607,1.719,9.042,3.734,13.204,6.364c3.329,4.684,6.201,9.803,11.307,12.785
		c0.704,0.411,1.362-0.126,1.474-0.741C202.842,383.126,207.961,376.523,207.5,368.75z M203.664,368.483
		c-1.271-0.013-2.542-0.03-3.812-0.049c-0.045-0.562-0.075-1.127-0.087-1.696C201.099,367.291,202.393,367.881,203.664,368.483z
		 M197.809,365.951c-0.028,0.094-0.059,0.185-0.059,0.299c0.005,0.721,0.039,1.439,0.091,2.156c-0.747-0.011-1.494-0.019-2.24-0.026
		c-0.197-1.123-0.373-2.25-0.508-3.385C196.006,365.291,196.912,365.612,197.809,365.951z M193.183,365.713
		c0.117,0.888,0.271,1.769,0.422,2.651c-1.322-0.005-2.643,0.007-3.964,0.029c-0.143-0.876-0.286-1.751-0.426-2.627
		c1.262-0.01,2.523-0.016,3.785-0.016C193.07,365.75,193.12,365.724,193.183,365.713z M190.537,363.755
		c-0.543,0.002-1.087,0.009-1.63,0.014c-0.018-0.119-0.037-0.237-0.055-0.356C189.415,363.511,189.977,363.632,190.537,363.755z
		 M187.63,368.437c-0.476,0.015-0.952,0.039-1.428,0.059c-0.041-0.895-0.103-1.787-0.204-2.676c0.4-0.01,0.801-0.024,1.201-0.031
		C187.339,366.671,187.486,367.554,187.63,368.437z M186.802,363.123c0.031,0.225,0.068,0.448,0.101,0.673
		c-0.392,0.008-0.783,0.02-1.175,0.031c-0.045-0.282-0.085-0.564-0.134-0.845C185.996,363.012,186.399,363.076,186.802,363.123z
		 M195.434,385.836c-4.297-2.873-6.865-7.443-9.82-11.59c-0.08-0.113-0.174-0.197-0.273-0.264c-0.076-0.129-0.183-0.247-0.336-0.344
		c-4.149-2.63-8.582-4.644-13.163-6.38c-0.041-0.072-0.07-0.145-0.135-0.213c-0.444-0.465-0.496-0.686,0-1.086
		c0.06-0.048,0.088-0.116,0.129-0.177c3.702-2.106,7.681-2.925,11.722-2.887c0.063,0.333,0.113,0.666,0.168,0.999
		c-0.742,0.031-1.484,0.062-2.226,0.107c-1.281,0.079-1.289,2.08,0,2c0.835-0.052,1.67-0.089,2.505-0.121
		c0.103,0.902,0.164,1.809,0.203,2.719c-0.736,0.045-1.472,0.09-2.208,0.152c-1.275,0.108-1.286,2.109,0,2
		c0.907-0.077,1.815-0.137,2.723-0.188c0.359,0.205,0.834,0.191,1.163-0.054c0.688-0.031,1.376-0.064,2.064-0.083
		c0.206,1.279,0.409,2.558,0.586,3.841c0.176,1.273,2.103,0.729,1.929-0.532c-0.155-1.118-0.33-2.233-0.507-3.347
		c1.335-0.02,2.671-0.028,4.006-0.021c0.381,1.966,0.805,3.925,1.228,5.885H190.5c-1.29,0-1.29,2,0,2h5.112
		c0.141,0.672,0.291,1.342,0.424,2.016c0.25,1.265,2.177,0.728,1.929-0.532c-0.098-0.496-0.212-0.989-0.315-1.484h2.101
		c1.29,0,1.29-2,0-2h-2.526c-0.427-1.954-0.861-3.907-1.25-5.867c0.702,0.008,1.405,0.016,2.107,0.026
		c0.159,0.966,0.372,1.923,0.704,2.857c0.429,1.206,2.362,0.687,1.929-0.532c-0.269-0.756-0.449-1.523-0.592-2.296
		c1.785,0.027,3.571,0.053,5.357,0.062C205.106,376.911,200.642,382.291,195.434,385.836z"/>
	<path fill="#FCFCFC" d="M181.183,375.031c-0.793,0.032-1.198,0.816-0.863,1.505c1.166,2.399,2.544,6.069,1.289,8.609
		c0.852,0.772,0.509,2.058-0.355,2.723c0.048,0.176,0.079,0.357,0.087,0.54c0.097-0.054,0.193-0.107,0.29-0.168
		c3.703-2.34,2.596-7.499,1.115-11.142c6.124,0.831,4.012,8.598,0.312,12.291c0.028,0.02,0.056,0.041,0.084,0.061
		c0.285,0.206,0.572,0.41,0.853,0.621c0.24,0.181,0.475,0.365,0.71,0.551c0.067-0.063,0.141-0.126,0.205-0.189
		C190.096,385.293,190.532,374.649,181.183,375.031z"/>
	<path fill="#FCFCFC" d="M227.241,376.441c-2.056-4.181-6.953-4.845-10.883-3.377c2.194-4.037,3.606-8.565,4.271-13.212
		c0.027-0.192,0.015-0.369-0.016-0.537c-0.045-0.535-0.326-1.046-0.867-1.256c-9.792-12.898-27.757-11.182-41.94-7.461
		c-0.174-0.393-0.392-0.794-0.686-1.208c-2.265-3.188-6.772-5.264-10.809-5.475c0.629-3.513,0.52-7.929-3.104-9.376
		c-4.174-1.666-5.022,4.626-5.062,7.988c-0.699,0.052-1.396,0.124-2.11,0.231c-0.703,0.105-1.033,0.565-1.078,1.088
		c-3.168,4.002-5.704,8.588-8.369,12.919c-4.747,7.716-9.43,15.472-14.205,23.171c-4.627,7.46-9.31,14.902-14.367,22.081
		c-1.744,2.475-3.549,4.921-5.571,7.178c-1.498,1.672-3.384,3.825-3.76,0.51c-0.144-1.266-2.146-1.28-2,0
		c0.006,0.051,0.011,0.093,0.016,0.141c-1.154,1.526-2.623,2.78-4.271,3.745c-0.323,0.189-0.452,0.47-0.467,0.756
		c-0.068,0.178-0.089,0.382,0.007,0.623c0.878,2.22,2.266,4.143,3.923,5.848c-0.379,0.16-0.677,0.514-0.667,1
		c-0.15,0.312-0.06,0.643,0.146,0.903c1.222,5.641,5.788,9.807,11.829,8.697c0.399-0.073,0.602-0.321,0.677-0.61
		c0.089-0.04,0.18-0.075,0.264-0.147c1.621-1.379,2.971-3.033,4.138-4.807c1.084,0.643,2.151,1.311,3.094,2.16
		c0.69,0.621,1.883,0.589,2.356-0.304c2.15-4.057,6.669-9.041,5.147-13.091c0.13-0.107,0.251-0.237,0.353-0.409
		c2.415-4.083,4.659-8.256,7.208-12.26c2.482-3.899,6.861-11.363,12.247-11.247c0.206,0.004,0.385-0.032,0.547-0.089
		c0.047,0.051,0.096,0.098,0.142,0.149c0.521,0.582,1.601,0.589,2.121,0c0.525-0.595,0.888-1.245,1.217-1.929
		c1.078,0.373,2.128,0.651,3.323,0.814c0.576,0.079,1.239-0.035,1.588-0.553c2.008-4.034,1.253-10.076,4.733-13.306
		c1.618-1.502,3.757-0.722,5.486,0.064c0.764,0.347,1.544,0.662,2.33,0.961c0.008-0.001,0.015-0.001,0.023-0.003
		c0.004,0.006,0.008,0.01,0.012,0.016c1.89,0.718,3.812,1.368,5.678,2.141c0.933-4.939-1.897-9.209-6.678-10.092
		c0.814-0.605,1.685-1.109,2.625-1.479c0.279-0.11,0.489-0.278,0.648-0.474c12.207-2.759,15.975,13.875,25.636,18.293
		c0.217,0.144,0.487,0.235,0.817,0.235c0.13,0,0.249-0.016,0.362-0.041c0.208-0.007,0.425-0.057,0.645-0.164
		c2.394-1.162,4.51-2.637,6.374-4.345c-0.513,6.857,7.918,11.796,14.04,7.343C228.051,385.557,229.219,380.463,227.241,376.441z
		 M159.683,345.453c0.767-0.007,1.567-0.679,1.5-1.5c-0.057-0.704-0.422-6.868,1.226-6.522c2.286,0.479,0.883,6.494,0.577,7.624
		c-0.234,0.865,0.456,2.003,1.446,1.899c3.062-0.322,10.751,2.79,10.6,5.618c-0.105-0.054-0.217-0.101-0.35-0.118
		c-2.114-0.274-4.013-1.236-5.543-2.707c-0.93-0.893-2.346,0.519-1.414,1.414c1.716,1.649,3.745,2.681,6.03,3.138
		c-0.364,0.228-0.805,0.449-1.348,0.657c-5.729-1.52-9.432-5.276-13.12-9.494C159.42,345.462,159.551,345.45,159.683,345.453z
		 M104.112,414.887c1.106-0.724,2.116-1.565,3.022-2.517c0.027,0.111,0.054,0.222,0.085,0.348c0.108,0.43,0.528,0.734,0.964,0.734
		c4.056,0,6.118-3.169,8.472-6.235c3.037-3.957,5.858-8.082,8.587-12.266c-4.24,7.607-8.143,16.049-14.121,22.136
		c-0.185-0.084-0.386-0.097-0.579-0.067c-0.333-0.187-0.746-0.173-1.066,0.225c-0.647,0.805-1.317,1.593-2.023,2.347
		c-0.025-0.032-0.033-0.066-0.063-0.097C106.068,418.149,104.888,416.619,104.112,414.887z M108.431,425.253
		c-0.463-0.856-0.824-1.791-1.066-2.771c1.095-0.99,2.091-2.085,3.032-3.223c0.477,0.656,0.983,1.276,1.507,1.871
		C110.749,422.507,109.584,423.875,108.431,425.253z M111.958,428.844c-0.902-0.463-1.7-1.104-2.371-1.891
		c0.017-0.018,0.037-0.023,0.054-0.043c1.211-1.451,2.439-2.889,3.653-4.338c0.63,0.583,1.299,1.109,2.005,1.574
		c-0.882,1.479-1.857,2.862-3.073,4.1C112.042,428.433,111.974,428.64,111.958,428.844z M116.726,429.246
		c-0.096,0.082-0.151,0.171-0.204,0.261c-0.973,0.162-1.875,0.133-2.717-0.029c1.263-1.319,2.309-2.791,3.24-4.357
		c0.843,0.386,1.74,0.683,2.698,0.873C118.856,427.18,117.864,428.278,116.726,429.246z M129.098,419.94
		c-0.943,1.658-2.093,3.181-3.104,4.794c-1.54-1.047-3.214-1.862-4.729-2.957c0.534-0.508,1.047-1.033,1.556-1.562
		c0.095,0.082,0.207,0.154,0.347,0.202c0.481,0.164,0.855,0.363,1.152,0.79c0.311,0.447,0.87,0.651,1.368,0.359
		c0.442-0.259,0.671-0.92,0.359-1.368c-0.498-0.716-1.09-1.169-1.834-1.499c0.317-0.357,0.614-0.729,0.923-1.093
		c0.461,0.579,1.054,1.038,1.782,1.311c0.511,0.191,1.095-0.208,1.23-0.698c0.154-0.561-0.188-1.039-0.698-1.23
		c-0.417-0.156-0.815-0.546-1.004-0.961c0.567-0.714,1.125-1.436,1.662-2.174C130.904,415.446,130.572,417.348,129.098,419.94z
		 M141.249,395.577c-3.943,5.215-6.99,10.951-10.29,16.569c-0.331-0.26-0.705-0.513-1.123-0.758
		c5.698-8.441,10.149-17.9,16.408-25.874c0.138-0.175,0.227-0.36,0.281-0.546c1.438,0.859,2.761,1.867,4.018,2.983
		C146.646,388.907,143.557,392.524,141.249,395.577z M178.02,377.848c-0.939-0.747-1.829-1.474-2.473-2.65
		c-0.223-0.406-0.698-0.555-1.129-0.46c-2.652,0.584-3.336-0.676-4.514-2.496c0.413-0.545,0.85-1.054,1.302-1.539
		C175.672,370.648,178.416,373.798,178.02,377.848z M203.032,382.33c-10.566-5.403-13.528-22.41-28.248-18.074
		c-0.482,0.142-0.781,0.444-0.933,0.802c-7.672,3.862-10.913,14.024-14.293,21.468c-1.098-0.242-2.119-0.585-3.226-1.02
		c-0.568-0.224-1.444,0.129-1.694,0.689c-0.151,0.339-0.295,0.701-0.451,1.058c-3.048-3.084-6.448-5.432-10.605-6.997
		c-1.814-0.683-2.59,2.218-0.797,2.893c0.396,0.149,0.777,0.317,1.157,0.484c-9.576,12.316-15.007,28.213-27.319,38.259
		c-0.196,0.16-0.328,0.336-0.409,0.517c-1.456-0.992-2.706-2.313-3.812-3.77c5.734-5.785,9.387-13.93,13.431-20.878
		c2.525-4.338,5.125-8.636,8.043-12.723c2.203-3.085,5.626-7.989,9.806-8.336c0.108-0.009,0.193-0.048,0.283-0.082
		c3.542,2.846,7.779,4.274,12.451,5.296c0.37,0.081,0.666-0.04,0.884-0.243c0.363,0.071,0.755-0.049,0.995-0.467
		c3.589-6.237,8.157-11.802,10.977-18.467c0.515-0.403,0.443-1.201,0.009-1.584c-0.08-0.12-0.187-0.231-0.345-0.317
		c-4.51-2.477-9.232-4.645-13.298-7.844c-0.439-0.346-0.956-0.266-1.316-0.004c-0.38-0.314-0.956-0.376-1.347,0.034
		c-0.481,0.13-0.897,0.563-0.759,1.193c0.001,0.003,0.002,0.006,0.003,0.009c-3.579,6.139-6.54,12.609-11.245,18.018
		c-0.385,0.443-0.364,0.969,0,1.414c0.382,0.467,0.779,0.9,1.184,1.316c-3.248,0.851-6.028,3.454-8.393,6.484
		c4.26-6.848,8.456-13.735,12.663-20.615c3.01-4.922,5.846-10.222,9.367-14.841c4.587,5.294,8.911,10.088,15.986,11.895
		c0.15,0.038,0.291,0.048,0.426,0.046c0.251,0.077,0.543,0.075,0.871-0.046c2.346-0.868,4.372-2.344,4.972-4.264
		c12.968-3.48,30.6-5.9,39.509,6.476C216.016,369.352,211.571,377.89,203.032,382.33z M154.484,358.977
		c-0.058,0.067-0.12,0.126-0.165,0.221c-1.723,3.69-3.463,7.369-5.75,10.75c-0.725,1.072,1.009,2.071,1.727,1.009
		c2.235-3.304,3.947-6.894,5.632-10.499c1.301,1.129,2.842,1.968,4.505,2.494c-1.791,3.481-3.894,6.774-6.113,9.996
		c-0.734,1.065,1.001,2.064,1.727,1.009c2.274-3.301,4.431-6.674,6.25-10.25c0.052-0.101,0.065-0.199,0.083-0.297
		c1.443,0.234,2.937,0.224,4.419-0.005c-2.734,5.873-6.82,10.944-10.073,16.533c-3.185-0.705-6.21-1.567-9.124-3.092
		c-3.139-1.643-5.121-2.945-2.948-5.924c3.257-4.465,5.716-9.393,8.426-14.186C153.468,357.55,153.939,358.299,154.484,358.977z
		 M154.384,354.527c3.588,2.792,7.602,4.851,11.591,6.983C160.958,362.081,155.942,359.575,154.384,354.527z M215.808,378.013
		c-0.661-0.34-1.052-0.942-1.603-1.484c0.244-0.338,0.474-0.685,0.704-1.033c0.294,0.37,0.595,0.734,0.879,1.115
		C216.172,377.129,216.071,377.573,215.808,378.013z M221.597,387.542c-5.682,2.388-10.929-3.442-8.7-8.823
		c0.089-0.215,0.097-0.408,0.05-0.573c0.01-0.012,0.02-0.022,0.03-0.034c0.519,0.506,0.948,1.024,1.492,1.424
		c-0.01,0.057-0.036,0.103-0.037,0.167c-0.039,2.414,0.579,6.054,3.703,6.02c2.088-0.023,4.053-1.754,4.949-3.536
		c0.616-1.226,0.834-2.762,0.019-3.957c-1.122-1.646-3.327-1.98-5.17-2.026c-0.026-0.001-0.044,0.011-0.069,0.012
		c-0.19-0.465-0.499-0.884-0.835-1.286c3.563-1.432,7.427-0.35,8.901,3.463C227.277,381.875,224.877,386.163,221.597,387.542z
		 M216.445,380.143c0.229-0.066,0.426-0.206,0.602-0.436c0.362-0.473,0.677-0.976,0.86-1.511c0.01,0,0.016,0.006,0.026,0.006
		c0.889,0.022,1.346,0.052,2.195,0.303c0.116,0.034,0.229,0.076,0.342,0.119c0.026,0.015,0.232,0.105,0.279,0.13
		c0.111,0.058,0.217,0.125,0.321,0.195c0.006,0.004,0.015,0.011,0.023,0.017c0.045,0.038,0.089,0.076,0.131,0.116
		c0.05,0.047,0.094,0.1,0.139,0.152c0.03,0.044,0.098,0.135,0.121,0.175c0.02,0.034,0.038,0.07,0.055,0.105
		c0.035,0.095,0.063,0.193,0.086,0.292c0.004,0.019,0.006,0.027,0.01,0.04c0.001,0.01,0,0.015,0.002,0.03
		c0.008,0.098,0.007,0.197,0.004,0.295c-0.001,0.033-0.008,0.101-0.015,0.157c-0.017,0.094-0.036,0.188-0.06,0.281
		c-0.027,0.103-0.06,0.204-0.095,0.304c-0.014,0.04-0.03,0.08-0.045,0.12c-0.099,0.22-0.217,0.431-0.345,0.635
		c-0.061,0.097-0.127,0.192-0.193,0.286c-0.012,0.017-0.024,0.033-0.036,0.049c-0.019,0.024-0.042,0.053-0.056,0.071
		c-0.16,0.196-0.335,0.38-0.517,0.556c-0.084,0.081-0.171,0.158-0.259,0.234c-0.041,0.035-0.082,0.069-0.124,0.103
		c-0.192,0.144-0.394,0.274-0.603,0.392c-0.095,0.054-0.193,0.103-0.292,0.15c-0.019,0.009-0.028,0.014-0.039,0.019
		c-0.017,0.006-0.036,0.013-0.066,0.024c-0.199,0.075-0.406,0.127-0.615,0.164c-0.015,0.001-0.027,0.001-0.049,0.003
		c-0.095,0.006-0.191,0.005-0.286,0c-0.017-0.001-0.023-0.001-0.036-0.001c-0.009-0.002-0.012-0.003-0.024-0.005
		c-0.092-0.018-0.181-0.045-0.27-0.075c-0.002-0.001-0.002-0.001-0.004-0.001c-0.015-0.009-0.031-0.018-0.058-0.032
		c-0.051-0.027-0.097-0.062-0.145-0.094c-0.039-0.034-0.131-0.11-0.165-0.145c-0.035-0.035-0.067-0.072-0.099-0.109
		c-0.066-0.092-0.125-0.188-0.18-0.286c-0.021-0.036-0.082-0.168-0.114-0.233c-0.104-0.261-0.184-0.532-0.247-0.805
		c-0.039-0.169-0.068-0.34-0.095-0.51c-0.002-0.011-0.002-0.013-0.004-0.022c-0.002-0.016-0.004-0.042-0.009-0.083
		c-0.011-0.098-0.019-0.196-0.028-0.294C216.444,380.73,216.447,380.437,216.445,380.143z"/>
</g>
<g id="Слой_37">
	<path fill="#FFCCCC" d="M200,346.5c-11.774,9.823,8.851,20.785,17.384,12.75c10.528-9.914-10.676-14.531-18.884-12.75"/>
</g>
<g id="Слой_38">
	<path fill="#FFE2E2" d="M194.5,351.5c-20.396-1.996-18.734,39.653-4.004,32.443c9.551,7.841,27.794,14.562,38.626,2.691
		c10.858-11.9,5.558-40.849-14.645-29.574c-5.761-2.044-14.022-3.495-19.976-5.06"/>
</g>
<g id="Слой_22">
	<path fill="#007583" d="M341,398.5c-13.115,19.07,16.022,63.516,38.913,58.915c5.46-19.862,0.077-52.94-10.863-69.961
		c-10.869,3.575-23.686,8.363-33.55,13.546"/>
</g>
<g id="Слой_23">
	<path fill="#00B0C0" d="M324.5,406.5c11.492,17.337,16.413,36.153,10.21,56.488c-47.088-1.537-33.461-87.47-8.21-54.988"/>
</g>
<g id="Слой_24">
	<path fill="#0090A2" d="M322.5,408.5c11.184,17.378,4.109,47.177,18.391,61.085c17.473,17.017,37.29,2.867,32.26-19.223
		c-4.582-20.124-23.17-28.692-34.297-43.323c-4.807,3.403-13.786,3.5-15.353,3.961"/>
</g>
<g id="Слой_26">
	<path fill="#0090A2" d="M328.468,460.398c-19.296-18.898-8.571-57.892-1.392-80.805c-15.712-10.382-26.125-21.108-45.076-28.405
		l1.5-2.03c-18.077,4.519-35.013,12.312-42.998,29.433c-5.705,12.231-16.734,76.873-5.86,90.191
		c5.285,6.474,19.412,6.949,34.618,5.108c0.117-0.387,0.361-0.751,0.782-1.03c4.377-2.901,9.54-3.136,14.628-2.832
		c0.019-0.936,0.628-1.881,1.831-1.927c6.304-0.24,12.82-3.167,19.108-1.666c3.603-0.984,6.663-1.888,8.928-2.596
		c4.495-1.405,9.733-0.732,14.48-1.623C328.824,461.994,328.076,460.671,328.468,460.398z"/>
</g>
<g id="Слой_27">
	<path fill="#00B0C0" d="M288,352.5c-14.313,10.927-37.126,22.565-43.639,40.836C225.056,366.627,265.216,355.714,285,354.5"/>
</g>
<g id="Слой_18">
	<path fill="#00B0C0" d="M235.574,375.725c-3.887,3.66-8.19,7.888-10.574,12.775l0.5,0.5c-7.742,3.481-12.356,11.75-14.483,21.886
		c0.334,0.405,0.497,0.955,0.314,1.619c-1.614,5.828-0.518,11.567-0.432,17.495c0.013,0.874-0.465,1.43-1.083,1.68
		c2.09,30.419,19.23,60.985,39.196,35.332C264.556,447.039,246.683,393.365,235.574,375.725z"/>
</g>
<g id="Слой_25">
	<path fill="#0090A2" d="M235,377.5c4.491,24.22,15.644,76.314-6.947,94.875c29.144,19.547,37.883-22.016,36.336-43.88
		c-2.412-34.07-20.099-26.368-29.889-49.995"/>
</g>
<g id="Слой_20">
	<path fill="#104049" d="M291,406.5c-6.449,0-6.449,10,0,10S297.449,406.5,291,406.5z"/>
	<path fill="#104049" d="M286,428.5c-5.804,0-5.804,9,0,9S291.804,428.5,286,428.5z"/>
	<path fill="#FCFCFC" d="M381.5,463c-0.108-1.59-1.065-2.608-2.235-3.072c-0.418-3.244-1.294-6.453-2.335-9.22
		c-2.425-6.449-5.813-12.521-9.646-18.232c-4.971-7.407-13.47-13.354-15.928-22.04c-1.402-4.956-9.122-2.847-7.714,2.127
		c2.342,8.278,8.317,12.974,13.48,19.445c3.377,4.232,6.238,8.934,8.786,13.7c2.769,5.18,10.463,19.853,3.03,24.337
		c-5.049,3.046-13.268,0.476-18.376-0.903c-7.899-2.132-14.37-7.579-19.161-14.067c-9.479-12.837-13.684-31.757-6.448-46.557
		c2.257-4.615-4.642-8.672-6.908-4.038c-8.434,17.25-4.671,38.047,5.732,53.614c0.3,0.448,0.609,0.893,0.926,1.332
		c-24.767-3.677-49.602,7.277-74.453,10.673c1.693-2.931,2.808-6.277,3.593-9.336c2.539-9.899,2.952-20.421,2.117-30.556
		c-1.458-17.684-7.418-34.415-13.02-51.169c0.004-0.008,0.009-0.013,0.013-0.021c7.702-15.462,29.335-22.003,45.109-24.662
		c5.079-0.856,2.918-8.564-2.127-7.714c-15.687,2.643-35.745,9.169-46.205,22.54c-0.639-2.034-1.265-4.071-1.857-6.113
		c-0.027-0.092-0.069-0.165-0.101-0.251c-1.612-7.267-6.804-12.547-15.324-11.686c-3.446-12.873-18.955-11.424-28.217-4.654
		c-0.348,0.254-0.611,0.547-0.833,0.854c-5.091-1.195-10.183,1.805-13.492,7.688c-4.732,8.411-6.16,20.003-1.918,28.81
		c1.636,3.398,3.983,6.548,7.928,7.003c2.4,0.277,4.282-1.5,5.606-3.498c2.997,6.228,8.589,11.449,14.044,5.084
		c1.055,1.556,2.332,3.027,3.843,3.998c0.358,0.884,1.051,1.621,2.081,1.927c-0.315,20.232-6.157,40.119-2.007,60.371
		c2.586,12.622,13.856,21.382,26.093,20.237c1.363,0.267,2.724,0.262,4.035-0.018c0.277,0.049,0.568,0.078,0.887,0.065
		c31.684-1.317,64.315-20.64,95.681-8.237c9.445,6.71,21.265,10.219,32.656,7.802c2.752-0.584,4.861-1.697,6.457-3.172
		C379.4,472.743,381.866,468.371,381.5,463z M193.125,356.07c-1.73,5.723-2.568,11.715-3.961,17.526
		c-0.659,2.747-1.366,5.573-2.513,8.163c-0.234,0.528-0.498,1.055-0.818,1.54c-0.094-0.12-0.2-0.26-0.33-0.442
		c-4.158-5.814-3.359-13.195-1.443-19.686c0.941-3.187,2.455-6.323,4.91-8.607c1.614-1.503,3.282-0.753,4.679,0.454
		C193.436,355.319,193.249,355.658,193.125,356.07z M225.82,358.16c2.973,0.596,4.531,2.938,5.162,5.904
		c0.015,0.277,0.055,0.564,0.143,0.867c0.011,0.036,0.022,0.073,0.032,0.109c0.365,2.59,0.112,5.536-0.487,8.185
		c-1.129,4.994-3.727,10.36-7.609,13.978C226.294,378.88,228.043,367.188,225.82,358.16z M216.038,354.479
		c-0.101,0.067-0.209,0.126-0.308,0.196c-0.675-1.554-1.692-2.935-3.222-3.99c-3.471-2.391-8.066-0.089-10.877,2.177
		c-0.156,0.126-0.306,0.267-0.46,0.397c-0.142-0.422-0.359-0.839-0.697-1.235c-0.242-0.283-0.486-0.55-0.732-0.807
		C205.802,347.597,214.369,345.771,216.038,354.479z M208.152,360.962c-0.006,0.039-0.022,0.068-0.027,0.107
		c-0.939,6.985-2.45,13.979-4.764,20.641c-0.67,1.93-1.615,4.991-3.308,6.428c-0.134-0.109-0.342-0.31-0.638-0.729
		c-1.261-1.791-2.109-3.959-2.757-6.033c-2.101-6.726,2.306-15.141,6.463-20.178c1.281-1.552,3.664-4.289,5.67-4.465
		c0.323-0.028,0.246-0.135,0.553,0.642c0.035,0.089,0.06,0.181,0.092,0.271C208.43,358.407,208.009,359.724,208.152,360.962z
		 M210.022,386.233c-0.121-0.227-0.258-0.422-0.402-0.601c2.619-5.987,3.892-13.051,4.795-19.37c1.39-0.334,2.575-1.413,2.585-3.262
		c0-0.026,0-0.052,0-0.078c0.754-0.799,1.435-1.517,2.196-2.105c1.182,6.412-0.049,13.701-1.463,19.716
		c-0.725,3.082-1.661,6.706-3.7,9.223C212.327,391.862,210.866,387.814,210.022,386.233z M248.739,449.687
		c-0.692,6.271-1.764,14.038-6.066,18.961c-4.642,5.311-13.996,3.633-19.317,0.417c-5.606-3.388-7.213-11.004-7.885-16.989
		c-2.048-18.24,2.804-35.94,3.029-54.075c0.001-0.097-0.018-0.18-0.024-0.273c8.218-2.33,14.216-9.633,17.379-17.755
		c4.276,12.928,8.786,25.78,11.488,39.161C249.377,429.206,249.866,439.475,248.739,449.687z"/>
</g>
<g id="Слой_8">
	<path fill="#E1B4B4" d="M377,373.667c-4.931,7.317-12.17,14.429-16.316,22.292c19.037-2.038,32.23-6.492,27.067-29.039
		c-1.393-6.083-6.715-19.881-15.249-13.401c-5.253,3.989,1.282,21.164-0.834,28.148"/>
</g>
<g id="Слой_9">
	<path fill="#FECCCC" d="M377.333,377.333c0.869,7.377-37.877,38.028-44.532,35.942c-5.026-16.403-0.64-18.877,8.142-29.356
		c1.607-1.918,5.713-0.916,7.473-3.553c2.033-3.047-2.427-6.922-0.416-9.717c7.186-9.987,23.172-21.017,29.389-0.568
		c0.912,2.999,1.001,6.736,0.944,9.918"/>
</g>
<g id="Слой_10">
	<path fill="#F8E2E2" d="M349.333,383.333c-9.297,5.477-13.413,19.751-15.39,29.941c-28.406-6.441,1.037-45.574,15.39-29.607"/>
</g>
<g id="Слой_11">
	<path fill="#E1B4B4" d="M363.667,318.333c-5.095,20.884-22.543,39.211-27.282,60.616c3.075,1.087,9.197,1.573,12.127,1.005
		c-1.09-5.47-1.505-11.076,1.171-15.995c16.552,6.323,38.447-40.562,14.651-44.627"/>
</g>
<g id="Слой_13">
	<path fill="#F8E2E2" d="M321.667,325c-12.271,12.031-16.009,26.88-19.325,43.409c-3.06,15.25,4.717,27.727,22.356,17.7
		c-0.057,0.13-0.134,1.507-0.082,1.564c-8.328,3.251-18.25,5.615-26.008,3.074c-9.91-3.246-9.456-6.591-11.017-16.122
		c-1.346-8.218-0.976-15.776,1.391-23.958c0.615-2.126,4.487-7.632,4.033-9.658c-0.802-3.576-5.647-2.773-7.023-5.678
		c-7.274-15.358,28.245-10.612,34.673-10.331"/>
</g>
<g id="Слой_12">
	<path fill="#FECCCC" d="M316.667,325.667c-11.222,15.849-36.427,79.142,8.724,61.099c21.409-8.555,60.384-68.232,29.084-85.51
		c-17.747-9.796-27.274,17.208-37.808,25.077"/>
</g>
<g id="Слой_16">
	<path fill="#FD9D56" d="M345,283c-7.091,3.991-6.65,11.385-3.941,18.341c-11.454,8.426-20.526,35.225-40.044,21.873
		c-4.621-3.161-9.621-13.402-5.938-18.855c4.73-7.003,22.576-4.597,29.995-6.932c5.213-1.641,11.363-4.214,14.595-9.094"/>
</g>
<g id="Слой_15">
	<path fill="#EE834A" d="M340,286.667c-0.732,5.389-3.431,10.705-2.958,16.298c13.236-5.964,17.621-1.782,24.319,9.053
		c3.552,5.747,2.872,7.935,10.367,8.649c7.02,0.669,11.996-3.115,14.88-8.932c-10.006,1.966-8.013-5.387-6.513-10.391
		c1.791-5.975,5.372-6.868,0.499-14.32c-7.976-12.198-33.006-11.99-40.927,0.643"/>
</g>
<g id="Слой_14">
	<path fill="#C06B3E" d="M359.667,306.333c9.267,6.699,33.734,9.436,41.758,0.428c2.587,26.496-35.45,21.378-40.091,1.572"/>
	<path fill="#C06B3E" d="M372.667,323c3.345,10.142,1.871,20.39-2.957,29.282c15.335-6.687,21.09-6.605,19.597-25.912
		c-5.429-0.305-11.191-0.997-16.307-2.369"/>
</g>
<g id="Слой_3">
	<path fill="#104049" d="M336.529,332.709c-0.531,0.029-1.07,0.254-1.547,0.773c-2.309,2.517-4.917,4.259-6.143,7.603
		c-0.729,1.989,1.928,4.091,3.672,2.823c2.842-2.065,4.938-4.79,7.256-7.391C341.81,334.226,338.686,330.897,336.529,332.709z"/>
	<path fill="#104049" d="M358.013,342.983c-0.099-1.856-2.539-3.452-4.28-1.751c-2.244,2.193-4.976,3.84-6.391,6.756
		c-0.846,1.744,0.58,4.561,2.823,3.672c1.555-0.616,2.835-1.455,4.045-2.613c1.126-1.078,2.089-2.296,3.308-3.28
		C358.331,345.112,358.414,343.91,358.013,342.983z"/>
	<path fill="#104049" d="M329.679,372.218c-1.402-5.306-6.118-7.237-11.21-6.147c-0.646,0.138-1.053,0.495-1.263,0.938
		c-0.184,0.258-0.291,0.561-0.342,0.876c4.527-0.895,8.913,2.726,10.749,6.81C328.815,374.713,330.079,373.734,329.679,372.218z"/>
	<path fill="#104049" d="M362.836,341.171c-1.653-4.972-2.446-9.274-0.667-14.343c0.022-0.063,0.054-0.113,0.08-0.171
		c-1.134-0.754-3.158-0.223-3.249,1.593c-0.209,4.179,0.344,8.164,2.023,12.009c0.393,0.901,1.139,1.157,1.854,1.003
		C362.864,341.231,362.847,341.205,362.836,341.171z"/>
	<path fill="#104049" d="M330.198,327.086c0.347,0.849,1.189,1.538,2.334,1.343c4.609-0.787,9.119-1.848,13.5-3.5
		c1.285-0.485,1.573-1.825,1.195-2.82C341.968,324.45,336.031,327.443,330.198,327.086z"/>
	<path fill="#104049" d="M342.872,342.34c-0.754-0.184-1.59,0.033-2.099,0.901c-3.093,5.276-5.739,10.073-4.861,16.035
		c-1.959,0.276-3.625-0.265-5.653-1.252c-2.309-1.124-4.338,2.325-2.019,3.454c3.547,1.727,6.713,2.589,10.541,1.202
		c0.228-0.083,0.435-0.199,0.621-0.336C338.6,355.428,339.552,348.527,342.872,342.34z"/>
	<path fill="#FCFAFA" d="M404.535,301.064c-2.062-2.113-4.645-3.873-7.17-4.984c-0.272-0.047-0.533-0.062-0.781-0.046
		c-0.112-0.011-0.215-0.033-0.334-0.033c-3.855,0-3.867,5.951-0.041,5.996c1.816,0.858-0.959,5.129-1.793,5.731
		c-2.156,1.557-5.328,1.617-7.86,1.625c-2.798,0.009-9.067-1.244-4.691-4.607c1.923-1.478,3.584-3.068,4.859-5.14
		c4.982-8.094-3.52-17.101-10.165-20.465c-7.998-4.05-18.284-5.187-26.974-3.044c-4.892,1.206-8.864,4.791-12.118,8.444
		c-3.096,3.476-5.83,8.095-10.396,9.75c-10.814,3.92-32.003-2.304-35.467,13.17c-1.345,6.007,0.46,11.22,4.094,15.076
		c-4.633,0.044-9.214,1.232-11.605,5.452c-3.423,6.041,1.847,10.904,7.211,13.019c-1.34,2.365-2.684,4.722-3.804,7.204
		c-0.116-0.089-0.244-0.169-0.373-0.248l-1.154,5.77c-0.025,0.124-0.073,0.235-0.111,0.352c-0.095,0.456-0.245,0.897-0.462,1.304
		c-0.36,2.182-0.562,4.397-0.733,6.589c-0.675,8.66,0.72,18.218,5.614,25.55c7.077,10.603,20.523,10.1,31.294,5.641
		c-0.946,3.858-1.476,7.851-2.163,11.265c-0.106,0.063-0.198,0.151-0.295,0.229c0.894,0.672,1.71,1.497,2.419,2.434
		c4.113,5.441,10.256,10.244,17.447,8.382c3.941-1.02,4.637-0.879,6.827-3.146c0.867-0.898,1.844-1.552,2.885-2.049
		c3.12-5.255,7.381-9.323,13.634-10.915c3.107-0.791,6.289-0.891,9.462-1.093c2.709,10.842,5.358,21.681,6.344,32.842
		c0.704,7.979,0.246,15.849-0.815,23.677c-0.317,4.833-1.524,9.727-3.784,14.609c-0.078,0.169-0.173,0.324-0.264,0.483
		c2.865-0.811,5.625-1.997,8.196-3.585c2.084-11.057,3.441-22.074,2.796-33.402c-0.684-11.993-3.563-23.721-6.467-35.336
		c0.781-0.163,1.559-0.361,2.331-0.612c12.033-3.909,12.949-15.624,11.518-26.249c-1.03-7.65-2.404-16.748-9.646-20.32
		c0.189-0.123,0.373-0.26,0.56-0.388c0.733-0.015,1.292-0.291,1.683-0.707c4.15-2.161,7.503-5.184,8.34-9.983
		c0.667-3.823-0.316-7.827-1.172-11.642c3.643-0.762,7.048-2.18,9.762-4.385C408.329,317.46,408.723,308.284,404.535,301.064z
		 M323.894,386.484c-9.537,5.419-23.03,7.91-29.964-2.478c-4.201-6.294-4.608-14.729-4.265-22.028
		c0.391-8.304,3.674-14.122,7.494-21.215c0.718-1.333,0.149-3.348-1.494-3.672c-3.532-0.698-11.438-4.734-5.415-8.481
		c2.658-1.654,6.87-1.269,10.015-0.817c0.272,0.268,0.619,0.489,1.07,0.62c1.358,0.392,2.78,0.332,4.131-0.028
		c9.676,2.903,18.416-1.343,23.831-9.572c4.469-6.791,12.186-20.234,22.546-15.789c5.181,2.223,5.824,8.08,7.825,12.589
		c2.13,4.8,6.209,7.541,10.803,9.645c1.377,4.218,3.141,8.174,2.375,12.799c-0.814,4.911-4.35,8.914-7.613,12.427
		c-0.261,0.281-0.432,0.579-0.541,0.882c-0.753,0.472-1.124,1.337-1.104,2.203c-3.825,0.688-6.125,4.204-6.643,8.31
		c-1.352-0.289-2.839-0.323-4.492-0.019c-8.767,1.607-7.988,8.613-6.382,15.247c-6.137-1.855-12.535-0.702-17.942,3.775
		C326.305,382.389,324.95,384.324,323.894,386.484z M383.193,360.177c1.437,3.41,1.945,7.243,2.485,10.876
		c0.717,4.822,1.563,10.057-0.657,14.611c-4.403,9.034-17.78,6.26-25.806,8.304c-7.764,1.977-13.435,8.627-16.93,15.521
		c-0.551,0.235-0.966,0.628-1.246,1.104c-5.32,2.25-11.707-1.984-15.625-5.689c1.068-5.54,1.844-11.248,4.37-16.341
		c3.826-7.715,12.817-7.643,19.2-3.473c2.353,1.537,4.914-0.977,4.407-3.388c-0.855-4.066-6.398-15.467,2.247-13.912
		c5.877,1.057,8.071,11.635,10.02,16.224c1.508,3.551,6.675,0.49,5.181-3.028c-1.994-4.697-4.12-11.303-7.892-15.452
		c-0.004-0.188-0.016-0.38-0.056-0.581c-1.093-5.575,2.696-6.906,6.461-3.098c3.844,3.888,4.897,10.284,5.754,15.443
		c0.632,3.81,6.414,2.189,5.786-1.595c-0.94-5.663-2.648-12.979-6.777-17.681c0.036-0.399-0.024-0.839-0.223-1.319
		c-1.05-2.53,1.132-2.014,3.402-1.624C380.509,355.629,381.933,357.187,383.193,360.177z M382.54,344.526
		c-0.629,0.019-1.261,0.281-1.807,0.707c-2.067,1.611-4.476,2.871-6.897,3.857c-0.045,0.018-0.085,0.043-0.129,0.063
		c-0.339,0.057-0.675,0.123-1.001,0.206c2.233-2.979,4.022-6.197,4.961-9.974c1.055-4.241,0.012-8.133-1.26-12.031
		c3.158,0.767,6.603,1.112,10.018,0.943c0.607,2.853,1.277,5.707,1.354,8.628C387.878,340.661,385.486,342.86,382.54,344.526z
		 M396.449,319.289c-5.688,3.788-14.393,3.587-20.591,1.716c-3.509-1.06-7.764-3.193-9.919-6.238
		c-1.457-2.06-1.892-4.926-2.775-7.261c-1.672-4.422-5.398-8.986-10.067-10.42c-9.442-2.901-18.57,3.763-24.13,10.862
		c-3.037,3.877-4.72,8.527-8.238,12.063c-3.283,3.3-8.091,3.779-12.519,2.826c-0.403-0.224-0.859-0.339-1.317-0.328
		c-1.3-0.368-2.552-0.847-3.697-1.412c-4.871-2.406-6.784-7.685-5.633-12.827c0.742-3.313,4.019-4.518,6.955-5.235
		c7.12-1.738,14.671-0.828,21.862-2.327c9.696-2.022,13.166-11.663,20.711-16.915c8.011-5.577,21.743-2.576,29.388,2.186
		c3.32,2.068,5.382,5.341,5.427,9.29c0.04,3.619-5.553,5.373-7.249,8.039c-4.089,6.43,2.917,10.878,8.677,11.763
		c6.139,0.944,13.277-0.051,17.259-5.206c0.195-0.252,0.374-0.519,0.544-0.794C401.655,312.874,400.318,316.712,396.449,319.289z"/>
	<path fill="#104049" d="M316.755,381.637c-3.372-1.841-6.71-1.08-8.868,2.109c-0.725,1.071,1.008,2.071,1.727,1.009
		c1.538-2.272,3.759-2.687,6.132-1.391C316.878,383.982,317.887,382.255,316.755,381.637z"/>
</g>
</svg>
