<?xml version="1.0" encoding="utf-8"?>
<!DOCTYPE svg PUBLIC "-//W3C//DTD SVG 1.1//EN" "http://www.w3.org/Graphics/SVG/1.1/DTD/svg11.dtd">
<svg version="1.1" xmlns="http://www.w3.org/2000/svg" xmlns:xlink="http://www.w3.org/1999/xlink" x="0px" y="0px"
	 width="595.28px" height="841.89px" viewBox="0 0 595.28 841.89" enable-background="new 0 0 595.28 841.89" xml:space="preserve">
<g>
	<rect y="0" width="595.28" height="841.89"/>
</g>
<g>
	<path fill="#FD9E58" d="M275.667,369.39c4.123,1.089,5.568,2.422,7.917,5.917c2.029,3.019,3.987,6.986,5.504,10.295
		c2.693,5.876,4.487,13.95,5.307,20.335c0.715,5.558-0.226,10.476-1.811,15.724c-1.187,3.93-4.225,7.02-6.908,9.663
		c-1.652,1.628-2.027,1.335-3.301-0.605c-1.034-1.575-1.118-2.58-2.912-3.478c-3.504-1.755-5.16,1.556-8.292,2.353
		c-3.186,0.811-5.53-0.308-5.67-3.732c-0.147-3.595,3.232-7,3.888-10.467c0.484-2.561-0.604-3.039-3.196-2.846
		c-3.567,0.266-6.591,2.611-10.338,2.993c-2.075-5.377-2.716-10.66,3.106-13.623c2.538-1.292,7.149-1.711,5.876-5.63
		c-0.568-1.748-5.438-7.177-6.653-6.228c-0.184-3.417-1.79-5.472,0.284-8.337c0.573-0.792,1.635-1.621,2.408-2.33
		c2.738-2.509,4.637-3.433,8.346-1.351c2.54,1.426,3.793,4.085,7.145,4.184c2.235,0.065,7.958-3.059,7.467-5.837"/>
</g>
<g>
	<path fill="#EE834A" d="M310.33,420.568c-1.299-2.98-2.281-6.219-3.859-9.173c-2.811-5.261-3.99-10.928-2.609-16.87
		c1.031-4.437,4.215-8.991,0.485-12.69c-2.075-2.057-3.592-2.47-3.347-5.967c0.149-2.128,0.808-4.675,0.337-6.815
		c-0.93-4.22-5.707-5.883-9.453-6.82c-3.563-0.891-7.58-0.74-11.134,0.361c-2.919,0.904-5.357,1.325-6.165,4.304
		c-0.984,3.632,0.307,4.476,3.588,4.981c3.451,0.531,7.051,1.288,4.994,5.345l-0.174-0.135c0.214,0.623,0.413,1.24,0.637,1.777
		c1.01,2.427,2.213,4.695,3.361,7.041c3.48,7.116,4.843,16.062,4.842,23.893c-0.001,5.883-2.294,10.451-4.536,15.581
		c-1.548,3.541-5.194,8.915,0.715,10.491c1.105,0.295,4.645,0.148,5.821-0.642c0.702-0.472,0.67-1.417,1.313-1.905
		c-0.054-1.181,0.59-2.263,0.856-3.382c0.244-1.027,0.132-2.119,0.456-3.18c0.445-1.458,1.008-2.462,2.551-3.131
		c4.71-2.044,9.217,2.228,13.967,2.076C312.719,423.99,311.07,422.264,310.33,420.568z"/>
</g>
<g>
	<path fill="#C06B3E" d="M304.667,383.557c-1.302,4.038-2.416,8.36-3.662,12.43c-1.662,5.427,0.088,10.05,1.797,15.266
		c1.488,4.542,3.324,10.17,7.45,13.128c6.419,4.603,13.613-2.529,14.878-8.751c0.776-3.819-1.677-8.537-4.321-10.619
		c-1.337-1.053-3.69-2.009-2.88-4.182c0.431-1.158,2.597-2.41,3.398-3.584c1.99-2.914,3.486-8.293,1.937-11.718
		c-2.08-4.598-6.229-3.414-10.215-2.676c-2.724,0.505-5.361,0.447-8.047,1.206"/>
	<path fill="#C06B3E" d="M305,384.057c-0.056,0-0.111,0-0.167,0"/>
</g>
<g>
	<path fill="#3B5C65" d="M346.041,426.482c-1.425-1.116-2.358-2.247-3.524-3.459c-2.016-2.094-5.122-3.365-6.85-5.633l-16.637,5.142
		c-0.818,2.246-3.674,3.155-6.03,2.955c-0.546-0.047-1.038-0.286-1.364-0.669l-3.47,1.072c-0.052,2.94,2.833,5.851,3.501,8.796
		c0.519,2.292,0.632,4.621,0.833,6.97c0.239,2.795,1.096,5.384,1.167,8.262c0.115,4.665-0.009,9.344,0,14.011
		c0.006,3.354,0.332,7.423-0.293,10.696c6.297-3.102,6.293-9.542,6.293-16.056c0-4.719-0.497-11.754,3.7-15.1
		c1.359-1.084,4.655-1.612,6.305-1.05c5.527,1.883,1.039,9.632-1.313,12.154c-1.709,1.833-3.347,2.401-4.376,4.598
		c-0.542,1.158-0.885,2.644-1.149,3.919c-0.568,2.738-0.333,6.201,2.633,7.474c2.111,0.906,6.964,1.034,8.865,0.374
		c0.971-0.337,1.873-1.75,2.832-2.381c1.631-1.073,3.48-1.917,5.106-3.044c1.925-1.333,3.242-3.025,4.919-4.799
		c3.067-3.244,8.426-5.523,9.266-10.162C358.154,441.164,353.241,432.117,346.041,426.482z"/>
	<path fill="#3B5C65" d="M335.667,417.39c-2.611-2.136-6.549-6.942-10.318-5.466c-0.059,2.574-0.136,4.576-0.999,7.055
		c-1.566,4.495-3.205,6.135-7.183,9.078"/>
</g>
<g>
	<path fill="#348F9F" d="M266.5,424.057c-0.056,0.056-0.111,0.111-0.167,0.167"/>
	<path fill="#348F9F" d="M264.975,424.39c-0.063,2.577,0.466,5.544,3.536,5.633c3.091,0.09,3.386-2.954,6.37-3.304
		c3.02-0.354,4.634,2.256,6.416,4.333c3.275,3.817,6.146,5.592,11.482,6.535c0.78-1.77,1.073-3.749,1.663-5.54
		c0.634-1.925,1.142-5.462,2.531-6.961c3.747-4.043,10.737-0.935,13.553,2.447c6.083,7.305,4.637,16.529,4.637,25.326
		c0,4.628,0.115,9.241-0.68,13.702c-0.487,2.734-0.129,7.395-1.722,9.845c-2.119,3.259-8.613,4.176-12.32,5.211
		c-3.039,0.848-5.352,1.44-8.639,1.439c-5.146-0.001-11.032-0.001-16.111-0.857c-9.458-1.595-21.27-6.176-22.02-16.572
		c-0.485-6.722,0.703-13.44,1.545-19.98c0.588-4.566,0.102-9.316,1.323-13.646c0.474-1.68,0.629-3.886,1.574-5.397
		c2.209-3.531,6.582-3.77,10.214-5.064c-1.482,1.313-3.006,3.173-3.694,5.016"/>
</g>
<g>
	<path fill="#4AAFBF" d="M266,423.39c-7.766,5.486-9.311,17.395-9.867,26.213c-0.47,7.465-1.148,15.187,1.521,22.269
		c-5.268,2.317-5.552-31.373-16.262-27.188c-7.995,3.124-1.458,10.173,3.094,12.739c3.588,2.023,3.835,4.667,2.35,8.429
		c-0.93,2.357-4.105,7.521-6.663,7.606c-1.88,0.062-3.763-2.128-5.058-2.983c-2.74-1.809-5.313-3.23-7.734-4.983
		c-3.482-2.52-7.001-5.55-9.697-8.921c-2.767-3.46-5.26-6.71-6.181-11.177c-2.825-13.708,14.699-21.686,24.029-27.208
		c2.896-1.714,5.932-3.604,9.238-4.617c1.768-0.542,6.668-2.591,8.614-1.771c1.401,0.591,0.883,1.535,1.936,2.442
		c0.936,0.806,2.554,0.846,3.701,0.816c3.119-0.084,5.85-1.697,8.953-1.808c1.162,1.773,1.342,3.403,0.182,5.367
		c-0.913,1.547-1.974,2.747-2.69,4.41c-0.499,1.158-1.066,2.917-1.968,3.532"/>
</g>
<g>
	<path fill="#E1B5B4" d="M245,470.723c-1.02,1.116-2.94,1.237-4.069,2.3c-0.534,0.503-0.637,1.311-1.14,1.788
		c-1.044,0.991-1.978,1.569-2.954,2.705c-1.956,2.277-4.993,4.921-4.837,8.207c0.136,2.843,2.575,4.725,4.84,5.871
		c2.337,1.183,5.223,3.276,7.685,3.132c2.521-0.147,4.018-2.188,6.684-2.721c1.691-5.137,5.16-8.543,4.336-14.433
		c-0.35-2.505-1.736-4.87-2.533-7.31c-0.807-2.47-1.275-5.35-3.29-7.207c-3.088,2.056-4.821,5.496-6.223,8.835"/>
	<path fill="#E1B5B4" d="M322,467.723c0.832,2.464,4.929,2.872,6.977,3.533c2.606,0.842,5.254,1.338,7.844,2.388
		c2.716,1.101,5.515,4.808,4.855,8.259c-0.825,4.31-5.02,9.105-8.982,10.49c-3.545,1.239-7.266-2.652-9.53-4.704
		c-1.753-1.588-4.047-3.074-4.333-5.641c-0.261-2.344,0.412-5.677,0.657-8.037c0.173-1.668,0.608-4.873,2.346-5.622"/>
</g>
<g>
	<path fill="#814721" d="M258,564.723c-7.657,3.646-13.522,8.925-12.667,18.325c0.64,7.039,8.981,6.392,14.267,3.507
		c4.334-2.365,7.275-5.936,12.382-6.598c0.85,1.567,1.432,4.163,2.885,5.26c2.475,1.868,8.301,0.308,11.368,0.534
		c2.428,0.179,5.733-0.332,7.983,0.31c2.146,0.612,2.531,2.066,4.157-0.034c0.954-1.232,1.311-5.046,3.122-5.482
		c1.529-0.368,5.804,3.154,7.2,3.804c2.093,0.973,4.52,2.608,6.716,3.165c1.468,0.372,8.099,0.802,9.719-0.228
		c2.006-1.276,2.07-6.213,1.871-8.245c-0.559-5.729-4.608-9.156-9.329-11.022c-3.474-1.373-10.773,0.348-13.891,2.209
		c-2.992,1.785-4.774,3.371-8.513,3.661c-2.974,0.231-6.085,0.001-9.075,0.001c-4.437,0-10.448-0.098-14.071-2.779
		c-1.453-1.075-2.022-2.897-3.296-4.058c-1.893-1.727-5.462-1.993-8.068-2.162c-1.023-0.066-2.069-0.001-3.094-0.001"/>
</g>
<g>
	<path fill="#985627" d="M259,566.057c-5.197-0.138-9.585,4.93-10.548,9.737c-0.614,3.069,0.026,10.087,3.58,11.477
		c-8.812,1.051-18.465-2.993-15.353-13.189c0.918-3.006,2.781-6.332,6.171-7.2c4.098-1.05,8.905-0.991,13.15-0.991"/>
	<path fill="#985627" d="M256,565.89c0.167,0,0.333,0,0.5,0"/>
</g>
<g>
	<path fill="#663818" d="M314.167,567.557c1.123,0.255,2.752,1.272,3.646,1.984c2.546,2.026,4.964,4.315,6.7,7.237
		c2.083,3.505,1.26,7.526,1.949,11.333c1.431-1.169,3.368-2.279,5.065-3.049c1.626-0.738,5.084-0.872,6.326-1.983
		c0.958-0.856,1.358-3.336,1.646-4.436c0.958-3.659,0.244-6.086-2.296-8.916c-5.738-6.393-14.026-2.181-21.537-2.004"/>
</g>
<g>
	<path fill="#124049" d="M268.333,481.557c0,19.232,1.431,38.099,4.029,57.045c0.987,7.2,0.187,32.039,5.841,35.464
		c2.492,1.509,15.203-1.041,19.236-0.351c2.743-30.686,5.221-61.774,5.478-92.851c-11.064,3.599-24.821,2.256-36.251,1.693"/>
	<g>
		<path fill="#0C3037" d="M298.667,481.89c1.141,25.371-0.49,51.768-1.631,77.249c-0.22,4.913-4.209,17.625,4.231,13.024
			c3.546-1.933,3.713-7.859,4.6-11.16c3.63-13.51,4.65-28.383,6.808-42.046c1.047-6.631,11.371-39.224,6.656-44.066
			c0.005,0.005-0.075-1.072-0.082-1.158c-7.429,1.491-12.171,9.599-21.083,10.157"/>
	</g>
</g>
<g>
	<path fill="#1E6674" d="M271.667,481.723c-1.475,30.619,3.61,61.344,5.918,90.84c-1.373,0.299-4.132,0.34-5.504-0.029
		c-6.089-25.819-7.482-53.749-13.114-79.058c-1.408-6.328-3.557-11.491-3.206-18.354c5.401,4,11.515,6.19,18.072,8.101"/>
</g>
<g>
	<path fill="#953A1E" d="M196.333,273.89c32.57,5.611,68.398,0.552,101.667,3"/>
	<path fill="#953A1E" d="M327.969,408.567c1.154-0.144,2.266-0.337,3.335-0.58C330.192,408.181,329.08,408.374,327.969,408.567z"/>
	<path fill="#953A1E" d="M298.333,277.223l-105.667,2.444c-1.472,21.188,3.682,43.475,4.175,64.372
		c0.208,8.815-1.917,26.561-1.789,41.685c14.89,0.149,29.694,1.092,44.538,1.867c5.476-1.075,10.99-1.821,16.551-2.153
		c-0.034-0.284-0.038-0.568-0.02-0.853c0-0.001,0-0.001,0-0.002l0,0c0.018-0.267,0.059-0.53,0.122-0.788
		c0.002-0.007,0.004-0.015,0.006-0.022c0,0,0,0,0,0c0.065-0.258,0.152-0.507,0.263-0.748c0.001-0.003,0.003-0.007,0.005-0.01
		c0,0,0,0,0,0c0.114-0.245,0.25-0.476,0.411-0.692v0c0,0,0.001-0.001,0.001-0.001c0.127-0.17,0.27-0.325,0.427-0.472c0,0,0,0,0,0
		l0,0c0.008-0.008,0.016-0.015,0.025-0.023c0,0,0,0,0,0c0.156-0.143,0.327-0.272,0.512-0.387l0,0
		c0.002-0.001,0.004-0.002,0.006-0.004c0.195-0.121,0.405-0.226,0.633-0.311c0,0,0,0,0,0s0,0,0,0h0
		c0.084-0.208,0.185-0.412,0.317-0.604c0.872-1.268,1.914-2.382,3.453-2.813c1.179-0.33,2.419-0.212,3.532,0.253
		c0.256,0.053,0.505,0.133,0.747,0.236c0.03-0.001,0.055-0.009,0.086-0.009c1.347,0,2.338,0.546,2.988,1.347
		c0.034,0.032,0.075,0.058,0.108,0.091c0.44,0.312,0.811,0.716,1.055,1.226c0.145,0.302,0.268,0.609,0.389,0.917
		c0.079,0.09,0.165,0.174,0.235,0.271c1.729,0.768,4.561,0.162,6.225,0.146c0.403-0.004,0.764,0.055,1.104,0.141
		c1.201-1.202,2.585-2.115,4.082-2.741c0.304-0.386,0.682-0.712,1.101-0.997c-0.043-1.877-0.268-3.592-0.511-5.295
		c-0.007-0.047-0.005-0.093-0.011-0.14c-0.105-0.023-0.207-0.056-0.313-0.074c-0.128-0.005-0.848-0.089-0.836-0.089
		c-0.983-0.057-1.966-0.067-2.95-0.068c-0.842,0-1.628-0.272-2.28-0.727c-0.53-0.072-0.993-0.232-1.394-0.464
		c-0.01-0.006-0.019-0.012-0.029-0.017c-0.664-0.393-1.149-0.968-1.456-1.639c0,0,0,0,0,0c-0.002-0.003-0.003-0.007-0.005-0.01
		c-0.383-0.845-0.49-1.819-0.309-2.737v0c0.019-0.098,0.047-0.193,0.073-0.289c0,0,0,0,0-0.001c0.036-0.134,0.071-0.267,0.119-0.397
		c0.042-0.112,0.095-0.218,0.146-0.326c0.155-0.327,0.343-0.636,0.584-0.907c0,0,0,0,0,0c0.097-0.11,0.211-0.205,0.322-0.303
		c0,0,0,0,0.001,0c0.074-0.065,0.141-0.136,0.221-0.195c0,0,0,0,0,0c0.073-0.054,0.158-0.096,0.239-0.142
		c0.354-0.22,0.746-0.399,1.204-0.492h0c0.28-0.057,0.578-0.089,0.898-0.089c0.038,0,0.069,0.01,0.106,0.011
		c0.351-0.862,0.98-1.597,1.898-1.999c0.641-0.608,1.518-1.011,2.662-1.011c0.037,0,0.067,0.009,0.103,0.01
		c0.582-0.215,1.203-0.34,1.897-0.344c0.252,0,0.485,0.029,0.709,0.07c0.001,0,0.002,0.001,0.003,0.001
		c0.075,0.014,0.148,0.032,0.222,0.05c0.081,0.018,0.166,0.033,0.244,0.055c0.622-0.517,1.448-0.843,2.488-0.843
		c0.032,0,0.059,0.008,0.091,0.009c0.189-0.019,0.38-0.027,0.576-0.009c5.357,0.487,10.674,1.521,13.484,6.665
		c0.326,0.597,0.484,1.185,0.518,1.747c0.792,2.572,0.658,5.055-0.012,7.603c0.165,1.498,0.318,3.023,0.711,4.448
		c0.768,0.026,1.535,0.041,2.306,0.039c6.711-0.011,12.624,2.994,19.275,3.198c7.798,0.239,15.587-0.163,23.385-0.2
		c1.827-0.009,3.184,0.712,4.075,1.787C361.077,349.481,330.891,283.945,298.333,277.223z"/>
	<path fill="#953A1E" d="M193,278.89c0.25-0.464,1-0.875,1.667-1"/>
</g>
<g>
	<path fill="#7B301A" d="M293,276.223c30.469,33.257,36.3,65.068,13.5,105.94c27.662-3.237,74.777,25.614,81.5-16.518
		c3.06-19.175,3.656-55.569-2.333-74.092c-5.652-17.479-3.006-14.252-24.245-14.996c-22.284-0.78-45.316-1.403-67.422,0"/>
	<path fill="#7B301A" d="M294,276.557c0-0.222,0-0.444,0-0.667"/>
	<path fill="#7B301A" d="M294,276.223c-0.111-0.111-0.222-0.222-0.333-0.333"/>
</g>
<g>
	<path fill="#F9F9F9" d="M230.667,333.39c-0.08,0-0.148,0.019-0.226,0.022c-0.038-0.005-0.069-0.018-0.107-0.022
		c-7.759-0.84-18.071-2.44-21.599,6.482c-1.627,4.115-1.146,10.026-1.227,14.325c-0.125,6.667,0.528,13.301,1.487,19.889
		c0.009,0.064,0.032,0.113,0.043,0.174c0.272,1.992,1.698,3.796,4.296,3.796c3.08,0,4.508-2.533,4.32-4.912
		c0.069-0.458,0.095-0.936,0.02-1.451c-0.702-4.819-1.114-9.739-1.196-14.657c0.064,0.003,0.125,0.02,0.19,0.02
		c0.948,0,1.895,0.003,2.843,0.026c0.445,0.011,0.889,0.036,1.333,0.062c0.172,0.01,1.882,0.227,0.962,0.084
		c0.33,0.051,0.658,0.072,0.983,0.074c0.279,0.049,0.567,0.087,0.88,0.087c5.804,0,5.804-9,0-9c-0.145,0-0.269,0.029-0.407,0.04
		c-2.172-0.278-4.324-0.371-6.525-0.373c0.07-0.961,0.145-1.921,0.252-2.875c0.348-3.108,0.565-3.428,3.994-3.558
		c3.111-0.118,6.268,0.431,9.352,0.765c1.257,0.136,2.22-0.202,2.926-0.795c0.077-0.056,0.144-0.121,0.216-0.182
		c0.038-0.038,0.08-0.07,0.116-0.109C236.185,338.918,235.221,333.39,230.667,333.39z"/>
	<path fill="#F9F9F9" d="M247.243,334.745c-0.083-0.004-0.157-0.022-0.243-0.022c-0.059,0-0.109,0.015-0.167,0.017
		c-0.058-0.002-0.107-0.017-0.167-0.017c-0.988,0-1.794,0.275-2.445,0.708c-0.519,0.224-0.999,0.539-1.403,0.944
		c-0.047,0.061-0.095,0.122-0.142,0.184c-0.206,0.156-0.389,0.335-0.558,0.524c-0.057,0.064-0.105,0.134-0.158,0.202
		c-0.106,0.135-0.205,0.274-0.294,0.42c-0.049,0.082-0.094,0.165-0.138,0.249c-0.077,0.149-0.144,0.301-0.205,0.458
		c-0.033,0.085-0.067,0.167-0.095,0.254c-0.019,0.06-0.03,0.124-0.046,0.185c-5.608,7.247-5.602,17.872-2.855,26.277
		c2.896,8.862,10.93,14.883,19.85,9.567C273.529,365.545,266.491,329.229,247.243,334.745z M253.635,366.924
		c-4.472,3.099-6.52-3.403-7.377-6.772c-1.19-4.678-1.455-11.833,1.925-15.746c0.101-0.117,0.171-0.239,0.256-0.359
		c0.427-0.176,0.794-0.42,1.115-0.707C257.892,340.084,259.69,362.728,253.635,366.924z"/>
	<path fill="#F9F9F9" d="M345.833,336.557c-0.003-0.427-0.068-0.813-0.161-1.177c-0.074-2.189-1.513-4.323-4.339-4.323
		c-2.789,0-4.224,2.08-4.332,4.24c-0.101,0.388-0.172,0.799-0.168,1.26c0.049,5.999,0.491,11.983,0.781,17.972
		c-4.971-5.672-9.839-11.437-15.765-16.154c-3.46-2.754-8.557-0.286-7.521,4.378c1.79,8.059,1.836,16.253,1.839,24.47
		c0.002,5.804,9.002,5.804,9,0c-0.002-4.547-0.053-9.081-0.352-13.594c4.805,5.226,9.26,10.804,14.337,15.776
		c2.845,2.786,7.588,0.734,7.682-3.182C347.071,356.317,345.914,346.457,345.833,336.557z"/>
	<path fill="#F9F9F9" d="M357,330.057c-0.5,0-0.94,0.087-1.354,0.21c-2.149,0.101-4.088,1.516-3.813,4.29
		c0.889,8.989,0.376,17.988,0.333,27c-0.006,1.19,0.38,2.122,0.979,2.824c0.546,1.13,1.549,2.019,3.018,2.267
		c0.66,0.455,1.488,0.742,2.504,0.742c0.386,0,0.742-0.045,1.077-0.119c0.151-0.013,0.297-0.013,0.453-0.041
		c9.385-1.678,18.84-6.19,18.717-17.048C378.782,338.549,368.042,330.05,357,330.057z M361.208,357.906
		c0.091-6.076,0.268-12.146-0.018-18.212c5.027,1.566,8.671,5.926,8.736,11.657C369.972,355.36,365.175,357.037,361.208,357.906z"/>
	<path fill="#F9F9F9" d="M263.833,292.89c-0.003-0.474-0.085-0.894-0.198-1.29c-0.244-2.023-1.67-3.876-4.302-3.876
		c-2.598,0-4.024,1.805-4.296,3.797c-0.122,0.418-0.208,0.864-0.204,1.37c0.044,6.163,0.436,12.321,0.524,18.475
		c-4.569-6.949-8.998-14.009-15.509-19.324c-3.05-2.489-7.451-0.952-7.682,3.182c-0.487,8.699,1.176,17.304,1,26
		c-0.007,0.336,0.024,0.647,0.074,0.944c-0.04,0.237-0.075,0.476-0.074,0.723c0.001,1.403,0.076,2.849,0.494,4.196
		c0.726,2.341,3.113,3.809,5.536,3.143c2.307-0.634,3.869-3.193,3.143-5.536c-0.063-0.203-0.096-0.411-0.141-0.616
		c-0.021-0.395-0.032-0.791-0.032-1.188c0-0.305-0.032-0.603-0.093-0.892c0.044-0.249,0.087-0.499,0.093-0.775
		c0.098-4.829-0.367-9.631-0.72-14.436c5.196,6.729,9.324,14.416,14.705,20.951c2.797,3.397,7.293,0.232,7.682-3.182
		C265.034,314.014,263.909,303.458,263.833,292.89z"/>
	<path fill="#F9F9F9" d="M297.797,288.906c-8.368-4.293-19.946-1.963-22.802,7.788c-0.265,0.906-0.256,1.725-0.052,2.442
		c-3.054,10.114-1.092,22.488,8.057,28.69c3.785,2.565,9.462,2.689,13.436,0.529c4.959-2.695,7.423-7.367,8.804-12.662
		C307.715,306.203,307.64,293.956,297.797,288.906z M296.561,313.3c-1.068,4.659-4.895,10.294-9.949,6.068
		c-5.482-4.586-4.535-14.07-2.273-19.948c0.289-0.75,0.365-1.438,0.287-2.057c2.172-2.41,6.774-1.636,9.499-0.238
		C299.409,299.835,297.614,308.707,296.561,313.3z"/>
	<path fill="#F9F9F9" d="M348,288.723c-0.112,0-0.206,0.025-0.314,0.031c-0.12-0.007-0.228-0.032-0.353-0.031
		c-9.662,0.107-19.587,1.947-29.137-0.173c-5.655-1.255-8.058,7.421-2.393,8.678c4.24,0.941,8.491,1.214,12.751,1.204
		c2.342,7.01,0.39,14.596-0.055,21.79c-0.05,0.803,0.093,1.482,0.355,2.062c0.482,1.698,1.854,3.105,4.145,3.105
		c2.736,0,4.165-2.001,4.322-4.116c0.092-0.327,0.155-0.675,0.178-1.051c0.455-7.357,2.094-14.888,0.342-22.117
		c3.159-0.17,6.323-0.348,9.491-0.383c0.112-0.001,0.208-0.027,0.316-0.035c0.119,0.008,0.226,0.035,0.351,0.035
		C353.804,297.723,353.804,288.723,348,288.723z"/>
	<path fill="#F9F9F9" d="M389.5,276.89c0.026-0.731-0.094-1.368-0.324-1.914c-0.436-1.763-1.815-3.252-4.176-3.252
		c-0.705,0-1.321,0.137-1.854,0.371c-15.283,0.615-30.529-0.638-45.796-1.191c-15.658-0.568-31.385-0.161-47.051-0.114
		c-31.433,0.095-62.866,0.265-94.299,0.268c-0.071,0-0.13,0.017-0.2,0.02c-0.522-0.22-1.118-0.353-1.8-0.353
		c-2.611,0-4.037,1.82-4.297,3.824c-0.119,0.411-0.204,0.848-0.203,1.343c0.062,35.795,2.333,71.526,2.333,107.333
		c0,1.306,0.47,2.301,1.176,3.02c0.144,2.126,1.575,4.147,4.324,4.147c0.937,0,1.706-0.252,2.34-0.645
		c0.632,0.391,1.396,0.642,2.326,0.645c17.23,0.059,34.437,1.565,51.667,0.667c0.639-0.033,1.196-0.188,1.694-0.41
		c0.831,1.604,2.181,2.93,4.131,3.708c2.831,1.129,5.844,2.879,1.702,4.38c-1.648,0.597-3.363,0.977-4.972,1.69
		c-3.563,1.58-5.099,4.761-5.093,8.576c0,0.024,0.003,0.049,0.003,0.074c-0.044,0.036-0.081,0.079-0.122,0.118
		c-14.473,4.241-55.446,24.578-39.399,44.686c6.205,7.776,14.358,13.789,21.954,20.111c0.886,0.737,1.751,1.269,2.594,1.632
		c-3.186,2.553-5.499,6.7-5.244,10.255c0.309,4.308,5.402,6.891,8.787,8.394c5.572,2.475,7.268,1.261,11.884-2.158
		c1.589-1.177,2.852-2.367,3.818-3.667c1.919,10.549,3.225,21.209,4.776,31.827c2.11,14.445,4.576,28.862,7.203,43.226
		c-11.375-2.998-28.694-1.602-33.036,10.421c-1.075,2.976-0.82,7.542,0.661,10.313c2.269,4.245,6.859,5.631,11.327,6.42
		c4.873,0.86,10.167,0.579,14.798-1.212c2.16-0.836,3.811-2.378,5.437-3.97c1.365-1.337,2.596-2.326,4.432-2.985
		c1.453-0.521,1.464,3.355,1.497,3.903c0.064,1.049,0.708,2.196,1.835,2.411c3.517,0.67,9.09,1.807,12.372-0.115
		c0.138-0.081,0.259-0.19,0.384-0.292c0.399,0.559,1.03,0.963,1.909,0.997c3.537,0.136,8.374,1.43,11.637-0.481
		c1.615-0.946,2.1-2.665,2.017-4.432c-0.155-3.312,5.377,2.143,6.546,3.026c6.41,4.846,18.39,2.779,25.242,0.18
		c8.048-3.053,11.311-10.125,7.046-17.871c-5.943-10.794-22.566-7.305-32.182-4.017c0.007-0.08,0.021-0.157,0.027-0.238
		c0.047-0.654-0.129-1.167-0.43-1.554c1.804-25.491,7.212-50.598,11.459-75.803c0.19,0.17,0.368,0.343,0.576,0.509
		c2.722,2.165,5.453,5.359,9.072,5.78c5.939,0.691,13.082-7.82,13.238-13.271c0.094-3.294-2.322-7.019-5.466-9.019
		c0.936-0.421,1.842-0.902,2.693-1.441c5.527-3.504,10.788-8.738,15.597-13.185c4.603-4.257,4.933-10.4,3.229-16.103
		c-2.178-7.287-7.762-14.469-13.388-19.408c-3.225-2.831-6.302-5.96-9.655-8.617c-3.516-2.787-7.89-4.313-11.663-6.711
		c-0.125-0.079-0.248-0.132-0.371-0.187c-1.826-1.416-5.676-4.125-4.588-4.867c4.867-3.317,6.793-4.842,7.103-11.08
		c0.003-0.055-0.001-0.106,0.001-0.16c0.475,0.171,0.995,0.286,1.593,0.286c0.118,0,0.219-0.026,0.332-0.033
		c0.114,0.007,0.215,0.033,0.334,0.033c19.223-0.011,38.444-0.322,57.667-0.333c1.488-0.001,2.578-0.606,3.302-1.487
		c0.064-0.048,0.114-0.107,0.175-0.158c1.34-0.642,2.357-1.914,2.357-3.855C392.5,348.851,388.209,312.963,389.5,276.89z
		 M242.732,492.277c-4.665-1.452-10.805-4.883-7.765-10.488c1.163-2.145,3.062-3.872,5.129-5.108
		c2.575-1.54,5.559,0.553,4.896,3.446c-0.41,1.79-1.8,2.171-2.53,0.506c-0.776-1.768-3.36-0.24-2.59,1.514
		c3.516,8.016,11.792-2.484,7.023-6.984c-0.71-0.67-1.464-1.141-2.24-1.458c1.73-1.539,3.262-3.613,4.565-5.744
		c0.303-0.496,0.548-0.985,0.764-1.469c0.462,2.202,0.969,4.395,1.606,6.563c0.141,0.478,0.382,0.839,0.675,1.116
		c0.018,0.019,0.032,0.041,0.05,0.059c0.011,0.011,0.019,0.024,0.03,0.035c0.766,2.989,1.445,5.994,2.062,9.011
		C252.872,488.292,247.661,493.811,242.732,492.277z M243.484,451.999c-1.705-1.109-4.622-2.164-2.144-4.825
		c3.661-3.931,6.026,7.103,6.312,8.257C246.476,454.171,245.054,453.02,243.484,451.999z M284.183,584.339
		c-1.869,0.697-4.667,0.338-6.936-0.066c-0.993-5.638-4.547-8.485-10.741-5.227c-1.686,0.887-3.08,2.508-4.416,3.817
		c-2.302,2.255-5.167,2.8-8.235,3.162c-4.339,0.513-13.004,0.072-14.66-4.855c-4.898-14.575,18.537-14.984,28.252-12.404
		c0.003,0.015,0.003,0.03,0.006,0.045c-0.101,0.516-0.012,1.089,0.389,1.675c3.321,4.849,10.634,7.27,16.448,5.604
		C284.192,578.801,283.986,584.412,284.183,584.339z M309.494,571.015c8.416-3.04,25.27-7.705,28.89,4.172
		c2.299,7.544-10.356,9.422-15.151,9.821c-2.993,0.249-6.049,0.22-8.953-0.576c-4.43-1.213-6.379-6.575-11.385-6.575
		c-3.221,0-5.486,2.604-5.415,5.636c-0.075,0.5,0.109,0.867,0.551,1.101c-0.989,0.372-2.396,0.19-3.426,0.17
		c-1.87-0.036-3.728-0.302-5.595-0.374c0.55-2.914,0.37-6.507,0.33-8.745c6.032,2.473,14.11,0.676,17.897-4.422
		c0.273,0.104,0.581,0.167,0.931,0.167C308.7,571.39,309.137,571.244,309.494,571.015z M316.8,479.338
		c-0.097,0.201-0.16,0.43-0.133,0.719c0.003,0.029,0.008,0.055,0.01,0.084c-4.535,29.039-11.315,57.861-13.01,87.249
		c-0.009,0.16,0.004,0.305,0.019,0.448c-2.339,4.412-10.315,4.738-14.155,2.237c-0.004-0.005-0.007-0.01-0.01-0.015
		c1.732-10.162,0.663-21.039,0.77-31.311c0.113-10.909,0.193-21.818,0.205-32.727c2.925-0.247,5.727-1.481,7.94-4.031
		c0.192-0.221,0.323-0.453,0.426-0.688c0.046-0.076,0.085-0.155,0.123-0.235c0,0,0,0,0,0c0.016-0.034,0.032-0.069,0.047-0.104v0
		c0.164-0.391,0.233-0.822,0.206-1.25c-0.003-0.043-0.006-0.085-0.01-0.128c0,0,0,0,0,0c-0.01-0.096-0.024-0.19-0.044-0.284v0
		c-0.004-0.021-0.011-0.041-0.016-0.062c-0.028-0.119-0.06-0.236-0.104-0.35v0c-0.033-0.088-0.072-0.174-0.115-0.257c0,0,0,0,0,0
		c-0.018-0.035-0.034-0.072-0.054-0.107c-0.009-0.016-0.022-0.03-0.032-0.046c-0.152-0.249-0.346-0.471-0.588-0.648l0,0
		c-0.028-0.021-0.063-0.035-0.092-0.055c-0.191-0.126-0.408-0.224-0.651-0.289c-0.023-0.006-0.042-0.016-0.066-0.021h0
		c-0.041-0.01-0.083-0.019-0.126-0.027h0c-0.16-0.03-0.327-0.05-0.508-0.05c-0.241,0-0.458,0.036-0.663,0.087c0,0,0,0,0,0
		c-0.057,0.014-0.108,0.034-0.161,0.052c0,0,0,0,0,0c-0.179,0.059-0.344,0.135-0.493,0.229c-0.015,0.009-0.03,0.017-0.044,0.026l0,0
		c-0.332,0.221-0.586,0.519-0.761,0.864c0,0,0,0,0,0s0,0,0,0c-3.509,3.795-8.923,2.824-12.61-0.36
		c-2.427-2.096-5.98,1.424-3.536,3.536c2.016,1.742,4.424,3.035,6.93,3.719c-0.01,10.433-0.085,20.865-0.188,31.297
		c-0.05,5.057-0.1,10.114-0.165,15.17c-0.075,5.825,0.503,11.606-0.554,17.381c-0.062,0.341-0.056,0.659-0.004,0.954
		c-0.001,0.074,0.021,0.145,0.026,0.219c-3.357,2.169-9.35,0.903-11.964-2.029c0.464-0.704,0.556-1.647,0.266-2.443
		c-0.002-0.012,0-0.022-0.003-0.034c-2.895-15.653-5.549-31.37-7.908-47.114c-2.056-13.717-3.587-27.502-6.629-41.031
		c7.422,5.83,17.728,7.813,27.087,7.951c10.692,0.158,23.429-2.259,31.793-9.564C317.102,477.314,316.956,478.326,316.8,479.338z
		 M339.457,478.122c2.362,3.558-1.011,7.773-3.4,10.24c-1.306,1.349-2.904,2.347-4.675,2.947c-2.279,0.773-4.206-1.332-5.764-2.665
		c-1.843-1.577-3.486-2.797-4.588-4.486c0.714-4.382,1.367-8.77,1.97-13.162c1.487,1.322,3.16,2.134,4.918,2.532
		c-1.556,1.903-2.6,4.598-1.284,6.845c1.466,2.502,4.776,0.68,6.623-0.188c1.75-0.823,0.226-3.409-1.514-2.59
		c-1.414,0.665-5.462,2.801-1.456-2.373C333.317,471.308,337.908,475.788,339.457,478.122z M321.596,456.687
		c0.288-2.214,0.683-4.415,1.284-6.592c1.044-3.787,2.83-6.854,7.138-5.72c2.289,0.603-6.056,9.366-6.821,10.241
		C322.604,455.295,322.071,455.987,321.596,456.687z M327.474,414.067c1.49,0.776,2.981,1.55,4.43,2.407
		c3.434,2.032,6.217,5.52,9.269,8.096c6.261,5.285,13.34,13.642,14.135,22.169c0.638,6.843-6.87,10.502-11.187,14.501
		c-2.699,2.5-5.386,4.881-8.636,6.652c-5.251,2.861-14.116-1.031-10.172-7.831c2.824-4.869,10.539-8.996,10.539-15.272
		c0-4.509-6.133-6.69-9.85-5.643c-11.438,3.223-9.703,22.648-10.617,32.103c-7.229,7.671-19.985,9.57-29.925,9.616
		c-10.621,0.049-23.397-2.908-29.135-12.737c-0.275-0.471-0.63-0.78-1.018-0.971c-1.585-7.795-2.229-16.497-6.441-23.004
		c-3.652-5.642-10.346-2.146-13.189,2.142c-3.504,5.286,4.137,8.902,7.221,11.362c5.551,4.427,1.434,8.94-2.188,12.923
		c-2.479,2.726-12.023-7.062-14.062-8.794c-5.062-4.298-13.481-10.182-13.361-17.59c0.088-5.449,5.124-10.236,8.862-13.578
		c8.289-7.411,19.379-13.432,30.074-16.568c0.167-0.003,0.326-0.018,0.475-0.047c0.906,1.393,2.15,2.546,3.636,3.126
		c3.818,1.491,6.681-0.428,10.155-1.821c0.208-0.083,0.372-0.143,0.513-0.192c-0.17,0.884-0.615,1.903-0.916,2.586
		c-0.775,1.761-1.618,3.469-2.271,5.282c-1.3,3.613-0.209,7.068,3.211,8.848c3.75,1.952,6.516,0.221,9.116-2.423
		c2.576-2.62,5.32,4.789,6.277,5.831c1.795,1.955,4.193,3.084,6.707,3.83c4.086,1.214,7.095-2.633,8.274-5.919
		c0.832-2.318,0.678-4.991,2.339-6.976c1.889-2.257,7.359,1.218,9.304,1.97C318.508,431.804,327.451,423.789,327.474,414.067z
		 M321.425,393.843c-0.72,3.695-9.305,3.91-7.455,9.206c1.862,5.329,8.375,5.978,8.546,11.975c0.106,3.694-3.597,7.84-6.756,9.159
		c-2.748,1.148-6.385-1.377-8.861-2.34c-3.91-1.521-7.288-1.914-10.694,0.799c-3.932,3.134-1.609,14.174-9.168,10.096
		c-2.189-1.181-2.491-4.819-4.3-6.479c-1.498-1.374-3.06-2.496-5.198-2.496c-1.914,0-3.49,0.998-4.931,2.113
		c-0.801,0.619-2.987,4.137-4.32,0.627c-0.444-1.169,0.816-3.452,1.263-4.445c1.302-2.891,3.389-6.487,2.156-9.733
		c-1.215-3.2-4.829-2.525-7.337-1.52c-1.509,0.605-2.939,1.394-4.487,1.897c-3.471,1.129-4.208-4.302-3.283-6.372
		c1.301-2.911,7.679-2.675,10.063-4.886c2.009-1.864,2.344-4.154,1.581-6.719c-1.329-4.47-8.397-3.593-8.744-8.002
		c-0.192-2.443,0.229-4.881,2.4-6.3c3.243-2.121,6.04-0.006,8.073,2.414c2.48,2.952,6.279,3.098,9.723,2.052
		c5.632-1.709,10.62-10.499,3.989-14.351c-2.059-1.196-4.936-1.828-7.279-1.428c0.516-2.338,1.842-3.841,3.732-4.74
		c0.068,0.003,0.126,0.019,0.196,0.019c1.126,0,2.027-0.344,2.716-0.891c0.966-0.16,2.01-0.234,3.117-0.234
		c4.244-0.001,12.028,1.527,13.685,6.15c1.632,4.555-1.346,9.478,0.673,14.091c1.41,3.22,5.825,2.609,8.455,1.89
		c2.655-0.727,4.84-2.125,7.746-1.621C321.653,384.629,322.198,389.874,321.425,393.843z M329,381.723
		c-0.118,0-0.219,0.026-0.332,0.033c-0.114-0.007-0.215-0.033-0.334-0.033c-1.692,0-2.875,0.775-3.581,1.858
		c-1.537-2.108-3.867-3.663-6.697-4.629c-2.507-0.856-5.2-0.172-7.585,0.668c-1.862,0.656-5.693,2.867-5.877-0.186
		c-0.312-5.179,1.507-9.885-1.393-14.242c0.254-0.29,0.486-0.628,0.685-1.032c4.335-8.807,5.766-19.847,1.333-28.876
		c-2.558-5.21-10.319-0.646-7.771,4.542c2.863,5.832,1.502,13.879-1.226,19.56c-0.16,0.218-0.299,0.448-0.416,0.692
		c-1.933-0.671-3.935-1.128-5.709-1.435c-1.922-0.332-3.831-0.434-5.659-0.314c-0.229-0.711-0.63-1.35-1.183-1.858
		c-2.426-4.864-2.758-12.136-0.702-16.978c2.241-5.277-5.509-9.869-7.771-4.542c-3.379,7.959-3.483,18.702,0.88,26.414
		c-2.901,2.259-4.686,5.786-4.495,10.691c0.011,0.294,0.074,0.552,0.16,0.793c0.142,0.63,0.501,1.195,1.076,1.537
		c0.004,0.109,0.004,0.216,0.02,0.335c0.429,3.183,5.246,1.822,4.821-1.329c0.203,1.508,6.311-0.347,4.141,4.292
		c-1.692,3.615-6.447,3.318-8.614,0.739c-3.084-3.671-7.863-4.827-12.302-2.812c-2.628,1.193-4.553,3.72-5.496,6.572
		c-0.4-0.092-0.825-0.15-1.305-0.125c-17.23,0.898-34.437-0.607-51.667-0.667c-0.428-0.001-0.818,0.055-1.179,0.149
		c-0.066-33.855-2.07-67.644-2.284-101.485c30.588-0.012,61.175-0.169,91.762-0.265c15.673-0.049,31.384-0.376,47.051,0.114
		c14.357,0.449,28.672,1.625,43.037,1.26c-0.804,33.471,2.841,66.796,3.089,100.24C365.316,381.442,347.159,381.713,329,381.723z"/>
</g>
</svg>
