<?xml version="1.0" encoding="utf-8"?>
<!-- Generator: Adobe Illustrator 17.0.0, SVG Export Plug-In . SVG Version: 6.00 Build 0)  -->
<!DOCTYPE svg PUBLIC "-//W3C//DTD SVG 1.1//EN" "http://www.w3.org/Graphics/SVG/1.1/DTD/svg11.dtd">
<svg version="1.1" xmlns="http://www.w3.org/2000/svg" xmlns:xlink="http://www.w3.org/1999/xlink" x="0px" y="0px" width="612px"
	 height="792px" viewBox="0 0 612 792" enable-background="new 0 0 612 792" xml:space="preserve">
<g id="Слой_2">
	<rect fill="#020000" width="612" height="792"/>
</g>
<g id="Слой_28">
	<path fill="#662714" d="M270,429.5c4.626,20.909,18.269,50.698,12.235,71.125c-3.222,10.908-12.769,26.038-25.159,26.299
		c-0.203-10.135-2.78-55.854,10.337-56.012c-0.301-4.388-1.231-6.307-5.827-8.498c0.193-0.05-0.346-1.682-0.536-1.813
		c1.719,0.065,3.313,0.259,4.876,0.321c-5.025-8.819-2.84-24.08-1.462-35.347c3.793,0.56,4.427,3.177,5.536,6.924"/>
</g>
<g id="Слой_37">
	<path fill="#7C301A" d="M267.5,425.5c0,28.571-1.399,57.747,8.035,83.986c7.832-4.144,5.584-15.013,14.538-20.472
		c7.457-4.546,22.791-2.768,22.432-13.995c-12.963-5.911-37.299-54.221-45.506-49.52"/>
</g>
<g id="Слой_29">
	<path fill="#662714" d="M277.5,434.5c-4.113,24.811,10.599,43.525,33.424,46.423c1.058-5.239,5.327-7.562,10.9-6.996
		c-0.569-9.464-16.612-11.916-23.571-17.062C290.838,451.38,285.236,443.35,278,437.5"/>
</g>
<g id="Слой_32">
	<path fill="#7C301A" d="M266.5,294.5c16.075,6.82,44.117-1.852,62.042-2c32.605-0.269,65.205,0.067,97.059,2.711
		c-2.17,39.049-56.88,60.958-84.594,76.804c-14.404,8.236-59.545,45.962-73.142,24.12c-19.42-31.197,5.273-68.05,3.635-99.635"/>
</g>
<g id="Слой_36">
	<path fill="#662714" d="M418.5,293.5c-8.854,31.444-56.411,55.023-81.514,70.875C316.2,377.499,299.721,392.739,279.444,405
		c8.255,6.069,43.914-18.337,54.279-23.084c18.467-8.456,36.136-19.145,53.639-28.916c29.86-16.67,66.148-31.285,87.601-57.413
		C461.28,295.279,428.76,289.733,419,294"/>
</g>
<g id="Слой_30">
	<path fill="#662714" d="M306,294c-10.972,15.471-19.964,31.28-28.113,47.987c-5.022,10.296-7.49,20.168-9.524,31.517
		c-2.473,13.797,0.973,15.781,2.57,27.923c-1.887,0.372-4.439,0.222-6.355-0.016c-5.145-34.658-2.843-70.259-6.002-104.833
		C272.667,293.342,288.74,295,303.5,295"/>
</g>
<g id="Слой_21">
	<path fill="#FEE3E3" d="M265.5,402.25c-1.048,6.149-4.617,10.908-1.269,16.877c2.717,4.842,12.129,10.588,16.7,5.817
		c0.728-0.76,3.896-13.32,3.594-14.444c-1.852-6.881-14.033-6.3-19.275-7.25"/>
</g>
<g id="Слой_23">
	<path fill="#FECDCE" d="M249.75,442.25c1.961,10.419,3.506,19.908,1.263,30.486c-8.21-2.475-7.337-12.149-16.983-9.529
		c-2.685-8.163-4.829-16.203-5.781-24.957c-0.512-4.716,1.139-11.418,8.188-10.749c2.553,0.242,7.059,5.383,8.825,7.177
		c2.222,2.257,5.999,5.864,4.487,8.573"/>
</g>
<g id="Слой_22">
	<path fill="#F0B5B6" d="M249.75,443.25c-4.475,7.764-7.235,32.892,7.831,31.743c1.171-0.089,8.918-3.61,9.469-4.669
		c2.658-5.11-3.975-5.252-5.773-9.287c11.551,3.033-0.088-7.012-2.651-8.724c-3.338-2.229-7.289-5.265-9.126-8.813"/>
</g>
<g id="Слой_24">
	<path fill="#723514" d="M137,515.5c-2.14,12.453,19.188,4.396,20.794,13.719c8.286,0.282,2.391-10.955,1.413-14.925
		c-7.741-0.664-16.112-2.13-22.956,1.706"/>
	<path fill="#723514" d="M207.75,518.75c2.308,3.983,6.572,6.243,9.006,10.444c1.619,2.795,1.492,8.418,3.238,10.568
		c3.608,4.44,8.714,2.872,10.823-1.998c6.018-13.899-12.64-19.445-23.317-18.764"/>
</g>
<g id="Слой_25">
	<path fill="#90461D" d="M137.25,515.25c2.356,5.295,12.653,5.672,18.211,6.843c-0.236,6.425-10.543,13.215-16.065,11.738
		c-8.826-2.361-12.951-14.027-3.646-18.581"/>
	<path fill="#90461D" d="M208.5,516.75c4.135,5.867,14.895,7.692,14.249,16.505c-0.447,6.099-4.086,6.32-8.194,4.746
		c-4.088-1.567-7.127-6.442-11.218-8.237c-6.492-2.848-11.122-1.102-11.061-10.732c5.222-1.827,11.873,0.37,16.723-1.282"/>
</g>
<g id="Слой_14">
	<path fill="#AA5526" d="M138.5,515c-9.988,8.355-2.38,14.847,7.461,15.543c-4.459,7.481-20.972,19.751-25.81,7.482
		c-4.525-11.476,6.653-20.003,16.598-22.524"/>
	<path fill="#AA5526" d="M190.75,518.5c2.428,2.211,15.676,12.745,4.781,14.286c-2.594-3.695-4.703-8.724-4.531-13.536"/>
</g>
<g id="Слой_15">
	<path fill="#022C33" d="M177.25,430.75c2.733,9.648-0.7,23.633,0.112,34.227c0.648,8.45,3.238,35.063,14.6,35.654
		c0.462-5.632-1.97-10.97-1.518-16.893c0.453-5.939-0.21-11.667-0.2-17.613c0.018-11.049,4.001-23.697,8.243-33.36
		c1.379-3.142,3.436-5.071,3.219-8.72c-7.264-1.416-20.214,4.054-26.706,6.456"/>
</g>
<g id="Слой_16">
	<path fill="#043E47" d="M179.75,430.75c0,17.005,1.185,35.97,5.001,52.478c2.853,12.339,10.546,21.743,12.243,33.547
		c-17.697,5.524-25.312-37.857-26.994-49.276c-0.672-4.562-0.19-17.296-4.95-18.974c-9.338,15.154-12.097,40.313-8.794,58.232
		c0.434,2.354,0.79,4.939,1.206,7.206c-12.685,3.081-11.095-37.27-13.13-44.731c-2.462-9.029-3.558-19.131-4.576-28.163
		c-0.633-5.618-0.363-10.888,1.194-16.119c0.536-1.8,4.453-14.597,6.037-15.444c-0.008,0.004,0.503-1.082,0.471-0.99
		c6.053,8.919,21.596,21.056,32.292,22.984"/>
</g>
<g id="Слой_17">
	<path fill="#0B6574" d="M146.694,462.609c0.023-16.633,0.264-33.307,0.306-49.859l0.25,0.75c-1.427-7.297-0.878-16.343-5.69-22.518
		c-1.374,0.791-2.118,1.925-3.23,3.125c-0.453,0.489-0.857,1.01-1.221,1.559c0.378,0.5,0.523,1.171,0.219,1.977
		c-1.255,3.33-2.211,6.73-2.75,10.25c-0.061,0.397-0.193,0.718-0.374,0.974c0.026,6.162,0.985,12.621,0.557,17.435
		c-0.904,10.177-0.5,20.919,0.238,31.25c0.678,9.478,2.011,18.601,4.007,27.936c1.681,7.862,8.116,24.878,15.486,27.974
		C151.672,496.841,146.67,480.624,146.694,462.609z"/>
</g>
<g id="Слой_18">
	<path fill="#0F7583" d="M190.5,409c-0.602,8.275-12.842,16.954-19.168,21.019c9.791-0.456,20.583-0.84,28.911-6.533
		c8.909-6.09-5.017-10.373-9.993-14.236"/>
</g>
<g id="Слой_19">
	<path fill="#0F7583" d="M215.25,356.75c-4.55,7.982-6.722,18.191-10.189,26.811c-2.119,5.269-5.413,9.781-5.33,15.882
		c0.174,12.734,11.562,27.233,23.492,30.819c4.856,1.46,7.238,1.971,10.057-4.026c-3.438-4.039-8.367-7.054-11.738-11.04
		c-2.256-2.668-9.946-9.731-10.324-13.122c-0.42-3.761,4.264-12.798,6.8-15.319c3.741-3.719,2.063-2.813,6.477-2.137
		c2.589,0.397,8.089,2.878,9.899,4.437c10.518,9.063,13.778,20.504,27.668,26.383c1.388-2.297,3.328-5.321,3.5-8.145
		c0.292-4.787-0.867-3.795-3.24-7.238c-3.152-4.572-5.672-7.798-8.015-12.866c-4.019-8.69-12.32-15.368-15.85-23.157
		c-0.459-0.268-1.179,0.139-1.674-0.07c-1.457-6.674-16.833-13.873-21.782-7.212"/>
</g>
<g id="Слой_5">
	<path fill="#1590A0" d="M220.25,354.75c-0.123,7.925-5.557,17.745-9.643,24.885c-1.513,2.644-6.16,6.907-6.814,8.922
		c-2.488,7.675,5.707,26.806,8.746,34.917c-9.985,0.931-23.492-18.016-26.762-25.679c-2.835-6.644-6.47-14.678-7.338-21.718
		c-0.802-6.508,0.643-20.21,3.767-26.038c6.084-11.351,38.666-9.315,38.294,5.462"/>
</g>
<g id="Слой_6">
	<path fill="#1590A0" d="M194,411c-1.644,9.738-13.667,17.275-22.751,18.248c-10.228,1.096-20.487-8.956-24.567-16.53
		c-4.141-7.688-1.595-16.361-0.654-24.111c-5.139-6.277-0.446-12.962,5.241-16.363c2.414-1.443,5.172-2.473,7.825-3.431
		c6.828-2.466,8.315-0.874,12.945,6.232c6.526,10.015,12.105,30.56,22.461,36.456"/>
</g>
<g id="Слой_7">
	<path fill="#1CB0C0" d="M185,355c-0.443,19.379,4.908,40.847,12.818,58.194c-8.749-7.122-17.616-13.282-24.006-22.119
		c-2.041-2.822-9.969-22.626-12.035-22.877c-0.051-0.034-0.103-0.068-0.154-0.101c-13.452,9.861-12.83,30.327-13.86,45.009
		c-8.351-16.592-6.14-27.829-3.219-45.568c4.128-2.962,3.183-7.243,5.012-11.899c2.026-5.158,8.153-8.345,10.506-12.576
		c2.629-4.729,0.061-9.541,4.908-13.811c5.029-4.431,13.597-3.849,19.198-0.931c9.91,5.161,6.686,20.233,0.582,28.431"/>
</g>
<g id="Слой_8">
	<path fill="#F0B5B6" d="M224.25,335.25c-6.666,8.758-17.412,17.493-23.861,26.657c8.09-1.954,14.852-3.587,21.298-9.415
		c6.473-5.853,11.846-12.304,2.314-17.492"/>
</g>
<g id="Слой_10">
	<path fill="#FEE3E3" d="M225,311.25c-13.708,14.183-37.201,21.614-39.694,44.762c0.044-4.567-3.299-8.461-2.319-13.767
		c0.898-4.861,4.344-8.446,6.088-12.756c1.645-4.066,0.353-8.793,3.925-10.475c5.566-2.622,7.307,2.337,13.199-2.264
		c4.169-3.255,6.502-6.533,11.958-8.587c2.226,1.433,4.637,2.12,7.093,2.838"/>
</g>
<g id="Слой_9">
	<path fill="#FECDCE" d="M223.5,339c-3.117,7.28-17.046,22.464-25.5,23.25c-15.719,1.461-15.645-17.538-8.98-27.669
		c6.319-9.605,20.902-22.086,32.258-24.088c15.761-2.778,7.399,22.223,1.973,29.507"/>
</g>
<g id="Слой_11">
	<path fill="#D66B3F" d="M245.75,312.5c-4.618,7.697-18.18,11.536-21.444,20.299c-4.534,12.172,14.002,18.445,21.944,12.2
		c3.684-2.897,7.296-13.815,2.007-16.542c-1.736,7.092-10.581,9.763-10.025,0.349c0.381-6.45,8.076-8.03,7.018-15.556"/>
</g>
<g id="Слой_12">
	<path fill="#FD844D" d="M229.5,300.25c-4.126,2.225-12.904,5.677-14.387,10.731c15.93-11.5,8.648,18.544,9.187,24.505
		c3.851-4.368,7.143-9.057,12.036-12.236c3.225-2.096,9.017-3.109,10.22-7.194c0.89-3.023-2.854-10.029-4.943-12.248
		c-3.439-3.654-6.797-3.831-11.851-2.539c-0.579,0.148-1.163-0.004-1.762,0.231"/>
</g>
<g id="Слой_13">
	<path fill="#FD9E5B" d="M237.5,300.5c-7.219,0.547-14.765,5.671-21.262,9c-5.092,2.609-10.849,9.786-16.437,10.236
		c-1.267-8.332-6.353-22.518,6.198-23.486c5.078-0.392,7.144,3.119,11.056,4.694c6.635,2.673,11.835-1.018,18.695-0.194"/>
</g>
<g id="Слой_3">
	<path fill="#022C33" d="M212.567,334.703c-0.299-0.968-1.314-0.994-2.227-0.758c-1.723,0.707-5.374,4.62-2.828,5.862
		c0.885,0.105,1.967-0.632,2.663-1.109C211.236,337.971,213.022,336.176,212.567,334.703z"/>
	<path fill="#022C33" d="M219.899,341.765c-0.02,0.002-0.039,0.005-0.06,0.006c-2.323,0.908-6.448,5.92-3.947,6.421
		C218.794,348.773,222.818,342.759,219.899,341.765z"/>
	<path fill="#F9F9F9" d="M478,291.5c-17.823-0.357-35.615-1.544-53.436-1.962c-18.346-0.431-36.714-0.498-55.065-0.588
		c-36.638-0.18-73.312,0.421-109.833,3.55c-0.949,0.081-1.685,0.472-2.232,1.017c-1.67,0.822-2.184,2.941-1.547,4.573
		c0.91,32.579,3.063,65.13,5.082,97.655c-1.712-2.833-3.16-5.834-4.602-8.814c-2.587-5.347-5.614-10.028-9.226-14.734
		c-3.377-4.399-6.61-9.25-10.788-12.921c-3.438-3.02-7.948-4.625-11.847-6.995c1.694-1.756,3.268-3.639,4.752-5.567
		c5.93,3.427,14.864,3.337,19.603-1.241c5.134-4.958,3.157-15.056-0.192-20.356c-0.809-1.28-2.731-0.741-2.795,0.757
		c-0.095,2.234-0.313,4.458-1.233,6.524c-1.23,2.763-5.304,1.387-5.551-1.455c-0.182-2.103,1.525-3.827,2.844-5.164
		c3.685-3.735,6.335-6.231,6.178-11.838c-0.13-4.637-2.635-9.275-5.678-12.627c-3.154-3.475-7.884-3.297-12.074-2.414
		c-2.872,0.606-5.6,1.601-8.537,1.921c-3.983,0.434-4.926-2.313-7.693-4.117c-3.48-2.269-9.286-2.519-13.052-0.635
		c-3.547,1.774-4.857,4.872-5.019,8.708c-0.113,2.681,2.78,8.824,2.516,12.309c-0.062-0.045-0.121-0.092-0.195-0.132
		c-2.728-1.475-8.122-3.409-9.927,0.663c-1.487,3.355-0.518,6.089,2.177,7.908c-0.607,0.699-1.179,1.418-1.724,2.152
		c-0.213-0.392-0.549-0.732-1.043-0.94c-9.915-4.172-20.89-4.154-26.797,6.034c-0.542,0.934-1.004,1.909-1.423,2.905
		c-0.334,0.15-0.639,0.411-0.872,0.814c-15.618,27.042-25.763,59.263-26.509,90.582c-0.358,15.039,0.62,30.353,2.903,45.216
		c2.093,13.623,5.994,27.362,13.524,39.014c-16.546,0.038-37.216,10.27-29.587,29.488c3.017,7.6,10.293,5.838,15.798,2.166
		c6.66-4.441,12.829-10.12,18.962-15.351c0.332,1.056,0.63,2.123,0.958,3.177c0.403,1.297,1.76,1.773,2.938,1.195
		c1.74-0.854,3.376-2.331,5.272-2.798c1.08-0.266,1.65-1.424,1.397-2.46c-1.028-4.2-1.145-8.493-2.952-12.478
		c-0.135-0.297-0.308-0.523-0.506-0.688c-6.573-20.687-1.364-41.829,4.656-62.043c2.213,23.681,7.434,47.21,21.647,66.789
		c0.015,0.077,0.023,0.152,0.048,0.233c1.481,4.779,4.271,8.977,5.75,13.75c0.253,0.815,1.027,1.521,1.929,1.468
		c1.417-0.083,2.833-0.167,4.25-0.25c1.149-0.068,1.919-0.862,2-2c0.025-0.345,0.034-0.688,0.052-1.032
		c8.987,7.339,26.928,22.449,32.48,7.353c6.738-18.321-21.054-23.045-34.046-22.64c-0.141-0.157-0.293-0.292-0.462-0.389
		c-6.672-13.839-7.15-30.833-6.257-45.823c0.947-15.897,4.416-32.522,12.216-46.557c5.473,3.746,11.188,7.143,17.015,10.292
		c1.092,1.165,2.261,2.265,3.206,3.554c0.096,0.132,0.209,0.245,0.329,0.347c2.995,5.497,2.568,11.895,3.483,17.952
		c0.577,3.815,2.882,9.934,7.115,11.11c1.452,0.404,2.852,0.203,3.921-0.484c3.202,3.75,6.712,7.352,11.042,9.753
		c1.359,0.754,4.279,1.913,6.445,1.601c-1.063,16.482-2.721,32.934-2.789,49.463c-0.005,1.146,0.524,1.943,1.262,2.41
		c0.644,0.555,1.506,0.882,2.535,0.732c12.719-1.852,18.74-12.286,23.758-22.94c2.398-5.092,4.774-10.379,8.77-14.441
		c4.817-4.896,11.722-5.263,18.127-4.119c0.658,0.117,1.245,0.03,1.755-0.182c1.136-0.021,2.18-0.67,2.435-2.163
		c1.268-7.421,7.561-8.679,14.06-6.905c0.068,0.019,0.13,0.017,0.197,0.031c0.875,0.421,1.801,0.755,2.803,0.969
		c1.598,0.341,3.238-0.451,3.69-2.095c0.138-0.502,0.123-1.039-0.011-1.546c0.089-1.222-0.46-2.494-1.663-3.01
		c-0.139-0.116-0.281-0.232-0.455-0.332c-9.894-5.719-19.872-11.275-29.217-17.878c-9.224-6.517-19.151-14.879-22.637-26.032
		c1.861-0.5,3.46-1.593,4.291-3.574c0.81-1.931,0.436-3.483-0.57-4.58c0.951-1.24,1.067-2.829,0.229-4.292
		c1.2-1.078,1.776-2.807,1.73-4.61c0.058-0.038,0.116-0.06,0.174-0.103c14.478-10.59,30.581-18.401,46.847-25.819
		c17.172-7.831,33.984-15.851,50.358-25.261c33.143-19.048,66.395-38.053,96.403-61.889c0.482-0.383,0.762-0.813,0.908-1.254
		C482.12,295.097,481.198,291.564,478,291.5z M205.536,298.096c4.111-0.492,6.473,0.713,9.226,3.7
		c1.458,1.582,3.798,1.892,5.812,2.055c6.703,0.542,13.72-5.645,19.74-0.416c2.861,2.485,4.339,6.891,4.799,10.506
		c0.565,4.445-2.374,7.014-5.299,9.717c-3.031,2.802-5.123,7.319-2.439,11.028c1.599,2.209,5.799,3.174,8.018,1.407
		c1.466-1.167,2.294-2.803,2.776-4.585c0.497,1.91,0.699,3.898,0.651,5.927c-0.159,6.821-5.841,8.831-11.79,8.502
		c-14.379-0.796-12.509-15.368-9.447-25.008c2.075-6.533,0.041-11.822-7.109-12.918c-3.598-0.552-7.253,0.6-10.227,2.57
		c-1.556,1.031-2.676,2.675-3.831,4.106c-1.304,1.616-2.904,2.717-4.69,3.525C202.964,311.307,192.688,299.633,205.536,298.096z
		 M194.061,326.186c0.616-0.636,0.604-1.949-0.304-2.356c-3.121-1.401,0.541-5.674,3.111-4.285c0.043,0.023,0.085,0.035,0.128,0.054
		c-0.595,0.576-0.431,1.466,0.103,2.015c0.218,0.435,0.64,0.761,1.276,0.761c0.042,0,0.078-0.009,0.118-0.012
		c0.166,0.014,0.34,0.009,0.53-0.042c4.932-1.32,7.918-3.577,11.1-7.463c4.759-5.812,17.039-5.583,14.903,4.06
		c-1.908,8.615-5.838,17.503,0.912,25.142c0.282,0.32,0.593,0.618,0.912,0.909c-0.007,0.009-0.015,0.014-0.022,0.023
		c-3.559,4.649-7.534,8.686-12.688,11.55c-5.239,2.911-15.772,6.055-21.274,3.427C179.094,353.392,185.948,334.562,194.061,326.186z
		 M158.314,516.999c1.106,2.851,1.343,5.968,1.885,8.981c-0.782,0.377-1.533,0.834-2.28,1.294c-0.429-1.361-0.881-2.71-1.442-4.034
		c-0.546-1.286-2.265-1.132-3.141-0.405c-5.095,4.231-10.294,8.31-15.341,12.65c-3.826,3.291-12.292,11.149-15.416,3.279
		c-6.855-17.269,15.765-24.295,29.086-23.359c0.02,0.005,0.033,0.017,0.054,0.021C153.927,515.916,156.135,516.392,158.314,516.999z
		 M203.077,519.155c0.318,0.006,0.641,0.016,0.969,0.027c0.234,0.016,0.469,0.037,0.705,0.068c0.178,0.023,0.333,0.011,0.478-0.017
		c11.863,0.609,28.395,4.526,24.697,17.525c-3.262,11.463-25.133-8.752-29.415-11.984c-1.316-0.994-2.914,0.389-3.009,1.727
		c-0.074,1.039-0.113,2.075-0.156,3.112c-0.317,0.019-0.635,0.037-0.952,0.056c-1.08-2.903-2.533-5.64-3.77-8.47
		c0.009-0.001,0.018,0,0.027-0.001C196.177,520.688,199.526,519.192,203.077,519.155z M189.121,467.479
		c-1.246,15.563-0.557,33.383,6.028,47.952c-1.352,0.294-2.758,0.355-4.117,0.14c-0.29-0.046-0.559-0.03-0.808,0.025
		c-14.967-21.039-19.478-46.526-21.224-71.847c-0.038-0.553-0.258-0.983-0.571-1.297c-0.142-0.376-0.352-0.681-0.618-1.013
		c-0.423-0.527-1.275-0.535-1.818-0.235c-1.059,0.586-1.679,1.478-1.976,2.494c-0.186,0.205-0.348,0.449-0.445,0.77
		c-6.661,21.961-13.465,45.207-7.121,67.924c-0.865-0.202-1.732-0.394-2.6-0.585c-16.704-23.454-17.553-55.536-17.603-83.264
		c-0.02-10.919,1.326-22.054,3.727-33.063c1.572,11.785,6.597,23.159,16.027,30.707c13.065,10.459,29.724,6.956,43.173-0.698
		C193.05,438.571,190.266,453.172,189.121,467.479z M157.933,422.641c-9.335-7.473-13.561-19.611-14.356-31.397
		c0.22-4.112,0.185-8.234,0.813-12.276c3.405-10.762,7.731-21.227,12.733-31.047c-0.225,5.58,0.526,11.272,1.635,16.323
		c3.162,14.403,13.241,27.324,22.959,37.995c5.877,6.453,12.462,12.17,19.488,17.307
		C188.126,428.193,171.35,433.381,157.933,422.641z M226.947,430.69c-13.505-7.081-26.207-15.455-37.268-26.023
		c-10.324-9.863-20.883-22.666-25.621-36.328c-3.206-9.245-4.067-20.131-1.224-29.563c3.529-11.706,13.994-12.377,23.968-8.18
		c0.053,0.022,0.102,0.03,0.154,0.047c-2.447,4.12-4.02,8.693-4.612,13.639c-0.952,7.962,1.235,13.198,7.936,17.662
		c6.423,4.278,15.982,1.038,22.529-1.493c3.253-1.257,6.118-3.122,8.706-5.338c0.049,0.038,0.089,0.08,0.143,0.115
		c4.292,2.814,9.205,4.539,13.094,7.956c4.794,4.212,8.495,10.455,12.355,15.494c6.027,7.867,8.371,17.852,14.979,25.405
		c0.208,0.238,0.433,0.402,0.664,0.507c-0.386,2.505-1.541,5.615-2.03,8.603c-2.033-1.679-4.102-3.314-5.994-5.163
		c-3.845-3.756-6.981-8.373-10.612-12.35c-6.032-6.605-13.981-11.216-22.105-14.739c-0.061-0.026-0.12-0.038-0.181-0.058
		c-0.681-0.391-1.547-0.394-2.243,0.371c-4.363,4.791-6.89,10.861-8.983,16.956c-5.111-6.969-9.677-14.355-13.709-22.051
		c-1.197-2.286-4.65-0.263-3.454,2.019c9.537,18.204,22.035,34.819,37.735,48.13C229.494,427.483,228.058,428.962,226.947,430.69z
		 M259.324,450.24c-2.912-2.041-5.278-4.337-7.373-7.404c-2.417-3.537-3.495-8.061-6.403-11.245
		c-2.586-2.832-5.786-4.439-9.199-6.002c-0.107-0.175-0.242-0.346-0.435-0.504c-8.36-6.831-15.803-14.581-22.392-23.014
		c1.933-5.912,4.044-12.113,8.015-16.973c7.882,3.591,14.979,8.184,20.882,14.648c3.282,3.594,6.229,7.49,9.479,11.109
		c2.688,2.993,6.18,5.209,9.16,7.922c0.038,0.092,0.091,0.178,0.133,0.269c-0.429,0.474-0.706,1.118-0.691,1.953
		C260.68,430.771,260.048,440.503,259.324,450.24z M256.085,464.686c-2.41-1.97-4.899-4.202-6.79-6.693
		c-0.118-0.155-0.251-0.276-0.393-0.37c-0.12-0.209-0.246-0.414-0.357-0.63c-0.179-0.348-0.429-0.558-0.705-0.666
		c-0.015-0.029-0.03-0.055-0.045-0.084c-0.37-0.729-1.379-0.933-2.052-0.538c-0.736,0.431-0.908,1.323-0.538,2.052
		c0.466,0.919,1.013,1.811,1.735,2.554c0.053,0.054,0.117,0.086,0.177,0.128c0.519,0.779,1.065,1.541,1.589,2.319
		c2.318,3.77,6.235,6.341,8.362,10.298c0.471,0.877,0.571,0.474-0.379,0.447c-2.207-0.062-4.234-1.302-6.007-2.492
		c-3.292-2.208-6.049-5.298-8.606-8.352c0.103-0.407,0.163-0.845,0.165-1.319c0.017-5.991-5.242-8.916-6.044-14.489
		c-0.274-1.909-3.165-1.094-2.893,0.797c0.414,2.877,1.773,4.901,3.517,7.18c0.519,0.664,0.995,1.358,1.426,2.082
		c1.658,2.239,0.762,3.748-2.686,4.528c-1.788-1.618-2.565-4.119-3.141-6.359c-1.639-6.374-0.725-12.8-3.452-18.789
		c0.106-0.531,0.212-1.062,0.318-1.592c0.037-0.062,0.075-0.12,0.107-0.19c1.278-2.762,3.298-4.702,5.998-6.053
		c5.393,2.638,8.543,5.478,11.374,11.253c2.122,4.329,5.059,9.033,9.078,11.864c1.304,0.919,2.671,1.746,4.01,2.611
		c0.838,0.541,1.653,1.112,2.464,1.692c-0.236-0.169,4.632,3.934,1.419,3.343c-4.24-0.78-8.761-4.521-11.926-7.28
		c-1.092-0.951-2.567,0.008-2.61,1.084c-0.268,0.406-0.333,0.936,0.004,1.484c2.472,4.021,6.658,5.941,10.235,8.804
		c1.182,0.946,2.501,1.701,3.778,2.51c0.914,0.579,5.275,3.079,2.755,3.821C262.841,470.562,258.226,466.436,256.085,464.686z
		 M296.604,457.196c7.227,5.573,15.056,10.281,22.961,14.84c-5.107,0.903-9.407,3.908-11.151,9.42
		c-5.918-0.741-11.777-0.304-17.117,2.771c-5,2.879-8.351,7.981-10.993,12.949c-5.117,9.622-8.553,21.49-19.246,25.24
		c0.285-16.422,1.974-32.776,2.942-49.166c0.015-0.256,0-0.492-0.036-0.714c1.101,0.186,2.217,0.171,3.327-0.155
		c4.476-1.317,2.4-5.434-0.107-7.436c-1.204-0.962-2.551-1.847-3.945-2.717c0.298,0.041,0.595,0.072,0.89,0.084
		c4.252,0.173,5.095-3.531,2.737-6.428c-0.753-0.925-1.71-1.728-2.728-2.465c0.605-0.481,1.04-1.204,1.112-2.169
		c0.629-8.405,1.192-16.806,1.258-25.23c0.044,20.63,4.391,40.915,5.492,61.48c0.137,2.565,4.138,2.579,4,0
		c-1.082-20.208-5.295-40.146-5.483-60.408c0.41,0.197,0.816,0.381,1.215,0.548c0.018,0.126,0.044,0.256,0.089,0.391
		c5.652,16.843,7.562,38.046,25.919,46.195c2.336,1.037,4.372-2.409,2.019-3.454c-12.728-5.65-16.896-18.217-20.34-30.768
		C283.901,446.733,290.207,452.263,296.604,457.196z M280.532,413.071c-2.126-0.554-3.669,2.714-1.541,3.655
		c1.373,0.607,3.933,1.639,0.176,1.773c-2.569,0.091-2.586,4.039,0,4c-0.411,2.418-1.663,3.148-3.754,2.187
		c-1.756-0.34-3.358-1.379-4.853-2.3c-1.481-0.912-2.925-2.016-4.233-3.202c-0.953-1.442-1.759-3.019-1.827-4.686
		c-0.002-0.053-0.014-0.098-0.021-0.148c0.26-3.236,1.818-7.307,2.261-9.743c0.57,0.182,1.945,0.19,2.59,0.321
		c2.014,0.411,3.993,1.014,5.952,1.631c1.691,0.532,3.386,1.122,4.97,1.925C281.427,409.081,283.477,413.839,280.532,413.071z
		 M266.845,393.73c0.245,2.304,0.594,4.573,1.026,6.809c-0.21-0.024-0.421-0.061-0.629-0.072c0-0.074,0.013-0.139,0.008-0.216
		C267.116,398.077,266.98,395.903,266.845,393.73z M468.239,299.833c-28.119,21.234-58.881,38.627-89.391,56.161
		c-15.83,9.098-32.156,16.796-48.766,24.346c-15.796,7.18-31.429,14.786-45.571,24.91c-0.004,0-0.008-0.001-0.012-0.001
		c-0.546,0-1.007,0.129-1.399,0.335c-0.141-0.104-0.271-0.22-0.425-0.312c-0.192-0.114-0.4-0.205-0.597-0.312
		c10.037-3.87,18.635-10.521,27.017-17.157c10.409-8.24,20.839-15.718,32.139-22.696c23.499-14.513,46.953-29.143,68.033-47.09
		c2.459-2.093-1.096-5.613-3.536-3.536c-20.751,17.667-43.888,32.026-67.021,46.308c-10.217,6.308-19.883,12.86-29.257,20.367
		c-6.4,5.125-12.924,10.555-20.083,14.751c7.163-7.114,12.58-16.809,16.921-24.806c7.763-14.298,14.635-30.172,17.867-46.188
		c0.635-3.148-4.184-4.489-4.821-1.329c-2.996,14.846-9.231,29.284-16.14,42.681c-3.888,7.539-8.312,14.901-13.645,21.513
		c-3.677,4.559-8.158,9.259-13.701,11.508c5.352-11.854,10.268-23.955,12.308-36.872c0.498-3.153-4.32-4.507-4.821-1.329
		c-1.903,12.051-6.311,23.362-11.251,34.44c-2.684-19.351,1.744-41.459,10.07-58.514c1.408-2.885-2.903-5.421-4.317-2.524
		c-7.337,15.03-11.801,33.525-11.502,51.105c-1.796-28.738-3.582-57.497-4.413-86.277c35.778-2.962,71.688-3.517,107.574-3.366
		c18.353,0.077,36.716,0.221,55.065,0.588c15.109,0.302,30.196,1.241,45.299,1.739c-0.68,0.54-1.368,1.07-2.073,1.58
		C467.94,299.849,468.09,299.843,468.239,299.833z"/>
	<path fill="#022C33" d="M196.214,346.516c0.132-0.423-0.018-0.753-0.274-0.967c-0.848,1.592-2.227,3.586-1.636,5.126
		c0.004,0.01,0.007,0.02,0.011,0.029c0.107,0.267,0.274,0.52,0.515,0.755c1.144,1.111,2.759,1.371,4.34,1.482
		c0.105-0.549-0.195-1.236-0.922-1.316C195.664,351.341,195.604,348.473,196.214,346.516z"/>
	<path fill="#022C33" d="M212.966,343.731c0.005-0.027,0.013-0.053,0.013-0.081c0.002-0.047-0.005-0.092-0.015-0.138
		c-0.003-0.012-0.003-0.024-0.006-0.036c-0.013-0.047-0.035-0.089-0.06-0.131c-0.008-0.013-0.013-0.027-0.022-0.039
		c-0.017-0.023-0.039-0.04-0.06-0.059c-0.03-0.03-0.062-0.055-0.1-0.075c-0.005-0.003-0.011-0.004-0.017-0.006
		c-0.055-0.026-0.116-0.038-0.184-0.037c-0.006,0-0.01-0.003-0.016-0.003c-0.017,0-0.029,0.008-0.045,0.009
		c-0.03,0.004-0.056-0.001-0.088,0.009c-0.016,0.005-0.029,0.013-0.045,0.018c-0.019,0.007-0.037,0.013-0.054,0.022
		c-2.857,0.933-4.362,3.468-4.706,6.332c-1.414,0.01-2.48-0.604-3.256-1.893c-0.332-0.552-1.197-0.049-0.864,0.505
		c1.026,1.703,2.556,2.557,4.557,2.373c0.287-0.027,0.479-0.208,0.5-0.5c0.193-2.635,1.487-5.075,4.133-5.893
		c0.011-0.003,0.016-0.011,0.027-0.015c0.054-0.018,0.099-0.044,0.14-0.076c0.01-0.008,0.022-0.015,0.032-0.024
		c0.031-0.031,0.055-0.065,0.076-0.103c0.012-0.021,0.026-0.04,0.035-0.062C212.955,343.797,212.96,343.764,212.966,343.731z"/>
	<path fill="#022C33" d="M216.252,327.902c-1.557-1.087-3.461-1.198-5.219-0.55c-0.6,0.221-0.341,1.188,0.266,0.964
		c1.532-0.565,3.087-0.501,4.448,0.45C216.278,329.135,216.777,328.268,216.252,327.902z"/>
</g>
<g id="Слой_33">
	<path fill="#818284" d="M157.208,405.205c-0.165-0.659-0.584-0.932-1.22-1.122c-0.127-0.038-0.221-0.103-0.294-0.181
		c-0.008,0-0.014,0.004-0.022,0.004c-0.145,0-0.272-0.028-0.381-0.077c-1.138,0.606-2.095,1.437-3.408,1.875
		c-1.18,0.394-1.155-0.925-1.487-1.557c-0.937-1.79-2.797-3.357-3.225-5.339c-0.216-0.999-0.388-1.8-1.129-2.506
		c-0.113-0.081-0.217-0.187-0.308-0.321c-0.3-0.341-0.491-0.687-0.647-1.173c-0.051-0.158-0.033-0.292,0.009-0.411
		c-0.598-1.916-0.789-3.923-1.481-5.837c-0.513-1.419-1.206-2.687-1.593-4.081c-2.225-2.682-4.828-4.934-7.806-6.783
		c-0.07,0.016-0.131,0.043-0.212,0.043c-0.139,0-0.261-0.028-0.365-0.074c-0.105-0.045-0.19-0.11-0.263-0.187h0
		c-0.028,0.003-0.051,0.011-0.08,0.011c-0.15,0-0.279-0.031-0.391-0.083c-0.103,0.153-0.239,0.283-0.44,0.339
		c-0.018,0.011-0.025,0.027-0.044,0.037c-0.764,0.419-1.368,0.911-1.983,1.525c-0.058,0.058-0.119,0.101-0.18,0.138
		c-0.141,0.215-0.367,0.372-0.701,0.375c-0.014,0.024-0.031,0.048-0.046,0.073c0.056,0.256,0.019,0.536-0.199,0.789
		c-0.164,0.19-0.387,0.335-0.638,0.375c-0.014,0.004-0.028,0.003-0.042,0.004c-0.068,0.084-0.155,0.152-0.258,0.204
		c-0.008,0.004-0.012,0.011-0.02,0.015c-0.032,0.015-0.077,0.013-0.112,0.024l0,0c-0.065,0.092-0.148,0.167-0.25,0.226c0,0,0,0,0,0
		c-0.102,0.059-0.222,0.095-0.361,0.108l0,0h0c-0.274,0.994-1.874,0.512-1.71-0.589c0.157-1.056,0.233-2.873-0.451-3.808
		c-0.241-0.107-0.398-0.311-0.464-0.55c-0.944,0.038-1.927-0.43-2.502-1.167c-1.487,0.03-2.774,0.44-4.009,1.299v0
		c-0.085,0.167-0.186,0.324-0.303,0.47c-0.004,0.005-0.008,0.012-0.012,0.017c-0.122,0.148-0.257,0.286-0.413,0.405l0,0
		c-0.007,0.031-0.007,0.061-0.016,0.093c-0.107,0.39-0.317,0.753-0.587,1.071c-0.034,0.556-0.05,1.112-0.009,1.661
		c0.058,0.788,0.266,1.538,0.49,2.289c0.283,0.114,0.443,0.363,0.497,0.641c0.417,0.166,0.834,0.329,1.241,0.518
		c1.215,0.566,2.524,1.339,3.896,0.885c0.138-0.046,0.258-0.037,0.367-0.009c0.218-0.294,0.447-0.582,0.704-0.853
		c0.508-0.537,1.315,0.273,0.809,0.809c-1.334,1.411-2.042,3.22-2.904,4.934c0.144,0.075,0.255,0.216,0.292,0.436
		c0.119,0.71,0.498,1.354,1.003,1.919c0.321,0.029,0.539,0.198,0.662,0.427c0.172,0.07,0.304,0.187,0.393,0.333
		c0.049,0.016,0.098,0.026,0.149,0.054c0.21,0.116,0.413,0.244,0.618,0.368c0.012,0.002,0.022-0.002,0.034,0
		c2.258,0.471,4.38,1.365,6.5,2.25c0.143,0.059,0.253,0.145,0.343,0.243c0.664,0.155,1.277,0.442,1.787,0.901
		c0.017-0.001,0.028-0.009,0.046-0.009c0.156,0,0.289,0.036,0.403,0.092c0.002,0.001,0.003,0.002,0.004,0.003
		c0.116,0.058,0.206,0.14,0.279,0.237c0.057,0.038,0.127,0.064,0.17,0.116c0.019,0.018,0.039,0.03,0.058,0.05
		c0.008,0.009,0.014,0.02,0.022,0.029c0.108,0.071,0.207,0.167,0.281,0.315c0.009,0.017,0.017,0.034,0.026,0.051
		c0.119,0.087,0.208,0.203,0.266,0.335c0.139,0.033,0.278,0.099,0.405,0.228c0.4,0.407,0.779,0.848,0.939,1.408
		c0.208,0.725,0.299,1.488,0.452,2.226c0.135,0.654-0.407,1.076-0.915,1.083c0.152,0.221,0.195,0.508,0.127,0.77
		c0.283,0.165,0.423,0.483,0.408,0.802c0.359,0.506,0.142,1.407-0.669,1.407c-0.583,0-0.857-0.468-0.835-0.92
		c-0.119-0.168-0.151-0.377-0.14-0.585c-0.15,0.003-0.298-0.02-0.422-0.115c-0.412-0.312-0.689-0.671-0.901-1.061
		c-0.013,0-0.021,0.007-0.034,0.007c-0.13,0-0.24-0.029-0.34-0.069c-0.035-0.014-0.065-0.031-0.096-0.048
		c-0.058-0.033-0.11-0.072-0.156-0.117c-0.03-0.029-0.062-0.053-0.087-0.086c-0.05-0.066-0.091-0.138-0.122-0.215
		c-0.795-0.182-1.784-0.314-2.639-0.126c-0.018,0.19-0.082,0.373-0.236,0.495c-0.146,0.114-0.296,0.226-0.359,0.407
		c-0.019,0.055-0.057,0.085-0.083,0.132c0,0.007-0.003,0.014-0.003,0.022c0.006,0.178-0.048,0.349-0.137,0.5
		c0.23,0.008,0.406,0.094,0.537,0.22c0.08,0.003,0.162,0.021,0.245,0.05c0.094-0.033,0.191-0.063,0.308-0.063
		c0.126,0,0.232,0.028,0.329,0.067c0.036,0.014,0.07,0.029,0.102,0.046c0.046,0.027,0.087,0.06,0.126,0.094
		c0.082,0.07,0.147,0.15,0.196,0.243c0.443,0.02,0.879,0.348,0.852,0.868c0.157,0.11,0.267,0.263,0.318,0.443
		c0.003,0.004,0.007,0.008,0.01,0.012c0.052,0.033,0.104,0.066,0.146,0.11c0.004,0.005,0.009,0.008,0.013,0.013
		c0.447,0.479,0.261,1.466-0.594,1.466c-0.008,0-0.014-0.004-0.022-0.004c-0.007,0-0.012,0.004-0.019,0.004
		c-0.223,0-0.389-0.081-0.524-0.191c-0.267-0.033-0.464-0.162-0.583-0.35c-0.076-0.071-0.141-0.148-0.197-0.228
		c-0.012-0.001-0.021-0.007-0.032-0.009c-0.605,0.043-1.201-0.025-1.77-0.253c-0.183-0.073-0.334-0.188-0.444-0.33
		c-0.126-0.011-0.256-0.047-0.389-0.133c-0.139-0.09-0.265-0.189-0.385-0.303c-0.032-0.03-0.051-0.062-0.076-0.094
		c-0.06-0.057-0.082-0.136-0.121-0.206c-0.133-0.124-0.213-0.289-0.248-0.464c-0.514-0.555-0.53-1.298-0.404-2.085
		c0.025-0.156,0.117-0.278,0.229-0.38c0.055-0.163,0.155-0.287,0.279-0.377c-0.023-0.47,0.262-0.958,0.869-0.958
		c0.146,0,0.273,0.028,0.382,0.078c1.141-0.676,2.654-0.745,4.014-0.541c0.049-0.305,0.124-0.606,0.221-0.909
		c0.011-0.177,0.093-0.317,0.209-0.431c0.113-0.14,0.255-0.228,0.413-0.275c-0.049-0.105-0.094-0.212-0.152-0.311
		c-0.887-1.498-2.472-1.662-4.021-1.411c-0.06,0.015-0.114,0.038-0.185,0.038c-0.004,0-0.007-0.002-0.01-0.002
		c-0.058,0.011-0.117,0.02-0.175,0.032c-0.289,0.666-0.866,1.197-1.609,1.468c0.463-0.169-0.175,0.091-0.237,0.129
		c-0.046,0.029-0.284,0.215-0.338,0.25c-0.221,0.2-0.438,0.402-0.641,0.621c-0.202,0.217-0.402,0.435-0.603,0.652
		c-0.003,0.108-0.013,0.22-0.044,0.339c-0.351,1.345-0.692,2.615-1.075,3.854c0.728,2.996,2.82,3.215,5.295,4.104
		c0.507,0.182,1.004,0.465,1.364,0.844h0.532c0.857,0,0.989,1.096,0.413,1.461l0,0c-0.081,0.274-0.286,0.493-0.602,0.572
		c-0.477,1.165-1.869,1.954-2.704,2.829c-0.314,0.329-0.629,0.647-0.944,0.969v0c-0.044,0.339-0.2,0.659-0.468,0.875
		c0.13,0.139,0.245,0.303,0.314,0.523c0.006,0.019,0.013,0.038,0.019,0.057c0.499,0.334,0.667,0.999,0.505,1.561
		c0.145,0.497,0.257,1.002,0.275,1.533c0.002,0.069-0.006,0.131-0.015,0.192c0.079,0.131,0.133,0.274,0.115,0.433
		c-0.041,0.364-0.093,0.724-0.182,1.077c0.283,0.463,0.138,1.171-0.441,1.356c-1.309,5.271-5.259,9.263-9.844,12.405
		c-0.045,0.352-0.269,0.661-0.673,0.74l0,0c-0.005,0.008-0.006,0.018-0.012,0.026c-0.002,0.003-0.004,0.006-0.006,0.008
		c-0.066,0.104-0.147,0.198-0.243,0.279c-0.006,0.005-0.011,0.012-0.018,0.017c-0.094,0.075-0.203,0.135-0.324,0.181
		c-0.025,0.01-0.051,0.017-0.077,0.025c-0.128,0.039-0.264,0.067-0.42,0.067c-0.152,0-0.286-0.027-0.412-0.065h0
		c-1.061,1.88-2.221,3.68-3.671,5.281c0.128,0.045,0.251,0.117,0.347,0.252c0.259,0.364,0.722,0.551,1.044,0.852
		c0.375,0.35,0.624,0.802,0.973,1.175c0.61,0.651-0.367,1.632-0.979,0.979c-0.166-0.177-0.309-0.386-0.457-0.591
		c-0.031,0.035-0.054,0.072-0.09,0.106c-0.218,0.202-0.432,0.402-0.648,0.603c0.083,0.42-0.009,0.879-0.352,1.147
		c-0.23,0.18-0.456,0.34-0.573,0.453c-0.046,0.051-0.069,0.073-0.082,0.084c-0.038,0.064-0.074,0.129-0.099,0.199
		c-0.042,0.097-0.112,0.17-0.18,0.245c-0.106,0.158-0.247,0.291-0.426,0.384c-0.03,0.289-0.056,0.584,0.028,0.849
		c0.097,0.305,0.202,0.604,0.289,0.91c0.117,0.066,0.227,0.157,0.317,0.29c0.269,0.397,0.559,0.775,0.858,1.15
		c0.074,0.093,0.133,0.194,0.177,0.299c1.233,1.01,2.906,1.158,4.49,1.307c0.5-0.846,2.053-0.962,2.412,0.271
		c-0.125-0.431,0.84,0.073,1.181,0.149c0.235,0.052,0.474,0.109,0.714,0.158c0.585-1.409,1.612-2.494,2.399-3.768
		c-0.248,0.139-0.511,0.167-0.76,0.094c-1.147-0.131-1.388-1.557-0.721-2.235c0.003-0.005,0.005-0.009,0.009-0.014
		c2.573-3.259,5.361-6.337,8-9.542c0.118-0.143,0.246-0.242,0.378-0.314c2.279-3.546,5.189-6.726,7.71-10.089
		c0.161-0.214,0.356-0.354,0.563-0.442c3.198-5.633,7.79-10.46,12.872-14.57v0c0.012-0.1,0.037-0.193,0.078-0.284
		c0.005-0.012,0.013-0.022,0.019-0.034c0.038-0.075,0.081-0.146,0.14-0.207c0.032-0.035,0.076-0.058,0.115-0.086
		c0.046-0.033,0.085-0.071,0.14-0.094c0.054-0.023,0.125-0.025,0.188-0.038c0.03-0.074,0.069-0.144,0.117-0.207
		c0.03-0.039,0.067-0.07,0.104-0.104c0.035-0.032,0.073-0.06,0.114-0.086c0.044-0.028,0.088-0.054,0.139-0.073
		c0.085-0.031,0.178-0.053,0.282-0.057l0.001,0c0.011-0.02,0.014-0.044,0.026-0.064c0,0,0.001-0.001,0.001-0.001
		c0.055-0.089,0.126-0.164,0.213-0.227l0,0c0.032-0.167,0.082-0.329,0.172-0.472c-0.407-0.426-0.578-1.004-0.242-1.578
		c0.287-0.489,1.015-0.815,1.57-0.587c0.042-0.017,0.089-0.027,0.134-0.041c0.012-0.003,0.021-0.009,0.033-0.012
		c0.722-0.209,1.375-0.527,1.984-0.917v0c0.013-0.144,0.058-0.279,0.13-0.402C157.278,406.422,157.351,405.777,157.208,405.205z
		 M124.375,380.908c-0.029,0.125-0.08,0.224-0.139,0.312c-0.033,0.185-0.09,0.364-0.185,0.524c-0.01,0.017-0.023,0.033-0.034,0.049
		c-0.048,0.073-0.102,0.14-0.164,0.203c-0.021,0.022-0.043,0.042-0.066,0.062c-0.063,0.056-0.133,0.105-0.209,0.149
		c-0.023,0.013-0.044,0.029-0.069,0.041c-0.105,0.052-0.218,0.094-0.344,0.12c-0.472,0.369-1.088,0.524-1.757,0.277
		c-0.855-0.316-1.412-0.814-1.733-1.681c-0.151-0.409-0.07-0.882,0.074-1.29v0c-0.031-0.12-0.037-0.243-0.024-0.367
		c0.001-0.013,0.004-0.026,0.006-0.039c0.016-0.111,0.051-0.213,0.103-0.31c0.008-0.015,0.016-0.029,0.025-0.044
		c0.058-0.095,0.135-0.174,0.229-0.24c0.01-0.007,0.019-0.016,0.03-0.022c0.11-0.069,0.239-0.114,0.395-0.125
		c0.178-0.173,0.379-0.316,0.61-0.387c0.142-0.217,0.372-0.377,0.711-0.377c0.404,0,0.658,0.221,0.783,0.504
		c0.242,0.079,0.443,0.21,0.592,0.384c0.063,0.038,0.134,0.066,0.189,0.113c0.008,0.007,0.015,0.014,0.022,0.021
		c0.054,0.049,0.09,0.112,0.135,0.169c0.117,0.046,0.232,0.12,0.337,0.241C124.325,379.692,124.525,380.25,124.375,380.908z"/>
</g>
<g id="Слой_31">
	<path fill="#FFFFFF" d="M134.083,402.083c-1.29,0-1.29,2,0,2S135.373,402.083,134.083,402.083z"/>
	<path fill="#FFFFFF" d="M139.486,385.539c2.376,3.685,4.52,9.262,3.468,13.697c-0.003,0.014-0.012,0.021-0.016,0.034
		c0.032,0.326-0.213,0.69-0.601,0.568c-3.291-1.041-6.088-3.363-9.002-5.267c-1.529-1-2.972-1.733-4.742-1.879
		c-0.766-0.063-1.696-0.129-2.309-0.727c-3.517-3.436,0.644-9.745,3.512-11.706C133.352,377.829,137.663,382.712,139.486,385.539z
		 M138.389,385.238c-0.351-0.507-0.728-0.971-1.116-1.412c-0.013,0.02-0.035,0.032-0.051,0.05c0.191,0.507,0.385,1.011,0.586,1.513
		C138.002,385.337,138.197,385.291,138.389,385.238z M136.879,385.633c-0.204-0.513-0.406-1.027-0.598-1.545
		c-0.335,0.025-0.664,0.08-0.996,0.119c0.177,0.567,0.364,1.132,0.545,1.698C136.179,385.812,136.53,385.726,136.879,385.633z
		 M140.174,388.387c-0.362-0.783-0.767-1.54-1.206-2.256c-0.038,0.024-0.072,0.05-0.121,0.064c-0.213,0.059-0.427,0.11-0.64,0.168
		c0.316,0.763,0.641,1.522,0.975,2.277C139.513,388.557,139.842,388.466,140.174,388.387z M138.236,388.88
		c-0.331-0.753-0.653-1.511-0.967-2.272c-0.373,0.1-0.747,0.192-1.12,0.29c0.252,0.779,0.5,1.56,0.756,2.338
		C137.349,389.117,137.791,388.995,138.236,388.88z M140.886,390.088c-0.092-0.246-0.191-0.49-0.291-0.733
		c-0.328,0.077-0.653,0.168-0.98,0.248c0.106,0.235,0.21,0.472,0.318,0.707C140.251,390.238,140.565,390.149,140.886,390.088z
		 M138.978,390.532c-0.105-0.229-0.206-0.46-0.31-0.69c-0.479,0.123-0.957,0.254-1.435,0.382c0.082,0.247,0.164,0.494,0.246,0.74
		C137.977,390.811,138.476,390.665,138.978,390.532z M126.407,386.579c-0.366,0.914-0.624,1.941-0.413,2.953
		c0.446,2.146,2.012,2.038,3.562,2.217c1.991,0.23,3.881,1.674,5.547,2.795c2.258,1.519,4.453,3.193,6.974,4.116
		c0.402-2.023,0.05-4.811-0.848-7.582c-0.286,0.053-0.565,0.134-0.849,0.196c0.242,0.521,0.484,1.042,0.729,1.561
		c0.286,0.604-0.553,1.084-0.839,0.479c-0.286-0.605-0.568-1.211-0.849-1.818c-0.541,0.139-1.078,0.293-1.613,0.457
		c0.176,0.526,0.349,1.053,0.525,1.579c0.108,0.322-0.08,0.534-0.318,0.584c-0.241,0.076-0.537-0.022-0.617-0.367
		c-0.167-0.501-0.332-1.002-0.499-1.503c-0.055,0.019-0.11,0.034-0.165,0.053c-0.585,0.205-0.814-0.812-0.235-1.015
		c0.024-0.009,0.049-0.015,0.073-0.024c-0.087-0.263-0.175-0.526-0.262-0.789c-0.771,0.215-1.54,0.439-2.305,0.678
		c-0.592,0.184-0.823-0.832-0.235-1.015c0.734-0.229,1.472-0.445,2.212-0.651c-0.257-0.781-0.506-1.564-0.759-2.346
		c-1.218,0.315-2.439,0.622-3.659,0.931c0.317,1.082,0.628,2.166,0.922,3.255c0.175,0.649-0.76,0.864-0.935,0.217
		c-0.292-1.083-0.601-2.16-0.916-3.235c-0.904,0.229-1.808,0.46-2.712,0.69c-0.6,0.153-0.834-0.862-0.235-1.015
		c0.883-0.225,1.766-0.451,2.65-0.675c-0.259-0.87-0.52-1.741-0.785-2.61c-0.018-0.058-0.017-0.108-0.017-0.159
		c-0.014-0.032-0.033-0.057-0.041-0.095c-0.152-0.654,0.783-0.871,0.935-0.217c0.013,0.056,0.008,0.104,0.007,0.153
		c0.018,0.033,0.04,0.06,0.052,0.101c0.263,0.862,0.521,1.726,0.779,2.59c1.213-0.308,2.426-0.613,3.637-0.926
		c-0.194-0.608-0.395-1.213-0.585-1.822c-0.819,0.125-1.635,0.276-2.447,0.461c-0.042,0.01-0.078,0.002-0.116,0.001
		c-0.243,0.081-0.544-0.015-0.625-0.364c-0.081-0.348,0.146-0.566,0.399-0.602c0.035-0.018,0.064-0.041,0.107-0.05
		c1.519-0.346,3.044-0.596,4.597-0.709c0.055-0.051,0.118-0.09,0.19-0.111c-1.664-1.557-3.577-2.424-5.609-2.019
		C128.747,381.34,127.143,384.743,126.407,386.579z"/>
	<path fill="#FFFFFF" d="M123.434,375.402c2.566,0.788,3.74,3.591,3.391,6.188c-0.01,0.073-0.034,0.132-0.063,0.185
		c0.006,0.004,0.011,0.01,0.018,0.014c0.055,0.036,0.093,0.082,0.129,0.129c1.755-1.926,3.753-3.624,5.864-5.067
		c0.285-0.195,0.579-0.043,0.716,0.195c8.524,2.489,12.221,13.433,12.139,21.935c0.56-0.179,1.212-0.143,1.965,0.203
		c2.064,0.95,3.352,3.617,3.541,5.894c1.143,0.039,2.13-0.355,2.969-1.224c0.095-0.098,0.204-0.137,0.312-0.147
		c0.036-0.016,0.067-0.038,0.109-0.046c0.887-0.172,2.015-0.198,2.639,0.631c0.61,0.809,0.479,1.93,0.251,2.854
		c-0.012,0.049-0.046,0.07-0.067,0.109c-0.017,0.119-0.079,0.233-0.209,0.319c-1.107,0.73-2.311,1.178-3.601,1.287
		c0.231,0.411,0.426,0.848,0.551,1.295c0.013,0.045,0.008,0.085,0.011,0.128c0.128,0.304-0.097,0.725-0.444,0.745
		c-6.207,5.402-11.214,12.106-16.253,18.666c-2.445,3.183-4.908,6.352-7.537,9.37c-2.632,3.022-5.424,5.842-7.589,9.273
		c0.223,0.756,0.883,0.658,1.546,0.417c0.358-0.13,0.622,0.159,0.66,0.463c0.042,0.144,0.029,0.305-0.089,0.455
		c-0.913,1.166-1.704,2.417-2.431,3.719c-0.022,0.039-0.052,0.063-0.079,0.093c-0.008,0.018-0.022,0.031-0.033,0.047
		c-0.007,0.013-0.017,0.024-0.025,0.036c-0.015,0.02-0.028,0.042-0.046,0.059c-0.098,0.116-0.241,0.189-0.433,0.151
		c-1.239-0.246-2.373-0.747-3.406-1.498c-0.087,0.127-0.175,0.253-0.26,0.38c0.024,0.262-0.113,0.529-0.436,0.539
		c-2.945,0.098-6.301-1.775-6.575-5.109c-0.052-0.07-0.092-0.156-0.102-0.268c-0.017-0.189,0.053-0.327,0.158-0.42
		c0.012-0.019,0.015-0.039,0.03-0.058c0.026-0.032,0.053-0.063,0.078-0.096c0.004-0.004,0.007-0.009,0.011-0.014
		c0.74-0.922,1.51-1.816,2.247-2.74c0.273-0.343,0.697-0.159,0.837,0.152c0.123,0.072,0.219,0.196,0.236,0.388
		c0.002,0.02-0.005,0.035-0.005,0.054c0.042,0.086,0.091,0.167,0.135,0.251c0.159-0.259,0.319-0.518,0.476-0.779
		c-0.802-0.709-1.575-1.453-2.294-2.254c-0.092-0.102-0.128-0.218-0.138-0.333c-0.002-0.004-0.002-0.011-0.004-0.015
		c-0.097-0.166-0.106-0.378,0.06-0.566c1.387-1.572,2.617-3.285,3.725-5.085c0.142-0.231,0.35-0.249,0.527-0.158
		c0.087,0.006,0.174,0.027,0.261,0.087c0.069,0.048,0.131,0.105,0.198,0.155c4.266-4.135,12.226-10.076,11.34-16.983
		c-0.04-0.027-0.078-0.058-0.118-0.084c-0.044-0.029-0.072-0.067-0.103-0.103c-0.009-0.004-0.014-0.014-0.023-0.018
		c-0.195-0.104-0.316-0.318-0.234-0.57c0.002-0.008,0-0.018,0.003-0.026c0.004-0.014,0.01-0.026,0.016-0.039
		c0.004-0.008,0.003-0.016,0.007-0.024c0.111-0.213,0.232-0.404,0.366-0.585c-0.272-0.288-0.54-0.58-0.834-0.844
		c-0.097-0.087-0.14-0.189-0.159-0.292c-0.106-0.173-0.136-0.403-0.006-0.615c1.173-1.919,3.261-3.746,5.223-5.679
		c-0.016-0.01-0.032-0.011-0.048-0.023c-2.119-1.601-4.922-1.705-6.968-3.365c-2.02-1.639-0.812-5.158,0.309-6.924
		c1.256-1.978,3.641-3.749,6.035-3.47c2.249,0.262,2.492,2.255,1.542,4.072c-0.197,0.377-0.654,0.351-0.854,0.076
		c-0.032,0.002-0.075-0.008-0.133-0.032c-0.22-0.048-0.453-0.055-0.676-0.062c-0.545-0.016-1.088,0.056-1.622,0.153
		c-1.412,0.256-2.796,1.101-2.824,2.759c-0.031,1.817,2.472,2.323,3.731,2.734c0.5,0.163,1.001,0.338,1.491,0.537
		c-0.231-0.547-0.323-1.184-0.258-1.87c-0.833-0.327-1.652-0.68-2.537-0.818c-0.411-0.064-0.488-0.545-0.299-0.855
		c1.991-3.267,5.544-0.381,7.128,1.922c0.728-1.592,0.97-3.315,0.318-5.248c-2.105-6.235-11.628-3.902-14.643-9.721
		c-0.016-0.03-0.017-0.06-0.027-0.09c-0.085-0.076-0.15-0.184-0.164-0.335c-0.003-0.039,0.006-0.069,0.009-0.104
		c-0.009-0.08-0.004-0.164,0.028-0.254c0.726-2.04,1.775-3.897,3.029-5.595c-0.024,0.011-0.05,0.013-0.076,0.02
		c-3.552,3.265-9.842-0.73-7.915-5.652C118.121,375.91,121.07,374.676,123.434,375.402z M123.866,381.085
		c0.14-0.095,0.29-0.181,0.445-0.257c-0.031-0.058-0.056-0.123-0.066-0.201c-0.221-1.734-2.336-3.456-3.801-1.988
		c-2.011,2.015,0.839,4.758,2.92,3.371c0.02-0.013,0.04-0.014,0.06-0.024c0.005-0.003,0.011-0.004,0.016-0.006
		c0.057-0.027,0.113-0.045,0.169-0.048c0.022-0.03,0.029-0.075,0.059-0.097C123.615,381.527,123.643,381.237,123.866,381.085z
		 M125.419,381.946c-0.273-0.264-0.463-0.283-0.717-0.155c0.058,0.243,0.177,0.413,0.419,0.595c0.282,0.213,0.535,0.427,0.771,0.679
		c0.115-0.141,0.243-0.269,0.361-0.408C125.954,382.444,125.687,382.206,125.419,381.946z M152.293,408.791
		c-0.083-0.113-0.104-0.226-0.096-0.334c0-0.005-0.003-0.007-0.004-0.012c-0.001-0.014,0.004-0.024,0.003-0.037
		c0.001-0.007,0-0.013,0.002-0.02c0.002-0.279,0.188-0.445,0.403-0.483c0.002-0.001,0.005-0.001,0.008-0.002
		c0.015-0.002,0.029-0.008,0.044-0.009c0.048-0.017,0.096-0.033,0.157-0.033c1.308,0.012,2.499-0.368,3.607-1.068
		c0.023-0.036,0.041-0.076,0.072-0.104c0.13-0.562,0.234-1.223-0.08-1.713c-0.339-0.529-1.193-0.383-1.71-0.283
		c-1.161,1.12-2.495,1.604-4.104,1.415c-0.256-0.03-0.377-0.213-0.395-0.416c-0.004-0.02-0.014-0.034-0.016-0.056
		c-0.003-0.029,0.007-0.05,0.008-0.076c-0.007-0.033-0.022-0.06-0.023-0.098c-0.078-1.868-0.919-3.635-2.283-4.847
		c-1.479-1.315-2.616-0.537-3.264,0.819c0.102,0.025,0.2,0.079,0.28,0.192c0.636,0.905,1.513,1.514,2.541,1.815
		c0.617,0.18,0.451,1.216-0.174,1.033c-1.203-0.351-2.229-1.028-3.012-2.042c-0.015,0.057-0.033,0.113-0.047,0.171
		c0.004,0.019,0.014,0.033,0.016,0.054c0.002,0.02-0.005,0.034-0.005,0.052c1.807,3.544,5.168,5.331,8.544,6.846
		C152.625,409.288,152.47,409.03,152.293,408.791z M116.794,452.15c0.526-0.692,0.973-1.439,1.398-2.202
		c-0.533-0.167-1.034-0.387-1.505-0.654c-0.579,0.824-1.117,1.677-1.622,2.553C115.629,452.03,116.217,452.134,116.794,452.15z
		 M114.125,451.452c0.535-0.934,1.106-1.843,1.718-2.723c-0.51-0.387-0.974-0.838-1.391-1.345c-0.519,1.046-1.052,2.084-1.638,3.09
		C113.19,450.866,113.636,451.194,114.125,451.452z M111.653,447.863c0.041,0.64,0.221,1.212,0.499,1.716
		c0.572-1.017,1.105-2.056,1.623-3.104c0.004-0.009,0.011-0.012,0.016-0.02c-0.143-0.227-0.283-0.455-0.409-0.699
		C112.806,446.458,112.223,447.154,111.653,447.863z M113.386,441.788c0.613,0.659,1.256,1.286,1.925,1.882
		c0.127-0.204,0.265-0.4,0.394-0.603c-0.088-0.029-0.173-0.077-0.245-0.17c-0.063-0.082-0.126-0.165-0.19-0.247
		c-0.067-0.087-0.091-0.174-0.1-0.26c-0.062-0.048-0.118-0.11-0.159-0.195c-0.08-0.165-0.187-0.313-0.297-0.458
		c-0.154-0.062-0.282-0.194-0.302-0.419c-0.033-0.37,0.25-0.557,0.524-0.546c0.161-0.025,0.333,0.02,0.464,0.19
		c0.211,0.277,0.394,0.552,0.547,0.868c0.021,0.043,0.023,0.082,0.032,0.122c0.036,0.028,0.073,0.05,0.104,0.091
		c0.052,0.068,0.105,0.136,0.157,0.204c0.148-0.223,0.306-0.437,0.456-0.659c-0.475-0.287-0.798-0.676-1.046-1.185
		c-0.014-0.021-0.025-0.044-0.036-0.068c-0.006-0.014-0.015-0.026-0.021-0.04c-0.117-0.262-0.012-0.47,0.165-0.585
		c0.241-0.175,0.626-0.123,0.755,0.197c0.004,0.009,0.012,0.013,0.016,0.022c0.154,0.342,0.355,0.589,0.675,0.767
		c0.023,0.013,0.034,0.032,0.054,0.046c0.006,0.003,0.013,0.002,0.018,0.006c0.35-0.506,0.689-1.021,1.05-1.518
		c-0.074-0.036-0.144-0.089-0.201-0.182c-0.405-0.667-0.894-1.234-1.478-1.712C115.664,438.904,114.585,440.398,113.386,441.788z
		 M117.869,437.069c0.394,0.404,0.746,0.853,1.048,1.345c4.155-5.59,8.923-10.688,13.51-15.877c-0.91-0.863-1.898-1.629-2.912-2.36
		C129.793,427.119,122.2,432.863,117.869,437.069z M127.631,406.12c-1.353-0.892-1.709-2.865-0.824-4.25
		c0.959-1.501,2.741-1.988,4.378-2.106c0.325-0.024,1.036-0.064,1.585,0.083c0.753-2.011-1.105-2.357-2.876-1.73
		c-2.406,0.852-3.786,3.214-4.326,5.704c-0.484,2.232,1.201,3.028,2.89,3.643c1.655,0.602,3.268,1.151,4.707,2.238
		c0.049,0.037,0.078,0.08,0.108,0.123c0.235-0.24,0.461-0.483,0.685-0.728c-0.038-0.039-0.07-0.085-0.094-0.141
		C132.132,407.374,129.552,407.388,127.631,406.12z M130.795,403.459c0.746,0.217,1.465,0.532,2.197,0.811
		c0.238,0.091,0.314,0.29,0.287,0.487c0.002,0.011,0.008,0.018,0.009,0.03c0.003,0.028-0.007,0.049-0.008,0.076
		c0.021,0.071,0.03,0.151,0.018,0.24c-0.181,1.326,0.313,2.339,1.636,2.545c0.081,0.013,0.149,0.041,0.204,0.079
		c0.344-0.442,0.649-0.896,0.927-1.357c-0.02-0.023-0.044-0.037-0.062-0.066C135.021,404.718,132.516,402.008,130.795,403.459z
		 M123.113,389.84c3.3,6.234,13.131,3.244,15.082,11.11c1.634,6.589-6.732,10.983-9.832,15.569c0.341,0.323,0.673,0.655,0.991,1.003
		c0.231,0.252,0.169,0.588-0.005,0.787c-0.027,0.048-0.053,0.097-0.097,0.139c-0.028,0.027-0.048,0.06-0.071,0.091
		c0.074,0.062,0.131,0.149,0.164,0.259c2.051,1.407,3.977,2.952,5.583,4.924c0.422,0.518-0.395,1.119-0.812,0.606
		c-0.305-0.374-0.635-0.718-0.964-1.063c-1.908,2.157-3.85,4.3-5.771,6.467c0.02,0.038,0.029,0.086,0.038,0.133
		c0.055,0.01,0.115,0.007,0.183-0.008c0.029-0.006,0.046-0.025,0.08-0.025c2,0.038,3.263-2.116,3.993-3.793
		c0.267-0.614,1.176-0.164,0.908,0.451c-0.864,1.985-2.423,4.391-4.755,4.383c-0.374,0.075-0.707,0.038-1.072-0.15
		c-0.061-0.032-0.106-0.074-0.146-0.118c-4.26,4.842-8.36,9.841-11.601,15.496c0,0.001,0,0.001,0,0.002
		c0.011,0.122-0.02,0.218-0.067,0.301c0.077,0.105,0.167,0.193,0.248,0.293c0.521-0.915,1.049-1.826,1.615-2.712
		c0.358-0.561,1.126,0.122,0.771,0.677c-0.584,0.915-1.125,1.858-1.662,2.805c0.682,0.625,1.466,1.118,2.357,1.424
		c0.017-0.04,0.025-0.079,0.054-0.118c5.831-8.007,12.066-15.663,18.677-22.969c0.042-0.046,0.088-0.073,0.135-0.099
		c0.005-0.003,0.007-0.009,0.012-0.011c0.397-0.622,0.2-1.166-0.254-1.713c-0.008-0.008-0.014-0.018-0.022-0.027
		c-0.013-0.015-0.024-0.031-0.037-0.046c-0.01-0.012-0.012-0.024-0.021-0.037c-0.009-0.016-0.019-0.029-0.026-0.046
		c-0.07-0.117-0.085-0.232-0.053-0.338c-2.735-1.119-4.921-3.61-4.977-6.863c-0.003-0.17,0.059-0.303,0.153-0.396
		c-0.034-0.139-0.019-0.293,0.086-0.438c2.454-3.393,5.656-6.059,8.243-9.328c0.093-0.474,0.788-0.526,0.945-0.055
		c0.014,0.015,0.031,0.021,0.044,0.038c2.045,2.595,4.929,4.203,7.281,6.448c0.13,0.124,0.173,0.272,0.164,0.413
		c0.064,0.155,0.061,0.336-0.081,0.502c-2.849,3.32-6.328,5.991-8.779,9.678c0.024,0.303-0.188,0.658-0.569,0.624
		c-0.4-0.035-0.795-0.11-1.187-0.203c0.441,0.825,0.413,1.729-0.203,2.567c-0.067,0.091-0.145,0.144-0.226,0.169
		c-6.499,7.195-12.634,14.727-18.379,22.6c0.146,0.147,0.179,0.37,0.12,0.562c-0.003,0.07-0.019,0.144-0.061,0.222
		c-0.258,0.474-0.524,0.945-0.804,1.406c0.826,0.604,1.73,1.005,2.706,1.237c0.53-0.926,1.1-1.824,1.711-2.691
		c-0.232-0.005-0.464-0.034-0.696-0.124c-0.625-0.243-0.887-0.96-0.999-1.586c-0.039-0.22,0.048-0.369,0.179-0.457
		c0.004-0.007,0.004-0.014,0.008-0.021c2.171-3.48,4.983-6.372,7.673-9.399c2.85-3.207,5.453-6.657,8.074-10.069
		c4.783-6.227,9.586-12.519,15.417-17.708c-3.731-1.674-7.315-3.626-9.31-7.553c-0.057-0.111-0.06-0.21-0.043-0.3
		c-0.001-0.005-0.003-0.007-0.003-0.012c-0.001-0.014,0.004-0.024,0.004-0.037c-0.027-0.081-0.04-0.171-0.014-0.278
		c0.262-1.094,0.726-2.149,1.411-2.823c0.233-8.157-3.151-19.411-11.636-21.637C128.775,380.925,124.978,384.802,123.113,389.84z
		 M138.79,418.693c1.732-2.254,3.656-4.321,5.631-6.338c-0.798-0.486-1.525-1.079-2.155-1.77c-0.014,0.029-0.036,0.052-0.056,0.076
		c-0.022,0.041-0.039,0.083-0.077,0.122c-1.659,1.723-3.201,3.557-4.697,5.437c-0.412,0.518-1.183-0.159-0.771-0.677
		c1.496-1.88,3.038-3.714,4.697-5.437c0.01-0.011,0.023-0.013,0.034-0.023c0.066-0.106,0.166-0.18,0.283-0.213
		c-0.47-0.639-0.859-1.354-1.148-2.146c-2.495,3.005-5.454,5.556-7.757,8.741c-0.007,0.01-0.016,0.013-0.024,0.022
		c0.002,0.017,0.009,0.028,0.01,0.046c0.062,3.584,2.975,5.986,6.147,6.475c2.335-3.606,5.66-6.233,8.476-9.385
		c-0.701-0.208-1.39-0.458-2.046-0.779c-0.022,0.04-0.04,0.082-0.077,0.12c-1.999,2.039-3.946,4.127-5.697,6.407
		C139.158,419.895,138.387,419.218,138.79,418.693z M145.862,411.956c-1.174-0.941-2.374-1.846-3.488-2.856
		C143.257,410.363,144.483,411.301,145.862,411.956z M118.216,378.517c-2.265,3.765,3.484,7.481,6.244,4.707
		c0.015-0.015,0.032-0.019,0.047-0.031c-0.066-0.052-0.133-0.103-0.197-0.158c-0.074,0.034-0.157,0.044-0.239,0.042
		c-0.084,0.011-0.169,0.006-0.25-0.023c-0.016-0.006-0.029-0.014-0.044-0.021c-0.02-0.01-0.035-0.027-0.053-0.04
		c-2.79,1.586-6.168-1.42-4.398-4.546c0.688-1.215,2.119-1.659,3.375-1.208c1.409,0.505,2.346,1.764,2.542,3.299
		c0.007,0.053-0.004,0.095-0.009,0.141c0.082,0.016,0.165,0.02,0.247,0.058c0.14,0.064,0.265,0.15,0.384,0.245
		C126.142,376.382,120.645,374.48,118.216,378.517z"/>
	<path fill="#FFFFFF" d="M136.417,395c-0.645,0-0.645,1,0,1C137.062,396,137.062,395,136.417,395z"/>
	<path fill="#F9F9F9" d="M145.653,393.81c-0.001,0.001-0.003,0.002-0.004,0.003c-0.122,0.109-0.221,0.241-0.294,0.395
		c-0.025,0.047-0.046,0.096-0.066,0.145c0,0.001-0.001,0.002-0.001,0.002c-0.103,0.258-0.128,0.545-0.047,0.841
		c0.211,3.412-4.63,6.751-7.64,4.973c-1.664-0.983-2.911,1.748-1.258,2.724c5.006,2.957,12.558-2.562,11.883-8.139
		c-0.018-0.153-0.06-0.287-0.11-0.413c-0.024-0.065-0.055-0.13-0.089-0.195c-0.003-0.006-0.007-0.012-0.01-0.018
		c-0.03-0.055-0.054-0.109-0.092-0.164c-0.578-0.828-1.52-0.752-2.136-0.27C145.741,393.73,145.698,393.771,145.653,393.81z"/>
</g>
</svg>
