<?xml version="1.0" encoding="utf-8"?>
<!-- Generator: Adobe Illustrator 17.0.0, SVG Export Plug-In . SVG Version: 6.00 Build 0)  -->
<!DOCTYPE svg PUBLIC "-//W3C//DTD SVG 1.1//EN" "http://www.w3.org/Graphics/SVG/1.1/DTD/svg11.dtd">
<svg version="1.1" xmlns="http://www.w3.org/2000/svg" xmlns:xlink="http://www.w3.org/1999/xlink" x="0px" y="0px" width="612px"
	 height="792px" viewBox="0 0 612 792" enable-background="new 0 0 612 792" xml:space="preserve">
<g id="Слой_3">
	<rect y="-4" fill="#020000" stroke="#FCFCFC" stroke-miterlimit="10" width="612" height="796"/>
</g>
<g id="Слой_24">
	<path fill="#804820" d="M247,493.5c3.499,2.559,7.694,4.495,11.386,7.061c3.205,2.228,5.206,5.607,8.17,7.87
		c3.207,2.448,1.442,3.794,6.475,1.111c1.028-0.548,3.56-3.626,3.962-4.551c3.188-7.328-4.842-14.731-11.878-16.795
		c-5.954-1.747-12.77,1.372-17.615,5.053"/>
</g>
<g id="Слой_25">
	<path fill="#985627" d="M248.25,492.5c11.898-0.97,29.488,23.435,10.183,22c-11.501-0.855-22.176-15.135-8.683-22"/>
</g>
<g id="Слой_26">
	<path fill="#663818" d="M257.75,489c12.894,4.354,14.893,11.877,22.514,20.999c1.925,2.303,2.274,6.626,6.688,2.556
		c1.771-1.633,1.756-5.975,1.548-8.292c-0.646-7.191-4.837-8.471-10.568-11.456c-5.827-3.036-12.074-6.091-18.931-3.556"/>
</g>
<g id="Слой_27">
	<path fill="#663818" d="M304.5,489.75c4.133,3.044,7.092,6.375,8.006,11.987c0.947,5.816-2.829,11.445,4.931,12.512
		c12.571,1.728,19.01-13.857,9.075-20.748c-5.639-3.911-14.954-3.199-21.512-3.501"/>
</g>
<g id="Слой_28">
	<path fill="#804820" d="M293,495.5c9.373-6.048,20.44-6.297,21.762,7.305c1.733,17.835-9.143,6.613-16.405,3.802
		c-0.458,6.581-7.319,6.397-9.869,1.898c-3.654-6.445,0.824-11.342,5.512-13.255"/>
</g>
<g id="Слой_29">
	<path fill="#0D3037" d="M299,411.5c1.457,9.035,0.616,18.943,0.75,28.148c0.157,10.761-3.148,24.335-0.237,34.404
		c3.424-10.611,5.313-22.311,8.292-33.253c1.895-6.962,8.142-20.511,6.214-25.988c3.288-1.247,3.485-14.473,3.446-18.193
		c-7.608,4.353-12.193,10.695-18.715,15.632"/>
</g>
<g id="Слой_20">
	<path fill="#104049" d="M303,409.75c-3.529,10.41-2.17,25.929-2.75,37.008c-0.663,12.67-1.101,23.75-4.243,35.681
		c-1.269,4.821-1.706,15.086-8.758,14.366c-4.945-0.505-6.449-8.638-7.75-12.477c-1.751-5.167-4.669-8.369-4.986-14.015
		c-0.324-5.776-0.081-6.979-1.959-12.123c-1.535-4.204-1.389-6.719-1.786-11.348c-0.891-10.392-4.733-19.034-5.516-29.624
		c-0.357-4.821-1.637-6.278,2.049-8.536c4.123-2.526,17.022-0.362,21.601-0.444c5.068-0.091,11.117-0.633,15.839,1.274
		c-0.587,0.5-1.09,0.294-1.74,0.489"/>
</g>
<g id="Слой_21">
	<path fill="#206574" d="M268.75,411c0.826,25.441,7.249,52.61,12.42,76.942c-6.638-11.311-9.611-24.519-14.42-36.823
		c-4.277-10.943-6.473-22.99-9.75-33.785c-1.693-5.579-1.311-12.14-1.706-17.763c2.198,3.797,10.151,10.879,13.956,12.179"/>
</g>
<g id="Слой_23">
	<path fill="#247482" d="M308.25,331.25c6.118-5.511,20.6-1.67,27.763,1.311c8.503,3.539,16.479,9.77,24.698,12.406
		c-1.276-8.102-8.807-36.408,7.533-32.468c8.326,2.008,10.636,23.141,11.799,31.331c2.102,14.795-2.517,19.916-17.597,21.925
		c-12.054,1.606-24.111-3.901-34.369-8.493c-2.629,5.918-4.76,12.39-7.408,18.167c0.575-8.738-33.8-44.071-11.419-45.681"/>
</g>
<g id="Слой_22">
	<path fill="#348F9F" d="M361.25,313.5c-0.108,10.973-6.712,26.612,3.536,34.962c4.329-5.485,7.168-15.775,8.024-23.384
		c0.705-6.265-3.678-18.218-11.561-11.078"/>
</g>
<g id="Слой_18">
	<path fill="#4AAEBF" d="M267.75,332.25c-4.861,10.481-9.723,19.514-10.756,31.003c-0.869,9.661-4.787,28.717,1.249,36.652
		c-11.879-6.614-8.141-30.55-12.969-41.448c-10.533,5.552-27.515,11.778-40.109,8.049c-13.034-3.859-9.627-17.449-7.661-26.993
		c1.443-7.005,2.41-12.481,4.994-19.256c2.499-6.553,4.36-7.252,12.2-7.237c3.67,10.314,0.41,21.276,0.583,32.197
		c0.036-0.022,1.138-0.003,1.162,0.014c3.849-7.025,15.679-11.146,22.805-13.919c9.892-3.849,19.612-4.311,28.751,1.438"/>
</g>
<g id="Слой_19">
	<path fill="#348F9F" d="M267,331.75c-10.487,9.369-14.181,28.536-16.061,41.769c-2.004,14.105,2.112,27.184,13.987,34.841
		c12.519,8.072,27.957,7.135,39.387-1.048c11.207-8.023,16.189-15.504,18.673-29.283c2.281-12.654,0.082-29.753-11.519-37.266
		c-13.819-8.95-31.623-3.179-46.218-8.513"/>
</g>
<g id="Слой_17">
	<path fill="#F8E2E2" d="M387.5,299.75c-5.038-4.121-24.233-4.473-27.819,1.994c-2.26,4.075-0.307,9.323,3.818,10.756
		c7.562,2.628,7.478-4.099,11.002-7.75c3.469-3.594,7.896-3.588,12.749-5"/>
</g>
<g id="Слой_15">
	<path fill="#FECCCC" d="M414.25,275c0.296-1.624-0.246-3.679-0.538-5.212c-8.384,0.904-14.871,6.53-19.657,13.726
		c-2.594,3.9-3.527,7.608-8.999,7.736c-3.582,0.084-5.029-2.952-9.764-1.714c-3.875,1.013-12.133,7.164-14.502,10.425
		c6.668-2.453,13.346-0.221,20.077-0.411c6.507-0.185,6.659-3.671,12.077-7.299c7.228-4.839,14.437-7.794,20.305-15.169
		c0.349-0.438,0.453-0.876,0.751-1.331"/>
</g>
<g id="Слой_14">
	<path fill="#FECCCC" d="M207.75,296.75c-6.794,2.078-20.984,10.177-28.263,8.206c-3.346-0.906-6.653-6.055-7.237-9.206
		c-0.363-1.956,1.314-3.857,1-5.556c-0.418-2.265-2.202-2.828-2.995-4.956c-0.801-2.151-2.235-3.325-1.548-6.269
		c2.927,0.012,8.969-1.339,11.243,0.33c3.284,2.411,1.667,8.385,3.3,11.7c4.557,9.248,14.959,4.139,23.249,5.751"/>
</g>
<g id="Слой_16">
	<path fill="#F8E2E2" d="M173.25,289c-1.784-6.022-15.612-9.458-11.506,0.944c2.605,6.599,14.264,9.81,19.963,5.806
		c-3.961-1.5-8.269-4.694-9.707-8.75"/>
</g>
<g id="Слой_13">
	<path fill="#E1B4B4" d="M202.5,296.5c-5.464,0.392-18.189,5.993-22.398,8.944c4.744,1.953,9.076,0.563,13.592,1.1
		c4.469,0.531,6.842,3.373,10.554,5.206c10.664,5.268,16.615-7.063,7.307-13.067c-3.735-2.409-20.123-8.81-21.017-1.965
		c3.141,0.053,6.31,0.032,9.462,0.032"/>
</g>
<g id="Слой_12">
	<path fill="#E1B4B4" d="M395,291c-4.266,2.123-8.969,6.26-12.161,10.017c10.317,0.172,16.766-5.06,24.107-10.578
		c1.774-1.333,20.964-14.872,10.507-15.194c-3.017-0.093-8.514,7.268-10.827,9.255c-4.001,3.436-7.367,6.569-12.876,7"/>
</g>
<g id="Слой_11">
	<path fill="#E1B4B4" d="M297,291.25c2.445,14.007-8.816,37.621,0.744,49.781c8.375-5.144,8.076-13.131,13.942-20.341
		c2.562-3.149,6.934-3.134,4.577-9.208c-1.818-4.687-5.751-4.409-5.519-10.993c0.113-3.217,3.339-7.44,0.331-10.113
		c-3.41-3.03-10.048,1.66-13.575,2.124"/>
</g>
<g id="Слой_10">
	<path fill="#FECCCC" d="M273.75,292.25c-1.643,11.421-1.082,22.504,3.257,33.078c2.085,5.08,6.385,18.299,12.413,19.677
		c12.888,2.946,13.056-14.091,13.33-21.717c0.264-7.358,2.074-16.072,0.23-23.306c-1.261-4.947-4.496-6.575-6.668-10.713
		c-2.883-5.491-1.53-9.596-9.27-5.993c-4.419,2.057-10.412,7.111-14.042,9.974"/>
</g>
<g id="Слой_9">
	<path fill="#F8E2E2" d="M279.75,290.25c-4.401,15.573-0.643,43.55,11.187,54.762c-22.244,2.039-25.54-25.314-23.187-41.512
		c0.305-2.103,0.152-7.267,1.45-8.763c2.177-2.508,7.08-1.802,9.55-4.487"/>
</g>
<g id="Слой_8">
	<path fill="#C06B3E" d="M310,284.25c-2.483,1.479-4.697,3.495-5.987,5.963c13.588-2.337,2.294,13.728,8.999,18.584
		c2.314-5.444,10.168-10.42,10.246-16.789c0.095-7.73-7.356-8.064-13.757-7.758"/>
</g>
<g id="Слой_7">
	<path fill="#EE834A" d="M269.75,285.25c0.377,3.036,1.499,5.496,4.214,7.038c5.366-4.97,16.805-13.858,21.605-7.214
		c2.894,4.006-0.332,8.053,6.378,7.439c3.62-0.331,8.073-5.335,10.595-7.769c-6.091-2.303-9.276,0.207-11.529-6.32
		c-2.009-5.822,0.253-10.504-8.22-10.368C281.426,268.237,278.751,287.637,269,286"/>
</g>
<g id="Слой_6">
	<path fill="#FC9D58" d="M267.75,283.5c3.557,3.267,6.526,5.035,11.824,6.008c-0.039-0.145-0.18-0.156-0.423-0.033
		c-4.727,3.18-12.424,7.075-17.171,2.268c-5.092-5.158-2.779-14.95,4.892-15.785c-2.238,2.879-1.17,6.127,1.376,8.292"/>
</g>
<g id="Слой_5">
	<path fill="#FD9E5A" d="M263.75,294c-1.415,4.004-4.466,12.608,2.95,12.713c1.423-4.081,2.411-8.432,3.262-12.675
		c-1.931,0.111-3.462-0.744-5.212-0.788"/>
</g>
<g id="Слой_2">
	<path fill="#FCFCFC" d="M415.735,273.681c0.338-1.721,0.436-3.811-1.062-4.692c-1.677-0.987-3.472-0.144-4.991,0.801
		c-1.05,0.653-1.992,1.47-2.826,2.396c-0.159-0.398-0.443-0.682-0.891-0.867c-9.452-3.889-11.12,16.282-18.325,18.461
		c-0.221,0.067-0.401,0.172-0.545,0.302c-0.983-0.021-1.966-0.062-2.945-0.109c-3.292-5.587-9.707-3.453-13.536,0.441
		c-0.128,0.131-0.217,0.27-0.286,0.411c-8.593,2.955-16.398,11.428-11.147,20.23c-0.132,0.228-0.239,0.474-0.305,0.734
		c-0.328,0.292-0.581,0.721-0.699,1.307c-1.666,8.293-2.204,16.625-1.097,24.893c-0.039,0.276-0.049,0.567,0.003,0.882
		c0.092,0.553,0.219,1.095,0.341,1.638c-14.236-9.4-32.357-18.715-47.988-12.073c1.115-2.481,2.083-5.008,2.904-7.44
		c8.151,0.437,7.783-7.467,3.447-12.349c1.582-5.239,6.68-7.928,8.545-12.992c1.348-3.659,1.399-8.813-2.046-11.254
		c-3.66-2.592-8.332-2.238-12.538-2.313c-2.437-0.043-6.42,0.155-6.635-3.181c-0.126-1.958,0.112-3.909-0.243-5.858
		c-1.932-10.606-12.881-8.182-19.217-3.537c-3.712,2.72-5.042,7.571-7.774,11.183c-1.681,2.222-6.373,3.795-7.643,0.272
		c-0.732-2.029,0.498-3.705,1.965-2.096c0.356,0.51,0.686,1.037,0.9,1.64c0.217,0.61,0.808,0.925,1.377,0.596
		c3.004-1.735,3.086-5.774,0.984-7.636c-2.594-5.481-12.161-0.492-14.266,5.088c-1.855,4.916-1.386,10.093,1.672,14.286
		c0.417,0.572,0.874,1.051,1.356,1.464c-0.69,2.393-1.625,4.675-1.878,7.195c-0.314,3.123,1.703,5.493,3.917,7.159
		c0.438,0.329,0.867,0.407,1.254,0.327c-0.51,7.101,0.332,14.21,2.96,20.469c-16.11-10.099-35.932,1.141-50.785,11.865
		c1.136-10.531,0.312-21.169,1.348-31.723c0.077-0.784-0.225-1.401-0.702-1.821c-0.002-0.031,0.002-0.059-0.001-0.092
		c-1.032-9.58-7.589-12.57-15.165-12.964c-0.022-0.017-0.039-0.038-0.062-0.054c-2.273-1.62-4.584-2.971-7.372-3.023
		c-2.626-0.049-5.313,1.327-7.773,2.124c-0.098,0.032-0.186,0.073-0.268,0.119c-0.938-0.663-1.773-1.514-2.587-2.443
		c-1.542-6.917-3.5-16.952-10.972-14.141c-0.314,0.118-0.543,0.314-0.7,0.549c-0.107-0.096-0.206-0.202-0.318-0.293
		c-1.946-1.589-4.532-0.228-5.788,1.53c-0.499,0.699-0.667,1.519-0.623,2.358c-0.278-0.117-0.558-0.232-0.848-0.327
		c-4.392-1.43-6.812,2.582-6.023,6.566c1.201,6.059,9.596,9.08,13.212,13.13c4.238,4.745,6.986,7.831,13.446,7.873
		c5.586,0.036,12.979-1.589,16.618,3.692c-0.103,0.208-0.191,0.438-0.24,0.713c-2.58,14.447-18.922,40.459-3.522,52.222
		c6.525,4.984,16.573,3.888,23.992,2.822c7.053-1.013,14.955-2.916,21.388-6.689c2.525,22.005,7.3,43.642,13.01,64.942
		c3.157,11.775,6.684,23.437,10.431,35.014c3.01,9.3,6.695,18.282,10.054,27.414c-9.138-4.704-20.443-4.567-29.591-0.087
		c-10.049,4.921-9.662,18.367-1.368,24.678c4.887,3.718,12.251,3.545,17.814,2.211c3.057-0.733,6.235-2.439,8.637-4.555
		c0.726-0.639,3.45-2.143,3.344-3.236c0.115,1.187-0.202,2.487,0.169,3.654c1.482,4.659,6.533,5.695,10.692,4.281
		c0.669-0.228,1.19-0.615,1.618-1.097c2.556,1.713,7.096,2.186,8.413-0.662c0.434-0.495,0.703-1.186,0.767-1.831
		c0.089-0.897,0.379-5.124,1.468-4.223c1.798,1.488,2.267,4.103,4.38,5.38c4.283,2.587,8.995,3.434,13.87,3.43
		c8.631-0.007,16.577-3.457,16.665-13.56c0.082-9.471-5.532-14.176-13.816-15.358c-7.336-1.046-16.282-0.807-23.568,2.195
		c0.709-2.472,1.416-4.944,2.12-7.418c1.723-6.05,3.423-12.107,5.104-18.171c3.404-12.28,6.68-24.599,9.792-36.966
		c5.691-22.619,10.697-45.448,14.494-68.517c12.713,8.224,32.111,12.976,45.576,5.759c19.635-10.524,1.374-37.378-0.152-52.629
		c-0.114-1.138-0.796-1.853-1.603-2.174c2.154-8.894,13.522-7.827,20.583-9.443c7.08-1.621,12.098-7.039,18.013-11.058
		c4.041-2.746,10.672-6.5,10.28-12.46C421.641,272.6,418.549,272.29,415.735,273.681z M406.955,277.075
		c0.905-1.796,2.114-3.182,3.668-4.368c0.607-0.463,1.267-0.841,1.973-1.099c1.167-0.426,0.212,2.245,0.076,2.754
		c-0.095,0.357-0.063,0.668,0.041,0.934c-0.081,0.276-0.182,0.546-0.29,0.815c-3.656,3.289-6.484,7.565-10.451,10.474
		C403.815,283.553,405.322,280.318,406.955,277.075z M396.388,283.857c1.489-2.742,4.153-10.207,7.929-9.871
		c0.038,0.34,0.076,0.681,0.102,1.022c0.015,0.195,0.063,0.365,0.127,0.52c-0.006,0.012-0.013,0.023-0.02,0.035
		c-2.464,4.73-4.422,9.538-7.885,13.587c-1.349,0.383-2.748,0.62-4.172,0.763C394.064,288.151,395.282,285.895,396.388,283.857z
		 M379.856,289.776c-0.969-0.037-1.92-0.052-2.852-0.047C377.987,289.444,378.97,289.407,379.856,289.776z M261.98,282.451
		c0.187-1.298,1.528-3.267,3.084-4.84c-0.776,2.17-0.655,4.913,1.024,7.1c2.549,3.323,8.311,2.776,11.076,0.208
		c4.077-3.785,5.194-9.916,9.898-13.012c2.601-1.711,5.984-2.98,9.059-2.375c3.553,0.699,3.254,5.707,3.232,8.591
		c-0.036,4.693,2.366,6.869,6.575,7.636c4.901,0.894,15.526-1.888,15.528,5.999c0.001,3.647-3.465,6.629-5.562,9.095
		c-1.088,1.279-1.976,2.649-2.69,4.132c-3.019-4.622,5.306-14.181-2.299-16.734c-2.687-0.902-5.171,0.341-7.587,1.539
		c-1.558,0.772-3.527,2.124-4.695,0.122c-1.216-2.085,0.216-4.778-0.858-6.931c-4.976-9.978-17.676,3.766-22.72,6.987
		c-3.17,2.024-6.857,3.256-10.282,1.228C261.968,289.543,261.55,285.433,261.98,282.451z M265.943,305.034
		c-2.972-2.453-1.402-5.805-0.317-9.035c0.722,0.163,1.466,0.245,2.222,0.242C267.006,299.099,266.364,302.052,265.943,305.034z
		 M270.705,296.528c0.069-0.226,0.087-0.436,0.067-0.628c2.207-0.494,4.366-1.449,6.164-2.485c3.059-1.764,5.755-4.199,8.671-6.206
		c1.457-1.003,2.821-2.127,4.306-3.087c5.366-3.468,4.427,3.035,4.559,4.841c0.16,2.192,1.11,3.879,2.494,4.886
		c0.188,0.097,0.371,0.217,0.55,0.351c1.276,0.711,2.837,0.906,4.464,0.466c1.956-0.529,3.727-1.783,5.625-2.496
		c3.902-1.466,2.53,3.082,1.91,5.285c-1.171,4.163-1.388,8.25,1.397,10.967c0.057,0.064,0.122,0.125,0.196,0.181
		c0.479,0.435,1.038,0.833,1.69,1.186c3.639,3.099,5.581,8.992-1.421,8.128c-0.639-0.079-1.169,0.521-1.356,1.099
		c-2.257,6.994-5.015,14.003-9.657,19.609c-5.907,7.134-13.469,6.071-20.431,1.292C266.525,330.714,266.316,310.97,270.705,296.528z
		 M195.176,294.678c0.749-0.103,1.47-0.013,2.169,0.181c-1.686,0.148-3.361,0.363-5.021,0.529
		C193.265,295.076,194.214,294.81,195.176,294.678z M182.361,291.547c-0.006,0.02-0.016,0.039-0.022,0.059
		c-1.475-2.105-2.754-4.378-4.092-6.605c-0.956-1.591-1.832-3.375-2.912-4.943C179.64,278.949,181.262,286.096,182.361,291.547z
		 M171.7,280.148c0.801,0.396,1.426,1.814,1.862,2.61c0.878,1.603,1.874,3.116,2.813,4.68c1.119,1.863,2.209,3.744,3.41,5.527
		c-3.279-2.369-5.831-6.037-8.896-8.77c-0.063-0.177-0.161-0.351-0.306-0.515C169.853,282.853,168.574,278.6,171.7,280.148z
		 M185.488,305.692c-6.358-0.041-8.118-5.434-12.503-9.035c-2.361-1.939-4.885-3.631-7.235-5.586
		c-1.352-1.125-2.565-2.415-3.199-4.178c0.676-3.011,2.111-3.722,4.306-2.134c0.962,0.66,1.848,1.419,2.658,2.276
		c3.399,3.326,6.439,6.965,10.41,9.566c1.443,0.945,2.971,1.496,4.544,1.789c0.392,0.262,0.817,0.295,1.194,0.171
		c2.244,0.244,4.556,0.052,6.828-0.201c8.438-0.939,21.545-3.004,23.005,9.122c-0.164,0.097-0.319,0.211-0.456,0.355
		c-1.242,1.312-2.726,2.193-4.2,3.114c-1.279,0.415-2.6,0.664-3.957,0.763c-0.084-0.037-0.167-0.067-0.252-0.109
		c-0.246-0.121-0.487-0.181-0.723-0.212C201.759,303.945,192.572,305.738,185.488,305.692z M286.058,509.782
		c-1.332-0.064-2.661,0.193-3.987,0.151c-0.694-1.606-0.172-4.44-1.84-5.74c-2.631-2.05-5.389-0.395-7.635,1.445
		c-4.774,3.911-9.3,6.031-15.452,5.784c-4.807-0.193-9.555-2.437-11.244-7.507c-1.839-5.52,2.448-9.8,6.82-11.664
		c8.959-3.822,20.27-2.152,27.946,3.951c0.11,0.087,0.219,0.148,0.329,0.211c0.128,0.162,0.274,0.316,0.453,0.454
		c0.024,0.018,0.048,0.034,0.072,0.052c0.036,0.028,0.072,0.054,0.109,0.079c1.267,0.955,2.607,1.678,3.974,2.146
		c0,0.021-0.005,0.038-0.004,0.059c0.077,3.088,0.37,6.158,0.488,9.244C286.093,508.893,286.069,509.337,286.058,509.782z
		 M320.138,492.716c4.04,0.282,8.2,1.574,9.731,5.965c1.386,3.975,0.923,9.127-2.718,11.306c-4.189,2.507-10.775,2.221-15.274,1.106
		c-2.661-0.659-4.935-1.604-6.495-4.072c-0.846-1.339-1.874-3.084-3.306-3.777c-4.888-2.366-6.86,1.959-7.669,6.293
		c-1.094-0.046-2.187-0.044-3.289-0.03c0.119-3.46-0.665-7.475-0.806-9.86c1.943-0.273,3.834-1.17,5.538-2.837
		c0.158-0.154,0.28-0.317,0.384-0.482C303.227,492.034,312.302,492.17,320.138,492.716z M310.218,426.158
		c-5.485,21.942-10.842,44.595-18.061,65.876c-0.503,0.687-1.02,1.361-1.548,2.025c0.314-19.52,0.569-39.048-0.323-58.556
		c-0.146-3.202-4.834-3.218-4.687,0c0.889,19.467,0.638,38.955,0.325,58.434c-0.374-0.195-0.743-0.417-1.105-0.657
		c-3.662-10.625-8.091-20.905-11.604-31.606c-3.602-10.969-6.931-22.038-10.017-33.183c-2.208-7.975-4.282-16.015-6.16-24.108
		c14.583,19.089,43.194,15.457,58.949-2.441C314.155,410.038,312.23,418.11,310.218,426.158z M372.442,360.418
		c-6.578,3.986-15.652,2.861-22.712,1.371c-7.047-1.487-14.118-4.194-20.105-8.476c-0.944-1.813-3.86-2.148-4.257,0.365
		c-1.435,9.072-3.088,18.099-4.884,27.092c-2.224,5.17-3.718,10.664-6.171,15.722c-13.721,18.325-41.42,22.142-54.585,3.307
		c-3.745-6.492-6.128-13.635-7.834-21.023c-1.159-6.894-2.133-13.819-2.855-20.776c-0.105-1.009-0.655-1.696-1.344-2.065
		c-0.644-0.828-1.709-1.209-2.807-0.422c-5.66,4.058-12.853,5.866-19.458,7.231c-7.193,1.486-16.318,2.58-23.035-1.287
		c-7.473-4.302-4.139-16.365-2.303-23.043c1.956-7.116,4.999-13.977,6.697-21.182c2.511,0.514,4.973,0.177,7.156-1.004
		c-0.258,7.238-0.014,14.509-0.596,21.717c-0.612,2.984-1.499,5.864-2.701,8.651c-0.043,0.033-0.09,0.069-0.134,0.102
		c-2.426,1.864-0.09,6.195,2.366,4.308c13.835-10.629,36.934-28.484,54.193-16.632c0.179,0.123,0.355,0.206,0.53,0.269
		c2.54,1.683,5.01,3.472,7.659,4.986c1.293,1.298,2.718,2.507,4.306,3.597c10.898,7.481,19.202,2.411,25.103-6.166
		c0.012-0.009,0.025-0.01,0.036-0.02c0.864-0.727,1.754-1.465,2.68-2.152c0.485-0.291,0.965-0.593,1.436-0.911
		c0.299-0.022,0.609-0.101,0.925-0.267c8.705-4.568,18.704-1.891,27.328,1.527c8.984,3.56,17.344,8.986,25.303,14.606
		c2.527,1.784,4.872-2.539,2.366-4.308c-0.094-0.066-0.19-0.134-0.286-0.201c-0.344-0.494-0.674-0.997-0.989-1.51
		c-0.583-1.285-1.036-2.613-1.382-3.987c-1.482-8.141-1.124-16.316,0.438-24.519c2.64,0.476,5.306,0.394,7.935-0.249
		C373.518,329.06,387.189,351.482,372.442,360.418z M418.718,279.434c-1.43,2.956-5.029,4.993-7.527,6.742
		c-4.937,3.455-9.627,8.181-15.143,10.445c-9.365,3.843-23.436,0.486-25.864,13.393c-0.019,0.005-0.037,0.005-0.057,0.011
		c-2.748,0.81-5.447,0.826-8.192,0.064c-4.678-6.668,1.162-12.46,7.091-15.471c6.168-3.133,13.402-1.745,19.987-1.681
		c3.069,0.03,6.01-0.319,8.797-1.19c0.134-0.016,0.267-0.059,0.398-0.13c2.486-0.826,4.849-2.076,7.066-3.869
		c3.495-2.827,6.146-6.783,9.492-9.822c0.725-0.659,1.497-1.197,2.313-1.71C419.304,274.816,419.421,277.98,418.718,279.434z"/>
	<path fill="#0D3037" d="M287.622,362.25c-5.676,0-5.676,9,0,9C293.299,371.25,293.299,362.25,287.622,362.25z"/>
	<path fill="#0D3037" d="M287.867,382.5c-5.045,0-5.045,8,0,8S292.912,382.5,287.867,382.5z"/>
	<path fill="#0D3037" d="M296.617,306.351c-0.309-0.754-0.959-1.286-1.805-1.048c-0.29,0.081-0.565,0.287-0.77,0.55
		c-0.577,0.143-1.059,0.605-1.041,1.397c0.049,2.135,0.778,3.989,1.912,5.757c0.841,1.311,2.588,0.711,2.734-0.757
		C297.85,310.194,297.389,308.239,296.617,306.351z"/>
	<path fill="#0D3037" d="M281.411,306.554c-0.468-0.132-1.065,0.026-1.444,0.385c-0.26,0.099-0.505,0.276-0.702,0.554
		c-1.257,1.775-1.162,4.131-0.637,6.156c0.374,1.443,2.445,1.424,2.829,0c0.465-1.724,0.731-3.482,0.978-5.25
		C282.549,307.59,282.254,306.791,281.411,306.554z"/>
	<path fill="#0D3037" d="M300.255,299.803c-1.514-0.89-2.311-2.544-3.225-3.975c-0.649-1.016-2.213-0.197-1.829,0.809
		c0.002,0.015-0.002,0.03,0.001,0.045c0.132,0.739,0.447,1.385,0.876,1.954c0.669,1.221,1.694,2.249,3.031,2.977
		c0.314,0.171,0.612,0.145,0.862,0.022C300.708,301.435,301.109,300.306,300.255,299.803z"/>
	<path fill="#0D3037" d="M280.272,297.036c-2.613,0.986-3.974,3.371-4.84,5.948c-0.411,1.223,1.479,1.744,1.886,0.532
		c0.617-1.838,1.574-3.835,3.473-4.552C281.965,298.522,281.458,296.588,280.272,297.036z"/>
	<path fill="#0D3037" d="M298.835,327.734c-0.206-1.27-2.09-0.73-1.886,0.532c0.476,2.942-2.832,3.423-4.909,2.77
		c-1.209-0.38-1.722,1.551-0.52,1.929C295.227,334.131,299.56,332.216,298.835,327.734z"/>
	<path fill="#0D3037" d="M290.067,321c-1.09,0.092-1.982-0.162-2.835-0.643c1.761-1.957,2.382-4.483,1.333-7.122
		c-0.468-1.178-2.361-0.664-1.886,0.532c0.969,2.439,0.224,4.396-1.704,6.027c-0.534,0.452-0.257,1.218,0.198,1.571
		c1.465,1.136,3.036,1.793,4.895,1.637C291.315,322.895,291.325,320.894,290.067,321z"/>
</g>
<g id="Слой_35">
	<path fill="#787B7F" d="M347.216,382.724c-0.709-2.519-2.629-4.074-5.318-4.038c-0.1,0.071-0.218,0.125-0.376,0.125h-0.062
		c-0.138,0-0.246-0.041-0.341-0.097c-0.719,0.527-1.255,1.132-1.499,1.844c-0.08,0.234-0.292,0.417-0.527,0.483
		c-0.144,0.075-0.309,0.126-0.509,0.126c-0.832,0-1.163-0.751-1.022-1.377c-2.367-2.731-5.145-5.329-9.132-3.197
		c-0.198,0.106-0.39,0.107-0.554,0.045c-1.626,1.044-3.171,2.189-4.628,3.439c-0.015,0.217-0.094,0.438-0.258,0.643
		c-0.681,0.852-1.124,1.871-1.767,2.752c-0.618,0.846-1.338,1.543-2.108,2.248c-0.104,0.095-0.213,0.157-0.323,0.205
		c-0.077,0.05-0.162,0.087-0.258,0.115c-1,2.015-1.353,4.086-2.391,6.089c0.169,0.744-0.236,1.641-1.225,1.641
		c-0.362,0-0.642-0.125-0.848-0.314c-0.491,0.061-1.034,0.047-1.603-0.017c-0.148,0.068-0.315,0.113-0.507,0.123
		c-1.055,0.052-1.454,0.424-2.256,0.946c-0.143,0.093-0.658,0.537-1.039,0.631c0.132,0.459,0.05,0.988-0.322,1.289
		c-0.082,0.066-0.164,0.133-0.245,0.199c-0.658,0.534-1.579,0.507-2.056-0.265c-0.075-0.122-0.119-0.242-0.168-0.362
		c-0.483-0.426-0.925-0.9-1.492-1.201c-0.723-0.384-1.394-0.669-2.111-0.854c-0.089,0.084-0.189,0.164-0.317,0.229
		c-0.275,0.141-0.581,0.273-0.897,0.405c-0.051,0.056-0.11,0.103-0.169,0.151c-0.357,2.087,2.17,2.409,3.878,2.968
		c1.263,0.413,1.229,2.098,0,2.525c-0.035,0.012-0.151,0.049-0.307,0.096c0.006,0.075,0.027,0.143,0.018,0.225
		c-0.081,0.735-0.079,1.545-0.027,2.384c0.335,0.125,0.626,0.383,0.772,0.81c1.365,3.988,4.933,8.487,6.347,13.027
		c0.608,0.637,1.097,1.366,1.403,2.202c0.098,0.266,0.066,0.544-0.038,0.797c0.086,0.161,0.136,0.34,0.154,0.524
		c0.772,1.59,1.373,3.225,1.858,4.892c0.163,0.135,0.304,0.309,0.4,0.538c0.455,1.086,0.888,2.198,1.304,3.321
		c0.142,0.102,0.271,0.243,0.376,0.429c0.887,1.57,1.407,3.16,1.951,4.813c0.426,0.17,0.75,0.554,0.728,1.16
		c-0.064,1.733,1.415,3.102,2.075,4.607c0.687,1.566,1.393,3.133,2.002,4.732c0.089,0.151,0.148,0.32,0.175,0.496
		c0.061,0.267,0.033,0.503-0.06,0.703c-0.157,0.462-0.553,0.833-1.188,0.833c-0.541,0-0.906-0.27-1.101-0.635
		c-0.06-0.076-0.105-0.171-0.152-0.264c-0.086,0.084-0.194,0.145-0.313,0.195c0.064,0.12,0.116,0.256,0.14,0.422
		c0.145,0.996,0.917,1.776,1.188,2.752c0.112,0.404,0.185,0.813,0.24,1.225c0.745,0.038,1.387-0.128,2.087-0.391
		c0.557-0.209,1.176,0.122,1.471,0.608c0.193,0.171,0.341,0.4,0.402,0.695c0.048,0.028,0.102,0.062,0.139,0.086
		c0.049,0.011,0.296,0.1,0.276,0.095c0.151,0.039,0.302,0.078,0.456,0.103c0.183,0.03,0.434,0.052,0.713,0.051
		c0.133,0,0.267,0,0.4-0.01c0.08-0.006,0.111-0.007,0.121-0.005c0.072-0.011,0.141,0.001,0.212-0.001
		c0.106-0.026,0.219-0.045,0.344-0.045c0.258,0,0.472,0.066,0.651,0.17c0.86-0.363,1.706-0.764,2.491-1.262
		c0.806-0.511,2.187-1.314,2.174-2.411c-0.003-0.252,0.058-0.461,0.155-0.638c-0.259-0.799-0.618-1.55-1.146-2.186
		c-0.054-0.065-0.096-0.133-0.135-0.201c-0.246,0.048-0.495,0.086-0.751,0.095c-0.978,0.034-0.974-1.481,0-1.515
		c0.311-0.011,0.613-0.077,0.911-0.163c0.183-0.223,0.424-0.386,0.683-0.459c-0.754-3.039-3.331-5.31-4.16-8.376
		c-0.006-0.024-0.006-0.046-0.012-0.069c-1.998-2.584-3.456-6.01-4.689-8.759c-1.419-3.164-2.002-6.527,0.534-9.159
		c0.019-1.026,0.28-1.993,0.992-2.616c0.008-0.32,0.003-0.641,0-0.961c-0.011-0.017-0.025-0.03-0.036-0.048
		c-0.234-0.382-0.534-0.711-0.738-1.108c-0.919-1.005-1.715-2.084-1.885-3.038c-0.737-0.604-0.511-2.108,0.712-2.108
		c0.179,0,0.334,0.038,0.471,0.096c0.002-0.001,0.003-0.002,0.005-0.003c1.447-0.708,2.913-0.583,4.486-0.533
		c4.885,0.155,1.519-5.707,0.909-8.006c-0.052-0.197-0.061-0.38-0.049-0.553c-0.766-0.569-1.551-1.175-1.834-1.984
		c-0.402,0.07-0.809,0.099-1.275,0.145c-0.699,0.068-1.221,0.375-1.752,0.734c0.035,0.083,0.053,0.18,0.051,0.29
		c-0.005,0.219-0.033,0.418-0.158,0.603c-0.001,0.001-0.002,0.002-0.003,0.003c0.01,0.098,0.005,0.195-0.021,0.29
		c0.124,0.093,0.25,0.185,0.349,0.301c0.138,0.162,0.201,0.352,0.226,0.545c0.023,0.009,0.045,0.007,0.069,0.019
		c0.111,0.057,0.214,0.111,0.312,0.188c0.093,0.072,0.146,0.16,0.184,0.252c0.565,0.334,1.256,0.777,1.834,1.297
		c0.649,0.246,1.117,0.784,1.242,1.477c0.013,0.069,0.005,0.131-0.003,0.192c0.287,0.062,0.538,0.304,0.441,0.672
		c-0.402,1.516-1.987,1.289-3.135,1.776c-0.206,0.087-0.399,0.046-0.554-0.051c-1.018,0.33-2.03,0.675-3.009,1.113
		c-0.024,0.011-0.047,0.009-0.071,0.016c-0.087,0.071-0.195,0.124-0.34,0.124c-0.656,0-0.718-0.907-0.195-1.093
		c0.014-0.007,0.02-0.018,0.034-0.025c0.557-0.249,1.122-0.474,1.692-0.684c0.014-0.038,0.018-0.074,0.042-0.112
		c0.562-0.899,1.447-1.272,2.489-1.218c0.267,0.014,0.434,0.176,0.505,0.373c0.552-0.205,0.99-0.468,0.812-0.779
		c-0.185-0.325-0.438-0.609-0.714-0.878c-0.005-0.006-0.012-0.01-0.017-0.016c-0.572-0.552-1.275-1.005-1.937-1.385
		c-0.152,0.159-0.361,0.272-0.649,0.272c-0.022,0-0.037-0.011-0.058-0.012c-0.024,0.002-0.042,0.012-0.067,0.012
		c-0.028,0-0.047-0.013-0.075-0.015c-0.058,0.035-0.105,0.081-0.17,0.106c-0.502,0.195-1.064,0.304-1.59,0.176
		c-0.208,0.143-0.422,0.276-0.653,0.397c-0.036,0.019-0.062,0.04-0.094,0.06c-0.081,0.112-0.181,0.2-0.304,0.259
		c-0.094,0.115-0.171,0.247-0.25,0.408c-0.122,0.246-0.336,0.318-0.539,0.278c-0.005,0-0.008,0.003-0.012,0.003
		c-0.544,0-0.682-0.628-0.415-0.949c-0.123-0.144-0.219-0.319-0.232-0.555c-0.107-1.918,0.995-3.286,2.498-4.347
		c0.785-0.555,1.57-1.149,2.426-1.589c1.019-0.525,2.174-0.19,3.176-0.641c0.279-0.126,0.55-0.117,0.781-0.025
		c0.284-0.176,0.595-0.312,0.897-0.392c2.989-0.796,8.223,0.23,8.976-3.694c0.052-0.271,0.171-0.47,0.326-0.609
		c-0.11-0.582-0.289-1.144-0.581-1.667c-0.747-1.334,1.299-2.527,2.045-1.195c0.15,0.267,0.264,0.541,0.372,0.817
		c0.106-0.089,0.239-0.155,0.418-0.155c0.04,0,0.068,0.016,0.105,0.021c0.03-0.004,0.05-0.021,0.083-0.021
		c1.269-0.003,3.268,0.191,4.339-0.63C347.962,385.578,347.503,383.742,347.216,382.724z M345.097,384.73
		c-1.081,0.886-2.546,0.176-3.377-0.729c-0.825-0.899-1.277-2.446,0.245-2.912c0.085-0.026,0.161-0.026,0.235-0.023
		c0.268-0.233,0.652-0.375,1.072-0.377c1.056-0.005,2.075,0.834,2.36,1.846C345.827,383.23,345.697,384.239,345.097,384.73z"/>
</g>
<g id="Слой_31">
	<path fill="#FCFCFC" d="M333.291,377.854c-0.068-0.154-0.209-0.271-0.432-0.26c-0.034,0.002-0.068,0.008-0.102,0.01
		c-0.132-0.039-0.248-0.026-0.337,0.031c-5.213,0.457-10.346,4.796-12.202,9.544c-0.541,1.384-3.493,9.081,0.502,8.088
		c1.34-0.333,2.524-1.569,3.626-2.326c1.855-1.276,3.858-1.775,6.095-1.716c1.914,0.05,5.356,0.914,6.87-0.793
		C340.282,387.079,336.905,379.792,333.291,377.854z M327.14,381.769c0.26,0.072,0.516,0.159,0.773,0.242
		c-0.183,0.417-0.366,0.834-0.549,1.25c-0.335-0.146-0.669-0.294-0.999-0.452C326.625,382.463,326.881,382.115,327.14,381.769z
		 M324.276,385.636c0.488-0.675,0.98-1.347,1.48-2.014c0.397,0.192,0.798,0.373,1.202,0.549c-0.324,0.73-0.653,1.457-0.986,2.182
		C325.405,386.117,324.835,385.89,324.276,385.636z M325.549,387.254c-0.14,0.298-0.276,0.598-0.419,0.894
		c-0.66-0.29-1.275-0.672-1.894-1.047c0.148-0.214,0.296-0.429,0.446-0.641C324.297,386.742,324.924,386.995,325.549,387.254z
		 M325.923,381.375c0.035,0.038,0.081,0.068,0.135,0.092c0.016,0.009,0.034,0.015,0.051,0.022c-0.222,0.297-0.442,0.595-0.665,0.892
		c-0.008-0.002-0.017-0.005-0.025-0.007c-0.035-0.031-0.068-0.064-0.12-0.087c-0.107-0.048-0.216-0.093-0.324-0.139
		C325.28,381.879,325.596,381.621,325.923,381.375z M324.217,382.863c0.038,0.037,0.079,0.073,0.139,0.099
		c0.134,0.059,0.271,0.115,0.405,0.174c0.021,0.022,0.06,0.024,0.086,0.041c-0.503,0.671-0.997,1.348-1.488,2.028
		c-0.176-0.084-0.354-0.163-0.529-0.248c-0.049-0.086-0.12-0.16-0.221-0.2C323.077,384.094,323.621,383.46,324.217,382.863z
		 M322.05,385.616c0.041,0.061,0.097,0.117,0.181,0.159c0.177,0.087,0.357,0.167,0.535,0.253c-0.136,0.193-0.268,0.388-0.402,0.582
		c-0.221-0.12-0.439-0.245-0.67-0.346C321.804,386.046,321.924,385.83,322.05,385.616z M333.782,390.411
		c-1.771,0.025-3.541-0.376-5.311-0.115c-2.555,0.376-4.445,1.602-6.49,3.115c-0.545,0.403-2.166,1.625-2.327,0.271
		c-0.083-0.697,0.092-1.428,0.233-2.106c0.312-1.505,0.844-2.973,1.402-4.403c0.179,0.081,0.347,0.181,0.521,0.273
		c-0.253,0.381-0.516,0.756-0.758,1.145c-0.09,0.145-0.093,0.285-0.047,0.405c0.011,0.24,0.169,0.473,0.479,0.473
		c0.294,0,0.447-0.209,0.473-0.435c0.236-0.374,0.487-0.737,0.732-1.105c0.655,0.389,1.304,0.789,1.997,1.105
		c-0.27,0.542-0.536,1.085-0.82,1.62c-0.302,0.569,0.561,1.074,0.864,0.505c0.31-0.584,0.603-1.177,0.896-1.769
		c0.075,0.018,0.145,0.023,0.209,0.011c0.01,0,0.016,0.005,0.026,0.005c0.557,0,0.63-0.743,0.226-0.946
		c0.13-0.27,0.254-0.543,0.382-0.815c0.97,0.381,1.952,0.735,2.947,1.056c0.616,0.198,0.877-0.767,0.266-0.964
		c-0.942-0.303-1.87-0.637-2.789-0.997c0.334-0.727,0.662-1.457,0.987-2.188c1.392,0.564,2.81,1.065,4.218,1.59
		c-0.559,0.885-1.124,1.768-1.605,2.7c-0.052,0.102-0.059,0.198-0.048,0.29c-0.005,0.122,0.029,0.242,0.099,0.338
		c0.005,0.007,0.007,0.016,0.013,0.023c0.031,0.037,0.072,0.064,0.115,0.09c0.014,0.008,0.023,0.022,0.038,0.029
		c0.061,0.028,0.132,0.045,0.215,0.045c0.074,0,0.137-0.016,0.193-0.039c0.023-0.009,0.041-0.023,0.061-0.036
		c0.028-0.017,0.054-0.035,0.076-0.057c0.023-0.022,0.042-0.046,0.06-0.073c0.01-0.015,0.018-0.03,0.026-0.046
		c0.019-0.036,0.035-0.071,0.045-0.111l0,0c0.5-0.961,1.084-1.872,1.661-2.787c1.013,0.39,2.02,0.796,3,1.267
		c0.025,0.012,0.049,0.011,0.074,0.019c0.078,0.065,0.174,0.112,0.303,0.112c0.583,0,0.634-0.809,0.163-0.967
		c-0.014-0.008-0.021-0.02-0.036-0.027c-0.973-0.468-1.973-0.871-2.978-1.259c0.345-0.569,0.679-1.144,0.97-1.744
		c0.28-0.578-0.582-1.085-0.864-0.505c-0.315,0.65-0.68,1.269-1.056,1.883c-1.45-0.541-2.91-1.056-4.342-1.64
		c0.193-0.439,0.386-0.878,0.579-1.318c1.107,0.398,2.198,0.845,3.305,1.247c0.094,0.034,0.177,0.033,0.253,0.017
		c0.002,0,0.003,0.001,0.005,0.001c0.645,0,0.645-1,0-1c-0.01,0-0.016,0.005-0.026,0.005c-1.05-0.383-2.087-0.801-3.138-1.179
		c0.011-0.025,0.022-0.049,0.032-0.074c0.258-0.584-0.604-1.094-0.864-0.505c-0.038,0.086-0.076,0.172-0.113,0.258
		c-0.181-0.059-0.361-0.123-0.544-0.177c0.173-0.234,0.35-0.466,0.521-0.701c0.092-0.126,0.108-0.249,0.079-0.359
		c1.387-0.692,2.839-1.143,4.248-1.246c2.378,0.996,3.542,3.711,4.225,6.022c0.31,1.05,0.436,2.14,0.429,3.231
		C337.255,390.038,335.502,390.387,333.782,390.411z"/>
	<path fill="#FCFCFC" d="M324.181,424.605c-0.571-1.643-1.17-3.273-1.863-4.869c-0.256-0.59-1.118-0.08-0.864,0.505
		c0.659,1.516,1.22,3.069,1.762,4.631C323.427,425.477,324.393,425.216,324.181,424.605z"/>
	<path fill="#FCFCFC" d="M347.697,382.293c-0.744-2.34-2.97-4.084-5.435-4.024c-1.804,0.044-3.126,1.177-3.654,2.703
		c-0.88-1.909-2.318-3.546-4.097-4.685c-2.31-1.479-5.362-0.43-7.571,0.706c-2.875,1.479-5.081,4.142-6.953,6.704
		c-1.235,1.689-2.379,3.439-3.312,5.312c-0.365,0.733-0.58,1.514-0.764,2.305c-0.036-0.119-0.092-0.224-0.157-0.332
		c-0.025-0.048-0.058-0.089-0.088-0.134c-0.039-0.051-0.058-0.113-0.104-0.159c-0.016-0.016-0.038-0.021-0.055-0.036
		c-0.238-0.24-0.566-0.403-1.006-0.403c-0.46,0-0.806,0.172-1.046,0.43c-0.004,0.004-0.01,0.005-0.014,0.009
		c-0.043,0.044-0.088,0.085-0.133,0.128c-0.504,0.102-0.853,0.544-0.987,1.034c-0.227,0.336-0.313,0.766-0.248,1.171
		c-1.844,0.389-3.695,1.921-4.295,3.725c-1.701-0.653-2.494-2.634-4.405-2.944c-0.983-0.159-2.52,0.336-2.84,1.37
		c-0.544,1.762,3.321,3.245,4.958,4.063c-0.157,0.197-0.326,0.386-0.508,0.563c-0.894,0.322-1.437,0.98-1.379,1.936
		c0.001,0.007,0.001,0.014,0.002,0.021c0.005,0.08,0.007,0.157,0.021,0.241c0.032,0.19,0.143,0.29,0.276,0.333
		c4.092,6.693,7.191,13.91,10.219,21.13c3.088,7.364,6.298,14.676,9.593,21.95c-0.003,0.053,0.002,0.104,0.013,0.155v0
		c0.001,0.005,0.001,0.011,0.003,0.017c0.002,0.009,0.008,0.016,0.011,0.025c-0.079,0.397-0.222,0.813-0.638,0.923
		c-0.496,0.132-1.121-0.337-1.492-0.597c-0.143-0.1-0.282-0.105-0.402-0.059c-0.356-0.052-0.763,0.327-0.533,0.743
		c0.633,1.142,1.031,2.352,1.283,3.631c0.002,0.01,0.008,0.016,0.011,0.026c0.03,0.222,0.182,0.424,0.471,0.424
		c0.018,0,0.03-0.008,0.047-0.01c0.013,0.002,0.023,0.009,0.037,0.01c1.222,0.075,2.431-0.013,3.642-0.176
		c0.246,0.831,0.757,1.474,1.9,1.731c2.094,0.471,4.662-0.87,6.082-2.327c0.037-0.038,0.055-0.079,0.077-0.12
		c0.06-0.026,0.119-0.068,0.173-0.13c0.088-0.102,0.166-0.208,0.25-0.312c0.064-0.08,0.092-0.166,0.105-0.251
		c0.093-0.08,0.159-0.197,0.167-0.352c0.072-1.455-0.258-2.794-1.209-3.916c-0.216-0.255-0.625-0.153-0.785,0.101
		c-0.074,0.117-0.165,0.225-0.25,0.336c-0.197-0.324-0.38-0.661-0.57-0.992c0.876-0.169,1.653-0.542,2.441-1.035
		c0.178-0.112,0.308-0.352,0.23-0.565c-0.68-1.838-1.571-3.87-2.779-5.428c-0.052-0.067-0.11-0.122-0.17-0.17
		c-1.528-2.752-3.254-5.381-4.696-8.183c-1.618-3.144-4.031-8.213-1.483-11.482c0.038-0.049,0.058-0.101,0.077-0.153
		c0.13-0.031,0.258-0.067,0.39-0.094c0.245-0.05,0.447-0.374,0.349-0.615c-0.456-1.125,0.012-1.696,0.958-2.185
		c0.002-0.001,0.002-0.003,0.004-0.003c0.328-0.075,0.584-0.51,0.284-0.844c-1.477-1.645-2.564-3.706-3.54-5.714
		c0.001,0,0.001,0,0.002-0.001c2.039-1.548,5.18,0.254,7.389-1.007c2.473-1.411,1.665-3.804,0.925-6.061
		c-1.104-3.364-4.428-7.67-7.252-3.559c-0.063,0.054-0.114,0.119-0.141,0.196c-0.014,0.022-0.028,0.037-0.042,0.059
		c-0.133,0.212-0.083,0.415,0.046,0.556c0.044,0.062,0.104,0.111,0.177,0.146c1.202,1.8,4.482,2.04,4.739,4.483
		c0.156,1.483-2.259,1.668-3.293,1.923c-1.2,0.296-2.473,0.547-3.575,1.134c-0.031-0.067-0.06-0.125-0.091-0.194
		c0.699-0.16,1.231-0.524,1.735-1.069c0.654-0.707,1.083-1.488,2.151-1.334c0.959,0.139,2.239,0.212,2.012-1.137
		c-0.289-1.714-2.225-2.347-3.705-2.222c-1.315,0.11-2.744,0.758-3.604,1.81c-0.129-0.635-0.173-1.246-0.117-1.809
		c0.462,0.025,0.929,0.035,1.406,0.015c1.611-0.068,1.875-2.168,0.791-2.811c2.117-1.578,4.564-2.798,7.167-3.103
		c2.311-0.27,4.651-0.095,6.884-0.855c2.832-0.965,2.852-4.021,2.328-6.834c1.39,1.458,3.412,1.891,5.497,1.231
		C347.798,386.682,348.327,384.274,347.697,382.293z M302.037,396.05c-0.638-0.522-0.399-0.887,0.293-1.119
		c1.315-0.44,2.076,0.361,2.888,1.203c0.822,0.854,1.579,1.49,2.756,1.734c0.25,0.052,0.561-0.069,0.615-0.349
		c0.337-1.756,1.907-2.914,3.536-3.452c0.019,0.222,0.095,0.453,0.26,0.689c0.323,0.459,0.668,0.883,1.032,1.278
		c-0.494,0.215-1.01,0.371-1.56,0.414c-0.049,0.004-0.088,0.023-0.13,0.037c-0.055-0.021-0.113-0.037-0.182-0.037
		c-0.645,0-0.645,1,0,1c0.045,0,0.08-0.015,0.118-0.024c0.057,0.019,0.12,0.03,0.194,0.024c0.835-0.067,1.599-0.324,2.326-0.677
		c0.037,0.034,0.071,0.072,0.109,0.105c-0.357,0.23-0.743,0.418-1.027,0.563c-2.066,1.055-4.406,1.456-6.665,1.973
		c0.021-0.03,0.043-0.056,0.065-0.086c0.165-0.229,0.032-0.547-0.179-0.684C305.04,397.701,303.389,397.156,302.037,396.05z
		 M327.204,450.654c-0.335-0.507-0.289-1.309-0.286-1.944c0.595,0.06,1.206,0.032,1.811-0.069c-0.018,0.916,0.104,1.813,0.377,2.691
		C328.403,451.392,327.596,451.247,327.204,450.654z M330.085,451.116c-0.283-0.893-0.398-1.783-0.354-2.719
		c0.484-0.149,0.946-0.36,1.393-0.598c0.383,0.773,0.648,1.594,0.669,2.463c0.001,0.059,0.019,0.106,0.035,0.154
		C331.278,450.713,330.69,450.945,330.085,451.116z M333.332,446.049c0.477,0.794,0.624,1.689,0.586,2.637
		c-0.075,0.095-0.148,0.193-0.228,0.285c-0.036,0.042-0.054,0.086-0.074,0.13c-0.061,0.024-0.12,0.063-0.176,0.12
		c-0.214,0.22-0.446,0.418-0.688,0.602c-0.089-0.893-0.369-1.744-0.773-2.548C332.483,446.918,332.95,446.515,333.332,446.049z
		 M331.218,437.93c0.012,0.008,0.021,0.019,0.034,0.026c0.09,0.07,0.164,0.196,0.286,0.394c0.825,1.331,1.563,2.794,2.134,4.261
		c-0.657,0.384-1.324,0.678-2.099,0.755c-0.12-0.219-0.252-0.429-0.37-0.651c0.084,0.033,0.177,0.051,0.286,0.029
		c0.085-0.017,0.165-0.045,0.25-0.062c0.087-0.018,0.153-0.053,0.207-0.098c0.013-0.007,0.025-0.007,0.037-0.015
		c0.186-0.124,0.336-0.174,0.56-0.182c0.011,0,0.018-0.006,0.029-0.007c0.012,0.001,0.021,0.007,0.034,0.007c0.645,0,0.645-1,0-1
		c-0.011,0-0.018,0.005-0.028,0.006c-0.013,0-0.021-0.006-0.034-0.006c-0.393,0.014-0.735,0.098-1.065,0.318
		c-0.006,0.004-0.008,0.01-0.014,0.014c-0.082,0.018-0.159,0.043-0.241,0.06c-0.197,0.041-0.298,0.165-0.336,0.309
		c-0.095-0.182-0.185-0.368-0.278-0.551c0.098,0.019,0.202,0.018,0.312-0.032c0.308-0.14,0.641-0.214,0.964-0.313
		c0.588-0.031,0.599-0.911,0.037-0.981c-0.078-0.02-0.163-0.026-0.261,0.005c-0.422,0.132-0.84,0.241-1.244,0.425
		c-0.085,0.039-0.142,0.092-0.184,0.151c-0.387-0.779-0.768-1.557-1.14-2.344c0.043-0.023,0.081-0.051,0.113-0.085
		c0.033,0,0.06,0.012,0.096,0.004c0.497-0.113,0.98-0.254,1.464-0.414C330.995,437.88,331.119,437.873,331.218,437.93z
		 M324.931,426.498c1.457,3.702,3.69,6.994,5.651,10.431c-0.188,0.041-0.377,0.098-0.562,0.159c-0.326-0.879-0.747-1.72-0.932-2.646
		c-0.05-0.252-0.234-0.356-0.428-0.356c-0.019-0.002-0.034-0.011-0.054-0.011c-0.266,0-0.416,0.172-0.463,0.372
		c-0.012,0.037-0.016,0.077-0.019,0.118c0,0.007,0,0.013,0,0.02c-0.001,0.041-0.009,0.078,0,0.123
		c0.183,0.921,0.599,1.758,0.925,2.631c-0.024-0.003-0.042-0.014-0.068-0.014c-0.078,0-0.146,0.015-0.204,0.041
		c-0.058,0.025-0.106,0.062-0.146,0.106c0,0,0,0,0,0c-0.61-1.304-1.214-2.607-1.826-3.88c-2.252-4.69-4.269-9.491-5.82-14.461
		c1.089-0.562,2.196-1.077,3.354-1.465C322.904,420.406,323.828,423.697,324.931,426.498z M328.482,405.133
		c1.249-0.342,2.294-0.667,2.504-2.05c0.483-3.177-3.537-3.462-4.856-5.453c2.675-3.748,5.11,2.49,5.822,4.815
		c1.784,5.832-5.601,2.616-8.221,4.473c-0.008-0.017-0.017-0.034-0.024-0.05c-0.04-0.084-0.091-0.188-0.135-0.281
		C325.041,405.776,326.881,405.572,328.482,405.133z M322.101,402.639c0.589-1.105,1.818-1.645,2.993-1.882
		c0.674-0.136,1.39-0.046,1.997,0.271c0.347,0.181,1.393,1.214,0.551,1.158c-0.758-0.051-1.327-0.25-2.049,0.074
		c-1.236,0.555-1.536,2.031-2.955,2.305c-0.24-0.564-0.473-1.163-0.666-1.769C322.02,402.756,322.065,402.707,322.101,402.639z
		 M322.085,405.659c1.123,2.761,2.555,5.72,4.488,8.058c-1.055,0.64-1.537,1.448-1.233,2.623c-2.355,0.574-4.497,1.689-6.611,2.865
		c-0.072,0.04-0.126,0.09-0.165,0.145c-0.25,0.279-0.132,0.849,0.355,0.849c0.162,0,0.283-0.063,0.363-0.157
		c0.268-0.149,0.538-0.294,0.807-0.44c1.382,4.386,3.131,8.626,5.055,12.8c2.093,4.544,4.181,9.398,6.818,13.654
		c-0.358,0.316-0.76,0.597-1.191,0.836c-0.112-1.248-0.462-2.43-0.983-3.57c-0.268-0.586-1.13-0.077-0.864,0.505
		c0.47,1.027,0.79,2.118,0.869,3.248c0.007,0.093,0.037,0.169,0.078,0.235c-0.717,0.276-1.472,0.423-2.207,0.438
		c0.012-0.142-0.023-0.287-0.115-0.394c-0.007-0.025-0.001-0.048-0.013-0.074c-3.256-7.384-6.391-14.822-9.917-22.083
		c-0.011-0.022-0.027-0.032-0.039-0.051c-0.676-1.819-1.627-3.513-2.372-5.301c0.005-0.007,0.011-0.01,0.016-0.018
		c0.293-0.513,0.634-0.975,1.047-1.399c0.075-0.077,0.108-0.16,0.126-0.244c2.799-0.227,6.209-1.625,6.69-4.227
		c0.012-0.064,0.008-0.122-0.001-0.177c0.003-0.097-0.023-0.189-0.068-0.273v0c-0.003-0.06-0.013-0.121-0.044-0.185
		c-1.88-3.859-2.851-8.078-4.875-11.875c-0.036-0.067-0.081-0.117-0.13-0.156c-0.088-0.107-0.23-0.171-0.379-0.181
		c-0.003-0.004-0.004-0.008-0.007-0.011c-0.028-0.031-0.065-0.054-0.102-0.077c-0.016-0.01-0.028-0.023-0.045-0.031
		c-0.059-0.026-0.127-0.042-0.206-0.042c-0.11,0-0.194,0.036-0.266,0.084h0c-2.93,1.202-5.791,2.57-8.867,3.372
		c-0.424,0.111-0.431,0.587-0.199,0.832c0.005,0.008,0.015,0.012,0.021,0.02c-0.007,0.062-0.004,0.128,0.017,0.201
		c1.282,4.382,4,8.101,5.688,12.312c0.115,0.287,0.403,0.371,0.64,0.315c0.029,0.011,0.05,0.028,0.084,0.034
		c0.248,0.045,0.521,0.07,0.803,0.085c-0.277,0.335-0.532,0.685-0.753,1.062c-0.226,0.075-0.389,0.279-0.274,0.566
		c0.782,1.95,1.85,3.771,2.562,5.75c0.003,0.009,0.01,0.014,0.014,0.023c0.018,0.109,0.067,0.212,0.147,0.287
		c3.47,7.164,6.568,14.498,9.778,21.78c-0.045-0.009-0.092-0.008-0.136-0.018c-0.481-0.107-0.746,0.431-0.563,0.753
		c-0.001,0.015-0.008,0.026-0.007,0.042c0.012,0.38,0.03,0.748,0.064,1.102c-0.003,0-0.006-0.001-0.01-0.001
		c-1.034,0.142-2.075,0.192-3.117,0.151c-0.174-0.806-0.418-1.586-0.729-2.341c0.426,0.162,0.878,0.231,1.338,0.109
		c0.829-0.22,1.171-1.131,1.29-1.887c0.008-0.048-0.001-0.09-0.005-0.134c0.001-0.016-0.001-0.033-0.002-0.05
		c-0.004-0.019-0.006-0.038-0.012-0.057c-0.007-0.048-0.008-0.094-0.031-0.145c-3.425-7.556-6.75-15.154-9.958-22.805
		c-2.991-7.132-6.081-14.251-10.149-20.846c0.015-0.49,0.408-0.732,0.892-0.865c0.001,0,0.001-0.001,0.002-0.001
		c0.041,0.001,0.078,0.013,0.123,0.001c2.058-0.546,7.307-1.078,9.554-3.117c0.76,0.547,1.575,0.989,2.44,1.329
		c0.001,0.005,0.002,0.01,0.002,0.015c0.494,0.166,1.009,0.276,1.497,0.46c0.084,0.02,0.173,0.029,0.258,0.048h0.052
		c0.086,0,0.159,0.02,0.222,0.051c0.292,0.059,0.581,0.125,0.882,0.164C320.376,401.663,321.45,404.098,322.085,405.659z
		 M311.248,405.958c0.002,0.021-0.004,0.039,0.002,0.062c0.589,2.6,2.427,4.656,3.488,7.057c0.053,0.12,0.134,0.184,0.222,0.222
		c0.073,0.051,0.159,0.088,0.272,0.088c0.11,0,0.195-0.036,0.267-0.085c0.018-0.012,0.033-0.023,0.049-0.036
		c0.062-0.056,0.112-0.122,0.138-0.201c0-0.001,0-0.002,0-0.003c0.027-0.081,0.028-0.168,0.016-0.253
		c-0.002-0.015-0.004-0.027-0.007-0.041c-0.019-0.087-0.053-0.168-0.113-0.233c-1.011-2.266-2.744-4.229-3.337-6.669
		c0.891-0.133,1.766-0.402,2.566-0.8c0.655,2.274,1.764,4.449,3.215,6.308c0.058,0.18,0.209,0.327,0.455,0.327
		c0.486,0,0.605-0.568,0.358-0.848c-0.018-0.044-0.034-0.089-0.067-0.131c-1.416-1.8-2.473-3.957-3.075-6.172
		c0.759-0.513,1.405-1.159,1.873-1.923c1.789,3.605,2.766,7.542,4.525,11.165c-0.596,2.617-5.205,3.776-7.481,3.364
		c-0.063-0.011-0.12-0.005-0.175,0.003c-1.62-3.892-4.058-7.407-5.357-11.429C309.771,405.907,310.505,405.982,311.248,405.958z
		 M309.952,404.871c2.284-0.74,4.483-1.705,6.701-2.631c-0.416,0.657-0.998,1.198-1.682,1.619c-0.081,0.024-0.148,0.063-0.199,0.119
		C313.342,404.79,311.538,405.099,309.952,404.871z M332.781,392.705c-3.955,0.216-7.373,1.622-10.397,4.044
		c-1.215,0.002-2.379-0.168-3.455-0.541c-1.028-0.548-1.9-1.35-2.59-2.337c0.289-0.974,0.473-1.965,0.7-2.965
		c0.37-1.624,1.395-3.117,2.284-4.495c1.516-2.349,3.221-4.567,5.262-6.482c2.128-1.997,5.417-3.887,8.436-3.213
		c2.676,0.598,4.698,3.983,5.29,6.429c0.01,0.043,0.04,0.062,0.059,0.095c0.51,1.977,0.99,3.959,0.934,6.018
		C339.212,392.66,335.261,392.569,332.781,392.705z M345.331,386.414c-1.874,0.765-3.868,0.065-4.952-1.506
		c0.201-0.081,0.381-0.187,0.528-0.326c0.956,1.103,2.66,1.559,4.002,0.89c1.501-0.748,1.754-2.496,0.965-3.887
		c-1.367-2.411-6.004-2.017-5.717,1.065c-0.272,0.002-0.542,0.037-0.808,0.094c0.001-0.016,0.008-0.028,0.007-0.045
		c-0.081-1.871,1.008-3.255,2.906-3.43c1.926-0.178,3.464,1.249,4.287,2.846C347.352,383.673,347.079,385.701,345.331,386.414z
		 M341.15,382.791c0-0.033,0.008-0.063,0.001-0.099c-0.439-2.296,2.966-1.927,3.86-0.601c0.599,0.889,0.365,2.119-0.649,2.535
		c-0.994,0.408-2.112,0.008-2.777-0.78c-0.074-0.088-0.157-0.126-0.241-0.146c0.022-0.156,0.031-0.32,0.013-0.5
		C341.341,383.046,341.274,382.885,341.15,382.791z"/>
</g>
</svg>
