<?xml version="1.0" encoding="utf-8"?>
<!DOCTYPE svg PUBLIC "-//W3C//DTD SVG 1.1//EN" "http://www.w3.org/Graphics/SVG/1.1/DTD/svg11.dtd">
<svg version="1.1" xmlns="http://www.w3.org/2000/svg" xmlns:xlink="http://www.w3.org/1999/xlink" x="0px" y="0px"
	 width="595.28px" height="841.89px" viewBox="0 0 595.28 841.89" enable-background="new 0 0 595.28 841.89" xml:space="preserve">
<g>
	<rect y="0" width="595.28" height="841.89"/>
</g>
<g>
	<path fill="#4AAFBF" d="M261,388.64c4.71,6.128,4.677,15.406-1.669,21.081c-3.583,3.205-8.487,2.432-8.081,8.629
		c0.486,7.419,8.389,6.034,13.547,7.215c-1.046,5.253-5.521,10.722-8.553,14.823c-2.887,3.906-9.507,5.941-11.049,10.705
		c-6.55,0.171-21.821,1.308-25.734-3.53c-3.784-4.678-2.614-12.707-0.46-17.608c4.704-10.707,11.107-20.636,18.519-29.259
		c0.949-1.104,2.067-2.758,3.137-3.754c1.03-0.958,2.666-2.178,3.629-3.096c0.905-0.863,3.054-3.563,3.918-4.174
		c3.139-2.219,9.514-4.225,13.297-0.783"/>
	<path fill="#E1B5B4" d="M329.5,442.14c2.495-0.936,5.666-2.656,8.25-1.75c3.347,1.174,6.182,7.12,4.464,10.23
		c5.467,3.4,4.504,8.044-1.213,10.783c-3.18,1.524-12.509,2.087-14.288-0.226c-5.417,0.044-2.606-6.16-3.926-8.565
		c-0.316-3.495,1.257-6.203,2.5-8.698c1.315-0.411,2.322-1.522,3.463-2.025"/>
</g>
<g>
	<path fill="#E1B5B4" d="M302.25,380.14c3.435-3.503,7.635-4.337,10.498-8.867c2.706-4.28,4.786-5.523,8.244-9.085
		c4.622-4.762-0.435-5.232-2.431-10.29c-1.459-3.696,2.966-11.765,1.006-14.326c-0.933-1.219-6.32-1.081-7.672-0.432
		c-3.998,1.918-2.314,5.243-2.201,9.997c0.275,11.543-5.634,21.486-6.444,32.503"/>
</g>
<g>
	<path fill="#F9F9F9" d="M272.5,393.39c-0.942-2.15-1.864-4.424-1.963-6.973c3.227,2.442,9.411,4.234,13.438,6.023
		c-0.86,6.175-7.015,3.004-10.725,1.95"/>
	<path fill="#FDCCCC" d="M280.655,332.969c-3.085,10.178-4.286,24.03-3.145,34.559c0.521,4.812-1.107,24.246,6.006,25.404
		c4.89,0.796,11.295-5.848,14.435-8.437c4.199-3.464,5.974-6.264,8.264-11.822c2.473-6.002,2.302-12.6,3.53-18.978
		c1.127-5.858,1.479-11,0.957-16.911c-7.163-1.861-4.801-11.048-10.694-13.828c-5.455-2.574-18.417,5.119-19.091,10.264"/>
</g>
<g>
	<path fill="#F8E2E2" d="M273.25,390.14c1.565,2.284,4.481,2.125,6.731,1.305c6.686-2.439,5.768-13.778,5.139-19.927
		c-1.03-10.069-2.102-19.07-1.419-29.153c0.179-2.643,1.614-8.277-1.452-9.736c-1.961-0.933-11.809,3.074-13.193,4.818
		c-2.685,3.383-3.47,11.056-3.306,15.387c0.418,11.099-0.712,31.252,9.5,37.807"/>
</g>
<g>
	<path fill="#868B96" d="M342.75,440.89c-0.448-0.848-0.614-2.036-0.698-2.95c0.084-0.082,0.167-0.165,0.249-0.249
		c2.785,0.193,5.986,0.468,8.412,1.424c-0.333-4.152,3.474-8.33,7.725-5.912c5.343,3.04-0.487,7.33-2.2,10.072
		c-4.884,7.816-3.085,19.289,7.974,18.904c0.024-0.03,0.019,0.952-0.006,0.919c-8.044,3.415,2.238,11.724,4.044,16.794"/>
	<path fill="#868B96" d="M366.75,476.64c-0.473,5.158,11.362,11.798,15.444,14.187c1.911,1.118,5.722,2.447,7.319,3.799
		c3.187,2.697,2.242,5.129,3.473,8.549c0.183-0.222,0.336-0.759,0.546-0.998c0.15,0.035,1.377,0.032,1.442-0.013
		c5.711,8.223-7.843,11.313-13.932,8.682c0.965-8.259-13.109-12.071-18.349-15.908c-6.331-4.636-17.002-9.055-22.186-14.794
		c-3.42-3.786-6.931-10.679-12.715-9.048c-0.228-1.54-0.05-3.516,0.493-4.932c4.108-0.102,16.642-5.276,18.02-9.205
		c1.718-4.9-6.092-12.127-5.263-18.039c2.576-1.584,7.016-2.395,9.913-1.313c0.199-1.919,0.904-2.429,1.58-4.194
		c4.976-1.228,9.917-0.592,7.152,5.221c-0.819,1.722-2.108,1.414-2.963,2.961c-0.754,1.365-0.432,2.656-1.031,4.043
		c-1.184,2.742-2.789,5.387-3.407,8.214c4.261,2.768,4.846,9.695,11.237,8.58c-0.004,0.036,0.371,0.504,0.444,0.526
		c-2.881,2.568-4.033,2.488-2.78,5.743c0.89,2.313,4.561,5.291,5.812,7.938"/>
</g>
<g>
	<path fill="#0090A1" d="M249.5,414.64c-8.759,7.971-6.516,24.98,1.02,32.565c6.052-5.616,10.476-14.084,14.038-21.378
		c-9.529-1.908-9.641-3.186-14.495-10.729c-1.916,0.83-4.701,2.072-3.313,3.042"/>
	<path fill="#0090A1" d="M318.5,380.39c4.767,15.826,6.03,34.769,2.043,51.237c-2.669,11.022-0.311,32.012-15.791,30.944
		c-2.096-0.145-2.962-1.343-5.3-0.874c-2.667,0.535-4.957,3.245-7.453,4.381c-6.575,2.993-10.308-2.036-15.904-0.85
		c-1.312,4.001-3.98,15.085-9.852,13.911c-4.527-0.905-3.288-4.66-3.987-7.937c-1.146-5.372-3.13-9.281-8.903-10.489
		c-3.755,4.621-4.589,7.674-6.596,13.313c-0.8,2.249-2.09,6.586-5.52,5.862c-4.105-0.866-5.193-17.134-5.181-20.684
		c0.032-9.254,12.868-11.829,18.689-17.864c3.914-4.058,5.573-7.596,8.444-12.262c4.704-7.645,14.802-4.746,23.168-5.757
		c6.985-0.845,13.061-1.18,14.157-8.915c0.547-3.857,0.819-7.131-1.508-10.286c-2.547-3.454-5.252-2.296-4.257-7.974
		c1.023-5.832,6.325-5.827,11.869-8.017c2.876-1.136,10.417-3.389,11.382-5.739"/>
	<path fill="#267482" d="M318.75,380.89c1.287-5.065-5.818-3.874-4.712-9.768c8.885-3.713,22.32-5.294,28.462,2.956
		c6.725,9.033,10.253,16.67,15.056,27.598c2.072,4.714,2.534,9.403,2.444,14.854c-0.138,8.442-3.786,9.786-11.175,12.596
		c-3.971,1.51-8.447,3.028-12.124,4.955c-4.654,2.44-8.855,9.6-14.668,9.119c-0.234-4.302-4.121-11.557-2.271-14.81
		c0.842-1.48,3.712-1.723,4.931-2.78c3.166-2.744,4.812-9.498,8.762-10.514c2.969-3.862,3.257-6.089-0.561-8.158
		c-6.578-3.565-7.658,2.612-10.852,6.17c-0.189-6.313-0.871-12.454-1.806-18.455c-0.473-3.037-1.566-5.795-2.042-8.762
		c-0.513-3.202,0.272-6.673-0.695-9.751"/>
	<path fill="#0090A1" d="M274.667,443.39c10.887-1.319,41.001-4.792,35.132,13.811c-0.003-0.001-0.23,0.226-0.229,0.225
		c-10.734-3.529-42.494,9.472-35.403-14.37"/>
</g>
<g>
	<path fill="#E1B5B4" d="M267.25,422.14c2.005-4.418,11.703-5.527,16.074-7.974c3.053-1.709,6.213-3.481,9.036-5.47
		c4.476-3.154,7.441-6.848,8.39,0.929c1.753,14.377-10.737,14.01-21.749,14.765c-4.167,0.286-8.085-0.211-11.5-1.75"/>
</g>
<g>
	<path fill="#F8E2E2" d="M251.25,414.14c2.567-3.765,8.476-3.294,11.02-8.359c1.358-2.704,2.502-8.268,1.73-11.371
		c-1.034-4.154-4.173-6.021-7.692-8.039c-5.09-2.919-5.15-4.375-1.264-8.943c3.96-0.272,7.759-3.701,11.263,0.681
		c2.967,3.711,2.436,10.38,5.88,14.386c3.939,4.582,12.535,1.698,10,10.145c-1.752,5.837-6.476,12.433-10.9,16.35
		c-2.944,2.607-9.311,7.489-13.738,6.155c-2.96-0.892-7.389-8.073-5.8-10.755"/>
</g>
<g>
	<path fill="#FDCCCC" d="M258,423.64c8.947-1.789,14.488-17.682,20.194-24.305c2.542-2.95,6.163-4.373,9.62-6.427
		c4.454-2.646,6.655-6.414,10.499-9.65c4.921-4.143,11.917-8.836,18.649-8.331c7.526,14.419-19.508,10.043-22.409,19.716
		c-1.377,4.593,6.442,8.752,4.902,13.022c-1.791,4.967-19.648,9.485-24.644,11.987c-4.567,2.287-11.347,6.277-16.561,4.987"/>
</g>
<g>
	<path fill="#FD9E58" d="M267.5,323.39c3.31,3.89,10.725,7.622,15.749,9.273c-7.787,4.233-21.535,5.003-26.262-3.89
		c-3.396-6.389,1.48-14.607,7.883-14.882c-2.302,2.355-1.937,8.993,2.38,9.749"/>
	<path fill="#EE834A" d="M266.75,323.64c1.329,4.647,9.821,9.097,14.26,9.219c1.08-1.985,8.418-6.824,10.787-8.274
		c2.956-1.81,7.395-3.149,10.395-1.207c5.281,3.419,1.708,14.192,11.422,13.475c-2.55-6.218-2.667-12.574-1.415-19.21
		c-2.665-1.943-1.526-5.73-3.006-8.24c-1.547-2.623-5.436-5.32-8.298-5.774c-7.077-1.122-12.202,4.049-17.074,7.792
		c-4.459,3.425-10.834,11.187-16.318,12.47"/>
	<path fill="#C06B3E" d="M309.75,310.39c-1.462,7.688-1.131,18.398,0.025,26.218c4.714-0.045,9.136-1.941,10.225,3.031
		c0.648,2.961-2.108,9.039-2.671,12.006c9.376,3.203,18.746-10.221,14.614-17.748c-3.108-5.661-9.24-6.281-14.275-9.013
		c-6.043-3.279-3.947-6.306-6.423-11.633c-0.338-0.728-0.804-1.603-1.244-2.11"/>
</g>
<g>
	<path fill="#F9F9F9" d="M318.833,480.223c-6.449,0-6.449,10,0,10C325.282,490.223,325.282,480.223,318.833,480.223z"/>
	<path fill="#332318" d="M279.613,347.301c-0.449-2.449-1.906-4.661-3.719-6.329c-1.421-1.307-3.548,0.809-2.121,2.121
		c1.472,1.354,2.583,3.016,2.948,5.005C277.069,350,279.96,349.192,279.613,347.301z"/>
	<path fill="#332318" d="M304.263,344.622c-0.852-2.4-3.007-4.742-5.539-5.344c-2.986-0.711-4.224,2.158-4.39,4.612
		c-0.087,1.288,1.913,1.28,2,0c0.028-0.406,0.09-0.837,0.195-1.24c0.067-0.025,0.122-0.062,0.178-0.1
		c0.031-0.021,0.061-0.042,0.088-0.066c0.053-0.047,0.102-0.094,0.142-0.151l0,0c0.035-0.024,0.071-0.039,0.104-0.069
		c0.716-0.649,1.567,0.232,1.969,0.901c0.015,0.128,0.049,0.261,0.127,0.397c0.206,0.357,0.368,0.727,0.505,1.105
		c-0.062,2.206,0.385,4.595,2.101,5.591C305.005,352.153,304.847,346.269,304.263,344.622z"/>
	<path fill="#332318" d="M277.113,352.954c0-0.001-0.001-0.001-0.001-0.002c-0.028-0.686-0.508-1.352-1.445-1.352
		c-0.607,0-1.023,0.279-1.25,0.662c-0.04,0.025-0.083,0.034-0.122,0.064c-0.038,0.027-0.07,0.059-0.105,0.089
		c-0.028,0.025-0.057,0.043-0.084,0.071c-0.004,0.004-0.006,0.008-0.01,0.012c-0.021,0.022-0.039,0.046-0.058,0.07
		c-1.819,1.947-2.078,4.639-1.651,7.115c0.183,1.061,1.789,1.346,2.507,0.625C276.796,358.396,277.892,355.542,277.113,352.954z"/>
	<path fill="#332318" d="M286.266,369.092c-1.773-0.255-3.145-0.873-4.286-2.154c3.582-4.096,3.612-9.043,2.651-14.314
		c-0.231-1.268-2.158-0.729-1.929,0.532c0.877,4.811,0.92,9.339-2.743,13.027c-0.291,0.293-0.42,0.854-0.156,1.212
		c1.523,2.063,3.375,3.259,5.931,3.626C286.995,371.202,287.538,369.275,286.266,369.092z"/>
	<path fill="#332318" d="M284.833,385.057c-0.076,0-0.133,0.028-0.201,0.041c-0.047-0.011-0.082-0.036-0.133-0.041
		c-0.992-0.1-1.553-1.743-1.89-2.492c-0.543-1.21-0.982-2.465-1.679-3.599c-1.685-2.739-4.313-2.075-6.471-0.282
		c-0.318,0.264-0.399,0.876-0.156,1.212c1.415,1.957,3.294,1.915,5.463,1.293c0.039-0.011,0.061-0.036,0.096-0.05
		c0.21,0.475,0.395,0.96,0.577,1.393c0.803,1.916,1.702,4.287,4.061,4.526c0.084,0.009,0.148-0.014,0.221-0.023
		c0.04,0.004,0.07,0.023,0.112,0.023C286.123,387.057,286.123,385.057,284.833,385.057z"/>
	<path fill="#332318" d="M299.393,353.257c-0.789-0.638-1.47-0.73-2.232-0.626c-0.268,0.037-0.519,0.121-0.74,0.245
		c-0.523,0.069-1.011,0.396-1.21,1.064c-0.581,1.945-1.17,3.77-0.668,5.812c0.221,0.899,1.422,1.518,2.208,0.925
		c1.932-1.458,2.393-3.669,3.029-5.915C299.915,354.284,299.796,353.583,299.393,353.257z"/>
	<path fill="#F9F9F9" d="M369.752,491.625c-1.769-1.135-3.476-2.363-4.899-3.922c-0.436-0.477-1.141,0.232-0.707,0.707
		c1.478,1.619,3.264,2.9,5.101,4.078C369.792,492.838,370.293,491.972,369.752,491.625z"/>
	<path fill="#F9F9F9" d="M396.838,505.707c-0.043-1.861-1.303-3.727-2.818-4.907c-0.502-0.391-1.216,0.311-0.707,0.707
		c0.005,0.004,0.01,0.009,0.016,0.013c-0.025,0.332-0.067,0.654-0.129,0.964c-0.278-0.276-0.56-0.547-0.842-0.819
		c0.113-0.106,0.211-0.236,0.272-0.413c0.773-2.25,0.983-4.921-0.931-6.664c-1.358-1.238-3.255-1.43-5.071-1.218
		c-0.021-0.28-0.156-0.554-0.458-0.747c-6.695-4.286-13.085-9.007-18.575-14.779c0.952-2.021-0.509-4.576-1.597-6.166
		c-1.377-2.014-3.322-3.54-5.476-4.887c1.151-0.426,2.275-0.949,3.317-1.545c1.145-0.655,2.873-2.131,2.388-3.68
		c-0.87-2.782-5.899-0.538-7.661-0.044c-0.173,0.048-0.304,0.132-0.411,0.232c-0.001-0.022,0-0.043-0.008-0.067
		c-1.002-3.088-2.606-6.659-5.531-8.324c1.377-1.228,2.455-2.656,2.619-4.452c2.711-0.409,3.031-4.573,1.745-6.963
		c3.813-0.995,6.526-5.527,2.882-8.634c-1.968-1.678-5.001-1.75-7.202-0.544c-1.82,0.997-2.29,2.813-1.944,4.582
		c-4.208-1.811-9.141-2.447-10.514,0.644c-1.283-0.74-2.977-1.083-4.696-1.076c-0.094,0-0.186,0.014-0.28,0.017
		c0.447-0.304,0.898-0.604,1.377-0.879c4.57-2.624,10.273-3.126,15.201-4.86c10.327-3.634,13.016-12.792,10.77-22.851
		c-1.313-5.881-4.18-11.43-6.682-16.87c-2.814-6.118-5.529-12.209-9.603-17.62c-7.83-10.4-17.513-8.874-28.571-6.54
		c0.279-0.611,0.615-1.196,1.084-1.745c1.057-1.235,3.31-1.539,4.783-2.17c3.862-1.653,1.003-6.95-1.449-10.148
		c2.217-0.587,4.415-1.833,6.042-2.842c4.149-2.572,6.597-6.638,7.163-11.401c0.479-4.03-2.042-8.464-5.31-10.674
		c-4.24-2.867-11.458-2.977-14.563-7.06c-2.858-3.759-1.919-9.429-4.623-13.439c-2.619-3.885-7.961-5.271-12.353-5.295
		c-6.638-0.036-12.693,4.521-17.445,8.655c-2.558,2.226-4.731,4.834-7.221,7.122c-1.33,1.222-2.86,2.177-4.438,3.038
		c-6.472,3.532-5.649-8.784,0.545-6.76c0.462,0.151,0.858,0.082,1.162-0.116c1.356-0.212,1.747-2.468,0.135-2.944
		c-9.379-2.768-16.657,4.384-16.242,13.763c0.311,7.026,6.13,10.834,12.376,11.937c-1.545,12.262-4.354,26.036-1.349,38.321
		c-2.979-1.444-6.461-1.959-9.514-0.493c-3.344,1.605-7.606,6.452-5.174,10.297c0.013,0.02,0.028,0.034,0.041,0.053
		c-4.606,2.229-8.199,6.273-11.472,10.118c-4.514,5.305-8.669,11.027-12.436,16.876c-5.532,8.591-14.363,23.094-10.001,34.019
		c-0.061,0.069-0.115,0.141-0.171,0.212c-0.928,0.152-1.85,0.658-2.658,1.641c-9.344,11.364-8.989,49.768,12.602,45.858
		c6.965-1.262,10.703-7.139,12.646-13.761c0.937,0.596,1.913,1.123,2.91,1.614c0.014,0.062,0.024,0.125,0.039,0.187
		c1.068,4.465,4.591,8.309,8.966,9.595c7.767,2.283,12.646-4.745,14.449-11.41c0.88-0.222,1.765-0.422,2.657-0.602
		c0.229-0.046,0.415-0.132,0.568-0.242c0.166-0.075,0.303-0.182,0.419-0.306h0c0.002-0.002,0.005-0.004,0.007-0.007l0,0
		c0.026-0.029,0.039-0.067,0.063-0.098c0.105,6.68,0.134,13.36-0.122,20.04c-0.223,5.806,8.778,5.785,9,0
		c0.166-4.316,0.211-8.631,0.196-12.947c7.934-0.935,12.9-7.469,12.087-15.709c-0.017-0.168-0.054-0.318-0.076-0.482
		c0.151-0.086,0.299-0.178,0.45-0.266c1.235,2.569,3.921,4.467,6.76,5.131c3.116,0.728,9.431,1.543,6.528,6.349
		c-1.411,2.336-4.852,2.733-5.112-0.41c-0.024-0.289-0.078-0.557-0.153-0.808c-0.187-1.578-1.295-3.025-3.347-3.025
		c-1.434,0-2.408,0.708-2.931,1.672c-0.41,0.54-0.644,1.254-0.569,2.162c0.385,4.658,2.899,8.968,8.021,9.25
		c4.429,0.244,8.784-2.429,10.725-6.388c2.383-4.861,0.263-10.953-4.276-13.698c-2.31-1.398-5.217-1.43-7.776-2.028
		c-1.271-0.297-2.044-1.316-1.038-2.61c0.85-1.093,2.116-1.432,3.395-1.443c0.242,0.118,0.495,0.211,0.76,0.275
		c0.072,0.042,0.145,0.084,0.219,0.121c0.216,0.215,0.46,0.383,0.714,0.529c-0.368,1.746,0.781,3.563,2.492,4.034
		c1.878,0.517,3.749-0.621,4.305-2.445c0.317-1.037,0.349-2.089,0.155-3.106c0.32-0.081,0.637-0.174,0.955-0.265
		c0.064,2.485,0.235,4.972,0.599,7.468c0.22,1.513,1.115,2.738,2.315,3.612c0.004,0.003,0.008,0.006,0.011,0.009
		c0.137,0.127,0.281,0.249,0.431,0.365c0.076,0.058,0.158,0.11,0.238,0.166c0.093,0.064,0.184,0.129,0.281,0.189
		c0.083,0.051,0.171,0.097,0.258,0.145c0.102,0.056,0.204,0.111,0.311,0.162c0.089,0.042,0.18,0.081,0.273,0.12
		c0.113,0.048,0.229,0.092,0.347,0.134c0.093,0.033,0.186,0.064,0.282,0.093c0.129,0.039,0.261,0.073,0.396,0.105
		c0.093,0.022,0.185,0.045,0.28,0.064c0.154,0.03,0.314,0.052,0.475,0.073c0.083,0.01,0.163,0.025,0.248,0.033
		c0.25,0.023,0.505,0.038,0.77,0.038c0.302,0,0.591-0.018,0.873-0.048c0.093-0.01,0.18-0.028,0.271-0.041
		c0.184-0.027,0.367-0.055,0.542-0.094c0.102-0.023,0.199-0.052,0.298-0.079c0.155-0.042,0.309-0.086,0.456-0.138
		c0.099-0.035,0.194-0.073,0.29-0.112c0.139-0.056,0.274-0.116,0.406-0.18c0.092-0.045,0.182-0.092,0.27-0.141
		c0.127-0.07,0.249-0.145,0.369-0.223c0.081-0.053,0.163-0.106,0.241-0.162c0.119-0.086,0.232-0.177,0.343-0.271
		c0.069-0.058,0.139-0.113,0.205-0.173c0.118-0.108,0.229-0.224,0.337-0.34c0.049-0.053,0.102-0.102,0.149-0.156
		c0.152-0.174,0.295-0.356,0.427-0.545c0.004-0.006,0.008-0.013,0.012-0.019c0.127-0.184,0.244-0.374,0.352-0.569
		c0.035-0.064,0.065-0.131,0.098-0.196c0.072-0.141,0.143-0.282,0.205-0.428c0.034-0.08,0.064-0.161,0.095-0.242
		c0.053-0.136,0.104-0.271,0.148-0.41c0.028-0.088,0.053-0.176,0.078-0.264c0.039-0.137,0.074-0.274,0.105-0.413
		c0.02-0.09,0.039-0.181,0.056-0.272c0.027-0.142,0.048-0.284,0.067-0.427c0.012-0.09,0.024-0.179,0.033-0.268
		c0.015-0.151,0.023-0.301,0.029-0.453c0.003-0.083,0.009-0.165,0.01-0.247c0.002-0.171-0.005-0.342-0.013-0.513
		c-0.003-0.063-0.003-0.126-0.008-0.188c-0.018-0.236-0.045-0.47-0.083-0.703c0,0,0,0,0,0c-0.019-0.237-0.045-0.474-0.08-0.712
		c-0.161-1.107-0.26-2.218-0.336-3.331c2.227,1.019,4.808,1.307,7.451,1.181c-1.156,0.868-2.499,0.87-3.933,0.546
		c-0.542-0.122-1.067,0.159-1.23,0.698c-0.446,1.476-0.237,2.998-0.5,4.5c-0.116,0.665,0.273,1.221,0.964,1.266
		c1.37,0.089,2.722-0.145,4.088-0.166c0.005,0.016,0.015,0.029,0.021,0.045c-0.065,0.129-0.109,0.277-0.109,0.455
		c0.001,0.345,0.04,0.657,0.125,0.952c-0.24,0.498-0.21,1.108,0.314,1.609c6.383,6.104,13.541,11.109,20.943,15.776
		c0.01,0.007,0.017,0.016,0.028,0.023c4.435,3.063,9.327,5.52,13.922,8.335c3.121,1.912,6.219,3.902,9.106,6.157
		c1.602,1.251,3.244,3.258,4.41,4.108c-0.792-0.295-1.814,0.016-2.002,0.957c-0.005,0.026-0.01,0.052-0.016,0.078
		c-0.138,0.69,0.09,1.306,0.689,1.694c0.053,0.034,0.107,0.056,0.16,0.085c3.316,2.887,7.093,3.981,10.423,0.353
		c0.028-0.03,0.045-0.062,0.07-0.093c0.296,0.302,0.612,0.586,0.964,0.832c0.042,0.029,0.072,0.064,0.11,0.094
		c0.394-0.363,0.78-0.755,1.146-1.202c1.189-0.801,2.249-1.762,3.172-2.875c0.096-0.088,0.197-0.16,0.29-0.258
		c0.396-0.417,0.67-0.86,0.858-1.315c0.189-0.292,0.379-0.583,0.553-0.89C397.274,506.098,397.09,505.814,396.838,505.707z
		 M392.646,503.34c0.035,0.035,0.073,0.052,0.11,0.074c0.031,0.056,0.079,0.102,0.13,0.142c-0.155,0.407-0.356,0.78-0.589,1.129
		c0.006-0.207-0.089-0.421-0.332-0.513c-1.667-0.633-2.937-1.761-3.868-3.27c-0.052-0.084-0.118-0.136-0.188-0.174
		c-0.075-0.136-0.207-0.24-0.41-0.24c-0.535,0-0.619,0.682-0.266,0.916c0.001,0.001,0,0.002,0.001,0.003
		c1.075,1.744,2.547,3.001,4.466,3.73c0.097,0.037,0.18,0.035,0.257,0.018c-0.741,0.883-1.767,1.528-3.09,1.851
		c-0.124,0.03-0.204,0.098-0.263,0.177c0,0,0-0.001-0.001-0.002c-8.237-9.452-19.628-15.053-29.616-22.353
		c0.377-0.436,0.728-0.887,1.047-1.35c0.002,0.057-0.012,0.121-0.001,0.174c0,0.001,0,0.002,0,0.003c0,0,0,0,0,0l0,0.001
		c0,0.125,0.021,0.25,0.062,0.368c0,0,0,0,0,0c0.04,0.116,0.101,0.225,0.181,0.318c0.031,0.036,0.079,0.056,0.115,0.086
		c0.059,0.05,0.112,0.106,0.186,0.139c0.121,0.055,0.261,0.086,0.422,0.086c0.153,0,0.284-0.031,0.399-0.081
		c0.06-0.025,0.103-0.066,0.153-0.102c0.043-0.032,0.091-0.057,0.127-0.095c0.064-0.066,0.111-0.142,0.153-0.224
		c0.007-0.014,0.016-0.026,0.023-0.04c0.045-0.098,0.073-0.2,0.087-0.309c0,0,0,0,0,0c0.005-0.019,0.017-0.03,0.022-0.05
		c0.135-0.654,0.469-1.185,0.901-1.657c8.865,5.535,18.075,10.815,25.977,17.699c0.002,0.005,0.007,0.008,0.009,0.013
		c-0.005,0.254,0.154,0.512,0.482,0.512c0.033,0,0.058-0.013,0.087-0.018C390.523,501.282,391.602,502.29,392.646,503.34z
		 M390.079,495.861c1.53,0.885,1.221,2.914,0.773,4.39c-0.276-0.252-0.562-0.489-0.843-0.735c0.247-0.391,0.478-0.788,0.639-1.229
		c0.222-0.607-0.745-0.866-0.964-0.266c-0.108,0.296-0.263,0.569-0.43,0.836c-0.211-0.181-0.417-0.369-0.629-0.549
		c0.014-0.049,0.025-0.1,0.025-0.151c0.244-0.322,0.431-0.684,0.704-0.983c0.002-0.002,0.002-0.004,0.003-0.005
		c0.027-0.03,0.043-0.067,0.062-0.103c0.06-0.11,0.076-0.222,0.051-0.329c-0.025-0.167-0.12-0.316-0.293-0.38
		c-0.165-0.081-0.367-0.069-0.531,0.11c-0.002,0.002-0.003,0.004-0.005,0.006c-0.005,0.006-0.008,0.012-0.013,0.018
		c-0.311,0.352-0.498,0.79-0.811,1.136c-0.819-0.677-1.647-1.345-2.489-1.994C386.895,495.232,388.637,495.026,390.079,495.861z
		 M366.328,479.407c5.351,5.593,11.546,10.217,18.028,14.417c-0.04,0.011-0.083,0.02-0.122,0.032
		c-0.305,0.088-0.501,0.272-0.607,0.494c-6.384-4.714-13.285-8.771-20.002-12.959C364.476,480.708,365.493,480.121,366.328,479.407z
		 M358.989,464.271c0.075-0.285,0.054-0.553-0.008-0.811c0.041-0.007,0.076,0.003,0.118-0.009c0.981-0.275,1.948-0.593,2.935-0.848
		c0.535-0.138,1.08-0.262,1.629-0.32c0.191-0.02,0.382-0.02,0.574-0.017c-0.255,0.877-1.947,1.561-2.538,1.853
		c-1.027,0.507-2.123,0.938-3.235,1.249C358.685,465.088,358.867,464.734,358.989,464.271z M357.406,464.854
		c0.02,0.018,0.04,0.037,0.06,0.056c0.017,0.008,0.034,0.017,0.052,0.026c0.202,0.039,0.409,0.105,0.619,0.226
		c0.112,0.064,0.215,0.142,0.325,0.208c-0.082,0.023-0.165,0.044-0.247,0.068c-1.54-0.855-3.118-1.676-4.631-2.552
		c0.09,0.051,0.182,0.097,0.271,0.148C354.623,460.997,359.291,463.21,357.406,464.854z M353.02,462.537
		c0.159,0.103,0.326,0.206,0.507,0.315c-1.786-1.036-3.479-2.151-4.894-3.501c0.11-0.116,0.211-0.241,0.323-0.356
		c-0.069-0.089-0.139-0.176-0.202-0.272c0.371-0.581,0.643-1.22,0.789-1.921c2.825-0.071,5.716,1.872,6.603,4.561
		C354.863,461.134,353.552,461.446,353.02,462.537z M356.091,459.119c-1.472-2.013-3.951-3.318-6.438-3.308
		c0.003-0.077,0.022-0.148,0.022-0.226c0.704-0.484,1.428-0.989,2.115-1.53C353.792,455.035,355.134,457.023,356.091,459.119z
		 M359.451,434.271c1.282,1.093,1.382,2.857,0.696,4.293c-0.708,1.483-2.205,2.294-3.765,2.523c-0.343-0.396-0.78-0.799-1.284-1.197
		c1.418-0.223,3.223-0.796,3.683-2.133c0.617-1.792-1.887-3.02-3.284-3.282c-2.631-0.494-2.744,2.15-2.168,4.207
		c-0.456-0.273-0.937-0.537-1.436-0.786C350.346,433.548,356.182,431.484,359.451,434.271z M354.451,438.974
		c-0.541-1.261-0.993-3.155,0.278-3.521c0.886-0.255,3.334,0.843,3.138,1.89C357.656,438.469,355.432,438.876,354.451,438.974z
		 M353.664,442.512c0.87,0.851,1.164,1.749,1.181,2.936c0.017,1.166-2.4-0.487-2.861-0.782c-1.23-0.788-2.163-1.947-3.375-2.752
		c-1.331-0.884-4.297-1.46-5.237-2.764c-0.009-0.03-0.02-0.06-0.031-0.09C345.331,437.6,352.607,441.479,353.664,442.512z
		 M347.398,444.756c1.907,1.528,3.532,3.051,5.864,3.891c-0.11,2.058-2.119,3.602-3.991,4.847c-0.606-1.198-1.91-1.99-3.433-2.508
		c0.153-0.339,0.284-0.711,0.387-1.124c0.838-3.383-1.105-5.572-3.43-7.399C344.257,443.253,345.967,443.609,347.398,444.756z
		 M347.708,461.211c-0.225,0.148-0.459,0.28-0.713,0.363c-0.442,0.145-0.635-0.188-0.741-0.559c0.244-0.155,0.503-0.296,0.727-0.467
		C347.216,460.781,347.467,460.989,347.708,461.211z M320.959,361.211c-1.653,0.547-2.952,1.114-4.277,2.241
		c-2.799,2.378-2.366,6.72-5.243,9.141c-0.408,0.343-0.535,0.751-0.484,1.137c-8.302,2.652-14.467,10.069-20.578,15.842
		c-0.222,0.21-0.452,0.415-0.686,0.618c-9.937,4.27-18.345-5.334-20.826-15.295c-2.963-11.896-0.09-25.314,1.456-37.334
		c1.118,0.048,2.225,0.014,3.291-0.103c4.744-0.522,8.712-2.693,12.167-5.861c2.635-2.416,5.282-4.837,8.17-6.952
		c5.517-4.039,8.76,0.816,9.428,5.483c0.419,2.93,0.924,6.463,4.114,7.65c3.27,1.216,6.66,0.061,10.019,0.054
		c5.233-0.011-5.624,13.096,0.149,15.379c0.218,0.086,0.441,0.155,0.668,0.211C320.004,355.025,324.406,360.069,320.959,361.211z
		 M282.692,394.073c-3.564,0.928-7.199,0.204-9.792-3.636c-0.73-1.082-1.234-2.224-1.635-3.392
		C274.29,390.877,278.325,393.431,282.692,394.073z M258.162,321.733c0.531-3.243,2.351-5.551,4.778-6.772
		c-1.868,3.161-1.795,7.588,1.685,9.769c6.414,4.021,17.034-10.216,20.8-13.319c5.906-4.867,13.436-7.835,20.627-3.917
		c5.212,2.84,4.22,10.666,6.827,15.298c1.793,3.185,5.726,4.119,8.952,5.036c8.898,2.529,14.318,10.819,6.736,18.485
		c-2.333,2.359-6.006,4.062-9.311,4.24c-1.106,0.059,1.172-5.083,1.245-5.251c0.99-2.279,2.778-5.468,1.414-7.961
		c-1.255-2.293-3.499-2.61-5.927-2.459c-1.688,0.105-3.349,0.417-5.042,0.482c-3.802,0.147-4.251-3.002-4.676-6.034
		c-0.45-3.209-1.306-6.956-4.736-8.227c-5.252-1.946-8.759,0.547-12.761,3.823c-5.742,4.699-9.829,9.42-17.773,9.727
		C263.378,334.948,256.852,329.74,258.162,321.733z M254.962,380.077c2.094-3.497,6.398-3.333,9.733-1.803
		c0.027,0.035,0.047,0.072,0.078,0.106c3.41,3.808,3.313,9.131,5.537,13.57c1.328,2.65,4.034,4.242,6.719,5.167
		c5.177,1.783,10.052-0.841,14.145-4.282c1.092-0.492,2.179-1.112,3.25-1.886c0.238-0.172,0.397-0.381,0.502-0.604
		c0.309-0.363,0.405-0.877,0.314-1.349c0.572-0.588,1.12-1.164,1.638-1.71c3.706-3.907,7.962-6.888,12.545-9.671
		c1.06-0.6,2.177-1.052,3.352-1.355c3.597-1.12,6.424,3.901,3.134,5.765c-2.634,1.492-5.738,2.335-8.528,3.505
		c-5.37,2.252-13.59,3.963-15.828,10.058c-0.26,0.707,0.285,1.724,1.048,1.845c3.868,0.617,0.859,3.67,3.249,6.06
		c1.341,1.341,5.151,1.481,4.026,4.611c-0.522,1.451-0.939,2.761-0.524,4.312c3.291,12.3-25.371,9.99-31.852,9.404
		c-0.148-0.013-0.28-0.003-0.405,0.019c-0.478-0.136-0.993-0.086-1.438,0.254c-5.321,4.063-12.443-1.26-12.541-7.235
		c9.013-3.829,14.342-11.842,12.86-21.792c-0.57-3.826-2.99-6.348-6.542-7.538C256.608,384.581,252.314,384.499,254.962,380.077z
		 M231.873,412.945c3.022-4.693,6.459-9.157,9.961-13.501c3.365-4.174,7.447-9.266,12.698-11.029
		c0.324-0.109,0.582-0.274,0.788-0.473c2.907,0.768,6.189,0.816,7.515,4.845c2.738,8.32-3.47,16.229-10.768,19.286
		c-0.609-0.264-1.348-0.285-1.91,0.019c-7.188,3.899-16.643,5.217-23.734,9.585C228.375,418.282,230.396,415.239,231.873,412.945z
		 M231.741,468.787c-0.202,4.765-1.277,15.662-7.897,15.738c-3.469,0.04-4.486-9.63-4.67-12.422
		c-0.313-4.762-0.142-13.5,2.528-16.747c0.18-0.219,0.33-0.443,0.468-0.668c0.054-0.017,0.105-0.027,0.159-0.046
		c0.665-0.227,1.294-0.434,1.892-0.606c1.779,0.889,3.699,1.322,5.681,1.413c0.219,0.376,0.42,0.815,0.602,1.331
		C231.852,460.606,231.911,464.781,231.741,468.787z M238.408,450.065c-0.04-0.076-0.071-0.156-0.112-0.232
		c-3.535-6.588-10.938-7.085-17.396-5.22c-1.274-3.403-0.913-7.372,0.299-11.408c0.382-0.234,0.648-0.59,0.785-0.999
		c0.088-0.111,0.171-0.232,0.243-0.376c4.831-9.732,17.569-10.937,27.035-14.901c1.106,6.235,7.593,11.341,13.727,10.561
		c-3.648,7.597-9.558,14.036-16.664,18.552C244.146,447.425,241.363,448.96,238.408,450.065z M253.84,483.032
		c-4.477-1.973-2.377-10.069-1.689-14.569c0.866-1.223,1.975-1.602,3.419-1.268c0.016,0.004,0.03,0.003,0.046,0.006
		c0.028,0.03,0.047,0.065,0.076,0.094l0.167,0.167c0.036,0.036,0.077,0.065,0.114,0.099c0.339,0.495,0.695,0.979,1.096,1.422
		c0.052,0.264,0.138,0.516,0.249,0.754v0c0.033,0.099,0.08,0.191,0.121,0.287c0.027,0.061,0.051,0.123,0.081,0.182
		c0.067,0.135,0.146,0.262,0.231,0.387c0.208,1.55,0.29,3.11,0.27,4.573C257.998,476.739,256.941,484.399,253.84,483.032z
		 M278.924,477.125c-0.052-2.941-0.115-5.882-0.172-8.824c1.422,0.24,2.689,0.757,3.145,1.846
		C283.183,473.215,281.752,476.324,278.924,477.125z M321.917,431.465c2.65-3.632,5.321-7.142,8.664-10.23
		c2.672-2.468,5.398-5.035,6.961-8.373c2.319-4.954-2.978-10.541-8.136-9.325c-4.983,1.174-6.863,7.084-8.177,11.387
		c-1.481,4.849-1.61,11.27-4.178,15.742c-3.031,0.45-5.636,2.661-5.384,6.655c0.479,7.577-0.327,15.08-0.38,22.604
		c-0.709,0.226-1.422,0.434-2.143,0.607c-0.122-0.14-0.257-0.266-0.398-0.382c-0.037-0.044-0.065-0.094-0.104-0.137
		c-0.118-0.13-0.221-0.268-0.353-0.386c-0.468-0.416-0.708-0.575-1.117-0.751l-0.03-0.03c-0.224-0.224-0.478-0.395-0.744-0.544
		c-0.208-0.157-0.447-0.281-0.704-0.386l0,0c0,0,0,0,0,0c-0.141-0.057-0.289-0.105-0.445-0.144c0,0,0,0,0,0c0,0,0,0,0,0
		c-0.02-0.005-0.04-0.009-0.059-0.014c-0.206-0.089-0.425-0.15-0.645-0.212c-0.437-0.278-0.947-0.481-1.544-0.558
		c-5.24-0.681-10.231,2.427-11.849,7.43c-0.251,0.775-0.353,1.526-0.356,2.253c-0.017,0.01-0.036,0.01-0.052,0.021
		c-0.164,0.109-0.331,0.213-0.496,0.318c-2.469-5.967-9.449-8.018-15.929-7.857c-2.322-0.098-4.698,1.336-4.651,4.334
		c0.07,4.56,0.178,9.121,0.258,13.681c-0.044-0.053-0.075-0.115-0.127-0.161c-0.004-0.003-0.007-0.007-0.011-0.01
		c-0.106-0.094-0.228-0.172-0.369-0.23c-0.019-0.008-0.039-0.013-0.059-0.019c-0.157-0.056-0.329-0.094-0.526-0.094
		c-0.155,0-0.293,0.025-0.423,0.061c-0.004,0.001-0.007,0.002-0.01,0.003c-0.145,0.041-0.275,0.1-0.389,0.176c0,0,0,0,0,0
		c-0.379,0.077-0.754,0.167-1.131,0.249c0.02-0.159,0.04-0.318,0.056-0.473c0.654-6.482-0.837-14.808-5.555-19.609
		c-6.072-6.18-13.635,0.058-16.6,5.989c-0.22,0.439-0.359,0.873-0.439,1.297c-0.561,0.678-0.937,1.558-1.009,2.64
		c-0.252,3.838-1.097,7.587-0.99,11.376c-0.573-0.339-1.14-0.689-1.694-1.062c0.79-3.748,1.098-7.544,1.16-10.728
		c0.084-4.333-0.428-8.831-1.871-12.964c1.994-0.733,3.907-1.614,5.651-2.523c10.463-5.452,18.781-15.146,22.804-26.2
		c7.994,0.646,15.597,0.245,23.519-1.065c4.129-0.683,11.449-3.009,11.022-8.611c-0.077-1.006-0.152-1.557-0.406-2.529
		c-0.725-2.784,0.593-2.967,0.682-5.256c0.087-2.255-0.835-3.759-2.799-4.856c-1.726-0.964-2.813-1.068-2.578-3.415
		c0.081-0.814-0.276-1.919-0.578-2.677c-0.368-0.921-1.133-1.342-1.994-1.585c2.342-3.133,7.597-4.046,10.882-5.518
		c4.514-2.023,9.503-3.404,13.614-6.211c5.72-3.906,0.631-9.787-4.626-10.158c0.322-0.449,0.611-0.916,0.863-1.412
		c0.265,0.055,0.557,0.057,0.871-0.01c5.106-1.088,10.134-2.609,15.405-2.342c6.632,0.336,10.966,6.711,14.055,11.821
		c5.341,8.834,10.472,19.743,12.721,29.816c1.242,5.56,0.175,11.358-4.716,14.707c-3.628,2.484-8.445,3.218-12.615,4.337
		c-7.13,1.913-11.582,5.851-15.944,10.742c-0.005-1.116-0.034-2.231-0.104-3.342C325.486,434.455,323.929,432.504,321.917,431.465z
		 M323.728,423.023c0.849-4.213,1.501-8.54,3.337-12.268c0.678-1.376,1.756-3.191,3.455-3.342c2.067-0.183,4.155,2.173,3.103,4.421
		c-0.779,1.665-2.244,3.026-3.513,4.32C327.862,418.447,325.753,420.704,323.728,423.023z M324.959,458.673
		c0.042-3.289,0.284-6.592,0.498-9.893c1.408-2.48,3.191-4.449,5.585-6.114c0.454-0.315,8.307-3.638,7.196-0.21
		c-0.294,0.907,0.207,1.748,0.919,2.259c0.817,0.58,1.627,1.17,2.429,1.771c0.301,2.221-0.147,3.39-1.32,3.545
		c-0.339-0.019-0.659-0.034-0.933-0.043c-2.583-0.061-2.572,3.919,0,4c0.806,0.006,1.608,0.068,2.407,0.188
		c0.557,0.075,5.837,1.013,2.715,3.299c-1.671,1.224-4.093,1.643-6.065,2.143C334.508,460.602,328.18,461.853,324.959,458.673z
		 M333.542,469.662c-0.063-0.043-0.129-0.08-0.207-0.107c-0.099-0.04-0.207-0.068-0.336-0.068c-0.067,0-0.116,0.025-0.176,0.036
		c-0.052-0.013-0.099-0.032-0.157-0.036c-1.253-0.074-2.49,0.124-3.735,0.171c0.047-0.788,0.058-1.581,0.176-2.355
		c1.352,0.182,2.664,0.085,3.934-0.583c1.139-0.6,1.826-1.793,2.964-2.369c0.061-0.031,0.093-0.076,0.142-0.113
		c0.918-0.158,1.83-0.342,2.719-0.56c-1.6,2.083-3.009,4.336-5.008,6.048C333.763,469.691,333.658,469.669,333.542,469.662z
		 M389.824,509.956c-0.532-0.508-1.367-0.665-2.01,0.035c-2.011,1.278-3.739,1.469-5.188,0.589c0.369-0.614,0.565-1.336,0.476-1.994
		c-0.38-2.817-3.606-5.059-5.671-6.617c-6.64-5.009-14.138-8.6-21.053-13.14c0.007-0.006,0.014-0.013,0.021-0.019
		c-0.343-0.213-0.683-0.431-1.025-0.645c-0.204-0.138-0.414-0.268-0.617-0.408c-0.088-0.061-0.175-0.106-0.262-0.145
		c-7.107-4.492-13.971-9.323-20.101-15.185c-0.14-0.134-0.289-0.225-0.44-0.294c0.072-0.027,0.144-0.061,0.217-0.115
		c3.402-2.508,5.099-6.561,8.166-9.327c0.6-0.193,1.185-0.389,1.739-0.586c0.463-0.164,0.893-0.367,1.313-0.58
		c0.222,0.569,0.608,1.065,1.28,1.087c0.656,0.021,1.263-0.3,1.804-0.701c3.788,3.211,8.33,5.297,12.508,7.993
		c3.519,2.27,6.541,6.932,1.617,9.78c-0.46,0.266-0.844,0.559-1.176,0.883c0.384-1.512,0.246-3.115-0.756-4.78
		c-2.487-4.134-7.86-6.468-11.48-9.438c-0.119-0.098-0.251-0.129-0.376-0.117c-0.046-0.013-0.089-0.029-0.144-0.029
		c-0.645,0-0.645,1,0,1c0,0,0,0,0.001,0c2.259,1.832,4.697,3.417,7.039,5.139c2.356,1.731,5.087,3.958,4.993,7.155
		c-0.052,1.759-1.291,3.38-2.411,4.669c-0.038,0.083-0.094,0.156-0.143,0.233c-0.171,0.044-0.304,0.206-0.347,0.394
		c-0.038,0.032-0.067,0.071-0.108,0.1c-0.019,0.013-0.041,0.023-0.06,0.036c-0.109,0.068-0.229,0.124-0.358,0.168
		c-0.04,0.014-0.079,0.028-0.121,0.039c-0.162,0.043-0.334,0.073-0.526,0.073c-0.203,0-0.384-0.034-0.554-0.081
		c-0.036-0.01-0.07-0.022-0.104-0.034c-0.159-0.055-0.306-0.124-0.433-0.215l0,0c-0.05-0.025-0.109-0.04-0.155-0.069
		c-0.984-0.378-1.989-1.059-2.799-1.454c-3.86-1.881-7.432-4.222-10.151-7.586c0.03-0.019,0.063-0.019,0.092-0.046
		c0.406-0.375,0.826-0.737,1.247-1.099c0.033,0.021,0.06,0.046,0.1,0.061c3.215,1.17,6.113,2.907,8.779,5.038
		c0.498,0.398,1.211-0.305,0.707-0.707c-2.68-2.141-5.572-3.882-8.771-5.108c0.612-0.549,1.202-1.119,1.713-1.764
		c0.333-0.42,0.578-0.874,0.789-1.342c2.625,2.063,5.418,3.867,8.33,5.499c0.563,0.316,1.067-0.548,0.505-0.863
		c-2.873-1.611-5.646-3.379-8.232-5.422c-0.083-0.065-0.171-0.092-0.259-0.104c0.201-0.658,0.332-1.341,0.405-2.043
		c0.032-0.305-0.347-0.594-0.633-0.482c-3.63,1.417-5.138,4.413-6.516,7.849c-0.24,0.599,0.727,0.857,0.964,0.266
		c0.008-0.021,0.017-0.042,0.026-0.063c0.014,0.064,0.052,0.12,0.089,0.174c-0.217,0.164-0.338,0.499-0.118,0.776
		c3.665,4.584,8.826,7.135,14.048,9.519c0.021,0.001,0.034-0.009,0.056-0.007c0.791,0.057,1.544-0.076,2.301-0.238c0,0,0,0,0,0
		c0.062-0.053,0.143-0.086,0.22-0.123c9.883,7.261,21.182,12.803,29.403,22.106c-0.204,0.173-0.286,0.472-0.027,0.697
		c0.707,0.612,1.513,1.1,2.358,1.417C389.948,509.827,389.882,509.887,389.824,509.956z M341.872,474.96
		c1.063-2.582,2.296-4.922,4.801-6.229C346.045,471.523,343.976,473.027,341.872,474.96z M392.019,509.177
		c-0.345-0.252-0.767-0.346-1.166-0.192c-0.811-0.227-1.585-0.64-2.24-1.151c0.008-0.011,0.016-0.022,0.024-0.034
		c0.108,0.136,0.278,0.222,0.496,0.169c0.606-0.148,1.146-0.369,1.646-0.632c0.848,0.319,1.559,0.871,2.2,1.503
		c0.035,0.034,0.072,0.05,0.109,0.071c0.03,0.055,0.07,0.101,0.121,0.14C392.824,509.158,392.423,509.193,392.019,509.177z
		 M395.486,507.096c-0.311,0.454-0.646,0.881-0.996,1.292c-0.167,0.137-0.341,0.254-0.521,0.354c0.032-0.2-0.041-0.413-0.222-0.519
		c-0.02-0.03-0.032-0.062-0.06-0.09c-0.577-0.569-1.204-1.064-1.909-1.435c0.674-0.53,1.214-1.184,1.625-1.935
		c0.424,0.714,1.104,1.271,1.845,1.655c0.07,0.037,0.137,0.039,0.202,0.042c0.054,0.076,0.133,0.131,0.233,0.162
		C395.636,506.781,395.56,506.939,395.486,507.096z M395.752,505.555c-0.838-0.435-1.579-1.071-1.77-2.034
		c-0.006-0.033-0.023-0.053-0.034-0.081c0.111-0.358,0.21-0.724,0.273-1.111c0.902,0.94,1.57,2.096,1.602,3.284
		C395.799,505.594,395.783,505.571,395.752,505.555z"/>
	<g>
		<path fill="#48443E" d="M279.052,452.89h0.13c0.128,0,0.205-0.031,0.23-0.093c0.025-0.062,0.038-0.359,0.038-0.89v-0.7
			c0-0.551-0.011-0.854-0.033-0.911c-0.022-0.056-0.088-0.085-0.198-0.085h-0.167v-0.13c0.229,0.01,0.455,0.014,0.679,0.014
			c0.186,0,0.355-0.005,0.507-0.014v0.13h-0.16c-0.098,0-0.16,0.012-0.185,0.035c-0.025,0.023-0.039,0.083-0.044,0.178
			c-0.007,0.147-0.01,0.41-0.01,0.787v0.713c0,0.536,0.012,0.831,0.035,0.885c0.023,0.054,0.099,0.082,0.226,0.082h0.137v0.13
			c-0.17-0.01-0.354-0.014-0.554-0.014c-0.233,0-0.444,0.005-0.631,0.014V452.89z"/>
		<path fill="#48443E" d="M283.576,452.029h-1.195l-0.14,0.333c-0.092,0.22-0.138,0.355-0.138,0.405
			c0,0.032,0.009,0.054,0.026,0.068c0.017,0.014,0.061,0.025,0.131,0.033l0.198,0.023v0.13c-0.132-0.01-0.281-0.014-0.446-0.014
			c-0.198,0-0.372,0.005-0.523,0.014v-0.13l0.062-0.002c0.096-0.003,0.159-0.013,0.187-0.03c0.028-0.017,0.058-0.06,0.09-0.127
			c0.098-0.198,0.198-0.412,0.299-0.642l0.568-1.287c0.151-0.341,0.255-0.589,0.31-0.744h0.14l1.045,2.431
			c0.07,0.165,0.117,0.265,0.14,0.298c0.023,0.034,0.05,0.058,0.081,0.072c0.03,0.014,0.098,0.024,0.204,0.03v0.13
			c-0.179-0.01-0.35-0.014-0.512-0.014c-0.151,0-0.353,0.005-0.605,0.014v-0.13l0.204-0.012c0.073-0.005,0.116-0.013,0.13-0.023
			c0.021-0.015,0.031-0.034,0.031-0.058c0-0.025-0.021-0.09-0.062-0.194L283.576,452.029z M282.458,451.86h1.041l-0.52-1.241
			L282.458,451.86z"/>
		<path fill="#48443E" d="M287.826,450.527l-0.614,1.277c-0.23,0.48-0.419,0.899-0.566,1.257h-0.083
			c-0.051-0.123-0.197-0.438-0.438-0.945l-0.74-1.532v1.597c0,0.372,0.015,0.583,0.045,0.633c0.03,0.05,0.122,0.075,0.277,0.075
			h0.077v0.13c-0.192-0.01-0.348-0.014-0.468-0.014c-0.087,0-0.26,0.005-0.52,0.014v-0.13h0.134c0.091,0,0.151-0.013,0.182-0.039
			c0.03-0.026,0.049-0.074,0.056-0.143c0.018-0.193,0.027-0.401,0.027-0.624v-1.169c0-0.282-0.006-0.469-0.019-0.56
			c-0.006-0.047-0.026-0.083-0.061-0.107c-0.035-0.025-0.105-0.037-0.21-0.037h-0.109v-0.13c0.24,0.01,0.39,0.014,0.452,0.014
			c0.078,0,0.19-0.005,0.335-0.014c0.167,0.371,0.359,0.779,0.577,1.226l0.544,1.118l0.502-1.035
			c0.176-0.362,0.378-0.798,0.604-1.308c0.172,0.01,0.293,0.014,0.364,0.014c0.081,0,0.228-0.005,0.44-0.014v0.13h-0.135
			c-0.122,0-0.196,0.021-0.223,0.063c-0.027,0.042-0.04,0.193-0.04,0.453v1.51c0,0.336,0.014,0.529,0.043,0.578
			c0.028,0.05,0.108,0.074,0.238,0.074h0.118v0.13c-0.191-0.01-0.375-0.014-0.549-0.014c-0.193,0-0.395,0.005-0.605,0.014v-0.13
			h0.136c0.109,0,0.175-0.024,0.197-0.071c0.023-0.047,0.034-0.252,0.034-0.612V450.527z"/>
		<path fill="#48443E" d="M296.942,452.044c-0.021,0.116-0.031,0.233-0.031,0.353c0,0.127,0.01,0.269,0.031,0.428
			c-0.183,0.072-0.39,0.129-0.621,0.172c-0.231,0.043-0.451,0.065-0.662,0.065c-0.325,0-0.61-0.064-0.856-0.191
			c-0.246-0.127-0.435-0.304-0.567-0.531c-0.132-0.226-0.198-0.484-0.198-0.771c0-0.297,0.071-0.562,0.213-0.794
			c0.142-0.232,0.339-0.412,0.593-0.541c0.253-0.129,0.574-0.193,0.963-0.193c0.158,0,0.304,0.01,0.438,0.031
			s0.308,0.062,0.523,0.124l0.176,0.048c-0.036,0.146-0.065,0.35-0.087,0.611h-0.13v-0.136c0-0.135-0.011-0.214-0.033-0.238
			c-0.041-0.044-0.151-0.099-0.328-0.164c-0.178-0.065-0.381-0.098-0.609-0.098c-0.405,0-0.715,0.109-0.929,0.326
			c-0.234,0.237-0.351,0.55-0.351,0.94c0,0.375,0.105,0.69,0.316,0.946c0.248,0.303,0.586,0.454,1.014,0.454
			c0.223,0,0.465-0.049,0.725-0.147c0.008-0.116,0.012-0.239,0.012-0.371c0-0.17-0.003-0.267-0.008-0.293
			c-0.005-0.026-0.016-0.042-0.03-0.05c-0.014-0.008-0.086-0.017-0.216-0.028l-0.244-0.021v-0.13
			c0.315,0.014,0.549,0.021,0.702,0.021c0.132,0,0.246-0.007,0.341-0.021v0.103L296.942,452.044z"/>
		<path fill="#48443E" d="M299.171,452.029h-1.195l-0.14,0.333c-0.092,0.22-0.138,0.355-0.138,0.405
			c0,0.032,0.009,0.054,0.026,0.068c0.017,0.014,0.061,0.025,0.131,0.033l0.198,0.023v0.13c-0.132-0.01-0.281-0.014-0.446-0.014
			c-0.198,0-0.372,0.005-0.523,0.014v-0.13l0.062-0.002c0.096-0.003,0.159-0.013,0.187-0.03c0.028-0.017,0.058-0.06,0.09-0.127
			c0.098-0.198,0.198-0.412,0.299-0.642l0.568-1.287c0.151-0.341,0.255-0.589,0.31-0.744h0.14l1.045,2.431
			c0.07,0.165,0.117,0.265,0.14,0.298c0.023,0.034,0.05,0.058,0.081,0.072c0.03,0.014,0.098,0.024,0.204,0.03v0.13
			c-0.179-0.01-0.35-0.014-0.512-0.014c-0.151,0-0.353,0.005-0.605,0.014v-0.13l0.204-0.012c0.073-0.005,0.116-0.013,0.13-0.023
			c0.021-0.015,0.031-0.034,0.031-0.058c0-0.025-0.021-0.09-0.062-0.194L299.171,452.029z M298.053,451.86h1.04l-0.52-1.241
			L298.053,451.86z"/>
		<path fill="#48443E" d="M303.421,450.527l-0.614,1.277c-0.23,0.48-0.419,0.899-0.566,1.257h-0.083
			c-0.051-0.123-0.197-0.438-0.438-0.945l-0.74-1.532v1.597c0,0.372,0.015,0.583,0.045,0.633c0.03,0.05,0.122,0.075,0.277,0.075
			h0.077v0.13c-0.192-0.01-0.348-0.014-0.468-0.014c-0.087,0-0.26,0.005-0.52,0.014v-0.13h0.134c0.091,0,0.151-0.013,0.182-0.039
			c0.03-0.026,0.049-0.074,0.056-0.143c0.018-0.193,0.027-0.401,0.027-0.624v-1.169c0-0.282-0.006-0.469-0.019-0.56
			c-0.005-0.047-0.026-0.083-0.061-0.107c-0.035-0.025-0.105-0.037-0.21-0.037h-0.109v-0.13c0.24,0.01,0.39,0.014,0.452,0.014
			c0.078,0,0.19-0.005,0.335-0.014c0.167,0.371,0.359,0.779,0.577,1.226l0.544,1.118l0.502-1.035
			c0.176-0.362,0.378-0.798,0.603-1.308c0.172,0.01,0.293,0.014,0.364,0.014c0.081,0,0.228-0.005,0.44-0.014v0.13h-0.135
			c-0.122,0-0.196,0.021-0.223,0.063c-0.027,0.042-0.04,0.193-0.04,0.453v1.51c0,0.336,0.014,0.529,0.043,0.578
			c0.028,0.05,0.108,0.074,0.238,0.074h0.118v0.13c-0.191-0.01-0.375-0.014-0.549-0.014c-0.193,0-0.395,0.005-0.605,0.014v-0.13
			h0.136c0.109,0,0.175-0.024,0.197-0.071c0.023-0.047,0.034-0.252,0.034-0.612V450.527z"/>
		<path fill="#48443E" d="M305.232,451.616v0.507l0.002,0.292c0,0.182,0.002,0.315,0.006,0.399c0.201,0.015,0.417,0.023,0.648,0.023
			c0.154,0,0.284-0.007,0.389-0.021c0.068-0.008,0.139-0.026,0.215-0.054c0.034-0.121,0.07-0.273,0.105-0.454h0.136
			c-0.037,0.302-0.056,0.504-0.056,0.605l0.004,0.093c-0.158,0.014-0.314,0.021-0.467,0.021l-0.324-0.006
			c-0.358-0.01-0.621-0.014-0.789-0.014c-0.161,0-0.375,0.005-0.642,0.014v-0.13h0.064c0.12,0,0.195-0.012,0.226-0.035
			c0.031-0.023,0.052-0.078,0.062-0.165c0.01-0.087,0.016-0.278,0.016-0.574v-1.134c0-0.186-0.004-0.338-0.013-0.456
			c-0.009-0.118-0.019-0.189-0.029-0.212c-0.01-0.023-0.025-0.04-0.044-0.053c-0.019-0.012-0.078-0.023-0.178-0.033l-0.159-0.017
			v-0.13h0.223l0.219,0.007c0.123,0.005,0.216,0.007,0.279,0.007l0.793-0.012l0.376-0.002c0.128-0.001,0.257,0.003,0.388,0.014
			c-0.052,0.164-0.081,0.376-0.087,0.638h-0.14c0-0.151-0.008-0.277-0.023-0.378c-0.162-0.061-0.362-0.091-0.599-0.091
			c-0.189,0-0.386,0.008-0.593,0.025c0.001,0.129,0,0.258-0.004,0.388l-0.004,0.318v0.419c0.136,0.01,0.257,0.014,0.361,0.014
			c0.328,0,0.513-0.011,0.557-0.034c0.043-0.023,0.065-0.093,0.065-0.212v-0.134h0.14c-0.01,0.208-0.014,0.374-0.014,0.498
			c0,0.131,0.005,0.285,0.014,0.463h-0.14v-0.12c0-0.132-0.026-0.213-0.077-0.243c-0.052-0.03-0.234-0.044-0.546-0.044
			C305.476,451.602,305.356,451.606,305.232,451.616z"/>
		<path fill="#48443E" d="M308.508,451.529c0.135,0.194,0.302,0.42,0.502,0.677l0.397,0.514c0.07,0.088,0.117,0.138,0.14,0.151
			c0.023,0.012,0.048,0.019,0.072,0.019h0.054v0.13c-0.114-0.01-0.214-0.014-0.299-0.014c-0.078,0-0.161,0.005-0.248,0.014
			l-0.731-0.987c-0.136-0.182-0.282-0.359-0.438-0.533l0.021-0.07c0.08,0.007,0.139,0.01,0.178,0.01c0.23,0,0.41-0.059,0.54-0.178
			c0.13-0.118,0.195-0.277,0.195-0.475c0-0.178-0.055-0.316-0.165-0.416c-0.11-0.1-0.269-0.15-0.477-0.15
			c-0.145,0-0.29,0.027-0.436,0.081c-0.017,0.219-0.025,0.453-0.025,0.702v0.998c0,0.486,0.012,0.756,0.035,0.809
			s0.099,0.079,0.227,0.079h0.161v0.13c-0.229-0.01-0.418-0.014-0.568-0.014c-0.118,0-0.333,0.005-0.642,0.014v-0.13h0.155
			c0.118,0,0.189-0.026,0.211-0.077s0.033-0.323,0.033-0.815v-0.993c0-0.427-0.013-0.666-0.038-0.717
			c-0.026-0.051-0.108-0.076-0.249-0.076H307v-0.13c0.256,0.01,0.452,0.014,0.587,0.014c0.091,0,0.222-0.003,0.392-0.01
			c0.198-0.007,0.341-0.01,0.428-0.01c0.238,0,0.419,0.025,0.542,0.075c0.123,0.05,0.217,0.123,0.281,0.218
			c0.064,0.095,0.096,0.209,0.096,0.341c0,0.194-0.07,0.366-0.21,0.514S308.774,451.474,308.508,451.529z"/>
	</g>
	<g>
		<path fill="#6B6966" d="M279.515,454.719v-0.137l0.493-0.001v0.432c-0.076,0.06-0.154,0.106-0.234,0.136
			c-0.081,0.03-0.163,0.046-0.248,0.046c-0.114,0-0.218-0.024-0.312-0.074c-0.093-0.049-0.164-0.12-0.212-0.212
			c-0.048-0.093-0.071-0.196-0.071-0.311c0-0.113,0.024-0.219,0.071-0.317c0.047-0.098,0.116-0.171,0.205-0.219
			c0.089-0.048,0.191-0.072,0.307-0.072c0.084,0,0.16,0.014,0.228,0.041c0.068,0.027,0.121,0.065,0.16,0.114
			c0.039,0.049,0.068,0.112,0.088,0.191l-0.139,0.038c-0.017-0.059-0.039-0.106-0.065-0.14c-0.026-0.034-0.063-0.061-0.111-0.082
			c-0.048-0.02-0.102-0.031-0.16-0.031c-0.07,0-0.131,0.011-0.183,0.032s-0.093,0.05-0.124,0.085
			c-0.031,0.035-0.056,0.073-0.073,0.115c-0.03,0.072-0.044,0.15-0.044,0.234c0,0.104,0.018,0.191,0.054,0.261
			c0.036,0.07,0.088,0.122,0.156,0.156c0.068,0.034,0.141,0.051,0.218,0.051c0.067,0,0.132-0.013,0.195-0.039
			c0.064-0.026,0.112-0.053,0.145-0.082v-0.217H279.515z"/>
		<path fill="#6B6966" d="M280.628,455.175l0.447-1.165h0.166l0.477,1.165h-0.176l-0.136-0.353h-0.487l-0.128,0.353H280.628z
			 M280.964,454.697h0.395l-0.122-0.323c-0.037-0.098-0.065-0.179-0.083-0.241c-0.015,0.075-0.036,0.149-0.063,0.222
			L280.964,454.697z"/>
		<path fill="#6B6966" d="M282.357,455.175v-1.165h0.232l0.276,0.825c0.025,0.077,0.044,0.134,0.056,0.172
			c0.013-0.042,0.034-0.105,0.062-0.187l0.279-0.81h0.207v1.165h-0.149v-0.975l-0.338,0.975h-0.139l-0.337-0.991v0.991H282.357z"/>
		<path fill="#6B6966" d="M284.241,455.175v-1.165h0.842v0.137h-0.688v0.357h0.644v0.137h-0.644v0.396h0.715v0.137H284.241z"/>
		<path fill="#6B6966" d="M285.846,455.175v-1.165h0.516c0.104,0,0.183,0.01,0.237,0.031c0.054,0.021,0.097,0.058,0.129,0.111
			c0.032,0.053,0.048,0.111,0.048,0.176c0,0.083-0.027,0.152-0.08,0.209c-0.053,0.057-0.136,0.093-0.248,0.108
			c0.041,0.02,0.072,0.039,0.093,0.058c0.045,0.041,0.088,0.093,0.128,0.155l0.203,0.317h-0.194l-0.154-0.242
			c-0.045-0.07-0.082-0.123-0.111-0.16c-0.029-0.037-0.055-0.063-0.078-0.078c-0.023-0.015-0.046-0.025-0.07-0.031
			c-0.017-0.004-0.046-0.006-0.086-0.006H286v0.517H285.846z M286,454.525h0.331c0.07,0,0.126-0.007,0.165-0.022
			c0.04-0.014,0.07-0.038,0.091-0.07c0.021-0.032,0.031-0.067,0.031-0.104c0-0.055-0.02-0.1-0.06-0.136
			c-0.04-0.036-0.103-0.053-0.189-0.053H286V454.525z"/>
		<path fill="#6B6966" d="M288.459,454.801l0.145-0.013c0.007,0.058,0.023,0.106,0.048,0.143c0.025,0.037,0.064,0.068,0.117,0.091
			s0.113,0.035,0.179,0.035c0.059,0,0.111-0.009,0.156-0.026c0.045-0.017,0.079-0.041,0.1-0.072c0.022-0.03,0.033-0.064,0.033-0.1
			c0-0.037-0.011-0.068-0.032-0.096c-0.021-0.027-0.056-0.05-0.105-0.069c-0.031-0.012-0.1-0.031-0.207-0.057
			c-0.107-0.026-0.182-0.05-0.225-0.073c-0.056-0.029-0.097-0.065-0.124-0.109c-0.027-0.043-0.041-0.092-0.041-0.145
			c0-0.059,0.017-0.114,0.05-0.165c0.033-0.051,0.082-0.09,0.146-0.116c0.064-0.027,0.135-0.04,0.214-0.04
			c0.086,0,0.162,0.014,0.228,0.042c0.066,0.028,0.117,0.069,0.152,0.123c0.035,0.054,0.055,0.115,0.057,0.184l-0.148,0.011
			c-0.008-0.074-0.035-0.129-0.081-0.167c-0.046-0.038-0.113-0.056-0.203-0.056c-0.093,0-0.161,0.017-0.204,0.051
			c-0.043,0.034-0.064,0.075-0.064,0.124c0,0.042,0.015,0.076,0.045,0.103c0.03,0.027,0.107,0.055,0.232,0.083
			c0.125,0.028,0.211,0.053,0.258,0.074c0.068,0.031,0.118,0.071,0.15,0.119c0.032,0.048,0.048,0.103,0.048,0.166
			c0,0.062-0.018,0.12-0.053,0.175c-0.035,0.055-0.086,0.098-0.153,0.128c-0.066,0.03-0.141,0.046-0.224,0.046
			c-0.105,0-0.194-0.015-0.265-0.046c-0.071-0.031-0.127-0.077-0.168-0.139C288.482,454.949,288.461,454.879,288.459,454.801z"/>
		<path fill="#6B6966" d="M290.07,454.608c0-0.193,0.052-0.345,0.156-0.454c0.104-0.109,0.238-0.164,0.402-0.164
			c0.107,0,0.204,0.026,0.291,0.077c0.086,0.051,0.152,0.123,0.197,0.215c0.045,0.092,0.068,0.196,0.068,0.313
			c0,0.118-0.024,0.224-0.072,0.317c-0.048,0.093-0.115,0.164-0.203,0.212c-0.087,0.048-0.182,0.072-0.283,0.072
			c-0.11,0-0.208-0.027-0.294-0.079c-0.086-0.053-0.152-0.125-0.196-0.217C290.093,454.807,290.07,454.71,290.07,454.608z
			 M290.229,454.611c0,0.14,0.038,0.251,0.113,0.332c0.075,0.081,0.17,0.121,0.284,0.121c0.116,0,0.211-0.041,0.286-0.122
			c0.075-0.082,0.112-0.197,0.112-0.347c0-0.095-0.016-0.178-0.048-0.248c-0.032-0.071-0.079-0.126-0.141-0.164
			c-0.062-0.039-0.131-0.058-0.208-0.058c-0.109,0-0.203,0.038-0.282,0.112C290.269,454.31,290.229,454.435,290.229,454.611z"/>
		<path fill="#6B6966" d="M292.734,454.767l0.154,0.039c-0.032,0.126-0.09,0.223-0.174,0.289c-0.084,0.067-0.186,0.1-0.308,0.1
			c-0.126,0-0.228-0.026-0.306-0.077c-0.079-0.051-0.138-0.125-0.18-0.222c-0.041-0.097-0.062-0.201-0.062-0.312
			c0-0.121,0.023-0.227,0.07-0.317c0.046-0.09,0.112-0.159,0.198-0.206c0.086-0.047,0.18-0.07,0.282-0.07
			c0.117,0,0.214,0.03,0.294,0.089c0.079,0.059,0.135,0.143,0.166,0.25l-0.152,0.036c-0.027-0.085-0.066-0.146-0.118-0.185
			c-0.051-0.039-0.116-0.058-0.194-0.058c-0.09,0-0.164,0.021-0.224,0.064c-0.06,0.043-0.102,0.1-0.127,0.173
			s-0.037,0.147-0.037,0.224c0,0.099,0.014,0.185,0.043,0.259s0.074,0.129,0.135,0.166c0.061,0.037,0.127,0.055,0.198,0.055
			c0.086,0,0.159-0.025,0.219-0.075C292.673,454.939,292.713,454.865,292.734,454.767z"/>
		<path fill="#6B6966" d="M293.625,455.175v-1.165h0.154v1.165H293.625z"/>
		<path fill="#6B6966" d="M294.444,455.175l0.447-1.165h0.166l0.477,1.165h-0.176l-0.136-0.353h-0.487l-0.128,0.353H294.444z
			 M294.78,454.697h0.395l-0.122-0.323c-0.037-0.098-0.065-0.179-0.083-0.241c-0.015,0.075-0.036,0.149-0.063,0.222L294.78,454.697z
			"/>
		<path fill="#6B6966" d="M296.171,455.175v-1.165h0.154v1.027h0.574v0.137H296.171z"/>
		<path fill="#6B6966" d="M298.513,455.175v-1.165h0.158l0.612,0.914v-0.914h0.148v1.165h-0.158l-0.612-0.915v0.915H298.513z"/>
		<path fill="#6B6966" d="M300.214,455.175v-1.165h0.842v0.137h-0.688v0.357h0.644v0.137h-0.644v0.396h0.715v0.137H300.214z"/>
		<path fill="#6B6966" d="M302.113,455.175v-1.027h-0.384v-0.137h0.923v0.137h-0.385v1.027H302.113z"/>
		<path fill="#6B6966" d="M303.534,455.175l-0.309-1.165h0.158l0.177,0.763c0.019,0.08,0.036,0.159,0.049,0.238
			c0.03-0.125,0.047-0.196,0.052-0.215l0.222-0.786h0.186l0.167,0.589c0.042,0.146,0.072,0.284,0.091,0.412
			c0.015-0.074,0.034-0.158,0.058-0.253l0.183-0.748h0.155l-0.319,1.165h-0.149l-0.245-0.887c-0.021-0.074-0.033-0.12-0.037-0.137
			c-0.012,0.053-0.024,0.099-0.034,0.137l-0.247,0.887H303.534z"/>
		<path fill="#6B6966" d="M305.34,454.608c0-0.193,0.052-0.345,0.156-0.454c0.104-0.109,0.238-0.164,0.402-0.164
			c0.107,0,0.204,0.026,0.291,0.077c0.086,0.051,0.152,0.123,0.197,0.215c0.045,0.092,0.068,0.196,0.068,0.313
			c0,0.118-0.024,0.224-0.072,0.317c-0.048,0.093-0.115,0.164-0.203,0.212c-0.087,0.048-0.182,0.072-0.283,0.072
			c-0.11,0-0.208-0.027-0.294-0.079c-0.086-0.053-0.152-0.125-0.196-0.217C305.362,454.807,305.34,454.71,305.34,454.608z
			 M305.499,454.611c0,0.14,0.038,0.251,0.113,0.332c0.075,0.081,0.17,0.121,0.284,0.121c0.116,0,0.211-0.041,0.286-0.122
			c0.075-0.082,0.112-0.197,0.112-0.347c0-0.095-0.016-0.178-0.048-0.248c-0.032-0.071-0.079-0.126-0.141-0.164
			c-0.062-0.039-0.131-0.058-0.208-0.058c-0.109,0-0.203,0.038-0.282,0.112C305.538,454.31,305.499,454.435,305.499,454.611z"/>
		<path fill="#6B6966" d="M307.175,455.175v-1.165h0.516c0.104,0,0.183,0.01,0.237,0.031c0.054,0.021,0.097,0.058,0.129,0.111
			c0.032,0.053,0.048,0.111,0.048,0.176c0,0.083-0.027,0.152-0.08,0.209c-0.053,0.057-0.136,0.093-0.248,0.108
			c0.041,0.02,0.072,0.039,0.093,0.058c0.045,0.041,0.088,0.093,0.128,0.155l0.203,0.317h-0.194l-0.154-0.242
			c-0.045-0.07-0.082-0.123-0.111-0.16c-0.029-0.037-0.055-0.063-0.078-0.078c-0.023-0.015-0.046-0.025-0.07-0.031
			c-0.017-0.004-0.046-0.006-0.086-0.006h-0.179v0.517H307.175z M307.329,454.525h0.331c0.07,0,0.126-0.007,0.165-0.022
			c0.04-0.014,0.07-0.038,0.091-0.07c0.021-0.032,0.031-0.067,0.031-0.104c0-0.055-0.02-0.1-0.06-0.136
			c-0.04-0.036-0.103-0.053-0.189-0.053h-0.369V454.525z"/>
		<path fill="#6B6966" d="M308.862,455.175v-1.165h0.154v0.578l0.578-0.578h0.209l-0.489,0.472l0.51,0.693h-0.203l-0.415-0.589
			l-0.191,0.186v0.404H308.862z"/>
	</g>
	<g>
		<path fill="#FFAA00" d="M291.073,451.433c0,0.662-0.117,1.296-0.33,1.884c0.453,0.043,0.841,0.305,1.058,0.68
			c0.367-0.778,0.573-1.647,0.573-2.564c0-3.325-2.695-6.02-6.02-6.02c-1.473,0-2.822,0.53-3.868,1.408
			c0.875-0.581,1.925-0.92,3.054-0.92C288.597,445.902,291.073,448.378,291.073,451.433z"/>
		<path fill="#FFAA00" d="M289.422,455.375c-0.998,0.983-2.368,1.59-3.88,1.59c-1.129,0-2.179-0.339-3.054-0.92
			c1.046,0.878,2.395,1.408,3.868,1.408c1.489,0,2.851-0.542,3.902-1.438C289.901,455.92,289.602,455.687,289.422,455.375z"/>
	</g>
</g>
<g>
	<path fill="#0090A1" d="M278,440.723c-8.756,27.117,15.538,13.426,31.812,16.975c5.296-15.16-21.4-20.117-31.645-15.641"/>
	<path fill="#114244" d="M279,427.39c-4.514,0-4.514,7,0,7S283.514,427.39,279,427.39z"/>
	<path fill="#114244" d="M276,437.89c-3.869,0-3.869,6,0,6S279.869,437.89,276,437.89z"/>
</g>
</svg>
