<?xml version="1.0" encoding="utf-8"?>
<!DOCTYPE svg PUBLIC "-//W3C//DTD SVG 1.1//EN" "http://www.w3.org/Graphics/SVG/1.1/DTD/svg11.dtd">
<svg version="1.1" xmlns="http://www.w3.org/2000/svg" xmlns:xlink="http://www.w3.org/1999/xlink" x="0px" y="0px"
	 width="595.28px" height="841.89px" viewBox="0 0 595.28 841.89" enable-background="new 0 0 595.28 841.89" xml:space="preserve">
<g>
	<rect y="-0.38" width="595.28" height="841.89"/>
</g>
<g>
	<path fill="#C06B3E" d="M292,334.89c-0.303,3.966,1.994,7.29,2.486,10.958c0.482,3.588-1.138,7.843-0.235,11.528
		c0.393,1.605,1.071,3.503,2.421,4.67c0.567,0.49,3.896,0.926,5.05,1.528c1.179,0.615,2.692,2.897,3.453,3.132
		c4.491,1.386,10.38-8.087,10.807-12.831c-2.548-1.871-5.457-2.045-7.843-3.678c-3.195-2.188-2.352-2.539-3.376-6.306
		c-2.263-8.329-4.846-4.536-12.013-6.501"/>
</g>
<g>
	<path fill="#EE834A" d="M293,338.14c0.675,2.287,0.897,5.05,1.776,7.496c-9.922,3.517-34.229,13.454-36.532-3.453
		c-1.751-12.852,6.406-25.746,20.157-24.859c-9.695,0.888-11.83,20.797,1.854,15.992c3.552-1.247,5.004-3.984,8.855-1.077
		c1.8,1.359,2.912,4.984,4.389,6.402"/>
</g>
<g>
	<path fill="#FD9E58" d="M256.333,339.89c1.093,4.884-0.287,5.282-4.811,7.644c-1.288-4.954,2.568-5.875,5.979-8.208
		c-0.408-0.109-0.36,0.285-0.668,0.563"/>
</g>
<g>
	<path fill="#E7A47D" d="M261.833,350.89c-3.669,2.968-4.255,9.765-4.796,14.317c-0.527,4.435-1.865,4.86-4.38,8.346
		c-1.922,2.664-3.142,6.481-1.94,9.873c0.962,2.715,5.436,4.002,5.269,6.764c-5.033,1.773-10.339,2.513-13.601-2.32
		c-2.875-4.26-3.236-10.183-1.223-14.634c1.682-3.719,3.342-2.752,6.14-4.949c2.382-1.871,2.305-4.53,2.365-7.23
		c0.115-5.24,0.375-9.67,4.712-12.935c1.073-0.808,2.236-1.522,3.637-2.066c0.774,1.745,1.79,3.943,3.151,5"/>
</g>
<g>
	<path fill="#E18F7D" d="M260.667,350.557c-6.364,6.33-3.864,14.381-8.217,21.292c-2.092,3.322-4.089,5.563-3.458,10.032
		c0.585,4.146,3.421,8.048,7.78,7.8c3.091-0.176,8.18-3.665,9.753,1.052c0.857,2.571-1.836,5.454-1.835,8.644
		c5.063-1.33,10.97,0.225,15.745-2.2c2.876-1.461,6.111-4.678,8-7.583c4.184-6.435,5.103-15.992,6.399-23.215
		c0.56-3.121,0.613-6.387,0.667-9.602c0.059-3.537,1.592-8.252-1.859-9.52c-1.061-0.39-2.477,0.131-3.475,0.337
		c-5.988,1.24-11.594,4.742-17.749,5.13c-4.284,0.27-7.874-1.89-11.917-2.333"/>
</g>
<g>
	<path fill="#DB7664" d="M294.073,361.202c0.351,4.141-1.292,9.721-2.335,13.748c-1.274,4.915-2.319,9.884-4.844,14.357
		c-1.297,2.297-2.42,3.965-4.437,5.593c-5.049,4.077-11.671,2.503-18.02,2.659c-3.955,5.688,3.77,5.815,7.436,4.971
		c4.252-0.979,8.128-1.417,12.565-1.492c3.757-0.064,5.736,0.114,8.367-2.154c3.114-2.684,5.07-6.977,5.967-10.892
		c0.292-1.277-0.074-3.806,0.468-4.958c1.292-2.747,1.797-0.537,4.169-1.501c2.236-0.908,2.767-2.385,3.156-5
		c0.506-3.406-1.814-10.381-4.491-12.666"/>
</g>
<g>
	<path fill="#953A1E" d="M402.839,371.931c-0.725,0.029-1.454-0.336-1.706-1.239c-0.913-3.266-0.225-7.056-1.5-10.167
		c-0.276-0.674-0.574-1.337-0.88-1.994c-1.312-2.479-2.426-4.941-3.312-7.991c-0.675-2.326-1.255-3.739-2.739-5.563
		c-4.329-5.321-16.974-8.348-23.422-9.844c-3.887-0.902-8.598-2.64-12.393-2.868c-4.966-0.298-9.437,4.14-14.048,4.195h1.031
		c-5.756,1.189-15.449,2.43-18.69,6.996c-2.011,2.833-2.469,7.679-4.178,10.734c-0.736,1.315-2.074,3.255-3.301,4.437
		c-0.522,0.502-2.307,1.21-2.55,1.599c-0.979,1.565,0.244,3.259-0.28,5.237c-0.603,2.275-2.417,2.204-3.344,4.097
		c-0.936,1.91,0.187,4.076-0.157,6.025c-0.817,0.063-1.377,0.687-2.042,0.776c3.633,5.276,4.338,11.953,7.52,17.189
		c2.36,3.883,4.53,6.84,6.066,11.201c1.96,5.565,6.663,4.783,11.548,7.174c5.152,2.523,9.498,4.019,15.039,5.938
		c3.324,1.151,6.262,3.003,9.357,3.741c1.661-1.333,3.413-2.277,5.455-2.968c3.329-1.126,5.934-2.913,9.03-4.436
		c4.75-2.336,9.884-3.197,14.779-5.097c5.373-2.086,7.572-10.771,9.877-15.575c3.212-6.696,6.369-13.059,4.802-20.669
		C402.729,372.517,402.751,372.205,402.839,371.931z"/>
</g>
<g>
	<path fill="#0C3037" d="M321.5,461.223c5.795,12.478,10.992,25.155,15.138,37.979c0.901,2.788,4.556,22.562,6.538,23.521
		c-0.173-0.084,0.517,1.843,0.504,1.745c5.142-10.595,6.256-29.061,5.782-40.609c-0.351-8.547-0.429-33.091-6.813-38.489
		c-0.555-0.469-1.005-2.672-1.336-3.462c-3.24,3.311-5.385,6.316-10.11,8.024c-2.188,5.41-4.324,9.178-9.37,12.125"/>
</g>
<g>
	<path fill="#681D09" d="M329.5,340.057c4.253,1.795,9.888,1.511,14.432,3.171c7.406,2.706,14.074,6.648,20.669,10.937
		c9.784,6.363,13.744,14.282,18.749,24.542c2.791,5.721,5.158,11.369,5.978,17.548c0.446,3.36,1.423,6.065,3.497,8.907
		c1.762-3.544,1.993-8.115,3.39-11.868c1.591-4.273,3.688-7.833,5.416-12.043c0.8-1.948,2.098-4.297,1.542-6.536
		c-0.599-2.414-3.463-4.71-4.434-7.135c-0.935-2.333-0.883-5.264-1.092-7.801c-0.526-6.366-3.773-9.121-7.316-14.383
		c-1.243-1.845-0.537-2.373-2.703-3.51c-2.026-1.063-5.464-1.007-7.728-1.701c-3.474-1.065-7.08-2.664-10.375-4.145
		c-3.587-1.611-6.45-2.844-10.532-3.479c-4.088-0.637-4.89-0.071-9.393,1.48c-6.888,2.373-13.972,3.874-21.101,5.348"/>
	<path fill="#124049" d="M346.023,529.388c1.494-4.934,2.236-10.037,2.943-15.133c0.036-0.258,0.116-0.469,0.223-0.645
		c-2.324-19.504-14.03-45.321-24.563-53.279c-6.898-5.212-34.546-10.995-33.073-5.551l-0.374-1.711
		c-1.047,29.289-10.817,57.771-25.118,82.974c17.422,7.526,33.602-36.011,38.879-46.388c-0.04-0.032,1.691,0.085,1.749,0.047
		c5.973,12.866,17.104,28.609,20.52,42.954c6.306-1.715,12.379-1.018,18.427-2.189C345.652,530.075,345.78,529.69,346.023,529.388z"
		/>
</g>
<g>
	<path fill="#1E6674" d="M300.023,454.258c-8.378-1.422-13.714-5.021-22.16-5.278c6.64,18.565-1.443,53.802-13.566,75.268
		c0.537,0.36,0.842,0.992,0.538,1.803c-0.886,2.365-1.828,6.146-4.083,7.807c1.603,0.681,3.329,1.213,5.104,1.532
		c21.742-25.877,28.144-52.953,35.077-82.326L300.023,454.258z"/>
</g>
<g>
	<path fill="#985627" d="M250.333,540.39c-10.351,2.386-24.259,17.793-13.096,26.032c-34.481,3.009-9.074-25.223,11.615-25.365"/>
	<path fill="#814721" d="M261.652,535.057c4.104,13.077-5.254,28.59-18.48,31.536c-14.438,3.215-16.549-13.726-5.927-22.944
		c4.525-3.926,17.306-6.586,23.222-7.719"/>
	<path fill="#814721" d="M346.333,535.723c8.675,5.877,11.532,13.456,8.42,23.297c-6.646-4.318-12.098-10.121-19.222-13.266
		c-6.811,7.53-13.476-3.844-10.665-11.664c0.056-0.056,0.113-0.111,0.169-0.167c8.193-0.08,16.812-0.979,24.806,0.796
		c0.373,1.18-0.761,1.769-0.842,3.171"/>
	<path fill="#663818" d="M259.5,535.39c5.503,1.324,11.231,2.291,16.947,2.629c1.286,6.551,1.526,15.415-5.099,17.885
		c-4.69-4.945-11.744-1.24-16.659,2.004c0.798-7.632,6.509-15.342,4.311-22.517"/>
	<path fill="#663818" d="M348.688,535.557c10.339,3.219,26.584,4.609,31.711,15.685c6.252,13.505-10.346,16.421-21.527,9.445
		c-8.892-5.548-7.453-16.301-12.558-25.308c1.317-0.366,2.491,0.239,3.46,0.179"/>
</g>
<g>
	<path fill="#348F9F" d="M321.644,402.947c-0.335-0.661-0.233-1.293,0.088-1.779c-0.222-0.377-0.441-0.764-0.654-1.168
		c-2.225-4.224-4.08-8.568-6.101-12.887c-1.651-3.529-3.521-6.874-4.178-10.755c-0.029-0.173-0.029-0.334-0.016-0.491
		c-3.452,1.159-4.556,4.24-8.324,7.896c-1.901,1.844-2.205,4.884-3.636,7.415c0.007,0.21-0.027,0.436-0.123,0.68
		c-2.136,5.455-6.966,7.956-12.522,8.96c-3.157,0.57-5.437-0.075-8.465-0.642c-1.147-0.215-2.25-0.167-3.332,0.01
		c-0.068,0.303-0.214,0.583-0.468,0.783c-0.497,0.392-1.006,0.765-1.516,1.141c-0.073,0.053-0.145,0.107-0.218,0.162
		c-0.018,0.015-0.04,0.033-0.104,0.083c-0.171,0.144-0.336,0.292-0.496,0.447c-0.154,0.149-0.33,0.261-0.517,0.345
		c-0.284,0.303-0.691,0.505-1.231,0.505c-0.557,0-0.975-0.213-1.259-0.532c-0.857,0.418-1.823,0.62-2.741,0.532
		c-0.274-0.026-0.532-0.103-0.766-0.217c-0.705-0.161-1.115-0.713-1.234-1.332c-0.159-0.032-0.31-0.076-0.442-0.142
		c-0.031,0.077-0.064,0.154-0.106,0.226c3.098,10.145-1.499,17.745,0.238,27.16c1.612,8.734,9.33,17.661,17.403,23.292
		c0.284-0.308,0.695-0.514,1.24-0.514c0.468,0,0.834,0.154,1.109,0.391c0.009,0.003,0.017,0.002,0.026,0.005
		c4.544,1.67,8.103,3.577,13.173,3.616c4.68,0.036,9.347-0.293,14.025-0.346c0.664-0.007,1.128,0.291,1.404,0.713
		c6.887-4.865,10.706-14.467,16.032-23.488c0.043,0.014-0.03-1.279-0.012-1.339c-0.149-0.017-0.42-0.12-0.382-0.345
		c-2.757-0.331-4.491-2.135-7.261-2.499c0.74-9.38,11.327-7.131,13.509-16.11c0.112-0.461,0.182-0.921,0.23-1.378
		C328.993,410.206,324.062,407.71,321.644,402.947z M308.667,382.487c-2.275,0-2.275-3.527,0-3.527
		C310.941,378.96,310.941,382.487,308.667,382.487z"/>
	<path fill="#348F9F" d="M317.833,393.223c-0.2-1.046-0.736-2.294-1.333-3"/>
	<path d="M365,425.39c-1.134,0.356-7.904-3.394-10.413-3.449c1.786,8.025,1.793,6.518,7.54,11.471
		c3.17-1.249,2.843-7.861,3.373-8.022"/>
</g>
<g>
	<path fill="#FDCCCC" d="M226.5,458.46c5.927,0.052,12.208,0.801,18.031-0.604c5.304-1.279,9.669-4.22,14.128-7.19
		c-9.233-6.784-19.2-15.267-17.441-26.353c-4.627,0.48-7.941,0.404-10.846-3.748c-13.955,6.347-7.943,26.467-4.358,37.958
		C226.164,458.485,226.323,458.458,226.5,458.46z"/>
	<path fill="#FDCCCC" d="M335.465,420.621c-0.065-0.057-0.119-0.117-0.172-0.177c-0.031-0.008-0.063-0.009-0.094-0.02
		c-0.613-0.211-1.21-0.461-1.804-0.719c-0.251-0.109-0.501-0.22-0.751-0.329c-0.082-0.036-0.131-0.057-0.164-0.072
		c-0.03-0.012-0.06-0.024-0.114-0.046c-0.402-0.164-0.744-0.421-0.978-0.742c-0.221,0.105-0.464,0.163-0.72,0.138
		c-1.5-0.142-2.998-0.012-4.5,0c-0.681,0.005-1.153-0.309-1.426-0.75c-0.334,0.139-0.669,0.288-1.008,0.459
		c-0.055,0.466-0.308,0.912-0.842,1.217c-2.709,1.545-5.516,2.905-8.255,4.393c-0.725,1.202-1.278,2.532-2.131,3.659
		c0.031,0.363,0.071,0.726,0.09,1.091c1.842,0.609,3.795,1.214,6.71,0.956c0.276-0.319,1.564,2.445,1.059,2.376
		c-1.523,1.437-2.643,2.293-3.545,3.032c0.099,0.151,0.18,0.315,0.216,0.501c0.292,1.507-0.258,2.761-1.477,3.658
		c-0.556,0.409-1.321,0.294-1.876-0.082c-0.263,0.598-0.531,1.285-0.82,2.122c-0.723-0.013-1.382-0.029-2.024-0.042
		c1.464,3.475,2.595,5.86-0.764,8.791c-4.316,3.767,4.512,8.974,7.562,9.821c0.759,0.211,1.136,0.759,1.222,1.359
		c1.864,0.382,3.762,0.639,5.602,0.842c0.181-0.251,0.37-0.498,0.55-0.754c0.031-0.044,0.073-0.075,0.106-0.116
		c0.141-0.385,0.409-0.716,0.795-0.922c0.074-0.638,0.081-1.35-0.017-2.219c2.166-2.869,3.002-2.697,4.436-6.977
		c0.091-0.016,0.169-0.03,0.252-0.044c-0.601-1.088-0.075-2.793,1.582-2.793c0.171,0,0.328,0.022,0.475,0.056
		c0.07,0.007,0.132-0.004,0.205,0.009c2.192,0.421,3.24-0.268,4.261-2.094c0.911-1.63,1.771-3.261,3.172-4.555
		c0.594-0.548,1.288-0.611,1.883-0.4c0.113-0.194,0.208-0.402,0.308-0.607C341.872,433.781,340.884,425.365,335.465,420.621z"/>
</g>
<g>
	<path fill="#E1B5B4" d="M261.544,449.389c-0.104-0.285-0.145-0.607-0.078-0.967c0.459-2.474-0.499-2.772-1.88-4.284
		c-0.577-0.632-0.752-1.726-0.574-2.547c0.343-1.577,1.786-3.27,0.705-4.872c-0.935-1.386-2.247-1.963-3.885-2.065
		c-1.266-0.078-1.826-1.221-1.674-2.186c-0.882-1.67-1.509-3.945-2.015-5.021c-0.697-1.479,0.699-2.817,1.892-2.672
		c-0.312-0.535-0.627-1.063-0.949-1.568c2.392-1.276,4.66-2.954,6.592-4.91c0.236-1.032,0.568-2.041,0.799-3.069
		c-0.069-0.116-0.134-0.236-0.179-0.37c-0.711-2.141-0.778-4.487-3.111-5.533c-0.826-0.37-1.889-0.688-2.823-1.158
		c-1.248,4.367-4.91,7.252-9.242,9.433c-0.003,0.536-0.215,1.08-0.733,1.479c-2.956,2.273-5.674,4.145-9.557,4.074
		c-0.025,0-0.045-0.008-0.07-0.01c-0.033,0.002-0.062,0.01-0.097,0.01c-0.244,0-0.456-0.047-0.648-0.12
		c0.212,10.538,8.947,25.385,20.538,27.638c1.927,0.375,4.562,0.196,6.992-0.398C261.52,449.987,261.525,449.69,261.544,449.389z"/>
	<path fill="#E1B5B4" d="M259.667,414.89c0.078-1.712-0.485-3.699-1.5-5.333"/>
</g>
<g>
	<path fill="#3B5C65" d="M325.667,410.89c-0.781,2.528-0.681,5.487-0.077,7.997c2.528-0.056,5.883-0.871,8.05-2.199
		c-2.029-3.602-5.647-6.188-10.113-7.279c0.735,0.483,2.008,1.672,2.639,2.314"/>
	<path fill="#F8E2E2" d="M230.167,419.723c0.214-4.641,0.407-9.741,0.833-14.5"/>
	<path fill="#F8E2E2" d="M231,403.557c0-0.056,0-0.111,0-0.167"/>
	<path fill="#F8E2E2" d="M231.167,404.89c-0.046-1.829-0.933-3.309-2.5-4"/>
	<path fill="#F8E2E2" d="M228.5,400.89c-0.112-0.225-0.221-0.442-0.333-0.667"/>
	<path fill="#F8E2E2" d="M227.667,399.89c-0.264-0.129-0.448-0.271-0.667-0.5"/>
	<path fill="#F8E2E2" d="M227,399.39c-0.118-0.059-0.215-0.107-0.333-0.167"/>
	<path fill="#F8E2E2" d="M226.5,399.223c-10.891-0.607-4.873,10.881-5.167,16.798c-0.453,9.121-6.936,17.058-7.149,25.185
		c-0.225,8.543,5.94,15.699,14.117,18.155c-0.029-0.216,0.436-0.476,0.587-0.462c0.008,0.018,0.323-0.504,0.307-0.501
		c-12.287-20.331,6.146-35.587,1.305-55.508"/>
	<path fill="#F8E2E2" d="M230.5,402.89c-0.296-0.851-0.818-1.613-1.5-2.167"/>
	<path fill="#0C3037" d="M265.236,395.89c0.065-0.755,0.509-1.253,1.06-1.503c0.195-1.839,0.462-3.388,0.871-4.497l-15.833,2.167
		c-3.828,2.612-14.563,8.15-20.018,14.989c0.419,4.39-0.158,8.751-0.218,13.177c-0.007,0.522-0.203,0.918-0.494,1.201
		c9.276,11.418,15.183-11.378,22.706-11.801c11.401-0.641,3.147,13.392-1.497,17.743c8.625,2.738,11.701-4.321,12.991-13.185
		C262.173,408.052,264.684,402.273,265.236,395.89z"/>
	<path fill="#0C3037" d="M266.833,389.89c-0.278-0.111-0.556-0.222-0.833-0.333"/>
	<path fill="#0C3037" d="M265.5,389.39c-4.1-2.402-8.647-0.812-11.682,3.332c0.047,0.037,0.223,0.604,0.207,0.635
		c2.67,1.101,5.498,1.1,8.475,0.7"/>
</g>
<g>
	<path fill="#1C0802" d="M263.333,363.057c0.106-2.806-1.31-5.344-3.495-7.03c-1.021-0.788-2.015,0.951-1.009,1.727
		c1.626,1.255,2.582,3.257,2.505,5.303c-0.004,0.101,0.024,0.18,0.044,0.265c-0.031,0.522,0.281,1.068,0.956,1.068
		c0.697,0,1.004-0.581,0.948-1.118C263.299,363.201,263.33,363.139,263.333,363.057z"/>
	<path fill="#1C0802" d="M287.599,362.426c-1.57-0.242-2.904,0.05-4.25,0.893c-1.408,0.882-2.481,2.192-4.021,2.875
		c-1.177,0.522-0.158,2.245,1.009,1.727c2.263-1.003,4-3.987,6.729-3.566C288.329,364.549,288.871,362.622,287.599,362.426z"/>
	<path fill="#1C0802" d="M256.671,363.693c-1.039-0.768-2.034,0.969-1.009,1.727c1.03,0.761,2.473,1.457,3.67,2.331
		c-1.823-0.491-3.868-0.329-5.444,0.495c-0.583,0.062-0.869,0.543-0.848,1.026c0.001,0.027,0.01,0.053,0.013,0.08
		c0.01,0.089,0.021,0.178,0.052,0.261c0.022,0.061,0.061,0.112,0.095,0.167c0.028,0.046,0.048,0.097,0.084,0.138
		c0.057,0.065,0.134,0.112,0.212,0.159c0.031,0.019,0.052,0.047,0.086,0.062c0.12,0.053,0.258,0.085,0.417,0.085
		c0.034,0,0.057-0.015,0.089-0.018c0.184,0.019,0.379,0,0.583-0.119c1.988-1.154,6.023-0.744,6.864,1.736
		c0.373,1.099,1.867,0.856,1.964-0.266C263.865,367.353,259.457,365.753,256.671,363.693z"/>
	<path fill="#1C0802" d="M286.333,369.223c-3.985-0.137-8.262,0.56-11.207,3.46c-0.65,0.64-0.138,1.66,0.707,1.707
		c2.378,0.132,4.415,0.239,6.495,1.53c1.099,0.682,2.103-1.049,1.009-1.727c-1.553-0.964-3.103-1.369-4.749-1.579
		c2.324-1.228,5.13-1.481,7.744-1.391C287.624,371.268,287.619,369.267,286.333,369.223z"/>
	<path fill="#1C0802" d="M269.47,368.719c-1.574,2.925-1.66,6.082-5.637,6.338c-0.548,0.035-0.995,0.428-1,1
		c-0.023,2.538,1.605,5.439,4.234,5.964c0.152,0.03,0.293,0.026,0.422,0c0.06,0.01,0.11,0.036,0.177,0.036c1.29,0,1.29-2,0-2
		c-0.042,0-0.071,0.018-0.111,0.022c-1.443-0.313-2.362-1.714-2.631-3.137c1.486-0.213,2.829-0.713,3.821-1.983
		c1.177-1.507,1.552-3.562,2.451-5.231C271.808,368.593,270.081,367.583,269.47,368.719z"/>
	<path fill="#FFFFFF" d="M357.5,424.723c-1.935,0-1.935,3,0,3S359.435,424.723,357.5,424.723z"/>
	<path fill="#FFFFFF" d="M228.227,391.996c-5.024-4.588-9.467-9.752-14.333-14.5c-1.385-1.351-3.508,0.768-2.121,2.121
		c4.755,4.64,9.113,9.668,13.997,14.176c0.144,0.593,0.606,1.096,1.397,1.096c0.943,0,1.423-0.714,1.446-1.444
		C228.784,392.979,228.715,392.442,228.227,391.996z"/>
	<path fill="#FFFFFF" d="M233.462,387.3c-5.908-8.245-10.793-17.121-15.667-26c-0.931-1.696-3.522-0.183-2.59,1.514
		c4.849,8.835,9.711,17.666,15.58,25.876c0.161,0.565,0.618,1.034,1.381,1.034c0.744,0,1.199-0.444,1.371-0.99
		C233.795,388.336,233.837,387.824,233.462,387.3z"/>
	<path fill="#FFFFFF" d="M235.946,380.825c-2.104-6.483-4.259-12.938-6.985-19.192c-0.771-1.77-3.355-0.241-2.59,1.514
		c2.62,6.012,4.66,12.243,6.682,18.475C233.648,383.454,236.545,382.67,235.946,380.825z"/>
	<path fill="#FFFFFF" d="M231.268,339.11c-0.086,0.032-0.161,0.074-0.236,0.116c-0.011,0-0.021-0.003-0.032-0.003
		c-1.935,0-1.935,3,0,3c0.242,0,0.454-0.047,0.635-0.129c0.137-0.01,0.278-0.034,0.43-0.091c2.261-0.849,4.172,0.216,4.386,2.708
		c0.297,3.453-3.224,3.215-5.553,2.399c-1.329-0.465-2.249,1.12-1.694,2.203c2.65,5.176-4.37,6.919-7.243,3.152
		c-0.076-0.1-0.16-0.185-0.247-0.26c-0.232-0.377-0.635-0.649-1.214-0.649c-1.571,0-1.866,1.979-0.885,2.722
		c2.466,3.02,6.002,4.234,9.725,2.656c2.733-1.159,3.651-3.794,3.312-6.376c3.485,0.311,6.685-1.307,6.809-5.532
		C239.591,340.565,235.395,337.561,231.268,339.11z"/>
	<path fill="#FFFFFF" d="M217.5,343.723c-0.421-3.936-2.751-7.465-6.639-8.692c-3.147-0.993-4.779,1.332-5.32,3.904
		c-8.089-2.884-14.094,7.471-8.634,13.41c-2.864,1.425-4.613,4.131-4.082,7.714c0.719,4.858,6.154,4.982,9.599,3.292
		c0.501-0.246,0.725-0.637,0.756-1.048c0.324-0.882-0.123-2.081-1.347-2.081c-0.598,0-1.009,0.287-1.238,0.683
		c-2.047,0.907-4.186,0.893-4.878-1.644c-0.797-2.921,2.437-4.493,4.682-4.926c1.306-0.252,1.426-2.131,0.358-2.742
		c-6.49-3.713-1.439-13.278,5.319-9.076c0.952,0.592,2.292-0.171,2.257-1.295c-0.204-6.654,5.778-1.126,6.167,2.5
		C214.704,345.626,217.706,345.646,217.5,343.723z"/>
	<path fill="#FFFFFF" d="M208.72,387.325c-0.491,2.196-1.645,4.081-4.127,3.359c-2.351-0.684-2.365-3.052-1.131-4.703
		c0.774-1.035-0.511-2.651-1.694-2.203c-5.913,2.238-6.661-6.943-0.667-5.607c1.119,0.249,2.132-0.701,1.845-1.845
		c-0.354-1.411-0.527-2.768,0.162-4.11c1.004-1.958,3.365,0.837,3.998,1.569c1.268,1.466,3.38-0.666,2.121-2.121
		c-1.899-2.194-4.56-4.054-7.401-2.359c-1.945,1.16-2.32,3.58-2.123,5.764c-3.325,0.107-5.948,2.272-5.883,6.145
		c0.061,3.653,2.756,5.833,5.88,5.937c-0.416,2.437,0.8,4.877,3.335,6.12c4.172,2.046,7.691-1.172,8.578-5.146
		C212.034,386.237,209.142,385.437,208.72,387.325z"/>
	<path fill="#FFFFFF" d="M396.93,376.595c-0.027-0.347-0.145-0.686-0.381-0.939c-4.844-8.52-6.951-18.15-10.3-27.287
		c0.128-0.711-0.192-1.518-0.97-1.744c-0.113-0.071-0.236-0.135-0.381-0.181c-9.844-3.098-20.208-5.136-29.308-10.182
		c-0.851-0.472-1.655-0.052-2.031,0.601c-0.145,0.005-0.296,0.025-0.458,0.081c-7.773,2.701-15.555,5.349-23.667,6.833
		c-0.592,0.108-0.921,0.464-1.037,0.891c-0.071,0.087-0.136,0.185-0.193,0.299c-5.016,10.009-9.164,20.423-14.275,30.386
		c-0.376,0.297-0.551,0.779-0.538,1.254c-0.048,0.714,0.345,1.457,1.178,1.59c3.153,8.587,6.011,17.258,10.802,25.118
		c0.097,0.159,0.212,0.28,0.333,0.383c0.241,0.311,0.614,0.527,1.129,0.527c0.252,0,0.458-0.064,0.644-0.152
		c9.79,4.26,19.946,7.593,29.766,11.781c0.124,0.053,0.245,0.081,0.364,0.1l0.001,0c0.081,0.031,0.165,0.058,0.257,0.074
		c0.094,0.019,0.194,0.03,0.302,0.03c0.037,0,0.069-0.008,0.104-0.01c0.023,0.001,0.039,0.01,0.062,0.01
		c0.738,0,1.176-0.443,1.35-0.984c0.171,0.009,0.352-0.007,0.548-0.07c2.247-0.718,4.435-1.585,6.601-2.506
		c4.224-1.67,8.387-3.488,12.535-5.344c1.611-0.603,3.239-1.16,4.908-1.613c0.407,0.017,0.818-0.116,1.118-0.423
		c0.097-0.099,0.187-0.202,0.272-0.307c0.3-0.206,0.488-0.52,0.569-0.867c0.279-0.104,0.536-0.299,0.727-0.63
		c4.616-7.988,7.571-16.994,9.985-25.858C397.034,377.133,397.016,376.845,396.93,376.595z M384.455,401.646
		c-0.125,0.023-0.251,0.058-0.379,0.116c-1.916,0.862-3.829,1.728-5.746,2.586c-4.116,1.557-8.096,3.464-12.149,5.193
		c-2.078,0.826-4.17,1.616-6.283,2.356c-0.023-0.001-0.042-0.006-0.065-0.006c-0.752,0-1.189,0.461-1.354,1.014
		c-0.049-0.004-0.094-0.014-0.146-0.014c-0.133,0-0.255,0.017-0.37,0.043c-9.875-4.159-20.07-7.504-29.873-11.839
		c-0.208-0.092-0.412-0.134-0.609-0.14c-4.609-7.842-7.369-16.457-10.53-24.95c4.898-9.674,8.949-19.745,13.802-29.441
		c7.923-1.501,15.54-4.086,23.145-6.728c0.382-0.133,0.644-0.369,0.81-0.649c8.946,4.803,18.983,6.934,28.624,9.913
		c3.448,9.381,5.63,19.255,10.594,28.011C391.617,385.533,388.816,394.05,384.455,401.646z"/>
	<path fill="#FFFFFF" d="M333.27,353.851c-3.987,3.673-1.811,11.183,0.973,14.858c2.036,2.688,5.719,6.979,0.541,8.757
		c-1.84,0.632-3.927,0.55-5.798,0.134c-3.826-0.852-3.452-4.785-1.239-7.295c0.142-0.162,0.249-0.33,0.329-0.501
		c0.123-0.134,0.221-0.286,0.301-0.45c0.007-0.014,0.013-0.029,0.019-0.044c0.147-0.322,0.213-0.681,0.194-1.039
		c-0.001-0.027-0.004-0.053-0.006-0.08c-0.015-0.169-0.043-0.337-0.095-0.497c-0.002-0.006-0.002-0.011-0.004-0.017
		c-0.053-0.16-0.13-0.309-0.22-0.45c-0.021-0.032-0.043-0.062-0.065-0.093c-0.094-0.129-0.201-0.249-0.329-0.35
		c-0.007-0.006-0.013-0.013-0.02-0.019c-0.134-0.102-0.291-0.18-0.461-0.242c-0.042-0.016-0.085-0.029-0.13-0.042
		c-0.182-0.053-0.375-0.09-0.594-0.09c-0.034,0-0.062,0.008-0.095,0.009c-0.026-0.001-0.046-0.009-0.072-0.009
		c-1.043,0-1.657,0.656-1.856,1.436c-4.7,5.727-2.491,13.255,5.31,13.984c6.007,0.562,13.834-2.901,11.06-10.247
		c-1.197-3.17-4.192-5.139-5.188-8.427c-0.465-1.535-1.643-5.777,0.618-6.601c1.852-0.675,7.344,1.685,4.809,3.775
		c-1.992,1.642,0.855,4.455,2.828,2.828C350.811,357.59,338.673,348.874,333.27,353.851z"/>
	<path fill="#FFFFFF" d="M363.422,365.396c-0.002-0.036-0.005-0.073-0.009-0.109c-0.009-0.077-0.023-0.152-0.039-0.227
		c-0.01-0.043-0.02-0.085-0.032-0.127c-0.02-0.07-0.043-0.137-0.07-0.204c-0.018-0.044-0.037-0.087-0.058-0.13
		c-0.03-0.063-0.062-0.124-0.099-0.183c-0.026-0.041-0.055-0.08-0.083-0.119c-0.041-0.056-0.082-0.11-0.13-0.161
		c-0.033-0.035-0.07-0.067-0.106-0.099c-0.053-0.048-0.105-0.096-0.164-0.138c-0.038-0.027-0.081-0.048-0.122-0.073
		c-0.066-0.039-0.13-0.079-0.203-0.11c-0.039-0.017-0.084-0.026-0.126-0.041c-0.083-0.028-0.164-0.059-0.255-0.076
		c-3.424-1.945-7.213-3.058-10.75-4.769c-2.311-1.118-4.34,2.331-2.019,3.454c1.414,0.684,2.87,1.272,4.327,1.855
		c-3.885,5.492-6.22,11.845-9.711,17.575c-1.346,2.209,2.114,4.218,3.454,2.019c3.58-5.876,5.933-12.414,10-18
		c0.006-0.009,0.009-0.017,0.015-0.026c1.051,0.474,2.085,0.985,3.082,1.577c0.407,0.242,0.803,0.31,1.171,0.273
		c0.002,0,0.003,0,0.005,0c0.047,0,0.086-0.01,0.131-0.013c0.001,0,0.002,0,0.003,0c0,0,0,0,0,0
		c0.999-0.058,1.581-0.732,1.745-1.516c0.001-0.006,0.003-0.011,0.004-0.017c0.019-0.095,0.03-0.191,0.037-0.288
		c0.002-0.024,0.005-0.048,0.006-0.073C363.43,365.565,363.427,365.481,363.422,365.396z"/>
	<path fill="#FFFFFF" d="M364.157,367.663c-0.011,0.006-0.018,0.014-0.029,0.02c-0.708,0.254-1.111,0.88-1.204,1.564
		c-3.408,3.621-6.24,8.877-6.658,13.557c-0.554,6.192,7.168,6.758,10.772,3.621c3.821-3.326,6.168-9.367,6.548-14.31
		C374.063,365.903,368.578,365.303,364.157,367.663z M369.284,374.026c-0.729,3.33-2.382,6.782-4.746,9.256
		c-1.033,1.081-2.076,1.354-3.559,1.029c-1.603-0.351-0.292-3.456,0.02-4.318c1.219-3.371,3.598-7.062,6.325-9.437
		c0.828-0.368,1.786-0.702,2.004-0.392C370.012,371.134,369.511,372.991,369.284,374.026z"/>
	<path fill="#FFFFFF" d="M385.711,372.807c-9.629-8.954-15.59,14.335-17.139,19.884c-0.695,2.489,3.165,3.544,3.857,1.063
		c0.876-3.14,1.949-6.229,3.115-9.274c3.859,2.277,9.634,4.391,12.535-0.386C390.213,380.581,388.503,375.404,385.711,372.807z
		 M384.944,380.939c-0.184,4.114-5.768,1.046-7.434,0.057c-0.195-0.116-0.386-0.183-0.575-0.23c1.046-2.693,2.682-6.118,4.731-5.725
		C384.133,375.515,385.039,378.82,384.944,380.939z"/>
	<path fill="#FFFFFF" d="M404.957,375.031c-0.062-0.056-0.131-0.105-0.202-0.153c-3.119-10.715-7.118-21.159-11.575-31.386
		c0.095-0.344,0.108-0.711,0.036-1.062c-0.009-0.575-0.309-1.121-1.04-1.435c-11.041-4.743-22.919-6.824-34.144-11.035
		c-0.056-0.021-0.108-0.027-0.163-0.043c-0.428-0.481-1.083-0.732-1.9-0.457c-10.196,3.437-20.234,7.412-30.745,9.812
		c-0.022,0.004-0.043,0.011-0.065,0.016c-0.008,0.002-0.015,0.004-0.023,0.006c-0.012,0.003-0.02,0.008-0.032,0.011
		c-0.1,0.025-0.199,0.055-0.295,0.099c-0.55,0.219-0.88,0.619-1.021,1.085c-2.311,4.007-4.393,8.124-6.333,12.308
		c-0.337-1.061-0.928-2.036-1.853-2.841c-1.539-1.34-3.847-1.29-5.745-1.618c-2.555-0.441-1.35-6.44-1.632-8.169
		c-0.596-3.656-3.128-4.877-6.556-5.225c-3.392-0.344-6.977,1.568-8.568-2.53c-0.821-2.114-1.859-3.18-3.669-4.446
		c-3.778-2.641-8.184,2.641-11.475,3.572c-4.55,1.287-5.259-2.207-3.63-5.888c1.456-3.29,3.933-5.539,7.508-5.595
		c0.055-0.001,0.102-0.014,0.156-0.018c0.061,0.004,0.115,0.018,0.178,0.018c0.3,0,0.563-0.055,0.807-0.134
		c2.478,1.189,4.598-2.775,2.122-4.525c-6.745-4.767-18.834-0.613-23.521,5.519c-3.157,4.13-5.781,10.264-6.241,16.239
		c-5.728,2.896-7.289,8.374-7.333,14.567c-0.002,0.332,0.064,0.62,0.178,0.867c0.012,0.037,0.037,0.069,0.051,0.105
		c-0.824,2.148-1.354,4.412-1.604,6.601c-0.212,1.852-0.037,3.653,0.062,5.51c0.134,2.49,0.113,2.028-2.219,2.488
		c-2.724,0.538-4.647,3.907-5.62,6.196c-2.24,5.267-1.704,12.028,1.744,16.644c1.538,2.06,3.414,3.182,5.442,3.657
		c-4.727,2.706-9.418,5.463-13.793,8.732c-1.935-4.267-6.359-7.461-10.589-3.634c-5.918,5.356-3.485,10.772-1.645,17.366
		c2.278,8.167-6.006,14.68-7.788,22.069c-1.122,4.649-0.543,9.636,2.034,13.687c9.954,15.651,44.265,9.961,50.193-6.89
		c0.246-0.7-0.275-1.736-1.048-1.845c-0.948-0.133-1.804-0.279-2.631-0.39c1.476-1.828,2.005-4.146,0.557-6.733
		c-1.393-2.489-3.765-3.158-6.302-2.912c0.228-0.989,0.145-2.069-0.403-3.235c-0.255-0.543-0.564-0.997-0.896-1.406
		c2.12,0.285,3.852,0.231,5.278-0.092c0.04,0.316,0.145,0.644,0.339,0.976c3.996,6.829,8.495,13.448,14.397,18.656
		c-0.058,0.351-0.039,0.738,0.101,1.163c4.483,13.636,2.391,28.376-0.608,42.098c-3.064,14.018-7.813,27.587-11.892,41.323
		c-0.002,0.005-0.001,0.01-0.003,0.015c-0.118,0.257-0.178,0.537-0.211,0.821c-7.468,1.454-14.866,4.013-21.844,6.916
		c-7.474,3.11-16.742,7.4-19.988,15.4c-3.539,8.721,6.299,15.818,14.109,14.662c6.165-0.912,11.798-3.861,17.113-6.983
		c5.312-3.12,10.438-5.709,16.151-7.759c0.053,0.207,0.107,0.414,0.155,0.623c0.141,0.621,0.752,1.286,1.397,1.397
		c12.047,2.082,12.666-8.41,11.598-17.399c0.932-0.428,1.379-1.414,1.344-2.382c11.984-11.767,21.997-28.143,24.505-45.043
		c7.214,12.548,12.627,25.77,16.425,40.061c0.117,0.438,0.318,0.78,0.566,1.05c-1.834,8.753,1.088,17.264,11.595,16.036
		c0.957-0.112,1.594-0.544,1.929-1.468c0.163-0.45,0.319-0.902,0.477-1.353c7.584,6.57,15.415,13.078,24.552,17.337
		c8.293,3.865,19.639,4.27,22.572-6.453c2.516-9.2-9.14-15.364-15.756-18.4c-7.031-3.226-14.534-5.561-22.091-7.373
		c0.525-0.744,0.617-1.782,0.259-2.625c8.12-28.283,5.203-60.59-1.531-88.829c-0.086-0.36-0.235-0.647-0.415-0.891
		c-0.895-4.872-2.161-9.657-3.883-14.251c1.283-2.85,2.443-5.758,4.091-8.424c0.08-0.13,0.125-0.258,0.189-0.387
		c4.105,1.527,8.183,3.124,12.181,4.928c0.047,0.021,0.092,0.029,0.139,0.047c0.277,0.218,0.634,0.357,1.068,0.382
		c0.297,0.211,0.673,0.344,1.136,0.344c0.124,0,0.237-0.017,0.35-0.035c0.364,0.041,0.756-0.021,1.16-0.238
		c9.611-5.18,19.732-9.482,30.189-12.632c0.226-0.068,0.413-0.17,0.582-0.284c0.727,0.157,1.503-0.089,1.947-0.968
		c5.086-10.084,8.411-20.871,12.202-31.478C405.926,376.162,405.57,375.44,404.957,375.031z M266.309,323.033
		c1.389-1.569,3.75-2.922,6.327-3.75c-2.502,2.742-4.038,6.517-4.388,10.441c-0.667,7.472,8.576,8.064,13.494,5.784
		c1.444-0.67,4.863-4.189,6.278-2.266c1.072,1.457,1.038,3.695,2.546,4.917c3.965,3.214,7.752,1.003,12.347,1.99
		c0.777,0.167,0.406,5.034,0.462,5.784c0.136,1.804,0.709,3.362,1.633,4.887c2.401,3.962,8.902,0.698,7.394,6.678
		c-0.48,1.905-1.456,3.682-2.471,5.347c-2.103,3.45-3.259,1.638-4.994-0.913c-0.732-1.076-1.815-2.096-3.105-2.451
		c-0.67-0.184-3.675,0.603-3.901,0.26c-2.685-4.067,2.32-9.408-0.04-13.435c-2.104-3.593-6.398-3.148-9.805-2.159
		c-4.831,1.402-9.253,3.92-14.138,5.231c-7.239,1.943-12.978-2.209-13.448-9.486C260.108,333.824,262.298,327.564,266.309,323.033z
		 M333.199,421.164c0.078,0.18,0.176,0.35,0.321,0.484c-0.316,0.703-0.635,1.405-0.974,2.098c-0.008,0.016-0.01,0.031-0.018,0.047
		c-0.19,0.348-0.322,0.728-0.407,1.119c-3.537-0.896-8.336,0.187-8.828,4.233c-0.093-0.009-0.189-0.014-0.293-0.005
		c-2.171,0.175-6.033,0.603-7.553-1.438c-1.159-1.556,3.853-4.187,4.944-4.804C323.807,420.966,329.62,418.382,333.199,421.164z
		 M327.374,417.095c0.088-2.029,0.117-4.058,0.122-6.089c1.644,1.992,3.104,4.094,4.41,6.277
		C330.461,416.907,328.929,416.87,327.374,417.095z M335.004,429.797c1.717,1.425,3.177,3.425,4.142,5.572
		c0.372,1.492,0.703,2.994,0.999,4.503c-0.975,1.271-2.164,1.72-3.435,1.601c-0.141-0.044-0.282-0.061-0.422-0.059
		c-4.274-0.798-9.266-7.498-9.982-10.555c-0.903-3.855,4.059-3.53,6.457-2.504C333.261,429.064,334.008,429.598,335.004,429.797z
		 M333.977,413.138c1.019,0.37,2.038,0.741,3.058,1.109c-0.39,0.684-0.751,1.384-1.096,2.09
		C335.32,415.253,334.666,414.187,333.977,413.138z M324.208,452.744c-2.381-1.088-4.656-2.631-6.689-4.275
		c-1.631-1.319-2.929-3.33-3.696-5.265c-0.15-0.379-0.499-1.801-0.436-1.848c0.6-0.45,2.192,0.276,3.06,0.675
		c0.111,0.072,0.234,0.129,0.373,0.168c0.008,0.004,0.022,0.01,0.03,0.013c0.024,0.01,0.045,0.012,0.069,0.021
		c1.524,2.589,4.428,4.52,7.112,5.577c0.985,0.388,2.053,0.76,3.166,1.077c0.083,0.153,0.199,0.302,0.367,0.439
		c1.115,0.908,3.011,3.601,0.636,4.375C326.995,454.094,325.265,453.227,324.208,452.744z M324.246,460.052
		c-2.449,0.157-5.037-1.228-7.078-2.418c-2.158-1.257-4.436-2.91-5.71-5.11c-1.146-1.978,1.151-2.416,2.941-2.688
		c0.058-0.009,0.105-0.027,0.158-0.04c0.378,0.378,0.758,0.726,1.133,1.03c2.658,2.15,5.933,4.52,9.395,5.485
		c0.048,0.068,0.101,0.131,0.161,0.189C325.709,457.967,326.138,459.931,324.246,460.052z M316.08,431.694
		c1.233,0.377,2.627,0.515,3.926,0.543c-0.799,0.218-1.537,0.605-2.165,1.19c-0.033-0.039-0.056-0.08-0.093-0.118
		C317.227,432.768,316.668,432.23,316.08,431.694z M327.976,445.964c-2.563-0.64-5.153-1.713-7.128-3.505
		c-1.5-1.361-2.202-3.529-1.786-5.501c0.78-3.695,5.015-1.717,6.695-0.181c2.346,3.461,6.009,6.479,9.58,7.314
		c1.354,1.276,2.224,2.081-0.003,2.542C332.968,447.122,330.266,446.535,327.976,445.964z M323.5,409.89
		c0,2.76-0.008,5.52-0.164,8.276c-2.951,1.107-5.75,2.8-7.897,4.348c-2.153,1.552-3.643,3.802-2.715,6.358
		c-9.093-7.217-21.396-14.663-18.962-26.951c0.038-0.194,0.043-0.376,0.034-0.552c2.573-1.222,4.672-3.051,5.876-5.8
		c1.609-3.672,1.778-7.08,1.883-10.713c1.515,0.376,3.061,0.13,4.566-0.707c1.857,0.464,3.851,0.455,5.535,1.398
		c3.5,7.903,5.945,16.284,11.118,23.352c0.219,0.299,0.481,0.503,0.761,0.644C323.517,409.655,323.5,409.767,323.5,409.89z
		 M308.551,374.129c-0.79-1.642-1.673-3.346-1.49-3.729c0.006-0.013,0.008-0.025,0.014-0.038c1.189,0.053,2.349-0.418,3.444-1.203
		C309.859,370.814,309.203,372.471,308.551,374.129z M309.912,381.868c-0.377-0.071-0.756-0.136-1.135-0.202
		c0.185-0.346,0.333-0.712,0.452-1.09C309.461,381.005,309.691,381.435,309.912,381.868z M255.454,341.856
		c0.075,0.529,0.179,1.049,0.299,1.564c-1.021,0.553-1.956,1.222-2.797,1.999C253.481,344.062,254.262,342.857,255.454,341.856z
		 M241.888,383.578c-1.121-4.197-0.033-11.971,5.206-12.676c4.314-0.58,3.675-5.132,3.445-8.554
		c-0.341-5.075,1.908-12.374,6.606-15.18c0.449,0.841,0.978,1.645,1.609,2.395c8.006,9.505,19.956,3.609,29.349-0.126
		c0.743-0.295,5.922-2.432,4.954,1.293c-0.302,1.163-0.408,2.187-0.517,3.381c-0.217,2.38-0.402,4.974,0.635,7.208
		c0.663,1.429,1.669,3.193,3.327,3.649c2.474,0.68,3.783-1.119,5.506,1.604c0.503,0.795,1.012,1.44,1.524,1.969
		c-0.632,1.343-0.797,1.897-0.586,3.402c0.086,0.615,0.696,1.141,1.066,1.604l1.538,2.688c0.663,3.941-0.827,5.244-4.47,3.908
		c-1.308-1.214-3.328-0.342-3.414,1.414c-0.194,3.951-0.174,7.232-1.262,11.135c-1.45,5.203-7.551,6.808-12.405,7.198
		c-3.091,0.249-6.53-2.33-9.669-1.193c-3.514,1.274-4.732,4.289-8.966,3.264c-0.2-0.048-0.387-0.06-0.568-0.055
		c0.061-0.941,0.165-1.848,0.323-2.711c0.325,0.12,0.649,0.182,0.972,0.223c-0.096-0.149-0.169-0.312-0.217-0.484c0,0,0,0,0,0
		c-0.096-0.339-0.099-0.705-0.01-1.047c0.002-0.008,0.004-0.015,0.006-0.022c0.046-0.17,0.113-0.331,0.205-0.479
		c-0.155-0.038-0.311-0.074-0.458-0.143c0.191-0.588,0.409-1.155,0.681-1.677c0.012,0.006,0.017,0.016,0.03,0.022
		c0.533,0.241,0.979,0.355,1.352,0.372c-1.405-0.733-1.135-3.332,0.82-3.332c0.253,0,0.473,0.049,0.669,0.127
		c-0.232-1.288-0.801-2.633-1.42-3.348c-1.481-1.712-3.73-2.902-5.995-2.074c-0.77,0.281-1.431,0.774-2.104,1.235
		c-0.035,0.002-0.069,0.005-0.106,0.011c-0.01-0.057-0.018-0.113-0.044-0.188c0.007-0.498,0.121-0.97,0.334-1.42
		c-0.056,0.005-0.108,0.017-0.168,0.017c-0.183,0-0.346-0.03-0.5-0.072c-0.039-0.011-0.075-0.023-0.111-0.036
		c-0.133-0.047-0.255-0.105-0.363-0.179c-0.01-0.007-0.021-0.011-0.03-0.018c-0.125-0.09-0.232-0.197-0.323-0.315
		c-0.005-0.007-0.009-0.013-0.014-0.02c-0.09-0.12-0.164-0.251-0.22-0.391v0c-0.29,0.507-0.534,1.261-0.632,2.039
		c-0.194-0.062-0.402-0.105-0.64-0.105c-0.168,0-0.324,0.019-0.47,0.05c-0.281,0.008-0.574,0.076-0.873,0.223
		C249.404,391.164,243.815,390.789,241.888,383.578z M245.867,397.635c2.25-1.52,4.725-3.002,7.276-4.291
		c1.302-0.385,2.587-0.889,3.812-1.466c0.692-0.037,1.175-0.378,1.47-0.839c0.079-0.029,0.158-0.053,0.237-0.081
		c1.304,0.403,2.965-1.457,4.027-1.845c1.141-0.417,2.275,0.281,3.123,1.16c-1.974,1.629-4.077,2.594-5.884,4.534
		c-1.446,1.553-3.135,2.812-4.796,4.111c-0.047-0.006-0.082-0.027-0.133-0.027c-0.064,0-0.11,0.025-0.168,0.034
		c-0.056-0.01-0.102-0.034-0.165-0.034c-3.481-0.01-6.96-0.096-10.441-0.137C244.771,398.381,245.316,398.007,245.867,397.635z
		 M234.28,404.789c0.008-0.023,0.009-0.044,0.016-0.068c0.266-0.191,0.53-0.386,0.796-0.576c4.943,0.73,9.91,0.473,14.893,0.42
		c-1.22,2.366-1.834,5.079-2.118,7.746c-1.524,1.508-2.715,3.299-3.928,5.058c-2.128,3.086-5.999,4.163-9.419,5.167
		c-0.037-0.006-0.075-0.011-0.113-0.016c-0.006-0.007-0.009-0.017-0.016-0.024C231.217,416.81,232.286,410.694,234.28,404.789z
		 M257.751,436.803c3.893,1.88-0.375,5.633-2.483,6.474c-1.755,0.7-1.062,3.533,0.798,2.893c1.684-0.58,3.202-0.477,4.809-0.253
		c-6.518,13.318-32.177,15.711-42.298,6.588c-7.973-7.187-2.016-17.253,2.19-24.49c2.448-4.212,3.068-9.209,1.763-13.885
		c-1.019-3.652-2.875-6.283-1.068-10.219c2.124-4.625,6.003-4.298,8.055-0.141c-0.003,0.042-0.017,0.076-0.017,0.12v2
		c0,0.105,0.013,0.201,0.029,0.295c-0.022,0.115-0.034,0.238-0.029,0.372c0.158,4.269-2.091,8.199-2.309,12.444
		c-0.221,4.303,3.326,6.005,6.984,6.494c0.181,0.064,0.384,0.088,0.606,0.062c0.319,0.012,0.582-0.063,0.785-0.204
		c3.393-1.01,6.773-2.154,9.424-4.591c1.407-1.293,2.475-2.872,3.608-4.412c0.514,0.02,1.052-0.296,1.069-0.959
		c0.004-0.156,0.014-0.305,0.02-0.459c0.523-0.639,1.08-1.253,1.707-1.813c2.776-2.484,5.185-3.901,6.493,1.171
		c0.781,3.03-1.585,5.667-3.58,7.557c-1.991,1.885-4.471,3.383-7.093,4.534c-2.352,0.255-4.771,1.191-6.638,2.215
		c-1.541,0.846-0.462,3.104,1.156,2.742c1.736-0.389,3.847-1.102,6.031-2.078c1.027-0.033,2.056,0.158,3.058,0.698
		c2.521,1.358,1.402,3.14-0.37,4.529c-1.627,0.682-3.113,1.527-4.209,2.276c-1.348,0.922-0.548,3.268,1.156,2.742
		c1.692-0.522,3.762-1.494,5.337-2.84C254.385,436.122,256.101,436.006,257.751,436.803z M253.599,426.592
		c-0.324-0.052-0.596,0.039-0.806,0.203c-0.053-0.046-0.104-0.094-0.169-0.127c6.67-4.206,11.88-10.644,6.395-17.705
		c-2.601-3.348-6.007-1.178-8.696,1.107c1.037-4.291,3.36-7.684,7.462-10.674c1.715-1.25,3.121-2.706,4.564-4.256
		c1.024-1.099,2.351-1.787,3.609-2.575c-4.072,4.579-3.236,11.724-2.848,17.375C263.653,417.86,264.82,428.403,253.599,426.592z
		 M263.659,426.962c-0.199-0.339-0.438-0.598-0.702-0.788c3.422-4.175,1.99-12.655,1.791-20.252
		c3.652,0.825,5.796,0.516,8.817-2.153c2.782-2.458,5.813-0.283,8.852-0.017c2.553,0.224,4.833-0.233,7.196-0.908
		c-1.68,15.895,15.767,23.366,25.306,33.295c0.355,0.37,0.751,0.549,1.144,0.593c-0.016,0.07-0.041,0.129-0.056,0.2
		c-0.131,0.62-0.167,1.217-0.141,1.797c-2.571-0.641-5.468-0.417-5.424,3.036c0.022,1.791,0.844,3.718,1.98,5.425
		c-2.531,0.668-4.801,2.282-4.194,5.205c-9.103,0.04-17.161,0.693-25.559-3.888C274.114,443.839,268.444,435.141,263.659,426.962z
		 M276.295,549.137c-0.139,1.83-0.807,3.632-2.404,4.634c-1.642,1.03-3.754,1.443-3.64-0.631c0.069-1.266-1.335-2.32-2.532-1.929
		c-5.348,1.748-10.329,3.629-15.228,6.452c-4.361,2.513-8.517,5.22-13.199,7.141c-5.119,2.099-11.679,3.509-15.3-1.771
		c-1.998-2.913-1.361-6.058,0.728-8.695c4.938-6.235,13.956-9.527,21.158-12.16c5.858-2.141,11.991-4.067,18.155-5.109
		c0.314-0.053,0.571-0.159,0.778-0.302c3.35,2.135,7.043,3.339,11.03,3.726C276.243,543.361,276.515,546.229,276.295,549.137z
		 M359.985,540.837c6.591,2.362,18.13,6.351,19.996,14.148c1.007,4.208-3.411,7.978-7.158,8.39
		c-4.634,0.51-9.443-1.945-13.369-4.082c-8.201-4.463-15.283-10.724-22.29-16.817c-1.184-1.03-2.813-0.578-3.343,0.883
		c-0.347,0.956-0.68,1.917-1.015,2.877c-6.372,0.072-7.487-5.042-6.345-10.8c4.381,0.479,8.767,0.533,13.016-0.365
		C346.43,536.522,353.298,538.44,359.985,540.837z M341.092,529.464c-4.719,1.521-9.572,1.519-14.536,0.982
		c-5.182-18.944-13.165-36.148-24.398-52.317c-1.826-2.628-6.162-0.132-4.317,2.524c1.217,1.752,2.388,3.518,3.529,5.295
		c-0.064,0.214-0.112,0.44-0.12,0.694c-0.587,18.255-11.7,36.576-24.689,48.917c-3.556-0.29-6.9-1.346-9.813-3.447
		c4.086-13.589,8.609-27.037,11.643-40.92c2.724-12.463,4.417-25.892,1.567-38.479c9.16,5.424,18.786,4.679,29.043,4.679
		c0.795,0,1.392-0.306,1.795-0.764c1.398,1.379,3.109,2.523,4.568,3.425c0.171,0.106,0.353,0.208,0.529,0.312
		c-0.175,0.182-0.34,0.387-0.483,0.638c-3.155,5.544-5.822,11.337-8.75,17c-1.774,3.431,3.403,6.466,5.181,3.028
		c2.928-5.663,5.595-11.456,8.75-17c0.278-0.488,0.392-0.966,0.404-1.421c1.422,0.38,2.877,0.544,4.304,0.319
		c3.173-0.502,3.548-3.575,3.062-6.202c1.641-0.178,2.838-1.311,3.52-2.819c0.652-1.441,0.5-2.877-0.114-4.147
		c1.928,0.167,3.84,0.044,5.563-0.561c2.83-0.993,2.781-3.18,1.719-5.133c0.376-0.106,0.741-0.259,1.099-0.437
		C346.528,471.002,349.178,502.26,341.092,529.464z M390.262,405.874c-0.147,0.012-0.301,0.039-0.461,0.087
		c-10.567,3.183-20.838,7.534-30.571,12.734c-0.107-0.069-0.221-0.129-0.347-0.176c-0.015-0.007-0.026-0.017-0.041-0.024
		c-5.071-2.288-10.262-4.262-15.479-6.17c-0.662-0.467-1.446-0.762-2.254-0.822c-4.985-1.807-9.982-3.585-14.912-5.544
		c-0.252-0.1-0.485-0.137-0.705-0.139c-5.893-8.629-8.144-19.044-13.266-28.108c-0.157-0.278-0.349-0.488-0.56-0.642
		c4.574-11.615,9.118-23.256,15.324-34.115c10.051-2.366,19.684-6.122,29.447-9.434c0.156,0.115,0.326,0.22,0.53,0.296
		c10.651,3.996,21.963,5.951,32.472,10.336c-0.037,0.342,0.003,0.705,0.166,1.078c4.526,10.361,8.535,20.976,11.632,31.856
		c0.017,0.061,0.045,0.111,0.066,0.168C397.893,386.904,394.81,396.683,390.262,405.874z"/>
	<path d="M366,422.39c-2.735,1.949-6.486,2.11-9.5,0.5"/>
	<path d="M356.5,422.89c-1.377-3.289-5.554,2.804-5.021,5.111c7.637,1.709,6.602,2.978,15.08,1.4
		c-0.08-0.171-0.618-3.446-0.649-3.426c-2.251-0.809-8.941-2.288-10.411-4.085"/>
	<path d="M355.5,421.89c-0.167,0-0.333,0-0.5,0"/>
	<g>
		<path d="M267.075,388.469c-2.387-1.728-5.327-1.11-7.513,0.551c-0.12-0.672-0.108-1.349,0.239-1.98
			c0.501-0.91,1.698-1.187,2.632-1.353c1.268-0.225,0.729-2.152-0.532-1.929c-1.547,0.274-2.949,0.924-3.827,2.272
			c-0.853,1.31-0.645,3.052-0.205,4.458c0.21,0.671,0.877,0.805,1.38,0.599c0.34,0.171,0.765,0.17,1.125-0.157
			c1.432-1.303,3.386-2.019,5.204-1.062c1.819,0.959,1.587,2.969,0.753,4.5c0,0,0,0,0,0c-0.275,0.165-0.425,0.454-0.45,0.764
			c-0.001,0.008-0.003,0.016-0.004,0.024c-0.004,0.072,0.004,0.141,0.013,0.213c0.006,0.049,0.012,0.096,0.024,0.143
			c0.014,0.053,0.033,0.102,0.055,0.152c0.026,0.062,0.059,0.117,0.097,0.172c0.026,0.037,0.051,0.072,0.082,0.104
			c0.054,0.057,0.12,0.102,0.191,0.143c0.033,0.019,0.061,0.043,0.098,0.058c0.115,0.048,0.244,0.08,0.396,0.08
			c0.06,0,0.103-0.024,0.157-0.032c0.322,0.017,0.652-0.114,0.873-0.463C269.351,393.388,269.53,390.247,267.075,388.469z"/>
		<path d="M272.5,388.223c-0.043,4.21-1.1,9.44-6.333,9.167c-0.036-0.002-0.061,0.013-0.096,0.014
			c-0.026-0.002-0.044-0.014-0.071-0.014c-1.29,0-1.29,2,0,2c0.035,0,0.06-0.016,0.093-0.019c0.027,0.003,0.046,0.017,0.074,0.019
			c6.413,0.335,8.279-5.837,8.333-11.167C274.513,386.933,272.513,386.934,272.5,388.223z"/>
	</g>
</g>
<g>
</g>
</svg>
